%FSLAX45Y45*%
G04 Gerber Fmt 4.5, Leading zero omitted, Abs format (unit mm)*
G04 Created by KiCad (PCBNEW (6.0.1)) date 2022-03-14 16:44:21*
%MOMM*%
%LPD*%
G01*
G04 APERTURE LIST*
%TA.AperFunction,Profile*%
%ADD10C,0.200000*%
%TD*%
%ADD11C,0.200000*%
%ADD12C,0.040000*%
%ADD13C,0.075000*%
%ADD14C,0.080000*%
%ADD15C,0.100000*%
%ADD16C,0.102000*%
%ADD17C,0.320000*%
G04 APERTURE END LIST*
D10*
X8119220Y-8995923D02*
X7935901Y-8812604D01*
X7598084Y-11183720D02*
X7481529Y-10399757D01*
X12396267Y-11203720D02*
X12520000Y-10400000D01*
X7598084Y-11183720D02*
G75*
G03*
X7745945Y-11282747I121078J20885D01*
G01*
X8643009Y-8105497D02*
G75*
G03*
X8501588Y-8105497I-70711J-70711D01*
G01*
X11516467Y-8940539D02*
G75*
G03*
X9098280Y-8376920I-1498043J-957918D01*
G01*
X8873880Y-8336367D02*
G75*
G03*
X9098280Y-8376920I141421J141421D01*
G01*
X11516467Y-8940539D02*
G75*
G03*
X11816778Y-9242082I842484J538727D01*
G01*
X7450000Y-9910244D02*
G75*
G03*
X7481529Y-10399757I2637217J-75910D01*
G01*
X8873880Y-8336367D02*
X8643009Y-8105497D01*
X12280809Y-11284669D02*
G75*
G03*
X12396267Y-11203720I14573J102027D01*
G01*
X7958000Y-10000000D02*
G75*
G03*
X7958000Y-10000000I-150000J0D01*
G01*
X12520000Y-10400000D02*
G75*
G03*
X12551470Y-9930243I-2571814J408225D01*
G01*
X11709388Y-11188722D02*
X12280809Y-11284669D01*
X11816778Y-9242082D02*
X12387196Y-9607725D01*
X7745945Y-11282747D02*
X8290548Y-11188722D01*
X12342000Y-10000000D02*
G75*
G03*
X12342000Y-10000000I-150000J0D01*
G01*
X7935901Y-8671183D02*
G75*
G03*
X7935901Y-8812604I70711J-70711D01*
G01*
X11709388Y-11188722D02*
G75*
G03*
X11385941Y-11329174I-23936J-387537D01*
G01*
X8608940Y-11329174D02*
G75*
G03*
X11385941Y-11329175I1388501J1145454D01*
G01*
X8100713Y-9295116D02*
G75*
G03*
X8119220Y-8995923I-122915J157772D01*
G01*
X7613903Y-9609428D02*
X8100713Y-9295116D01*
X12551470Y-9930243D02*
G75*
G03*
X12387196Y-9607725I-359471J19999D01*
G01*
X8608940Y-11329174D02*
G75*
G03*
X8290548Y-11188722I-298977J-246642D01*
G01*
X8501588Y-8105497D02*
X7935901Y-8671183D01*
X7613903Y-9609428D02*
G75*
G03*
X7450000Y-9910244I194097J-300816D01*
G01*
D11*
D12*
X8616000Y-8727760D02*
X8656000Y-8767760D01*
X8656000Y-8727760D02*
X8616000Y-8767760D01*
X8727760Y-10399080D02*
X8767760Y-10439080D01*
X8767760Y-10399080D02*
X8727760Y-10439080D01*
X8859840Y-10896920D02*
X8899840Y-10936920D01*
X8899840Y-10896920D02*
X8859840Y-10936920D01*
X8859840Y-11140760D02*
X8899840Y-11180760D01*
X8899840Y-11140760D02*
X8859840Y-11180760D01*
X9012240Y-9154480D02*
X9052240Y-9194480D01*
X9052240Y-9154480D02*
X9012240Y-9194480D01*
X9469440Y-9352600D02*
X9509440Y-9392600D01*
X9509440Y-9352600D02*
X9469440Y-9392600D01*
X10526770Y-11618970D02*
X10566770Y-11658970D01*
X10566770Y-11618970D02*
X10526770Y-11658970D01*
X10546400Y-10419400D02*
X10586400Y-10459400D01*
X10586400Y-10419400D02*
X10546400Y-10459400D01*
X11333800Y-10800400D02*
X11373800Y-10840400D01*
X11373800Y-10800400D02*
X11333800Y-10840400D01*
D13*
X7815810Y-10653918D02*
G75*
G03*
X7815810Y-10653918I-37500J0D01*
G01*
X7850540Y-10850880D02*
G75*
G03*
X7850540Y-10850880I-37500J0D01*
G01*
X8246259Y-8810823D02*
G75*
G03*
X8246259Y-8810823I-37500J0D01*
G01*
X8387680Y-8669402D02*
G75*
G03*
X8387680Y-8669402I-37500J0D01*
G01*
X8400060Y-9573920D02*
G75*
G03*
X8400060Y-9573920I-37500J0D01*
G01*
X8400060Y-9773920D02*
G75*
G03*
X8400060Y-9773920I-37500J0D01*
G01*
X8400060Y-9973920D02*
G75*
G03*
X8400060Y-9973920I-37500J0D01*
G01*
X8480460Y-10535920D02*
G75*
G03*
X8480460Y-10535920I-37500J0D01*
G01*
X8515190Y-10732882D02*
G75*
G03*
X8515190Y-10732882I-37500J0D01*
G01*
X8529102Y-8527980D02*
G75*
G03*
X8529102Y-8527980I-37500J0D01*
G01*
X8670523Y-8386559D02*
G75*
G03*
X8670523Y-8386559I-37500J0D01*
G01*
X9975300Y-10368280D02*
G75*
G03*
X9975300Y-10368280I-37500J0D01*
G01*
X10175300Y-10368280D02*
G75*
G03*
X10175300Y-10368280I-37500J0D01*
G01*
X10375300Y-10368280D02*
G75*
G03*
X10375300Y-10368280I-37500J0D01*
G01*
X10735980Y-11384280D02*
G75*
G03*
X10735980Y-11384280I-37500J0D01*
G01*
X10899810Y-11269565D02*
G75*
G03*
X10899810Y-11269565I-37500J0D01*
G01*
X11063641Y-11154849D02*
G75*
G03*
X11063641Y-11154849I-37500J0D01*
G01*
X11700232Y-10829402D02*
G75*
G03*
X11700232Y-10829402I-37500J0D01*
G01*
X11734961Y-10632440D02*
G75*
G03*
X11734961Y-10632440I-37500J0D01*
G01*
X12250650Y-10931002D02*
G75*
G03*
X12250650Y-10931002I-37500J0D01*
G01*
X12285380Y-10734040D02*
G75*
G03*
X12285380Y-10734040I-37500J0D01*
G01*
D14*
X10027920Y-11230640D02*
X10027920Y-11310640D01*
X9987920Y-11270640D02*
X10067920Y-11270640D01*
X10027920Y-11430640D02*
X10027920Y-11510640D01*
X9987920Y-11470640D02*
X10067920Y-11470640D01*
X10027920Y-11630640D02*
X10027920Y-11710640D01*
X9987920Y-11670640D02*
X10067920Y-11670640D01*
X10227920Y-11230640D02*
X10227920Y-11310640D01*
X10187920Y-11270640D02*
X10267920Y-11270640D01*
X10227920Y-11430640D02*
X10227920Y-11510640D01*
X10187920Y-11470640D02*
X10267920Y-11470640D01*
X10227920Y-11630640D02*
X10227920Y-11710640D01*
X10187920Y-11670640D02*
X10267920Y-11670640D01*
D15*
X9900716Y-10804956D02*
X9900716Y-10734244D01*
X9830004Y-10734244D01*
X9830004Y-10804956D01*
X9900716Y-10804956D01*
X10154716Y-10804956D02*
X10154716Y-10734244D01*
X10084004Y-10734244D01*
X10084004Y-10804956D01*
X10154716Y-10804956D01*
X10408716Y-10804956D02*
X10408716Y-10734244D01*
X10338004Y-10734244D01*
X10338004Y-10804956D01*
X10408716Y-10804956D01*
X10662716Y-10804956D02*
X10662716Y-10734244D01*
X10592004Y-10734244D01*
X10592004Y-10804956D01*
X10662716Y-10804956D01*
X10916716Y-10804956D02*
X10916716Y-10734244D01*
X10846004Y-10734244D01*
X10846004Y-10804956D01*
X10916716Y-10804956D01*
D16*
X9043960Y-9748140D02*
X9094960Y-9697140D01*
X9043960Y-9646140D01*
X8992960Y-9697140D01*
X9043960Y-9748140D01*
X9043960Y-10048140D02*
X9094960Y-9997140D01*
X9043960Y-9946140D01*
X8992960Y-9997140D01*
X9043960Y-10048140D01*
X9343960Y-9748140D02*
X9394960Y-9697140D01*
X9343960Y-9646140D01*
X9292960Y-9697140D01*
X9343960Y-9748140D01*
X9343960Y-10048140D02*
X9394960Y-9997140D01*
X9343960Y-9946140D01*
X9292960Y-9997140D01*
X9343960Y-10048140D01*
X9432721Y-11249101D02*
X9483721Y-11198101D01*
X9432721Y-11147101D01*
X9381721Y-11198101D01*
X9432721Y-11249101D01*
X9484816Y-11544543D02*
X9535816Y-11493543D01*
X9484816Y-11442543D01*
X9433816Y-11493543D01*
X9484816Y-11544543D01*
X9643960Y-9748140D02*
X9694960Y-9697140D01*
X9643960Y-9646140D01*
X9592960Y-9697140D01*
X9643960Y-9748140D01*
X9643960Y-10048140D02*
X9694960Y-9997140D01*
X9643960Y-9946140D01*
X9592960Y-9997140D01*
X9643960Y-10048140D01*
X9943960Y-9748140D02*
X9994960Y-9697140D01*
X9943960Y-9646140D01*
X9892960Y-9697140D01*
X9943960Y-9748140D01*
X9943960Y-10048140D02*
X9994960Y-9997140D01*
X9943960Y-9946140D01*
X9892960Y-9997140D01*
X9943960Y-10048140D01*
X10243960Y-9748140D02*
X10294960Y-9697140D01*
X10243960Y-9646140D01*
X10192960Y-9697140D01*
X10243960Y-9748140D01*
X10243960Y-10048140D02*
X10294960Y-9997140D01*
X10243960Y-9946140D01*
X10192960Y-9997140D01*
X10243960Y-10048140D01*
X10543960Y-9748140D02*
X10594960Y-9697140D01*
X10543960Y-9646140D01*
X10492960Y-9697140D01*
X10543960Y-9748140D01*
X10543960Y-10048140D02*
X10594960Y-9997140D01*
X10543960Y-9946140D01*
X10492960Y-9997140D01*
X10543960Y-10048140D01*
X10843960Y-9748140D02*
X10894960Y-9697140D01*
X10843960Y-9646140D01*
X10792960Y-9697140D01*
X10843960Y-9748140D01*
X10843960Y-10048140D02*
X10894960Y-9997140D01*
X10843960Y-9946140D01*
X10792960Y-9997140D01*
X10843960Y-10048140D01*
X11143960Y-9748140D02*
X11194960Y-9697140D01*
X11143960Y-9646140D01*
X11092960Y-9697140D01*
X11143960Y-9748140D01*
X11143960Y-10048140D02*
X11194960Y-9997140D01*
X11143960Y-9946140D01*
X11092960Y-9997140D01*
X11143960Y-10048140D01*
D17*
X7648000Y-9840000D02*
X7968000Y-10160000D01*
X7968000Y-9840000D02*
X7648000Y-10160000D01*
X7968000Y-10000000D02*
G75*
G03*
X7968000Y-10000000I-160000J0D01*
G01*
X12032000Y-9840000D02*
X12352000Y-10160000D01*
X12352000Y-9840000D02*
X12032000Y-10160000D01*
X12352000Y-10000000D02*
G75*
G03*
X12352000Y-10000000I-160000J0D01*
G01*
D11*
X7696527Y-12304196D02*
X7696527Y-12104196D01*
X7744146Y-12104196D01*
X7772717Y-12113720D01*
X7791765Y-12132768D01*
X7801289Y-12151815D01*
X7810812Y-12189910D01*
X7810812Y-12218482D01*
X7801289Y-12256577D01*
X7791765Y-12275625D01*
X7772717Y-12294672D01*
X7744146Y-12304196D01*
X7696527Y-12304196D01*
X7896527Y-12304196D02*
X7896527Y-12170863D01*
X7896527Y-12208958D02*
X7906050Y-12189910D01*
X7915574Y-12180387D01*
X7934622Y-12170863D01*
X7953670Y-12170863D01*
X8020336Y-12304196D02*
X8020336Y-12170863D01*
X8020336Y-12104196D02*
X8010812Y-12113720D01*
X8020336Y-12123244D01*
X8029860Y-12113720D01*
X8020336Y-12104196D01*
X8020336Y-12123244D01*
X8144146Y-12304196D02*
X8125098Y-12294672D01*
X8115574Y-12275625D01*
X8115574Y-12104196D01*
X8248908Y-12304196D02*
X8229860Y-12294672D01*
X8220336Y-12275625D01*
X8220336Y-12104196D01*
X8477479Y-12304196D02*
X8477479Y-12104196D01*
X8544146Y-12247053D01*
X8610812Y-12104196D01*
X8610812Y-12304196D01*
X8791765Y-12304196D02*
X8791765Y-12199434D01*
X8782241Y-12180387D01*
X8763193Y-12170863D01*
X8725098Y-12170863D01*
X8706051Y-12180387D01*
X8791765Y-12294672D02*
X8772717Y-12304196D01*
X8725098Y-12304196D01*
X8706051Y-12294672D01*
X8696527Y-12275625D01*
X8696527Y-12256577D01*
X8706051Y-12237529D01*
X8725098Y-12228006D01*
X8772717Y-12228006D01*
X8791765Y-12218482D01*
X8887003Y-12170863D02*
X8887003Y-12370863D01*
X8887003Y-12180387D02*
X8906051Y-12170863D01*
X8944146Y-12170863D01*
X8963193Y-12180387D01*
X8972717Y-12189910D01*
X8982241Y-12208958D01*
X8982241Y-12266101D01*
X8972717Y-12285148D01*
X8963193Y-12294672D01*
X8944146Y-12304196D01*
X8906051Y-12304196D01*
X8887003Y-12294672D01*
X9067955Y-12285148D02*
X9077479Y-12294672D01*
X9067955Y-12304196D01*
X9058432Y-12294672D01*
X9067955Y-12285148D01*
X9067955Y-12304196D01*
X9067955Y-12180387D02*
X9077479Y-12189910D01*
X9067955Y-12199434D01*
X9058432Y-12189910D01*
X9067955Y-12180387D01*
X9067955Y-12199434D01*
D12*
X7398908Y-12613720D02*
X7438908Y-12653720D01*
X7438908Y-12613720D02*
X7398908Y-12653720D01*
D11*
X7734622Y-12524196D02*
X7753670Y-12524196D01*
X7772717Y-12533720D01*
X7782241Y-12543244D01*
X7791765Y-12562291D01*
X7801289Y-12600387D01*
X7801289Y-12648006D01*
X7791765Y-12686101D01*
X7782241Y-12705148D01*
X7772717Y-12714672D01*
X7753670Y-12724196D01*
X7734622Y-12724196D01*
X7715574Y-12714672D01*
X7706050Y-12705148D01*
X7696527Y-12686101D01*
X7687003Y-12648006D01*
X7687003Y-12600387D01*
X7696527Y-12562291D01*
X7706050Y-12543244D01*
X7715574Y-12533720D01*
X7734622Y-12524196D01*
X7887003Y-12705148D02*
X7896527Y-12714672D01*
X7887003Y-12724196D01*
X7877479Y-12714672D01*
X7887003Y-12705148D01*
X7887003Y-12724196D01*
X8067955Y-12590863D02*
X8067955Y-12724196D01*
X8020336Y-12514672D02*
X7972717Y-12657529D01*
X8096527Y-12657529D01*
X8210812Y-12524196D02*
X8229860Y-12524196D01*
X8248908Y-12533720D01*
X8258431Y-12543244D01*
X8267955Y-12562291D01*
X8277479Y-12600387D01*
X8277479Y-12648006D01*
X8267955Y-12686101D01*
X8258431Y-12705148D01*
X8248908Y-12714672D01*
X8229860Y-12724196D01*
X8210812Y-12724196D01*
X8191765Y-12714672D01*
X8182241Y-12705148D01*
X8172717Y-12686101D01*
X8163193Y-12648006D01*
X8163193Y-12600387D01*
X8172717Y-12562291D01*
X8182241Y-12543244D01*
X8191765Y-12533720D01*
X8210812Y-12524196D01*
X8401289Y-12524196D02*
X8420336Y-12524196D01*
X8439384Y-12533720D01*
X8448908Y-12543244D01*
X8458432Y-12562291D01*
X8467955Y-12600387D01*
X8467955Y-12648006D01*
X8458432Y-12686101D01*
X8448908Y-12705148D01*
X8439384Y-12714672D01*
X8420336Y-12724196D01*
X8401289Y-12724196D01*
X8382241Y-12714672D01*
X8372717Y-12705148D01*
X8363193Y-12686101D01*
X8353670Y-12648006D01*
X8353670Y-12600387D01*
X8363193Y-12562291D01*
X8372717Y-12543244D01*
X8382241Y-12533720D01*
X8401289Y-12524196D01*
X8553670Y-12724196D02*
X8553670Y-12590863D01*
X8553670Y-12609910D02*
X8563193Y-12600387D01*
X8582241Y-12590863D01*
X8610812Y-12590863D01*
X8629860Y-12600387D01*
X8639384Y-12619434D01*
X8639384Y-12724196D01*
X8639384Y-12619434D02*
X8648908Y-12600387D01*
X8667955Y-12590863D01*
X8696527Y-12590863D01*
X8715574Y-12600387D01*
X8725098Y-12619434D01*
X8725098Y-12724196D01*
X8820336Y-12724196D02*
X8820336Y-12590863D01*
X8820336Y-12609910D02*
X8829860Y-12600387D01*
X8848908Y-12590863D01*
X8877479Y-12590863D01*
X8896527Y-12600387D01*
X8906051Y-12619434D01*
X8906051Y-12724196D01*
X8906051Y-12619434D02*
X8915574Y-12600387D01*
X8934622Y-12590863D01*
X8963193Y-12590863D01*
X8982241Y-12600387D01*
X8991765Y-12619434D01*
X8991765Y-12724196D01*
X9382241Y-12514672D02*
X9210812Y-12771815D01*
X9639384Y-12524196D02*
X9658432Y-12524196D01*
X9677479Y-12533720D01*
X9687003Y-12543244D01*
X9696527Y-12562291D01*
X9706051Y-12600387D01*
X9706051Y-12648006D01*
X9696527Y-12686101D01*
X9687003Y-12705148D01*
X9677479Y-12714672D01*
X9658432Y-12724196D01*
X9639384Y-12724196D01*
X9620336Y-12714672D01*
X9610812Y-12705148D01*
X9601289Y-12686101D01*
X9591765Y-12648006D01*
X9591765Y-12600387D01*
X9601289Y-12562291D01*
X9610812Y-12543244D01*
X9620336Y-12533720D01*
X9639384Y-12524196D01*
X9791765Y-12705148D02*
X9801289Y-12714672D01*
X9791765Y-12724196D01*
X9782241Y-12714672D01*
X9791765Y-12705148D01*
X9791765Y-12724196D01*
X9925098Y-12524196D02*
X9944146Y-12524196D01*
X9963193Y-12533720D01*
X9972717Y-12543244D01*
X9982241Y-12562291D01*
X9991765Y-12600387D01*
X9991765Y-12648006D01*
X9982241Y-12686101D01*
X9972717Y-12705148D01*
X9963193Y-12714672D01*
X9944146Y-12724196D01*
X9925098Y-12724196D01*
X9906051Y-12714672D01*
X9896527Y-12705148D01*
X9887003Y-12686101D01*
X9877479Y-12648006D01*
X9877479Y-12600387D01*
X9887003Y-12562291D01*
X9896527Y-12543244D01*
X9906051Y-12533720D01*
X9925098Y-12524196D01*
X10182241Y-12724196D02*
X10067955Y-12724196D01*
X10125098Y-12724196D02*
X10125098Y-12524196D01*
X10106051Y-12552768D01*
X10087003Y-12571815D01*
X10067955Y-12581339D01*
X10363193Y-12524196D02*
X10267955Y-12524196D01*
X10258432Y-12619434D01*
X10267955Y-12609910D01*
X10287003Y-12600387D01*
X10334622Y-12600387D01*
X10353670Y-12609910D01*
X10363193Y-12619434D01*
X10372717Y-12638482D01*
X10372717Y-12686101D01*
X10363193Y-12705148D01*
X10353670Y-12714672D01*
X10334622Y-12724196D01*
X10287003Y-12724196D01*
X10267955Y-12714672D01*
X10258432Y-12705148D01*
X10439384Y-12524196D02*
X10572717Y-12524196D01*
X10487003Y-12724196D01*
X10639384Y-12524196D02*
X10639384Y-12562291D01*
X10715574Y-12524196D02*
X10715574Y-12562291D01*
X11010812Y-12800387D02*
X11001289Y-12790863D01*
X10982241Y-12762291D01*
X10972717Y-12743244D01*
X10963193Y-12714672D01*
X10953670Y-12667053D01*
X10953670Y-12628958D01*
X10963193Y-12581339D01*
X10972717Y-12552768D01*
X10982241Y-12533720D01*
X11001289Y-12505148D01*
X11010812Y-12495625D01*
X11096527Y-12724196D02*
X11134622Y-12724196D01*
X11153670Y-12714672D01*
X11163193Y-12705148D01*
X11182241Y-12676577D01*
X11191765Y-12638482D01*
X11191765Y-12562291D01*
X11182241Y-12543244D01*
X11172717Y-12533720D01*
X11153670Y-12524196D01*
X11115574Y-12524196D01*
X11096527Y-12533720D01*
X11087003Y-12543244D01*
X11077479Y-12562291D01*
X11077479Y-12609910D01*
X11087003Y-12628958D01*
X11096527Y-12638482D01*
X11115574Y-12648006D01*
X11153670Y-12648006D01*
X11172717Y-12638482D01*
X11182241Y-12628958D01*
X11191765Y-12609910D01*
X11429860Y-12724196D02*
X11429860Y-12524196D01*
X11515574Y-12724196D02*
X11515574Y-12619434D01*
X11506050Y-12600387D01*
X11487003Y-12590863D01*
X11458431Y-12590863D01*
X11439384Y-12600387D01*
X11429860Y-12609910D01*
X11639384Y-12724196D02*
X11620336Y-12714672D01*
X11610812Y-12705148D01*
X11601289Y-12686101D01*
X11601289Y-12628958D01*
X11610812Y-12609910D01*
X11620336Y-12600387D01*
X11639384Y-12590863D01*
X11667955Y-12590863D01*
X11687003Y-12600387D01*
X11696527Y-12609910D01*
X11706050Y-12628958D01*
X11706050Y-12686101D01*
X11696527Y-12705148D01*
X11687003Y-12714672D01*
X11667955Y-12724196D01*
X11639384Y-12724196D01*
X11820336Y-12724196D02*
X11801289Y-12714672D01*
X11791765Y-12695625D01*
X11791765Y-12524196D01*
X11972717Y-12714672D02*
X11953670Y-12724196D01*
X11915574Y-12724196D01*
X11896527Y-12714672D01*
X11887003Y-12695625D01*
X11887003Y-12619434D01*
X11896527Y-12600387D01*
X11915574Y-12590863D01*
X11953670Y-12590863D01*
X11972717Y-12600387D01*
X11982241Y-12619434D01*
X11982241Y-12638482D01*
X11887003Y-12657529D01*
X12058431Y-12714672D02*
X12077479Y-12724196D01*
X12115574Y-12724196D01*
X12134622Y-12714672D01*
X12144146Y-12695625D01*
X12144146Y-12686101D01*
X12134622Y-12667053D01*
X12115574Y-12657529D01*
X12087003Y-12657529D01*
X12067955Y-12648006D01*
X12058431Y-12628958D01*
X12058431Y-12619434D01*
X12067955Y-12600387D01*
X12087003Y-12590863D01*
X12115574Y-12590863D01*
X12134622Y-12600387D01*
X12210812Y-12800387D02*
X12220336Y-12790863D01*
X12239384Y-12762291D01*
X12248908Y-12743244D01*
X12258431Y-12714672D01*
X12267955Y-12667053D01*
X12267955Y-12628958D01*
X12258431Y-12581339D01*
X12248908Y-12552768D01*
X12239384Y-12533720D01*
X12220336Y-12505148D01*
X12210812Y-12495625D01*
D13*
X7438908Y-12897720D02*
G75*
G03*
X7438908Y-12897720I-37500J0D01*
G01*
D11*
X7734622Y-12788196D02*
X7753670Y-12788196D01*
X7772717Y-12797720D01*
X7782241Y-12807244D01*
X7791765Y-12826291D01*
X7801289Y-12864387D01*
X7801289Y-12912006D01*
X7791765Y-12950101D01*
X7782241Y-12969148D01*
X7772717Y-12978672D01*
X7753670Y-12988196D01*
X7734622Y-12988196D01*
X7715574Y-12978672D01*
X7706050Y-12969148D01*
X7696527Y-12950101D01*
X7687003Y-12912006D01*
X7687003Y-12864387D01*
X7696527Y-12826291D01*
X7706050Y-12807244D01*
X7715574Y-12797720D01*
X7734622Y-12788196D01*
X7887003Y-12969148D02*
X7896527Y-12978672D01*
X7887003Y-12988196D01*
X7877479Y-12978672D01*
X7887003Y-12969148D01*
X7887003Y-12988196D01*
X7963193Y-12788196D02*
X8096527Y-12788196D01*
X8010812Y-12988196D01*
X8267955Y-12788196D02*
X8172717Y-12788196D01*
X8163193Y-12883434D01*
X8172717Y-12873910D01*
X8191765Y-12864387D01*
X8239384Y-12864387D01*
X8258431Y-12873910D01*
X8267955Y-12883434D01*
X8277479Y-12902482D01*
X8277479Y-12950101D01*
X8267955Y-12969148D01*
X8258431Y-12978672D01*
X8239384Y-12988196D01*
X8191765Y-12988196D01*
X8172717Y-12978672D01*
X8163193Y-12969148D01*
X8401289Y-12788196D02*
X8420336Y-12788196D01*
X8439384Y-12797720D01*
X8448908Y-12807244D01*
X8458432Y-12826291D01*
X8467955Y-12864387D01*
X8467955Y-12912006D01*
X8458432Y-12950101D01*
X8448908Y-12969148D01*
X8439384Y-12978672D01*
X8420336Y-12988196D01*
X8401289Y-12988196D01*
X8382241Y-12978672D01*
X8372717Y-12969148D01*
X8363193Y-12950101D01*
X8353670Y-12912006D01*
X8353670Y-12864387D01*
X8363193Y-12826291D01*
X8372717Y-12807244D01*
X8382241Y-12797720D01*
X8401289Y-12788196D01*
X8553670Y-12988196D02*
X8553670Y-12854863D01*
X8553670Y-12873910D02*
X8563193Y-12864387D01*
X8582241Y-12854863D01*
X8610812Y-12854863D01*
X8629860Y-12864387D01*
X8639384Y-12883434D01*
X8639384Y-12988196D01*
X8639384Y-12883434D02*
X8648908Y-12864387D01*
X8667955Y-12854863D01*
X8696527Y-12854863D01*
X8715574Y-12864387D01*
X8725098Y-12883434D01*
X8725098Y-12988196D01*
X8820336Y-12988196D02*
X8820336Y-12854863D01*
X8820336Y-12873910D02*
X8829860Y-12864387D01*
X8848908Y-12854863D01*
X8877479Y-12854863D01*
X8896527Y-12864387D01*
X8906051Y-12883434D01*
X8906051Y-12988196D01*
X8906051Y-12883434D02*
X8915574Y-12864387D01*
X8934622Y-12854863D01*
X8963193Y-12854863D01*
X8982241Y-12864387D01*
X8991765Y-12883434D01*
X8991765Y-12988196D01*
X9382241Y-12778672D02*
X9210812Y-13035815D01*
X9639384Y-12788196D02*
X9658432Y-12788196D01*
X9677479Y-12797720D01*
X9687003Y-12807244D01*
X9696527Y-12826291D01*
X9706051Y-12864387D01*
X9706051Y-12912006D01*
X9696527Y-12950101D01*
X9687003Y-12969148D01*
X9677479Y-12978672D01*
X9658432Y-12988196D01*
X9639384Y-12988196D01*
X9620336Y-12978672D01*
X9610812Y-12969148D01*
X9601289Y-12950101D01*
X9591765Y-12912006D01*
X9591765Y-12864387D01*
X9601289Y-12826291D01*
X9610812Y-12807244D01*
X9620336Y-12797720D01*
X9639384Y-12788196D01*
X9791765Y-12969148D02*
X9801289Y-12978672D01*
X9791765Y-12988196D01*
X9782241Y-12978672D01*
X9791765Y-12969148D01*
X9791765Y-12988196D01*
X9925098Y-12788196D02*
X9944146Y-12788196D01*
X9963193Y-12797720D01*
X9972717Y-12807244D01*
X9982241Y-12826291D01*
X9991765Y-12864387D01*
X9991765Y-12912006D01*
X9982241Y-12950101D01*
X9972717Y-12969148D01*
X9963193Y-12978672D01*
X9944146Y-12988196D01*
X9925098Y-12988196D01*
X9906051Y-12978672D01*
X9896527Y-12969148D01*
X9887003Y-12950101D01*
X9877479Y-12912006D01*
X9877479Y-12864387D01*
X9887003Y-12826291D01*
X9896527Y-12807244D01*
X9906051Y-12797720D01*
X9925098Y-12788196D01*
X10067955Y-12807244D02*
X10077479Y-12797720D01*
X10096527Y-12788196D01*
X10144146Y-12788196D01*
X10163193Y-12797720D01*
X10172717Y-12807244D01*
X10182241Y-12826291D01*
X10182241Y-12845339D01*
X10172717Y-12873910D01*
X10058432Y-12988196D01*
X10182241Y-12988196D01*
X10277479Y-12988196D02*
X10315574Y-12988196D01*
X10334622Y-12978672D01*
X10344146Y-12969148D01*
X10363193Y-12940577D01*
X10372717Y-12902482D01*
X10372717Y-12826291D01*
X10363193Y-12807244D01*
X10353670Y-12797720D01*
X10334622Y-12788196D01*
X10296527Y-12788196D01*
X10277479Y-12797720D01*
X10267955Y-12807244D01*
X10258432Y-12826291D01*
X10258432Y-12873910D01*
X10267955Y-12892958D01*
X10277479Y-12902482D01*
X10296527Y-12912006D01*
X10334622Y-12912006D01*
X10353670Y-12902482D01*
X10363193Y-12892958D01*
X10372717Y-12873910D01*
X10553670Y-12788196D02*
X10458432Y-12788196D01*
X10448908Y-12883434D01*
X10458432Y-12873910D01*
X10477479Y-12864387D01*
X10525098Y-12864387D01*
X10544146Y-12873910D01*
X10553670Y-12883434D01*
X10563193Y-12902482D01*
X10563193Y-12950101D01*
X10553670Y-12969148D01*
X10544146Y-12978672D01*
X10525098Y-12988196D01*
X10477479Y-12988196D01*
X10458432Y-12978672D01*
X10448908Y-12969148D01*
X10639384Y-12788196D02*
X10639384Y-12826291D01*
X10715574Y-12788196D02*
X10715574Y-12826291D01*
X11010812Y-13064387D02*
X11001289Y-13054863D01*
X10982241Y-13026291D01*
X10972717Y-13007244D01*
X10963193Y-12978672D01*
X10953670Y-12931053D01*
X10953670Y-12892958D01*
X10963193Y-12845339D01*
X10972717Y-12816768D01*
X10982241Y-12797720D01*
X11001289Y-12769148D01*
X11010812Y-12759625D01*
X11077479Y-12807244D02*
X11087003Y-12797720D01*
X11106051Y-12788196D01*
X11153670Y-12788196D01*
X11172717Y-12797720D01*
X11182241Y-12807244D01*
X11191765Y-12826291D01*
X11191765Y-12845339D01*
X11182241Y-12873910D01*
X11067955Y-12988196D01*
X11191765Y-12988196D01*
X11382241Y-12988196D02*
X11267955Y-12988196D01*
X11325098Y-12988196D02*
X11325098Y-12788196D01*
X11306050Y-12816768D01*
X11287003Y-12835815D01*
X11267955Y-12845339D01*
X11620336Y-12988196D02*
X11620336Y-12788196D01*
X11706050Y-12988196D02*
X11706050Y-12883434D01*
X11696527Y-12864387D01*
X11677479Y-12854863D01*
X11648908Y-12854863D01*
X11629860Y-12864387D01*
X11620336Y-12873910D01*
X11829860Y-12988196D02*
X11810812Y-12978672D01*
X11801289Y-12969148D01*
X11791765Y-12950101D01*
X11791765Y-12892958D01*
X11801289Y-12873910D01*
X11810812Y-12864387D01*
X11829860Y-12854863D01*
X11858431Y-12854863D01*
X11877479Y-12864387D01*
X11887003Y-12873910D01*
X11896527Y-12892958D01*
X11896527Y-12950101D01*
X11887003Y-12969148D01*
X11877479Y-12978672D01*
X11858431Y-12988196D01*
X11829860Y-12988196D01*
X12010812Y-12988196D02*
X11991765Y-12978672D01*
X11982241Y-12959625D01*
X11982241Y-12788196D01*
X12163193Y-12978672D02*
X12144146Y-12988196D01*
X12106050Y-12988196D01*
X12087003Y-12978672D01*
X12077479Y-12959625D01*
X12077479Y-12883434D01*
X12087003Y-12864387D01*
X12106050Y-12854863D01*
X12144146Y-12854863D01*
X12163193Y-12864387D01*
X12172717Y-12883434D01*
X12172717Y-12902482D01*
X12077479Y-12921529D01*
X12248908Y-12978672D02*
X12267955Y-12988196D01*
X12306050Y-12988196D01*
X12325098Y-12978672D01*
X12334622Y-12959625D01*
X12334622Y-12950101D01*
X12325098Y-12931053D01*
X12306050Y-12921529D01*
X12277479Y-12921529D01*
X12258431Y-12912006D01*
X12248908Y-12892958D01*
X12248908Y-12883434D01*
X12258431Y-12864387D01*
X12277479Y-12854863D01*
X12306050Y-12854863D01*
X12325098Y-12864387D01*
X12401289Y-13064387D02*
X12410812Y-13054863D01*
X12429860Y-13026291D01*
X12439384Y-13007244D01*
X12448908Y-12978672D01*
X12458431Y-12931053D01*
X12458431Y-12892958D01*
X12448908Y-12845339D01*
X12439384Y-12816768D01*
X12429860Y-12797720D01*
X12410812Y-12769148D01*
X12401289Y-12759625D01*
D14*
X7398908Y-13121720D02*
X7398908Y-13201720D01*
X7358908Y-13161720D02*
X7438908Y-13161720D01*
D11*
X7734622Y-13052196D02*
X7753670Y-13052196D01*
X7772717Y-13061720D01*
X7782241Y-13071244D01*
X7791765Y-13090291D01*
X7801289Y-13128387D01*
X7801289Y-13176006D01*
X7791765Y-13214101D01*
X7782241Y-13233148D01*
X7772717Y-13242672D01*
X7753670Y-13252196D01*
X7734622Y-13252196D01*
X7715574Y-13242672D01*
X7706050Y-13233148D01*
X7696527Y-13214101D01*
X7687003Y-13176006D01*
X7687003Y-13128387D01*
X7696527Y-13090291D01*
X7706050Y-13071244D01*
X7715574Y-13061720D01*
X7734622Y-13052196D01*
X7887003Y-13233148D02*
X7896527Y-13242672D01*
X7887003Y-13252196D01*
X7877479Y-13242672D01*
X7887003Y-13233148D01*
X7887003Y-13252196D01*
X8010812Y-13137910D02*
X7991765Y-13128387D01*
X7982241Y-13118863D01*
X7972717Y-13099815D01*
X7972717Y-13090291D01*
X7982241Y-13071244D01*
X7991765Y-13061720D01*
X8010812Y-13052196D01*
X8048908Y-13052196D01*
X8067955Y-13061720D01*
X8077479Y-13071244D01*
X8087003Y-13090291D01*
X8087003Y-13099815D01*
X8077479Y-13118863D01*
X8067955Y-13128387D01*
X8048908Y-13137910D01*
X8010812Y-13137910D01*
X7991765Y-13147434D01*
X7982241Y-13156958D01*
X7972717Y-13176006D01*
X7972717Y-13214101D01*
X7982241Y-13233148D01*
X7991765Y-13242672D01*
X8010812Y-13252196D01*
X8048908Y-13252196D01*
X8067955Y-13242672D01*
X8077479Y-13233148D01*
X8087003Y-13214101D01*
X8087003Y-13176006D01*
X8077479Y-13156958D01*
X8067955Y-13147434D01*
X8048908Y-13137910D01*
X8210812Y-13052196D02*
X8229860Y-13052196D01*
X8248908Y-13061720D01*
X8258431Y-13071244D01*
X8267955Y-13090291D01*
X8277479Y-13128387D01*
X8277479Y-13176006D01*
X8267955Y-13214101D01*
X8258431Y-13233148D01*
X8248908Y-13242672D01*
X8229860Y-13252196D01*
X8210812Y-13252196D01*
X8191765Y-13242672D01*
X8182241Y-13233148D01*
X8172717Y-13214101D01*
X8163193Y-13176006D01*
X8163193Y-13128387D01*
X8172717Y-13090291D01*
X8182241Y-13071244D01*
X8191765Y-13061720D01*
X8210812Y-13052196D01*
X8401289Y-13052196D02*
X8420336Y-13052196D01*
X8439384Y-13061720D01*
X8448908Y-13071244D01*
X8458432Y-13090291D01*
X8467955Y-13128387D01*
X8467955Y-13176006D01*
X8458432Y-13214101D01*
X8448908Y-13233148D01*
X8439384Y-13242672D01*
X8420336Y-13252196D01*
X8401289Y-13252196D01*
X8382241Y-13242672D01*
X8372717Y-13233148D01*
X8363193Y-13214101D01*
X8353670Y-13176006D01*
X8353670Y-13128387D01*
X8363193Y-13090291D01*
X8372717Y-13071244D01*
X8382241Y-13061720D01*
X8401289Y-13052196D01*
X8553670Y-13252196D02*
X8553670Y-13118863D01*
X8553670Y-13137910D02*
X8563193Y-13128387D01*
X8582241Y-13118863D01*
X8610812Y-13118863D01*
X8629860Y-13128387D01*
X8639384Y-13147434D01*
X8639384Y-13252196D01*
X8639384Y-13147434D02*
X8648908Y-13128387D01*
X8667955Y-13118863D01*
X8696527Y-13118863D01*
X8715574Y-13128387D01*
X8725098Y-13147434D01*
X8725098Y-13252196D01*
X8820336Y-13252196D02*
X8820336Y-13118863D01*
X8820336Y-13137910D02*
X8829860Y-13128387D01*
X8848908Y-13118863D01*
X8877479Y-13118863D01*
X8896527Y-13128387D01*
X8906051Y-13147434D01*
X8906051Y-13252196D01*
X8906051Y-13147434D02*
X8915574Y-13128387D01*
X8934622Y-13118863D01*
X8963193Y-13118863D01*
X8982241Y-13128387D01*
X8991765Y-13147434D01*
X8991765Y-13252196D01*
X9382241Y-13042672D02*
X9210812Y-13299815D01*
X9639384Y-13052196D02*
X9658432Y-13052196D01*
X9677479Y-13061720D01*
X9687003Y-13071244D01*
X9696527Y-13090291D01*
X9706051Y-13128387D01*
X9706051Y-13176006D01*
X9696527Y-13214101D01*
X9687003Y-13233148D01*
X9677479Y-13242672D01*
X9658432Y-13252196D01*
X9639384Y-13252196D01*
X9620336Y-13242672D01*
X9610812Y-13233148D01*
X9601289Y-13214101D01*
X9591765Y-13176006D01*
X9591765Y-13128387D01*
X9601289Y-13090291D01*
X9610812Y-13071244D01*
X9620336Y-13061720D01*
X9639384Y-13052196D01*
X9791765Y-13233148D02*
X9801289Y-13242672D01*
X9791765Y-13252196D01*
X9782241Y-13242672D01*
X9791765Y-13233148D01*
X9791765Y-13252196D01*
X9925098Y-13052196D02*
X9944146Y-13052196D01*
X9963193Y-13061720D01*
X9972717Y-13071244D01*
X9982241Y-13090291D01*
X9991765Y-13128387D01*
X9991765Y-13176006D01*
X9982241Y-13214101D01*
X9972717Y-13233148D01*
X9963193Y-13242672D01*
X9944146Y-13252196D01*
X9925098Y-13252196D01*
X9906051Y-13242672D01*
X9896527Y-13233148D01*
X9887003Y-13214101D01*
X9877479Y-13176006D01*
X9877479Y-13128387D01*
X9887003Y-13090291D01*
X9896527Y-13071244D01*
X9906051Y-13061720D01*
X9925098Y-13052196D01*
X10058432Y-13052196D02*
X10182241Y-13052196D01*
X10115574Y-13128387D01*
X10144146Y-13128387D01*
X10163193Y-13137910D01*
X10172717Y-13147434D01*
X10182241Y-13166482D01*
X10182241Y-13214101D01*
X10172717Y-13233148D01*
X10163193Y-13242672D01*
X10144146Y-13252196D01*
X10087003Y-13252196D01*
X10067955Y-13242672D01*
X10058432Y-13233148D01*
X10372717Y-13252196D02*
X10258432Y-13252196D01*
X10315574Y-13252196D02*
X10315574Y-13052196D01*
X10296527Y-13080768D01*
X10277479Y-13099815D01*
X10258432Y-13109339D01*
X10553670Y-13052196D02*
X10458432Y-13052196D01*
X10448908Y-13147434D01*
X10458432Y-13137910D01*
X10477479Y-13128387D01*
X10525098Y-13128387D01*
X10544146Y-13137910D01*
X10553670Y-13147434D01*
X10563193Y-13166482D01*
X10563193Y-13214101D01*
X10553670Y-13233148D01*
X10544146Y-13242672D01*
X10525098Y-13252196D01*
X10477479Y-13252196D01*
X10458432Y-13242672D01*
X10448908Y-13233148D01*
X10639384Y-13052196D02*
X10639384Y-13090291D01*
X10715574Y-13052196D02*
X10715574Y-13090291D01*
X11010812Y-13328387D02*
X11001289Y-13318863D01*
X10982241Y-13290291D01*
X10972717Y-13271244D01*
X10963193Y-13242672D01*
X10953670Y-13195053D01*
X10953670Y-13156958D01*
X10963193Y-13109339D01*
X10972717Y-13080768D01*
X10982241Y-13061720D01*
X11001289Y-13033148D01*
X11010812Y-13023625D01*
X11172717Y-13052196D02*
X11134622Y-13052196D01*
X11115574Y-13061720D01*
X11106051Y-13071244D01*
X11087003Y-13099815D01*
X11077479Y-13137910D01*
X11077479Y-13214101D01*
X11087003Y-13233148D01*
X11096527Y-13242672D01*
X11115574Y-13252196D01*
X11153670Y-13252196D01*
X11172717Y-13242672D01*
X11182241Y-13233148D01*
X11191765Y-13214101D01*
X11191765Y-13166482D01*
X11182241Y-13147434D01*
X11172717Y-13137910D01*
X11153670Y-13128387D01*
X11115574Y-13128387D01*
X11096527Y-13137910D01*
X11087003Y-13147434D01*
X11077479Y-13166482D01*
X11429860Y-13252196D02*
X11429860Y-13052196D01*
X11515574Y-13252196D02*
X11515574Y-13147434D01*
X11506050Y-13128387D01*
X11487003Y-13118863D01*
X11458431Y-13118863D01*
X11439384Y-13128387D01*
X11429860Y-13137910D01*
X11639384Y-13252196D02*
X11620336Y-13242672D01*
X11610812Y-13233148D01*
X11601289Y-13214101D01*
X11601289Y-13156958D01*
X11610812Y-13137910D01*
X11620336Y-13128387D01*
X11639384Y-13118863D01*
X11667955Y-13118863D01*
X11687003Y-13128387D01*
X11696527Y-13137910D01*
X11706050Y-13156958D01*
X11706050Y-13214101D01*
X11696527Y-13233148D01*
X11687003Y-13242672D01*
X11667955Y-13252196D01*
X11639384Y-13252196D01*
X11820336Y-13252196D02*
X11801289Y-13242672D01*
X11791765Y-13223625D01*
X11791765Y-13052196D01*
X11972717Y-13242672D02*
X11953670Y-13252196D01*
X11915574Y-13252196D01*
X11896527Y-13242672D01*
X11887003Y-13223625D01*
X11887003Y-13147434D01*
X11896527Y-13128387D01*
X11915574Y-13118863D01*
X11953670Y-13118863D01*
X11972717Y-13128387D01*
X11982241Y-13147434D01*
X11982241Y-13166482D01*
X11887003Y-13185529D01*
X12058431Y-13242672D02*
X12077479Y-13252196D01*
X12115574Y-13252196D01*
X12134622Y-13242672D01*
X12144146Y-13223625D01*
X12144146Y-13214101D01*
X12134622Y-13195053D01*
X12115574Y-13185529D01*
X12087003Y-13185529D01*
X12067955Y-13176006D01*
X12058431Y-13156958D01*
X12058431Y-13147434D01*
X12067955Y-13128387D01*
X12087003Y-13118863D01*
X12115574Y-13118863D01*
X12134622Y-13128387D01*
X12210812Y-13328387D02*
X12220336Y-13318863D01*
X12239384Y-13290291D01*
X12248908Y-13271244D01*
X12258431Y-13242672D01*
X12267955Y-13195053D01*
X12267955Y-13156958D01*
X12258431Y-13109339D01*
X12248908Y-13080768D01*
X12239384Y-13061720D01*
X12220336Y-13033148D01*
X12210812Y-13023625D01*
D15*
X7424263Y-13461076D02*
X7424263Y-13390364D01*
X7353552Y-13390364D01*
X7353552Y-13461076D01*
X7424263Y-13461076D01*
D11*
X7801289Y-13516196D02*
X7687003Y-13516196D01*
X7744146Y-13516196D02*
X7744146Y-13316196D01*
X7725098Y-13344768D01*
X7706050Y-13363815D01*
X7687003Y-13373339D01*
X7887003Y-13497148D02*
X7896527Y-13506672D01*
X7887003Y-13516196D01*
X7877479Y-13506672D01*
X7887003Y-13497148D01*
X7887003Y-13516196D01*
X8020336Y-13316196D02*
X8039384Y-13316196D01*
X8058431Y-13325720D01*
X8067955Y-13335244D01*
X8077479Y-13354291D01*
X8087003Y-13392387D01*
X8087003Y-13440006D01*
X8077479Y-13478101D01*
X8067955Y-13497148D01*
X8058431Y-13506672D01*
X8039384Y-13516196D01*
X8020336Y-13516196D01*
X8001289Y-13506672D01*
X7991765Y-13497148D01*
X7982241Y-13478101D01*
X7972717Y-13440006D01*
X7972717Y-13392387D01*
X7982241Y-13354291D01*
X7991765Y-13335244D01*
X8001289Y-13325720D01*
X8020336Y-13316196D01*
X8210812Y-13316196D02*
X8229860Y-13316196D01*
X8248908Y-13325720D01*
X8258431Y-13335244D01*
X8267955Y-13354291D01*
X8277479Y-13392387D01*
X8277479Y-13440006D01*
X8267955Y-13478101D01*
X8258431Y-13497148D01*
X8248908Y-13506672D01*
X8229860Y-13516196D01*
X8210812Y-13516196D01*
X8191765Y-13506672D01*
X8182241Y-13497148D01*
X8172717Y-13478101D01*
X8163193Y-13440006D01*
X8163193Y-13392387D01*
X8172717Y-13354291D01*
X8182241Y-13335244D01*
X8191765Y-13325720D01*
X8210812Y-13316196D01*
X8401289Y-13316196D02*
X8420336Y-13316196D01*
X8439384Y-13325720D01*
X8448908Y-13335244D01*
X8458432Y-13354291D01*
X8467955Y-13392387D01*
X8467955Y-13440006D01*
X8458432Y-13478101D01*
X8448908Y-13497148D01*
X8439384Y-13506672D01*
X8420336Y-13516196D01*
X8401289Y-13516196D01*
X8382241Y-13506672D01*
X8372717Y-13497148D01*
X8363193Y-13478101D01*
X8353670Y-13440006D01*
X8353670Y-13392387D01*
X8363193Y-13354291D01*
X8372717Y-13335244D01*
X8382241Y-13325720D01*
X8401289Y-13316196D01*
X8553670Y-13516196D02*
X8553670Y-13382863D01*
X8553670Y-13401910D02*
X8563193Y-13392387D01*
X8582241Y-13382863D01*
X8610812Y-13382863D01*
X8629860Y-13392387D01*
X8639384Y-13411434D01*
X8639384Y-13516196D01*
X8639384Y-13411434D02*
X8648908Y-13392387D01*
X8667955Y-13382863D01*
X8696527Y-13382863D01*
X8715574Y-13392387D01*
X8725098Y-13411434D01*
X8725098Y-13516196D01*
X8820336Y-13516196D02*
X8820336Y-13382863D01*
X8820336Y-13401910D02*
X8829860Y-13392387D01*
X8848908Y-13382863D01*
X8877479Y-13382863D01*
X8896527Y-13392387D01*
X8906051Y-13411434D01*
X8906051Y-13516196D01*
X8906051Y-13411434D02*
X8915574Y-13392387D01*
X8934622Y-13382863D01*
X8963193Y-13382863D01*
X8982241Y-13392387D01*
X8991765Y-13411434D01*
X8991765Y-13516196D01*
X9382241Y-13306672D02*
X9210812Y-13563815D01*
X9639384Y-13316196D02*
X9658432Y-13316196D01*
X9677479Y-13325720D01*
X9687003Y-13335244D01*
X9696527Y-13354291D01*
X9706051Y-13392387D01*
X9706051Y-13440006D01*
X9696527Y-13478101D01*
X9687003Y-13497148D01*
X9677479Y-13506672D01*
X9658432Y-13516196D01*
X9639384Y-13516196D01*
X9620336Y-13506672D01*
X9610812Y-13497148D01*
X9601289Y-13478101D01*
X9591765Y-13440006D01*
X9591765Y-13392387D01*
X9601289Y-13354291D01*
X9610812Y-13335244D01*
X9620336Y-13325720D01*
X9639384Y-13316196D01*
X9791765Y-13497148D02*
X9801289Y-13506672D01*
X9791765Y-13516196D01*
X9782241Y-13506672D01*
X9791765Y-13497148D01*
X9791765Y-13516196D01*
X9925098Y-13316196D02*
X9944146Y-13316196D01*
X9963193Y-13325720D01*
X9972717Y-13335244D01*
X9982241Y-13354291D01*
X9991765Y-13392387D01*
X9991765Y-13440006D01*
X9982241Y-13478101D01*
X9972717Y-13497148D01*
X9963193Y-13506672D01*
X9944146Y-13516196D01*
X9925098Y-13516196D01*
X9906051Y-13506672D01*
X9896527Y-13497148D01*
X9887003Y-13478101D01*
X9877479Y-13440006D01*
X9877479Y-13392387D01*
X9887003Y-13354291D01*
X9896527Y-13335244D01*
X9906051Y-13325720D01*
X9925098Y-13316196D01*
X10058432Y-13316196D02*
X10182241Y-13316196D01*
X10115574Y-13392387D01*
X10144146Y-13392387D01*
X10163193Y-13401910D01*
X10172717Y-13411434D01*
X10182241Y-13430482D01*
X10182241Y-13478101D01*
X10172717Y-13497148D01*
X10163193Y-13506672D01*
X10144146Y-13516196D01*
X10087003Y-13516196D01*
X10067955Y-13506672D01*
X10058432Y-13497148D01*
X10277479Y-13516196D02*
X10315574Y-13516196D01*
X10334622Y-13506672D01*
X10344146Y-13497148D01*
X10363193Y-13468577D01*
X10372717Y-13430482D01*
X10372717Y-13354291D01*
X10363193Y-13335244D01*
X10353670Y-13325720D01*
X10334622Y-13316196D01*
X10296527Y-13316196D01*
X10277479Y-13325720D01*
X10267955Y-13335244D01*
X10258432Y-13354291D01*
X10258432Y-13401910D01*
X10267955Y-13420958D01*
X10277479Y-13430482D01*
X10296527Y-13440006D01*
X10334622Y-13440006D01*
X10353670Y-13430482D01*
X10363193Y-13420958D01*
X10372717Y-13401910D01*
X10544146Y-13382863D02*
X10544146Y-13516196D01*
X10496527Y-13306672D02*
X10448908Y-13449529D01*
X10572717Y-13449529D01*
X10639384Y-13316196D02*
X10639384Y-13354291D01*
X10715574Y-13316196D02*
X10715574Y-13354291D01*
X11010812Y-13592387D02*
X11001289Y-13582863D01*
X10982241Y-13554291D01*
X10972717Y-13535244D01*
X10963193Y-13506672D01*
X10953670Y-13459053D01*
X10953670Y-13420958D01*
X10963193Y-13373339D01*
X10972717Y-13344768D01*
X10982241Y-13325720D01*
X11001289Y-13297148D01*
X11010812Y-13287625D01*
X11182241Y-13316196D02*
X11087003Y-13316196D01*
X11077479Y-13411434D01*
X11087003Y-13401910D01*
X11106051Y-13392387D01*
X11153670Y-13392387D01*
X11172717Y-13401910D01*
X11182241Y-13411434D01*
X11191765Y-13430482D01*
X11191765Y-13478101D01*
X11182241Y-13497148D01*
X11172717Y-13506672D01*
X11153670Y-13516196D01*
X11106051Y-13516196D01*
X11087003Y-13506672D01*
X11077479Y-13497148D01*
X11429860Y-13516196D02*
X11429860Y-13316196D01*
X11515574Y-13516196D02*
X11515574Y-13411434D01*
X11506050Y-13392387D01*
X11487003Y-13382863D01*
X11458431Y-13382863D01*
X11439384Y-13392387D01*
X11429860Y-13401910D01*
X11639384Y-13516196D02*
X11620336Y-13506672D01*
X11610812Y-13497148D01*
X11601289Y-13478101D01*
X11601289Y-13420958D01*
X11610812Y-13401910D01*
X11620336Y-13392387D01*
X11639384Y-13382863D01*
X11667955Y-13382863D01*
X11687003Y-13392387D01*
X11696527Y-13401910D01*
X11706050Y-13420958D01*
X11706050Y-13478101D01*
X11696527Y-13497148D01*
X11687003Y-13506672D01*
X11667955Y-13516196D01*
X11639384Y-13516196D01*
X11820336Y-13516196D02*
X11801289Y-13506672D01*
X11791765Y-13487625D01*
X11791765Y-13316196D01*
X11972717Y-13506672D02*
X11953670Y-13516196D01*
X11915574Y-13516196D01*
X11896527Y-13506672D01*
X11887003Y-13487625D01*
X11887003Y-13411434D01*
X11896527Y-13392387D01*
X11915574Y-13382863D01*
X11953670Y-13382863D01*
X11972717Y-13392387D01*
X11982241Y-13411434D01*
X11982241Y-13430482D01*
X11887003Y-13449529D01*
X12058431Y-13506672D02*
X12077479Y-13516196D01*
X12115574Y-13516196D01*
X12134622Y-13506672D01*
X12144146Y-13487625D01*
X12144146Y-13478101D01*
X12134622Y-13459053D01*
X12115574Y-13449529D01*
X12087003Y-13449529D01*
X12067955Y-13440006D01*
X12058431Y-13420958D01*
X12058431Y-13411434D01*
X12067955Y-13392387D01*
X12087003Y-13382863D01*
X12115574Y-13382863D01*
X12134622Y-13392387D01*
X12210812Y-13592387D02*
X12220336Y-13582863D01*
X12239384Y-13554291D01*
X12248908Y-13535244D01*
X12258431Y-13506672D01*
X12267955Y-13459053D01*
X12267955Y-13420958D01*
X12258431Y-13373339D01*
X12248908Y-13344768D01*
X12239384Y-13325720D01*
X12220336Y-13297148D01*
X12210812Y-13287625D01*
D16*
X7387908Y-13740720D02*
X7438908Y-13689720D01*
X7387908Y-13638720D01*
X7336908Y-13689720D01*
X7387908Y-13740720D01*
D11*
X7801289Y-13780196D02*
X7687003Y-13780196D01*
X7744146Y-13780196D02*
X7744146Y-13580196D01*
X7725098Y-13608768D01*
X7706050Y-13627815D01*
X7687003Y-13637339D01*
X7887003Y-13761148D02*
X7896527Y-13770672D01*
X7887003Y-13780196D01*
X7877479Y-13770672D01*
X7887003Y-13761148D01*
X7887003Y-13780196D01*
X8020336Y-13580196D02*
X8039384Y-13580196D01*
X8058431Y-13589720D01*
X8067955Y-13599244D01*
X8077479Y-13618291D01*
X8087003Y-13656387D01*
X8087003Y-13704006D01*
X8077479Y-13742101D01*
X8067955Y-13761148D01*
X8058431Y-13770672D01*
X8039384Y-13780196D01*
X8020336Y-13780196D01*
X8001289Y-13770672D01*
X7991765Y-13761148D01*
X7982241Y-13742101D01*
X7972717Y-13704006D01*
X7972717Y-13656387D01*
X7982241Y-13618291D01*
X7991765Y-13599244D01*
X8001289Y-13589720D01*
X8020336Y-13580196D01*
X8163193Y-13599244D02*
X8172717Y-13589720D01*
X8191765Y-13580196D01*
X8239384Y-13580196D01*
X8258431Y-13589720D01*
X8267955Y-13599244D01*
X8277479Y-13618291D01*
X8277479Y-13637339D01*
X8267955Y-13665910D01*
X8153670Y-13780196D01*
X8277479Y-13780196D01*
X8401289Y-13580196D02*
X8420336Y-13580196D01*
X8439384Y-13589720D01*
X8448908Y-13599244D01*
X8458432Y-13618291D01*
X8467955Y-13656387D01*
X8467955Y-13704006D01*
X8458432Y-13742101D01*
X8448908Y-13761148D01*
X8439384Y-13770672D01*
X8420336Y-13780196D01*
X8401289Y-13780196D01*
X8382241Y-13770672D01*
X8372717Y-13761148D01*
X8363193Y-13742101D01*
X8353670Y-13704006D01*
X8353670Y-13656387D01*
X8363193Y-13618291D01*
X8372717Y-13599244D01*
X8382241Y-13589720D01*
X8401289Y-13580196D01*
X8553670Y-13780196D02*
X8553670Y-13646863D01*
X8553670Y-13665910D02*
X8563193Y-13656387D01*
X8582241Y-13646863D01*
X8610812Y-13646863D01*
X8629860Y-13656387D01*
X8639384Y-13675434D01*
X8639384Y-13780196D01*
X8639384Y-13675434D02*
X8648908Y-13656387D01*
X8667955Y-13646863D01*
X8696527Y-13646863D01*
X8715574Y-13656387D01*
X8725098Y-13675434D01*
X8725098Y-13780196D01*
X8820336Y-13780196D02*
X8820336Y-13646863D01*
X8820336Y-13665910D02*
X8829860Y-13656387D01*
X8848908Y-13646863D01*
X8877479Y-13646863D01*
X8896527Y-13656387D01*
X8906051Y-13675434D01*
X8906051Y-13780196D01*
X8906051Y-13675434D02*
X8915574Y-13656387D01*
X8934622Y-13646863D01*
X8963193Y-13646863D01*
X8982241Y-13656387D01*
X8991765Y-13675434D01*
X8991765Y-13780196D01*
X9382241Y-13570672D02*
X9210812Y-13827815D01*
X9639384Y-13580196D02*
X9658432Y-13580196D01*
X9677479Y-13589720D01*
X9687003Y-13599244D01*
X9696527Y-13618291D01*
X9706051Y-13656387D01*
X9706051Y-13704006D01*
X9696527Y-13742101D01*
X9687003Y-13761148D01*
X9677479Y-13770672D01*
X9658432Y-13780196D01*
X9639384Y-13780196D01*
X9620336Y-13770672D01*
X9610812Y-13761148D01*
X9601289Y-13742101D01*
X9591765Y-13704006D01*
X9591765Y-13656387D01*
X9601289Y-13618291D01*
X9610812Y-13599244D01*
X9620336Y-13589720D01*
X9639384Y-13580196D01*
X9791765Y-13761148D02*
X9801289Y-13770672D01*
X9791765Y-13780196D01*
X9782241Y-13770672D01*
X9791765Y-13761148D01*
X9791765Y-13780196D01*
X9925098Y-13580196D02*
X9944146Y-13580196D01*
X9963193Y-13589720D01*
X9972717Y-13599244D01*
X9982241Y-13618291D01*
X9991765Y-13656387D01*
X9991765Y-13704006D01*
X9982241Y-13742101D01*
X9972717Y-13761148D01*
X9963193Y-13770672D01*
X9944146Y-13780196D01*
X9925098Y-13780196D01*
X9906051Y-13770672D01*
X9896527Y-13761148D01*
X9887003Y-13742101D01*
X9877479Y-13704006D01*
X9877479Y-13656387D01*
X9887003Y-13618291D01*
X9896527Y-13599244D01*
X9906051Y-13589720D01*
X9925098Y-13580196D01*
X10163193Y-13646863D02*
X10163193Y-13780196D01*
X10115574Y-13570672D02*
X10067955Y-13713529D01*
X10191765Y-13713529D01*
X10306051Y-13580196D02*
X10325098Y-13580196D01*
X10344146Y-13589720D01*
X10353670Y-13599244D01*
X10363193Y-13618291D01*
X10372717Y-13656387D01*
X10372717Y-13704006D01*
X10363193Y-13742101D01*
X10353670Y-13761148D01*
X10344146Y-13770672D01*
X10325098Y-13780196D01*
X10306051Y-13780196D01*
X10287003Y-13770672D01*
X10277479Y-13761148D01*
X10267955Y-13742101D01*
X10258432Y-13704006D01*
X10258432Y-13656387D01*
X10267955Y-13618291D01*
X10277479Y-13599244D01*
X10287003Y-13589720D01*
X10306051Y-13580196D01*
X10448908Y-13599244D02*
X10458432Y-13589720D01*
X10477479Y-13580196D01*
X10525098Y-13580196D01*
X10544146Y-13589720D01*
X10553670Y-13599244D01*
X10563193Y-13618291D01*
X10563193Y-13637339D01*
X10553670Y-13665910D01*
X10439384Y-13780196D01*
X10563193Y-13780196D01*
X10639384Y-13580196D02*
X10639384Y-13618291D01*
X10715574Y-13580196D02*
X10715574Y-13618291D01*
X11010812Y-13856387D02*
X11001289Y-13846863D01*
X10982241Y-13818291D01*
X10972717Y-13799244D01*
X10963193Y-13770672D01*
X10953670Y-13723053D01*
X10953670Y-13684958D01*
X10963193Y-13637339D01*
X10972717Y-13608768D01*
X10982241Y-13589720D01*
X11001289Y-13561148D01*
X11010812Y-13551625D01*
X11191765Y-13780196D02*
X11077479Y-13780196D01*
X11134622Y-13780196D02*
X11134622Y-13580196D01*
X11115574Y-13608768D01*
X11096527Y-13627815D01*
X11077479Y-13637339D01*
X11306050Y-13665910D02*
X11287003Y-13656387D01*
X11277479Y-13646863D01*
X11267955Y-13627815D01*
X11267955Y-13618291D01*
X11277479Y-13599244D01*
X11287003Y-13589720D01*
X11306050Y-13580196D01*
X11344146Y-13580196D01*
X11363193Y-13589720D01*
X11372717Y-13599244D01*
X11382241Y-13618291D01*
X11382241Y-13627815D01*
X11372717Y-13646863D01*
X11363193Y-13656387D01*
X11344146Y-13665910D01*
X11306050Y-13665910D01*
X11287003Y-13675434D01*
X11277479Y-13684958D01*
X11267955Y-13704006D01*
X11267955Y-13742101D01*
X11277479Y-13761148D01*
X11287003Y-13770672D01*
X11306050Y-13780196D01*
X11344146Y-13780196D01*
X11363193Y-13770672D01*
X11372717Y-13761148D01*
X11382241Y-13742101D01*
X11382241Y-13704006D01*
X11372717Y-13684958D01*
X11363193Y-13675434D01*
X11344146Y-13665910D01*
X11620336Y-13780196D02*
X11620336Y-13580196D01*
X11706050Y-13780196D02*
X11706050Y-13675434D01*
X11696527Y-13656387D01*
X11677479Y-13646863D01*
X11648908Y-13646863D01*
X11629860Y-13656387D01*
X11620336Y-13665910D01*
X11829860Y-13780196D02*
X11810812Y-13770672D01*
X11801289Y-13761148D01*
X11791765Y-13742101D01*
X11791765Y-13684958D01*
X11801289Y-13665910D01*
X11810812Y-13656387D01*
X11829860Y-13646863D01*
X11858431Y-13646863D01*
X11877479Y-13656387D01*
X11887003Y-13665910D01*
X11896527Y-13684958D01*
X11896527Y-13742101D01*
X11887003Y-13761148D01*
X11877479Y-13770672D01*
X11858431Y-13780196D01*
X11829860Y-13780196D01*
X12010812Y-13780196D02*
X11991765Y-13770672D01*
X11982241Y-13751625D01*
X11982241Y-13580196D01*
X12163193Y-13770672D02*
X12144146Y-13780196D01*
X12106050Y-13780196D01*
X12087003Y-13770672D01*
X12077479Y-13751625D01*
X12077479Y-13675434D01*
X12087003Y-13656387D01*
X12106050Y-13646863D01*
X12144146Y-13646863D01*
X12163193Y-13656387D01*
X12172717Y-13675434D01*
X12172717Y-13694482D01*
X12077479Y-13713529D01*
X12248908Y-13770672D02*
X12267955Y-13780196D01*
X12306050Y-13780196D01*
X12325098Y-13770672D01*
X12334622Y-13751625D01*
X12334622Y-13742101D01*
X12325098Y-13723053D01*
X12306050Y-13713529D01*
X12277479Y-13713529D01*
X12258431Y-13704006D01*
X12248908Y-13684958D01*
X12248908Y-13675434D01*
X12258431Y-13656387D01*
X12277479Y-13646863D01*
X12306050Y-13646863D01*
X12325098Y-13656387D01*
X12401289Y-13856387D02*
X12410812Y-13846863D01*
X12429860Y-13818291D01*
X12439384Y-13799244D01*
X12448908Y-13770672D01*
X12458431Y-13723053D01*
X12458431Y-13684958D01*
X12448908Y-13637339D01*
X12439384Y-13608768D01*
X12429860Y-13589720D01*
X12410812Y-13561148D01*
X12401289Y-13551625D01*
X7238908Y-13853720D02*
X7438908Y-14053720D01*
X7438908Y-13853720D02*
X7238908Y-14053720D01*
X7438908Y-13953720D02*
G75*
G03*
X7438908Y-13953720I-100000J0D01*
G01*
X7677479Y-13844196D02*
X7801289Y-13844196D01*
X7734622Y-13920387D01*
X7763193Y-13920387D01*
X7782241Y-13929910D01*
X7791765Y-13939434D01*
X7801289Y-13958482D01*
X7801289Y-14006101D01*
X7791765Y-14025148D01*
X7782241Y-14034672D01*
X7763193Y-14044196D01*
X7706050Y-14044196D01*
X7687003Y-14034672D01*
X7677479Y-14025148D01*
X7887003Y-14025148D02*
X7896527Y-14034672D01*
X7887003Y-14044196D01*
X7877479Y-14034672D01*
X7887003Y-14025148D01*
X7887003Y-14044196D01*
X7972717Y-13863244D02*
X7982241Y-13853720D01*
X8001289Y-13844196D01*
X8048908Y-13844196D01*
X8067955Y-13853720D01*
X8077479Y-13863244D01*
X8087003Y-13882291D01*
X8087003Y-13901339D01*
X8077479Y-13929910D01*
X7963193Y-14044196D01*
X8087003Y-14044196D01*
X8210812Y-13844196D02*
X8229860Y-13844196D01*
X8248908Y-13853720D01*
X8258431Y-13863244D01*
X8267955Y-13882291D01*
X8277479Y-13920387D01*
X8277479Y-13968006D01*
X8267955Y-14006101D01*
X8258431Y-14025148D01*
X8248908Y-14034672D01*
X8229860Y-14044196D01*
X8210812Y-14044196D01*
X8191765Y-14034672D01*
X8182241Y-14025148D01*
X8172717Y-14006101D01*
X8163193Y-13968006D01*
X8163193Y-13920387D01*
X8172717Y-13882291D01*
X8182241Y-13863244D01*
X8191765Y-13853720D01*
X8210812Y-13844196D01*
X8401289Y-13844196D02*
X8420336Y-13844196D01*
X8439384Y-13853720D01*
X8448908Y-13863244D01*
X8458432Y-13882291D01*
X8467955Y-13920387D01*
X8467955Y-13968006D01*
X8458432Y-14006101D01*
X8448908Y-14025148D01*
X8439384Y-14034672D01*
X8420336Y-14044196D01*
X8401289Y-14044196D01*
X8382241Y-14034672D01*
X8372717Y-14025148D01*
X8363193Y-14006101D01*
X8353670Y-13968006D01*
X8353670Y-13920387D01*
X8363193Y-13882291D01*
X8372717Y-13863244D01*
X8382241Y-13853720D01*
X8401289Y-13844196D01*
X8553670Y-14044196D02*
X8553670Y-13910863D01*
X8553670Y-13929910D02*
X8563193Y-13920387D01*
X8582241Y-13910863D01*
X8610812Y-13910863D01*
X8629860Y-13920387D01*
X8639384Y-13939434D01*
X8639384Y-14044196D01*
X8639384Y-13939434D02*
X8648908Y-13920387D01*
X8667955Y-13910863D01*
X8696527Y-13910863D01*
X8715574Y-13920387D01*
X8725098Y-13939434D01*
X8725098Y-14044196D01*
X8820336Y-14044196D02*
X8820336Y-13910863D01*
X8820336Y-13929910D02*
X8829860Y-13920387D01*
X8848908Y-13910863D01*
X8877479Y-13910863D01*
X8896527Y-13920387D01*
X8906051Y-13939434D01*
X8906051Y-14044196D01*
X8906051Y-13939434D02*
X8915574Y-13920387D01*
X8934622Y-13910863D01*
X8963193Y-13910863D01*
X8982241Y-13920387D01*
X8991765Y-13939434D01*
X8991765Y-14044196D01*
X9382241Y-13834672D02*
X9210812Y-14091815D01*
X9639384Y-13844196D02*
X9658432Y-13844196D01*
X9677479Y-13853720D01*
X9687003Y-13863244D01*
X9696527Y-13882291D01*
X9706051Y-13920387D01*
X9706051Y-13968006D01*
X9696527Y-14006101D01*
X9687003Y-14025148D01*
X9677479Y-14034672D01*
X9658432Y-14044196D01*
X9639384Y-14044196D01*
X9620336Y-14034672D01*
X9610812Y-14025148D01*
X9601289Y-14006101D01*
X9591765Y-13968006D01*
X9591765Y-13920387D01*
X9601289Y-13882291D01*
X9610812Y-13863244D01*
X9620336Y-13853720D01*
X9639384Y-13844196D01*
X9791765Y-14025148D02*
X9801289Y-14034672D01*
X9791765Y-14044196D01*
X9782241Y-14034672D01*
X9791765Y-14025148D01*
X9791765Y-14044196D01*
X9991765Y-14044196D02*
X9877479Y-14044196D01*
X9934622Y-14044196D02*
X9934622Y-13844196D01*
X9915574Y-13872768D01*
X9896527Y-13891815D01*
X9877479Y-13901339D01*
X10067955Y-13863244D02*
X10077479Y-13853720D01*
X10096527Y-13844196D01*
X10144146Y-13844196D01*
X10163193Y-13853720D01*
X10172717Y-13863244D01*
X10182241Y-13882291D01*
X10182241Y-13901339D01*
X10172717Y-13929910D01*
X10058432Y-14044196D01*
X10182241Y-14044196D01*
X10353670Y-13844196D02*
X10315574Y-13844196D01*
X10296527Y-13853720D01*
X10287003Y-13863244D01*
X10267955Y-13891815D01*
X10258432Y-13929910D01*
X10258432Y-14006101D01*
X10267955Y-14025148D01*
X10277479Y-14034672D01*
X10296527Y-14044196D01*
X10334622Y-14044196D01*
X10353670Y-14034672D01*
X10363193Y-14025148D01*
X10372717Y-14006101D01*
X10372717Y-13958482D01*
X10363193Y-13939434D01*
X10353670Y-13929910D01*
X10334622Y-13920387D01*
X10296527Y-13920387D01*
X10277479Y-13929910D01*
X10267955Y-13939434D01*
X10258432Y-13958482D01*
X10496527Y-13844196D02*
X10515574Y-13844196D01*
X10534622Y-13853720D01*
X10544146Y-13863244D01*
X10553670Y-13882291D01*
X10563193Y-13920387D01*
X10563193Y-13968006D01*
X10553670Y-14006101D01*
X10544146Y-14025148D01*
X10534622Y-14034672D01*
X10515574Y-14044196D01*
X10496527Y-14044196D01*
X10477479Y-14034672D01*
X10467955Y-14025148D01*
X10458432Y-14006101D01*
X10448908Y-13968006D01*
X10448908Y-13920387D01*
X10458432Y-13882291D01*
X10467955Y-13863244D01*
X10477479Y-13853720D01*
X10496527Y-13844196D01*
X10639384Y-13844196D02*
X10639384Y-13882291D01*
X10715574Y-13844196D02*
X10715574Y-13882291D01*
X11010812Y-14120387D02*
X11001289Y-14110863D01*
X10982241Y-14082291D01*
X10972717Y-14063244D01*
X10963193Y-14034672D01*
X10953670Y-13987053D01*
X10953670Y-13948958D01*
X10963193Y-13901339D01*
X10972717Y-13872768D01*
X10982241Y-13853720D01*
X11001289Y-13825148D01*
X11010812Y-13815625D01*
X11077479Y-13863244D02*
X11087003Y-13853720D01*
X11106051Y-13844196D01*
X11153670Y-13844196D01*
X11172717Y-13853720D01*
X11182241Y-13863244D01*
X11191765Y-13882291D01*
X11191765Y-13901339D01*
X11182241Y-13929910D01*
X11067955Y-14044196D01*
X11191765Y-14044196D01*
X11429860Y-14044196D02*
X11429860Y-13844196D01*
X11515574Y-14044196D02*
X11515574Y-13939434D01*
X11506050Y-13920387D01*
X11487003Y-13910863D01*
X11458431Y-13910863D01*
X11439384Y-13920387D01*
X11429860Y-13929910D01*
X11639384Y-14044196D02*
X11620336Y-14034672D01*
X11610812Y-14025148D01*
X11601289Y-14006101D01*
X11601289Y-13948958D01*
X11610812Y-13929910D01*
X11620336Y-13920387D01*
X11639384Y-13910863D01*
X11667955Y-13910863D01*
X11687003Y-13920387D01*
X11696527Y-13929910D01*
X11706050Y-13948958D01*
X11706050Y-14006101D01*
X11696527Y-14025148D01*
X11687003Y-14034672D01*
X11667955Y-14044196D01*
X11639384Y-14044196D01*
X11820336Y-14044196D02*
X11801289Y-14034672D01*
X11791765Y-14015625D01*
X11791765Y-13844196D01*
X11972717Y-14034672D02*
X11953670Y-14044196D01*
X11915574Y-14044196D01*
X11896527Y-14034672D01*
X11887003Y-14015625D01*
X11887003Y-13939434D01*
X11896527Y-13920387D01*
X11915574Y-13910863D01*
X11953670Y-13910863D01*
X11972717Y-13920387D01*
X11982241Y-13939434D01*
X11982241Y-13958482D01*
X11887003Y-13977529D01*
X12058431Y-14034672D02*
X12077479Y-14044196D01*
X12115574Y-14044196D01*
X12134622Y-14034672D01*
X12144146Y-14015625D01*
X12144146Y-14006101D01*
X12134622Y-13987053D01*
X12115574Y-13977529D01*
X12087003Y-13977529D01*
X12067955Y-13968006D01*
X12058431Y-13948958D01*
X12058431Y-13939434D01*
X12067955Y-13920387D01*
X12087003Y-13910863D01*
X12115574Y-13910863D01*
X12134622Y-13920387D01*
X12210812Y-14120387D02*
X12220336Y-14110863D01*
X12239384Y-14082291D01*
X12248908Y-14063244D01*
X12258431Y-14034672D01*
X12267955Y-13987053D01*
X12267955Y-13948958D01*
X12258431Y-13901339D01*
X12248908Y-13872768D01*
X12239384Y-13853720D01*
X12220336Y-13825148D01*
X12210812Y-13815625D01*
M02*
