%FSLAX45Y45*%
G04 Gerber Fmt 4.5, Leading zero omitted, Abs format (unit mm)*
G04 Created by KiCad (PCBNEW (6.0.1)) date 2022-03-03 23:01:07*
%MOMM*%
%LPD*%
G01*
G04 APERTURE LIST*
%TA.AperFunction,Profile*%
%ADD10C,0.200000*%
%TD*%
%ADD11C,0.200000*%
%ADD12C,0.300000*%
G04 APERTURE END LIST*
D10*
X8119220Y-8995923D02*
X7935901Y-8812604D01*
X7598096Y-11110038D02*
X7481529Y-10399757D01*
X12396279Y-11130038D02*
X12520000Y-10400000D01*
X7598096Y-11110038D02*
G75*
G03*
X7745957Y-11209065I121078J20885D01*
G01*
X8643009Y-8105497D02*
G75*
G03*
X8501588Y-8105497I-70711J-70711D01*
G01*
X11516467Y-8940539D02*
G75*
G03*
X9098280Y-8376920I-1498043J-957918D01*
G01*
X8873880Y-8336367D02*
G75*
G03*
X9098280Y-8376920I141421J141421D01*
G01*
X11516467Y-8940539D02*
G75*
G03*
X11816778Y-9242082I842484J538727D01*
G01*
X7450000Y-9910244D02*
G75*
G03*
X7481529Y-10399757I2637217J-75910D01*
G01*
X8873880Y-8336367D02*
X8643009Y-8105497D01*
X12280821Y-11210987D02*
G75*
G03*
X12396279Y-11130038I14573J102027D01*
G01*
X7958000Y-10000000D02*
G75*
G03*
X7958000Y-10000000I-150000J0D01*
G01*
X12520000Y-10400000D02*
G75*
G03*
X12551470Y-9930243I-2571814J408225D01*
G01*
X11709400Y-11115040D02*
X12280821Y-11210987D01*
X11816778Y-9242082D02*
X12387196Y-9607725D01*
X7745957Y-11209065D02*
X8290560Y-11115040D01*
X12342000Y-10000000D02*
G75*
G03*
X12342000Y-10000000I-150000J0D01*
G01*
X7935901Y-8671183D02*
G75*
G03*
X7935901Y-8812604I70711J-70711D01*
G01*
X11709400Y-11115040D02*
G75*
G03*
X11385953Y-11255493I-23936J-387537D01*
G01*
X8608952Y-11255493D02*
G75*
G03*
X11385953Y-11255493I1388501J1145454D01*
G01*
X8100713Y-9295116D02*
G75*
G03*
X8119220Y-8995923I-122915J157772D01*
G01*
X7613903Y-9609428D02*
X8100713Y-9295116D01*
X12551470Y-9930243D02*
G75*
G03*
X12387196Y-9607725I-359471J19999D01*
G01*
X8608952Y-11255493D02*
G75*
G03*
X8290560Y-11115040I-298977J-246642D01*
G01*
X8501588Y-8105497D02*
X7935901Y-8671183D01*
X7613903Y-9609428D02*
G75*
G03*
X7450000Y-9910244I194097J-300816D01*
G01*
D11*
D12*
X8986660Y-11127431D02*
X9286660Y-11427431D01*
X9286660Y-11127431D02*
X8986660Y-11427431D01*
X9109960Y-9115140D02*
X9409960Y-9415140D01*
X9409960Y-9115140D02*
X9109960Y-9415140D01*
X10779960Y-9115140D02*
X11079960Y-9415140D01*
X11079960Y-9115140D02*
X10779960Y-9415140D01*
D11*
X7696527Y-12230514D02*
X7696527Y-12030514D01*
X7744146Y-12030514D01*
X7772717Y-12040038D01*
X7791765Y-12059086D01*
X7801289Y-12078133D01*
X7810812Y-12116229D01*
X7810812Y-12144800D01*
X7801289Y-12182895D01*
X7791765Y-12201943D01*
X7772717Y-12220991D01*
X7744146Y-12230514D01*
X7696527Y-12230514D01*
X7896527Y-12230514D02*
X7896527Y-12097181D01*
X7896527Y-12135276D02*
X7906050Y-12116229D01*
X7915574Y-12106705D01*
X7934622Y-12097181D01*
X7953670Y-12097181D01*
X8020336Y-12230514D02*
X8020336Y-12097181D01*
X8020336Y-12030514D02*
X8010812Y-12040038D01*
X8020336Y-12049562D01*
X8029860Y-12040038D01*
X8020336Y-12030514D01*
X8020336Y-12049562D01*
X8144146Y-12230514D02*
X8125098Y-12220991D01*
X8115574Y-12201943D01*
X8115574Y-12030514D01*
X8248908Y-12230514D02*
X8229860Y-12220991D01*
X8220336Y-12201943D01*
X8220336Y-12030514D01*
X8477479Y-12230514D02*
X8477479Y-12030514D01*
X8544146Y-12173372D01*
X8610812Y-12030514D01*
X8610812Y-12230514D01*
X8791765Y-12230514D02*
X8791765Y-12125752D01*
X8782241Y-12106705D01*
X8763193Y-12097181D01*
X8725098Y-12097181D01*
X8706051Y-12106705D01*
X8791765Y-12220991D02*
X8772717Y-12230514D01*
X8725098Y-12230514D01*
X8706051Y-12220991D01*
X8696527Y-12201943D01*
X8696527Y-12182895D01*
X8706051Y-12163848D01*
X8725098Y-12154324D01*
X8772717Y-12154324D01*
X8791765Y-12144800D01*
X8887003Y-12097181D02*
X8887003Y-12297181D01*
X8887003Y-12106705D02*
X8906051Y-12097181D01*
X8944146Y-12097181D01*
X8963193Y-12106705D01*
X8972717Y-12116229D01*
X8982241Y-12135276D01*
X8982241Y-12192419D01*
X8972717Y-12211467D01*
X8963193Y-12220991D01*
X8944146Y-12230514D01*
X8906051Y-12230514D01*
X8887003Y-12220991D01*
X9067955Y-12211467D02*
X9077479Y-12220991D01*
X9067955Y-12230514D01*
X9058432Y-12220991D01*
X9067955Y-12211467D01*
X9067955Y-12230514D01*
X9067955Y-12106705D02*
X9077479Y-12116229D01*
X9067955Y-12125752D01*
X9058432Y-12116229D01*
X9067955Y-12106705D01*
X9067955Y-12125752D01*
X7238908Y-12460038D02*
X7438908Y-12660038D01*
X7438908Y-12460038D02*
X7238908Y-12660038D01*
X7677479Y-12450514D02*
X7801289Y-12450514D01*
X7734622Y-12526705D01*
X7763193Y-12526705D01*
X7782241Y-12536229D01*
X7791765Y-12545752D01*
X7801289Y-12564800D01*
X7801289Y-12612419D01*
X7791765Y-12631467D01*
X7782241Y-12640991D01*
X7763193Y-12650514D01*
X7706050Y-12650514D01*
X7687003Y-12640991D01*
X7677479Y-12631467D01*
X7887003Y-12631467D02*
X7896527Y-12640991D01*
X7887003Y-12650514D01*
X7877479Y-12640991D01*
X7887003Y-12631467D01*
X7887003Y-12650514D01*
X8020336Y-12450514D02*
X8039384Y-12450514D01*
X8058431Y-12460038D01*
X8067955Y-12469562D01*
X8077479Y-12488610D01*
X8087003Y-12526705D01*
X8087003Y-12574324D01*
X8077479Y-12612419D01*
X8067955Y-12631467D01*
X8058431Y-12640991D01*
X8039384Y-12650514D01*
X8020336Y-12650514D01*
X8001289Y-12640991D01*
X7991765Y-12631467D01*
X7982241Y-12612419D01*
X7972717Y-12574324D01*
X7972717Y-12526705D01*
X7982241Y-12488610D01*
X7991765Y-12469562D01*
X8001289Y-12460038D01*
X8020336Y-12450514D01*
X8210812Y-12450514D02*
X8229860Y-12450514D01*
X8248908Y-12460038D01*
X8258431Y-12469562D01*
X8267955Y-12488610D01*
X8277479Y-12526705D01*
X8277479Y-12574324D01*
X8267955Y-12612419D01*
X8258431Y-12631467D01*
X8248908Y-12640991D01*
X8229860Y-12650514D01*
X8210812Y-12650514D01*
X8191765Y-12640991D01*
X8182241Y-12631467D01*
X8172717Y-12612419D01*
X8163193Y-12574324D01*
X8163193Y-12526705D01*
X8172717Y-12488610D01*
X8182241Y-12469562D01*
X8191765Y-12460038D01*
X8210812Y-12450514D01*
X8401289Y-12450514D02*
X8420336Y-12450514D01*
X8439384Y-12460038D01*
X8448908Y-12469562D01*
X8458432Y-12488610D01*
X8467955Y-12526705D01*
X8467955Y-12574324D01*
X8458432Y-12612419D01*
X8448908Y-12631467D01*
X8439384Y-12640991D01*
X8420336Y-12650514D01*
X8401289Y-12650514D01*
X8382241Y-12640991D01*
X8372717Y-12631467D01*
X8363193Y-12612419D01*
X8353670Y-12574324D01*
X8353670Y-12526705D01*
X8363193Y-12488610D01*
X8372717Y-12469562D01*
X8382241Y-12460038D01*
X8401289Y-12450514D01*
X8553670Y-12650514D02*
X8553670Y-12517181D01*
X8553670Y-12536229D02*
X8563193Y-12526705D01*
X8582241Y-12517181D01*
X8610812Y-12517181D01*
X8629860Y-12526705D01*
X8639384Y-12545752D01*
X8639384Y-12650514D01*
X8639384Y-12545752D02*
X8648908Y-12526705D01*
X8667955Y-12517181D01*
X8696527Y-12517181D01*
X8715574Y-12526705D01*
X8725098Y-12545752D01*
X8725098Y-12650514D01*
X8820336Y-12650514D02*
X8820336Y-12517181D01*
X8820336Y-12536229D02*
X8829860Y-12526705D01*
X8848908Y-12517181D01*
X8877479Y-12517181D01*
X8896527Y-12526705D01*
X8906051Y-12545752D01*
X8906051Y-12650514D01*
X8906051Y-12545752D02*
X8915574Y-12526705D01*
X8934622Y-12517181D01*
X8963193Y-12517181D01*
X8982241Y-12526705D01*
X8991765Y-12545752D01*
X8991765Y-12650514D01*
X9382241Y-12440991D02*
X9210812Y-12698133D01*
X9639384Y-12450514D02*
X9658432Y-12450514D01*
X9677479Y-12460038D01*
X9687003Y-12469562D01*
X9696527Y-12488610D01*
X9706051Y-12526705D01*
X9706051Y-12574324D01*
X9696527Y-12612419D01*
X9687003Y-12631467D01*
X9677479Y-12640991D01*
X9658432Y-12650514D01*
X9639384Y-12650514D01*
X9620336Y-12640991D01*
X9610812Y-12631467D01*
X9601289Y-12612419D01*
X9591765Y-12574324D01*
X9591765Y-12526705D01*
X9601289Y-12488610D01*
X9610812Y-12469562D01*
X9620336Y-12460038D01*
X9639384Y-12450514D01*
X9791765Y-12631467D02*
X9801289Y-12640991D01*
X9791765Y-12650514D01*
X9782241Y-12640991D01*
X9791765Y-12631467D01*
X9791765Y-12650514D01*
X9991765Y-12650514D02*
X9877479Y-12650514D01*
X9934622Y-12650514D02*
X9934622Y-12450514D01*
X9915574Y-12479086D01*
X9896527Y-12498133D01*
X9877479Y-12507657D01*
X10182241Y-12650514D02*
X10067955Y-12650514D01*
X10125098Y-12650514D02*
X10125098Y-12450514D01*
X10106051Y-12479086D01*
X10087003Y-12498133D01*
X10067955Y-12507657D01*
X10296527Y-12536229D02*
X10277479Y-12526705D01*
X10267955Y-12517181D01*
X10258432Y-12498133D01*
X10258432Y-12488610D01*
X10267955Y-12469562D01*
X10277479Y-12460038D01*
X10296527Y-12450514D01*
X10334622Y-12450514D01*
X10353670Y-12460038D01*
X10363193Y-12469562D01*
X10372717Y-12488610D01*
X10372717Y-12498133D01*
X10363193Y-12517181D01*
X10353670Y-12526705D01*
X10334622Y-12536229D01*
X10296527Y-12536229D01*
X10277479Y-12545752D01*
X10267955Y-12555276D01*
X10258432Y-12574324D01*
X10258432Y-12612419D01*
X10267955Y-12631467D01*
X10277479Y-12640991D01*
X10296527Y-12650514D01*
X10334622Y-12650514D01*
X10353670Y-12640991D01*
X10363193Y-12631467D01*
X10372717Y-12612419D01*
X10372717Y-12574324D01*
X10363193Y-12555276D01*
X10353670Y-12545752D01*
X10334622Y-12536229D01*
X10563193Y-12650514D02*
X10448908Y-12650514D01*
X10506051Y-12650514D02*
X10506051Y-12450514D01*
X10487003Y-12479086D01*
X10467955Y-12498133D01*
X10448908Y-12507657D01*
X10639384Y-12450514D02*
X10639384Y-12488610D01*
X10715574Y-12450514D02*
X10715574Y-12488610D01*
X11010812Y-12726705D02*
X11001289Y-12717181D01*
X10982241Y-12688610D01*
X10972717Y-12669562D01*
X10963193Y-12640991D01*
X10953670Y-12593372D01*
X10953670Y-12555276D01*
X10963193Y-12507657D01*
X10972717Y-12479086D01*
X10982241Y-12460038D01*
X11001289Y-12431467D01*
X11010812Y-12421943D01*
X11067955Y-12450514D02*
X11191765Y-12450514D01*
X11125098Y-12526705D01*
X11153670Y-12526705D01*
X11172717Y-12536229D01*
X11182241Y-12545752D01*
X11191765Y-12564800D01*
X11191765Y-12612419D01*
X11182241Y-12631467D01*
X11172717Y-12640991D01*
X11153670Y-12650514D01*
X11096527Y-12650514D01*
X11077479Y-12640991D01*
X11067955Y-12631467D01*
X11429860Y-12650514D02*
X11429860Y-12450514D01*
X11515574Y-12650514D02*
X11515574Y-12545752D01*
X11506050Y-12526705D01*
X11487003Y-12517181D01*
X11458431Y-12517181D01*
X11439384Y-12526705D01*
X11429860Y-12536229D01*
X11639384Y-12650514D02*
X11620336Y-12640991D01*
X11610812Y-12631467D01*
X11601289Y-12612419D01*
X11601289Y-12555276D01*
X11610812Y-12536229D01*
X11620336Y-12526705D01*
X11639384Y-12517181D01*
X11667955Y-12517181D01*
X11687003Y-12526705D01*
X11696527Y-12536229D01*
X11706050Y-12555276D01*
X11706050Y-12612419D01*
X11696527Y-12631467D01*
X11687003Y-12640991D01*
X11667955Y-12650514D01*
X11639384Y-12650514D01*
X11820336Y-12650514D02*
X11801289Y-12640991D01*
X11791765Y-12621943D01*
X11791765Y-12450514D01*
X11972717Y-12640991D02*
X11953670Y-12650514D01*
X11915574Y-12650514D01*
X11896527Y-12640991D01*
X11887003Y-12621943D01*
X11887003Y-12545752D01*
X11896527Y-12526705D01*
X11915574Y-12517181D01*
X11953670Y-12517181D01*
X11972717Y-12526705D01*
X11982241Y-12545752D01*
X11982241Y-12564800D01*
X11887003Y-12583848D01*
X12058431Y-12640991D02*
X12077479Y-12650514D01*
X12115574Y-12650514D01*
X12134622Y-12640991D01*
X12144146Y-12621943D01*
X12144146Y-12612419D01*
X12134622Y-12593372D01*
X12115574Y-12583848D01*
X12087003Y-12583848D01*
X12067955Y-12574324D01*
X12058431Y-12555276D01*
X12058431Y-12545752D01*
X12067955Y-12526705D01*
X12087003Y-12517181D01*
X12115574Y-12517181D01*
X12134622Y-12526705D01*
X12210812Y-12726705D02*
X12220336Y-12717181D01*
X12239384Y-12688610D01*
X12248908Y-12669562D01*
X12258431Y-12640991D01*
X12267955Y-12593372D01*
X12267955Y-12555276D01*
X12258431Y-12507657D01*
X12248908Y-12479086D01*
X12239384Y-12460038D01*
X12220336Y-12431467D01*
X12210812Y-12421943D01*
X12572717Y-12726705D02*
X12563193Y-12717181D01*
X12544146Y-12688610D01*
X12534622Y-12669562D01*
X12525098Y-12640991D01*
X12515574Y-12593372D01*
X12515574Y-12555276D01*
X12525098Y-12507657D01*
X12534622Y-12479086D01*
X12544146Y-12460038D01*
X12563193Y-12431467D01*
X12572717Y-12421943D01*
X12648908Y-12517181D02*
X12648908Y-12650514D01*
X12648908Y-12536229D02*
X12658431Y-12526705D01*
X12677479Y-12517181D01*
X12706050Y-12517181D01*
X12725098Y-12526705D01*
X12734622Y-12545752D01*
X12734622Y-12650514D01*
X12858431Y-12650514D02*
X12839384Y-12640991D01*
X12829860Y-12631467D01*
X12820336Y-12612419D01*
X12820336Y-12555276D01*
X12829860Y-12536229D01*
X12839384Y-12526705D01*
X12858431Y-12517181D01*
X12887003Y-12517181D01*
X12906050Y-12526705D01*
X12915574Y-12536229D01*
X12925098Y-12555276D01*
X12925098Y-12612419D01*
X12915574Y-12631467D01*
X12906050Y-12640991D01*
X12887003Y-12650514D01*
X12858431Y-12650514D01*
X12982241Y-12517181D02*
X13058431Y-12517181D01*
X13010812Y-12450514D02*
X13010812Y-12621943D01*
X13020336Y-12640991D01*
X13039384Y-12650514D01*
X13058431Y-12650514D01*
X13277479Y-12517181D02*
X13277479Y-12717181D01*
X13277479Y-12526705D02*
X13296527Y-12517181D01*
X13334622Y-12517181D01*
X13353670Y-12526705D01*
X13363193Y-12536229D01*
X13372717Y-12555276D01*
X13372717Y-12612419D01*
X13363193Y-12631467D01*
X13353670Y-12640991D01*
X13334622Y-12650514D01*
X13296527Y-12650514D01*
X13277479Y-12640991D01*
X13487003Y-12650514D02*
X13467955Y-12640991D01*
X13458431Y-12621943D01*
X13458431Y-12450514D01*
X13648908Y-12650514D02*
X13648908Y-12545752D01*
X13639384Y-12526705D01*
X13620336Y-12517181D01*
X13582241Y-12517181D01*
X13563193Y-12526705D01*
X13648908Y-12640991D02*
X13629860Y-12650514D01*
X13582241Y-12650514D01*
X13563193Y-12640991D01*
X13553670Y-12621943D01*
X13553670Y-12602895D01*
X13563193Y-12583848D01*
X13582241Y-12574324D01*
X13629860Y-12574324D01*
X13648908Y-12564800D01*
X13715574Y-12517181D02*
X13791765Y-12517181D01*
X13744146Y-12450514D02*
X13744146Y-12621943D01*
X13753670Y-12640991D01*
X13772717Y-12650514D01*
X13791765Y-12650514D01*
X13934622Y-12640991D02*
X13915574Y-12650514D01*
X13877479Y-12650514D01*
X13858431Y-12640991D01*
X13848908Y-12621943D01*
X13848908Y-12545752D01*
X13858431Y-12526705D01*
X13877479Y-12517181D01*
X13915574Y-12517181D01*
X13934622Y-12526705D01*
X13944146Y-12545752D01*
X13944146Y-12564800D01*
X13848908Y-12583848D01*
X14115574Y-12650514D02*
X14115574Y-12450514D01*
X14115574Y-12640991D02*
X14096527Y-12650514D01*
X14058431Y-12650514D01*
X14039384Y-12640991D01*
X14029860Y-12631467D01*
X14020336Y-12612419D01*
X14020336Y-12555276D01*
X14029860Y-12536229D01*
X14039384Y-12526705D01*
X14058431Y-12517181D01*
X14096527Y-12517181D01*
X14115574Y-12526705D01*
X14191765Y-12726705D02*
X14201289Y-12717181D01*
X14220336Y-12688610D01*
X14229860Y-12669562D01*
X14239384Y-12640991D01*
X14248908Y-12593372D01*
X14248908Y-12555276D01*
X14239384Y-12507657D01*
X14229860Y-12479086D01*
X14220336Y-12460038D01*
X14201289Y-12431467D01*
X14191765Y-12421943D01*
M02*
