%TF.GenerationSoftware,KiCad,Pcbnew,(6.0.1)*%
%TF.CreationDate,2022-03-03T23:01:05+09:00*%
%TF.ProjectId,v0_miniAB_pancake_board,76305f6d-696e-4694-9142-5f70616e6361,rev?*%
%TF.SameCoordinates,Original*%
%TF.FileFunction,Soldermask,Top*%
%TF.FilePolarity,Negative*%
%FSLAX46Y46*%
G04 Gerber Fmt 4.6, Leading zero omitted, Abs format (unit mm)*
G04 Created by KiCad (PCBNEW (6.0.1)) date 2022-03-03 23:01:05*
%MOMM*%
%LPD*%
G01*
G04 APERTURE LIST*
G04 Aperture macros list*
%AMRoundRect*
0 Rectangle with rounded corners*
0 $1 Rounding radius*
0 $2 $3 $4 $5 $6 $7 $8 $9 X,Y pos of 4 corners*
0 Add a 4 corners polygon primitive as box body*
4,1,4,$2,$3,$4,$5,$6,$7,$8,$9,$2,$3,0*
0 Add four circle primitives for the rounded corners*
1,1,$1+$1,$2,$3*
1,1,$1+$1,$4,$5*
1,1,$1+$1,$6,$7*
1,1,$1+$1,$8,$9*
0 Add four rect primitives between the rounded corners*
20,1,$1+$1,$2,$3,$4,$5,0*
20,1,$1+$1,$4,$5,$6,$7,0*
20,1,$1+$1,$6,$7,$8,$9,0*
20,1,$1+$1,$8,$9,$2,$3,0*%
%AMHorizOval*
0 Thick line with rounded ends*
0 $1 width*
0 $2 $3 position (X,Y) of the first rounded end (center of the circle)*
0 $4 $5 position (X,Y) of the second rounded end (center of the circle)*
0 Add line between two ends*
20,1,$1,$2,$3,$4,$5,0*
0 Add two circle primitives to create the rounded ends*
1,1,$1,$2,$3*
1,1,$1,$4,$5*%
G04 Aperture macros list end*
%ADD10C,3.000000*%
%ADD11RoundRect,0.250001X0.813011X0.408179X-0.053012X0.908178X-0.813011X-0.408179X0.053012X-0.908178X0*%
%ADD12HorizOval,1.500000X0.130000X0.225167X-0.130000X-0.225167X0*%
%ADD13O,1.200000X1.750000*%
%ADD14RoundRect,0.250000X0.350000X0.625000X-0.350000X0.625000X-0.350000X-0.625000X0.350000X-0.625000X0*%
%ADD15O,1.750000X1.200000*%
%ADD16RoundRect,0.249999X0.625001X-0.350001X0.625001X0.350001X-0.625001X0.350001X-0.625001X-0.350001X0*%
%ADD17R,1.350000X1.350000*%
%ADD18O,1.350000X1.350000*%
%ADD19RoundRect,0.250000X0.071782X-0.712722X0.645188X-0.311218X-0.071782X0.712722X-0.645188X0.311218X0*%
%ADD20HorizOval,1.200000X-0.157734X0.225267X0.157734X-0.225267X0*%
%ADD21R,1.700000X1.700000*%
%ADD22O,1.700000X1.700000*%
%ADD23C,5.000000*%
%ADD24C,1.500000*%
%ADD25RoundRect,0.250001X-0.499999X-0.499999X0.499999X-0.499999X0.499999X0.499999X-0.499999X0.499999X0*%
%ADD26RoundRect,0.249999X0.194454X-0.689431X0.689431X-0.194454X-0.194454X0.689431X-0.689431X0.194454X0*%
%ADD27HorizOval,1.200000X-0.194454X0.194454X0.194454X-0.194454X0*%
%ADD28RoundRect,0.249999X-0.676283X0.236153X-0.554729X-0.453214X0.676283X-0.236153X0.554729X0.453214X0*%
%ADD29HorizOval,1.200000X-0.270822X-0.047753X0.270822X0.047753X0*%
%ADD30RoundRect,0.249999X-0.554729X0.453214X-0.676283X-0.236153X0.554729X-0.453214X0.676283X0.236153X0*%
%ADD31HorizOval,1.200000X-0.270822X0.047753X0.270822X-0.047753X0*%
%ADD32HorizOval,1.200000X0.270822X0.047753X-0.270822X-0.047753X0*%
%ADD33RoundRect,0.249999X0.676283X-0.236153X0.554729X0.453214X-0.676283X0.236153X-0.554729X-0.453214X0*%
G04 APERTURE END LIST*
D10*
%TO.C,J2*%
X91366600Y-112774310D03*
D11*
X94825638Y-109783080D03*
D12*
X92227562Y-108283080D03*
%TD*%
D13*
%TO.C,J7*%
X99022400Y-104038400D03*
X101022400Y-104038400D03*
D14*
X103022400Y-104038400D03*
%TD*%
D15*
%TO.C,J8*%
X83676400Y-95739200D03*
X83676400Y-97739200D03*
D16*
X83676400Y-99739200D03*
%TD*%
D17*
%TO.C,J10*%
X99415600Y-112725200D03*
D18*
X99415600Y-114725200D03*
X99415600Y-116725200D03*
%TD*%
D17*
%TO.C,J11*%
X102463600Y-112725200D03*
D18*
X102463600Y-114725200D03*
X102463600Y-116725200D03*
%TD*%
D19*
%TO.C,J12*%
X106758229Y-113777420D03*
D20*
X108396533Y-112630267D03*
X110034837Y-111483114D03*
%TD*%
D21*
%TO.C,J13*%
X98506200Y-107696000D03*
D22*
X101046200Y-107696000D03*
X103586200Y-107696000D03*
X106126200Y-107696000D03*
X108666200Y-107696000D03*
%TD*%
D23*
%TO.C,H1*%
X121920000Y-100000000D03*
%TD*%
%TO.C,H2*%
X78080000Y-100000000D03*
%TD*%
D24*
%TO.C,J9*%
X111439600Y-99971400D03*
X108439600Y-99971400D03*
X105439600Y-99971400D03*
X102439600Y-99971400D03*
X99439600Y-99971400D03*
X96439600Y-99971400D03*
X93439600Y-99971400D03*
X90439600Y-99971400D03*
X111439600Y-96971400D03*
X108439600Y-96971400D03*
X105439600Y-96971400D03*
X102439600Y-96971400D03*
X99439600Y-96971400D03*
X96439600Y-96971400D03*
X93439600Y-96971400D03*
D25*
X90439600Y-96971400D03*
D10*
X92599600Y-92651400D03*
X109299600Y-92651400D03*
%TD*%
D26*
%TO.C,J1*%
X81411371Y-87453041D03*
D27*
X82825585Y-86038827D03*
X84239798Y-84624614D03*
X85654012Y-83210400D03*
%TD*%
D28*
%TO.C,J3*%
X84429600Y-105359200D03*
D29*
X84776896Y-107328816D03*
%TD*%
D30*
%TO.C,J4*%
X122478800Y-107340400D03*
D31*
X122131504Y-109310016D03*
%TD*%
D32*
%TO.C,J5*%
X77783104Y-106539184D03*
D33*
X78130400Y-108508800D03*
%TD*%
D30*
%TO.C,J6*%
X116974612Y-106324400D03*
D31*
X116627316Y-108294016D03*
%TD*%
M02*
