%FSLAX45Y45*%
G04 Gerber Fmt 4.5, Leading zero omitted, Abs format (unit mm)*
G04 Created by KiCad (PCBNEW (6.0.1)) date 2022-03-14 16:44:21*
%MOMM*%
%LPD*%
G01*
G04 APERTURE LIST*
%TA.AperFunction,Profile*%
%ADD10C,0.200000*%
%TD*%
%ADD11C,0.200000*%
%ADD12C,0.300000*%
G04 APERTURE END LIST*
D10*
X8119220Y-8995923D02*
X7935901Y-8812604D01*
X7598084Y-11183720D02*
X7481529Y-10399757D01*
X12396267Y-11203720D02*
X12520000Y-10400000D01*
X7598084Y-11183720D02*
G75*
G03*
X7745945Y-11282747I121078J20885D01*
G01*
X8643009Y-8105497D02*
G75*
G03*
X8501588Y-8105497I-70711J-70711D01*
G01*
X11516467Y-8940539D02*
G75*
G03*
X9098280Y-8376920I-1498043J-957918D01*
G01*
X8873880Y-8336367D02*
G75*
G03*
X9098280Y-8376920I141421J141421D01*
G01*
X11516467Y-8940539D02*
G75*
G03*
X11816778Y-9242082I842484J538727D01*
G01*
X7450000Y-9910244D02*
G75*
G03*
X7481529Y-10399757I2637217J-75910D01*
G01*
X8873880Y-8336367D02*
X8643009Y-8105497D01*
X12280809Y-11284669D02*
G75*
G03*
X12396267Y-11203720I14573J102027D01*
G01*
X7958000Y-10000000D02*
G75*
G03*
X7958000Y-10000000I-150000J0D01*
G01*
X12520000Y-10400000D02*
G75*
G03*
X12551470Y-9930243I-2571814J408225D01*
G01*
X11709388Y-11188722D02*
X12280809Y-11284669D01*
X11816778Y-9242082D02*
X12387196Y-9607725D01*
X7745945Y-11282747D02*
X8290548Y-11188722D01*
X12342000Y-10000000D02*
G75*
G03*
X12342000Y-10000000I-150000J0D01*
G01*
X7935901Y-8671183D02*
G75*
G03*
X7935901Y-8812604I70711J-70711D01*
G01*
X11709388Y-11188722D02*
G75*
G03*
X11385941Y-11329174I-23936J-387537D01*
G01*
X8608940Y-11329174D02*
G75*
G03*
X11385941Y-11329175I1388501J1145454D01*
G01*
X8100713Y-9295116D02*
G75*
G03*
X8119220Y-8995923I-122915J157772D01*
G01*
X7613903Y-9609428D02*
X8100713Y-9295116D01*
X12551470Y-9930243D02*
G75*
G03*
X12387196Y-9607725I-359471J19999D01*
G01*
X8608940Y-11329174D02*
G75*
G03*
X8290548Y-11188722I-298977J-246642D01*
G01*
X8501588Y-8105497D02*
X7935901Y-8671183D01*
X7613903Y-9609428D02*
G75*
G03*
X7450000Y-9910244I194097J-300816D01*
G01*
D11*
D12*
X8883332Y-11270838D02*
X9183332Y-11570838D01*
X9183332Y-11270838D02*
X8883332Y-11570838D01*
X9109960Y-9115140D02*
X9409960Y-9415140D01*
X9409960Y-9115140D02*
X9109960Y-9415140D01*
X10779960Y-9115140D02*
X11079960Y-9415140D01*
X11079960Y-9115140D02*
X10779960Y-9415140D01*
D11*
X7696527Y-12304196D02*
X7696527Y-12104196D01*
X7744146Y-12104196D01*
X7772717Y-12113720D01*
X7791765Y-12132768D01*
X7801289Y-12151815D01*
X7810812Y-12189910D01*
X7810812Y-12218482D01*
X7801289Y-12256577D01*
X7791765Y-12275625D01*
X7772717Y-12294672D01*
X7744146Y-12304196D01*
X7696527Y-12304196D01*
X7896527Y-12304196D02*
X7896527Y-12170863D01*
X7896527Y-12208958D02*
X7906050Y-12189910D01*
X7915574Y-12180387D01*
X7934622Y-12170863D01*
X7953670Y-12170863D01*
X8020336Y-12304196D02*
X8020336Y-12170863D01*
X8020336Y-12104196D02*
X8010812Y-12113720D01*
X8020336Y-12123244D01*
X8029860Y-12113720D01*
X8020336Y-12104196D01*
X8020336Y-12123244D01*
X8144146Y-12304196D02*
X8125098Y-12294672D01*
X8115574Y-12275625D01*
X8115574Y-12104196D01*
X8248908Y-12304196D02*
X8229860Y-12294672D01*
X8220336Y-12275625D01*
X8220336Y-12104196D01*
X8477479Y-12304196D02*
X8477479Y-12104196D01*
X8544146Y-12247053D01*
X8610812Y-12104196D01*
X8610812Y-12304196D01*
X8791765Y-12304196D02*
X8791765Y-12199434D01*
X8782241Y-12180387D01*
X8763193Y-12170863D01*
X8725098Y-12170863D01*
X8706051Y-12180387D01*
X8791765Y-12294672D02*
X8772717Y-12304196D01*
X8725098Y-12304196D01*
X8706051Y-12294672D01*
X8696527Y-12275625D01*
X8696527Y-12256577D01*
X8706051Y-12237529D01*
X8725098Y-12228006D01*
X8772717Y-12228006D01*
X8791765Y-12218482D01*
X8887003Y-12170863D02*
X8887003Y-12370863D01*
X8887003Y-12180387D02*
X8906051Y-12170863D01*
X8944146Y-12170863D01*
X8963193Y-12180387D01*
X8972717Y-12189910D01*
X8982241Y-12208958D01*
X8982241Y-12266101D01*
X8972717Y-12285148D01*
X8963193Y-12294672D01*
X8944146Y-12304196D01*
X8906051Y-12304196D01*
X8887003Y-12294672D01*
X9067955Y-12285148D02*
X9077479Y-12294672D01*
X9067955Y-12304196D01*
X9058432Y-12294672D01*
X9067955Y-12285148D01*
X9067955Y-12304196D01*
X9067955Y-12180387D02*
X9077479Y-12189910D01*
X9067955Y-12199434D01*
X9058432Y-12189910D01*
X9067955Y-12180387D01*
X9067955Y-12199434D01*
X7238908Y-12533720D02*
X7438908Y-12733720D01*
X7438908Y-12533720D02*
X7238908Y-12733720D01*
X7677479Y-12524196D02*
X7801289Y-12524196D01*
X7734622Y-12600387D01*
X7763193Y-12600387D01*
X7782241Y-12609910D01*
X7791765Y-12619434D01*
X7801289Y-12638482D01*
X7801289Y-12686101D01*
X7791765Y-12705148D01*
X7782241Y-12714672D01*
X7763193Y-12724196D01*
X7706050Y-12724196D01*
X7687003Y-12714672D01*
X7677479Y-12705148D01*
X7887003Y-12705148D02*
X7896527Y-12714672D01*
X7887003Y-12724196D01*
X7877479Y-12714672D01*
X7887003Y-12705148D01*
X7887003Y-12724196D01*
X8020336Y-12524196D02*
X8039384Y-12524196D01*
X8058431Y-12533720D01*
X8067955Y-12543244D01*
X8077479Y-12562291D01*
X8087003Y-12600387D01*
X8087003Y-12648006D01*
X8077479Y-12686101D01*
X8067955Y-12705148D01*
X8058431Y-12714672D01*
X8039384Y-12724196D01*
X8020336Y-12724196D01*
X8001289Y-12714672D01*
X7991765Y-12705148D01*
X7982241Y-12686101D01*
X7972717Y-12648006D01*
X7972717Y-12600387D01*
X7982241Y-12562291D01*
X7991765Y-12543244D01*
X8001289Y-12533720D01*
X8020336Y-12524196D01*
X8210812Y-12524196D02*
X8229860Y-12524196D01*
X8248908Y-12533720D01*
X8258431Y-12543244D01*
X8267955Y-12562291D01*
X8277479Y-12600387D01*
X8277479Y-12648006D01*
X8267955Y-12686101D01*
X8258431Y-12705148D01*
X8248908Y-12714672D01*
X8229860Y-12724196D01*
X8210812Y-12724196D01*
X8191765Y-12714672D01*
X8182241Y-12705148D01*
X8172717Y-12686101D01*
X8163193Y-12648006D01*
X8163193Y-12600387D01*
X8172717Y-12562291D01*
X8182241Y-12543244D01*
X8191765Y-12533720D01*
X8210812Y-12524196D01*
X8401289Y-12524196D02*
X8420336Y-12524196D01*
X8439384Y-12533720D01*
X8448908Y-12543244D01*
X8458432Y-12562291D01*
X8467955Y-12600387D01*
X8467955Y-12648006D01*
X8458432Y-12686101D01*
X8448908Y-12705148D01*
X8439384Y-12714672D01*
X8420336Y-12724196D01*
X8401289Y-12724196D01*
X8382241Y-12714672D01*
X8372717Y-12705148D01*
X8363193Y-12686101D01*
X8353670Y-12648006D01*
X8353670Y-12600387D01*
X8363193Y-12562291D01*
X8372717Y-12543244D01*
X8382241Y-12533720D01*
X8401289Y-12524196D01*
X8553670Y-12724196D02*
X8553670Y-12590863D01*
X8553670Y-12609910D02*
X8563193Y-12600387D01*
X8582241Y-12590863D01*
X8610812Y-12590863D01*
X8629860Y-12600387D01*
X8639384Y-12619434D01*
X8639384Y-12724196D01*
X8639384Y-12619434D02*
X8648908Y-12600387D01*
X8667955Y-12590863D01*
X8696527Y-12590863D01*
X8715574Y-12600387D01*
X8725098Y-12619434D01*
X8725098Y-12724196D01*
X8820336Y-12724196D02*
X8820336Y-12590863D01*
X8820336Y-12609910D02*
X8829860Y-12600387D01*
X8848908Y-12590863D01*
X8877479Y-12590863D01*
X8896527Y-12600387D01*
X8906051Y-12619434D01*
X8906051Y-12724196D01*
X8906051Y-12619434D02*
X8915574Y-12600387D01*
X8934622Y-12590863D01*
X8963193Y-12590863D01*
X8982241Y-12600387D01*
X8991765Y-12619434D01*
X8991765Y-12724196D01*
X9382241Y-12514672D02*
X9210812Y-12771815D01*
X9639384Y-12524196D02*
X9658432Y-12524196D01*
X9677479Y-12533720D01*
X9687003Y-12543244D01*
X9696527Y-12562291D01*
X9706051Y-12600387D01*
X9706051Y-12648006D01*
X9696527Y-12686101D01*
X9687003Y-12705148D01*
X9677479Y-12714672D01*
X9658432Y-12724196D01*
X9639384Y-12724196D01*
X9620336Y-12714672D01*
X9610812Y-12705148D01*
X9601289Y-12686101D01*
X9591765Y-12648006D01*
X9591765Y-12600387D01*
X9601289Y-12562291D01*
X9610812Y-12543244D01*
X9620336Y-12533720D01*
X9639384Y-12524196D01*
X9791765Y-12705148D02*
X9801289Y-12714672D01*
X9791765Y-12724196D01*
X9782241Y-12714672D01*
X9791765Y-12705148D01*
X9791765Y-12724196D01*
X9991765Y-12724196D02*
X9877479Y-12724196D01*
X9934622Y-12724196D02*
X9934622Y-12524196D01*
X9915574Y-12552768D01*
X9896527Y-12571815D01*
X9877479Y-12581339D01*
X10182241Y-12724196D02*
X10067955Y-12724196D01*
X10125098Y-12724196D02*
X10125098Y-12524196D01*
X10106051Y-12552768D01*
X10087003Y-12571815D01*
X10067955Y-12581339D01*
X10296527Y-12609910D02*
X10277479Y-12600387D01*
X10267955Y-12590863D01*
X10258432Y-12571815D01*
X10258432Y-12562291D01*
X10267955Y-12543244D01*
X10277479Y-12533720D01*
X10296527Y-12524196D01*
X10334622Y-12524196D01*
X10353670Y-12533720D01*
X10363193Y-12543244D01*
X10372717Y-12562291D01*
X10372717Y-12571815D01*
X10363193Y-12590863D01*
X10353670Y-12600387D01*
X10334622Y-12609910D01*
X10296527Y-12609910D01*
X10277479Y-12619434D01*
X10267955Y-12628958D01*
X10258432Y-12648006D01*
X10258432Y-12686101D01*
X10267955Y-12705148D01*
X10277479Y-12714672D01*
X10296527Y-12724196D01*
X10334622Y-12724196D01*
X10353670Y-12714672D01*
X10363193Y-12705148D01*
X10372717Y-12686101D01*
X10372717Y-12648006D01*
X10363193Y-12628958D01*
X10353670Y-12619434D01*
X10334622Y-12609910D01*
X10563193Y-12724196D02*
X10448908Y-12724196D01*
X10506051Y-12724196D02*
X10506051Y-12524196D01*
X10487003Y-12552768D01*
X10467955Y-12571815D01*
X10448908Y-12581339D01*
X10639384Y-12524196D02*
X10639384Y-12562291D01*
X10715574Y-12524196D02*
X10715574Y-12562291D01*
X11010812Y-12800387D02*
X11001289Y-12790863D01*
X10982241Y-12762291D01*
X10972717Y-12743244D01*
X10963193Y-12714672D01*
X10953670Y-12667053D01*
X10953670Y-12628958D01*
X10963193Y-12581339D01*
X10972717Y-12552768D01*
X10982241Y-12533720D01*
X11001289Y-12505148D01*
X11010812Y-12495625D01*
X11067955Y-12524196D02*
X11191765Y-12524196D01*
X11125098Y-12600387D01*
X11153670Y-12600387D01*
X11172717Y-12609910D01*
X11182241Y-12619434D01*
X11191765Y-12638482D01*
X11191765Y-12686101D01*
X11182241Y-12705148D01*
X11172717Y-12714672D01*
X11153670Y-12724196D01*
X11096527Y-12724196D01*
X11077479Y-12714672D01*
X11067955Y-12705148D01*
X11429860Y-12724196D02*
X11429860Y-12524196D01*
X11515574Y-12724196D02*
X11515574Y-12619434D01*
X11506050Y-12600387D01*
X11487003Y-12590863D01*
X11458431Y-12590863D01*
X11439384Y-12600387D01*
X11429860Y-12609910D01*
X11639384Y-12724196D02*
X11620336Y-12714672D01*
X11610812Y-12705148D01*
X11601289Y-12686101D01*
X11601289Y-12628958D01*
X11610812Y-12609910D01*
X11620336Y-12600387D01*
X11639384Y-12590863D01*
X11667955Y-12590863D01*
X11687003Y-12600387D01*
X11696527Y-12609910D01*
X11706050Y-12628958D01*
X11706050Y-12686101D01*
X11696527Y-12705148D01*
X11687003Y-12714672D01*
X11667955Y-12724196D01*
X11639384Y-12724196D01*
X11820336Y-12724196D02*
X11801289Y-12714672D01*
X11791765Y-12695625D01*
X11791765Y-12524196D01*
X11972717Y-12714672D02*
X11953670Y-12724196D01*
X11915574Y-12724196D01*
X11896527Y-12714672D01*
X11887003Y-12695625D01*
X11887003Y-12619434D01*
X11896527Y-12600387D01*
X11915574Y-12590863D01*
X11953670Y-12590863D01*
X11972717Y-12600387D01*
X11982241Y-12619434D01*
X11982241Y-12638482D01*
X11887003Y-12657529D01*
X12058431Y-12714672D02*
X12077479Y-12724196D01*
X12115574Y-12724196D01*
X12134622Y-12714672D01*
X12144146Y-12695625D01*
X12144146Y-12686101D01*
X12134622Y-12667053D01*
X12115574Y-12657529D01*
X12087003Y-12657529D01*
X12067955Y-12648006D01*
X12058431Y-12628958D01*
X12058431Y-12619434D01*
X12067955Y-12600387D01*
X12087003Y-12590863D01*
X12115574Y-12590863D01*
X12134622Y-12600387D01*
X12210812Y-12800387D02*
X12220336Y-12790863D01*
X12239384Y-12762291D01*
X12248908Y-12743244D01*
X12258431Y-12714672D01*
X12267955Y-12667053D01*
X12267955Y-12628958D01*
X12258431Y-12581339D01*
X12248908Y-12552768D01*
X12239384Y-12533720D01*
X12220336Y-12505148D01*
X12210812Y-12495625D01*
X12572717Y-12800387D02*
X12563193Y-12790863D01*
X12544146Y-12762291D01*
X12534622Y-12743244D01*
X12525098Y-12714672D01*
X12515574Y-12667053D01*
X12515574Y-12628958D01*
X12525098Y-12581339D01*
X12534622Y-12552768D01*
X12544146Y-12533720D01*
X12563193Y-12505148D01*
X12572717Y-12495625D01*
X12648908Y-12590863D02*
X12648908Y-12724196D01*
X12648908Y-12609910D02*
X12658431Y-12600387D01*
X12677479Y-12590863D01*
X12706050Y-12590863D01*
X12725098Y-12600387D01*
X12734622Y-12619434D01*
X12734622Y-12724196D01*
X12858431Y-12724196D02*
X12839384Y-12714672D01*
X12829860Y-12705148D01*
X12820336Y-12686101D01*
X12820336Y-12628958D01*
X12829860Y-12609910D01*
X12839384Y-12600387D01*
X12858431Y-12590863D01*
X12887003Y-12590863D01*
X12906050Y-12600387D01*
X12915574Y-12609910D01*
X12925098Y-12628958D01*
X12925098Y-12686101D01*
X12915574Y-12705148D01*
X12906050Y-12714672D01*
X12887003Y-12724196D01*
X12858431Y-12724196D01*
X12982241Y-12590863D02*
X13058431Y-12590863D01*
X13010812Y-12524196D02*
X13010812Y-12695625D01*
X13020336Y-12714672D01*
X13039384Y-12724196D01*
X13058431Y-12724196D01*
X13277479Y-12590863D02*
X13277479Y-12790863D01*
X13277479Y-12600387D02*
X13296527Y-12590863D01*
X13334622Y-12590863D01*
X13353670Y-12600387D01*
X13363193Y-12609910D01*
X13372717Y-12628958D01*
X13372717Y-12686101D01*
X13363193Y-12705148D01*
X13353670Y-12714672D01*
X13334622Y-12724196D01*
X13296527Y-12724196D01*
X13277479Y-12714672D01*
X13487003Y-12724196D02*
X13467955Y-12714672D01*
X13458431Y-12695625D01*
X13458431Y-12524196D01*
X13648908Y-12724196D02*
X13648908Y-12619434D01*
X13639384Y-12600387D01*
X13620336Y-12590863D01*
X13582241Y-12590863D01*
X13563193Y-12600387D01*
X13648908Y-12714672D02*
X13629860Y-12724196D01*
X13582241Y-12724196D01*
X13563193Y-12714672D01*
X13553670Y-12695625D01*
X13553670Y-12676577D01*
X13563193Y-12657529D01*
X13582241Y-12648006D01*
X13629860Y-12648006D01*
X13648908Y-12638482D01*
X13715574Y-12590863D02*
X13791765Y-12590863D01*
X13744146Y-12524196D02*
X13744146Y-12695625D01*
X13753670Y-12714672D01*
X13772717Y-12724196D01*
X13791765Y-12724196D01*
X13934622Y-12714672D02*
X13915574Y-12724196D01*
X13877479Y-12724196D01*
X13858431Y-12714672D01*
X13848908Y-12695625D01*
X13848908Y-12619434D01*
X13858431Y-12600387D01*
X13877479Y-12590863D01*
X13915574Y-12590863D01*
X13934622Y-12600387D01*
X13944146Y-12619434D01*
X13944146Y-12638482D01*
X13848908Y-12657529D01*
X14115574Y-12724196D02*
X14115574Y-12524196D01*
X14115574Y-12714672D02*
X14096527Y-12724196D01*
X14058431Y-12724196D01*
X14039384Y-12714672D01*
X14029860Y-12705148D01*
X14020336Y-12686101D01*
X14020336Y-12628958D01*
X14029860Y-12609910D01*
X14039384Y-12600387D01*
X14058431Y-12590863D01*
X14096527Y-12590863D01*
X14115574Y-12600387D01*
X14191765Y-12800387D02*
X14201289Y-12790863D01*
X14220336Y-12762291D01*
X14229860Y-12743244D01*
X14239384Y-12714672D01*
X14248908Y-12667053D01*
X14248908Y-12628958D01*
X14239384Y-12581339D01*
X14229860Y-12552768D01*
X14220336Y-12533720D01*
X14201289Y-12505148D01*
X14191765Y-12495625D01*
M02*
