%TF.GenerationSoftware,KiCad,Pcbnew,(6.0.1)*%
%TF.CreationDate,2022-03-03T23:01:05+09:00*%
%TF.ProjectId,v0_miniAB_pancake_board,76305f6d-696e-4694-9142-5f70616e6361,rev?*%
%TF.SameCoordinates,Original*%
%TF.FileFunction,Legend,Bot*%
%TF.FilePolarity,Positive*%
%FSLAX46Y46*%
G04 Gerber Fmt 4.6, Leading zero omitted, Abs format (unit mm)*
G04 Created by KiCad (PCBNEW (6.0.1)) date 2022-03-03 23:01:05*
%MOMM*%
%LPD*%
G01*
G04 APERTURE LIST*
G04 Aperture macros list*
%AMRoundRect*
0 Rectangle with rounded corners*
0 $1 Rounding radius*
0 $2 $3 $4 $5 $6 $7 $8 $9 X,Y pos of 4 corners*
0 Add a 4 corners polygon primitive as box body*
4,1,4,$2,$3,$4,$5,$6,$7,$8,$9,$2,$3,0*
0 Add four circle primitives for the rounded corners*
1,1,$1+$1,$2,$3*
1,1,$1+$1,$4,$5*
1,1,$1+$1,$6,$7*
1,1,$1+$1,$8,$9*
0 Add four rect primitives between the rounded corners*
20,1,$1+$1,$2,$3,$4,$5,0*
20,1,$1+$1,$4,$5,$6,$7,0*
20,1,$1+$1,$6,$7,$8,$9,0*
20,1,$1+$1,$8,$9,$2,$3,0*%
%AMHorizOval*
0 Thick line with rounded ends*
0 $1 width*
0 $2 $3 position (X,Y) of the first rounded end (center of the circle)*
0 $4 $5 position (X,Y) of the second rounded end (center of the circle)*
0 Add line between two ends*
20,1,$1,$2,$3,$4,$5,0*
0 Add two circle primitives to create the rounded ends*
1,1,$1,$2,$3*
1,1,$1,$4,$5*%
G04 Aperture macros list end*
%ADD10C,0.013229*%
%ADD11C,0.150000*%
%ADD12C,0.300000*%
%ADD13C,0.100000*%
%ADD14C,3.000000*%
%ADD15RoundRect,0.250001X0.813011X0.408179X-0.053012X0.908178X-0.813011X-0.408179X0.053012X-0.908178X0*%
%ADD16HorizOval,1.500000X0.130000X0.225167X-0.130000X-0.225167X0*%
%ADD17O,1.200000X1.750000*%
%ADD18RoundRect,0.250000X0.350000X0.625000X-0.350000X0.625000X-0.350000X-0.625000X0.350000X-0.625000X0*%
%ADD19O,1.750000X1.200000*%
%ADD20RoundRect,0.249999X0.625001X-0.350001X0.625001X0.350001X-0.625001X0.350001X-0.625001X-0.350001X0*%
%ADD21R,1.350000X1.350000*%
%ADD22O,1.350000X1.350000*%
%ADD23RoundRect,0.250000X0.071782X-0.712722X0.645188X-0.311218X-0.071782X0.712722X-0.645188X0.311218X0*%
%ADD24HorizOval,1.200000X-0.157734X0.225267X0.157734X-0.225267X0*%
%ADD25R,1.700000X1.700000*%
%ADD26O,1.700000X1.700000*%
%ADD27C,5.000000*%
%ADD28C,1.500000*%
%ADD29RoundRect,0.250001X-0.499999X-0.499999X0.499999X-0.499999X0.499999X0.499999X-0.499999X0.499999X0*%
%ADD30RoundRect,0.249999X0.194454X-0.689431X0.689431X-0.194454X-0.194454X0.689431X-0.689431X0.194454X0*%
%ADD31HorizOval,1.200000X-0.194454X0.194454X0.194454X-0.194454X0*%
%ADD32RoundRect,0.249999X-0.676283X0.236153X-0.554729X-0.453214X0.676283X-0.236153X0.554729X0.453214X0*%
%ADD33HorizOval,1.200000X-0.270822X-0.047753X0.270822X0.047753X0*%
%ADD34RoundRect,0.249999X-0.554729X0.453214X-0.676283X-0.236153X0.554729X-0.453214X0.676283X0.236153X0*%
%ADD35HorizOval,1.200000X-0.270822X0.047753X0.270822X-0.047753X0*%
%ADD36HorizOval,1.200000X0.270822X0.047753X-0.270822X-0.047753X0*%
%ADD37RoundRect,0.249999X0.676283X-0.236153X0.554729X0.453214X-0.676283X0.236153X-0.554729X-0.453214X0*%
G04 APERTURE END LIST*
D10*
X103305319Y-85252615D02*
X103320204Y-85284359D01*
X103320204Y-85284359D02*
X103333362Y-85316823D01*
X103333362Y-85316823D02*
X103344814Y-85349928D01*
X103344814Y-85349928D02*
X103354580Y-85383596D01*
X103354580Y-85383596D02*
X103362678Y-85417748D01*
X103362678Y-85417748D02*
X103369129Y-85452306D01*
X103369129Y-85452306D02*
X103373953Y-85487192D01*
X103373953Y-85487192D02*
X103377170Y-85522326D01*
X103377170Y-85522326D02*
X103378798Y-85557630D01*
X103378798Y-85557630D02*
X103378857Y-85593027D01*
X103378857Y-85593027D02*
X103377368Y-85628438D01*
X103377368Y-85628438D02*
X103374350Y-85663783D01*
X103374350Y-85663783D02*
X103369822Y-85698986D01*
X103369822Y-85698986D02*
X103363804Y-85733965D01*
X103363804Y-85733965D02*
X103356318Y-85768646D01*
X103356318Y-85768646D02*
X103347379Y-85802947D01*
X103347379Y-85802947D02*
X104166678Y-85669488D01*
X104166678Y-85669488D02*
X104942124Y-85572064D01*
X104942124Y-85572064D02*
X105682708Y-85503287D01*
X105682708Y-85503287D02*
X106397419Y-85455774D01*
X106397419Y-85455774D02*
X109177346Y-85330655D01*
X109177346Y-85330655D02*
X109193442Y-85329251D01*
X109193442Y-85329251D02*
X109209248Y-85327018D01*
X109209248Y-85327018D02*
X109224750Y-85323980D01*
X109224750Y-85323980D02*
X109239925Y-85320161D01*
X109239925Y-85320161D02*
X109254761Y-85315583D01*
X109254761Y-85315583D02*
X109269237Y-85310273D01*
X109269237Y-85310273D02*
X109283336Y-85304250D01*
X109283336Y-85304250D02*
X109297041Y-85297541D01*
X109297041Y-85297541D02*
X109310335Y-85290168D01*
X109310335Y-85290168D02*
X109323201Y-85282155D01*
X109323201Y-85282155D02*
X109335619Y-85273525D01*
X109335619Y-85273525D02*
X109347573Y-85264303D01*
X109347573Y-85264303D02*
X109359046Y-85254511D01*
X109359046Y-85254511D02*
X109370020Y-85244173D01*
X109370020Y-85244173D02*
X109380477Y-85233313D01*
X109380477Y-85233313D02*
X109390400Y-85221953D01*
X109390400Y-85221953D02*
X109399771Y-85210119D01*
X109399771Y-85210119D02*
X109408574Y-85197833D01*
X109408574Y-85197833D02*
X109416789Y-85185118D01*
X109416789Y-85185118D02*
X109424400Y-85172000D01*
X109424400Y-85172000D02*
X109431390Y-85158499D01*
X109431390Y-85158499D02*
X109437742Y-85144642D01*
X109437742Y-85144642D02*
X109443435Y-85130450D01*
X109443435Y-85130450D02*
X109448456Y-85115948D01*
X109448456Y-85115948D02*
X109452784Y-85101160D01*
X109452784Y-85101160D02*
X109456403Y-85086107D01*
X109456403Y-85086107D02*
X109459295Y-85070816D01*
X109459295Y-85070816D02*
X109461444Y-85055306D01*
X109461444Y-85055306D02*
X109462830Y-85039606D01*
X109462830Y-85039606D02*
X109463438Y-85023735D01*
X109463438Y-85023735D02*
X109463248Y-85007720D01*
X109463248Y-85007720D02*
X109462245Y-84991582D01*
X109462245Y-84991582D02*
X109460428Y-84975498D01*
X109460428Y-84975498D02*
X109457827Y-84959643D01*
X109457827Y-84959643D02*
X109454464Y-84944040D01*
X109454464Y-84944040D02*
X109450359Y-84928715D01*
X109450359Y-84928715D02*
X109445535Y-84913688D01*
X109445535Y-84913688D02*
X109440014Y-84898985D01*
X109440014Y-84898985D02*
X109433816Y-84884629D01*
X109433816Y-84884629D02*
X109426964Y-84870643D01*
X109426964Y-84870643D02*
X109419480Y-84857050D01*
X109419480Y-84857050D02*
X109411385Y-84843875D01*
X109411385Y-84843875D02*
X109402701Y-84831141D01*
X109402701Y-84831141D02*
X109393450Y-84818871D01*
X109393450Y-84818871D02*
X109383654Y-84807088D01*
X109383654Y-84807088D02*
X109373333Y-84795816D01*
X109373333Y-84795816D02*
X109362511Y-84785080D01*
X109362511Y-84785080D02*
X109351208Y-84774901D01*
X109351208Y-84774901D02*
X109339447Y-84765305D01*
X109339447Y-84765305D02*
X109327250Y-84756313D01*
X109327250Y-84756313D02*
X109314637Y-84747950D01*
X109314637Y-84747950D02*
X109301631Y-84740239D01*
X109301631Y-84740239D02*
X109288254Y-84733204D01*
X109288254Y-84733204D02*
X109274526Y-84726869D01*
X109274526Y-84726869D02*
X109260471Y-84721255D01*
X109260471Y-84721255D02*
X109246109Y-84716388D01*
X109246109Y-84716388D02*
X109231462Y-84712290D01*
X109231462Y-84712290D02*
X109216553Y-84708986D01*
X109216553Y-84708986D02*
X109201403Y-84706498D01*
X109201403Y-84706498D02*
X109186033Y-84704851D01*
X109186033Y-84704851D02*
X109170465Y-84704067D01*
X109170465Y-84704067D02*
X109154722Y-84704171D01*
X109154722Y-84704171D02*
X109138825Y-84705184D01*
X109138825Y-84705184D02*
X109122795Y-84707133D01*
X109122795Y-84707133D02*
X107673807Y-84915796D01*
X107673807Y-84915796D02*
X106949150Y-85008825D01*
X106949150Y-85008825D02*
X106223753Y-85090709D01*
X106223753Y-85090709D02*
X105497145Y-85158739D01*
X105497145Y-85158739D02*
X104768851Y-85210205D01*
X104768851Y-85210205D02*
X104038400Y-85242400D01*
X104038400Y-85242400D02*
X103305318Y-85252615D01*
X103305318Y-85252615D02*
X103305319Y-85252615D01*
X103305319Y-85252615D02*
X103305319Y-85252615D01*
G36*
X109186033Y-84704851D02*
G01*
X109201403Y-84706498D01*
X109216553Y-84708986D01*
X109231462Y-84712290D01*
X109246109Y-84716388D01*
X109260471Y-84721255D01*
X109274526Y-84726869D01*
X109288254Y-84733204D01*
X109301631Y-84740239D01*
X109314637Y-84747950D01*
X109327250Y-84756313D01*
X109339447Y-84765305D01*
X109351208Y-84774901D01*
X109362511Y-84785080D01*
X109373333Y-84795816D01*
X109383654Y-84807088D01*
X109393450Y-84818871D01*
X109402701Y-84831141D01*
X109411385Y-84843875D01*
X109419480Y-84857050D01*
X109426964Y-84870643D01*
X109433816Y-84884629D01*
X109440014Y-84898985D01*
X109445535Y-84913688D01*
X109450359Y-84928715D01*
X109454464Y-84944040D01*
X109457827Y-84959643D01*
X109460428Y-84975498D01*
X109462245Y-84991582D01*
X109463248Y-85007720D01*
X109463438Y-85023735D01*
X109462830Y-85039606D01*
X109461444Y-85055306D01*
X109459295Y-85070816D01*
X109456403Y-85086107D01*
X109452784Y-85101160D01*
X109448456Y-85115948D01*
X109443435Y-85130450D01*
X109437742Y-85144642D01*
X109431390Y-85158499D01*
X109424400Y-85172000D01*
X109416789Y-85185118D01*
X109408574Y-85197833D01*
X109399771Y-85210119D01*
X109390400Y-85221953D01*
X109380477Y-85233313D01*
X109370020Y-85244173D01*
X109359046Y-85254511D01*
X109347573Y-85264303D01*
X109335619Y-85273525D01*
X109323201Y-85282155D01*
X109310335Y-85290168D01*
X109297041Y-85297541D01*
X109283336Y-85304250D01*
X109269237Y-85310273D01*
X109254761Y-85315583D01*
X109239925Y-85320161D01*
X109224750Y-85323980D01*
X109209248Y-85327018D01*
X109193442Y-85329251D01*
X109177346Y-85330655D01*
X106397419Y-85455774D01*
X105682708Y-85503287D01*
X104942124Y-85572064D01*
X104166678Y-85669488D01*
X103347379Y-85802947D01*
X103356318Y-85768646D01*
X103363804Y-85733965D01*
X103369822Y-85698986D01*
X103374350Y-85663783D01*
X103377368Y-85628438D01*
X103378857Y-85593027D01*
X103378798Y-85557630D01*
X103377170Y-85522326D01*
X103373953Y-85487192D01*
X103369129Y-85452306D01*
X103362678Y-85417748D01*
X103354580Y-85383596D01*
X103344814Y-85349928D01*
X103333362Y-85316823D01*
X103320204Y-85284359D01*
X103305319Y-85252615D01*
X103305318Y-85252615D01*
X104038400Y-85242400D01*
X104768851Y-85210205D01*
X105497145Y-85158739D01*
X106223753Y-85090709D01*
X106949150Y-85008825D01*
X107673807Y-84915796D01*
X109122795Y-84707133D01*
X109138825Y-84705184D01*
X109154722Y-84704171D01*
X109170465Y-84704067D01*
X109186033Y-84704851D01*
G37*
X109186033Y-84704851D02*
X109201403Y-84706498D01*
X109216553Y-84708986D01*
X109231462Y-84712290D01*
X109246109Y-84716388D01*
X109260471Y-84721255D01*
X109274526Y-84726869D01*
X109288254Y-84733204D01*
X109301631Y-84740239D01*
X109314637Y-84747950D01*
X109327250Y-84756313D01*
X109339447Y-84765305D01*
X109351208Y-84774901D01*
X109362511Y-84785080D01*
X109373333Y-84795816D01*
X109383654Y-84807088D01*
X109393450Y-84818871D01*
X109402701Y-84831141D01*
X109411385Y-84843875D01*
X109419480Y-84857050D01*
X109426964Y-84870643D01*
X109433816Y-84884629D01*
X109440014Y-84898985D01*
X109445535Y-84913688D01*
X109450359Y-84928715D01*
X109454464Y-84944040D01*
X109457827Y-84959643D01*
X109460428Y-84975498D01*
X109462245Y-84991582D01*
X109463248Y-85007720D01*
X109463438Y-85023735D01*
X109462830Y-85039606D01*
X109461444Y-85055306D01*
X109459295Y-85070816D01*
X109456403Y-85086107D01*
X109452784Y-85101160D01*
X109448456Y-85115948D01*
X109443435Y-85130450D01*
X109437742Y-85144642D01*
X109431390Y-85158499D01*
X109424400Y-85172000D01*
X109416789Y-85185118D01*
X109408574Y-85197833D01*
X109399771Y-85210119D01*
X109390400Y-85221953D01*
X109380477Y-85233313D01*
X109370020Y-85244173D01*
X109359046Y-85254511D01*
X109347573Y-85264303D01*
X109335619Y-85273525D01*
X109323201Y-85282155D01*
X109310335Y-85290168D01*
X109297041Y-85297541D01*
X109283336Y-85304250D01*
X109269237Y-85310273D01*
X109254761Y-85315583D01*
X109239925Y-85320161D01*
X109224750Y-85323980D01*
X109209248Y-85327018D01*
X109193442Y-85329251D01*
X109177346Y-85330655D01*
X106397419Y-85455774D01*
X105682708Y-85503287D01*
X104942124Y-85572064D01*
X104166678Y-85669488D01*
X103347379Y-85802947D01*
X103356318Y-85768646D01*
X103363804Y-85733965D01*
X103369822Y-85698986D01*
X103374350Y-85663783D01*
X103377368Y-85628438D01*
X103378857Y-85593027D01*
X103378798Y-85557630D01*
X103377170Y-85522326D01*
X103373953Y-85487192D01*
X103369129Y-85452306D01*
X103362678Y-85417748D01*
X103354580Y-85383596D01*
X103344814Y-85349928D01*
X103333362Y-85316823D01*
X103320204Y-85284359D01*
X103305319Y-85252615D01*
X103305318Y-85252615D01*
X104038400Y-85242400D01*
X104768851Y-85210205D01*
X105497145Y-85158739D01*
X106223753Y-85090709D01*
X106949150Y-85008825D01*
X107673807Y-84915796D01*
X109122795Y-84707133D01*
X109138825Y-84705184D01*
X109154722Y-84704171D01*
X109170465Y-84704067D01*
X109186033Y-84704851D01*
X101111829Y-84998341D02*
X102598750Y-84868252D01*
X102598750Y-84868252D02*
X102685478Y-84864786D01*
X102685478Y-84864786D02*
X102767361Y-84869635D01*
X102767361Y-84869635D02*
X102844338Y-84882279D01*
X102844338Y-84882279D02*
X102916352Y-84902194D01*
X102916352Y-84902194D02*
X102983342Y-84928862D01*
X102983342Y-84928862D02*
X103045252Y-84961759D01*
X103045252Y-84961759D02*
X103102020Y-85000365D01*
X103102020Y-85000365D02*
X103153588Y-85044158D01*
X103153588Y-85044158D02*
X103199897Y-85092615D01*
X103199897Y-85092615D02*
X103240889Y-85145218D01*
X103240889Y-85145218D02*
X103276505Y-85201441D01*
X103276505Y-85201441D02*
X103306684Y-85260767D01*
X103306684Y-85260767D02*
X103331368Y-85322671D01*
X103331368Y-85322671D02*
X103350499Y-85386634D01*
X103350499Y-85386634D02*
X103364018Y-85452133D01*
X103364018Y-85452133D02*
X103371864Y-85518647D01*
X103371864Y-85518647D02*
X103373980Y-85585655D01*
X103373980Y-85585655D02*
X103370307Y-85652635D01*
X103370307Y-85652635D02*
X103360784Y-85719066D01*
X103360784Y-85719066D02*
X103345355Y-85784425D01*
X103345355Y-85784425D02*
X103323958Y-85848193D01*
X103323958Y-85848193D02*
X103296536Y-85909846D01*
X103296536Y-85909846D02*
X103263030Y-85968864D01*
X103263030Y-85968864D02*
X103223381Y-86024726D01*
X103223381Y-86024726D02*
X103177528Y-86076909D01*
X103177528Y-86076909D02*
X103125414Y-86124894D01*
X103125414Y-86124894D02*
X103066980Y-86168156D01*
X103066980Y-86168156D02*
X103002166Y-86206176D01*
X103002166Y-86206176D02*
X102930914Y-86238432D01*
X102930914Y-86238432D02*
X102853165Y-86264403D01*
X102853165Y-86264403D02*
X102768859Y-86283565D01*
X102768859Y-86283565D02*
X102677939Y-86295401D01*
X102677939Y-86295401D02*
X101236341Y-86421524D01*
X101236341Y-86421524D02*
X101189359Y-86414485D01*
X101189359Y-86414485D02*
X101147850Y-86407598D01*
X101147850Y-86407598D02*
X101111924Y-86400730D01*
X101111924Y-86400730D02*
X101081689Y-86393748D01*
X101081689Y-86393748D02*
X101057254Y-86386522D01*
X101057254Y-86386522D02*
X101047247Y-86382776D01*
X101047247Y-86382776D02*
X101038730Y-86378921D01*
X101038730Y-86378921D02*
X101031718Y-86374937D01*
X101031718Y-86374937D02*
X101026224Y-86370811D01*
X101026224Y-86370811D02*
X101022261Y-86366524D01*
X101022261Y-86366524D02*
X101019845Y-86362062D01*
X101019845Y-86362062D02*
X101018987Y-86357406D01*
X101018987Y-86357406D02*
X101019703Y-86352542D01*
X101019703Y-86352542D02*
X101022005Y-86347451D01*
X101022005Y-86347451D02*
X101025906Y-86342119D01*
X101025906Y-86342119D02*
X101031422Y-86336527D01*
X101031422Y-86336527D02*
X101038565Y-86330661D01*
X101038565Y-86330661D02*
X101047347Y-86324503D01*
X101047347Y-86324503D02*
X101057785Y-86318037D01*
X101057785Y-86318037D02*
X101083680Y-86304115D01*
X101083680Y-86304115D02*
X101116355Y-86288762D01*
X101116355Y-86288762D02*
X101155920Y-86271850D01*
X101155920Y-86271850D02*
X101202486Y-86253244D01*
X101202486Y-86253244D02*
X102127654Y-86111198D01*
X102127654Y-86111198D02*
X102169063Y-86096586D01*
X102169063Y-86096586D02*
X102204413Y-86082282D01*
X102204413Y-86082282D02*
X102219846Y-86075266D01*
X102219846Y-86075266D02*
X102233799Y-86068349D01*
X102233799Y-86068349D02*
X102246284Y-86061540D01*
X102246284Y-86061540D02*
X102257314Y-86054847D01*
X102257314Y-86054847D02*
X102266899Y-86048278D01*
X102266899Y-86048278D02*
X102275050Y-86041839D01*
X102275050Y-86041839D02*
X102281782Y-86035539D01*
X102281782Y-86035539D02*
X102287105Y-86029386D01*
X102287105Y-86029386D02*
X102291029Y-86023386D01*
X102291029Y-86023386D02*
X102293568Y-86017548D01*
X102293568Y-86017548D02*
X102294733Y-86011878D01*
X102294733Y-86011878D02*
X102294536Y-86006387D01*
X102294536Y-86006387D02*
X102292988Y-86001079D01*
X102292988Y-86001079D02*
X102290101Y-85995965D01*
X102290101Y-85995965D02*
X102285887Y-85991050D01*
X102285887Y-85991050D02*
X102280359Y-85986343D01*
X102280359Y-85986343D02*
X102273525Y-85981851D01*
X102273525Y-85981851D02*
X102265400Y-85977581D01*
X102265400Y-85977581D02*
X102255996Y-85973544D01*
X102255996Y-85973544D02*
X102245322Y-85969744D01*
X102245322Y-85969744D02*
X102233391Y-85966190D01*
X102233391Y-85966190D02*
X102220216Y-85962889D01*
X102220216Y-85962889D02*
X102205806Y-85959850D01*
X102205806Y-85959850D02*
X102190175Y-85957080D01*
X102190175Y-85957080D02*
X102155297Y-85952378D01*
X102155297Y-85952378D02*
X102115671Y-85948843D01*
X102115671Y-85948843D02*
X102002073Y-85945091D01*
X102002073Y-85945091D02*
X101864464Y-85946501D01*
X101864464Y-85946501D02*
X101714910Y-85951635D01*
X101714910Y-85951635D02*
X101565483Y-85959059D01*
X101565483Y-85959059D02*
X101210431Y-85982898D01*
X101210431Y-85982898D02*
X101155199Y-85978993D01*
X101155199Y-85978993D02*
X101107439Y-85974077D01*
X101107439Y-85974077D02*
X101067114Y-85968185D01*
X101067114Y-85968185D02*
X101034187Y-85961350D01*
X101034187Y-85961350D02*
X101020487Y-85957590D01*
X101020487Y-85957590D02*
X101008620Y-85953606D01*
X101008620Y-85953606D02*
X100998585Y-85949403D01*
X100998585Y-85949403D02*
X100990376Y-85944987D01*
X100990376Y-85944987D02*
X100983987Y-85940360D01*
X100983987Y-85940360D02*
X100979415Y-85935528D01*
X100979415Y-85935528D02*
X100976655Y-85930494D01*
X100976655Y-85930494D02*
X100975703Y-85925262D01*
X100975703Y-85925262D02*
X100976551Y-85919837D01*
X100976551Y-85919837D02*
X100979199Y-85914223D01*
X100979199Y-85914223D02*
X100983638Y-85908424D01*
X100983638Y-85908424D02*
X100989867Y-85902446D01*
X100989867Y-85902446D02*
X100997879Y-85896291D01*
X100997879Y-85896291D02*
X101007669Y-85889964D01*
X101007669Y-85889964D02*
X101019234Y-85883469D01*
X101019234Y-85883469D02*
X101032568Y-85876810D01*
X101032568Y-85876810D02*
X101064527Y-85863022D01*
X101064527Y-85863022D02*
X101103506Y-85848630D01*
X101103506Y-85848630D02*
X101149470Y-85833669D01*
X101149470Y-85833669D02*
X101202380Y-85818172D01*
X101202380Y-85818172D02*
X102096635Y-85705976D01*
X102096635Y-85705976D02*
X102119509Y-85700250D01*
X102119509Y-85700250D02*
X102140808Y-85694372D01*
X102140808Y-85694372D02*
X102160536Y-85688359D01*
X102160536Y-85688359D02*
X102178699Y-85682231D01*
X102178699Y-85682231D02*
X102195302Y-85676004D01*
X102195302Y-85676004D02*
X102210351Y-85669699D01*
X102210351Y-85669699D02*
X102223851Y-85663332D01*
X102223851Y-85663332D02*
X102235808Y-85656922D01*
X102235808Y-85656922D02*
X102246228Y-85650489D01*
X102246228Y-85650489D02*
X102255116Y-85644050D01*
X102255116Y-85644050D02*
X102262478Y-85637624D01*
X102262478Y-85637624D02*
X102268318Y-85631228D01*
X102268318Y-85631228D02*
X102272643Y-85624881D01*
X102272643Y-85624881D02*
X102275457Y-85618603D01*
X102275457Y-85618603D02*
X102276769Y-85612410D01*
X102276769Y-85612410D02*
X102276580Y-85606322D01*
X102276580Y-85606322D02*
X102274899Y-85600357D01*
X102274899Y-85600357D02*
X102271729Y-85594533D01*
X102271729Y-85594533D02*
X102267078Y-85588869D01*
X102267078Y-85588869D02*
X102260950Y-85583383D01*
X102260950Y-85583383D02*
X102253351Y-85578093D01*
X102253351Y-85578093D02*
X102244285Y-85573018D01*
X102244285Y-85573018D02*
X102233760Y-85568176D01*
X102233760Y-85568176D02*
X102221780Y-85563586D01*
X102221780Y-85563586D02*
X102208350Y-85559265D01*
X102208350Y-85559265D02*
X102193478Y-85555233D01*
X102193478Y-85555233D02*
X102177168Y-85551507D01*
X102177168Y-85551507D02*
X102159425Y-85548107D01*
X102159425Y-85548107D02*
X102140254Y-85545050D01*
X102140254Y-85545050D02*
X102119663Y-85542354D01*
X102119663Y-85542354D02*
X102097656Y-85540038D01*
X102097656Y-85540038D02*
X102074237Y-85538122D01*
X102074237Y-85538122D02*
X101167155Y-85612948D01*
X101167155Y-85612948D02*
X101111725Y-85608543D01*
X101111725Y-85608543D02*
X101086849Y-85605715D01*
X101086849Y-85605715D02*
X101063858Y-85602491D01*
X101063858Y-85602491D02*
X101042746Y-85598889D01*
X101042746Y-85598889D02*
X101023511Y-85594924D01*
X101023511Y-85594924D02*
X101006145Y-85590612D01*
X101006145Y-85590612D02*
X100990644Y-85585970D01*
X100990644Y-85585970D02*
X100977002Y-85581013D01*
X100977002Y-85581013D02*
X100965215Y-85575758D01*
X100965215Y-85575758D02*
X100955277Y-85570221D01*
X100955277Y-85570221D02*
X100947183Y-85564418D01*
X100947183Y-85564418D02*
X100940929Y-85558366D01*
X100940929Y-85558366D02*
X100936508Y-85552081D01*
X100936508Y-85552081D02*
X100933916Y-85545578D01*
X100933916Y-85545578D02*
X100933147Y-85538875D01*
X100933147Y-85538875D02*
X100934196Y-85531986D01*
X100934196Y-85531986D02*
X100937059Y-85524929D01*
X100937059Y-85524929D02*
X100941730Y-85517719D01*
X100941730Y-85517719D02*
X100948203Y-85510373D01*
X100948203Y-85510373D02*
X100956474Y-85502907D01*
X100956474Y-85502907D02*
X100966538Y-85495336D01*
X100966538Y-85495336D02*
X100978389Y-85487678D01*
X100978389Y-85487678D02*
X100992022Y-85479948D01*
X100992022Y-85479948D02*
X101007432Y-85472163D01*
X101007432Y-85472163D02*
X101024615Y-85464339D01*
X101024615Y-85464339D02*
X101043564Y-85456492D01*
X101043564Y-85456492D02*
X101064274Y-85448638D01*
X101064274Y-85448638D02*
X101110959Y-85432974D01*
X101110959Y-85432974D02*
X101164628Y-85417477D01*
X101164628Y-85417477D02*
X101268849Y-85408522D01*
X101268849Y-85408522D02*
X101516802Y-85383802D01*
X101516802Y-85383802D02*
X101664348Y-85366533D01*
X101664348Y-85366533D02*
X101811427Y-85346529D01*
X101811427Y-85346529D02*
X101881001Y-85335626D01*
X101881001Y-85335626D02*
X101945909Y-85324190D01*
X101945909Y-85324190D02*
X102004634Y-85312270D01*
X102004634Y-85312270D02*
X102055660Y-85299917D01*
X102055660Y-85299917D02*
X102080500Y-85294613D01*
X102080500Y-85294613D02*
X102103278Y-85289172D01*
X102103278Y-85289172D02*
X102124037Y-85283610D01*
X102124037Y-85283610D02*
X102142816Y-85277945D01*
X102142816Y-85277945D02*
X102159660Y-85272192D01*
X102159660Y-85272192D02*
X102174607Y-85266368D01*
X102174607Y-85266368D02*
X102187703Y-85260490D01*
X102187703Y-85260490D02*
X102198986Y-85254576D01*
X102198986Y-85254576D02*
X102208501Y-85248641D01*
X102208501Y-85248641D02*
X102216287Y-85242701D01*
X102216287Y-85242701D02*
X102222388Y-85236775D01*
X102222388Y-85236775D02*
X102226845Y-85230879D01*
X102226845Y-85230879D02*
X102229699Y-85225029D01*
X102229699Y-85225029D02*
X102230993Y-85219242D01*
X102230993Y-85219242D02*
X102230767Y-85213534D01*
X102230767Y-85213534D02*
X102229066Y-85207923D01*
X102229066Y-85207923D02*
X102225929Y-85202426D01*
X102225929Y-85202426D02*
X102221398Y-85197057D01*
X102221398Y-85197057D02*
X102215516Y-85191836D01*
X102215516Y-85191836D02*
X102208324Y-85186778D01*
X102208324Y-85186778D02*
X102199864Y-85181900D01*
X102199864Y-85181900D02*
X102190178Y-85177218D01*
X102190178Y-85177218D02*
X102179307Y-85172750D01*
X102179307Y-85172750D02*
X102167294Y-85168512D01*
X102167294Y-85168512D02*
X102140006Y-85160792D01*
X102140006Y-85160792D02*
X102108650Y-85154194D01*
X102108650Y-85154194D02*
X102073559Y-85148850D01*
X102073559Y-85148850D02*
X102035067Y-85144894D01*
X102035067Y-85144894D02*
X101975995Y-85141259D01*
X101975995Y-85141259D02*
X101912107Y-85139269D01*
X101912107Y-85139269D02*
X101774010Y-85139450D01*
X101774010Y-85139450D02*
X101629016Y-85143886D01*
X101629016Y-85143886D02*
X101485365Y-85151027D01*
X101485365Y-85151027D02*
X101088964Y-85175652D01*
X101088964Y-85175652D02*
X101060919Y-85174471D01*
X101060919Y-85174471D02*
X101035303Y-85172535D01*
X101035303Y-85172535D02*
X101012057Y-85169891D01*
X101012057Y-85169891D02*
X100991124Y-85166586D01*
X100991124Y-85166586D02*
X100972448Y-85162668D01*
X100972448Y-85162668D02*
X100955970Y-85158184D01*
X100955970Y-85158184D02*
X100941634Y-85153181D01*
X100941634Y-85153181D02*
X100929382Y-85147707D01*
X100929382Y-85147707D02*
X100919157Y-85141810D01*
X100919157Y-85141810D02*
X100910903Y-85135536D01*
X100910903Y-85135536D02*
X100904560Y-85128934D01*
X100904560Y-85128934D02*
X100900074Y-85122051D01*
X100900074Y-85122051D02*
X100897386Y-85114933D01*
X100897386Y-85114933D02*
X100896438Y-85107629D01*
X100896438Y-85107629D02*
X100897174Y-85100187D01*
X100897174Y-85100187D02*
X100899537Y-85092652D01*
X100899537Y-85092652D02*
X100903468Y-85085073D01*
X100903468Y-85085073D02*
X100908912Y-85077498D01*
X100908912Y-85077498D02*
X100915811Y-85069973D01*
X100915811Y-85069973D02*
X100924107Y-85062546D01*
X100924107Y-85062546D02*
X100933744Y-85055265D01*
X100933744Y-85055265D02*
X100944662Y-85048177D01*
X100944662Y-85048177D02*
X100956808Y-85041329D01*
X100956808Y-85041329D02*
X100970122Y-85034769D01*
X100970122Y-85034769D02*
X100984546Y-85028544D01*
X100984546Y-85028544D02*
X101000026Y-85022702D01*
X101000026Y-85022702D02*
X101016501Y-85017290D01*
X101016501Y-85017290D02*
X101033917Y-85012355D01*
X101033917Y-85012355D02*
X101052214Y-85007946D01*
X101052214Y-85007946D02*
X101071337Y-85004109D01*
X101071337Y-85004109D02*
X101091228Y-85000891D01*
X101091228Y-85000891D02*
X101111829Y-84998341D01*
X101111829Y-84998341D02*
X101111829Y-84998341D01*
G36*
X102767361Y-84869635D02*
G01*
X102844338Y-84882279D01*
X102916352Y-84902194D01*
X102983342Y-84928862D01*
X103045252Y-84961759D01*
X103102020Y-85000365D01*
X103153588Y-85044158D01*
X103199897Y-85092615D01*
X103240889Y-85145218D01*
X103276505Y-85201441D01*
X103306684Y-85260767D01*
X103331368Y-85322671D01*
X103350499Y-85386634D01*
X103364018Y-85452133D01*
X103371864Y-85518647D01*
X103373980Y-85585655D01*
X103370307Y-85652635D01*
X103360784Y-85719066D01*
X103345355Y-85784425D01*
X103323958Y-85848193D01*
X103296536Y-85909846D01*
X103263030Y-85968864D01*
X103223381Y-86024726D01*
X103177528Y-86076909D01*
X103125414Y-86124894D01*
X103066980Y-86168156D01*
X103002166Y-86206176D01*
X102930914Y-86238432D01*
X102853165Y-86264403D01*
X102768859Y-86283565D01*
X102677939Y-86295401D01*
X101236341Y-86421524D01*
X101189359Y-86414485D01*
X101147850Y-86407598D01*
X101111924Y-86400730D01*
X101081689Y-86393748D01*
X101057254Y-86386522D01*
X101047247Y-86382776D01*
X101038730Y-86378921D01*
X101031718Y-86374937D01*
X101026224Y-86370811D01*
X101022261Y-86366524D01*
X101019845Y-86362062D01*
X101018987Y-86357406D01*
X101019703Y-86352542D01*
X101022005Y-86347451D01*
X101025906Y-86342119D01*
X101031422Y-86336527D01*
X101038565Y-86330661D01*
X101047347Y-86324503D01*
X101057785Y-86318037D01*
X101083680Y-86304115D01*
X101116355Y-86288762D01*
X101155920Y-86271850D01*
X101202486Y-86253244D01*
X102127654Y-86111198D01*
X102169063Y-86096586D01*
X102204413Y-86082282D01*
X102219846Y-86075266D01*
X102233799Y-86068349D01*
X102246284Y-86061540D01*
X102257314Y-86054847D01*
X102266899Y-86048278D01*
X102275050Y-86041839D01*
X102281782Y-86035539D01*
X102287105Y-86029386D01*
X102291029Y-86023386D01*
X102293568Y-86017548D01*
X102294733Y-86011878D01*
X102294536Y-86006387D01*
X102292988Y-86001079D01*
X102290101Y-85995965D01*
X102285887Y-85991050D01*
X102280359Y-85986343D01*
X102273525Y-85981851D01*
X102265400Y-85977581D01*
X102255996Y-85973544D01*
X102245322Y-85969744D01*
X102233391Y-85966190D01*
X102220216Y-85962889D01*
X102205806Y-85959850D01*
X102190175Y-85957080D01*
X102155297Y-85952378D01*
X102115671Y-85948843D01*
X102002073Y-85945091D01*
X101864464Y-85946501D01*
X101714910Y-85951635D01*
X101565483Y-85959059D01*
X101210431Y-85982898D01*
X101155199Y-85978993D01*
X101107439Y-85974077D01*
X101067114Y-85968185D01*
X101034187Y-85961350D01*
X101020487Y-85957590D01*
X101008620Y-85953606D01*
X100998585Y-85949403D01*
X100990376Y-85944987D01*
X100983987Y-85940360D01*
X100979415Y-85935528D01*
X100976655Y-85930494D01*
X100975703Y-85925262D01*
X100976551Y-85919837D01*
X100979199Y-85914223D01*
X100983638Y-85908424D01*
X100989867Y-85902446D01*
X100997879Y-85896291D01*
X101007669Y-85889964D01*
X101019234Y-85883469D01*
X101032568Y-85876810D01*
X101064527Y-85863022D01*
X101103506Y-85848630D01*
X101149470Y-85833669D01*
X101202380Y-85818172D01*
X102096635Y-85705976D01*
X102119509Y-85700250D01*
X102140808Y-85694372D01*
X102160536Y-85688359D01*
X102178699Y-85682231D01*
X102195302Y-85676004D01*
X102210351Y-85669699D01*
X102223851Y-85663332D01*
X102235808Y-85656922D01*
X102246228Y-85650489D01*
X102255116Y-85644050D01*
X102262478Y-85637624D01*
X102268318Y-85631228D01*
X102272643Y-85624881D01*
X102275457Y-85618603D01*
X102276769Y-85612410D01*
X102276580Y-85606322D01*
X102274899Y-85600357D01*
X102271729Y-85594533D01*
X102267078Y-85588869D01*
X102260950Y-85583383D01*
X102253351Y-85578093D01*
X102244285Y-85573018D01*
X102233760Y-85568176D01*
X102221780Y-85563586D01*
X102208350Y-85559265D01*
X102193478Y-85555233D01*
X102177168Y-85551507D01*
X102159425Y-85548107D01*
X102140254Y-85545050D01*
X102119663Y-85542354D01*
X102097656Y-85540038D01*
X102074237Y-85538122D01*
X101167155Y-85612948D01*
X101111725Y-85608543D01*
X101086849Y-85605715D01*
X101063858Y-85602491D01*
X101042746Y-85598889D01*
X101023511Y-85594924D01*
X101006145Y-85590612D01*
X100990644Y-85585970D01*
X100977002Y-85581013D01*
X100965215Y-85575758D01*
X100955277Y-85570221D01*
X100947183Y-85564418D01*
X100940929Y-85558366D01*
X100936508Y-85552081D01*
X100933916Y-85545578D01*
X100933147Y-85538875D01*
X100934196Y-85531986D01*
X100937059Y-85524929D01*
X100941730Y-85517719D01*
X100948203Y-85510373D01*
X100956474Y-85502907D01*
X100966538Y-85495336D01*
X100978389Y-85487678D01*
X100992022Y-85479948D01*
X101007432Y-85472163D01*
X101024615Y-85464339D01*
X101043564Y-85456492D01*
X101064274Y-85448638D01*
X101110959Y-85432974D01*
X101164628Y-85417477D01*
X101268849Y-85408522D01*
X101516802Y-85383802D01*
X101664348Y-85366533D01*
X101811427Y-85346529D01*
X101881001Y-85335626D01*
X101945909Y-85324190D01*
X102004634Y-85312270D01*
X102055660Y-85299917D01*
X102080500Y-85294613D01*
X102103278Y-85289172D01*
X102124037Y-85283610D01*
X102142816Y-85277945D01*
X102159660Y-85272192D01*
X102174607Y-85266368D01*
X102187703Y-85260490D01*
X102198986Y-85254576D01*
X102208501Y-85248641D01*
X102216287Y-85242701D01*
X102222388Y-85236775D01*
X102226845Y-85230879D01*
X102229699Y-85225029D01*
X102230993Y-85219242D01*
X102230767Y-85213534D01*
X102229066Y-85207923D01*
X102225929Y-85202426D01*
X102221398Y-85197057D01*
X102215516Y-85191836D01*
X102208324Y-85186778D01*
X102199864Y-85181900D01*
X102190178Y-85177218D01*
X102179307Y-85172750D01*
X102167294Y-85168512D01*
X102140006Y-85160792D01*
X102108650Y-85154194D01*
X102073559Y-85148850D01*
X102035067Y-85144894D01*
X101975995Y-85141259D01*
X101912107Y-85139269D01*
X101774010Y-85139450D01*
X101629016Y-85143886D01*
X101485365Y-85151027D01*
X101088964Y-85175652D01*
X101060919Y-85174471D01*
X101035303Y-85172535D01*
X101012057Y-85169891D01*
X100991124Y-85166586D01*
X100972448Y-85162668D01*
X100955970Y-85158184D01*
X100941634Y-85153181D01*
X100929382Y-85147707D01*
X100919157Y-85141810D01*
X100910903Y-85135536D01*
X100904560Y-85128934D01*
X100900074Y-85122051D01*
X100897386Y-85114933D01*
X100896438Y-85107629D01*
X100897174Y-85100187D01*
X100899537Y-85092652D01*
X100903468Y-85085073D01*
X100908912Y-85077498D01*
X100915811Y-85069973D01*
X100924107Y-85062546D01*
X100933744Y-85055265D01*
X100944662Y-85048177D01*
X100956808Y-85041329D01*
X100970122Y-85034769D01*
X100984546Y-85028544D01*
X101000026Y-85022702D01*
X101016501Y-85017290D01*
X101033917Y-85012355D01*
X101052214Y-85007946D01*
X101071337Y-85004109D01*
X101091228Y-85000891D01*
X101111829Y-84998341D01*
X102598750Y-84868252D01*
X102685478Y-84864786D01*
X102767361Y-84869635D01*
G37*
X102767361Y-84869635D02*
X102844338Y-84882279D01*
X102916352Y-84902194D01*
X102983342Y-84928862D01*
X103045252Y-84961759D01*
X103102020Y-85000365D01*
X103153588Y-85044158D01*
X103199897Y-85092615D01*
X103240889Y-85145218D01*
X103276505Y-85201441D01*
X103306684Y-85260767D01*
X103331368Y-85322671D01*
X103350499Y-85386634D01*
X103364018Y-85452133D01*
X103371864Y-85518647D01*
X103373980Y-85585655D01*
X103370307Y-85652635D01*
X103360784Y-85719066D01*
X103345355Y-85784425D01*
X103323958Y-85848193D01*
X103296536Y-85909846D01*
X103263030Y-85968864D01*
X103223381Y-86024726D01*
X103177528Y-86076909D01*
X103125414Y-86124894D01*
X103066980Y-86168156D01*
X103002166Y-86206176D01*
X102930914Y-86238432D01*
X102853165Y-86264403D01*
X102768859Y-86283565D01*
X102677939Y-86295401D01*
X101236341Y-86421524D01*
X101189359Y-86414485D01*
X101147850Y-86407598D01*
X101111924Y-86400730D01*
X101081689Y-86393748D01*
X101057254Y-86386522D01*
X101047247Y-86382776D01*
X101038730Y-86378921D01*
X101031718Y-86374937D01*
X101026224Y-86370811D01*
X101022261Y-86366524D01*
X101019845Y-86362062D01*
X101018987Y-86357406D01*
X101019703Y-86352542D01*
X101022005Y-86347451D01*
X101025906Y-86342119D01*
X101031422Y-86336527D01*
X101038565Y-86330661D01*
X101047347Y-86324503D01*
X101057785Y-86318037D01*
X101083680Y-86304115D01*
X101116355Y-86288762D01*
X101155920Y-86271850D01*
X101202486Y-86253244D01*
X102127654Y-86111198D01*
X102169063Y-86096586D01*
X102204413Y-86082282D01*
X102219846Y-86075266D01*
X102233799Y-86068349D01*
X102246284Y-86061540D01*
X102257314Y-86054847D01*
X102266899Y-86048278D01*
X102275050Y-86041839D01*
X102281782Y-86035539D01*
X102287105Y-86029386D01*
X102291029Y-86023386D01*
X102293568Y-86017548D01*
X102294733Y-86011878D01*
X102294536Y-86006387D01*
X102292988Y-86001079D01*
X102290101Y-85995965D01*
X102285887Y-85991050D01*
X102280359Y-85986343D01*
X102273525Y-85981851D01*
X102265400Y-85977581D01*
X102255996Y-85973544D01*
X102245322Y-85969744D01*
X102233391Y-85966190D01*
X102220216Y-85962889D01*
X102205806Y-85959850D01*
X102190175Y-85957080D01*
X102155297Y-85952378D01*
X102115671Y-85948843D01*
X102002073Y-85945091D01*
X101864464Y-85946501D01*
X101714910Y-85951635D01*
X101565483Y-85959059D01*
X101210431Y-85982898D01*
X101155199Y-85978993D01*
X101107439Y-85974077D01*
X101067114Y-85968185D01*
X101034187Y-85961350D01*
X101020487Y-85957590D01*
X101008620Y-85953606D01*
X100998585Y-85949403D01*
X100990376Y-85944987D01*
X100983987Y-85940360D01*
X100979415Y-85935528D01*
X100976655Y-85930494D01*
X100975703Y-85925262D01*
X100976551Y-85919837D01*
X100979199Y-85914223D01*
X100983638Y-85908424D01*
X100989867Y-85902446D01*
X100997879Y-85896291D01*
X101007669Y-85889964D01*
X101019234Y-85883469D01*
X101032568Y-85876810D01*
X101064527Y-85863022D01*
X101103506Y-85848630D01*
X101149470Y-85833669D01*
X101202380Y-85818172D01*
X102096635Y-85705976D01*
X102119509Y-85700250D01*
X102140808Y-85694372D01*
X102160536Y-85688359D01*
X102178699Y-85682231D01*
X102195302Y-85676004D01*
X102210351Y-85669699D01*
X102223851Y-85663332D01*
X102235808Y-85656922D01*
X102246228Y-85650489D01*
X102255116Y-85644050D01*
X102262478Y-85637624D01*
X102268318Y-85631228D01*
X102272643Y-85624881D01*
X102275457Y-85618603D01*
X102276769Y-85612410D01*
X102276580Y-85606322D01*
X102274899Y-85600357D01*
X102271729Y-85594533D01*
X102267078Y-85588869D01*
X102260950Y-85583383D01*
X102253351Y-85578093D01*
X102244285Y-85573018D01*
X102233760Y-85568176D01*
X102221780Y-85563586D01*
X102208350Y-85559265D01*
X102193478Y-85555233D01*
X102177168Y-85551507D01*
X102159425Y-85548107D01*
X102140254Y-85545050D01*
X102119663Y-85542354D01*
X102097656Y-85540038D01*
X102074237Y-85538122D01*
X101167155Y-85612948D01*
X101111725Y-85608543D01*
X101086849Y-85605715D01*
X101063858Y-85602491D01*
X101042746Y-85598889D01*
X101023511Y-85594924D01*
X101006145Y-85590612D01*
X100990644Y-85585970D01*
X100977002Y-85581013D01*
X100965215Y-85575758D01*
X100955277Y-85570221D01*
X100947183Y-85564418D01*
X100940929Y-85558366D01*
X100936508Y-85552081D01*
X100933916Y-85545578D01*
X100933147Y-85538875D01*
X100934196Y-85531986D01*
X100937059Y-85524929D01*
X100941730Y-85517719D01*
X100948203Y-85510373D01*
X100956474Y-85502907D01*
X100966538Y-85495336D01*
X100978389Y-85487678D01*
X100992022Y-85479948D01*
X101007432Y-85472163D01*
X101024615Y-85464339D01*
X101043564Y-85456492D01*
X101064274Y-85448638D01*
X101110959Y-85432974D01*
X101164628Y-85417477D01*
X101268849Y-85408522D01*
X101516802Y-85383802D01*
X101664348Y-85366533D01*
X101811427Y-85346529D01*
X101881001Y-85335626D01*
X101945909Y-85324190D01*
X102004634Y-85312270D01*
X102055660Y-85299917D01*
X102080500Y-85294613D01*
X102103278Y-85289172D01*
X102124037Y-85283610D01*
X102142816Y-85277945D01*
X102159660Y-85272192D01*
X102174607Y-85266368D01*
X102187703Y-85260490D01*
X102198986Y-85254576D01*
X102208501Y-85248641D01*
X102216287Y-85242701D01*
X102222388Y-85236775D01*
X102226845Y-85230879D01*
X102229699Y-85225029D01*
X102230993Y-85219242D01*
X102230767Y-85213534D01*
X102229066Y-85207923D01*
X102225929Y-85202426D01*
X102221398Y-85197057D01*
X102215516Y-85191836D01*
X102208324Y-85186778D01*
X102199864Y-85181900D01*
X102190178Y-85177218D01*
X102179307Y-85172750D01*
X102167294Y-85168512D01*
X102140006Y-85160792D01*
X102108650Y-85154194D01*
X102073559Y-85148850D01*
X102035067Y-85144894D01*
X101975995Y-85141259D01*
X101912107Y-85139269D01*
X101774010Y-85139450D01*
X101629016Y-85143886D01*
X101485365Y-85151027D01*
X101088964Y-85175652D01*
X101060919Y-85174471D01*
X101035303Y-85172535D01*
X101012057Y-85169891D01*
X100991124Y-85166586D01*
X100972448Y-85162668D01*
X100955970Y-85158184D01*
X100941634Y-85153181D01*
X100929382Y-85147707D01*
X100919157Y-85141810D01*
X100910903Y-85135536D01*
X100904560Y-85128934D01*
X100900074Y-85122051D01*
X100897386Y-85114933D01*
X100896438Y-85107629D01*
X100897174Y-85100187D01*
X100899537Y-85092652D01*
X100903468Y-85085073D01*
X100908912Y-85077498D01*
X100915811Y-85069973D01*
X100924107Y-85062546D01*
X100933744Y-85055265D01*
X100944662Y-85048177D01*
X100956808Y-85041329D01*
X100970122Y-85034769D01*
X100984546Y-85028544D01*
X101000026Y-85022702D01*
X101016501Y-85017290D01*
X101033917Y-85012355D01*
X101052214Y-85007946D01*
X101071337Y-85004109D01*
X101091228Y-85000891D01*
X101111829Y-84998341D01*
X102598750Y-84868252D01*
X102685478Y-84864786D01*
X102767361Y-84869635D01*
D11*
X91207866Y-94115576D02*
X91207866Y-94591766D01*
X91493580Y-94020338D02*
X90493580Y-94353671D01*
X91493580Y-94687004D01*
X91112628Y-95020338D02*
X91112628Y-95782242D01*
X91493580Y-95401290D02*
X90731676Y-95401290D01*
X94427866Y-94115576D02*
X94427866Y-94591766D01*
X94713580Y-94020338D02*
X93713580Y-94353671D01*
X94713580Y-94687004D01*
X94332628Y-95020338D02*
X94332628Y-95782242D01*
X97409771Y-94496528D02*
X97457390Y-94639385D01*
X97505009Y-94687004D01*
X97600247Y-94734623D01*
X97743104Y-94734623D01*
X97838342Y-94687004D01*
X97885961Y-94639385D01*
X97933580Y-94544147D01*
X97933580Y-94163195D01*
X96933580Y-94163195D01*
X96933580Y-94496528D01*
X96981200Y-94591766D01*
X97028819Y-94639385D01*
X97124057Y-94687004D01*
X97219295Y-94687004D01*
X97314533Y-94639385D01*
X97362152Y-94591766D01*
X97409771Y-94496528D01*
X97409771Y-94163195D01*
X97552628Y-95163195D02*
X97552628Y-95925100D01*
X97933580Y-95544147D02*
X97171676Y-95544147D01*
X100629771Y-94496528D02*
X100677390Y-94639385D01*
X100725009Y-94687004D01*
X100820247Y-94734623D01*
X100963104Y-94734623D01*
X101058342Y-94687004D01*
X101105961Y-94639385D01*
X101153580Y-94544147D01*
X101153580Y-94163195D01*
X100153580Y-94163195D01*
X100153580Y-94496528D01*
X100201200Y-94591766D01*
X100248819Y-94639385D01*
X100344057Y-94687004D01*
X100439295Y-94687004D01*
X100534533Y-94639385D01*
X100582152Y-94591766D01*
X100629771Y-94496528D01*
X100629771Y-94163195D01*
X100772628Y-95163195D02*
X100772628Y-95925100D01*
X103373580Y-94067957D02*
X104373580Y-94734623D01*
X103373580Y-94734623D02*
X104373580Y-94067957D01*
X103849771Y-95877480D02*
X103849771Y-96210814D01*
X104373580Y-96353671D02*
X104373580Y-95877480D01*
X103373580Y-95877480D01*
X103373580Y-96353671D01*
X104373580Y-96782242D02*
X103373580Y-96782242D01*
X104373580Y-97353671D01*
X103373580Y-97353671D01*
X104373580Y-97829861D02*
X103373580Y-97829861D01*
X103373580Y-98067957D01*
X103421200Y-98210814D01*
X103516438Y-98306052D01*
X103611676Y-98353671D01*
X103802152Y-98401290D01*
X103945009Y-98401290D01*
X104135485Y-98353671D01*
X104230723Y-98306052D01*
X104325961Y-98210814D01*
X104373580Y-98067957D01*
X104373580Y-97829861D01*
X107069771Y-94496528D02*
X107069771Y-94163195D01*
X107593580Y-94163195D02*
X106593580Y-94163195D01*
X106593580Y-94639385D01*
X107307866Y-94972719D02*
X107307866Y-95448909D01*
X107593580Y-94877480D02*
X106593580Y-95210814D01*
X107593580Y-95544147D01*
X107593580Y-95877480D02*
X106593580Y-95877480D01*
X107593580Y-96448909D01*
X106593580Y-96448909D01*
X106593580Y-97115576D02*
X106593580Y-97210814D01*
X106641200Y-97306052D01*
X106688819Y-97353671D01*
X106784057Y-97401290D01*
X106974533Y-97448909D01*
X107212628Y-97448909D01*
X107403104Y-97401290D01*
X107498342Y-97353671D01*
X107545961Y-97306052D01*
X107593580Y-97210814D01*
X107593580Y-97115576D01*
X107545961Y-97020338D01*
X107498342Y-96972719D01*
X107403104Y-96925100D01*
X107212628Y-96877480D01*
X106974533Y-96877480D01*
X106784057Y-96925100D01*
X106688819Y-96972719D01*
X106641200Y-97020338D01*
X106593580Y-97115576D01*
X110813580Y-94639385D02*
X110813580Y-94163195D01*
X109813580Y-94163195D01*
X110289771Y-94972719D02*
X110289771Y-95306052D01*
X110813580Y-95448909D02*
X110813580Y-94972719D01*
X109813580Y-94972719D01*
X109813580Y-95448909D01*
X110813580Y-95877480D02*
X109813580Y-95877480D01*
X109813580Y-96115576D01*
X109861200Y-96258433D01*
X109956438Y-96353671D01*
X110051676Y-96401290D01*
X110242152Y-96448909D01*
X110385009Y-96448909D01*
X110575485Y-96401290D01*
X110670723Y-96353671D01*
X110765961Y-96258433D01*
X110813580Y-96115576D01*
X110813580Y-95877480D01*
X113081200Y-94687004D02*
X113033580Y-94591766D01*
X113033580Y-94448909D01*
X113081200Y-94306052D01*
X113176438Y-94210814D01*
X113271676Y-94163195D01*
X113462152Y-94115576D01*
X113605009Y-94115576D01*
X113795485Y-94163195D01*
X113890723Y-94210814D01*
X113985961Y-94306052D01*
X114033580Y-94448909D01*
X114033580Y-94544147D01*
X113985961Y-94687004D01*
X113938342Y-94734623D01*
X113605009Y-94734623D01*
X113605009Y-94544147D01*
X114033580Y-95163195D02*
X113033580Y-95163195D01*
X114033580Y-95734623D01*
X113033580Y-95734623D01*
X114033580Y-96210814D02*
X113033580Y-96210814D01*
X113033580Y-96448909D01*
X113081200Y-96591766D01*
X113176438Y-96687004D01*
X113271676Y-96734623D01*
X113462152Y-96782242D01*
X113605009Y-96782242D01*
X113795485Y-96734623D01*
X113890723Y-96687004D01*
X113985961Y-96591766D01*
X114033580Y-96448909D01*
X114033580Y-96210814D01*
X89979219Y-100871976D02*
X89931600Y-100919595D01*
X89883980Y-101014833D01*
X89883980Y-101252928D01*
X89931600Y-101348166D01*
X89979219Y-101395785D01*
X90074457Y-101443404D01*
X90169695Y-101443404D01*
X90312552Y-101395785D01*
X90883980Y-100824357D01*
X90883980Y-101443404D01*
X90217314Y-102300547D02*
X90883980Y-102300547D01*
X89836361Y-102062452D02*
X90550647Y-101824357D01*
X90550647Y-102443404D01*
X89883980Y-102681500D02*
X90883980Y-103014833D01*
X89883980Y-103348166D01*
X94103980Y-100919595D02*
X93103980Y-100919595D01*
X93580171Y-100919595D02*
X93580171Y-101491023D01*
X94103980Y-101491023D02*
X93103980Y-101491023D01*
X93580171Y-101967214D02*
X93580171Y-102300547D01*
X94103980Y-102443404D02*
X94103980Y-101967214D01*
X93103980Y-101967214D01*
X93103980Y-102443404D01*
X93818266Y-102824357D02*
X93818266Y-103300547D01*
X94103980Y-102729119D02*
X93103980Y-103062452D01*
X94103980Y-103395785D01*
X93103980Y-103586261D02*
X93103980Y-104157690D01*
X94103980Y-103871976D02*
X93103980Y-103871976D01*
X94199219Y-104252928D02*
X94199219Y-105014833D01*
X93151600Y-105776738D02*
X93103980Y-105681500D01*
X93103980Y-105538642D01*
X93151600Y-105395785D01*
X93246838Y-105300547D01*
X93342076Y-105252928D01*
X93532552Y-105205309D01*
X93675409Y-105205309D01*
X93865885Y-105252928D01*
X93961123Y-105300547D01*
X94056361Y-105395785D01*
X94103980Y-105538642D01*
X94103980Y-105633880D01*
X94056361Y-105776738D01*
X94008742Y-105824357D01*
X93675409Y-105824357D01*
X93675409Y-105633880D01*
X94103980Y-106252928D02*
X93103980Y-106252928D01*
X94103980Y-106824357D01*
X93103980Y-106824357D01*
X94103980Y-107300547D02*
X93103980Y-107300547D01*
X93103980Y-107538642D01*
X93151600Y-107681500D01*
X93246838Y-107776738D01*
X93342076Y-107824357D01*
X93532552Y-107871976D01*
X93675409Y-107871976D01*
X93865885Y-107824357D01*
X93961123Y-107776738D01*
X94056361Y-107681500D01*
X94103980Y-107538642D01*
X94103980Y-107300547D01*
X96323980Y-100776738D02*
X96323980Y-101348166D01*
X97323980Y-101062452D02*
X96323980Y-101062452D01*
X97323980Y-101681500D02*
X96323980Y-101681500D01*
X96800171Y-101681500D02*
X96800171Y-102252928D01*
X97323980Y-102252928D02*
X96323980Y-102252928D01*
X96323980Y-102919595D02*
X96323980Y-103014833D01*
X96371600Y-103110071D01*
X96419219Y-103157690D01*
X96514457Y-103205309D01*
X96704933Y-103252928D01*
X96943028Y-103252928D01*
X97133504Y-103205309D01*
X97228742Y-103157690D01*
X97276361Y-103110071D01*
X97323980Y-103014833D01*
X97323980Y-102919595D01*
X97276361Y-102824357D01*
X97228742Y-102776738D01*
X97133504Y-102729119D01*
X96943028Y-102681500D01*
X96704933Y-102681500D01*
X96514457Y-102729119D01*
X96419219Y-102776738D01*
X96371600Y-102824357D01*
X96323980Y-102919595D01*
X99543980Y-100776738D02*
X99543980Y-101348166D01*
X100543980Y-101062452D02*
X99543980Y-101062452D01*
X100543980Y-101681500D02*
X99543980Y-101681500D01*
X100020171Y-101681500D02*
X100020171Y-102252928D01*
X100543980Y-102252928D02*
X99543980Y-102252928D01*
X100543980Y-103252928D02*
X100543980Y-102681500D01*
X100543980Y-102967214D02*
X99543980Y-102967214D01*
X99686838Y-102871976D01*
X99782076Y-102776738D01*
X99829695Y-102681500D01*
X103763980Y-100919595D02*
X102763980Y-100919595D01*
X102763980Y-101300547D01*
X102811600Y-101395785D01*
X102859219Y-101443404D01*
X102954457Y-101491023D01*
X103097314Y-101491023D01*
X103192552Y-101443404D01*
X103240171Y-101395785D01*
X103287790Y-101300547D01*
X103287790Y-100919595D01*
X103763980Y-102491023D02*
X103287790Y-102157690D01*
X103763980Y-101919595D02*
X102763980Y-101919595D01*
X102763980Y-102300547D01*
X102811600Y-102395785D01*
X102859219Y-102443404D01*
X102954457Y-102491023D01*
X103097314Y-102491023D01*
X103192552Y-102443404D01*
X103240171Y-102395785D01*
X103287790Y-102300547D01*
X103287790Y-101919595D01*
X102763980Y-103110071D02*
X102763980Y-103300547D01*
X102811600Y-103395785D01*
X102906838Y-103491023D01*
X103097314Y-103538642D01*
X103430647Y-103538642D01*
X103621123Y-103491023D01*
X103716361Y-103395785D01*
X103763980Y-103300547D01*
X103763980Y-103110071D01*
X103716361Y-103014833D01*
X103621123Y-102919595D01*
X103430647Y-102871976D01*
X103097314Y-102871976D01*
X102906838Y-102919595D01*
X102811600Y-103014833D01*
X102763980Y-103110071D01*
X103240171Y-104300547D02*
X103287790Y-104443404D01*
X103335409Y-104491023D01*
X103430647Y-104538642D01*
X103573504Y-104538642D01*
X103668742Y-104491023D01*
X103716361Y-104443404D01*
X103763980Y-104348166D01*
X103763980Y-103967214D01*
X102763980Y-103967214D01*
X102763980Y-104300547D01*
X102811600Y-104395785D01*
X102859219Y-104443404D01*
X102954457Y-104491023D01*
X103049695Y-104491023D01*
X103144933Y-104443404D01*
X103192552Y-104395785D01*
X103240171Y-104300547D01*
X103240171Y-103967214D01*
X103240171Y-104967214D02*
X103240171Y-105300547D01*
X103763980Y-105443404D02*
X103763980Y-104967214D01*
X102763980Y-104967214D01*
X102763980Y-105443404D01*
X106460171Y-101252928D02*
X106460171Y-100919595D01*
X106983980Y-100919595D02*
X105983980Y-100919595D01*
X105983980Y-101395785D01*
X106698266Y-101729119D02*
X106698266Y-102205309D01*
X106983980Y-101633880D02*
X105983980Y-101967214D01*
X106983980Y-102300547D01*
X106983980Y-102633880D02*
X105983980Y-102633880D01*
X106983980Y-103205309D01*
X105983980Y-103205309D01*
X106983980Y-104205309D02*
X106983980Y-103633880D01*
X106983980Y-103919595D02*
X105983980Y-103919595D01*
X106126838Y-103824357D01*
X106222076Y-103729119D01*
X106269695Y-103633880D01*
X110156361Y-100871976D02*
X110203980Y-101014833D01*
X110203980Y-101252928D01*
X110156361Y-101348166D01*
X110108742Y-101395785D01*
X110013504Y-101443404D01*
X109918266Y-101443404D01*
X109823028Y-101395785D01*
X109775409Y-101348166D01*
X109727790Y-101252928D01*
X109680171Y-101062452D01*
X109632552Y-100967214D01*
X109584933Y-100919595D01*
X109489695Y-100871976D01*
X109394457Y-100871976D01*
X109299219Y-100919595D01*
X109251600Y-100967214D01*
X109203980Y-101062452D01*
X109203980Y-101300547D01*
X109251600Y-101443404D01*
X109680171Y-101871976D02*
X109680171Y-102205309D01*
X110203980Y-102348166D02*
X110203980Y-101871976D01*
X109203980Y-101871976D01*
X109203980Y-102348166D01*
X110203980Y-103348166D02*
X109727790Y-103014833D01*
X110203980Y-102776738D02*
X109203980Y-102776738D01*
X109203980Y-103157690D01*
X109251600Y-103252928D01*
X109299219Y-103300547D01*
X109394457Y-103348166D01*
X109537314Y-103348166D01*
X109632552Y-103300547D01*
X109680171Y-103252928D01*
X109727790Y-103157690D01*
X109727790Y-102776738D01*
X109203980Y-103633880D02*
X110203980Y-103967214D01*
X109203980Y-104300547D01*
X109203980Y-104824357D02*
X109203980Y-105014833D01*
X109251600Y-105110071D01*
X109346838Y-105205309D01*
X109537314Y-105252928D01*
X109870647Y-105252928D01*
X110061123Y-105205309D01*
X110156361Y-105110071D01*
X110203980Y-105014833D01*
X110203980Y-104824357D01*
X110156361Y-104729119D01*
X110061123Y-104633880D01*
X109870647Y-104586261D01*
X109537314Y-104586261D01*
X109346838Y-104633880D01*
X109251600Y-104729119D01*
X109203980Y-104824357D01*
X112423980Y-101395785D02*
X112423980Y-100919595D01*
X112900171Y-100871976D01*
X112852552Y-100919595D01*
X112804933Y-101014833D01*
X112804933Y-101252928D01*
X112852552Y-101348166D01*
X112900171Y-101395785D01*
X112995409Y-101443404D01*
X113233504Y-101443404D01*
X113328742Y-101395785D01*
X113376361Y-101348166D01*
X113423980Y-101252928D01*
X113423980Y-101014833D01*
X113376361Y-100919595D01*
X113328742Y-100871976D01*
X112423980Y-101729119D02*
X113423980Y-102062452D01*
X112423980Y-102395785D01*
X89285682Y-84809301D02*
X89218339Y-84943988D01*
X89218339Y-85011332D01*
X89252011Y-85112347D01*
X89353026Y-85213362D01*
X89454041Y-85247034D01*
X89521385Y-85247034D01*
X89622400Y-85213362D01*
X89891774Y-84943988D01*
X89184667Y-84236882D01*
X88948965Y-84472584D01*
X88915293Y-84573599D01*
X88915293Y-84640943D01*
X88948965Y-84741958D01*
X89016308Y-84809301D01*
X89117324Y-84842973D01*
X89184667Y-84842973D01*
X89285682Y-84809301D01*
X89521385Y-84573599D01*
X88915293Y-85381721D02*
X88376545Y-85920469D01*
X87164362Y-86930622D02*
X87097018Y-87065309D01*
X87097018Y-87132652D01*
X87130690Y-87233668D01*
X87231705Y-87334683D01*
X87332721Y-87368355D01*
X87400064Y-87368355D01*
X87501079Y-87334683D01*
X87770453Y-87065309D01*
X87063347Y-86358202D01*
X86827644Y-86593904D01*
X86793973Y-86694920D01*
X86793973Y-86762263D01*
X86827644Y-86863278D01*
X86894988Y-86930622D01*
X86996003Y-86964294D01*
X87063347Y-86964294D01*
X87164362Y-86930622D01*
X87400064Y-86694920D01*
X86793973Y-87503042D02*
X86255225Y-88041790D01*
X86793973Y-88041790D02*
X86255225Y-87503042D01*
X85480774Y-88950927D02*
X85144057Y-89287644D01*
X85750148Y-89085614D02*
X84807339Y-88614209D01*
X85278744Y-89557018D01*
X84773668Y-89523347D02*
X84234920Y-90062095D01*
X83460469Y-90971232D02*
X83123752Y-91307950D01*
X83729843Y-91105919D02*
X82787034Y-90634514D01*
X83258439Y-91577324D01*
X82753362Y-91543652D02*
X82214614Y-92082400D01*
X82753362Y-92082400D02*
X82214614Y-91543652D01*
X115250533Y-97390342D02*
X115202914Y-97342723D01*
X115060057Y-97247485D01*
X114964819Y-97199866D01*
X114821961Y-97152247D01*
X114583866Y-97104628D01*
X114393390Y-97104628D01*
X114155295Y-97152247D01*
X114012438Y-97199866D01*
X113917200Y-97247485D01*
X113774342Y-97342723D01*
X113726723Y-97390342D01*
X114869580Y-98199866D02*
X114345771Y-98199866D01*
X114250533Y-98152247D01*
X114202914Y-98057009D01*
X114202914Y-97866533D01*
X114250533Y-97771295D01*
X114821961Y-98199866D02*
X114869580Y-98104628D01*
X114869580Y-97866533D01*
X114821961Y-97771295D01*
X114726723Y-97723676D01*
X114631485Y-97723676D01*
X114536247Y-97771295D01*
X114488628Y-97866533D01*
X114488628Y-98104628D01*
X114441009Y-98199866D01*
X114821961Y-98628438D02*
X114869580Y-98723676D01*
X114869580Y-98914152D01*
X114821961Y-99009390D01*
X114726723Y-99057009D01*
X114679104Y-99057009D01*
X114583866Y-99009390D01*
X114536247Y-98914152D01*
X114536247Y-98771295D01*
X114488628Y-98676057D01*
X114393390Y-98628438D01*
X114345771Y-98628438D01*
X114250533Y-98676057D01*
X114202914Y-98771295D01*
X114202914Y-98914152D01*
X114250533Y-99009390D01*
X114821961Y-100199866D02*
X114869580Y-100295104D01*
X114869580Y-100485580D01*
X114821961Y-100580819D01*
X114726723Y-100628438D01*
X114679104Y-100628438D01*
X114583866Y-100580819D01*
X114536247Y-100485580D01*
X114536247Y-100342723D01*
X114488628Y-100247485D01*
X114393390Y-100199866D01*
X114345771Y-100199866D01*
X114250533Y-100247485D01*
X114202914Y-100342723D01*
X114202914Y-100485580D01*
X114250533Y-100580819D01*
X114821961Y-101437961D02*
X114869580Y-101342723D01*
X114869580Y-101152247D01*
X114821961Y-101057009D01*
X114726723Y-101009390D01*
X114345771Y-101009390D01*
X114250533Y-101057009D01*
X114202914Y-101152247D01*
X114202914Y-101342723D01*
X114250533Y-101437961D01*
X114345771Y-101485580D01*
X114441009Y-101485580D01*
X114536247Y-101009390D01*
X114821961Y-102295104D02*
X114869580Y-102199866D01*
X114869580Y-102009390D01*
X114821961Y-101914152D01*
X114726723Y-101866533D01*
X114345771Y-101866533D01*
X114250533Y-101914152D01*
X114202914Y-102009390D01*
X114202914Y-102199866D01*
X114250533Y-102295104D01*
X114345771Y-102342723D01*
X114441009Y-102342723D01*
X114536247Y-101866533D01*
X114202914Y-102771295D02*
X114869580Y-102771295D01*
X114298152Y-102771295D02*
X114250533Y-102818914D01*
X114202914Y-102914152D01*
X114202914Y-103057009D01*
X114250533Y-103152247D01*
X114345771Y-103199866D01*
X114869580Y-103199866D01*
X115812914Y-96771295D02*
X115812914Y-97152247D01*
X116479580Y-96914152D02*
X115622438Y-96914152D01*
X115527200Y-96961771D01*
X115479580Y-97057009D01*
X115479580Y-97152247D01*
X116479580Y-97485580D02*
X115812914Y-97485580D01*
X116003390Y-97485580D02*
X115908152Y-97533200D01*
X115860533Y-97580819D01*
X115812914Y-97676057D01*
X115812914Y-97771295D01*
X116479580Y-98247485D02*
X116431961Y-98152247D01*
X116384342Y-98104628D01*
X116289104Y-98057009D01*
X116003390Y-98057009D01*
X115908152Y-98104628D01*
X115860533Y-98152247D01*
X115812914Y-98247485D01*
X115812914Y-98390342D01*
X115860533Y-98485580D01*
X115908152Y-98533200D01*
X116003390Y-98580819D01*
X116289104Y-98580819D01*
X116384342Y-98533200D01*
X116431961Y-98485580D01*
X116479580Y-98390342D01*
X116479580Y-98247485D01*
X116479580Y-99009390D02*
X115812914Y-99009390D01*
X115908152Y-99009390D02*
X115860533Y-99057009D01*
X115812914Y-99152247D01*
X115812914Y-99295104D01*
X115860533Y-99390342D01*
X115955771Y-99437961D01*
X116479580Y-99437961D01*
X115955771Y-99437961D02*
X115860533Y-99485580D01*
X115812914Y-99580819D01*
X115812914Y-99723676D01*
X115860533Y-99818914D01*
X115955771Y-99866533D01*
X116479580Y-99866533D01*
X115812914Y-100961771D02*
X115812914Y-101342723D01*
X115479580Y-101104628D02*
X116336723Y-101104628D01*
X116431961Y-101152247D01*
X116479580Y-101247485D01*
X116479580Y-101342723D01*
X116479580Y-101676057D02*
X115479580Y-101676057D01*
X116479580Y-102104628D02*
X115955771Y-102104628D01*
X115860533Y-102057009D01*
X115812914Y-101961771D01*
X115812914Y-101818914D01*
X115860533Y-101723676D01*
X115908152Y-101676057D01*
X116479580Y-102580819D02*
X115812914Y-102580819D01*
X115479580Y-102580819D02*
X115527200Y-102533200D01*
X115574819Y-102580819D01*
X115527200Y-102628438D01*
X115479580Y-102580819D01*
X115574819Y-102580819D01*
X116431961Y-103009390D02*
X116479580Y-103104628D01*
X116479580Y-103295104D01*
X116431961Y-103390342D01*
X116336723Y-103437961D01*
X116289104Y-103437961D01*
X116193866Y-103390342D01*
X116146247Y-103295104D01*
X116146247Y-103152247D01*
X116098628Y-103057009D01*
X116003390Y-103009390D01*
X115955771Y-103009390D01*
X115860533Y-103057009D01*
X115812914Y-103152247D01*
X115812914Y-103295104D01*
X115860533Y-103390342D01*
X118041961Y-98866533D02*
X118089580Y-98961771D01*
X118089580Y-99152247D01*
X118041961Y-99247485D01*
X117946723Y-99295104D01*
X117899104Y-99295104D01*
X117803866Y-99247485D01*
X117756247Y-99152247D01*
X117756247Y-99009390D01*
X117708628Y-98914152D01*
X117613390Y-98866533D01*
X117565771Y-98866533D01*
X117470533Y-98914152D01*
X117422914Y-99009390D01*
X117422914Y-99152247D01*
X117470533Y-99247485D01*
X118089580Y-99723676D02*
X117422914Y-99723676D01*
X117089580Y-99723676D02*
X117137200Y-99676057D01*
X117184819Y-99723676D01*
X117137200Y-99771295D01*
X117089580Y-99723676D01*
X117184819Y-99723676D01*
X118089580Y-100628438D02*
X117089580Y-100628438D01*
X118041961Y-100628438D02*
X118089580Y-100533200D01*
X118089580Y-100342723D01*
X118041961Y-100247485D01*
X117994342Y-100199866D01*
X117899104Y-100152247D01*
X117613390Y-100152247D01*
X117518152Y-100199866D01*
X117470533Y-100247485D01*
X117422914Y-100342723D01*
X117422914Y-100533200D01*
X117470533Y-100628438D01*
X118041961Y-101485580D02*
X118089580Y-101390342D01*
X118089580Y-101199866D01*
X118041961Y-101104628D01*
X117946723Y-101057009D01*
X117565771Y-101057009D01*
X117470533Y-101104628D01*
X117422914Y-101199866D01*
X117422914Y-101390342D01*
X117470533Y-101485580D01*
X117565771Y-101533200D01*
X117661009Y-101533200D01*
X117756247Y-101057009D01*
X118470533Y-101866533D02*
X118422914Y-101914152D01*
X118280057Y-102009390D01*
X118184819Y-102057009D01*
X118041961Y-102104628D01*
X117803866Y-102152247D01*
X117613390Y-102152247D01*
X117375295Y-102104628D01*
X117232438Y-102057009D01*
X117137200Y-102009390D01*
X116994342Y-101914152D01*
X116946723Y-101866533D01*
X89222971Y-94111428D02*
X87722971Y-94111428D01*
X87722971Y-94682857D01*
X87794400Y-94825714D01*
X87865828Y-94897142D01*
X88008685Y-94968571D01*
X88222971Y-94968571D01*
X88365828Y-94897142D01*
X88437257Y-94825714D01*
X88508685Y-94682857D01*
X88508685Y-94111428D01*
X89222971Y-95611428D02*
X87722971Y-95611428D01*
X89222971Y-96325714D02*
X87722971Y-96325714D01*
X89222971Y-97182857D01*
X87722971Y-97182857D01*
X87722971Y-98182857D02*
X87722971Y-98468571D01*
X87794400Y-98611428D01*
X87937257Y-98754285D01*
X88222971Y-98825714D01*
X88722971Y-98825714D01*
X89008685Y-98754285D01*
X89151542Y-98611428D01*
X89222971Y-98468571D01*
X89222971Y-98182857D01*
X89151542Y-98040000D01*
X89008685Y-97897142D01*
X88722971Y-97825714D01*
X88222971Y-97825714D01*
X87937257Y-97897142D01*
X87794400Y-98040000D01*
X87722971Y-98182857D01*
X87722971Y-99468571D02*
X88937257Y-99468571D01*
X89080114Y-99540000D01*
X89151542Y-99611428D01*
X89222971Y-99754285D01*
X89222971Y-100040000D01*
X89151542Y-100182857D01*
X89080114Y-100254285D01*
X88937257Y-100325714D01*
X87722971Y-100325714D01*
X87722971Y-100825714D02*
X87722971Y-101682857D01*
X89222971Y-101254285D02*
X87722971Y-101254285D01*
X88971309Y-86232473D02*
X88706677Y-86506508D01*
X88632292Y-86103683D02*
X89248869Y-86699105D01*
X89284299Y-86799517D01*
X89252395Y-86901105D01*
X89186237Y-86969613D01*
X88954684Y-87209393D02*
X88235345Y-86514735D01*
X88656974Y-87517682D02*
X88280177Y-87153813D01*
X88244747Y-87053401D01*
X88276651Y-86951813D01*
X88375888Y-86849050D01*
X88476300Y-86813621D01*
X88543633Y-86812446D01*
X88326184Y-87860224D02*
X87846624Y-87397119D01*
X87606844Y-87165566D02*
X87674177Y-87164391D01*
X87675353Y-87231724D01*
X87608019Y-87232899D01*
X87606844Y-87165566D01*
X87675353Y-87231724D01*
X87994219Y-88135434D02*
X87962315Y-88237021D01*
X87829999Y-88374039D01*
X87729587Y-88409468D01*
X87628000Y-88377564D01*
X87593745Y-88344485D01*
X87558316Y-88244073D01*
X87590219Y-88142486D01*
X87689456Y-88039723D01*
X87721360Y-87938135D01*
X87685930Y-87837723D01*
X87651676Y-87804644D01*
X87550089Y-87772741D01*
X87449676Y-87808170D01*
X87350439Y-87910933D01*
X87318536Y-88012520D01*
X86902613Y-89265825D02*
X86870709Y-89367413D01*
X86738393Y-89504430D01*
X86637981Y-89539859D01*
X86536394Y-89507956D01*
X86502139Y-89474877D01*
X86466710Y-89374464D01*
X86498613Y-89272877D01*
X86597850Y-89170114D01*
X86629754Y-89068527D01*
X86594324Y-88968114D01*
X86560070Y-88935035D01*
X86458483Y-88903132D01*
X86358070Y-88938561D01*
X86258833Y-89041324D01*
X86226930Y-89142912D01*
X86341446Y-89915481D02*
X85861886Y-89452375D01*
X85622106Y-89220823D02*
X85689439Y-89219647D01*
X85690614Y-89286981D01*
X85623281Y-89288156D01*
X85622106Y-89220823D01*
X85690614Y-89286981D01*
X85712945Y-90566312D02*
X84993605Y-89871654D01*
X85678691Y-90533233D02*
X85779103Y-90497804D01*
X85911419Y-90360787D01*
X85943323Y-90259199D01*
X85942147Y-90191866D01*
X85906718Y-90091454D01*
X85701192Y-89892980D01*
X85599605Y-89861076D01*
X85532271Y-89862251D01*
X85431859Y-89897681D01*
X85299543Y-90034698D01*
X85267640Y-90136286D01*
X85083270Y-91149810D02*
X85183682Y-91114381D01*
X85315998Y-90977364D01*
X85347901Y-90875776D01*
X85312472Y-90775364D01*
X85038437Y-90510732D01*
X84936850Y-90478828D01*
X84836438Y-90514258D01*
X84704122Y-90651275D01*
X84672218Y-90752863D01*
X84707648Y-90853275D01*
X84776156Y-90919433D01*
X85175455Y-90643048D01*
X91766855Y-85655287D02*
X91502223Y-85929321D01*
X91427838Y-85526497D02*
X92044415Y-86121918D01*
X92079845Y-86222330D01*
X92047941Y-86323918D01*
X91981783Y-86392427D01*
X91650993Y-86734969D02*
X91682897Y-86633382D01*
X91681722Y-86566049D01*
X91646292Y-86465636D01*
X91440767Y-86267162D01*
X91339179Y-86235259D01*
X91271846Y-86236434D01*
X91171434Y-86271864D01*
X91072197Y-86374627D01*
X91040293Y-86476214D01*
X91041468Y-86543547D01*
X91076898Y-86643960D01*
X91282424Y-86842433D01*
X91384011Y-86874337D01*
X91451344Y-86873162D01*
X91551757Y-86837732D01*
X91650993Y-86734969D01*
X90708328Y-86751424D02*
X91055572Y-87351546D01*
X90580713Y-87157774D01*
X90790940Y-87625580D01*
X90179064Y-87299492D01*
X90096282Y-88344920D02*
X89719485Y-87981052D01*
X89684055Y-87880639D01*
X89715959Y-87779052D01*
X89848275Y-87642035D01*
X89948687Y-87606605D01*
X90062028Y-88311841D02*
X90162440Y-88276412D01*
X90327835Y-88105140D01*
X90359738Y-88003553D01*
X90324309Y-87903141D01*
X90255800Y-87836983D01*
X90154213Y-87805079D01*
X90053800Y-87840509D01*
X89888406Y-88011780D01*
X89787993Y-88047210D01*
X89765492Y-88687463D02*
X89285932Y-88224357D01*
X89422949Y-88356673D02*
X89321362Y-88324770D01*
X89254029Y-88325945D01*
X89153616Y-88361375D01*
X89087458Y-88429883D01*
X89037755Y-89441057D02*
X88318415Y-88746399D01*
X89003501Y-89407978D02*
X89103913Y-89372549D01*
X89236229Y-89235531D01*
X89268132Y-89133944D01*
X89266957Y-89066611D01*
X89231527Y-88966198D01*
X89026002Y-88767725D01*
X88924414Y-88735821D01*
X88857081Y-88736996D01*
X88756669Y-88772426D01*
X88624353Y-88909443D01*
X88592449Y-89011031D01*
X88705790Y-89716267D02*
X88673886Y-89817854D01*
X88541570Y-89954871D01*
X88441158Y-89990301D01*
X88339571Y-89958397D01*
X88305316Y-89925318D01*
X88269887Y-89824906D01*
X88301790Y-89723318D01*
X88401027Y-89620556D01*
X88432931Y-89518968D01*
X88397501Y-89418556D01*
X88363247Y-89385477D01*
X88261660Y-89353573D01*
X88161247Y-89389003D01*
X88062010Y-89491766D01*
X88030107Y-89593353D01*
X87614184Y-90846658D02*
X87582280Y-90948245D01*
X87449964Y-91085262D01*
X87349552Y-91120692D01*
X87247964Y-91088788D01*
X87213710Y-91055709D01*
X87178281Y-90955297D01*
X87210184Y-90853710D01*
X87309421Y-90750947D01*
X87341325Y-90649359D01*
X87305895Y-90548947D01*
X87271641Y-90515868D01*
X87170053Y-90483964D01*
X87069641Y-90519394D01*
X86970404Y-90622157D01*
X86938501Y-90723744D01*
X86672694Y-90930445D02*
X86408062Y-91204479D01*
X86333677Y-90801655D02*
X86950254Y-91397077D01*
X86985683Y-91497489D01*
X86953780Y-91599077D01*
X86887622Y-91667585D01*
X86357183Y-92148320D02*
X86457595Y-92112891D01*
X86589911Y-91975874D01*
X86621815Y-91874286D01*
X86586385Y-91773874D01*
X86312351Y-91509242D01*
X86210763Y-91477338D01*
X86110351Y-91512768D01*
X85978035Y-91649785D01*
X85946132Y-91751373D01*
X85981561Y-91851785D01*
X86050070Y-91917943D01*
X86449368Y-91641558D01*
X85581088Y-92060836D02*
X86300427Y-92755495D01*
X85615342Y-92093915D02*
X85514930Y-92129345D01*
X85382614Y-92266362D01*
X85350710Y-92367950D01*
X85351885Y-92435283D01*
X85387315Y-92535695D01*
X85592841Y-92734169D01*
X85694428Y-92766073D01*
X85761761Y-92764897D01*
X85862174Y-92729468D01*
X85994490Y-92592451D01*
X86026393Y-92490863D01*
X84952587Y-92711668D02*
X85671927Y-93406326D01*
X84986841Y-92744747D02*
X84886429Y-92780176D01*
X84754113Y-92917193D01*
X84722210Y-93018781D01*
X84723385Y-93086114D01*
X84758815Y-93186526D01*
X84964340Y-93385000D01*
X85065928Y-93416904D01*
X85133261Y-93415728D01*
X85233673Y-93380299D01*
X85365989Y-93243282D01*
X85397893Y-93141694D01*
X84504761Y-94066560D02*
X84605173Y-94031130D01*
X84737489Y-93894113D01*
X84769392Y-93792526D01*
X84733963Y-93692113D01*
X84459929Y-93427482D01*
X84358341Y-93395578D01*
X84257929Y-93431007D01*
X84125613Y-93568025D01*
X84093709Y-93669612D01*
X84129139Y-93770024D01*
X84197647Y-93836182D01*
X84596946Y-93559797D01*
X84208225Y-94442181D02*
X83728665Y-93979076D01*
X83865682Y-94111392D02*
X83764095Y-94079488D01*
X83696762Y-94080663D01*
X83596349Y-94116093D01*
X83530191Y-94184602D01*
D12*
X105371352Y-92593715D02*
X106038019Y-92593715D01*
X106038019Y-93641334D02*
X106038019Y-91641334D01*
X105085638Y-91641334D01*
X103942781Y-91641334D02*
X103561828Y-91641334D01*
X103371352Y-91736573D01*
X103180876Y-91927049D01*
X103085638Y-92308001D01*
X103085638Y-92974668D01*
X103180876Y-93355620D01*
X103371352Y-93546096D01*
X103561828Y-93641334D01*
X103942781Y-93641334D01*
X104133257Y-93546096D01*
X104323733Y-93355620D01*
X104418971Y-92974668D01*
X104418971Y-92308001D01*
X104323733Y-91927049D01*
X104133257Y-91736573D01*
X103942781Y-91641334D01*
X101085638Y-93641334D02*
X101752305Y-92688953D01*
X102228495Y-93641334D02*
X102228495Y-91641334D01*
X101466590Y-91641334D01*
X101276114Y-91736573D01*
X101180876Y-91831811D01*
X101085638Y-92022287D01*
X101085638Y-92308001D01*
X101180876Y-92498477D01*
X101276114Y-92593715D01*
X101466590Y-92688953D01*
X102228495Y-92688953D01*
X100228495Y-93641334D02*
X100228495Y-91641334D01*
X99085638Y-93641334D02*
X99942781Y-92498477D01*
X99085638Y-91641334D02*
X100228495Y-92784192D01*
X114015942Y-90312761D02*
X114015942Y-88312761D01*
X113254038Y-88312761D01*
X113063561Y-88408000D01*
X112968323Y-88503238D01*
X112873085Y-88693714D01*
X112873085Y-88979428D01*
X112968323Y-89169904D01*
X113063561Y-89265142D01*
X113254038Y-89360380D01*
X114015942Y-89360380D01*
X112111180Y-89741333D02*
X111158800Y-89741333D01*
X112301657Y-90312761D02*
X111634990Y-88312761D01*
X110968323Y-90312761D01*
X110301657Y-90312761D02*
X110301657Y-88312761D01*
X109158800Y-90312761D01*
X109158800Y-88312761D01*
X107063561Y-90122285D02*
X107158800Y-90217523D01*
X107444514Y-90312761D01*
X107634990Y-90312761D01*
X107920704Y-90217523D01*
X108111180Y-90027047D01*
X108206419Y-89836571D01*
X108301657Y-89455619D01*
X108301657Y-89169904D01*
X108206419Y-88788952D01*
X108111180Y-88598476D01*
X107920704Y-88408000D01*
X107634990Y-88312761D01*
X107444514Y-88312761D01*
X107158800Y-88408000D01*
X107063561Y-88503238D01*
X106301657Y-89741333D02*
X105349276Y-89741333D01*
X106492133Y-90312761D02*
X105825466Y-88312761D01*
X105158800Y-90312761D01*
X104492133Y-90312761D02*
X104492133Y-88312761D01*
X103349276Y-90312761D02*
X104206419Y-89169904D01*
X103349276Y-88312761D02*
X104492133Y-89455619D01*
X102492133Y-89265142D02*
X101825466Y-89265142D01*
X101539752Y-90312761D02*
X102492133Y-90312761D01*
X102492133Y-88312761D01*
X101539752Y-88312761D01*
X98492133Y-89265142D02*
X98206419Y-89360380D01*
X98111180Y-89455619D01*
X98015942Y-89646095D01*
X98015942Y-89931809D01*
X98111180Y-90122285D01*
X98206419Y-90217523D01*
X98396895Y-90312761D01*
X99158800Y-90312761D01*
X99158800Y-88312761D01*
X98492133Y-88312761D01*
X98301657Y-88408000D01*
X98206419Y-88503238D01*
X98111180Y-88693714D01*
X98111180Y-88884190D01*
X98206419Y-89074666D01*
X98301657Y-89169904D01*
X98492133Y-89265142D01*
X99158800Y-89265142D01*
X96777847Y-88312761D02*
X96396895Y-88312761D01*
X96206419Y-88408000D01*
X96015942Y-88598476D01*
X95920704Y-88979428D01*
X95920704Y-89646095D01*
X96015942Y-90027047D01*
X96206419Y-90217523D01*
X96396895Y-90312761D01*
X96777847Y-90312761D01*
X96968323Y-90217523D01*
X97158800Y-90027047D01*
X97254038Y-89646095D01*
X97254038Y-88979428D01*
X97158800Y-88598476D01*
X96968323Y-88408000D01*
X96777847Y-88312761D01*
X95158800Y-89741333D02*
X94206419Y-89741333D01*
X95349276Y-90312761D02*
X94682609Y-88312761D01*
X94015942Y-90312761D01*
X92206419Y-90312761D02*
X92873085Y-89360380D01*
X93349276Y-90312761D02*
X93349276Y-88312761D01*
X92587371Y-88312761D01*
X92396895Y-88408000D01*
X92301657Y-88503238D01*
X92206419Y-88693714D01*
X92206419Y-88979428D01*
X92301657Y-89169904D01*
X92396895Y-89265142D01*
X92587371Y-89360380D01*
X93349276Y-89360380D01*
X91349276Y-90312761D02*
X91349276Y-88312761D01*
X90873085Y-88312761D01*
X90587371Y-88408000D01*
X90396895Y-88598476D01*
X90301657Y-88788952D01*
X90206419Y-89169904D01*
X90206419Y-89455619D01*
X90301657Y-89836571D01*
X90396895Y-90027047D01*
X90587371Y-90217523D01*
X90873085Y-90312761D01*
X91349276Y-90312761D01*
D11*
%TO.C,J4*%
X122157037Y-106196216D02*
X122281072Y-105492782D01*
X122258983Y-105343826D01*
X122181730Y-105233497D01*
X122049312Y-105161795D01*
X121955521Y-105145257D01*
X123105936Y-106025057D02*
X123221702Y-105368519D01*
X122805307Y-106358877D02*
X122694863Y-105614098D01*
X123304506Y-105721595D01*
D13*
%TO.C,REF\u002A\u002A*%
X97374000Y-83849200D02*
X97624000Y-83849200D01*
X97624000Y-83849200D02*
X98124000Y-83949200D01*
X98124000Y-83949200D02*
X98574000Y-84049200D01*
X98574000Y-84049200D02*
X98974000Y-84249200D01*
X98974000Y-84249200D02*
X99274000Y-84449200D01*
X99274000Y-84449200D02*
X99374000Y-84699200D01*
X99374000Y-84699200D02*
X99224000Y-84949200D01*
X99224000Y-84949200D02*
X98824000Y-85199200D01*
X98824000Y-85199200D02*
X98324000Y-85349200D01*
X98324000Y-85349200D02*
X97674000Y-85499200D01*
X97674000Y-85499200D02*
X96824000Y-85549200D01*
X96824000Y-85549200D02*
X96074000Y-85549200D01*
X96074000Y-85549200D02*
X95524000Y-85449200D01*
X95524000Y-85449200D02*
X95124000Y-85399200D01*
X95124000Y-85399200D02*
X95024000Y-85449200D01*
X95024000Y-85449200D02*
X94974000Y-85599200D01*
X94974000Y-85599200D02*
X94974000Y-86599200D01*
X94974000Y-86599200D02*
X95274000Y-86699200D01*
X95274000Y-86699200D02*
X95274000Y-85749200D01*
X95274000Y-85749200D02*
X95974000Y-85849200D01*
X95974000Y-85849200D02*
X97274000Y-85849200D01*
X97274000Y-85849200D02*
X98474000Y-85649200D01*
X98474000Y-85649200D02*
X99174000Y-85349200D01*
X99174000Y-85349200D02*
X99474000Y-85099200D01*
X99474000Y-85099200D02*
X99624000Y-84899200D01*
X99624000Y-84899200D02*
X99674000Y-84699200D01*
X99674000Y-84699200D02*
X99674000Y-84499200D01*
X99674000Y-84499200D02*
X99574000Y-84349200D01*
X99574000Y-84349200D02*
X99874000Y-84549200D01*
X99874000Y-84549200D02*
X100024000Y-84699200D01*
X100024000Y-84699200D02*
X100124000Y-84899200D01*
X100124000Y-84899200D02*
X100124000Y-84999200D01*
X100124000Y-84999200D02*
X100024000Y-85199200D01*
X100024000Y-85199200D02*
X99774000Y-85399200D01*
X99774000Y-85399200D02*
X99424000Y-85599200D01*
X99424000Y-85599200D02*
X98924000Y-85799200D01*
X98924000Y-85799200D02*
X98274000Y-85949200D01*
X98274000Y-85949200D02*
X97524000Y-86049200D01*
X97524000Y-86049200D02*
X96674000Y-86099200D01*
X96674000Y-86099200D02*
X96174000Y-86099200D01*
X96174000Y-86099200D02*
X95774000Y-86049200D01*
X95774000Y-86049200D02*
X95674000Y-86149200D01*
X95674000Y-86149200D02*
X95674000Y-86299200D01*
X95674000Y-86299200D02*
X95774000Y-86399200D01*
X95774000Y-86399200D02*
X97374000Y-86399200D01*
X97374000Y-86399200D02*
X98124000Y-86299200D01*
X98124000Y-86299200D02*
X98824000Y-86149200D01*
X98824000Y-86149200D02*
X99424000Y-85949200D01*
X99424000Y-85949200D02*
X99774000Y-85799200D01*
X99774000Y-85799200D02*
X100024000Y-85599200D01*
X100024000Y-85599200D02*
X100124000Y-85599200D01*
X100124000Y-85599200D02*
X100324000Y-85949200D01*
X100324000Y-85949200D02*
X100424000Y-85699200D01*
X100424000Y-85699200D02*
X100424000Y-85499200D01*
X100424000Y-85499200D02*
X100324000Y-85299200D01*
X100324000Y-85299200D02*
X100424000Y-85049200D01*
X100424000Y-85049200D02*
X100424000Y-84849200D01*
X100424000Y-84849200D02*
X100324000Y-84599200D01*
X100324000Y-84599200D02*
X100024000Y-84249200D01*
X100024000Y-84249200D02*
X99574000Y-83999200D01*
X99574000Y-83999200D02*
X99074000Y-83799200D01*
X99074000Y-83799200D02*
X98374000Y-83599200D01*
X98374000Y-83599200D02*
X97824000Y-83549200D01*
X97824000Y-83549200D02*
X97374000Y-83499200D01*
X97374000Y-83499200D02*
X97374000Y-83849200D01*
G36*
X97824000Y-83549200D02*
G01*
X98374000Y-83599200D01*
X99074000Y-83799200D01*
X99574000Y-83999200D01*
X100024000Y-84249200D01*
X100324000Y-84599200D01*
X100424000Y-84849200D01*
X100424000Y-85049200D01*
X100324000Y-85299200D01*
X100424000Y-85499200D01*
X100424000Y-85699200D01*
X100324000Y-85949200D01*
X100124000Y-85599200D01*
X100024000Y-85599200D01*
X99774000Y-85799200D01*
X99424000Y-85949200D01*
X98824000Y-86149200D01*
X98124000Y-86299200D01*
X97374000Y-86399200D01*
X95774000Y-86399200D01*
X95674000Y-86299200D01*
X95674000Y-86149200D01*
X95774000Y-86049200D01*
X96174000Y-86099200D01*
X96674000Y-86099200D01*
X97524000Y-86049200D01*
X98274000Y-85949200D01*
X98924000Y-85799200D01*
X99424000Y-85599200D01*
X99774000Y-85399200D01*
X100024000Y-85199200D01*
X100124000Y-84999200D01*
X100124000Y-84899200D01*
X100024000Y-84699200D01*
X99874000Y-84549200D01*
X99574000Y-84349200D01*
X99674000Y-84499200D01*
X99674000Y-84699200D01*
X99624000Y-84899200D01*
X99474000Y-85099200D01*
X99174000Y-85349200D01*
X98474000Y-85649200D01*
X97274000Y-85849200D01*
X95974000Y-85849200D01*
X95274000Y-85749200D01*
X95274000Y-86699200D01*
X94974000Y-86599200D01*
X94974000Y-85599200D01*
X95024000Y-85449200D01*
X95124000Y-85399200D01*
X95524000Y-85449200D01*
X96074000Y-85549200D01*
X96824000Y-85549200D01*
X97674000Y-85499200D01*
X98324000Y-85349200D01*
X98824000Y-85199200D01*
X99224000Y-84949200D01*
X99374000Y-84699200D01*
X99274000Y-84449200D01*
X98974000Y-84249200D01*
X98574000Y-84049200D01*
X98124000Y-83949200D01*
X97624000Y-83849200D01*
X97374000Y-83849200D01*
X97374000Y-83499200D01*
X97824000Y-83549200D01*
G37*
X97824000Y-83549200D02*
X98374000Y-83599200D01*
X99074000Y-83799200D01*
X99574000Y-83999200D01*
X100024000Y-84249200D01*
X100324000Y-84599200D01*
X100424000Y-84849200D01*
X100424000Y-85049200D01*
X100324000Y-85299200D01*
X100424000Y-85499200D01*
X100424000Y-85699200D01*
X100324000Y-85949200D01*
X100124000Y-85599200D01*
X100024000Y-85599200D01*
X99774000Y-85799200D01*
X99424000Y-85949200D01*
X98824000Y-86149200D01*
X98124000Y-86299200D01*
X97374000Y-86399200D01*
X95774000Y-86399200D01*
X95674000Y-86299200D01*
X95674000Y-86149200D01*
X95774000Y-86049200D01*
X96174000Y-86099200D01*
X96674000Y-86099200D01*
X97524000Y-86049200D01*
X98274000Y-85949200D01*
X98924000Y-85799200D01*
X99424000Y-85599200D01*
X99774000Y-85399200D01*
X100024000Y-85199200D01*
X100124000Y-84999200D01*
X100124000Y-84899200D01*
X100024000Y-84699200D01*
X99874000Y-84549200D01*
X99574000Y-84349200D01*
X99674000Y-84499200D01*
X99674000Y-84699200D01*
X99624000Y-84899200D01*
X99474000Y-85099200D01*
X99174000Y-85349200D01*
X98474000Y-85649200D01*
X97274000Y-85849200D01*
X95974000Y-85849200D01*
X95274000Y-85749200D01*
X95274000Y-86699200D01*
X94974000Y-86599200D01*
X94974000Y-85599200D01*
X95024000Y-85449200D01*
X95124000Y-85399200D01*
X95524000Y-85449200D01*
X96074000Y-85549200D01*
X96824000Y-85549200D01*
X97674000Y-85499200D01*
X98324000Y-85349200D01*
X98824000Y-85199200D01*
X99224000Y-84949200D01*
X99374000Y-84699200D01*
X99274000Y-84449200D01*
X98974000Y-84249200D01*
X98574000Y-84049200D01*
X98124000Y-83949200D01*
X97624000Y-83849200D01*
X97374000Y-83849200D01*
X97374000Y-83499200D01*
X97824000Y-83549200D01*
X97424000Y-84349200D02*
X97524000Y-83949200D01*
X97524000Y-83949200D02*
X97424000Y-83649200D01*
X97424000Y-83649200D02*
X97324000Y-83449200D01*
X97324000Y-83449200D02*
X97124000Y-83249200D01*
X97124000Y-83249200D02*
X96924000Y-83149200D01*
X96924000Y-83149200D02*
X96924000Y-83049200D01*
X96924000Y-83049200D02*
X97124000Y-82849200D01*
X97124000Y-82849200D02*
X97424000Y-82749200D01*
X97424000Y-82749200D02*
X97524000Y-82749200D01*
X97524000Y-82749200D02*
X97624000Y-82649200D01*
X97624000Y-82649200D02*
X97624000Y-82549200D01*
X97624000Y-82549200D02*
X97524000Y-82449200D01*
X97524000Y-82449200D02*
X97224000Y-82449200D01*
X97224000Y-82449200D02*
X96824000Y-82649200D01*
X96824000Y-82649200D02*
X96624000Y-82849200D01*
X96624000Y-82849200D02*
X96524000Y-83149200D01*
X96524000Y-83149200D02*
X96224000Y-83249200D01*
X96224000Y-83249200D02*
X95924000Y-83549200D01*
X95924000Y-83549200D02*
X95824000Y-83949200D01*
X95824000Y-83949200D02*
X95924000Y-84349200D01*
X95924000Y-84349200D02*
X96224000Y-84649200D01*
X96224000Y-84649200D02*
X96624000Y-84749200D01*
X96624000Y-84749200D02*
X97124000Y-84649200D01*
X97124000Y-84649200D02*
X97424000Y-84349200D01*
G36*
X97624000Y-82549200D02*
G01*
X97624000Y-82649200D01*
X97524000Y-82749200D01*
X97424000Y-82749200D01*
X97124000Y-82849200D01*
X96924000Y-83049200D01*
X96924000Y-83149200D01*
X97124000Y-83249200D01*
X97324000Y-83449200D01*
X97424000Y-83649200D01*
X97524000Y-83949200D01*
X97424000Y-84349200D01*
X97124000Y-84649200D01*
X96624000Y-84749200D01*
X96224000Y-84649200D01*
X95924000Y-84349200D01*
X95824000Y-83949200D01*
X95924000Y-83549200D01*
X96224000Y-83249200D01*
X96524000Y-83149200D01*
X96624000Y-82849200D01*
X96824000Y-82649200D01*
X97224000Y-82449200D01*
X97524000Y-82449200D01*
X97624000Y-82549200D01*
G37*
X97624000Y-82549200D02*
X97624000Y-82649200D01*
X97524000Y-82749200D01*
X97424000Y-82749200D01*
X97124000Y-82849200D01*
X96924000Y-83049200D01*
X96924000Y-83149200D01*
X97124000Y-83249200D01*
X97324000Y-83449200D01*
X97424000Y-83649200D01*
X97524000Y-83949200D01*
X97424000Y-84349200D01*
X97124000Y-84649200D01*
X96624000Y-84749200D01*
X96224000Y-84649200D01*
X95924000Y-84349200D01*
X95824000Y-83949200D01*
X95924000Y-83549200D01*
X96224000Y-83249200D01*
X96524000Y-83149200D01*
X96624000Y-82849200D01*
X96824000Y-82649200D01*
X97224000Y-82449200D01*
X97524000Y-82449200D01*
X97624000Y-82549200D01*
X100074000Y-85799200D02*
X99924000Y-85999200D01*
X99924000Y-85999200D02*
X99374000Y-86349200D01*
X99374000Y-86349200D02*
X98674000Y-86549200D01*
X98674000Y-86549200D02*
X97974000Y-86699200D01*
X97974000Y-86699200D02*
X97074000Y-86799200D01*
X97074000Y-86799200D02*
X96224000Y-86799200D01*
X96224000Y-86799200D02*
X95274000Y-86699200D01*
X95274000Y-86699200D02*
X94974000Y-86599200D01*
X94974000Y-86599200D02*
X94924000Y-86749200D01*
X94924000Y-86749200D02*
X94774000Y-86849200D01*
X94774000Y-86849200D02*
X94624000Y-86849200D01*
X94624000Y-86849200D02*
X94424000Y-86649200D01*
X94424000Y-86649200D02*
X94124000Y-86749200D01*
X94124000Y-86749200D02*
X94224000Y-86949200D01*
X94224000Y-86949200D02*
X94524000Y-87149200D01*
X94524000Y-87149200D02*
X94824000Y-87149200D01*
X94824000Y-87149200D02*
X95024000Y-87049200D01*
X95024000Y-87049200D02*
X95124000Y-86949200D01*
X95124000Y-86949200D02*
X95524000Y-87049200D01*
X95524000Y-87049200D02*
X96224000Y-87099200D01*
X96224000Y-87099200D02*
X97274000Y-87099200D01*
X97274000Y-87099200D02*
X98274000Y-86949200D01*
X98274000Y-86949200D02*
X99024000Y-86799200D01*
X99024000Y-86799200D02*
X99674000Y-86549200D01*
X99674000Y-86549200D02*
X100124000Y-86249200D01*
X100124000Y-86249200D02*
X100074000Y-86449200D01*
X100074000Y-86449200D02*
X99874000Y-86699200D01*
X99874000Y-86699200D02*
X99424000Y-86999200D01*
X99424000Y-86999200D02*
X98424000Y-87299200D01*
X98424000Y-87299200D02*
X97524000Y-87399200D01*
X97524000Y-87399200D02*
X96624000Y-87449200D01*
X96624000Y-87449200D02*
X96624000Y-87749200D01*
X96624000Y-87749200D02*
X97024000Y-87749200D01*
X97024000Y-87749200D02*
X97724000Y-87699200D01*
X97724000Y-87699200D02*
X98474000Y-87599200D01*
X98474000Y-87599200D02*
X99374000Y-87349200D01*
X99374000Y-87349200D02*
X99874000Y-87099200D01*
X99874000Y-87099200D02*
X100174000Y-86849200D01*
X100174000Y-86849200D02*
X100424000Y-86549200D01*
X100424000Y-86549200D02*
X100424000Y-86199200D01*
X100424000Y-86199200D02*
X100324000Y-85949200D01*
X100324000Y-85949200D02*
X100124000Y-85599200D01*
X100124000Y-85599200D02*
X100074000Y-85799200D01*
G36*
X100324000Y-85949200D02*
G01*
X100424000Y-86199200D01*
X100424000Y-86549200D01*
X100174000Y-86849200D01*
X99874000Y-87099200D01*
X99374000Y-87349200D01*
X98474000Y-87599200D01*
X97724000Y-87699200D01*
X97024000Y-87749200D01*
X96624000Y-87749200D01*
X96624000Y-87449200D01*
X97524000Y-87399200D01*
X98424000Y-87299200D01*
X99424000Y-86999200D01*
X99874000Y-86699200D01*
X100074000Y-86449200D01*
X100124000Y-86249200D01*
X99674000Y-86549200D01*
X99024000Y-86799200D01*
X98274000Y-86949200D01*
X97274000Y-87099200D01*
X96224000Y-87099200D01*
X95524000Y-87049200D01*
X95124000Y-86949200D01*
X95024000Y-87049200D01*
X94824000Y-87149200D01*
X94524000Y-87149200D01*
X94224000Y-86949200D01*
X94124000Y-86749200D01*
X94424000Y-86649200D01*
X94624000Y-86849200D01*
X94774000Y-86849200D01*
X94924000Y-86749200D01*
X94974000Y-86599200D01*
X95274000Y-86699200D01*
X96224000Y-86799200D01*
X97074000Y-86799200D01*
X97974000Y-86699200D01*
X98674000Y-86549200D01*
X99374000Y-86349200D01*
X99924000Y-85999200D01*
X100074000Y-85799200D01*
X100124000Y-85599200D01*
X100324000Y-85949200D01*
G37*
X100324000Y-85949200D02*
X100424000Y-86199200D01*
X100424000Y-86549200D01*
X100174000Y-86849200D01*
X99874000Y-87099200D01*
X99374000Y-87349200D01*
X98474000Y-87599200D01*
X97724000Y-87699200D01*
X97024000Y-87749200D01*
X96624000Y-87749200D01*
X96624000Y-87449200D01*
X97524000Y-87399200D01*
X98424000Y-87299200D01*
X99424000Y-86999200D01*
X99874000Y-86699200D01*
X100074000Y-86449200D01*
X100124000Y-86249200D01*
X99674000Y-86549200D01*
X99024000Y-86799200D01*
X98274000Y-86949200D01*
X97274000Y-87099200D01*
X96224000Y-87099200D01*
X95524000Y-87049200D01*
X95124000Y-86949200D01*
X95024000Y-87049200D01*
X94824000Y-87149200D01*
X94524000Y-87149200D01*
X94224000Y-86949200D01*
X94124000Y-86749200D01*
X94424000Y-86649200D01*
X94624000Y-86849200D01*
X94774000Y-86849200D01*
X94924000Y-86749200D01*
X94974000Y-86599200D01*
X95274000Y-86699200D01*
X96224000Y-86799200D01*
X97074000Y-86799200D01*
X97974000Y-86699200D01*
X98674000Y-86549200D01*
X99374000Y-86349200D01*
X99924000Y-85999200D01*
X100074000Y-85799200D01*
X100124000Y-85599200D01*
X100324000Y-85949200D01*
X94024000Y-85649200D02*
X93624000Y-85449200D01*
X93624000Y-85449200D02*
X93224000Y-85049200D01*
X93224000Y-85049200D02*
X93224000Y-84849200D01*
X93224000Y-84849200D02*
X93424000Y-84549200D01*
X93424000Y-84549200D02*
X93724000Y-84349200D01*
X93724000Y-84349200D02*
X93624000Y-84549200D01*
X93624000Y-84549200D02*
X93624000Y-84849200D01*
X93624000Y-84849200D02*
X93824000Y-85149200D01*
X93824000Y-85149200D02*
X94124000Y-85349200D01*
X94124000Y-85349200D02*
X94124000Y-85649200D01*
X94124000Y-85649200D02*
X94424000Y-85749200D01*
X94424000Y-85749200D02*
X94424000Y-85149200D01*
X94424000Y-85149200D02*
X94124000Y-84949200D01*
X94124000Y-84949200D02*
X94024000Y-84749200D01*
X94024000Y-84749200D02*
X94024000Y-84549200D01*
X94024000Y-84549200D02*
X94224000Y-84349200D01*
X94224000Y-84349200D02*
X94524000Y-84149200D01*
X94524000Y-84149200D02*
X94924000Y-84049200D01*
X94924000Y-84049200D02*
X95924000Y-83849200D01*
X95924000Y-83849200D02*
X95924000Y-83549200D01*
X95924000Y-83549200D02*
X95624000Y-83549200D01*
X95624000Y-83549200D02*
X94924000Y-83649200D01*
X94924000Y-83649200D02*
X94124000Y-83849200D01*
X94124000Y-83849200D02*
X93424000Y-84149200D01*
X93424000Y-84149200D02*
X93024000Y-84549200D01*
X93024000Y-84549200D02*
X92924000Y-84849200D01*
X92924000Y-84849200D02*
X92924000Y-85049200D01*
X92924000Y-85049200D02*
X93024000Y-85349200D01*
X93024000Y-85349200D02*
X92924000Y-85549200D01*
X92924000Y-85549200D02*
X92924000Y-85749200D01*
X92924000Y-85749200D02*
X93024000Y-85949200D01*
X93024000Y-85949200D02*
X92924000Y-86149200D01*
X92924000Y-86149200D02*
X92924000Y-86449200D01*
X92924000Y-86449200D02*
X93024000Y-86649200D01*
X93024000Y-86649200D02*
X93324000Y-87049200D01*
X93324000Y-87049200D02*
X94224000Y-87449200D01*
X94224000Y-87449200D02*
X95124000Y-87649200D01*
X95124000Y-87649200D02*
X95924000Y-87749200D01*
X95924000Y-87749200D02*
X96624000Y-87749200D01*
X96624000Y-87749200D02*
X96624000Y-87449200D01*
X96624000Y-87449200D02*
X96024000Y-87449200D01*
X96024000Y-87449200D02*
X95224000Y-87349200D01*
X95224000Y-87349200D02*
X94324000Y-87149200D01*
X94324000Y-87149200D02*
X93824000Y-86949200D01*
X93824000Y-86949200D02*
X93424000Y-86649200D01*
X93424000Y-86649200D02*
X93224000Y-86449200D01*
X93224000Y-86449200D02*
X93224000Y-86249200D01*
X93224000Y-86249200D02*
X93624000Y-86549200D01*
X93624000Y-86549200D02*
X94124000Y-86749200D01*
X94124000Y-86749200D02*
X94424000Y-86649200D01*
X94424000Y-86649200D02*
X94424000Y-85749200D01*
X94424000Y-85749200D02*
X94024000Y-85649200D01*
G36*
X95924000Y-83849200D02*
G01*
X94924000Y-84049200D01*
X94524000Y-84149200D01*
X94224000Y-84349200D01*
X94024000Y-84549200D01*
X94024000Y-84749200D01*
X94124000Y-84949200D01*
X94424000Y-85149200D01*
X94424000Y-85749200D01*
X94124000Y-85649200D01*
X94124000Y-85349200D01*
X93824000Y-85149200D01*
X93624000Y-84849200D01*
X93624000Y-84549200D01*
X93724000Y-84349200D01*
X93424000Y-84549200D01*
X93224000Y-84849200D01*
X93224000Y-85049200D01*
X93624000Y-85449200D01*
X94024000Y-85649200D01*
X94424000Y-85749200D01*
X94424000Y-86649200D01*
X94124000Y-86749200D01*
X93624000Y-86549200D01*
X93224000Y-86249200D01*
X93224000Y-86449200D01*
X93424000Y-86649200D01*
X93824000Y-86949200D01*
X94324000Y-87149200D01*
X95224000Y-87349200D01*
X96024000Y-87449200D01*
X96624000Y-87449200D01*
X96624000Y-87749200D01*
X95924000Y-87749200D01*
X95124000Y-87649200D01*
X94224000Y-87449200D01*
X93324000Y-87049200D01*
X93024000Y-86649200D01*
X92924000Y-86449200D01*
X92924000Y-86149200D01*
X93024000Y-85949200D01*
X92924000Y-85749200D01*
X92924000Y-85549200D01*
X93024000Y-85349200D01*
X92924000Y-85049200D01*
X92924000Y-84849200D01*
X93024000Y-84549200D01*
X93424000Y-84149200D01*
X94124000Y-83849200D01*
X94924000Y-83649200D01*
X95624000Y-83549200D01*
X95924000Y-83549200D01*
X95924000Y-83849200D01*
G37*
X95924000Y-83849200D02*
X94924000Y-84049200D01*
X94524000Y-84149200D01*
X94224000Y-84349200D01*
X94024000Y-84549200D01*
X94024000Y-84749200D01*
X94124000Y-84949200D01*
X94424000Y-85149200D01*
X94424000Y-85749200D01*
X94124000Y-85649200D01*
X94124000Y-85349200D01*
X93824000Y-85149200D01*
X93624000Y-84849200D01*
X93624000Y-84549200D01*
X93724000Y-84349200D01*
X93424000Y-84549200D01*
X93224000Y-84849200D01*
X93224000Y-85049200D01*
X93624000Y-85449200D01*
X94024000Y-85649200D01*
X94424000Y-85749200D01*
X94424000Y-86649200D01*
X94124000Y-86749200D01*
X93624000Y-86549200D01*
X93224000Y-86249200D01*
X93224000Y-86449200D01*
X93424000Y-86649200D01*
X93824000Y-86949200D01*
X94324000Y-87149200D01*
X95224000Y-87349200D01*
X96024000Y-87449200D01*
X96624000Y-87449200D01*
X96624000Y-87749200D01*
X95924000Y-87749200D01*
X95124000Y-87649200D01*
X94224000Y-87449200D01*
X93324000Y-87049200D01*
X93024000Y-86649200D01*
X92924000Y-86449200D01*
X92924000Y-86149200D01*
X93024000Y-85949200D01*
X92924000Y-85749200D01*
X92924000Y-85549200D01*
X93024000Y-85349200D01*
X92924000Y-85049200D01*
X92924000Y-84849200D01*
X93024000Y-84549200D01*
X93424000Y-84149200D01*
X94124000Y-83849200D01*
X94924000Y-83649200D01*
X95624000Y-83549200D01*
X95924000Y-83549200D01*
X95924000Y-83849200D01*
%TD*%
%LPC*%
D14*
%TO.C,J2*%
X91366600Y-112774310D03*
D15*
X94825638Y-109783080D03*
D16*
X92227562Y-108283080D03*
%TD*%
D17*
%TO.C,J7*%
X99022400Y-104038400D03*
X101022400Y-104038400D03*
D18*
X103022400Y-104038400D03*
%TD*%
D19*
%TO.C,J8*%
X83676400Y-95739200D03*
X83676400Y-97739200D03*
D20*
X83676400Y-99739200D03*
%TD*%
D21*
%TO.C,J10*%
X99415600Y-112725200D03*
D22*
X99415600Y-114725200D03*
X99415600Y-116725200D03*
%TD*%
D21*
%TO.C,J11*%
X102463600Y-112725200D03*
D22*
X102463600Y-114725200D03*
X102463600Y-116725200D03*
%TD*%
D23*
%TO.C,J12*%
X106758229Y-113777420D03*
D24*
X108396533Y-112630267D03*
X110034837Y-111483114D03*
%TD*%
D25*
%TO.C,J13*%
X98506200Y-107696000D03*
D26*
X101046200Y-107696000D03*
X103586200Y-107696000D03*
X106126200Y-107696000D03*
X108666200Y-107696000D03*
%TD*%
D27*
%TO.C,H1*%
X121920000Y-100000000D03*
%TD*%
%TO.C,H2*%
X78080000Y-100000000D03*
%TD*%
D28*
%TO.C,J9*%
X111439600Y-99971400D03*
X108439600Y-99971400D03*
X105439600Y-99971400D03*
X102439600Y-99971400D03*
X99439600Y-99971400D03*
X96439600Y-99971400D03*
X93439600Y-99971400D03*
X90439600Y-99971400D03*
X111439600Y-96971400D03*
X108439600Y-96971400D03*
X105439600Y-96971400D03*
X102439600Y-96971400D03*
X99439600Y-96971400D03*
X96439600Y-96971400D03*
X93439600Y-96971400D03*
D29*
X90439600Y-96971400D03*
D14*
X92599600Y-92651400D03*
X109299600Y-92651400D03*
%TD*%
D30*
%TO.C,J1*%
X81411371Y-87453041D03*
D31*
X82825585Y-86038827D03*
X84239798Y-84624614D03*
X85654012Y-83210400D03*
%TD*%
D32*
%TO.C,J3*%
X84429600Y-105359200D03*
D33*
X84776896Y-107328816D03*
%TD*%
D34*
%TO.C,J4*%
X122478800Y-107340400D03*
D35*
X122131504Y-109310016D03*
%TD*%
D36*
%TO.C,J5*%
X77783104Y-106539184D03*
D37*
X78130400Y-108508800D03*
%TD*%
D34*
%TO.C,J6*%
X116974612Y-106324400D03*
D35*
X116627316Y-108294016D03*
%TD*%
M02*
