%TF.GenerationSoftware,KiCad,Pcbnew,(6.0.1)*%
%TF.CreationDate,2022-03-14T16:44:18+09:00*%
%TF.ProjectId,v0_miniAB_pancake_board,76305f6d-696e-4694-9142-5f70616e6361,rev?*%
%TF.SameCoordinates,Original*%
%TF.FileFunction,Legend,Bot*%
%TF.FilePolarity,Positive*%
%FSLAX46Y46*%
G04 Gerber Fmt 4.6, Leading zero omitted, Abs format (unit mm)*
G04 Created by KiCad (PCBNEW (6.0.1)) date 2022-03-14 16:44:18*
%MOMM*%
%LPD*%
G01*
G04 APERTURE LIST*
G04 Aperture macros list*
%AMRoundRect*
0 Rectangle with rounded corners*
0 $1 Rounding radius*
0 $2 $3 $4 $5 $6 $7 $8 $9 X,Y pos of 4 corners*
0 Add a 4 corners polygon primitive as box body*
4,1,4,$2,$3,$4,$5,$6,$7,$8,$9,$2,$3,0*
0 Add four circle primitives for the rounded corners*
1,1,$1+$1,$2,$3*
1,1,$1+$1,$4,$5*
1,1,$1+$1,$6,$7*
1,1,$1+$1,$8,$9*
0 Add four rect primitives between the rounded corners*
20,1,$1+$1,$2,$3,$4,$5,0*
20,1,$1+$1,$4,$5,$6,$7,0*
20,1,$1+$1,$6,$7,$8,$9,0*
20,1,$1+$1,$8,$9,$2,$3,0*%
%AMHorizOval*
0 Thick line with rounded ends*
0 $1 width*
0 $2 $3 position (X,Y) of the first rounded end (center of the circle)*
0 $4 $5 position (X,Y) of the second rounded end (center of the circle)*
0 Add line between two ends*
20,1,$1,$2,$3,$4,$5,0*
0 Add two circle primitives to create the rounded ends*
1,1,$1,$2,$3*
1,1,$1,$4,$5*%
G04 Aperture macros list end*
%ADD10C,0.300000*%
%ADD11C,0.150000*%
%ADD12C,0.013229*%
%ADD13RoundRect,0.249999X-0.194454X0.689431X-0.689431X0.194454X0.194454X-0.689431X0.689431X-0.194454X0*%
%ADD14HorizOval,1.200000X-0.194454X0.194454X0.194454X-0.194454X0*%
%ADD15C,3.000000*%
%ADD16RoundRect,0.250001X0.835277X-0.360430X0.661629X0.624375X-0.835277X0.360430X-0.661629X-0.624375X0*%
%ADD17HorizOval,1.500000X0.256050X0.045149X-0.256050X-0.045149X0*%
%ADD18RoundRect,0.249999X-0.676283X0.236153X-0.554729X-0.453214X0.676283X-0.236153X0.554729X0.453214X0*%
%ADD19HorizOval,1.200000X-0.270822X-0.047753X0.270822X0.047753X0*%
%ADD20RoundRect,0.249999X-0.554729X0.453214X-0.676283X-0.236153X0.554729X-0.453214X0.676283X0.236153X0*%
%ADD21HorizOval,1.200000X-0.270822X0.047753X0.270822X-0.047753X0*%
%ADD22RoundRect,0.249999X0.676283X-0.236153X0.554729X0.453214X-0.676283X0.236153X-0.554729X-0.453214X0*%
%ADD23HorizOval,1.200000X0.270822X0.047753X-0.270822X-0.047753X0*%
%ADD24R,1.350000X1.350000*%
%ADD25O,1.350000X1.350000*%
%ADD26RoundRect,0.250000X0.071782X-0.712722X0.645188X-0.311218X-0.071782X0.712722X-0.645188X0.311218X0*%
%ADD27HorizOval,1.200000X-0.157734X0.225267X0.157734X-0.225267X0*%
%ADD28R,1.700000X1.700000*%
%ADD29O,1.700000X1.700000*%
%ADD30C,5.000000*%
%ADD31RoundRect,0.250000X0.350000X0.625000X-0.350000X0.625000X-0.350000X-0.625000X0.350000X-0.625000X0*%
%ADD32O,1.200000X1.750000*%
%ADD33RoundRect,0.250000X0.625000X-0.350000X0.625000X0.350000X-0.625000X0.350000X-0.625000X-0.350000X0*%
%ADD34O,1.750000X1.200000*%
%ADD35RoundRect,0.250001X-0.499999X-0.499999X0.499999X-0.499999X0.499999X0.499999X-0.499999X0.499999X0*%
%ADD36C,1.500000*%
G04 APERTURE END LIST*
D10*
X105371352Y-92593715D02*
X106038019Y-92593715D01*
X106038019Y-93641334D02*
X106038019Y-91641334D01*
X105085638Y-91641334D01*
X103942781Y-91641334D02*
X103561828Y-91641334D01*
X103371352Y-91736573D01*
X103180876Y-91927049D01*
X103085638Y-92308001D01*
X103085638Y-92974668D01*
X103180876Y-93355620D01*
X103371352Y-93546096D01*
X103561828Y-93641334D01*
X103942781Y-93641334D01*
X104133257Y-93546096D01*
X104323733Y-93355620D01*
X104418971Y-92974668D01*
X104418971Y-92308001D01*
X104323733Y-91927049D01*
X104133257Y-91736573D01*
X103942781Y-91641334D01*
X101085638Y-93641334D02*
X101752305Y-92688953D01*
X102228495Y-93641334D02*
X102228495Y-91641334D01*
X101466590Y-91641334D01*
X101276114Y-91736573D01*
X101180876Y-91831811D01*
X101085638Y-92022287D01*
X101085638Y-92308001D01*
X101180876Y-92498477D01*
X101276114Y-92593715D01*
X101466590Y-92688953D01*
X102228495Y-92688953D01*
X100228495Y-93641334D02*
X100228495Y-91641334D01*
X99085638Y-93641334D02*
X99942781Y-92498477D01*
X99085638Y-91641334D02*
X100228495Y-92784192D01*
X114015942Y-90312761D02*
X114015942Y-88312761D01*
X113254038Y-88312761D01*
X113063561Y-88408000D01*
X112968323Y-88503238D01*
X112873085Y-88693714D01*
X112873085Y-88979428D01*
X112968323Y-89169904D01*
X113063561Y-89265142D01*
X113254038Y-89360380D01*
X114015942Y-89360380D01*
X112111180Y-89741333D02*
X111158800Y-89741333D01*
X112301657Y-90312761D02*
X111634990Y-88312761D01*
X110968323Y-90312761D01*
X110301657Y-90312761D02*
X110301657Y-88312761D01*
X109158800Y-90312761D01*
X109158800Y-88312761D01*
X107063561Y-90122285D02*
X107158800Y-90217523D01*
X107444514Y-90312761D01*
X107634990Y-90312761D01*
X107920704Y-90217523D01*
X108111180Y-90027047D01*
X108206419Y-89836571D01*
X108301657Y-89455619D01*
X108301657Y-89169904D01*
X108206419Y-88788952D01*
X108111180Y-88598476D01*
X107920704Y-88408000D01*
X107634990Y-88312761D01*
X107444514Y-88312761D01*
X107158800Y-88408000D01*
X107063561Y-88503238D01*
X106301657Y-89741333D02*
X105349276Y-89741333D01*
X106492133Y-90312761D02*
X105825466Y-88312761D01*
X105158800Y-90312761D01*
X104492133Y-90312761D02*
X104492133Y-88312761D01*
X103349276Y-90312761D02*
X104206419Y-89169904D01*
X103349276Y-88312761D02*
X104492133Y-89455619D01*
X102492133Y-89265142D02*
X101825466Y-89265142D01*
X101539752Y-90312761D02*
X102492133Y-90312761D01*
X102492133Y-88312761D01*
X101539752Y-88312761D01*
X98492133Y-89265142D02*
X98206419Y-89360380D01*
X98111180Y-89455619D01*
X98015942Y-89646095D01*
X98015942Y-89931809D01*
X98111180Y-90122285D01*
X98206419Y-90217523D01*
X98396895Y-90312761D01*
X99158800Y-90312761D01*
X99158800Y-88312761D01*
X98492133Y-88312761D01*
X98301657Y-88408000D01*
X98206419Y-88503238D01*
X98111180Y-88693714D01*
X98111180Y-88884190D01*
X98206419Y-89074666D01*
X98301657Y-89169904D01*
X98492133Y-89265142D01*
X99158800Y-89265142D01*
X96777847Y-88312761D02*
X96396895Y-88312761D01*
X96206419Y-88408000D01*
X96015942Y-88598476D01*
X95920704Y-88979428D01*
X95920704Y-89646095D01*
X96015942Y-90027047D01*
X96206419Y-90217523D01*
X96396895Y-90312761D01*
X96777847Y-90312761D01*
X96968323Y-90217523D01*
X97158800Y-90027047D01*
X97254038Y-89646095D01*
X97254038Y-88979428D01*
X97158800Y-88598476D01*
X96968323Y-88408000D01*
X96777847Y-88312761D01*
X95158800Y-89741333D02*
X94206419Y-89741333D01*
X95349276Y-90312761D02*
X94682609Y-88312761D01*
X94015942Y-90312761D01*
X92206419Y-90312761D02*
X92873085Y-89360380D01*
X93349276Y-90312761D02*
X93349276Y-88312761D01*
X92587371Y-88312761D01*
X92396895Y-88408000D01*
X92301657Y-88503238D01*
X92206419Y-88693714D01*
X92206419Y-88979428D01*
X92301657Y-89169904D01*
X92396895Y-89265142D01*
X92587371Y-89360380D01*
X93349276Y-89360380D01*
X91349276Y-90312761D02*
X91349276Y-88312761D01*
X90873085Y-88312761D01*
X90587371Y-88408000D01*
X90396895Y-88598476D01*
X90301657Y-88788952D01*
X90206419Y-89169904D01*
X90206419Y-89455619D01*
X90301657Y-89836571D01*
X90396895Y-90027047D01*
X90587371Y-90217523D01*
X90873085Y-90312761D01*
X91349276Y-90312761D01*
D11*
X91207866Y-94115576D02*
X91207866Y-94591766D01*
X91493580Y-94020338D02*
X90493580Y-94353671D01*
X91493580Y-94687004D01*
X91112628Y-95020338D02*
X91112628Y-95782242D01*
X91493580Y-95401290D02*
X90731676Y-95401290D01*
X94427866Y-94115576D02*
X94427866Y-94591766D01*
X94713580Y-94020338D02*
X93713580Y-94353671D01*
X94713580Y-94687004D01*
X94332628Y-95020338D02*
X94332628Y-95782242D01*
X97409771Y-94496528D02*
X97457390Y-94639385D01*
X97505009Y-94687004D01*
X97600247Y-94734623D01*
X97743104Y-94734623D01*
X97838342Y-94687004D01*
X97885961Y-94639385D01*
X97933580Y-94544147D01*
X97933580Y-94163195D01*
X96933580Y-94163195D01*
X96933580Y-94496528D01*
X96981200Y-94591766D01*
X97028819Y-94639385D01*
X97124057Y-94687004D01*
X97219295Y-94687004D01*
X97314533Y-94639385D01*
X97362152Y-94591766D01*
X97409771Y-94496528D01*
X97409771Y-94163195D01*
X97552628Y-95163195D02*
X97552628Y-95925100D01*
X97933580Y-95544147D02*
X97171676Y-95544147D01*
X100629771Y-94496528D02*
X100677390Y-94639385D01*
X100725009Y-94687004D01*
X100820247Y-94734623D01*
X100963104Y-94734623D01*
X101058342Y-94687004D01*
X101105961Y-94639385D01*
X101153580Y-94544147D01*
X101153580Y-94163195D01*
X100153580Y-94163195D01*
X100153580Y-94496528D01*
X100201200Y-94591766D01*
X100248819Y-94639385D01*
X100344057Y-94687004D01*
X100439295Y-94687004D01*
X100534533Y-94639385D01*
X100582152Y-94591766D01*
X100629771Y-94496528D01*
X100629771Y-94163195D01*
X100772628Y-95163195D02*
X100772628Y-95925100D01*
X103373580Y-94067957D02*
X104373580Y-94734623D01*
X103373580Y-94734623D02*
X104373580Y-94067957D01*
X103849771Y-95877480D02*
X103849771Y-96210814D01*
X104373580Y-96353671D02*
X104373580Y-95877480D01*
X103373580Y-95877480D01*
X103373580Y-96353671D01*
X104373580Y-96782242D02*
X103373580Y-96782242D01*
X104373580Y-97353671D01*
X103373580Y-97353671D01*
X104373580Y-97829861D02*
X103373580Y-97829861D01*
X103373580Y-98067957D01*
X103421200Y-98210814D01*
X103516438Y-98306052D01*
X103611676Y-98353671D01*
X103802152Y-98401290D01*
X103945009Y-98401290D01*
X104135485Y-98353671D01*
X104230723Y-98306052D01*
X104325961Y-98210814D01*
X104373580Y-98067957D01*
X104373580Y-97829861D01*
X107069771Y-94496528D02*
X107069771Y-94163195D01*
X107593580Y-94163195D02*
X106593580Y-94163195D01*
X106593580Y-94639385D01*
X107307866Y-94972719D02*
X107307866Y-95448909D01*
X107593580Y-94877480D02*
X106593580Y-95210814D01*
X107593580Y-95544147D01*
X107593580Y-95877480D02*
X106593580Y-95877480D01*
X107593580Y-96448909D01*
X106593580Y-96448909D01*
X106593580Y-97115576D02*
X106593580Y-97210814D01*
X106641200Y-97306052D01*
X106688819Y-97353671D01*
X106784057Y-97401290D01*
X106974533Y-97448909D01*
X107212628Y-97448909D01*
X107403104Y-97401290D01*
X107498342Y-97353671D01*
X107545961Y-97306052D01*
X107593580Y-97210814D01*
X107593580Y-97115576D01*
X107545961Y-97020338D01*
X107498342Y-96972719D01*
X107403104Y-96925100D01*
X107212628Y-96877480D01*
X106974533Y-96877480D01*
X106784057Y-96925100D01*
X106688819Y-96972719D01*
X106641200Y-97020338D01*
X106593580Y-97115576D01*
X110813580Y-94639385D02*
X110813580Y-94163195D01*
X109813580Y-94163195D01*
X110289771Y-94972719D02*
X110289771Y-95306052D01*
X110813580Y-95448909D02*
X110813580Y-94972719D01*
X109813580Y-94972719D01*
X109813580Y-95448909D01*
X110813580Y-95877480D02*
X109813580Y-95877480D01*
X109813580Y-96115576D01*
X109861200Y-96258433D01*
X109956438Y-96353671D01*
X110051676Y-96401290D01*
X110242152Y-96448909D01*
X110385009Y-96448909D01*
X110575485Y-96401290D01*
X110670723Y-96353671D01*
X110765961Y-96258433D01*
X110813580Y-96115576D01*
X110813580Y-95877480D01*
X113081200Y-94687004D02*
X113033580Y-94591766D01*
X113033580Y-94448909D01*
X113081200Y-94306052D01*
X113176438Y-94210814D01*
X113271676Y-94163195D01*
X113462152Y-94115576D01*
X113605009Y-94115576D01*
X113795485Y-94163195D01*
X113890723Y-94210814D01*
X113985961Y-94306052D01*
X114033580Y-94448909D01*
X114033580Y-94544147D01*
X113985961Y-94687004D01*
X113938342Y-94734623D01*
X113605009Y-94734623D01*
X113605009Y-94544147D01*
X114033580Y-95163195D02*
X113033580Y-95163195D01*
X114033580Y-95734623D01*
X113033580Y-95734623D01*
X114033580Y-96210814D02*
X113033580Y-96210814D01*
X113033580Y-96448909D01*
X113081200Y-96591766D01*
X113176438Y-96687004D01*
X113271676Y-96734623D01*
X113462152Y-96782242D01*
X113605009Y-96782242D01*
X113795485Y-96734623D01*
X113890723Y-96687004D01*
X113985961Y-96591766D01*
X114033580Y-96448909D01*
X114033580Y-96210814D01*
X89979219Y-100871976D02*
X89931600Y-100919595D01*
X89883980Y-101014833D01*
X89883980Y-101252928D01*
X89931600Y-101348166D01*
X89979219Y-101395785D01*
X90074457Y-101443404D01*
X90169695Y-101443404D01*
X90312552Y-101395785D01*
X90883980Y-100824357D01*
X90883980Y-101443404D01*
X90217314Y-102300547D02*
X90883980Y-102300547D01*
X89836361Y-102062452D02*
X90550647Y-101824357D01*
X90550647Y-102443404D01*
X89883980Y-102681500D02*
X90883980Y-103014833D01*
X89883980Y-103348166D01*
X94103980Y-100919595D02*
X93103980Y-100919595D01*
X93580171Y-100919595D02*
X93580171Y-101491023D01*
X94103980Y-101491023D02*
X93103980Y-101491023D01*
X93580171Y-101967214D02*
X93580171Y-102300547D01*
X94103980Y-102443404D02*
X94103980Y-101967214D01*
X93103980Y-101967214D01*
X93103980Y-102443404D01*
X93818266Y-102824357D02*
X93818266Y-103300547D01*
X94103980Y-102729119D02*
X93103980Y-103062452D01*
X94103980Y-103395785D01*
X93103980Y-103586261D02*
X93103980Y-104157690D01*
X94103980Y-103871976D02*
X93103980Y-103871976D01*
X94199219Y-104252928D02*
X94199219Y-105014833D01*
X93151600Y-105776738D02*
X93103980Y-105681500D01*
X93103980Y-105538642D01*
X93151600Y-105395785D01*
X93246838Y-105300547D01*
X93342076Y-105252928D01*
X93532552Y-105205309D01*
X93675409Y-105205309D01*
X93865885Y-105252928D01*
X93961123Y-105300547D01*
X94056361Y-105395785D01*
X94103980Y-105538642D01*
X94103980Y-105633880D01*
X94056361Y-105776738D01*
X94008742Y-105824357D01*
X93675409Y-105824357D01*
X93675409Y-105633880D01*
X94103980Y-106252928D02*
X93103980Y-106252928D01*
X94103980Y-106824357D01*
X93103980Y-106824357D01*
X94103980Y-107300547D02*
X93103980Y-107300547D01*
X93103980Y-107538642D01*
X93151600Y-107681500D01*
X93246838Y-107776738D01*
X93342076Y-107824357D01*
X93532552Y-107871976D01*
X93675409Y-107871976D01*
X93865885Y-107824357D01*
X93961123Y-107776738D01*
X94056361Y-107681500D01*
X94103980Y-107538642D01*
X94103980Y-107300547D01*
X96323980Y-100776738D02*
X96323980Y-101348166D01*
X97323980Y-101062452D02*
X96323980Y-101062452D01*
X97323980Y-101681500D02*
X96323980Y-101681500D01*
X96800171Y-101681500D02*
X96800171Y-102252928D01*
X97323980Y-102252928D02*
X96323980Y-102252928D01*
X96323980Y-102919595D02*
X96323980Y-103014833D01*
X96371600Y-103110071D01*
X96419219Y-103157690D01*
X96514457Y-103205309D01*
X96704933Y-103252928D01*
X96943028Y-103252928D01*
X97133504Y-103205309D01*
X97228742Y-103157690D01*
X97276361Y-103110071D01*
X97323980Y-103014833D01*
X97323980Y-102919595D01*
X97276361Y-102824357D01*
X97228742Y-102776738D01*
X97133504Y-102729119D01*
X96943028Y-102681500D01*
X96704933Y-102681500D01*
X96514457Y-102729119D01*
X96419219Y-102776738D01*
X96371600Y-102824357D01*
X96323980Y-102919595D01*
X99543980Y-100776738D02*
X99543980Y-101348166D01*
X100543980Y-101062452D02*
X99543980Y-101062452D01*
X100543980Y-101681500D02*
X99543980Y-101681500D01*
X100020171Y-101681500D02*
X100020171Y-102252928D01*
X100543980Y-102252928D02*
X99543980Y-102252928D01*
X100543980Y-103252928D02*
X100543980Y-102681500D01*
X100543980Y-102967214D02*
X99543980Y-102967214D01*
X99686838Y-102871976D01*
X99782076Y-102776738D01*
X99829695Y-102681500D01*
X103763980Y-100919595D02*
X102763980Y-100919595D01*
X102763980Y-101300547D01*
X102811600Y-101395785D01*
X102859219Y-101443404D01*
X102954457Y-101491023D01*
X103097314Y-101491023D01*
X103192552Y-101443404D01*
X103240171Y-101395785D01*
X103287790Y-101300547D01*
X103287790Y-100919595D01*
X103763980Y-102491023D02*
X103287790Y-102157690D01*
X103763980Y-101919595D02*
X102763980Y-101919595D01*
X102763980Y-102300547D01*
X102811600Y-102395785D01*
X102859219Y-102443404D01*
X102954457Y-102491023D01*
X103097314Y-102491023D01*
X103192552Y-102443404D01*
X103240171Y-102395785D01*
X103287790Y-102300547D01*
X103287790Y-101919595D01*
X102763980Y-103110071D02*
X102763980Y-103300547D01*
X102811600Y-103395785D01*
X102906838Y-103491023D01*
X103097314Y-103538642D01*
X103430647Y-103538642D01*
X103621123Y-103491023D01*
X103716361Y-103395785D01*
X103763980Y-103300547D01*
X103763980Y-103110071D01*
X103716361Y-103014833D01*
X103621123Y-102919595D01*
X103430647Y-102871976D01*
X103097314Y-102871976D01*
X102906838Y-102919595D01*
X102811600Y-103014833D01*
X102763980Y-103110071D01*
X103240171Y-104300547D02*
X103287790Y-104443404D01*
X103335409Y-104491023D01*
X103430647Y-104538642D01*
X103573504Y-104538642D01*
X103668742Y-104491023D01*
X103716361Y-104443404D01*
X103763980Y-104348166D01*
X103763980Y-103967214D01*
X102763980Y-103967214D01*
X102763980Y-104300547D01*
X102811600Y-104395785D01*
X102859219Y-104443404D01*
X102954457Y-104491023D01*
X103049695Y-104491023D01*
X103144933Y-104443404D01*
X103192552Y-104395785D01*
X103240171Y-104300547D01*
X103240171Y-103967214D01*
X103240171Y-104967214D02*
X103240171Y-105300547D01*
X103763980Y-105443404D02*
X103763980Y-104967214D01*
X102763980Y-104967214D01*
X102763980Y-105443404D01*
X106460171Y-101252928D02*
X106460171Y-100919595D01*
X106983980Y-100919595D02*
X105983980Y-100919595D01*
X105983980Y-101395785D01*
X106698266Y-101729119D02*
X106698266Y-102205309D01*
X106983980Y-101633880D02*
X105983980Y-101967214D01*
X106983980Y-102300547D01*
X106983980Y-102633880D02*
X105983980Y-102633880D01*
X106983980Y-103205309D01*
X105983980Y-103205309D01*
X106983980Y-104205309D02*
X106983980Y-103633880D01*
X106983980Y-103919595D02*
X105983980Y-103919595D01*
X106126838Y-103824357D01*
X106222076Y-103729119D01*
X106269695Y-103633880D01*
X110156361Y-100871976D02*
X110203980Y-101014833D01*
X110203980Y-101252928D01*
X110156361Y-101348166D01*
X110108742Y-101395785D01*
X110013504Y-101443404D01*
X109918266Y-101443404D01*
X109823028Y-101395785D01*
X109775409Y-101348166D01*
X109727790Y-101252928D01*
X109680171Y-101062452D01*
X109632552Y-100967214D01*
X109584933Y-100919595D01*
X109489695Y-100871976D01*
X109394457Y-100871976D01*
X109299219Y-100919595D01*
X109251600Y-100967214D01*
X109203980Y-101062452D01*
X109203980Y-101300547D01*
X109251600Y-101443404D01*
X109680171Y-101871976D02*
X109680171Y-102205309D01*
X110203980Y-102348166D02*
X110203980Y-101871976D01*
X109203980Y-101871976D01*
X109203980Y-102348166D01*
X110203980Y-103348166D02*
X109727790Y-103014833D01*
X110203980Y-102776738D02*
X109203980Y-102776738D01*
X109203980Y-103157690D01*
X109251600Y-103252928D01*
X109299219Y-103300547D01*
X109394457Y-103348166D01*
X109537314Y-103348166D01*
X109632552Y-103300547D01*
X109680171Y-103252928D01*
X109727790Y-103157690D01*
X109727790Y-102776738D01*
X109203980Y-103633880D02*
X110203980Y-103967214D01*
X109203980Y-104300547D01*
X109203980Y-104824357D02*
X109203980Y-105014833D01*
X109251600Y-105110071D01*
X109346838Y-105205309D01*
X109537314Y-105252928D01*
X109870647Y-105252928D01*
X110061123Y-105205309D01*
X110156361Y-105110071D01*
X110203980Y-105014833D01*
X110203980Y-104824357D01*
X110156361Y-104729119D01*
X110061123Y-104633880D01*
X109870647Y-104586261D01*
X109537314Y-104586261D01*
X109346838Y-104633880D01*
X109251600Y-104729119D01*
X109203980Y-104824357D01*
X112423980Y-101395785D02*
X112423980Y-100919595D01*
X112900171Y-100871976D01*
X112852552Y-100919595D01*
X112804933Y-101014833D01*
X112804933Y-101252928D01*
X112852552Y-101348166D01*
X112900171Y-101395785D01*
X112995409Y-101443404D01*
X113233504Y-101443404D01*
X113328742Y-101395785D01*
X113376361Y-101348166D01*
X113423980Y-101252928D01*
X113423980Y-101014833D01*
X113376361Y-100919595D01*
X113328742Y-100871976D01*
X112423980Y-101729119D02*
X113423980Y-102062452D01*
X112423980Y-102395785D01*
X89285682Y-84809301D02*
X89218339Y-84943988D01*
X89218339Y-85011332D01*
X89252011Y-85112347D01*
X89353026Y-85213362D01*
X89454041Y-85247034D01*
X89521385Y-85247034D01*
X89622400Y-85213362D01*
X89891774Y-84943988D01*
X89184667Y-84236882D01*
X88948965Y-84472584D01*
X88915293Y-84573599D01*
X88915293Y-84640943D01*
X88948965Y-84741958D01*
X89016308Y-84809301D01*
X89117324Y-84842973D01*
X89184667Y-84842973D01*
X89285682Y-84809301D01*
X89521385Y-84573599D01*
X88915293Y-85381721D02*
X88376545Y-85920469D01*
X87164362Y-86930622D02*
X87097018Y-87065309D01*
X87097018Y-87132652D01*
X87130690Y-87233668D01*
X87231705Y-87334683D01*
X87332721Y-87368355D01*
X87400064Y-87368355D01*
X87501079Y-87334683D01*
X87770453Y-87065309D01*
X87063347Y-86358202D01*
X86827644Y-86593904D01*
X86793973Y-86694920D01*
X86793973Y-86762263D01*
X86827644Y-86863278D01*
X86894988Y-86930622D01*
X86996003Y-86964294D01*
X87063347Y-86964294D01*
X87164362Y-86930622D01*
X87400064Y-86694920D01*
X86793973Y-87503042D02*
X86255225Y-88041790D01*
X86793973Y-88041790D02*
X86255225Y-87503042D01*
X85480774Y-88950927D02*
X85144057Y-89287644D01*
X85750148Y-89085614D02*
X84807339Y-88614209D01*
X85278744Y-89557018D01*
X84773668Y-89523347D02*
X84234920Y-90062095D01*
X83460469Y-90971232D02*
X83123752Y-91307950D01*
X83729843Y-91105919D02*
X82787034Y-90634514D01*
X83258439Y-91577324D01*
X82753362Y-91543652D02*
X82214614Y-92082400D01*
X82753362Y-92082400D02*
X82214614Y-91543652D01*
X115250533Y-97390342D02*
X115202914Y-97342723D01*
X115060057Y-97247485D01*
X114964819Y-97199866D01*
X114821961Y-97152247D01*
X114583866Y-97104628D01*
X114393390Y-97104628D01*
X114155295Y-97152247D01*
X114012438Y-97199866D01*
X113917200Y-97247485D01*
X113774342Y-97342723D01*
X113726723Y-97390342D01*
X114869580Y-98199866D02*
X114345771Y-98199866D01*
X114250533Y-98152247D01*
X114202914Y-98057009D01*
X114202914Y-97866533D01*
X114250533Y-97771295D01*
X114821961Y-98199866D02*
X114869580Y-98104628D01*
X114869580Y-97866533D01*
X114821961Y-97771295D01*
X114726723Y-97723676D01*
X114631485Y-97723676D01*
X114536247Y-97771295D01*
X114488628Y-97866533D01*
X114488628Y-98104628D01*
X114441009Y-98199866D01*
X114821961Y-98628438D02*
X114869580Y-98723676D01*
X114869580Y-98914152D01*
X114821961Y-99009390D01*
X114726723Y-99057009D01*
X114679104Y-99057009D01*
X114583866Y-99009390D01*
X114536247Y-98914152D01*
X114536247Y-98771295D01*
X114488628Y-98676057D01*
X114393390Y-98628438D01*
X114345771Y-98628438D01*
X114250533Y-98676057D01*
X114202914Y-98771295D01*
X114202914Y-98914152D01*
X114250533Y-99009390D01*
X114821961Y-100199866D02*
X114869580Y-100295104D01*
X114869580Y-100485580D01*
X114821961Y-100580819D01*
X114726723Y-100628438D01*
X114679104Y-100628438D01*
X114583866Y-100580819D01*
X114536247Y-100485580D01*
X114536247Y-100342723D01*
X114488628Y-100247485D01*
X114393390Y-100199866D01*
X114345771Y-100199866D01*
X114250533Y-100247485D01*
X114202914Y-100342723D01*
X114202914Y-100485580D01*
X114250533Y-100580819D01*
X114821961Y-101437961D02*
X114869580Y-101342723D01*
X114869580Y-101152247D01*
X114821961Y-101057009D01*
X114726723Y-101009390D01*
X114345771Y-101009390D01*
X114250533Y-101057009D01*
X114202914Y-101152247D01*
X114202914Y-101342723D01*
X114250533Y-101437961D01*
X114345771Y-101485580D01*
X114441009Y-101485580D01*
X114536247Y-101009390D01*
X114821961Y-102295104D02*
X114869580Y-102199866D01*
X114869580Y-102009390D01*
X114821961Y-101914152D01*
X114726723Y-101866533D01*
X114345771Y-101866533D01*
X114250533Y-101914152D01*
X114202914Y-102009390D01*
X114202914Y-102199866D01*
X114250533Y-102295104D01*
X114345771Y-102342723D01*
X114441009Y-102342723D01*
X114536247Y-101866533D01*
X114202914Y-102771295D02*
X114869580Y-102771295D01*
X114298152Y-102771295D02*
X114250533Y-102818914D01*
X114202914Y-102914152D01*
X114202914Y-103057009D01*
X114250533Y-103152247D01*
X114345771Y-103199866D01*
X114869580Y-103199866D01*
X115812914Y-96771295D02*
X115812914Y-97152247D01*
X116479580Y-96914152D02*
X115622438Y-96914152D01*
X115527200Y-96961771D01*
X115479580Y-97057009D01*
X115479580Y-97152247D01*
X116479580Y-97485580D02*
X115812914Y-97485580D01*
X116003390Y-97485580D02*
X115908152Y-97533200D01*
X115860533Y-97580819D01*
X115812914Y-97676057D01*
X115812914Y-97771295D01*
X116479580Y-98247485D02*
X116431961Y-98152247D01*
X116384342Y-98104628D01*
X116289104Y-98057009D01*
X116003390Y-98057009D01*
X115908152Y-98104628D01*
X115860533Y-98152247D01*
X115812914Y-98247485D01*
X115812914Y-98390342D01*
X115860533Y-98485580D01*
X115908152Y-98533200D01*
X116003390Y-98580819D01*
X116289104Y-98580819D01*
X116384342Y-98533200D01*
X116431961Y-98485580D01*
X116479580Y-98390342D01*
X116479580Y-98247485D01*
X116479580Y-99009390D02*
X115812914Y-99009390D01*
X115908152Y-99009390D02*
X115860533Y-99057009D01*
X115812914Y-99152247D01*
X115812914Y-99295104D01*
X115860533Y-99390342D01*
X115955771Y-99437961D01*
X116479580Y-99437961D01*
X115955771Y-99437961D02*
X115860533Y-99485580D01*
X115812914Y-99580819D01*
X115812914Y-99723676D01*
X115860533Y-99818914D01*
X115955771Y-99866533D01*
X116479580Y-99866533D01*
X115812914Y-100961771D02*
X115812914Y-101342723D01*
X115479580Y-101104628D02*
X116336723Y-101104628D01*
X116431961Y-101152247D01*
X116479580Y-101247485D01*
X116479580Y-101342723D01*
X116479580Y-101676057D02*
X115479580Y-101676057D01*
X116479580Y-102104628D02*
X115955771Y-102104628D01*
X115860533Y-102057009D01*
X115812914Y-101961771D01*
X115812914Y-101818914D01*
X115860533Y-101723676D01*
X115908152Y-101676057D01*
X116479580Y-102580819D02*
X115812914Y-102580819D01*
X115479580Y-102580819D02*
X115527200Y-102533200D01*
X115574819Y-102580819D01*
X115527200Y-102628438D01*
X115479580Y-102580819D01*
X115574819Y-102580819D01*
X116431961Y-103009390D02*
X116479580Y-103104628D01*
X116479580Y-103295104D01*
X116431961Y-103390342D01*
X116336723Y-103437961D01*
X116289104Y-103437961D01*
X116193866Y-103390342D01*
X116146247Y-103295104D01*
X116146247Y-103152247D01*
X116098628Y-103057009D01*
X116003390Y-103009390D01*
X115955771Y-103009390D01*
X115860533Y-103057009D01*
X115812914Y-103152247D01*
X115812914Y-103295104D01*
X115860533Y-103390342D01*
X118041961Y-98866533D02*
X118089580Y-98961771D01*
X118089580Y-99152247D01*
X118041961Y-99247485D01*
X117946723Y-99295104D01*
X117899104Y-99295104D01*
X117803866Y-99247485D01*
X117756247Y-99152247D01*
X117756247Y-99009390D01*
X117708628Y-98914152D01*
X117613390Y-98866533D01*
X117565771Y-98866533D01*
X117470533Y-98914152D01*
X117422914Y-99009390D01*
X117422914Y-99152247D01*
X117470533Y-99247485D01*
X118089580Y-99723676D02*
X117422914Y-99723676D01*
X117089580Y-99723676D02*
X117137200Y-99676057D01*
X117184819Y-99723676D01*
X117137200Y-99771295D01*
X117089580Y-99723676D01*
X117184819Y-99723676D01*
X118089580Y-100628438D02*
X117089580Y-100628438D01*
X118041961Y-100628438D02*
X118089580Y-100533200D01*
X118089580Y-100342723D01*
X118041961Y-100247485D01*
X117994342Y-100199866D01*
X117899104Y-100152247D01*
X117613390Y-100152247D01*
X117518152Y-100199866D01*
X117470533Y-100247485D01*
X117422914Y-100342723D01*
X117422914Y-100533200D01*
X117470533Y-100628438D01*
X118041961Y-101485580D02*
X118089580Y-101390342D01*
X118089580Y-101199866D01*
X118041961Y-101104628D01*
X117946723Y-101057009D01*
X117565771Y-101057009D01*
X117470533Y-101104628D01*
X117422914Y-101199866D01*
X117422914Y-101390342D01*
X117470533Y-101485580D01*
X117565771Y-101533200D01*
X117661009Y-101533200D01*
X117756247Y-101057009D01*
X118470533Y-101866533D02*
X118422914Y-101914152D01*
X118280057Y-102009390D01*
X118184819Y-102057009D01*
X118041961Y-102104628D01*
X117803866Y-102152247D01*
X117613390Y-102152247D01*
X117375295Y-102104628D01*
X117232438Y-102057009D01*
X117137200Y-102009390D01*
X116994342Y-101914152D01*
X116946723Y-101866533D01*
X89222971Y-94111428D02*
X87722971Y-94111428D01*
X87722971Y-94682857D01*
X87794400Y-94825714D01*
X87865828Y-94897142D01*
X88008685Y-94968571D01*
X88222971Y-94968571D01*
X88365828Y-94897142D01*
X88437257Y-94825714D01*
X88508685Y-94682857D01*
X88508685Y-94111428D01*
X89222971Y-95611428D02*
X87722971Y-95611428D01*
X89222971Y-96325714D02*
X87722971Y-96325714D01*
X89222971Y-97182857D01*
X87722971Y-97182857D01*
X87722971Y-98182857D02*
X87722971Y-98468571D01*
X87794400Y-98611428D01*
X87937257Y-98754285D01*
X88222971Y-98825714D01*
X88722971Y-98825714D01*
X89008685Y-98754285D01*
X89151542Y-98611428D01*
X89222971Y-98468571D01*
X89222971Y-98182857D01*
X89151542Y-98040000D01*
X89008685Y-97897142D01*
X88722971Y-97825714D01*
X88222971Y-97825714D01*
X87937257Y-97897142D01*
X87794400Y-98040000D01*
X87722971Y-98182857D01*
X87722971Y-99468571D02*
X88937257Y-99468571D01*
X89080114Y-99540000D01*
X89151542Y-99611428D01*
X89222971Y-99754285D01*
X89222971Y-100040000D01*
X89151542Y-100182857D01*
X89080114Y-100254285D01*
X88937257Y-100325714D01*
X87722971Y-100325714D01*
X87722971Y-100825714D02*
X87722971Y-101682857D01*
X89222971Y-101254285D02*
X87722971Y-101254285D01*
X88971309Y-86232473D02*
X88706677Y-86506508D01*
X88632292Y-86103683D02*
X89248869Y-86699105D01*
X89284299Y-86799517D01*
X89252395Y-86901105D01*
X89186237Y-86969613D01*
X88954684Y-87209393D02*
X88235345Y-86514735D01*
X88656974Y-87517682D02*
X88280177Y-87153813D01*
X88244747Y-87053401D01*
X88276651Y-86951813D01*
X88375888Y-86849050D01*
X88476300Y-86813621D01*
X88543633Y-86812446D01*
X88326184Y-87860224D02*
X87846624Y-87397119D01*
X87606844Y-87165566D02*
X87674177Y-87164391D01*
X87675353Y-87231724D01*
X87608019Y-87232899D01*
X87606844Y-87165566D01*
X87675353Y-87231724D01*
X87994219Y-88135434D02*
X87962315Y-88237021D01*
X87829999Y-88374039D01*
X87729587Y-88409468D01*
X87628000Y-88377564D01*
X87593745Y-88344485D01*
X87558316Y-88244073D01*
X87590219Y-88142486D01*
X87689456Y-88039723D01*
X87721360Y-87938135D01*
X87685930Y-87837723D01*
X87651676Y-87804644D01*
X87550089Y-87772741D01*
X87449676Y-87808170D01*
X87350439Y-87910933D01*
X87318536Y-88012520D01*
X86902613Y-89265825D02*
X86870709Y-89367413D01*
X86738393Y-89504430D01*
X86637981Y-89539859D01*
X86536394Y-89507956D01*
X86502139Y-89474877D01*
X86466710Y-89374464D01*
X86498613Y-89272877D01*
X86597850Y-89170114D01*
X86629754Y-89068527D01*
X86594324Y-88968114D01*
X86560070Y-88935035D01*
X86458483Y-88903132D01*
X86358070Y-88938561D01*
X86258833Y-89041324D01*
X86226930Y-89142912D01*
X86341446Y-89915481D02*
X85861886Y-89452375D01*
X85622106Y-89220823D02*
X85689439Y-89219647D01*
X85690614Y-89286981D01*
X85623281Y-89288156D01*
X85622106Y-89220823D01*
X85690614Y-89286981D01*
X85712945Y-90566312D02*
X84993605Y-89871654D01*
X85678691Y-90533233D02*
X85779103Y-90497804D01*
X85911419Y-90360787D01*
X85943323Y-90259199D01*
X85942147Y-90191866D01*
X85906718Y-90091454D01*
X85701192Y-89892980D01*
X85599605Y-89861076D01*
X85532271Y-89862251D01*
X85431859Y-89897681D01*
X85299543Y-90034698D01*
X85267640Y-90136286D01*
X85083270Y-91149810D02*
X85183682Y-91114381D01*
X85315998Y-90977364D01*
X85347901Y-90875776D01*
X85312472Y-90775364D01*
X85038437Y-90510732D01*
X84936850Y-90478828D01*
X84836438Y-90514258D01*
X84704122Y-90651275D01*
X84672218Y-90752863D01*
X84707648Y-90853275D01*
X84776156Y-90919433D01*
X85175455Y-90643048D01*
X91766855Y-85655287D02*
X91502223Y-85929321D01*
X91427838Y-85526497D02*
X92044415Y-86121918D01*
X92079845Y-86222330D01*
X92047941Y-86323918D01*
X91981783Y-86392427D01*
X91650993Y-86734969D02*
X91682897Y-86633382D01*
X91681722Y-86566049D01*
X91646292Y-86465636D01*
X91440767Y-86267162D01*
X91339179Y-86235259D01*
X91271846Y-86236434D01*
X91171434Y-86271864D01*
X91072197Y-86374627D01*
X91040293Y-86476214D01*
X91041468Y-86543547D01*
X91076898Y-86643960D01*
X91282424Y-86842433D01*
X91384011Y-86874337D01*
X91451344Y-86873162D01*
X91551757Y-86837732D01*
X91650993Y-86734969D01*
X90708328Y-86751424D02*
X91055572Y-87351546D01*
X90580713Y-87157774D01*
X90790940Y-87625580D01*
X90179064Y-87299492D01*
X90096282Y-88344920D02*
X89719485Y-87981052D01*
X89684055Y-87880639D01*
X89715959Y-87779052D01*
X89848275Y-87642035D01*
X89948687Y-87606605D01*
X90062028Y-88311841D02*
X90162440Y-88276412D01*
X90327835Y-88105140D01*
X90359738Y-88003553D01*
X90324309Y-87903141D01*
X90255800Y-87836983D01*
X90154213Y-87805079D01*
X90053800Y-87840509D01*
X89888406Y-88011780D01*
X89787993Y-88047210D01*
X89765492Y-88687463D02*
X89285932Y-88224357D01*
X89422949Y-88356673D02*
X89321362Y-88324770D01*
X89254029Y-88325945D01*
X89153616Y-88361375D01*
X89087458Y-88429883D01*
X89037755Y-89441057D02*
X88318415Y-88746399D01*
X89003501Y-89407978D02*
X89103913Y-89372549D01*
X89236229Y-89235531D01*
X89268132Y-89133944D01*
X89266957Y-89066611D01*
X89231527Y-88966198D01*
X89026002Y-88767725D01*
X88924414Y-88735821D01*
X88857081Y-88736996D01*
X88756669Y-88772426D01*
X88624353Y-88909443D01*
X88592449Y-89011031D01*
X88705790Y-89716267D02*
X88673886Y-89817854D01*
X88541570Y-89954871D01*
X88441158Y-89990301D01*
X88339571Y-89958397D01*
X88305316Y-89925318D01*
X88269887Y-89824906D01*
X88301790Y-89723318D01*
X88401027Y-89620556D01*
X88432931Y-89518968D01*
X88397501Y-89418556D01*
X88363247Y-89385477D01*
X88261660Y-89353573D01*
X88161247Y-89389003D01*
X88062010Y-89491766D01*
X88030107Y-89593353D01*
X87614184Y-90846658D02*
X87582280Y-90948245D01*
X87449964Y-91085262D01*
X87349552Y-91120692D01*
X87247964Y-91088788D01*
X87213710Y-91055709D01*
X87178281Y-90955297D01*
X87210184Y-90853710D01*
X87309421Y-90750947D01*
X87341325Y-90649359D01*
X87305895Y-90548947D01*
X87271641Y-90515868D01*
X87170053Y-90483964D01*
X87069641Y-90519394D01*
X86970404Y-90622157D01*
X86938501Y-90723744D01*
X86672694Y-90930445D02*
X86408062Y-91204479D01*
X86333677Y-90801655D02*
X86950254Y-91397077D01*
X86985683Y-91497489D01*
X86953780Y-91599077D01*
X86887622Y-91667585D01*
X86357183Y-92148320D02*
X86457595Y-92112891D01*
X86589911Y-91975874D01*
X86621815Y-91874286D01*
X86586385Y-91773874D01*
X86312351Y-91509242D01*
X86210763Y-91477338D01*
X86110351Y-91512768D01*
X85978035Y-91649785D01*
X85946132Y-91751373D01*
X85981561Y-91851785D01*
X86050070Y-91917943D01*
X86449368Y-91641558D01*
X85581088Y-92060836D02*
X86300427Y-92755495D01*
X85615342Y-92093915D02*
X85514930Y-92129345D01*
X85382614Y-92266362D01*
X85350710Y-92367950D01*
X85351885Y-92435283D01*
X85387315Y-92535695D01*
X85592841Y-92734169D01*
X85694428Y-92766073D01*
X85761761Y-92764897D01*
X85862174Y-92729468D01*
X85994490Y-92592451D01*
X86026393Y-92490863D01*
X84952587Y-92711668D02*
X85671927Y-93406326D01*
X84986841Y-92744747D02*
X84886429Y-92780176D01*
X84754113Y-92917193D01*
X84722210Y-93018781D01*
X84723385Y-93086114D01*
X84758815Y-93186526D01*
X84964340Y-93385000D01*
X85065928Y-93416904D01*
X85133261Y-93415728D01*
X85233673Y-93380299D01*
X85365989Y-93243282D01*
X85397893Y-93141694D01*
X84504761Y-94066560D02*
X84605173Y-94031130D01*
X84737489Y-93894113D01*
X84769392Y-93792526D01*
X84733963Y-93692113D01*
X84459929Y-93427482D01*
X84358341Y-93395578D01*
X84257929Y-93431007D01*
X84125613Y-93568025D01*
X84093709Y-93669612D01*
X84129139Y-93770024D01*
X84197647Y-93836182D01*
X84596946Y-93559797D01*
X84208225Y-94442181D02*
X83728665Y-93979076D01*
X83865682Y-94111392D02*
X83764095Y-94079488D01*
X83696762Y-94080663D01*
X83596349Y-94116093D01*
X83530191Y-94184602D01*
%LPC*%
D12*
X98540795Y-85126151D02*
X98555680Y-85157895D01*
X98555680Y-85157895D02*
X98568838Y-85190359D01*
X98568838Y-85190359D02*
X98580290Y-85223464D01*
X98580290Y-85223464D02*
X98590056Y-85257132D01*
X98590056Y-85257132D02*
X98598154Y-85291284D01*
X98598154Y-85291284D02*
X98604605Y-85325842D01*
X98604605Y-85325842D02*
X98609429Y-85360728D01*
X98609429Y-85360728D02*
X98612646Y-85395862D01*
X98612646Y-85395862D02*
X98614274Y-85431166D01*
X98614274Y-85431166D02*
X98614333Y-85466563D01*
X98614333Y-85466563D02*
X98612844Y-85501974D01*
X98612844Y-85501974D02*
X98609826Y-85537319D01*
X98609826Y-85537319D02*
X98605298Y-85572522D01*
X98605298Y-85572522D02*
X98599280Y-85607501D01*
X98599280Y-85607501D02*
X98591794Y-85642182D01*
X98591794Y-85642182D02*
X98582855Y-85676483D01*
X98582855Y-85676483D02*
X99402154Y-85543024D01*
X99402154Y-85543024D02*
X100177600Y-85445600D01*
X100177600Y-85445600D02*
X100918184Y-85376823D01*
X100918184Y-85376823D02*
X101632895Y-85329310D01*
X101632895Y-85329310D02*
X104412822Y-85204191D01*
X104412822Y-85204191D02*
X104428918Y-85202787D01*
X104428918Y-85202787D02*
X104444724Y-85200554D01*
X104444724Y-85200554D02*
X104460226Y-85197516D01*
X104460226Y-85197516D02*
X104475401Y-85193697D01*
X104475401Y-85193697D02*
X104490237Y-85189119D01*
X104490237Y-85189119D02*
X104504713Y-85183809D01*
X104504713Y-85183809D02*
X104518812Y-85177786D01*
X104518812Y-85177786D02*
X104532517Y-85171077D01*
X104532517Y-85171077D02*
X104545811Y-85163704D01*
X104545811Y-85163704D02*
X104558677Y-85155691D01*
X104558677Y-85155691D02*
X104571095Y-85147061D01*
X104571095Y-85147061D02*
X104583049Y-85137839D01*
X104583049Y-85137839D02*
X104594522Y-85128047D01*
X104594522Y-85128047D02*
X104605496Y-85117709D01*
X104605496Y-85117709D02*
X104615953Y-85106849D01*
X104615953Y-85106849D02*
X104625876Y-85095489D01*
X104625876Y-85095489D02*
X104635247Y-85083655D01*
X104635247Y-85083655D02*
X104644050Y-85071369D01*
X104644050Y-85071369D02*
X104652265Y-85058654D01*
X104652265Y-85058654D02*
X104659876Y-85045536D01*
X104659876Y-85045536D02*
X104666866Y-85032035D01*
X104666866Y-85032035D02*
X104673218Y-85018178D01*
X104673218Y-85018178D02*
X104678911Y-85003986D01*
X104678911Y-85003986D02*
X104683932Y-84989484D01*
X104683932Y-84989484D02*
X104688260Y-84974696D01*
X104688260Y-84974696D02*
X104691879Y-84959643D01*
X104691879Y-84959643D02*
X104694771Y-84944352D01*
X104694771Y-84944352D02*
X104696920Y-84928842D01*
X104696920Y-84928842D02*
X104698306Y-84913142D01*
X104698306Y-84913142D02*
X104698914Y-84897271D01*
X104698914Y-84897271D02*
X104698724Y-84881256D01*
X104698724Y-84881256D02*
X104697721Y-84865118D01*
X104697721Y-84865118D02*
X104695904Y-84849034D01*
X104695904Y-84849034D02*
X104693303Y-84833179D01*
X104693303Y-84833179D02*
X104689940Y-84817576D01*
X104689940Y-84817576D02*
X104685835Y-84802251D01*
X104685835Y-84802251D02*
X104681011Y-84787224D01*
X104681011Y-84787224D02*
X104675490Y-84772521D01*
X104675490Y-84772521D02*
X104669292Y-84758165D01*
X104669292Y-84758165D02*
X104662440Y-84744179D01*
X104662440Y-84744179D02*
X104654956Y-84730586D01*
X104654956Y-84730586D02*
X104646861Y-84717411D01*
X104646861Y-84717411D02*
X104638177Y-84704677D01*
X104638177Y-84704677D02*
X104628926Y-84692407D01*
X104628926Y-84692407D02*
X104619130Y-84680624D01*
X104619130Y-84680624D02*
X104608809Y-84669352D01*
X104608809Y-84669352D02*
X104597987Y-84658616D01*
X104597987Y-84658616D02*
X104586684Y-84648437D01*
X104586684Y-84648437D02*
X104574923Y-84638841D01*
X104574923Y-84638841D02*
X104562726Y-84629849D01*
X104562726Y-84629849D02*
X104550113Y-84621486D01*
X104550113Y-84621486D02*
X104537107Y-84613775D01*
X104537107Y-84613775D02*
X104523730Y-84606740D01*
X104523730Y-84606740D02*
X104510002Y-84600405D01*
X104510002Y-84600405D02*
X104495947Y-84594791D01*
X104495947Y-84594791D02*
X104481585Y-84589924D01*
X104481585Y-84589924D02*
X104466938Y-84585826D01*
X104466938Y-84585826D02*
X104452029Y-84582522D01*
X104452029Y-84582522D02*
X104436879Y-84580034D01*
X104436879Y-84580034D02*
X104421509Y-84578387D01*
X104421509Y-84578387D02*
X104405941Y-84577603D01*
X104405941Y-84577603D02*
X104390198Y-84577707D01*
X104390198Y-84577707D02*
X104374301Y-84578720D01*
X104374301Y-84578720D02*
X104358271Y-84580669D01*
X104358271Y-84580669D02*
X102909283Y-84789332D01*
X102909283Y-84789332D02*
X102184626Y-84882361D01*
X102184626Y-84882361D02*
X101459229Y-84964245D01*
X101459229Y-84964245D02*
X100732621Y-85032275D01*
X100732621Y-85032275D02*
X100004327Y-85083741D01*
X100004327Y-85083741D02*
X99273876Y-85115936D01*
X99273876Y-85115936D02*
X98540794Y-85126151D01*
X98540794Y-85126151D02*
X98540795Y-85126151D01*
X98540795Y-85126151D02*
X98540795Y-85126151D01*
G36*
X104421509Y-84578387D02*
G01*
X104436879Y-84580034D01*
X104452029Y-84582522D01*
X104466938Y-84585826D01*
X104481585Y-84589924D01*
X104495947Y-84594791D01*
X104510002Y-84600405D01*
X104523730Y-84606740D01*
X104537107Y-84613775D01*
X104550113Y-84621486D01*
X104562726Y-84629849D01*
X104574923Y-84638841D01*
X104586684Y-84648437D01*
X104597987Y-84658616D01*
X104608809Y-84669352D01*
X104619130Y-84680624D01*
X104628926Y-84692407D01*
X104638177Y-84704677D01*
X104646861Y-84717411D01*
X104654956Y-84730586D01*
X104662440Y-84744179D01*
X104669292Y-84758165D01*
X104675490Y-84772521D01*
X104681011Y-84787224D01*
X104685835Y-84802251D01*
X104689940Y-84817576D01*
X104693303Y-84833179D01*
X104695904Y-84849034D01*
X104697721Y-84865118D01*
X104698724Y-84881256D01*
X104698914Y-84897271D01*
X104698306Y-84913142D01*
X104696920Y-84928842D01*
X104694771Y-84944352D01*
X104691879Y-84959643D01*
X104688260Y-84974696D01*
X104683932Y-84989484D01*
X104678911Y-85003986D01*
X104673218Y-85018178D01*
X104666866Y-85032035D01*
X104659876Y-85045536D01*
X104652265Y-85058654D01*
X104644050Y-85071369D01*
X104635247Y-85083655D01*
X104625876Y-85095489D01*
X104615953Y-85106849D01*
X104605496Y-85117709D01*
X104594522Y-85128047D01*
X104583049Y-85137839D01*
X104571095Y-85147061D01*
X104558677Y-85155691D01*
X104545811Y-85163704D01*
X104532517Y-85171077D01*
X104518812Y-85177786D01*
X104504713Y-85183809D01*
X104490237Y-85189119D01*
X104475401Y-85193697D01*
X104460226Y-85197516D01*
X104444724Y-85200554D01*
X104428918Y-85202787D01*
X104412822Y-85204191D01*
X101632895Y-85329310D01*
X100918184Y-85376823D01*
X100177600Y-85445600D01*
X99402154Y-85543024D01*
X98582855Y-85676483D01*
X98591794Y-85642182D01*
X98599280Y-85607501D01*
X98605298Y-85572522D01*
X98609826Y-85537319D01*
X98612844Y-85501974D01*
X98614333Y-85466563D01*
X98614274Y-85431166D01*
X98612646Y-85395862D01*
X98609429Y-85360728D01*
X98604605Y-85325842D01*
X98598154Y-85291284D01*
X98590056Y-85257132D01*
X98580290Y-85223464D01*
X98568838Y-85190359D01*
X98555680Y-85157895D01*
X98540795Y-85126151D01*
X98540794Y-85126151D01*
X99273876Y-85115936D01*
X100004327Y-85083741D01*
X100732621Y-85032275D01*
X101459229Y-84964245D01*
X102184626Y-84882361D01*
X102909283Y-84789332D01*
X104358271Y-84580669D01*
X104374301Y-84578720D01*
X104390198Y-84577707D01*
X104405941Y-84577603D01*
X104421509Y-84578387D01*
G37*
X104421509Y-84578387D02*
X104436879Y-84580034D01*
X104452029Y-84582522D01*
X104466938Y-84585826D01*
X104481585Y-84589924D01*
X104495947Y-84594791D01*
X104510002Y-84600405D01*
X104523730Y-84606740D01*
X104537107Y-84613775D01*
X104550113Y-84621486D01*
X104562726Y-84629849D01*
X104574923Y-84638841D01*
X104586684Y-84648437D01*
X104597987Y-84658616D01*
X104608809Y-84669352D01*
X104619130Y-84680624D01*
X104628926Y-84692407D01*
X104638177Y-84704677D01*
X104646861Y-84717411D01*
X104654956Y-84730586D01*
X104662440Y-84744179D01*
X104669292Y-84758165D01*
X104675490Y-84772521D01*
X104681011Y-84787224D01*
X104685835Y-84802251D01*
X104689940Y-84817576D01*
X104693303Y-84833179D01*
X104695904Y-84849034D01*
X104697721Y-84865118D01*
X104698724Y-84881256D01*
X104698914Y-84897271D01*
X104698306Y-84913142D01*
X104696920Y-84928842D01*
X104694771Y-84944352D01*
X104691879Y-84959643D01*
X104688260Y-84974696D01*
X104683932Y-84989484D01*
X104678911Y-85003986D01*
X104673218Y-85018178D01*
X104666866Y-85032035D01*
X104659876Y-85045536D01*
X104652265Y-85058654D01*
X104644050Y-85071369D01*
X104635247Y-85083655D01*
X104625876Y-85095489D01*
X104615953Y-85106849D01*
X104605496Y-85117709D01*
X104594522Y-85128047D01*
X104583049Y-85137839D01*
X104571095Y-85147061D01*
X104558677Y-85155691D01*
X104545811Y-85163704D01*
X104532517Y-85171077D01*
X104518812Y-85177786D01*
X104504713Y-85183809D01*
X104490237Y-85189119D01*
X104475401Y-85193697D01*
X104460226Y-85197516D01*
X104444724Y-85200554D01*
X104428918Y-85202787D01*
X104412822Y-85204191D01*
X101632895Y-85329310D01*
X100918184Y-85376823D01*
X100177600Y-85445600D01*
X99402154Y-85543024D01*
X98582855Y-85676483D01*
X98591794Y-85642182D01*
X98599280Y-85607501D01*
X98605298Y-85572522D01*
X98609826Y-85537319D01*
X98612844Y-85501974D01*
X98614333Y-85466563D01*
X98614274Y-85431166D01*
X98612646Y-85395862D01*
X98609429Y-85360728D01*
X98604605Y-85325842D01*
X98598154Y-85291284D01*
X98590056Y-85257132D01*
X98580290Y-85223464D01*
X98568838Y-85190359D01*
X98555680Y-85157895D01*
X98540795Y-85126151D01*
X98540794Y-85126151D01*
X99273876Y-85115936D01*
X100004327Y-85083741D01*
X100732621Y-85032275D01*
X101459229Y-84964245D01*
X102184626Y-84882361D01*
X102909283Y-84789332D01*
X104358271Y-84580669D01*
X104374301Y-84578720D01*
X104390198Y-84577707D01*
X104405941Y-84577603D01*
X104421509Y-84578387D01*
X96347305Y-84871877D02*
X97834226Y-84741788D01*
X97834226Y-84741788D02*
X97920954Y-84738322D01*
X97920954Y-84738322D02*
X98002837Y-84743171D01*
X98002837Y-84743171D02*
X98079814Y-84755815D01*
X98079814Y-84755815D02*
X98151828Y-84775730D01*
X98151828Y-84775730D02*
X98218818Y-84802398D01*
X98218818Y-84802398D02*
X98280728Y-84835295D01*
X98280728Y-84835295D02*
X98337496Y-84873901D01*
X98337496Y-84873901D02*
X98389064Y-84917694D01*
X98389064Y-84917694D02*
X98435373Y-84966151D01*
X98435373Y-84966151D02*
X98476365Y-85018754D01*
X98476365Y-85018754D02*
X98511981Y-85074977D01*
X98511981Y-85074977D02*
X98542160Y-85134303D01*
X98542160Y-85134303D02*
X98566844Y-85196207D01*
X98566844Y-85196207D02*
X98585975Y-85260170D01*
X98585975Y-85260170D02*
X98599494Y-85325669D01*
X98599494Y-85325669D02*
X98607340Y-85392183D01*
X98607340Y-85392183D02*
X98609456Y-85459191D01*
X98609456Y-85459191D02*
X98605783Y-85526171D01*
X98605783Y-85526171D02*
X98596260Y-85592602D01*
X98596260Y-85592602D02*
X98580831Y-85657961D01*
X98580831Y-85657961D02*
X98559434Y-85721729D01*
X98559434Y-85721729D02*
X98532012Y-85783382D01*
X98532012Y-85783382D02*
X98498506Y-85842400D01*
X98498506Y-85842400D02*
X98458857Y-85898262D01*
X98458857Y-85898262D02*
X98413004Y-85950445D01*
X98413004Y-85950445D02*
X98360890Y-85998430D01*
X98360890Y-85998430D02*
X98302456Y-86041692D01*
X98302456Y-86041692D02*
X98237642Y-86079712D01*
X98237642Y-86079712D02*
X98166390Y-86111968D01*
X98166390Y-86111968D02*
X98088641Y-86137939D01*
X98088641Y-86137939D02*
X98004335Y-86157101D01*
X98004335Y-86157101D02*
X97913415Y-86168937D01*
X97913415Y-86168937D02*
X96471817Y-86295060D01*
X96471817Y-86295060D02*
X96424835Y-86288021D01*
X96424835Y-86288021D02*
X96383326Y-86281134D01*
X96383326Y-86281134D02*
X96347400Y-86274266D01*
X96347400Y-86274266D02*
X96317165Y-86267284D01*
X96317165Y-86267284D02*
X96292730Y-86260058D01*
X96292730Y-86260058D02*
X96282723Y-86256312D01*
X96282723Y-86256312D02*
X96274206Y-86252457D01*
X96274206Y-86252457D02*
X96267194Y-86248473D01*
X96267194Y-86248473D02*
X96261700Y-86244347D01*
X96261700Y-86244347D02*
X96257737Y-86240060D01*
X96257737Y-86240060D02*
X96255321Y-86235598D01*
X96255321Y-86235598D02*
X96254463Y-86230942D01*
X96254463Y-86230942D02*
X96255179Y-86226078D01*
X96255179Y-86226078D02*
X96257481Y-86220987D01*
X96257481Y-86220987D02*
X96261382Y-86215655D01*
X96261382Y-86215655D02*
X96266898Y-86210063D01*
X96266898Y-86210063D02*
X96274041Y-86204197D01*
X96274041Y-86204197D02*
X96282823Y-86198039D01*
X96282823Y-86198039D02*
X96293261Y-86191573D01*
X96293261Y-86191573D02*
X96319156Y-86177651D01*
X96319156Y-86177651D02*
X96351831Y-86162298D01*
X96351831Y-86162298D02*
X96391396Y-86145386D01*
X96391396Y-86145386D02*
X96437962Y-86126780D01*
X96437962Y-86126780D02*
X97363130Y-85984734D01*
X97363130Y-85984734D02*
X97404539Y-85970122D01*
X97404539Y-85970122D02*
X97439889Y-85955818D01*
X97439889Y-85955818D02*
X97455322Y-85948802D01*
X97455322Y-85948802D02*
X97469275Y-85941885D01*
X97469275Y-85941885D02*
X97481760Y-85935076D01*
X97481760Y-85935076D02*
X97492790Y-85928383D01*
X97492790Y-85928383D02*
X97502375Y-85921814D01*
X97502375Y-85921814D02*
X97510526Y-85915375D01*
X97510526Y-85915375D02*
X97517258Y-85909075D01*
X97517258Y-85909075D02*
X97522581Y-85902922D01*
X97522581Y-85902922D02*
X97526505Y-85896922D01*
X97526505Y-85896922D02*
X97529044Y-85891084D01*
X97529044Y-85891084D02*
X97530209Y-85885414D01*
X97530209Y-85885414D02*
X97530012Y-85879923D01*
X97530012Y-85879923D02*
X97528464Y-85874615D01*
X97528464Y-85874615D02*
X97525577Y-85869501D01*
X97525577Y-85869501D02*
X97521363Y-85864586D01*
X97521363Y-85864586D02*
X97515835Y-85859879D01*
X97515835Y-85859879D02*
X97509001Y-85855387D01*
X97509001Y-85855387D02*
X97500876Y-85851117D01*
X97500876Y-85851117D02*
X97491472Y-85847080D01*
X97491472Y-85847080D02*
X97480798Y-85843280D01*
X97480798Y-85843280D02*
X97468867Y-85839726D01*
X97468867Y-85839726D02*
X97455692Y-85836425D01*
X97455692Y-85836425D02*
X97441282Y-85833386D01*
X97441282Y-85833386D02*
X97425651Y-85830616D01*
X97425651Y-85830616D02*
X97390773Y-85825914D01*
X97390773Y-85825914D02*
X97351147Y-85822379D01*
X97351147Y-85822379D02*
X97237549Y-85818627D01*
X97237549Y-85818627D02*
X97099940Y-85820037D01*
X97099940Y-85820037D02*
X96950386Y-85825171D01*
X96950386Y-85825171D02*
X96800959Y-85832595D01*
X96800959Y-85832595D02*
X96445907Y-85856434D01*
X96445907Y-85856434D02*
X96390675Y-85852529D01*
X96390675Y-85852529D02*
X96342915Y-85847613D01*
X96342915Y-85847613D02*
X96302590Y-85841721D01*
X96302590Y-85841721D02*
X96269663Y-85834886D01*
X96269663Y-85834886D02*
X96255963Y-85831126D01*
X96255963Y-85831126D02*
X96244096Y-85827142D01*
X96244096Y-85827142D02*
X96234061Y-85822939D01*
X96234061Y-85822939D02*
X96225852Y-85818523D01*
X96225852Y-85818523D02*
X96219463Y-85813896D01*
X96219463Y-85813896D02*
X96214891Y-85809064D01*
X96214891Y-85809064D02*
X96212131Y-85804030D01*
X96212131Y-85804030D02*
X96211179Y-85798798D01*
X96211179Y-85798798D02*
X96212027Y-85793373D01*
X96212027Y-85793373D02*
X96214675Y-85787759D01*
X96214675Y-85787759D02*
X96219114Y-85781960D01*
X96219114Y-85781960D02*
X96225343Y-85775982D01*
X96225343Y-85775982D02*
X96233355Y-85769827D01*
X96233355Y-85769827D02*
X96243145Y-85763500D01*
X96243145Y-85763500D02*
X96254710Y-85757005D01*
X96254710Y-85757005D02*
X96268044Y-85750346D01*
X96268044Y-85750346D02*
X96300003Y-85736558D01*
X96300003Y-85736558D02*
X96338982Y-85722166D01*
X96338982Y-85722166D02*
X96384946Y-85707205D01*
X96384946Y-85707205D02*
X96437856Y-85691708D01*
X96437856Y-85691708D02*
X97332111Y-85579512D01*
X97332111Y-85579512D02*
X97354985Y-85573786D01*
X97354985Y-85573786D02*
X97376284Y-85567908D01*
X97376284Y-85567908D02*
X97396012Y-85561895D01*
X97396012Y-85561895D02*
X97414175Y-85555767D01*
X97414175Y-85555767D02*
X97430778Y-85549540D01*
X97430778Y-85549540D02*
X97445827Y-85543235D01*
X97445827Y-85543235D02*
X97459327Y-85536868D01*
X97459327Y-85536868D02*
X97471284Y-85530458D01*
X97471284Y-85530458D02*
X97481704Y-85524025D01*
X97481704Y-85524025D02*
X97490592Y-85517586D01*
X97490592Y-85517586D02*
X97497954Y-85511160D01*
X97497954Y-85511160D02*
X97503794Y-85504764D01*
X97503794Y-85504764D02*
X97508119Y-85498417D01*
X97508119Y-85498417D02*
X97510933Y-85492139D01*
X97510933Y-85492139D02*
X97512245Y-85485946D01*
X97512245Y-85485946D02*
X97512056Y-85479858D01*
X97512056Y-85479858D02*
X97510375Y-85473893D01*
X97510375Y-85473893D02*
X97507205Y-85468069D01*
X97507205Y-85468069D02*
X97502554Y-85462405D01*
X97502554Y-85462405D02*
X97496426Y-85456919D01*
X97496426Y-85456919D02*
X97488827Y-85451629D01*
X97488827Y-85451629D02*
X97479761Y-85446554D01*
X97479761Y-85446554D02*
X97469236Y-85441712D01*
X97469236Y-85441712D02*
X97457256Y-85437122D01*
X97457256Y-85437122D02*
X97443826Y-85432801D01*
X97443826Y-85432801D02*
X97428954Y-85428769D01*
X97428954Y-85428769D02*
X97412644Y-85425043D01*
X97412644Y-85425043D02*
X97394901Y-85421643D01*
X97394901Y-85421643D02*
X97375730Y-85418586D01*
X97375730Y-85418586D02*
X97355139Y-85415890D01*
X97355139Y-85415890D02*
X97333132Y-85413574D01*
X97333132Y-85413574D02*
X97309713Y-85411658D01*
X97309713Y-85411658D02*
X96402631Y-85486484D01*
X96402631Y-85486484D02*
X96347201Y-85482079D01*
X96347201Y-85482079D02*
X96322325Y-85479251D01*
X96322325Y-85479251D02*
X96299334Y-85476027D01*
X96299334Y-85476027D02*
X96278222Y-85472425D01*
X96278222Y-85472425D02*
X96258987Y-85468460D01*
X96258987Y-85468460D02*
X96241621Y-85464148D01*
X96241621Y-85464148D02*
X96226120Y-85459506D01*
X96226120Y-85459506D02*
X96212478Y-85454549D01*
X96212478Y-85454549D02*
X96200691Y-85449294D01*
X96200691Y-85449294D02*
X96190753Y-85443757D01*
X96190753Y-85443757D02*
X96182659Y-85437954D01*
X96182659Y-85437954D02*
X96176405Y-85431902D01*
X96176405Y-85431902D02*
X96171984Y-85425617D01*
X96171984Y-85425617D02*
X96169392Y-85419114D01*
X96169392Y-85419114D02*
X96168623Y-85412411D01*
X96168623Y-85412411D02*
X96169672Y-85405522D01*
X96169672Y-85405522D02*
X96172535Y-85398465D01*
X96172535Y-85398465D02*
X96177206Y-85391255D01*
X96177206Y-85391255D02*
X96183679Y-85383909D01*
X96183679Y-85383909D02*
X96191950Y-85376443D01*
X96191950Y-85376443D02*
X96202014Y-85368872D01*
X96202014Y-85368872D02*
X96213865Y-85361214D01*
X96213865Y-85361214D02*
X96227498Y-85353484D01*
X96227498Y-85353484D02*
X96242908Y-85345699D01*
X96242908Y-85345699D02*
X96260091Y-85337875D01*
X96260091Y-85337875D02*
X96279040Y-85330028D01*
X96279040Y-85330028D02*
X96299750Y-85322174D01*
X96299750Y-85322174D02*
X96346435Y-85306510D01*
X96346435Y-85306510D02*
X96400104Y-85291013D01*
X96400104Y-85291013D02*
X96504325Y-85282058D01*
X96504325Y-85282058D02*
X96752278Y-85257338D01*
X96752278Y-85257338D02*
X96899824Y-85240069D01*
X96899824Y-85240069D02*
X97046903Y-85220065D01*
X97046903Y-85220065D02*
X97116477Y-85209162D01*
X97116477Y-85209162D02*
X97181385Y-85197726D01*
X97181385Y-85197726D02*
X97240110Y-85185806D01*
X97240110Y-85185806D02*
X97291136Y-85173453D01*
X97291136Y-85173453D02*
X97315976Y-85168149D01*
X97315976Y-85168149D02*
X97338754Y-85162708D01*
X97338754Y-85162708D02*
X97359513Y-85157146D01*
X97359513Y-85157146D02*
X97378292Y-85151481D01*
X97378292Y-85151481D02*
X97395136Y-85145728D01*
X97395136Y-85145728D02*
X97410083Y-85139904D01*
X97410083Y-85139904D02*
X97423179Y-85134026D01*
X97423179Y-85134026D02*
X97434462Y-85128112D01*
X97434462Y-85128112D02*
X97443977Y-85122177D01*
X97443977Y-85122177D02*
X97451763Y-85116237D01*
X97451763Y-85116237D02*
X97457864Y-85110311D01*
X97457864Y-85110311D02*
X97462321Y-85104415D01*
X97462321Y-85104415D02*
X97465175Y-85098565D01*
X97465175Y-85098565D02*
X97466469Y-85092778D01*
X97466469Y-85092778D02*
X97466243Y-85087070D01*
X97466243Y-85087070D02*
X97464542Y-85081459D01*
X97464542Y-85081459D02*
X97461405Y-85075962D01*
X97461405Y-85075962D02*
X97456874Y-85070593D01*
X97456874Y-85070593D02*
X97450992Y-85065372D01*
X97450992Y-85065372D02*
X97443800Y-85060314D01*
X97443800Y-85060314D02*
X97435340Y-85055436D01*
X97435340Y-85055436D02*
X97425654Y-85050754D01*
X97425654Y-85050754D02*
X97414783Y-85046286D01*
X97414783Y-85046286D02*
X97402770Y-85042048D01*
X97402770Y-85042048D02*
X97375482Y-85034328D01*
X97375482Y-85034328D02*
X97344126Y-85027730D01*
X97344126Y-85027730D02*
X97309035Y-85022386D01*
X97309035Y-85022386D02*
X97270543Y-85018430D01*
X97270543Y-85018430D02*
X97211471Y-85014795D01*
X97211471Y-85014795D02*
X97147583Y-85012805D01*
X97147583Y-85012805D02*
X97009486Y-85012986D01*
X97009486Y-85012986D02*
X96864492Y-85017422D01*
X96864492Y-85017422D02*
X96720841Y-85024563D01*
X96720841Y-85024563D02*
X96324440Y-85049188D01*
X96324440Y-85049188D02*
X96296395Y-85048007D01*
X96296395Y-85048007D02*
X96270779Y-85046071D01*
X96270779Y-85046071D02*
X96247533Y-85043427D01*
X96247533Y-85043427D02*
X96226600Y-85040122D01*
X96226600Y-85040122D02*
X96207924Y-85036204D01*
X96207924Y-85036204D02*
X96191446Y-85031720D01*
X96191446Y-85031720D02*
X96177110Y-85026717D01*
X96177110Y-85026717D02*
X96164858Y-85021243D01*
X96164858Y-85021243D02*
X96154633Y-85015346D01*
X96154633Y-85015346D02*
X96146379Y-85009072D01*
X96146379Y-85009072D02*
X96140036Y-85002470D01*
X96140036Y-85002470D02*
X96135550Y-84995587D01*
X96135550Y-84995587D02*
X96132862Y-84988469D01*
X96132862Y-84988469D02*
X96131914Y-84981165D01*
X96131914Y-84981165D02*
X96132650Y-84973723D01*
X96132650Y-84973723D02*
X96135013Y-84966188D01*
X96135013Y-84966188D02*
X96138944Y-84958609D01*
X96138944Y-84958609D02*
X96144388Y-84951034D01*
X96144388Y-84951034D02*
X96151287Y-84943509D01*
X96151287Y-84943509D02*
X96159583Y-84936082D01*
X96159583Y-84936082D02*
X96169220Y-84928801D01*
X96169220Y-84928801D02*
X96180138Y-84921713D01*
X96180138Y-84921713D02*
X96192284Y-84914865D01*
X96192284Y-84914865D02*
X96205598Y-84908305D01*
X96205598Y-84908305D02*
X96220022Y-84902080D01*
X96220022Y-84902080D02*
X96235502Y-84896238D01*
X96235502Y-84896238D02*
X96251977Y-84890826D01*
X96251977Y-84890826D02*
X96269393Y-84885891D01*
X96269393Y-84885891D02*
X96287690Y-84881482D01*
X96287690Y-84881482D02*
X96306813Y-84877645D01*
X96306813Y-84877645D02*
X96326704Y-84874427D01*
X96326704Y-84874427D02*
X96347305Y-84871877D01*
X96347305Y-84871877D02*
X96347305Y-84871877D01*
G36*
X98002837Y-84743171D02*
G01*
X98079814Y-84755815D01*
X98151828Y-84775730D01*
X98218818Y-84802398D01*
X98280728Y-84835295D01*
X98337496Y-84873901D01*
X98389064Y-84917694D01*
X98435373Y-84966151D01*
X98476365Y-85018754D01*
X98511981Y-85074977D01*
X98542160Y-85134303D01*
X98566844Y-85196207D01*
X98585975Y-85260170D01*
X98599494Y-85325669D01*
X98607340Y-85392183D01*
X98609456Y-85459191D01*
X98605783Y-85526171D01*
X98596260Y-85592602D01*
X98580831Y-85657961D01*
X98559434Y-85721729D01*
X98532012Y-85783382D01*
X98498506Y-85842400D01*
X98458857Y-85898262D01*
X98413004Y-85950445D01*
X98360890Y-85998430D01*
X98302456Y-86041692D01*
X98237642Y-86079712D01*
X98166390Y-86111968D01*
X98088641Y-86137939D01*
X98004335Y-86157101D01*
X97913415Y-86168937D01*
X96471817Y-86295060D01*
X96424835Y-86288021D01*
X96383326Y-86281134D01*
X96347400Y-86274266D01*
X96317165Y-86267284D01*
X96292730Y-86260058D01*
X96282723Y-86256312D01*
X96274206Y-86252457D01*
X96267194Y-86248473D01*
X96261700Y-86244347D01*
X96257737Y-86240060D01*
X96255321Y-86235598D01*
X96254463Y-86230942D01*
X96255179Y-86226078D01*
X96257481Y-86220987D01*
X96261382Y-86215655D01*
X96266898Y-86210063D01*
X96274041Y-86204197D01*
X96282823Y-86198039D01*
X96293261Y-86191573D01*
X96319156Y-86177651D01*
X96351831Y-86162298D01*
X96391396Y-86145386D01*
X96437962Y-86126780D01*
X97363130Y-85984734D01*
X97404539Y-85970122D01*
X97439889Y-85955818D01*
X97455322Y-85948802D01*
X97469275Y-85941885D01*
X97481760Y-85935076D01*
X97492790Y-85928383D01*
X97502375Y-85921814D01*
X97510526Y-85915375D01*
X97517258Y-85909075D01*
X97522581Y-85902922D01*
X97526505Y-85896922D01*
X97529044Y-85891084D01*
X97530209Y-85885414D01*
X97530012Y-85879923D01*
X97528464Y-85874615D01*
X97525577Y-85869501D01*
X97521363Y-85864586D01*
X97515835Y-85859879D01*
X97509001Y-85855387D01*
X97500876Y-85851117D01*
X97491472Y-85847080D01*
X97480798Y-85843280D01*
X97468867Y-85839726D01*
X97455692Y-85836425D01*
X97441282Y-85833386D01*
X97425651Y-85830616D01*
X97390773Y-85825914D01*
X97351147Y-85822379D01*
X97237549Y-85818627D01*
X97099940Y-85820037D01*
X96950386Y-85825171D01*
X96800959Y-85832595D01*
X96445907Y-85856434D01*
X96390675Y-85852529D01*
X96342915Y-85847613D01*
X96302590Y-85841721D01*
X96269663Y-85834886D01*
X96255963Y-85831126D01*
X96244096Y-85827142D01*
X96234061Y-85822939D01*
X96225852Y-85818523D01*
X96219463Y-85813896D01*
X96214891Y-85809064D01*
X96212131Y-85804030D01*
X96211179Y-85798798D01*
X96212027Y-85793373D01*
X96214675Y-85787759D01*
X96219114Y-85781960D01*
X96225343Y-85775982D01*
X96233355Y-85769827D01*
X96243145Y-85763500D01*
X96254710Y-85757005D01*
X96268044Y-85750346D01*
X96300003Y-85736558D01*
X96338982Y-85722166D01*
X96384946Y-85707205D01*
X96437856Y-85691708D01*
X97332111Y-85579512D01*
X97354985Y-85573786D01*
X97376284Y-85567908D01*
X97396012Y-85561895D01*
X97414175Y-85555767D01*
X97430778Y-85549540D01*
X97445827Y-85543235D01*
X97459327Y-85536868D01*
X97471284Y-85530458D01*
X97481704Y-85524025D01*
X97490592Y-85517586D01*
X97497954Y-85511160D01*
X97503794Y-85504764D01*
X97508119Y-85498417D01*
X97510933Y-85492139D01*
X97512245Y-85485946D01*
X97512056Y-85479858D01*
X97510375Y-85473893D01*
X97507205Y-85468069D01*
X97502554Y-85462405D01*
X97496426Y-85456919D01*
X97488827Y-85451629D01*
X97479761Y-85446554D01*
X97469236Y-85441712D01*
X97457256Y-85437122D01*
X97443826Y-85432801D01*
X97428954Y-85428769D01*
X97412644Y-85425043D01*
X97394901Y-85421643D01*
X97375730Y-85418586D01*
X97355139Y-85415890D01*
X97333132Y-85413574D01*
X97309713Y-85411658D01*
X96402631Y-85486484D01*
X96347201Y-85482079D01*
X96322325Y-85479251D01*
X96299334Y-85476027D01*
X96278222Y-85472425D01*
X96258987Y-85468460D01*
X96241621Y-85464148D01*
X96226120Y-85459506D01*
X96212478Y-85454549D01*
X96200691Y-85449294D01*
X96190753Y-85443757D01*
X96182659Y-85437954D01*
X96176405Y-85431902D01*
X96171984Y-85425617D01*
X96169392Y-85419114D01*
X96168623Y-85412411D01*
X96169672Y-85405522D01*
X96172535Y-85398465D01*
X96177206Y-85391255D01*
X96183679Y-85383909D01*
X96191950Y-85376443D01*
X96202014Y-85368872D01*
X96213865Y-85361214D01*
X96227498Y-85353484D01*
X96242908Y-85345699D01*
X96260091Y-85337875D01*
X96279040Y-85330028D01*
X96299750Y-85322174D01*
X96346435Y-85306510D01*
X96400104Y-85291013D01*
X96504325Y-85282058D01*
X96752278Y-85257338D01*
X96899824Y-85240069D01*
X97046903Y-85220065D01*
X97116477Y-85209162D01*
X97181385Y-85197726D01*
X97240110Y-85185806D01*
X97291136Y-85173453D01*
X97315976Y-85168149D01*
X97338754Y-85162708D01*
X97359513Y-85157146D01*
X97378292Y-85151481D01*
X97395136Y-85145728D01*
X97410083Y-85139904D01*
X97423179Y-85134026D01*
X97434462Y-85128112D01*
X97443977Y-85122177D01*
X97451763Y-85116237D01*
X97457864Y-85110311D01*
X97462321Y-85104415D01*
X97465175Y-85098565D01*
X97466469Y-85092778D01*
X97466243Y-85087070D01*
X97464542Y-85081459D01*
X97461405Y-85075962D01*
X97456874Y-85070593D01*
X97450992Y-85065372D01*
X97443800Y-85060314D01*
X97435340Y-85055436D01*
X97425654Y-85050754D01*
X97414783Y-85046286D01*
X97402770Y-85042048D01*
X97375482Y-85034328D01*
X97344126Y-85027730D01*
X97309035Y-85022386D01*
X97270543Y-85018430D01*
X97211471Y-85014795D01*
X97147583Y-85012805D01*
X97009486Y-85012986D01*
X96864492Y-85017422D01*
X96720841Y-85024563D01*
X96324440Y-85049188D01*
X96296395Y-85048007D01*
X96270779Y-85046071D01*
X96247533Y-85043427D01*
X96226600Y-85040122D01*
X96207924Y-85036204D01*
X96191446Y-85031720D01*
X96177110Y-85026717D01*
X96164858Y-85021243D01*
X96154633Y-85015346D01*
X96146379Y-85009072D01*
X96140036Y-85002470D01*
X96135550Y-84995587D01*
X96132862Y-84988469D01*
X96131914Y-84981165D01*
X96132650Y-84973723D01*
X96135013Y-84966188D01*
X96138944Y-84958609D01*
X96144388Y-84951034D01*
X96151287Y-84943509D01*
X96159583Y-84936082D01*
X96169220Y-84928801D01*
X96180138Y-84921713D01*
X96192284Y-84914865D01*
X96205598Y-84908305D01*
X96220022Y-84902080D01*
X96235502Y-84896238D01*
X96251977Y-84890826D01*
X96269393Y-84885891D01*
X96287690Y-84881482D01*
X96306813Y-84877645D01*
X96326704Y-84874427D01*
X96347305Y-84871877D01*
X97834226Y-84741788D01*
X97920954Y-84738322D01*
X98002837Y-84743171D01*
G37*
X98002837Y-84743171D02*
X98079814Y-84755815D01*
X98151828Y-84775730D01*
X98218818Y-84802398D01*
X98280728Y-84835295D01*
X98337496Y-84873901D01*
X98389064Y-84917694D01*
X98435373Y-84966151D01*
X98476365Y-85018754D01*
X98511981Y-85074977D01*
X98542160Y-85134303D01*
X98566844Y-85196207D01*
X98585975Y-85260170D01*
X98599494Y-85325669D01*
X98607340Y-85392183D01*
X98609456Y-85459191D01*
X98605783Y-85526171D01*
X98596260Y-85592602D01*
X98580831Y-85657961D01*
X98559434Y-85721729D01*
X98532012Y-85783382D01*
X98498506Y-85842400D01*
X98458857Y-85898262D01*
X98413004Y-85950445D01*
X98360890Y-85998430D01*
X98302456Y-86041692D01*
X98237642Y-86079712D01*
X98166390Y-86111968D01*
X98088641Y-86137939D01*
X98004335Y-86157101D01*
X97913415Y-86168937D01*
X96471817Y-86295060D01*
X96424835Y-86288021D01*
X96383326Y-86281134D01*
X96347400Y-86274266D01*
X96317165Y-86267284D01*
X96292730Y-86260058D01*
X96282723Y-86256312D01*
X96274206Y-86252457D01*
X96267194Y-86248473D01*
X96261700Y-86244347D01*
X96257737Y-86240060D01*
X96255321Y-86235598D01*
X96254463Y-86230942D01*
X96255179Y-86226078D01*
X96257481Y-86220987D01*
X96261382Y-86215655D01*
X96266898Y-86210063D01*
X96274041Y-86204197D01*
X96282823Y-86198039D01*
X96293261Y-86191573D01*
X96319156Y-86177651D01*
X96351831Y-86162298D01*
X96391396Y-86145386D01*
X96437962Y-86126780D01*
X97363130Y-85984734D01*
X97404539Y-85970122D01*
X97439889Y-85955818D01*
X97455322Y-85948802D01*
X97469275Y-85941885D01*
X97481760Y-85935076D01*
X97492790Y-85928383D01*
X97502375Y-85921814D01*
X97510526Y-85915375D01*
X97517258Y-85909075D01*
X97522581Y-85902922D01*
X97526505Y-85896922D01*
X97529044Y-85891084D01*
X97530209Y-85885414D01*
X97530012Y-85879923D01*
X97528464Y-85874615D01*
X97525577Y-85869501D01*
X97521363Y-85864586D01*
X97515835Y-85859879D01*
X97509001Y-85855387D01*
X97500876Y-85851117D01*
X97491472Y-85847080D01*
X97480798Y-85843280D01*
X97468867Y-85839726D01*
X97455692Y-85836425D01*
X97441282Y-85833386D01*
X97425651Y-85830616D01*
X97390773Y-85825914D01*
X97351147Y-85822379D01*
X97237549Y-85818627D01*
X97099940Y-85820037D01*
X96950386Y-85825171D01*
X96800959Y-85832595D01*
X96445907Y-85856434D01*
X96390675Y-85852529D01*
X96342915Y-85847613D01*
X96302590Y-85841721D01*
X96269663Y-85834886D01*
X96255963Y-85831126D01*
X96244096Y-85827142D01*
X96234061Y-85822939D01*
X96225852Y-85818523D01*
X96219463Y-85813896D01*
X96214891Y-85809064D01*
X96212131Y-85804030D01*
X96211179Y-85798798D01*
X96212027Y-85793373D01*
X96214675Y-85787759D01*
X96219114Y-85781960D01*
X96225343Y-85775982D01*
X96233355Y-85769827D01*
X96243145Y-85763500D01*
X96254710Y-85757005D01*
X96268044Y-85750346D01*
X96300003Y-85736558D01*
X96338982Y-85722166D01*
X96384946Y-85707205D01*
X96437856Y-85691708D01*
X97332111Y-85579512D01*
X97354985Y-85573786D01*
X97376284Y-85567908D01*
X97396012Y-85561895D01*
X97414175Y-85555767D01*
X97430778Y-85549540D01*
X97445827Y-85543235D01*
X97459327Y-85536868D01*
X97471284Y-85530458D01*
X97481704Y-85524025D01*
X97490592Y-85517586D01*
X97497954Y-85511160D01*
X97503794Y-85504764D01*
X97508119Y-85498417D01*
X97510933Y-85492139D01*
X97512245Y-85485946D01*
X97512056Y-85479858D01*
X97510375Y-85473893D01*
X97507205Y-85468069D01*
X97502554Y-85462405D01*
X97496426Y-85456919D01*
X97488827Y-85451629D01*
X97479761Y-85446554D01*
X97469236Y-85441712D01*
X97457256Y-85437122D01*
X97443826Y-85432801D01*
X97428954Y-85428769D01*
X97412644Y-85425043D01*
X97394901Y-85421643D01*
X97375730Y-85418586D01*
X97355139Y-85415890D01*
X97333132Y-85413574D01*
X97309713Y-85411658D01*
X96402631Y-85486484D01*
X96347201Y-85482079D01*
X96322325Y-85479251D01*
X96299334Y-85476027D01*
X96278222Y-85472425D01*
X96258987Y-85468460D01*
X96241621Y-85464148D01*
X96226120Y-85459506D01*
X96212478Y-85454549D01*
X96200691Y-85449294D01*
X96190753Y-85443757D01*
X96182659Y-85437954D01*
X96176405Y-85431902D01*
X96171984Y-85425617D01*
X96169392Y-85419114D01*
X96168623Y-85412411D01*
X96169672Y-85405522D01*
X96172535Y-85398465D01*
X96177206Y-85391255D01*
X96183679Y-85383909D01*
X96191950Y-85376443D01*
X96202014Y-85368872D01*
X96213865Y-85361214D01*
X96227498Y-85353484D01*
X96242908Y-85345699D01*
X96260091Y-85337875D01*
X96279040Y-85330028D01*
X96299750Y-85322174D01*
X96346435Y-85306510D01*
X96400104Y-85291013D01*
X96504325Y-85282058D01*
X96752278Y-85257338D01*
X96899824Y-85240069D01*
X97046903Y-85220065D01*
X97116477Y-85209162D01*
X97181385Y-85197726D01*
X97240110Y-85185806D01*
X97291136Y-85173453D01*
X97315976Y-85168149D01*
X97338754Y-85162708D01*
X97359513Y-85157146D01*
X97378292Y-85151481D01*
X97395136Y-85145728D01*
X97410083Y-85139904D01*
X97423179Y-85134026D01*
X97434462Y-85128112D01*
X97443977Y-85122177D01*
X97451763Y-85116237D01*
X97457864Y-85110311D01*
X97462321Y-85104415D01*
X97465175Y-85098565D01*
X97466469Y-85092778D01*
X97466243Y-85087070D01*
X97464542Y-85081459D01*
X97461405Y-85075962D01*
X97456874Y-85070593D01*
X97450992Y-85065372D01*
X97443800Y-85060314D01*
X97435340Y-85055436D01*
X97425654Y-85050754D01*
X97414783Y-85046286D01*
X97402770Y-85042048D01*
X97375482Y-85034328D01*
X97344126Y-85027730D01*
X97309035Y-85022386D01*
X97270543Y-85018430D01*
X97211471Y-85014795D01*
X97147583Y-85012805D01*
X97009486Y-85012986D01*
X96864492Y-85017422D01*
X96720841Y-85024563D01*
X96324440Y-85049188D01*
X96296395Y-85048007D01*
X96270779Y-85046071D01*
X96247533Y-85043427D01*
X96226600Y-85040122D01*
X96207924Y-85036204D01*
X96191446Y-85031720D01*
X96177110Y-85026717D01*
X96164858Y-85021243D01*
X96154633Y-85015346D01*
X96146379Y-85009072D01*
X96140036Y-85002470D01*
X96135550Y-84995587D01*
X96132862Y-84988469D01*
X96131914Y-84981165D01*
X96132650Y-84973723D01*
X96135013Y-84966188D01*
X96138944Y-84958609D01*
X96144388Y-84951034D01*
X96151287Y-84943509D01*
X96159583Y-84936082D01*
X96169220Y-84928801D01*
X96180138Y-84921713D01*
X96192284Y-84914865D01*
X96205598Y-84908305D01*
X96220022Y-84902080D01*
X96235502Y-84896238D01*
X96251977Y-84890826D01*
X96269393Y-84885891D01*
X96287690Y-84881482D01*
X96306813Y-84877645D01*
X96326704Y-84874427D01*
X96347305Y-84871877D01*
X97834226Y-84741788D01*
X97920954Y-84738322D01*
X98002837Y-84743171D01*
D13*
%TO.C,J1*%
X86330229Y-83865589D03*
D14*
X84916015Y-85279803D03*
X83501802Y-86694016D03*
X82087588Y-88108230D03*
%TD*%
D15*
%TO.C,J2*%
X90333317Y-114208377D03*
D16*
X94848159Y-114935429D03*
D17*
X94327214Y-111981006D03*
%TD*%
D18*
%TO.C,J3*%
X84429600Y-105359200D03*
D19*
X84776896Y-107328816D03*
%TD*%
D20*
%TO.C,J4*%
X122478800Y-107340400D03*
D21*
X122131504Y-109310016D03*
%TD*%
D22*
%TO.C,J5*%
X78130400Y-108508800D03*
D23*
X77783104Y-106539184D03*
%TD*%
D20*
%TO.C,J6*%
X116974612Y-106324400D03*
D21*
X116627316Y-108294016D03*
%TD*%
D24*
%TO.C,J10*%
X100279200Y-112706400D03*
D25*
X102279200Y-112706400D03*
X100279200Y-114706400D03*
X102279200Y-114706400D03*
X100279200Y-116706400D03*
X102279200Y-116706400D03*
%TD*%
D26*
%TO.C,J12*%
X106984800Y-113842800D03*
D27*
X108623104Y-112695647D03*
X110261408Y-111548494D03*
%TD*%
D28*
%TO.C,J13*%
X98653600Y-107696000D03*
D29*
X101193600Y-107696000D03*
X103733600Y-107696000D03*
X106273600Y-107696000D03*
X108813600Y-107696000D03*
%TD*%
D30*
%TO.C,H1*%
X121920000Y-100000000D03*
%TD*%
D31*
%TO.C,J8*%
X103378000Y-103682800D03*
D32*
X101378000Y-103682800D03*
X99378000Y-103682800D03*
%TD*%
D33*
%TO.C,J7*%
X83625600Y-99739200D03*
D34*
X83625600Y-97739200D03*
X83625600Y-95739200D03*
%TD*%
D30*
%TO.C,H2*%
X78080000Y-100000000D03*
%TD*%
D15*
%TO.C,J9*%
X109299600Y-92651400D03*
X92599600Y-92651400D03*
D35*
X90439600Y-96971400D03*
D36*
X93439600Y-96971400D03*
X96439600Y-96971400D03*
X99439600Y-96971400D03*
X102439600Y-96971400D03*
X105439600Y-96971400D03*
X108439600Y-96971400D03*
X111439600Y-96971400D03*
X90439600Y-99971400D03*
X93439600Y-99971400D03*
X96439600Y-99971400D03*
X99439600Y-99971400D03*
X102439600Y-99971400D03*
X105439600Y-99971400D03*
X108439600Y-99971400D03*
X111439600Y-99971400D03*
%TD*%
M02*
