M48
; DRILL file {KiCad (6.0.1)} date Mon Mar 14 16:44:20 2022
; FORMAT={-:-/ absolute / metric / decimal}
; #@! TF.CreationDate,2022-03-14T16:44:20+09:00
; #@! TF.GenerationSoftware,Kicad,Pcbnew,(6.0.1)
; #@! TF.FileFunction,Plated,1,2,PTH
FMAT,2
METRIC
; #@! TA.AperFunction,Plated,PTH,ViaDrill
T1C0.400
; #@! TA.AperFunction,Plated,PTH,ComponentDrill
T2C0.750
; #@! TA.AperFunction,Plated,PTH,ComponentDrill
T3C0.800
; #@! TA.AperFunction,Plated,PTH,ComponentDrill
T4C1.000
; #@! TA.AperFunction,Plated,PTH,ComponentDrill
T5C1.020
; #@! TA.AperFunction,Plated,PTH,ComponentDrill
T6C3.200
%
G90
G05
T1
X86.36Y-87.478
X87.478Y-104.191
X88.798Y-109.169
X88.798Y-111.608
X90.322Y-91.745
X94.894Y-93.726
X105.468Y-116.39
X105.664Y-104.394
X113.538Y-108.204
T2
X77.783Y-106.539
X78.13Y-108.509
X82.088Y-88.108
X83.502Y-86.694
X83.626Y-95.739
X83.626Y-97.739
X83.626Y-99.739
X84.43Y-105.359
X84.777Y-107.329
X84.916Y-85.28
X86.33Y-83.866
X99.378Y-103.683
X101.378Y-103.683
X103.378Y-103.683
X106.985Y-113.843
X108.623Y-112.696
X110.261Y-111.548
X116.627Y-108.294
X116.975Y-106.324
X122.132Y-109.31
X122.479Y-107.34
T3
X100.279Y-112.706
X100.279Y-114.706
X100.279Y-116.706
X102.279Y-112.706
X102.279Y-114.706
X102.279Y-116.706
T4
X98.654Y-107.696
X101.194Y-107.696
X103.734Y-107.696
X106.274Y-107.696
X108.814Y-107.696
T5
X90.44Y-96.971
X90.44Y-99.971
X93.44Y-96.971
X93.44Y-99.971
X94.327Y-111.981
X94.848Y-114.935
X96.44Y-96.971
X96.44Y-99.971
X99.44Y-96.971
X99.44Y-99.971
X102.44Y-96.971
X102.44Y-99.971
X105.44Y-96.971
X105.44Y-99.971
X108.44Y-96.971
X108.44Y-99.971
X111.44Y-96.971
X111.44Y-99.971
T6
X78.08Y-100.0
X121.92Y-100.0
T0
M30
