%TF.GenerationSoftware,KiCad,Pcbnew,(6.0.1)*%
%TF.CreationDate,2022-03-03T23:01:05+09:00*%
%TF.ProjectId,v0_miniAB_pancake_board,76305f6d-696e-4694-9142-5f70616e6361,rev?*%
%TF.SameCoordinates,Original*%
%TF.FileFunction,Copper,L2,Bot*%
%TF.FilePolarity,Positive*%
%FSLAX46Y46*%
G04 Gerber Fmt 4.6, Leading zero omitted, Abs format (unit mm)*
G04 Created by KiCad (PCBNEW (6.0.1)) date 2022-03-03 23:01:05*
%MOMM*%
%LPD*%
G01*
G04 APERTURE LIST*
G04 Aperture macros list*
%AMRoundRect*
0 Rectangle with rounded corners*
0 $1 Rounding radius*
0 $2 $3 $4 $5 $6 $7 $8 $9 X,Y pos of 4 corners*
0 Add a 4 corners polygon primitive as box body*
4,1,4,$2,$3,$4,$5,$6,$7,$8,$9,$2,$3,0*
0 Add four circle primitives for the rounded corners*
1,1,$1+$1,$2,$3*
1,1,$1+$1,$4,$5*
1,1,$1+$1,$6,$7*
1,1,$1+$1,$8,$9*
0 Add four rect primitives between the rounded corners*
20,1,$1+$1,$2,$3,$4,$5,0*
20,1,$1+$1,$4,$5,$6,$7,0*
20,1,$1+$1,$6,$7,$8,$9,0*
20,1,$1+$1,$8,$9,$2,$3,0*%
%AMHorizOval*
0 Thick line with rounded ends*
0 $1 width*
0 $2 $3 position (X,Y) of the first rounded end (center of the circle)*
0 $4 $5 position (X,Y) of the second rounded end (center of the circle)*
0 Add line between two ends*
20,1,$1,$2,$3,$4,$5,0*
0 Add two circle primitives to create the rounded ends*
1,1,$1,$2,$3*
1,1,$1,$4,$5*%
G04 Aperture macros list end*
%TA.AperFunction,ComponentPad*%
%ADD10RoundRect,0.250001X0.813011X0.408179X-0.053012X0.908178X-0.813011X-0.408179X0.053012X-0.908178X0*%
%TD*%
%TA.AperFunction,ComponentPad*%
%ADD11HorizOval,1.500000X0.130000X0.225167X-0.130000X-0.225167X0*%
%TD*%
%TA.AperFunction,ComponentPad*%
%ADD12O,1.200000X1.750000*%
%TD*%
%TA.AperFunction,ComponentPad*%
%ADD13RoundRect,0.250000X0.350000X0.625000X-0.350000X0.625000X-0.350000X-0.625000X0.350000X-0.625000X0*%
%TD*%
%TA.AperFunction,ComponentPad*%
%ADD14O,1.750000X1.200000*%
%TD*%
%TA.AperFunction,ComponentPad*%
%ADD15RoundRect,0.249999X0.625001X-0.350001X0.625001X0.350001X-0.625001X0.350001X-0.625001X-0.350001X0*%
%TD*%
%TA.AperFunction,ComponentPad*%
%ADD16R,1.350000X1.350000*%
%TD*%
%TA.AperFunction,ComponentPad*%
%ADD17O,1.350000X1.350000*%
%TD*%
%TA.AperFunction,ComponentPad*%
%ADD18RoundRect,0.250000X0.071782X-0.712722X0.645188X-0.311218X-0.071782X0.712722X-0.645188X0.311218X0*%
%TD*%
%TA.AperFunction,ComponentPad*%
%ADD19HorizOval,1.200000X-0.157734X0.225267X0.157734X-0.225267X0*%
%TD*%
%TA.AperFunction,ComponentPad*%
%ADD20R,1.700000X1.700000*%
%TD*%
%TA.AperFunction,ComponentPad*%
%ADD21O,1.700000X1.700000*%
%TD*%
%TA.AperFunction,ComponentPad*%
%ADD22C,5.000000*%
%TD*%
%TA.AperFunction,ComponentPad*%
%ADD23C,1.500000*%
%TD*%
%TA.AperFunction,ComponentPad*%
%ADD24RoundRect,0.250001X-0.499999X-0.499999X0.499999X-0.499999X0.499999X0.499999X-0.499999X0.499999X0*%
%TD*%
%TA.AperFunction,ComponentPad*%
%ADD25RoundRect,0.249999X0.194454X-0.689431X0.689431X-0.194454X-0.194454X0.689431X-0.689431X0.194454X0*%
%TD*%
%TA.AperFunction,ComponentPad*%
%ADD26HorizOval,1.200000X-0.194454X0.194454X0.194454X-0.194454X0*%
%TD*%
%TA.AperFunction,ComponentPad*%
%ADD27RoundRect,0.249999X-0.676283X0.236153X-0.554729X-0.453214X0.676283X-0.236153X0.554729X0.453214X0*%
%TD*%
%TA.AperFunction,ComponentPad*%
%ADD28HorizOval,1.200000X-0.270822X-0.047753X0.270822X0.047753X0*%
%TD*%
%TA.AperFunction,ComponentPad*%
%ADD29RoundRect,0.249999X-0.554729X0.453214X-0.676283X-0.236153X0.554729X-0.453214X0.676283X0.236153X0*%
%TD*%
%TA.AperFunction,ComponentPad*%
%ADD30HorizOval,1.200000X-0.270822X0.047753X0.270822X-0.047753X0*%
%TD*%
%TA.AperFunction,ComponentPad*%
%ADD31HorizOval,1.200000X0.270822X0.047753X-0.270822X-0.047753X0*%
%TD*%
%TA.AperFunction,ComponentPad*%
%ADD32RoundRect,0.249999X0.676283X-0.236153X0.554729X0.453214X-0.676283X0.236153X-0.554729X-0.453214X0*%
%TD*%
%TA.AperFunction,ViaPad*%
%ADD33C,0.800000*%
%TD*%
%TA.AperFunction,Conductor*%
%ADD34C,1.400000*%
%TD*%
%TA.AperFunction,Conductor*%
%ADD35C,0.250000*%
%TD*%
%TA.AperFunction,Conductor*%
%ADD36C,0.780000*%
%TD*%
G04 APERTURE END LIST*
D10*
%TO.P,J2,1,Pin_1*%
%TO.N,/heat_gnd*%
X94825638Y-109783080D03*
D11*
%TO.P,J2,2,Pin_2*%
%TO.N,+24V*%
X92227562Y-108283080D03*
%TD*%
D12*
%TO.P,J7,3,Pin_3*%
%TO.N,GND*%
X99022400Y-104038400D03*
%TO.P,J7,2,Pin_2*%
%TO.N,/sw0*%
X101022400Y-104038400D03*
D13*
%TO.P,J7,1,Pin_1*%
%TO.N,+5V*%
X103022400Y-104038400D03*
%TD*%
D14*
%TO.P,J8,3,Pin_3*%
%TO.N,GND*%
X83676400Y-95739200D03*
%TO.P,J8,2,Pin_2*%
%TO.N,/sw1*%
X83676400Y-97739200D03*
D15*
%TO.P,J8,1,Pin_1*%
%TO.N,+5V*%
X83676400Y-99739200D03*
%TD*%
D16*
%TO.P,J10,1,Pin_1*%
%TO.N,+5V*%
X99415600Y-112725200D03*
D17*
%TO.P,J10,2,Pin_2*%
%TO.N,/VFAN0*%
X99415600Y-114725200D03*
%TO.P,J10,3,Pin_3*%
%TO.N,+24V*%
X99415600Y-116725200D03*
%TD*%
D16*
%TO.P,J11,1,Pin_1*%
%TO.N,+5V*%
X102463600Y-112725200D03*
D17*
%TO.P,J11,2,Pin_2*%
%TO.N,/VFAN1*%
X102463600Y-114725200D03*
%TO.P,J11,3,Pin_3*%
%TO.N,+24V*%
X102463600Y-116725200D03*
%TD*%
D18*
%TO.P,J12,1,Pin_1*%
%TO.N,+5V*%
X106758229Y-113777420D03*
D19*
%TO.P,J12,2,Pin_2*%
%TO.N,/led*%
X108396533Y-112630267D03*
%TO.P,J12,3,Pin_3*%
%TO.N,GND*%
X110034837Y-111483114D03*
%TD*%
D20*
%TO.P,J13,1,Pin_1*%
%TO.N,GND*%
X98506200Y-107696000D03*
D21*
%TO.P,J13,2,Pin_2*%
%TO.N,+5V*%
X101046200Y-107696000D03*
%TO.P,J13,3,Pin_3*%
%TO.N,/servo*%
X103586200Y-107696000D03*
%TO.P,J13,4,Pin_4*%
%TO.N,GND*%
X106126200Y-107696000D03*
%TO.P,J13,5,Pin_5*%
%TO.N,/sw1*%
X108666200Y-107696000D03*
%TD*%
D22*
%TO.P,H1,1,1*%
%TO.N,GND*%
X121920000Y-100000000D03*
%TD*%
%TO.P,H2,1,1*%
%TO.N,GND*%
X78080000Y-100000000D03*
%TD*%
D23*
%TO.P,J9,16,Pin_16*%
%TO.N,+5V*%
X111439600Y-99971400D03*
%TO.P,J9,15,Pin_15*%
%TO.N,/servo*%
X108439600Y-99971400D03*
%TO.P,J9,14,Pin_14*%
%TO.N,/fan1*%
X105439600Y-99971400D03*
%TO.P,J9,13,Pin_13*%
%TO.N,/sw0*%
X102439600Y-99971400D03*
%TO.P,J9,12,Pin_12*%
%TO.N,/therm1*%
X99439600Y-99971400D03*
%TO.P,J9,11,Pin_11*%
%TO.N,/therm0*%
X96439600Y-99971400D03*
%TO.P,J9,10,Pin_10*%
%TO.N,/heat_gnd*%
X93439600Y-99971400D03*
%TO.P,J9,9,Pin_9*%
%TO.N,+24V*%
X90439600Y-99971400D03*
%TO.P,J9,8,Pin_8*%
%TO.N,GND*%
X111439600Y-96971400D03*
%TO.P,J9,7,Pin_7*%
%TO.N,/led*%
X108439600Y-96971400D03*
%TO.P,J9,6,Pin_6*%
%TO.N,/fan0*%
X105439600Y-96971400D03*
%TO.P,J9,5,Pin_5*%
%TO.N,/sw1*%
X102439600Y-96971400D03*
%TO.P,J9,4,Pin_4*%
%TO.N,/B-*%
X99439600Y-96971400D03*
%TO.P,J9,3,Pin_3*%
%TO.N,/B+*%
X96439600Y-96971400D03*
%TO.P,J9,2,Pin_2*%
%TO.N,/A-*%
X93439600Y-96971400D03*
D24*
%TO.P,J9,1,Pin_1*%
%TO.N,/A+*%
X90439600Y-96971400D03*
%TD*%
D25*
%TO.P,J1,1,Pin_1*%
%TO.N,/A+*%
X81411371Y-87453041D03*
D26*
%TO.P,J1,2,Pin_2*%
%TO.N,/A-*%
X82825585Y-86038827D03*
%TO.P,J1,3,Pin_3*%
%TO.N,/B+*%
X84239798Y-84624614D03*
%TO.P,J1,4,Pin_4*%
%TO.N,/B-*%
X85654012Y-83210400D03*
%TD*%
D27*
%TO.P,J3,1,Pin_1*%
%TO.N,/therm0*%
X84429600Y-105359200D03*
D28*
%TO.P,J3,2,Pin_2*%
%TO.N,/therm1*%
X84776896Y-107328816D03*
%TD*%
D29*
%TO.P,J4,1,Pin_1*%
%TO.N,/fan0*%
X122478800Y-107340400D03*
D30*
%TO.P,J4,2,Pin_2*%
%TO.N,/VFAN0*%
X122131504Y-109310016D03*
%TD*%
D31*
%TO.P,J5,2,Pin_2*%
%TO.N,/VFAN0*%
X77783104Y-106539184D03*
D32*
%TO.P,J5,1,Pin_1*%
%TO.N,/fan0*%
X78130400Y-108508800D03*
%TD*%
D29*
%TO.P,J6,1,Pin_1*%
%TO.N,/fan1*%
X116974612Y-106324400D03*
D30*
%TO.P,J6,2,Pin_2*%
%TO.N,/VFAN1*%
X116627316Y-108294016D03*
%TD*%
D33*
%TO.N,GND*%
X86360000Y-87477600D03*
X88798400Y-109169200D03*
X113538000Y-108204000D03*
X88798400Y-111607600D03*
X119684800Y-107543600D03*
X87477600Y-104190800D03*
%TO.N,/VFAN0*%
X105968800Y-116389700D03*
%TO.N,/led*%
X107990159Y-104557041D03*
X106921560Y-103488442D03*
X110140100Y-106730800D03*
%TD*%
D34*
%TO.N,+5V*%
X113089111Y-98321889D02*
X111439600Y-99971400D01*
X113089111Y-96288149D02*
X113089111Y-98321889D01*
X111901883Y-95100921D02*
X113089111Y-96288149D01*
X106276921Y-95100921D02*
X111901883Y-95100921D01*
X105492080Y-94316080D02*
X106276921Y-95100921D01*
X95941680Y-94316080D02*
X105492080Y-94316080D01*
X95049121Y-93423521D02*
X95941680Y-94316080D01*
X95049121Y-91636774D02*
X95049121Y-93423521D01*
X93614226Y-90201879D02*
X95049121Y-91636774D01*
X91584974Y-90201879D02*
X93614226Y-90201879D01*
X89084004Y-94316081D02*
X89579919Y-94316081D01*
X87680800Y-95719285D02*
X89084004Y-94316081D01*
X90150079Y-91636774D02*
X91584974Y-90201879D01*
X87680800Y-96977200D02*
X87680800Y-95719285D01*
X84918800Y-99739200D02*
X87680800Y-96977200D01*
X89579919Y-94316081D02*
X90150079Y-93745921D01*
X90150079Y-93745921D02*
X90150079Y-91636774D01*
X83676400Y-99739200D02*
X84918800Y-99739200D01*
X101046200Y-107696000D02*
X101249400Y-107899200D01*
X101249400Y-107899200D02*
X101249400Y-111511000D01*
X101249400Y-111511000D02*
X102463600Y-112725200D01*
D35*
%TO.N,/servo*%
X108439600Y-103017900D02*
X103812300Y-107645200D01*
X108439600Y-99971400D02*
X108439600Y-103017900D01*
X103812300Y-107645200D02*
X103789400Y-107645200D01*
%TO.N,/led*%
X101955600Y-98450400D02*
X106960600Y-98450400D01*
X101092000Y-99314000D02*
X101955600Y-98450400D01*
X101092000Y-100228400D02*
X101092000Y-99314000D01*
X105407031Y-101495431D02*
X102359031Y-101495431D01*
X106921560Y-103009960D02*
X105407031Y-101495431D01*
X106921560Y-103488442D02*
X106921560Y-103009960D01*
X102359031Y-101495431D02*
X101092000Y-100228400D01*
X106960600Y-98450400D02*
X108439600Y-96971400D01*
X107990159Y-104557041D02*
X107990159Y-104580859D01*
X107990159Y-104580859D02*
X110140100Y-106730800D01*
%TO.N,/therm1*%
X86296992Y-105808720D02*
X84776896Y-107328816D01*
X92235080Y-105808720D02*
X86296992Y-105808720D01*
X98072400Y-99971400D02*
X92235080Y-105808720D01*
X99439600Y-99971400D02*
X98072400Y-99971400D01*
%TO.N,/therm0*%
X91084400Y-105359200D02*
X84429600Y-105359200D01*
X96439600Y-99971400D02*
X96439600Y-100004000D01*
X96439600Y-100004000D02*
X91084400Y-105359200D01*
D36*
%TO.N,/VFAN0*%
X120935369Y-110506151D02*
X122131504Y-109310016D01*
X108298700Y-116389700D02*
X114182249Y-110506151D01*
X105968800Y-116389700D02*
X108298700Y-116389700D01*
X114182249Y-110506151D02*
X120935369Y-110506151D01*
%TO.N,/fan0*%
X89618141Y-95605600D02*
X104073800Y-95605600D01*
X104073800Y-95605600D02*
X105439600Y-96971400D01*
X89100080Y-96123661D02*
X89618141Y-95605600D01*
X89100080Y-97813324D02*
X89100080Y-96123661D01*
X78404604Y-108508800D02*
X89100080Y-97813324D01*
X78130400Y-108508800D02*
X78404604Y-108508800D01*
D34*
%TO.N,+5V*%
X106865707Y-111556800D02*
X106883200Y-111556800D01*
X107560000Y-110862507D02*
X106865707Y-111556800D01*
X111439600Y-107549183D02*
X108126276Y-110862507D01*
X108126276Y-110862507D02*
X107560000Y-110862507D01*
X111439600Y-99971400D02*
X111439600Y-107549183D01*
X106883200Y-111556800D02*
X107577493Y-110862507D01*
X106654204Y-111785796D02*
X106654204Y-113673395D01*
X99415600Y-112725200D02*
X102463600Y-112725200D01*
X105706009Y-112725200D02*
X102463600Y-112725200D01*
X105706009Y-112725200D02*
X106758229Y-113777420D01*
%TO.N,+24V*%
X92227562Y-110159962D02*
X98792800Y-116725200D01*
X92227562Y-108283080D02*
X92227562Y-110159962D01*
X99415600Y-116725200D02*
X102463600Y-116725200D01*
X98792800Y-116725200D02*
X99415600Y-116725200D01*
%TD*%
%TA.AperFunction,Conductor*%
%TO.N,GND*%
G36*
X85791909Y-81276326D02*
G01*
X85831774Y-81285424D01*
X85871637Y-81294523D01*
X85898268Y-81303842D01*
X85971950Y-81339325D01*
X85995842Y-81354337D01*
X86039609Y-81389241D01*
X86051224Y-81399749D01*
X86057484Y-81406163D01*
X86062778Y-81413410D01*
X86069894Y-81418880D01*
X86087993Y-81432793D01*
X86100297Y-81443594D01*
X88341961Y-83685258D01*
X88355504Y-83701268D01*
X88367134Y-83717603D01*
X88370527Y-83721080D01*
X88370532Y-83721086D01*
X88372489Y-83723091D01*
X88375892Y-83726578D01*
X88379791Y-83729500D01*
X88379792Y-83729501D01*
X88384461Y-83733000D01*
X88392946Y-83739956D01*
X88583179Y-83910286D01*
X88808545Y-84071163D01*
X88811574Y-84072856D01*
X88811582Y-84072861D01*
X89031640Y-84195855D01*
X89050249Y-84206256D01*
X89053450Y-84207607D01*
X89302143Y-84312569D01*
X89302146Y-84312570D01*
X89305354Y-84313924D01*
X89570761Y-84392859D01*
X89574182Y-84393477D01*
X89574181Y-84393477D01*
X89839833Y-84441485D01*
X89839837Y-84441486D01*
X89843243Y-84442101D01*
X90119489Y-84461051D01*
X90122957Y-84460906D01*
X90122961Y-84460906D01*
X90220134Y-84456842D01*
X90396143Y-84449480D01*
X90503004Y-84433101D01*
X90666400Y-84408056D01*
X90666407Y-84408054D01*
X90669842Y-84407528D01*
X90937261Y-84335705D01*
X90940495Y-84334440D01*
X90940500Y-84334439D01*
X91160818Y-84248306D01*
X91174161Y-84243930D01*
X91179552Y-84242489D01*
X91179555Y-84242488D01*
X91184262Y-84241230D01*
X91188719Y-84239263D01*
X91191280Y-84238133D01*
X91191283Y-84238131D01*
X91195734Y-84236167D01*
X91208643Y-84227892D01*
X91228804Y-84217401D01*
X91242998Y-84211576D01*
X91262682Y-84195855D01*
X91278654Y-84184993D01*
X91945030Y-83803025D01*
X91950218Y-83800211D01*
X92664929Y-83433884D01*
X92670242Y-83431316D01*
X92775702Y-83383358D01*
X93401345Y-83098845D01*
X93406733Y-83096545D01*
X93977657Y-82868541D01*
X94152617Y-82798669D01*
X94158148Y-82796609D01*
X94917139Y-82533992D01*
X94922759Y-82532194D01*
X95693191Y-82305411D01*
X95698890Y-82303877D01*
X96479123Y-82113411D01*
X96484888Y-82112146D01*
X97273184Y-81958424D01*
X97279001Y-81957431D01*
X97552720Y-81917252D01*
X98073630Y-81840789D01*
X98079447Y-81840073D01*
X98878691Y-81760766D01*
X98884548Y-81760323D01*
X99229882Y-81742327D01*
X99686606Y-81718527D01*
X99692505Y-81718358D01*
X100074876Y-81716361D01*
X100495639Y-81714163D01*
X100501500Y-81714270D01*
X100921053Y-81731742D01*
X101303976Y-81747689D01*
X101309865Y-81748073D01*
X102109854Y-81819026D01*
X102115718Y-81819685D01*
X102532871Y-81876474D01*
X102911497Y-81928018D01*
X102917308Y-81928948D01*
X103581920Y-82051361D01*
X103707192Y-82074434D01*
X103712969Y-82075639D01*
X104495137Y-82257943D01*
X104500851Y-82259417D01*
X105273619Y-82478143D01*
X105279259Y-82479883D01*
X106040950Y-82734559D01*
X106046501Y-82736561D01*
X106206862Y-82798669D01*
X106795419Y-83026619D01*
X106800847Y-83028868D01*
X107145192Y-83181139D01*
X107535404Y-83353693D01*
X107540744Y-83356206D01*
X108259234Y-83715046D01*
X108264450Y-83717805D01*
X108896115Y-84071163D01*
X108965370Y-84109905D01*
X108970447Y-84112903D01*
X109514532Y-84451656D01*
X109652254Y-84537403D01*
X109657189Y-84540639D01*
X110318334Y-84996574D01*
X110323113Y-85000037D01*
X110962221Y-85486457D01*
X110966832Y-85490141D01*
X111285215Y-85756902D01*
X111582441Y-86005936D01*
X111586847Y-86009807D01*
X112177666Y-86553896D01*
X112181880Y-86557962D01*
X112343494Y-86721426D01*
X112746557Y-87129103D01*
X112750607Y-87133396D01*
X113287903Y-87730330D01*
X113291747Y-87734807D01*
X113800515Y-88356260D01*
X113804145Y-88360913D01*
X113915735Y-88511045D01*
X114283183Y-89005407D01*
X114283239Y-89005483D01*
X114286642Y-89010293D01*
X114370968Y-89135600D01*
X114709062Y-89638005D01*
X114720470Y-89659021D01*
X114725664Y-89671229D01*
X114728835Y-89676325D01*
X114728944Y-89676572D01*
X114729118Y-89676779D01*
X114732290Y-89681876D01*
X114735464Y-89685560D01*
X114735467Y-89685564D01*
X114735669Y-89685799D01*
X114744508Y-89697343D01*
X115049649Y-90147482D01*
X115050666Y-90148822D01*
X115050672Y-90148830D01*
X115311793Y-90492793D01*
X115390334Y-90596252D01*
X115391440Y-90597557D01*
X115391447Y-90597566D01*
X115571918Y-90810554D01*
X115754575Y-91026122D01*
X115755720Y-91027335D01*
X115755728Y-91027344D01*
X116123020Y-91416465D01*
X116141326Y-91435859D01*
X116549475Y-91824285D01*
X116977851Y-92190284D01*
X116979185Y-92191306D01*
X116979192Y-92191311D01*
X117423871Y-92531771D01*
X117423885Y-92531781D01*
X117425221Y-92532804D01*
X117426612Y-92533755D01*
X117426613Y-92533756D01*
X117863213Y-92832337D01*
X117871563Y-92838949D01*
X117871631Y-92838862D01*
X117875472Y-92841858D01*
X117879070Y-92845141D01*
X117889524Y-92852068D01*
X117915717Y-92864105D01*
X117931099Y-92872516D01*
X123555489Y-96477797D01*
X123571282Y-96489773D01*
X123588455Y-96505064D01*
X123596564Y-96508911D01*
X123596568Y-96508914D01*
X123605419Y-96513113D01*
X123625201Y-96524819D01*
X123855046Y-96690889D01*
X123865376Y-96699214D01*
X124097875Y-96907711D01*
X124107271Y-96917075D01*
X124173034Y-96989906D01*
X124316567Y-97148866D01*
X124324915Y-97159153D01*
X124508673Y-97411658D01*
X124515904Y-97422781D01*
X124672100Y-97693215D01*
X124678121Y-97705036D01*
X124805013Y-97990384D01*
X124809757Y-98002772D01*
X124905943Y-98299876D01*
X124909359Y-98312695D01*
X124973773Y-98618262D01*
X124975823Y-98631369D01*
X124991779Y-98786605D01*
X125007593Y-98940448D01*
X125007756Y-98942037D01*
X125008415Y-98955281D01*
X125008404Y-98959068D01*
X125008383Y-98966235D01*
X124988182Y-99034297D01*
X124934391Y-99080633D01*
X124864088Y-99090532D01*
X124799594Y-99060850D01*
X124761573Y-99001654D01*
X124755997Y-98982830D01*
X124753540Y-98976006D01*
X124620290Y-98663608D01*
X124617073Y-98657125D01*
X124448788Y-98362089D01*
X124444856Y-98356034D01*
X124243774Y-98082295D01*
X124239166Y-98076726D01*
X124233830Y-98070984D01*
X124220178Y-98062866D01*
X124219570Y-98062887D01*
X124211092Y-98068119D01*
X123606288Y-98672923D01*
X123543976Y-98706949D01*
X123473161Y-98701884D01*
X123424893Y-98669599D01*
X123422577Y-98667106D01*
X123321194Y-98558005D01*
X123300703Y-98535954D01*
X123300700Y-98535951D01*
X123297782Y-98532811D01*
X123280252Y-98518463D01*
X123257135Y-98499541D01*
X123217090Y-98440916D01*
X123215097Y-98369947D01*
X123247847Y-98312943D01*
X123847074Y-97713716D01*
X123854466Y-97700179D01*
X123847679Y-97690479D01*
X123744476Y-97602335D01*
X123738704Y-97597953D01*
X123456796Y-97408519D01*
X123450575Y-97404839D01*
X123148757Y-97249060D01*
X123142146Y-97246116D01*
X122824439Y-97126065D01*
X122817513Y-97123894D01*
X122488112Y-97041155D01*
X122481005Y-97039799D01*
X122144278Y-96995468D01*
X122137036Y-96994937D01*
X121797467Y-96989602D01*
X121790205Y-96989906D01*
X121452256Y-97023638D01*
X121445108Y-97024770D01*
X121113263Y-97097124D01*
X121106285Y-97099072D01*
X120784960Y-97209086D01*
X120778253Y-97211823D01*
X120471707Y-97358039D01*
X120465349Y-97361534D01*
X120177654Y-97542005D01*
X120171731Y-97546214D01*
X119993601Y-97688923D01*
X119985132Y-97701048D01*
X119991527Y-97712316D01*
X120591442Y-98312231D01*
X120625468Y-98374543D01*
X120620403Y-98445358D01*
X120581126Y-98499661D01*
X120574685Y-98504821D01*
X120561010Y-98515776D01*
X120561004Y-98515782D01*
X120557657Y-98518463D01*
X120554703Y-98521576D01*
X120413752Y-98670107D01*
X120352352Y-98705751D01*
X120281428Y-98702542D01*
X120233260Y-98672470D01*
X119632370Y-98071581D01*
X119619583Y-98064598D01*
X119608827Y-98072464D01*
X119448037Y-98277527D01*
X119443902Y-98283476D01*
X119266440Y-98573068D01*
X119263019Y-98579447D01*
X119120016Y-98887522D01*
X119117356Y-98894241D01*
X119010711Y-99216707D01*
X119008834Y-99223711D01*
X118939961Y-99556288D01*
X118938904Y-99563449D01*
X118908712Y-99901735D01*
X118908484Y-99908987D01*
X118917374Y-100248505D01*
X118917980Y-100255721D01*
X118965835Y-100591963D01*
X118967269Y-100599074D01*
X119053455Y-100927595D01*
X119055692Y-100934478D01*
X119179064Y-101250914D01*
X119182081Y-101257503D01*
X119341002Y-101557652D01*
X119344761Y-101563860D01*
X119537129Y-101843757D01*
X119541574Y-101849486D01*
X119608743Y-101926484D01*
X119621917Y-101934888D01*
X119631768Y-101929021D01*
X120233999Y-101326791D01*
X120296311Y-101292766D01*
X120367127Y-101297831D01*
X120416285Y-101331085D01*
X120526929Y-101452681D01*
X120584427Y-101500757D01*
X120623855Y-101559795D01*
X120625106Y-101630781D01*
X120592698Y-101686513D01*
X119991474Y-102287737D01*
X119983860Y-102301681D01*
X119983878Y-102301934D01*
X119989792Y-102310676D01*
X120021111Y-102339174D01*
X120026748Y-102343738D01*
X120302544Y-102541918D01*
X120308682Y-102545813D01*
X120605435Y-102710984D01*
X120611955Y-102714136D01*
X120925738Y-102844109D01*
X120932589Y-102846495D01*
X121259212Y-102939536D01*
X121266301Y-102941120D01*
X121601465Y-102996006D01*
X121608671Y-102996763D01*
X121947926Y-103012762D01*
X121955176Y-103012686D01*
X122294010Y-102989587D01*
X122301219Y-102988676D01*
X122635160Y-102926784D01*
X122642190Y-102925057D01*
X122966819Y-102825187D01*
X122973597Y-102822667D01*
X123284603Y-102686145D01*
X123291043Y-102682864D01*
X123584293Y-102511502D01*
X123590326Y-102507493D01*
X123848828Y-102313405D01*
X123857282Y-102302078D01*
X123850537Y-102289748D01*
X123249438Y-101688649D01*
X123215412Y-101626337D01*
X123220477Y-101555522D01*
X123260792Y-101500397D01*
X123266754Y-101495722D01*
X123427779Y-101329557D01*
X123489549Y-101294557D01*
X123560436Y-101298509D01*
X123607358Y-101328147D01*
X124206268Y-101927057D01*
X124219622Y-101934349D01*
X124229595Y-101927294D01*
X124336641Y-101799267D01*
X124340957Y-101793456D01*
X124527432Y-101509575D01*
X124531046Y-101503313D01*
X124683658Y-101199882D01*
X124686530Y-101193244D01*
X124740071Y-101046934D01*
X124782265Y-100989836D01*
X124848630Y-100964614D01*
X124918096Y-100979276D01*
X124968608Y-101029166D01*
X124984228Y-101096759D01*
X124972157Y-101329557D01*
X124960009Y-101563860D01*
X124956969Y-101622482D01*
X124956717Y-101626252D01*
X124927842Y-101977680D01*
X124893938Y-102390319D01*
X124893569Y-102394103D01*
X124807775Y-103155851D01*
X124807293Y-103159622D01*
X124777681Y-103366266D01*
X124706111Y-103865721D01*
X124704917Y-103874050D01*
X124700114Y-103894835D01*
X124694142Y-103913357D01*
X124693896Y-103922325D01*
X124693896Y-103922328D01*
X124693364Y-103941783D01*
X124691640Y-103959384D01*
X124219785Y-106743649D01*
X124164931Y-107067322D01*
X124133827Y-107131143D01*
X124073158Y-107168017D01*
X124002183Y-107166237D01*
X123943438Y-107126368D01*
X123916070Y-107064785D01*
X123909815Y-107022680D01*
X123892378Y-106905309D01*
X123889134Y-106897176D01*
X123829551Y-106747830D01*
X123829551Y-106747829D01*
X123826838Y-106741030D01*
X123740450Y-106617883D01*
X123729468Y-106602228D01*
X123729467Y-106602227D01*
X123725263Y-106596234D01*
X123593102Y-106478690D01*
X123527355Y-106443215D01*
X123443504Y-106397972D01*
X123443502Y-106397971D01*
X123437445Y-106394703D01*
X123430824Y-106392823D01*
X123430821Y-106392822D01*
X123339533Y-106366904D01*
X123339528Y-106366903D01*
X123336429Y-106366023D01*
X123280244Y-106356116D01*
X122596459Y-106235547D01*
X122006150Y-106131460D01*
X122002909Y-106131229D01*
X122002901Y-106131228D01*
X121906959Y-106124390D01*
X121900084Y-106123900D01*
X121725134Y-106149891D01*
X121718342Y-106152601D01*
X121718337Y-106152602D01*
X121665866Y-106173536D01*
X121560854Y-106215431D01*
X121554865Y-106219633D01*
X121554862Y-106219634D01*
X121422048Y-106312804D01*
X121422045Y-106312807D01*
X121416059Y-106317006D01*
X121298515Y-106449167D01*
X121214527Y-106604824D01*
X121185847Y-106705840D01*
X121139201Y-106970384D01*
X121049423Y-107479550D01*
X121046791Y-107494475D01*
X121039231Y-107600541D01*
X121065222Y-107775491D01*
X121067932Y-107782285D01*
X121067933Y-107782287D01*
X121108254Y-107883353D01*
X121130762Y-107939770D01*
X121189821Y-108023959D01*
X121225624Y-108074996D01*
X121232337Y-108084566D01*
X121237809Y-108089432D01*
X121237810Y-108089434D01*
X121277576Y-108124803D01*
X121315184Y-108185020D01*
X121314266Y-108256011D01*
X121275113Y-108315236D01*
X121253287Y-108330046D01*
X121244457Y-108334771D01*
X121080189Y-108468029D01*
X121076329Y-108472621D01*
X121076328Y-108472622D01*
X120947945Y-108625352D01*
X120947942Y-108625356D01*
X120944084Y-108629946D01*
X120841053Y-108814678D01*
X120774812Y-109015561D01*
X120774045Y-109021504D01*
X120774045Y-109021506D01*
X120752368Y-109189561D01*
X120747752Y-109225344D01*
X120754126Y-109328086D01*
X120755785Y-109354830D01*
X120740039Y-109424059D01*
X120719122Y-109451727D01*
X120600103Y-109570746D01*
X120537791Y-109604772D01*
X120511008Y-109607651D01*
X117383717Y-109607651D01*
X117315596Y-109587649D01*
X117269103Y-109533993D01*
X117258999Y-109463719D01*
X117288493Y-109399139D01*
X117328474Y-109370200D01*
X117327861Y-109369054D01*
X117509072Y-109272093D01*
X117509071Y-109272093D01*
X117514363Y-109269262D01*
X117678631Y-109136003D01*
X117744958Y-109057097D01*
X117810875Y-108978680D01*
X117810878Y-108978676D01*
X117814736Y-108974086D01*
X117817659Y-108968846D01*
X117914846Y-108794594D01*
X117914848Y-108794589D01*
X117917768Y-108789354D01*
X117922695Y-108774414D01*
X117938898Y-108725274D01*
X117984009Y-108588472D01*
X118003269Y-108439156D01*
X118010301Y-108384636D01*
X118010301Y-108384634D01*
X118011068Y-108378688D01*
X118003781Y-108261220D01*
X117998343Y-108173561D01*
X117998342Y-108173556D01*
X117997971Y-108167572D01*
X117945188Y-107962741D01*
X117854626Y-107771587D01*
X117850233Y-107765595D01*
X117776646Y-107665236D01*
X117752496Y-107598473D01*
X117768275Y-107529252D01*
X117818972Y-107479550D01*
X117831569Y-107473701D01*
X117885757Y-107452083D01*
X117885762Y-107452080D01*
X117892558Y-107449369D01*
X117898547Y-107445167D01*
X117898550Y-107445166D01*
X118031364Y-107351996D01*
X118031367Y-107351993D01*
X118037353Y-107347794D01*
X118154897Y-107215633D01*
X118238885Y-107059976D01*
X118267565Y-106958960D01*
X118352249Y-106478690D01*
X118406055Y-106173536D01*
X118406055Y-106173533D01*
X118406621Y-106170325D01*
X118414181Y-106064259D01*
X118388190Y-105889309D01*
X118361457Y-105822300D01*
X118325363Y-105731830D01*
X118325363Y-105731829D01*
X118322650Y-105725030D01*
X118250168Y-105621706D01*
X118225280Y-105586228D01*
X118225279Y-105586227D01*
X118221075Y-105580234D01*
X118088914Y-105462690D01*
X118024067Y-105427701D01*
X117939316Y-105381972D01*
X117939314Y-105381971D01*
X117933257Y-105378703D01*
X117926636Y-105376823D01*
X117926633Y-105376822D01*
X117835345Y-105350904D01*
X117835340Y-105350903D01*
X117832241Y-105350023D01*
X117799660Y-105344278D01*
X116978187Y-105199431D01*
X116501962Y-105115460D01*
X116498721Y-105115229D01*
X116498713Y-105115228D01*
X116402771Y-105108390D01*
X116395896Y-105107900D01*
X116220946Y-105133891D01*
X116214154Y-105136601D01*
X116214149Y-105136602D01*
X116155973Y-105159812D01*
X116056666Y-105199431D01*
X116050677Y-105203633D01*
X116050674Y-105203634D01*
X115917860Y-105296804D01*
X115917857Y-105296807D01*
X115911871Y-105301006D01*
X115794327Y-105433167D01*
X115710339Y-105588824D01*
X115681659Y-105689840D01*
X115666988Y-105773046D01*
X115546637Y-106455599D01*
X115542603Y-106478475D01*
X115535043Y-106584541D01*
X115561034Y-106759491D01*
X115563744Y-106766285D01*
X115563745Y-106766287D01*
X115616906Y-106899537D01*
X115626574Y-106923770D01*
X115651260Y-106958960D01*
X115717476Y-107053351D01*
X115728149Y-107068566D01*
X115733621Y-107073432D01*
X115733622Y-107073434D01*
X115773388Y-107108803D01*
X115810996Y-107169020D01*
X115810078Y-107240011D01*
X115770925Y-107299236D01*
X115749099Y-107314046D01*
X115740269Y-107318771D01*
X115576001Y-107452029D01*
X115572141Y-107456621D01*
X115572140Y-107456622D01*
X115443757Y-107609352D01*
X115443754Y-107609356D01*
X115439896Y-107613946D01*
X115336865Y-107798678D01*
X115270624Y-107999561D01*
X115269857Y-108005504D01*
X115269857Y-108005506D01*
X115245052Y-108197811D01*
X115243564Y-108209344D01*
X115247579Y-108274060D01*
X115254439Y-108384636D01*
X115256661Y-108420460D01*
X115309444Y-108625291D01*
X115332161Y-108673240D01*
X115396887Y-108809861D01*
X115400006Y-108816445D01*
X115525082Y-108987025D01*
X115529478Y-108991102D01*
X115529478Y-108991103D01*
X115660886Y-109113002D01*
X115680156Y-109130878D01*
X115685239Y-109134048D01*
X115853499Y-109238983D01*
X115859635Y-109242810D01*
X115865229Y-109244963D01*
X115865231Y-109244964D01*
X116052800Y-109317154D01*
X116052803Y-109317155D01*
X116057041Y-109318786D01*
X116062471Y-109320019D01*
X116063958Y-109320281D01*
X116063962Y-109320282D01*
X116275406Y-109357565D01*
X116339018Y-109389092D01*
X116375488Y-109450006D01*
X116373235Y-109520967D01*
X116332976Y-109579445D01*
X116267492Y-109606875D01*
X116253526Y-109607651D01*
X114262874Y-109607651D01*
X114243164Y-109606100D01*
X114236049Y-109604973D01*
X114236048Y-109604973D01*
X114229532Y-109603941D01*
X114222944Y-109604286D01*
X114222940Y-109604286D01*
X114162036Y-109607478D01*
X114155442Y-109607651D01*
X114135163Y-109607651D01*
X114114991Y-109609771D01*
X114108430Y-109610287D01*
X114077079Y-109611930D01*
X114047518Y-109613479D01*
X114047517Y-109613479D01*
X114040918Y-109613825D01*
X114027580Y-109617399D01*
X114008135Y-109621003D01*
X114005246Y-109621306D01*
X114000985Y-109621754D01*
X114000984Y-109621754D01*
X113994411Y-109622445D01*
X113930114Y-109643336D01*
X113923819Y-109645201D01*
X113858482Y-109662708D01*
X113847510Y-109668299D01*
X113846177Y-109668978D01*
X113827915Y-109676542D01*
X113814783Y-109680809D01*
X113809067Y-109684109D01*
X113809065Y-109684110D01*
X113756220Y-109714620D01*
X113750450Y-109717753D01*
X113690196Y-109748455D01*
X113685063Y-109752612D01*
X113679471Y-109757140D01*
X113663179Y-109768338D01*
X113651215Y-109775245D01*
X113600953Y-109820502D01*
X113595971Y-109824757D01*
X113580209Y-109837521D01*
X113565897Y-109851833D01*
X113561113Y-109856374D01*
X113510856Y-109901626D01*
X113506979Y-109906962D01*
X113506971Y-109906971D01*
X113502735Y-109912802D01*
X113489895Y-109927835D01*
X111513824Y-111903906D01*
X111451512Y-111937932D01*
X111380697Y-111932867D01*
X111323861Y-111890320D01*
X111299050Y-111823800D01*
X111300196Y-111795642D01*
X111302853Y-111778379D01*
X111303540Y-111766460D01*
X111296059Y-111567164D01*
X111294481Y-111555337D01*
X111249448Y-111361054D01*
X111245655Y-111349719D01*
X111164111Y-111166137D01*
X111159905Y-111158252D01*
X111158432Y-111156034D01*
X111098537Y-111070496D01*
X111086131Y-111060579D01*
X111084299Y-111060390D01*
X111077048Y-111063427D01*
X110075674Y-111764596D01*
X110008400Y-111787284D01*
X109939539Y-111769999D01*
X109900190Y-111733654D01*
X109753355Y-111523952D01*
X109730667Y-111456678D01*
X109747952Y-111387817D01*
X109784297Y-111348468D01*
X110781929Y-110649918D01*
X110791846Y-110637512D01*
X110792035Y-110635680D01*
X110788998Y-110628429D01*
X110756142Y-110581505D01*
X110752478Y-110576770D01*
X110655573Y-110463108D01*
X110646998Y-110454798D01*
X110532515Y-110363243D01*
X110491807Y-110305076D01*
X110489009Y-110234134D01*
X110522115Y-110175745D01*
X112231848Y-108466012D01*
X112244239Y-108455145D01*
X112256460Y-108445768D01*
X112256464Y-108445764D01*
X112260911Y-108442352D01*
X112313502Y-108384555D01*
X112317601Y-108380259D01*
X112332842Y-108365018D01*
X112335101Y-108362316D01*
X112348860Y-108345861D01*
X112352331Y-108341882D01*
X112355360Y-108338554D01*
X112406097Y-108282794D01*
X112411576Y-108274060D01*
X112415071Y-108268490D01*
X112425141Y-108254630D01*
X112426367Y-108253164D01*
X112435970Y-108241678D01*
X112475587Y-108172222D01*
X112478269Y-108167742D01*
X112480959Y-108163455D01*
X112511824Y-108114252D01*
X112517754Y-108104799D01*
X112517755Y-108104796D01*
X112520734Y-108100048D01*
X112527030Y-108084388D01*
X112534488Y-108068960D01*
X112540074Y-108059167D01*
X112540077Y-108059161D01*
X112542854Y-108054292D01*
X112569534Y-107978947D01*
X112571384Y-107974053D01*
X112601197Y-107899890D01*
X112604622Y-107883353D01*
X112609230Y-107866850D01*
X112612992Y-107856226D01*
X112612992Y-107856225D01*
X112614864Y-107850939D01*
X112626106Y-107782287D01*
X112627775Y-107772096D01*
X112628737Y-107766907D01*
X112644007Y-107693172D01*
X112644008Y-107693168D01*
X112644944Y-107688646D01*
X112646468Y-107662217D01*
X112647915Y-107649112D01*
X112648818Y-107643594D01*
X112648818Y-107643592D01*
X112649726Y-107638048D01*
X112649348Y-107613946D01*
X112648116Y-107535547D01*
X112648100Y-107533568D01*
X112648100Y-100524167D01*
X112668102Y-100456046D01*
X112685005Y-100435072D01*
X113881359Y-99238718D01*
X113893750Y-99227851D01*
X113905971Y-99218474D01*
X113905975Y-99218470D01*
X113910422Y-99215058D01*
X113963013Y-99157261D01*
X113967112Y-99152965D01*
X113982353Y-99137724D01*
X113998371Y-99118567D01*
X114001842Y-99114588D01*
X114008368Y-99107417D01*
X114055608Y-99055500D01*
X114063781Y-99042472D01*
X114064582Y-99041196D01*
X114074652Y-99027336D01*
X114079900Y-99021059D01*
X114085481Y-99014384D01*
X114125098Y-98944928D01*
X114127780Y-98940448D01*
X114128438Y-98939400D01*
X114160981Y-98887522D01*
X114167265Y-98877505D01*
X114167266Y-98877502D01*
X114170245Y-98872754D01*
X114176541Y-98857094D01*
X114183999Y-98841666D01*
X114189585Y-98831873D01*
X114189588Y-98831867D01*
X114192365Y-98826998D01*
X114219045Y-98751653D01*
X114220895Y-98746759D01*
X114250708Y-98672596D01*
X114254133Y-98656059D01*
X114258741Y-98639556D01*
X114262504Y-98628930D01*
X114262505Y-98628926D01*
X114264375Y-98623645D01*
X114277285Y-98544806D01*
X114278247Y-98539615D01*
X114288813Y-98488596D01*
X114294455Y-98461352D01*
X114295979Y-98434923D01*
X114297426Y-98421818D01*
X114298329Y-98416300D01*
X114299237Y-98410755D01*
X114298378Y-98356034D01*
X114297627Y-98308254D01*
X114297611Y-98306275D01*
X114297611Y-96376234D01*
X114298689Y-96359788D01*
X114300699Y-96344519D01*
X114301431Y-96338960D01*
X114297751Y-96260925D01*
X114297611Y-96254991D01*
X114297611Y-96233414D01*
X114295392Y-96208548D01*
X114295033Y-96203284D01*
X114291533Y-96129073D01*
X114291269Y-96123474D01*
X114287500Y-96107017D01*
X114284819Y-96090086D01*
X114283818Y-96078871D01*
X114283319Y-96073277D01*
X114281838Y-96067865D01*
X114281837Y-96067857D01*
X114262236Y-95996208D01*
X114260950Y-95991090D01*
X114257521Y-95976120D01*
X114243109Y-95913192D01*
X114240909Y-95908035D01*
X114240907Y-95908028D01*
X114236487Y-95897666D01*
X114230850Y-95881479D01*
X114227877Y-95870612D01*
X114227874Y-95870605D01*
X114226395Y-95865197D01*
X114191992Y-95793069D01*
X114189821Y-95788261D01*
X114160670Y-95719919D01*
X114158471Y-95714763D01*
X114149204Y-95700655D01*
X114140789Y-95685721D01*
X114135940Y-95675555D01*
X114135939Y-95675554D01*
X114133522Y-95670486D01*
X114130249Y-95665931D01*
X114130243Y-95665921D01*
X114086901Y-95605605D01*
X114083911Y-95601255D01*
X114042569Y-95538317D01*
X114042566Y-95538313D01*
X114040033Y-95534457D01*
X114022420Y-95514689D01*
X114014173Y-95504394D01*
X114010913Y-95499857D01*
X114010913Y-95499856D01*
X114007637Y-95495298D01*
X113933961Y-95423901D01*
X113932551Y-95422512D01*
X112818712Y-94308673D01*
X112807845Y-94296282D01*
X112798468Y-94284061D01*
X112798464Y-94284057D01*
X112795052Y-94279610D01*
X112737255Y-94227019D01*
X112732959Y-94222920D01*
X112717718Y-94207679D01*
X112698561Y-94191661D01*
X112694582Y-94188190D01*
X112682519Y-94177213D01*
X112635494Y-94134424D01*
X112630739Y-94131441D01*
X112621190Y-94125450D01*
X112607330Y-94115380D01*
X112605864Y-94114154D01*
X112594378Y-94104551D01*
X112524958Y-94064954D01*
X112520461Y-94062263D01*
X112452748Y-94019787D01*
X112437084Y-94013490D01*
X112421654Y-94006031D01*
X112406992Y-93997668D01*
X112401709Y-93995797D01*
X112401702Y-93995794D01*
X112331659Y-93970991D01*
X112326751Y-93969136D01*
X112252590Y-93939324D01*
X112247092Y-93938185D01*
X112247091Y-93938185D01*
X112236053Y-93935899D01*
X112219557Y-93931294D01*
X112203639Y-93925657D01*
X112198105Y-93924751D01*
X112198102Y-93924750D01*
X112124800Y-93912747D01*
X112119609Y-93911785D01*
X112106033Y-93908974D01*
X112041346Y-93895577D01*
X112036735Y-93895311D01*
X112036734Y-93895311D01*
X112014917Y-93894053D01*
X112001812Y-93892606D01*
X111996294Y-93891703D01*
X111990749Y-93890795D01*
X111985135Y-93890883D01*
X111985133Y-93890883D01*
X111888248Y-93892405D01*
X111886269Y-93892421D01*
X111120551Y-93892421D01*
X111052430Y-93872419D01*
X111005937Y-93818763D01*
X110995833Y-93748489D01*
X111011432Y-93703421D01*
X111107035Y-93537831D01*
X111109236Y-93534019D01*
X111214462Y-93273576D01*
X111221158Y-93246721D01*
X111281353Y-93005293D01*
X111281354Y-93005288D01*
X111282417Y-93001024D01*
X111290624Y-92922944D01*
X111311319Y-92726036D01*
X111311319Y-92726033D01*
X111311778Y-92721667D01*
X111310359Y-92681026D01*
X111302129Y-92445339D01*
X111302128Y-92445333D01*
X111301975Y-92440942D01*
X111296955Y-92412469D01*
X111257777Y-92190284D01*
X111253198Y-92164313D01*
X111166397Y-91897165D01*
X111131384Y-91825377D01*
X111074336Y-91708413D01*
X111043260Y-91644698D01*
X111040805Y-91641059D01*
X111040802Y-91641053D01*
X110946957Y-91501923D01*
X110886185Y-91411824D01*
X110817029Y-91335018D01*
X110703345Y-91208760D01*
X110698229Y-91203078D01*
X110483050Y-91022521D01*
X110244836Y-90873669D01*
X109988225Y-90759418D01*
X109718210Y-90681993D01*
X109713860Y-90681382D01*
X109713857Y-90681381D01*
X109610910Y-90666913D01*
X109440048Y-90642900D01*
X109229454Y-90642900D01*
X109227268Y-90643053D01*
X109227264Y-90643053D01*
X109023773Y-90657282D01*
X109023768Y-90657283D01*
X109019388Y-90657589D01*
X108744630Y-90715991D01*
X108740501Y-90717494D01*
X108740497Y-90717495D01*
X108484819Y-90810554D01*
X108484815Y-90810556D01*
X108480674Y-90812063D01*
X108232658Y-90943936D01*
X108229099Y-90946522D01*
X108229097Y-90946523D01*
X108030076Y-91091120D01*
X108005408Y-91109042D01*
X108002244Y-91112098D01*
X108002241Y-91112100D01*
X107976503Y-91136955D01*
X107803348Y-91304169D01*
X107630412Y-91525518D01*
X107628216Y-91529322D01*
X107628211Y-91529329D01*
X107524817Y-91708413D01*
X107489964Y-91768781D01*
X107384738Y-92029224D01*
X107383673Y-92033497D01*
X107383672Y-92033499D01*
X107337925Y-92216982D01*
X107316783Y-92301776D01*
X107316324Y-92306144D01*
X107316323Y-92306149D01*
X107305149Y-92412469D01*
X107287422Y-92581133D01*
X107297225Y-92861858D01*
X107297987Y-92866181D01*
X107297988Y-92866188D01*
X107321764Y-93001024D01*
X107346002Y-93138487D01*
X107432803Y-93405635D01*
X107434731Y-93409588D01*
X107434733Y-93409593D01*
X107476277Y-93494769D01*
X107555940Y-93658102D01*
X107558401Y-93661751D01*
X107558403Y-93661754D01*
X107581477Y-93695964D01*
X107602987Y-93763624D01*
X107584502Y-93832172D01*
X107531892Y-93879844D01*
X107477018Y-93892421D01*
X106829688Y-93892421D01*
X106761567Y-93872419D01*
X106740593Y-93855516D01*
X106408909Y-93523832D01*
X106398042Y-93511441D01*
X106388665Y-93499220D01*
X106388661Y-93499216D01*
X106385249Y-93494769D01*
X106327452Y-93442178D01*
X106323156Y-93438079D01*
X106307915Y-93422838D01*
X106288758Y-93406820D01*
X106284779Y-93403349D01*
X106282841Y-93401585D01*
X106225691Y-93349583D01*
X106220936Y-93346600D01*
X106211387Y-93340609D01*
X106197527Y-93330539D01*
X106196061Y-93329313D01*
X106184575Y-93319710D01*
X106115155Y-93280113D01*
X106110658Y-93277422D01*
X106042945Y-93234946D01*
X106027281Y-93228649D01*
X106011851Y-93221190D01*
X105997189Y-93212827D01*
X105991906Y-93210956D01*
X105991899Y-93210953D01*
X105921856Y-93186150D01*
X105916948Y-93184295D01*
X105842787Y-93154483D01*
X105837289Y-93153344D01*
X105837288Y-93153344D01*
X105826250Y-93151058D01*
X105809754Y-93146453D01*
X105793836Y-93140816D01*
X105788302Y-93139910D01*
X105788299Y-93139909D01*
X105714997Y-93127906D01*
X105709806Y-93126944D01*
X105696230Y-93124133D01*
X105631543Y-93110736D01*
X105626932Y-93110470D01*
X105626931Y-93110470D01*
X105605114Y-93109212D01*
X105592009Y-93107765D01*
X105586491Y-93106862D01*
X105580946Y-93105954D01*
X105575332Y-93106042D01*
X105575330Y-93106042D01*
X105478445Y-93107564D01*
X105476466Y-93107580D01*
X96494447Y-93107580D01*
X96426326Y-93087578D01*
X96405352Y-93070675D01*
X96294526Y-92959849D01*
X96260500Y-92897537D01*
X96257621Y-92870754D01*
X96257621Y-91724859D01*
X96258699Y-91708413D01*
X96260709Y-91693144D01*
X96261441Y-91687585D01*
X96257761Y-91609550D01*
X96257621Y-91603616D01*
X96257621Y-91582039D01*
X96255402Y-91557173D01*
X96255043Y-91551909D01*
X96251543Y-91477698D01*
X96251279Y-91472099D01*
X96247510Y-91455642D01*
X96244829Y-91438711D01*
X96243828Y-91427496D01*
X96243329Y-91421902D01*
X96241848Y-91416490D01*
X96241847Y-91416482D01*
X96222246Y-91344833D01*
X96220960Y-91339715D01*
X96207480Y-91280859D01*
X96203119Y-91261817D01*
X96200919Y-91256660D01*
X96200917Y-91256653D01*
X96196497Y-91246291D01*
X96190860Y-91230104D01*
X96187887Y-91219237D01*
X96187884Y-91219230D01*
X96186405Y-91213822D01*
X96183151Y-91206998D01*
X96152002Y-91141694D01*
X96149831Y-91136886D01*
X96147604Y-91131665D01*
X96118481Y-91063388D01*
X96109214Y-91049280D01*
X96100799Y-91034346D01*
X96095950Y-91024180D01*
X96095949Y-91024179D01*
X96093532Y-91019111D01*
X96090259Y-91014556D01*
X96090253Y-91014546D01*
X96046911Y-90954230D01*
X96043921Y-90949880D01*
X96002579Y-90886942D01*
X96002576Y-90886938D01*
X96000043Y-90883082D01*
X95982430Y-90863314D01*
X95974183Y-90853019D01*
X95970923Y-90848482D01*
X95970923Y-90848481D01*
X95967647Y-90843923D01*
X95893971Y-90772526D01*
X95892561Y-90771137D01*
X94531055Y-89409631D01*
X94520188Y-89397240D01*
X94510811Y-89385019D01*
X94510807Y-89385015D01*
X94507395Y-89380568D01*
X94449598Y-89327977D01*
X94445302Y-89323878D01*
X94430061Y-89308637D01*
X94410904Y-89292619D01*
X94406925Y-89289148D01*
X94404986Y-89287383D01*
X94347837Y-89235382D01*
X94343082Y-89232399D01*
X94333533Y-89226408D01*
X94319673Y-89216338D01*
X94318207Y-89215112D01*
X94306721Y-89205509D01*
X94237301Y-89165912D01*
X94232804Y-89163221D01*
X94165091Y-89120745D01*
X94149427Y-89114448D01*
X94133997Y-89106989D01*
X94119335Y-89098626D01*
X94114052Y-89096755D01*
X94114045Y-89096752D01*
X94044002Y-89071949D01*
X94039094Y-89070094D01*
X93964933Y-89040282D01*
X93959435Y-89039143D01*
X93959434Y-89039143D01*
X93948396Y-89036857D01*
X93931900Y-89032252D01*
X93915982Y-89026615D01*
X93910448Y-89025709D01*
X93910445Y-89025708D01*
X93837143Y-89013705D01*
X93831952Y-89012743D01*
X93805051Y-89007172D01*
X93753689Y-88996535D01*
X93749078Y-88996269D01*
X93749077Y-88996269D01*
X93727260Y-88995011D01*
X93714155Y-88993564D01*
X93708637Y-88992661D01*
X93703092Y-88991753D01*
X93697478Y-88991841D01*
X93697476Y-88991841D01*
X93600591Y-88993363D01*
X93598612Y-88993379D01*
X91673059Y-88993379D01*
X91656613Y-88992301D01*
X91653119Y-88991841D01*
X91635785Y-88989559D01*
X91630186Y-88989823D01*
X91630184Y-88989823D01*
X91557751Y-88993239D01*
X91551816Y-88993379D01*
X91530239Y-88993379D01*
X91527453Y-88993628D01*
X91527445Y-88993628D01*
X91505373Y-88995598D01*
X91500109Y-88995957D01*
X91447321Y-88998447D01*
X91420299Y-88999721D01*
X91414840Y-89000971D01*
X91414835Y-89000972D01*
X91403842Y-89003490D01*
X91386911Y-89006171D01*
X91382800Y-89006538D01*
X91370102Y-89007671D01*
X91364690Y-89009152D01*
X91364682Y-89009153D01*
X91293033Y-89028754D01*
X91287915Y-89030040D01*
X91278275Y-89032248D01*
X91210017Y-89047881D01*
X91204860Y-89050081D01*
X91204853Y-89050083D01*
X91194491Y-89054503D01*
X91178304Y-89060140D01*
X91167437Y-89063113D01*
X91167430Y-89063116D01*
X91162022Y-89064595D01*
X91156964Y-89067007D01*
X91156960Y-89067009D01*
X91089894Y-89098998D01*
X91085095Y-89101165D01*
X91011588Y-89132519D01*
X91006900Y-89135598D01*
X91006897Y-89135600D01*
X90997480Y-89141786D01*
X90982546Y-89150201D01*
X90967311Y-89157468D01*
X90962756Y-89160741D01*
X90962746Y-89160747D01*
X90902430Y-89204089D01*
X90898080Y-89207079D01*
X90835142Y-89248421D01*
X90835138Y-89248424D01*
X90831282Y-89250957D01*
X90827840Y-89254024D01*
X90811514Y-89268570D01*
X90801219Y-89276817D01*
X90792123Y-89283353D01*
X90767621Y-89308637D01*
X90720726Y-89357029D01*
X90719337Y-89358439D01*
X89357831Y-90719945D01*
X89345440Y-90730812D01*
X89333219Y-90740189D01*
X89333215Y-90740193D01*
X89328768Y-90743605D01*
X89303716Y-90771137D01*
X89276177Y-90801402D01*
X89272078Y-90805698D01*
X89256837Y-90820939D01*
X89255036Y-90823092D01*
X89255035Y-90823094D01*
X89240819Y-90840096D01*
X89237358Y-90844063D01*
X89183582Y-90903163D01*
X89180599Y-90907918D01*
X89174608Y-90917467D01*
X89164538Y-90931327D01*
X89153709Y-90944279D01*
X89114117Y-91013691D01*
X89111421Y-91018196D01*
X89068945Y-91085909D01*
X89066851Y-91091119D01*
X89066850Y-91091120D01*
X89062648Y-91101573D01*
X89055189Y-91117002D01*
X89046826Y-91131665D01*
X89044955Y-91136948D01*
X89044952Y-91136955D01*
X89020149Y-91206998D01*
X89018294Y-91211906D01*
X88988482Y-91286067D01*
X88987343Y-91291565D01*
X88987343Y-91291566D01*
X88985057Y-91302604D01*
X88980452Y-91319100D01*
X88974815Y-91335018D01*
X88973909Y-91340552D01*
X88973908Y-91340555D01*
X88961905Y-91413857D01*
X88960943Y-91419048D01*
X88958132Y-91432624D01*
X88944735Y-91497311D01*
X88944469Y-91501922D01*
X88944469Y-91501923D01*
X88943211Y-91523740D01*
X88941764Y-91536845D01*
X88940907Y-91542079D01*
X88939953Y-91547908D01*
X88940041Y-91553522D01*
X88940041Y-91553524D01*
X88941563Y-91650409D01*
X88941579Y-91652388D01*
X88941579Y-93005894D01*
X88921577Y-93074015D01*
X88867921Y-93120508D01*
X88848829Y-93127427D01*
X88792044Y-93142962D01*
X88786936Y-93144245D01*
X88709047Y-93162084D01*
X88703892Y-93164283D01*
X88703885Y-93164285D01*
X88693523Y-93168705D01*
X88677336Y-93174342D01*
X88666460Y-93177317D01*
X88666455Y-93177319D01*
X88661052Y-93178797D01*
X88608055Y-93204076D01*
X88588916Y-93213204D01*
X88584107Y-93215375D01*
X88538224Y-93234946D01*
X88510618Y-93246721D01*
X88505930Y-93249800D01*
X88505927Y-93249802D01*
X88496510Y-93255988D01*
X88481576Y-93264403D01*
X88466341Y-93271670D01*
X88461786Y-93274943D01*
X88461776Y-93274949D01*
X88401460Y-93318291D01*
X88397110Y-93321281D01*
X88334172Y-93362623D01*
X88334168Y-93362626D01*
X88330312Y-93365159D01*
X88326870Y-93368226D01*
X88310544Y-93382772D01*
X88300249Y-93391019D01*
X88291153Y-93397555D01*
X88266652Y-93422838D01*
X88219756Y-93471231D01*
X88218367Y-93472641D01*
X86888552Y-94802456D01*
X86876161Y-94813323D01*
X86863940Y-94822700D01*
X86863936Y-94822704D01*
X86859489Y-94826116D01*
X86855714Y-94830265D01*
X86806898Y-94883913D01*
X86802799Y-94888209D01*
X86787558Y-94903450D01*
X86785757Y-94905603D01*
X86785756Y-94905605D01*
X86771540Y-94922607D01*
X86768079Y-94926574D01*
X86714303Y-94985674D01*
X86711320Y-94990429D01*
X86705329Y-94999978D01*
X86695259Y-95013838D01*
X86684430Y-95026790D01*
X86649332Y-95088323D01*
X86644838Y-95096202D01*
X86642142Y-95100707D01*
X86599666Y-95168420D01*
X86597572Y-95173630D01*
X86597571Y-95173631D01*
X86593369Y-95184084D01*
X86585910Y-95199513D01*
X86577547Y-95214176D01*
X86575676Y-95219459D01*
X86575673Y-95219466D01*
X86550870Y-95289509D01*
X86549015Y-95294417D01*
X86519203Y-95368578D01*
X86518064Y-95374076D01*
X86518064Y-95374077D01*
X86515778Y-95385115D01*
X86511173Y-95401611D01*
X86505536Y-95417529D01*
X86504630Y-95423063D01*
X86504629Y-95423066D01*
X86492626Y-95496368D01*
X86491664Y-95501559D01*
X86475456Y-95579822D01*
X86475190Y-95584433D01*
X86475190Y-95584434D01*
X86473932Y-95606251D01*
X86472485Y-95619356D01*
X86471628Y-95624590D01*
X86470674Y-95630419D01*
X86470762Y-95636033D01*
X86470762Y-95636035D01*
X86472284Y-95732920D01*
X86472300Y-95734899D01*
X86472300Y-96424433D01*
X86452298Y-96492554D01*
X86435395Y-96513528D01*
X85269437Y-97679486D01*
X85207125Y-97713512D01*
X85136310Y-97708447D01*
X85079474Y-97665900D01*
X85054477Y-97596216D01*
X85054110Y-97588291D01*
X85053833Y-97582301D01*
X85004275Y-97376666D01*
X84960925Y-97281322D01*
X84929325Y-97211823D01*
X84916726Y-97184113D01*
X84794346Y-97011589D01*
X84641550Y-96865319D01*
X84636519Y-96862070D01*
X84636512Y-96862065D01*
X84608793Y-96844167D01*
X84562416Y-96790411D01*
X84552463Y-96720115D01*
X84582096Y-96655598D01*
X84599309Y-96639230D01*
X84714257Y-96548938D01*
X84722906Y-96540701D01*
X84853612Y-96390077D01*
X84860547Y-96380353D01*
X84960410Y-96207733D01*
X84965384Y-96196869D01*
X85030807Y-96008473D01*
X85031048Y-96007484D01*
X85029580Y-95997192D01*
X85016015Y-95993200D01*
X82340998Y-95993200D01*
X82327467Y-95997173D01*
X82326112Y-96006599D01*
X82347594Y-96095737D01*
X82351483Y-96107032D01*
X82434029Y-96288582D01*
X82439976Y-96298924D01*
X82555368Y-96461597D01*
X82563161Y-96470625D01*
X82707231Y-96608542D01*
X82716600Y-96615941D01*
X82743977Y-96633618D01*
X82790355Y-96687372D01*
X82800309Y-96757668D01*
X82770678Y-96822185D01*
X82753463Y-96838556D01*
X82633480Y-96932804D01*
X82629548Y-96937335D01*
X82629545Y-96937338D01*
X82561779Y-97015432D01*
X82494848Y-97092563D01*
X82491848Y-97097749D01*
X82491845Y-97097753D01*
X82425854Y-97211823D01*
X82388927Y-97275654D01*
X82319539Y-97475471D01*
X82318678Y-97481406D01*
X82318678Y-97481408D01*
X82293230Y-97656923D01*
X82289187Y-97684804D01*
X82298967Y-97896099D01*
X82300371Y-97901924D01*
X82300371Y-97901925D01*
X82341777Y-98073732D01*
X82348525Y-98101734D01*
X82351007Y-98107192D01*
X82351008Y-98107196D01*
X82399611Y-98214092D01*
X82436074Y-98294287D01*
X82558454Y-98466811D01*
X82562781Y-98470953D01*
X82562786Y-98470959D01*
X82653716Y-98558005D01*
X82689093Y-98619560D01*
X82685574Y-98690469D01*
X82644278Y-98748220D01*
X82632889Y-98756167D01*
X82583278Y-98786867D01*
X82583274Y-98786870D01*
X82577051Y-98790721D01*
X82452094Y-98915897D01*
X82425483Y-98959068D01*
X82367832Y-99052596D01*
X82359285Y-99066461D01*
X82344751Y-99110279D01*
X82310052Y-99214896D01*
X82303603Y-99234338D01*
X82292900Y-99338799D01*
X82292901Y-100139600D01*
X82303874Y-100245367D01*
X82306058Y-100251913D01*
X82330004Y-100323686D01*
X82359850Y-100413146D01*
X82452921Y-100563549D01*
X82578097Y-100688506D01*
X82728661Y-100781315D01*
X82746811Y-100787335D01*
X82890010Y-100834832D01*
X82890012Y-100834832D01*
X82896538Y-100836997D01*
X82903374Y-100837697D01*
X82903377Y-100837698D01*
X82944674Y-100841929D01*
X83000999Y-100847700D01*
X83169234Y-100847700D01*
X83216228Y-100856792D01*
X83325693Y-100900797D01*
X83536937Y-100944544D01*
X83541548Y-100944810D01*
X83541549Y-100944810D01*
X83589852Y-100947595D01*
X83589856Y-100947595D01*
X83591675Y-100947700D01*
X84390843Y-100947700D01*
X84458964Y-100967702D01*
X84505457Y-101021358D01*
X84515561Y-101091632D01*
X84486067Y-101156212D01*
X84479938Y-101162795D01*
X79344812Y-106297921D01*
X79282500Y-106331947D01*
X79211685Y-106326882D01*
X79154849Y-106284335D01*
X79132778Y-106236425D01*
X79112366Y-106145481D01*
X79027853Y-105951576D01*
X79024464Y-105946636D01*
X79024462Y-105946632D01*
X78911591Y-105782097D01*
X78908198Y-105777151D01*
X78769912Y-105640545D01*
X78761987Y-105632716D01*
X78761986Y-105632715D01*
X78757718Y-105628499D01*
X78708256Y-105595449D01*
X78639223Y-105549323D01*
X78581844Y-105510983D01*
X78576322Y-105508656D01*
X78576320Y-105508655D01*
X78467241Y-105462690D01*
X78386922Y-105428844D01*
X78381054Y-105427602D01*
X78185858Y-105386290D01*
X78185856Y-105386290D01*
X78179984Y-105385047D01*
X78173984Y-105384937D01*
X77973029Y-105381253D01*
X77973028Y-105381253D01*
X77968498Y-105381170D01*
X77962973Y-105381868D01*
X77961473Y-105382132D01*
X77961463Y-105382134D01*
X77635523Y-105439606D01*
X77267751Y-105504454D01*
X77167414Y-105532186D01*
X77120821Y-105545063D01*
X77120819Y-105545064D01*
X77115040Y-105546661D01*
X77109666Y-105549323D01*
X76930864Y-105637885D01*
X76930859Y-105637888D01*
X76925495Y-105640545D01*
X76757124Y-105768578D01*
X76616000Y-105926139D01*
X76612922Y-105931273D01*
X76612919Y-105931276D01*
X76547826Y-106039824D01*
X76507216Y-106107544D01*
X76505162Y-106113172D01*
X76505161Y-106113174D01*
X76437363Y-106298941D01*
X76434697Y-106306247D01*
X76433743Y-106312170D01*
X76407474Y-106475264D01*
X76401061Y-106515077D01*
X76401244Y-106521074D01*
X76401244Y-106521077D01*
X76402549Y-106563800D01*
X76407520Y-106726500D01*
X76453842Y-106932887D01*
X76538355Y-107126792D01*
X76541746Y-107131735D01*
X76616024Y-107240011D01*
X76658011Y-107301217D01*
X76662269Y-107305424D01*
X76662273Y-107305428D01*
X76800524Y-107442000D01*
X76808490Y-107449869D01*
X76813470Y-107453197D01*
X76813473Y-107453199D01*
X76826648Y-107462002D01*
X76918143Y-107523137D01*
X76963670Y-107577613D01*
X76972518Y-107648056D01*
X76941877Y-107712100D01*
X76932041Y-107721904D01*
X76888515Y-107760752D01*
X76888510Y-107760758D01*
X76883051Y-107765630D01*
X76781729Y-107910603D01*
X76779027Y-107917410D01*
X76779026Y-107917412D01*
X76761033Y-107962741D01*
X76716475Y-108074996D01*
X76715412Y-108082238D01*
X76715411Y-108082242D01*
X76697819Y-108202110D01*
X76690791Y-108249992D01*
X76698390Y-108354724D01*
X76698948Y-108357890D01*
X76698949Y-108357896D01*
X76829836Y-109100188D01*
X76837448Y-109143359D01*
X76838342Y-109146491D01*
X76838342Y-109146493D01*
X76854366Y-109202657D01*
X76866621Y-109245614D01*
X76869903Y-109251672D01*
X76869905Y-109251676D01*
X76906268Y-109318786D01*
X76950881Y-109401124D01*
X76955752Y-109406581D01*
X76955753Y-109406583D01*
X77006749Y-109463719D01*
X77068655Y-109533080D01*
X77074656Y-109537274D01*
X77074657Y-109537275D01*
X77122548Y-109570746D01*
X77213628Y-109634402D01*
X77220435Y-109637104D01*
X77220437Y-109637105D01*
X77371213Y-109696954D01*
X77371216Y-109696955D01*
X77378021Y-109699656D01*
X77385265Y-109700719D01*
X77385268Y-109700720D01*
X77483474Y-109715134D01*
X77553016Y-109725341D01*
X77559868Y-109724844D01*
X77559873Y-109724844D01*
X77646229Y-109718578D01*
X77657749Y-109717742D01*
X77660915Y-109717184D01*
X77660921Y-109717183D01*
X78198201Y-109622445D01*
X78988028Y-109483176D01*
X78991155Y-109482284D01*
X78991159Y-109482283D01*
X79030825Y-109470967D01*
X79090283Y-109454004D01*
X79134437Y-109430080D01*
X79239358Y-109373231D01*
X79239360Y-109373230D01*
X79245793Y-109369744D01*
X79377749Y-109251970D01*
X79429613Y-109177763D01*
X79451467Y-109146493D01*
X79479071Y-109106997D01*
X79510286Y-109028359D01*
X79541623Y-108949411D01*
X79544325Y-108942604D01*
X79545388Y-108935362D01*
X79545389Y-108935358D01*
X79569010Y-108774414D01*
X79570009Y-108767608D01*
X79563792Y-108681921D01*
X79578812Y-108612531D01*
X79600367Y-108583708D01*
X82823645Y-105360430D01*
X82885957Y-105326404D01*
X82956772Y-105331469D01*
X83013608Y-105374016D01*
X83036826Y-105427645D01*
X83128338Y-105946632D01*
X83136648Y-105993759D01*
X83165821Y-106096014D01*
X83169103Y-106102072D01*
X83169105Y-106102076D01*
X83243899Y-106240115D01*
X83250081Y-106251524D01*
X83254952Y-106256981D01*
X83254953Y-106256983D01*
X83280941Y-106286100D01*
X83367855Y-106383480D01*
X83373856Y-106387674D01*
X83373857Y-106387675D01*
X83450111Y-106440969D01*
X83512828Y-106484802D01*
X83569102Y-106507139D01*
X83625035Y-106550860D01*
X83648453Y-106617883D01*
X83631918Y-106686928D01*
X83616471Y-106708314D01*
X83609792Y-106715771D01*
X83501008Y-106897176D01*
X83498954Y-106902804D01*
X83498953Y-106902806D01*
X83434190Y-107080259D01*
X83428489Y-107095879D01*
X83427535Y-107101802D01*
X83407643Y-107225305D01*
X83394853Y-107304709D01*
X83395036Y-107310706D01*
X83395036Y-107310709D01*
X83396507Y-107358847D01*
X83401312Y-107516132D01*
X83447634Y-107722519D01*
X83532147Y-107916424D01*
X83543498Y-107932970D01*
X83648234Y-108085646D01*
X83651803Y-108090849D01*
X83656061Y-108095056D01*
X83656065Y-108095060D01*
X83794317Y-108231633D01*
X83802282Y-108239501D01*
X83978156Y-108357017D01*
X83983678Y-108359344D01*
X83983680Y-108359345D01*
X84029583Y-108378688D01*
X84173079Y-108439156D01*
X84178946Y-108440398D01*
X84178947Y-108440398D01*
X84374143Y-108481710D01*
X84374145Y-108481710D01*
X84380017Y-108482953D01*
X84386017Y-108483063D01*
X84586973Y-108486747D01*
X84586974Y-108486747D01*
X84591503Y-108486830D01*
X84597027Y-108486132D01*
X85292250Y-108363546D01*
X85396361Y-108334771D01*
X85439179Y-108322937D01*
X85439181Y-108322936D01*
X85444960Y-108321339D01*
X85493047Y-108297521D01*
X85629136Y-108230115D01*
X85629141Y-108230112D01*
X85634505Y-108227455D01*
X85707076Y-108172271D01*
X85798104Y-108103052D01*
X85798107Y-108103049D01*
X85802877Y-108099422D01*
X85924577Y-107963548D01*
X85940001Y-107946327D01*
X85940001Y-107946326D01*
X85944001Y-107941861D01*
X85952098Y-107928360D01*
X86033002Y-107793445D01*
X86052785Y-107760456D01*
X86054840Y-107754826D01*
X86123247Y-107567388D01*
X86123248Y-107567383D01*
X86125303Y-107561753D01*
X86142788Y-107453199D01*
X86157985Y-107358847D01*
X86157985Y-107358845D01*
X86158939Y-107352923D01*
X86158616Y-107342328D01*
X86152663Y-107147495D01*
X86152480Y-107141500D01*
X86114074Y-106970383D01*
X86118672Y-106899537D01*
X86147920Y-106853696D01*
X86522491Y-106479125D01*
X86584803Y-106445099D01*
X86611586Y-106442220D01*
X92156313Y-106442220D01*
X92167496Y-106442747D01*
X92174989Y-106444422D01*
X92182915Y-106444173D01*
X92182916Y-106444173D01*
X92243066Y-106442282D01*
X92247025Y-106442220D01*
X92274936Y-106442220D01*
X92278871Y-106441723D01*
X92278936Y-106441715D01*
X92290773Y-106440782D01*
X92323031Y-106439768D01*
X92327050Y-106439642D01*
X92334969Y-106439393D01*
X92354423Y-106433741D01*
X92373780Y-106429733D01*
X92386010Y-106428188D01*
X92386011Y-106428188D01*
X92393877Y-106427194D01*
X92401248Y-106424275D01*
X92401250Y-106424275D01*
X92434992Y-106410916D01*
X92446222Y-106407071D01*
X92481063Y-106396949D01*
X92481064Y-106396949D01*
X92488673Y-106394738D01*
X92495492Y-106390705D01*
X92495497Y-106390703D01*
X92506108Y-106384427D01*
X92523856Y-106375732D01*
X92542697Y-106368272D01*
X92565890Y-106351422D01*
X92578467Y-106342284D01*
X92588387Y-106335768D01*
X92619615Y-106317300D01*
X92619618Y-106317298D01*
X92626442Y-106313262D01*
X92640763Y-106298941D01*
X92655797Y-106286100D01*
X92665774Y-106278851D01*
X92672187Y-106274192D01*
X92700378Y-106240115D01*
X92708368Y-106231336D01*
X94576472Y-104363232D01*
X97914400Y-104363232D01*
X97914685Y-104369208D01*
X97928871Y-104517894D01*
X97931130Y-104529628D01*
X97987272Y-104720999D01*
X97991702Y-104732075D01*
X98083019Y-104909378D01*
X98089469Y-104919424D01*
X98212662Y-105076257D01*
X98220899Y-105084906D01*
X98371523Y-105215612D01*
X98381247Y-105222547D01*
X98553867Y-105322410D01*
X98564731Y-105327384D01*
X98753127Y-105392807D01*
X98754116Y-105393048D01*
X98764408Y-105391580D01*
X98768400Y-105378015D01*
X98768400Y-105373802D01*
X99276400Y-105373802D01*
X99280373Y-105387333D01*
X99289799Y-105388688D01*
X99378937Y-105367206D01*
X99390232Y-105363317D01*
X99571782Y-105280771D01*
X99582124Y-105274824D01*
X99744797Y-105159432D01*
X99753825Y-105151639D01*
X99891742Y-105007569D01*
X99899141Y-104998200D01*
X99916818Y-104970823D01*
X99970572Y-104924445D01*
X100040868Y-104914491D01*
X100105385Y-104944122D01*
X100121756Y-104961337D01*
X100216004Y-105081320D01*
X100220535Y-105085252D01*
X100220538Y-105085255D01*
X100304616Y-105158214D01*
X100375763Y-105219952D01*
X100380949Y-105222952D01*
X100380953Y-105222955D01*
X100477357Y-105278726D01*
X100558854Y-105325873D01*
X100758671Y-105395261D01*
X100764606Y-105396122D01*
X100764608Y-105396122D01*
X100962064Y-105424752D01*
X100962067Y-105424752D01*
X100968004Y-105425613D01*
X101179299Y-105415833D01*
X101323129Y-105381170D01*
X101379101Y-105367681D01*
X101379103Y-105367680D01*
X101384934Y-105366275D01*
X101390392Y-105363793D01*
X101390396Y-105363792D01*
X101528485Y-105301006D01*
X101577487Y-105278726D01*
X101750011Y-105156346D01*
X101754153Y-105152019D01*
X101754159Y-105152014D01*
X101841206Y-105061083D01*
X101902761Y-105025706D01*
X101973670Y-105029225D01*
X102031421Y-105070521D01*
X102039365Y-105081904D01*
X102073922Y-105137748D01*
X102199097Y-105262705D01*
X102205327Y-105266545D01*
X102205328Y-105266546D01*
X102342490Y-105351094D01*
X102349662Y-105355515D01*
X102386342Y-105367681D01*
X102511011Y-105409032D01*
X102511013Y-105409032D01*
X102517539Y-105411197D01*
X102524375Y-105411897D01*
X102524378Y-105411898D01*
X102562786Y-105415833D01*
X102622000Y-105421900D01*
X103422800Y-105421900D01*
X103426046Y-105421563D01*
X103426050Y-105421563D01*
X103521708Y-105411638D01*
X103521712Y-105411637D01*
X103528566Y-105410926D01*
X103535102Y-105408745D01*
X103535104Y-105408745D01*
X103679920Y-105360430D01*
X103696346Y-105354950D01*
X103846748Y-105261878D01*
X103971705Y-105136703D01*
X103984451Y-105116025D01*
X104060675Y-104992368D01*
X104060676Y-104992366D01*
X104064515Y-104986138D01*
X104120197Y-104818261D01*
X104130900Y-104713800D01*
X104130900Y-103363000D01*
X104124209Y-103298514D01*
X104120638Y-103264092D01*
X104120637Y-103264088D01*
X104119926Y-103257234D01*
X104096901Y-103188218D01*
X104066268Y-103096402D01*
X104063950Y-103089454D01*
X103970878Y-102939052D01*
X103845703Y-102814095D01*
X103838372Y-102809576D01*
X103701368Y-102725125D01*
X103701366Y-102725124D01*
X103695138Y-102721285D01*
X103586405Y-102685220D01*
X103533789Y-102667768D01*
X103533787Y-102667768D01*
X103527261Y-102665603D01*
X103520425Y-102664903D01*
X103520422Y-102664902D01*
X103477369Y-102660491D01*
X103422800Y-102654900D01*
X102622000Y-102654900D01*
X102618754Y-102655237D01*
X102618750Y-102655237D01*
X102523092Y-102665162D01*
X102523088Y-102665163D01*
X102516234Y-102665874D01*
X102509698Y-102668055D01*
X102509696Y-102668055D01*
X102445517Y-102689467D01*
X102348454Y-102721850D01*
X102198052Y-102814922D01*
X102192879Y-102820104D01*
X102152275Y-102860779D01*
X102073095Y-102940097D01*
X102043151Y-102988676D01*
X102041326Y-102991636D01*
X101988554Y-103039129D01*
X101918482Y-103050553D01*
X101853358Y-103022279D01*
X101834982Y-103003355D01*
X101828796Y-102995480D01*
X101824265Y-102991548D01*
X101824262Y-102991545D01*
X101673567Y-102860779D01*
X101669037Y-102856848D01*
X101663851Y-102853848D01*
X101663847Y-102853845D01*
X101491142Y-102753933D01*
X101485946Y-102750927D01*
X101286129Y-102681539D01*
X101280194Y-102680678D01*
X101280192Y-102680678D01*
X101082736Y-102652048D01*
X101082733Y-102652048D01*
X101076796Y-102651187D01*
X100865501Y-102660967D01*
X100761028Y-102686145D01*
X100665699Y-102709119D01*
X100665697Y-102709120D01*
X100659866Y-102710525D01*
X100654408Y-102713007D01*
X100654404Y-102713008D01*
X100563390Y-102754390D01*
X100467313Y-102798074D01*
X100294789Y-102920454D01*
X100148519Y-103073250D01*
X100145270Y-103078281D01*
X100145265Y-103078288D01*
X100127367Y-103106007D01*
X100073611Y-103152384D01*
X100003315Y-103162337D01*
X99938798Y-103132704D01*
X99922430Y-103115491D01*
X99832138Y-103000543D01*
X99823901Y-102991894D01*
X99673277Y-102861188D01*
X99663553Y-102854253D01*
X99490933Y-102754390D01*
X99480069Y-102749416D01*
X99291673Y-102683993D01*
X99290684Y-102683752D01*
X99280392Y-102685220D01*
X99276400Y-102698785D01*
X99276400Y-105373802D01*
X98768400Y-105373802D01*
X98768400Y-104310515D01*
X98763925Y-104295276D01*
X98762535Y-104294071D01*
X98754852Y-104292400D01*
X97932515Y-104292400D01*
X97917276Y-104296875D01*
X97916071Y-104298265D01*
X97914400Y-104305948D01*
X97914400Y-104363232D01*
X94576472Y-104363232D01*
X95173419Y-103766285D01*
X97914400Y-103766285D01*
X97918875Y-103781524D01*
X97920265Y-103782729D01*
X97927948Y-103784400D01*
X98750285Y-103784400D01*
X98765524Y-103779925D01*
X98766729Y-103778535D01*
X98768400Y-103770852D01*
X98768400Y-102702998D01*
X98764427Y-102689467D01*
X98755001Y-102688112D01*
X98665863Y-102709594D01*
X98654568Y-102713483D01*
X98473018Y-102796029D01*
X98462676Y-102801976D01*
X98300003Y-102917368D01*
X98290975Y-102925161D01*
X98153058Y-103069231D01*
X98145662Y-103078596D01*
X98037479Y-103246141D01*
X98031983Y-103256745D01*
X97957439Y-103441712D01*
X97954045Y-103453170D01*
X97915543Y-103650328D01*
X97914466Y-103659191D01*
X97914400Y-103661900D01*
X97914400Y-103766285D01*
X95173419Y-103766285D01*
X98235702Y-100704003D01*
X98298014Y-100669977D01*
X98368829Y-100675042D01*
X98428010Y-100720827D01*
X98467676Y-100777475D01*
X98471851Y-100783438D01*
X98627562Y-100939149D01*
X98632071Y-100942306D01*
X98632073Y-100942308D01*
X98669992Y-100968859D01*
X98807946Y-101065456D01*
X99007524Y-101158520D01*
X99220229Y-101215515D01*
X99439600Y-101234707D01*
X99658971Y-101215515D01*
X99871676Y-101158520D01*
X100071254Y-101065456D01*
X100209208Y-100968859D01*
X100247127Y-100942308D01*
X100247129Y-100942306D01*
X100251638Y-100939149D01*
X100407349Y-100783438D01*
X100411525Y-100777475D01*
X100461711Y-100705801D01*
X100517168Y-100661473D01*
X100587787Y-100654164D01*
X100645239Y-100680987D01*
X100660604Y-100693698D01*
X100669384Y-100701688D01*
X101855374Y-101887678D01*
X101862918Y-101895968D01*
X101867031Y-101902449D01*
X101872808Y-101907874D01*
X101916698Y-101949089D01*
X101919540Y-101951844D01*
X101939261Y-101971565D01*
X101942456Y-101974043D01*
X101951478Y-101981749D01*
X101983710Y-102012017D01*
X101990659Y-102015837D01*
X102001463Y-102021777D01*
X102017987Y-102032630D01*
X102033990Y-102045044D01*
X102074574Y-102062607D01*
X102085204Y-102067814D01*
X102123971Y-102089126D01*
X102131648Y-102091097D01*
X102131653Y-102091099D01*
X102143589Y-102094163D01*
X102162297Y-102100568D01*
X102180886Y-102108612D01*
X102188711Y-102109851D01*
X102188713Y-102109852D01*
X102224550Y-102115528D01*
X102236171Y-102117935D01*
X102271320Y-102126959D01*
X102279001Y-102128931D01*
X102299262Y-102128931D01*
X102318971Y-102130482D01*
X102338974Y-102133650D01*
X102346866Y-102132904D01*
X102352093Y-102132410D01*
X102382985Y-102129490D01*
X102394842Y-102128931D01*
X105092437Y-102128931D01*
X105160558Y-102148933D01*
X105181532Y-102165836D01*
X106043605Y-103027909D01*
X106077631Y-103090221D01*
X106074343Y-103155940D01*
X106041590Y-103256745D01*
X106028018Y-103298514D01*
X106027328Y-103305075D01*
X106027328Y-103305077D01*
X106013392Y-103437670D01*
X106008056Y-103488442D01*
X106008746Y-103495007D01*
X106026119Y-103660299D01*
X106028018Y-103678370D01*
X106087033Y-103859998D01*
X106090336Y-103865720D01*
X106090337Y-103865721D01*
X106098172Y-103879291D01*
X106182520Y-104025386D01*
X106262785Y-104114529D01*
X106270090Y-104122642D01*
X106300807Y-104186650D01*
X106292042Y-104257103D01*
X106265548Y-104296047D01*
X104174595Y-106387000D01*
X104112283Y-106421026D01*
X104043441Y-106416678D01*
X103939284Y-106379794D01*
X103939281Y-106379793D01*
X103934412Y-106378069D01*
X103929323Y-106377162D01*
X103929321Y-106377162D01*
X103719573Y-106339800D01*
X103719567Y-106339799D01*
X103714484Y-106338894D01*
X103640652Y-106337992D01*
X103496281Y-106336228D01*
X103496279Y-106336228D01*
X103491111Y-106336165D01*
X103270291Y-106369955D01*
X103057956Y-106439357D01*
X103026742Y-106455606D01*
X102900974Y-106521077D01*
X102859807Y-106542507D01*
X102855674Y-106545610D01*
X102855671Y-106545612D01*
X102759415Y-106617883D01*
X102681165Y-106676635D01*
X102677593Y-106680373D01*
X102557526Y-106806016D01*
X102526829Y-106838138D01*
X102419401Y-106995621D01*
X102364493Y-107040621D01*
X102293968Y-107048792D01*
X102230221Y-107017538D01*
X102209524Y-106993054D01*
X102129022Y-106868617D01*
X102129020Y-106868614D01*
X102126214Y-106864277D01*
X101975870Y-106699051D01*
X101971819Y-106695852D01*
X101971815Y-106695848D01*
X101804614Y-106563800D01*
X101804610Y-106563798D01*
X101800559Y-106560598D01*
X101604989Y-106452638D01*
X101600120Y-106450914D01*
X101600116Y-106450912D01*
X101399287Y-106379795D01*
X101399283Y-106379794D01*
X101394412Y-106378069D01*
X101389319Y-106377162D01*
X101389316Y-106377161D01*
X101179573Y-106339800D01*
X101179567Y-106339799D01*
X101174484Y-106338894D01*
X101100652Y-106337992D01*
X100956281Y-106336228D01*
X100956279Y-106336228D01*
X100951111Y-106336165D01*
X100730291Y-106369955D01*
X100517956Y-106439357D01*
X100486742Y-106455606D01*
X100360974Y-106521077D01*
X100319807Y-106542507D01*
X100315674Y-106545610D01*
X100315671Y-106545612D01*
X100219415Y-106617883D01*
X100141165Y-106676635D01*
X100137593Y-106680373D01*
X100060098Y-106761466D01*
X99998574Y-106796895D01*
X99927662Y-106793438D01*
X99869876Y-106752192D01*
X99851023Y-106718644D01*
X99809524Y-106607946D01*
X99800986Y-106592351D01*
X99724485Y-106490276D01*
X99711924Y-106477715D01*
X99609849Y-106401214D01*
X99594254Y-106392676D01*
X99473806Y-106347522D01*
X99458551Y-106343895D01*
X99407686Y-106338369D01*
X99400872Y-106338000D01*
X98778315Y-106338000D01*
X98763076Y-106342475D01*
X98761871Y-106343865D01*
X98760200Y-106351548D01*
X98760200Y-109035884D01*
X98764675Y-109051123D01*
X98766065Y-109052328D01*
X98773748Y-109053999D01*
X99400869Y-109053999D01*
X99407690Y-109053629D01*
X99458552Y-109048105D01*
X99473804Y-109044479D01*
X99594254Y-108999324D01*
X99609849Y-108990786D01*
X99711924Y-108914285D01*
X99724485Y-108901724D01*
X99800989Y-108799644D01*
X99804380Y-108793451D01*
X99854637Y-108743304D01*
X99924028Y-108728290D01*
X99990521Y-108753175D01*
X100033004Y-108810058D01*
X100040900Y-108853959D01*
X100040900Y-111390700D01*
X100020898Y-111458821D01*
X99967242Y-111505314D01*
X99914900Y-111516700D01*
X99360865Y-111516700D01*
X99358078Y-111516949D01*
X99358072Y-111516949D01*
X99291360Y-111522903D01*
X99200728Y-111530992D01*
X99177971Y-111537218D01*
X99177911Y-111537234D01*
X99144663Y-111541700D01*
X98692466Y-111541700D01*
X98630284Y-111548455D01*
X98493895Y-111599585D01*
X98377339Y-111686939D01*
X98289985Y-111803495D01*
X98238855Y-111939884D01*
X98232100Y-112002066D01*
X98232100Y-112462770D01*
X98228619Y-112492184D01*
X98215232Y-112547945D01*
X98212507Y-112595208D01*
X98203545Y-112750641D01*
X98202814Y-112763313D01*
X98203489Y-112768891D01*
X98212716Y-112845137D01*
X98228730Y-112977477D01*
X98229587Y-112980261D01*
X98232100Y-113004175D01*
X98232100Y-113448334D01*
X98238855Y-113510516D01*
X98289985Y-113646905D01*
X98377339Y-113763461D01*
X98384519Y-113768842D01*
X98455869Y-113822316D01*
X98498384Y-113879175D01*
X98503410Y-113949994D01*
X98479254Y-114001148D01*
X98422355Y-114073324D01*
X98418781Y-114077858D01*
X98317505Y-114270354D01*
X98315793Y-114275868D01*
X98315792Y-114275870D01*
X98315295Y-114277471D01*
X98314855Y-114278133D01*
X98313583Y-114281204D01*
X98312979Y-114280954D01*
X98275987Y-114336594D01*
X98210956Y-114365079D01*
X98140847Y-114353884D01*
X98105870Y-114329193D01*
X95290977Y-111514300D01*
X95256951Y-111451988D01*
X95262016Y-111381173D01*
X95307799Y-111321993D01*
X95310226Y-111320293D01*
X95316671Y-111316816D01*
X95322142Y-111311950D01*
X95322145Y-111311948D01*
X95408737Y-111234931D01*
X95448831Y-111199271D01*
X95452856Y-111193700D01*
X95452860Y-111193696D01*
X95508453Y-111116756D01*
X95510331Y-111114157D01*
X96267664Y-109802418D01*
X96319096Y-109713335D01*
X96319096Y-109713334D01*
X96320731Y-109710503D01*
X96364110Y-109613421D01*
X96399523Y-109440131D01*
X96394122Y-109263342D01*
X96391065Y-109251970D01*
X96350097Y-109099609D01*
X96348196Y-109092539D01*
X96264208Y-108936881D01*
X96199291Y-108863892D01*
X96151236Y-108809861D01*
X96151233Y-108809858D01*
X96146663Y-108804720D01*
X96061548Y-108743220D01*
X96058765Y-108741613D01*
X96058760Y-108741610D01*
X95797323Y-108590669D01*
X97148201Y-108590669D01*
X97148571Y-108597490D01*
X97154095Y-108648352D01*
X97157721Y-108663604D01*
X97202876Y-108784054D01*
X97211414Y-108799649D01*
X97287915Y-108901724D01*
X97300476Y-108914285D01*
X97402551Y-108990786D01*
X97418146Y-108999324D01*
X97538594Y-109044478D01*
X97553849Y-109048105D01*
X97604714Y-109053631D01*
X97611528Y-109054000D01*
X98234085Y-109054000D01*
X98249324Y-109049525D01*
X98250529Y-109048135D01*
X98252200Y-109040452D01*
X98252200Y-107968115D01*
X98247725Y-107952876D01*
X98246335Y-107951671D01*
X98238652Y-107950000D01*
X97166316Y-107950000D01*
X97151077Y-107954475D01*
X97149872Y-107955865D01*
X97148201Y-107963548D01*
X97148201Y-108590669D01*
X95797323Y-108590669D01*
X95624729Y-108491022D01*
X95108228Y-108192820D01*
X95011145Y-108149442D01*
X95004129Y-108148008D01*
X94927416Y-108132331D01*
X94837856Y-108114028D01*
X94749462Y-108116729D01*
X94668383Y-108119206D01*
X94668379Y-108119207D01*
X94661067Y-108119430D01*
X94654003Y-108121329D01*
X94653999Y-108121330D01*
X94538983Y-108152256D01*
X94490263Y-108165356D01*
X94334605Y-108249344D01*
X94202445Y-108366889D01*
X94198420Y-108372460D01*
X94198416Y-108372464D01*
X94159539Y-108426269D01*
X94140945Y-108452003D01*
X94139345Y-108454774D01*
X94139340Y-108454782D01*
X93671181Y-109265657D01*
X93619798Y-109314650D01*
X93550085Y-109328086D01*
X93484174Y-109301700D01*
X93442992Y-109243867D01*
X93436062Y-109202657D01*
X93436062Y-108740657D01*
X93452943Y-108677657D01*
X93455699Y-108672883D01*
X93475955Y-108637799D01*
X93525572Y-108530909D01*
X93544087Y-108491022D01*
X93544088Y-108491018D01*
X93546447Y-108485937D01*
X93580038Y-108357896D01*
X93602032Y-108274060D01*
X93602032Y-108274058D01*
X93603454Y-108268639D01*
X93604557Y-108254630D01*
X93619939Y-108059167D01*
X93621079Y-108044680D01*
X93616007Y-107993866D01*
X93599325Y-107826726D01*
X93599324Y-107826722D01*
X93598767Y-107821139D01*
X93537222Y-107605082D01*
X93448454Y-107423885D01*
X97148200Y-107423885D01*
X97152675Y-107439124D01*
X97154065Y-107440329D01*
X97161748Y-107442000D01*
X98234085Y-107442000D01*
X98249324Y-107437525D01*
X98250529Y-107436135D01*
X98252200Y-107428452D01*
X98252200Y-106356116D01*
X98247725Y-106340877D01*
X98246335Y-106339672D01*
X98238652Y-106338001D01*
X97611531Y-106338001D01*
X97604710Y-106338371D01*
X97553848Y-106343895D01*
X97538596Y-106347521D01*
X97418146Y-106392676D01*
X97402551Y-106401214D01*
X97300476Y-106477715D01*
X97287915Y-106490276D01*
X97211414Y-106592351D01*
X97202876Y-106607946D01*
X97157722Y-106728394D01*
X97154095Y-106743649D01*
X97148569Y-106794514D01*
X97148200Y-106801328D01*
X97148200Y-107423885D01*
X93448454Y-107423885D01*
X93438389Y-107403340D01*
X93305392Y-107222287D01*
X93142436Y-107067647D01*
X92954670Y-106944309D01*
X92927892Y-106932887D01*
X92753197Y-106858372D01*
X92753192Y-106858370D01*
X92748031Y-106856169D01*
X92529049Y-106806016D01*
X92399864Y-106799924D01*
X92310249Y-106795698D01*
X92310248Y-106795698D01*
X92304648Y-106795434D01*
X92081918Y-106824757D01*
X92076573Y-106826463D01*
X92076572Y-106826463D01*
X91873250Y-106891351D01*
X91873248Y-106891352D01*
X91867902Y-106893058D01*
X91669363Y-106998181D01*
X91664948Y-107001643D01*
X91528281Y-107108803D01*
X91492577Y-107136798D01*
X91488851Y-107140980D01*
X91488850Y-107140981D01*
X91347851Y-107299236D01*
X91343132Y-107304532D01*
X91311781Y-107352258D01*
X90979169Y-107928360D01*
X90957977Y-107974015D01*
X90920714Y-108054292D01*
X90908677Y-108080223D01*
X90907255Y-108085643D01*
X90907254Y-108085646D01*
X90854445Y-108286944D01*
X90851670Y-108297521D01*
X90851231Y-108303103D01*
X90851230Y-108303107D01*
X90842466Y-108414471D01*
X90834045Y-108521480D01*
X90834602Y-108527060D01*
X90834602Y-108527062D01*
X90855574Y-108737173D01*
X90856357Y-108745021D01*
X90887389Y-108853959D01*
X90907722Y-108925338D01*
X90917902Y-108961077D01*
X90920373Y-108966121D01*
X90920375Y-108966126D01*
X91006213Y-109141342D01*
X91019062Y-109196774D01*
X91019062Y-110071877D01*
X91017984Y-110088322D01*
X91015242Y-110109151D01*
X91015506Y-110114750D01*
X91015506Y-110114752D01*
X91018922Y-110187185D01*
X91019062Y-110193120D01*
X91019062Y-110214697D01*
X91019311Y-110217483D01*
X91019311Y-110217491D01*
X91021281Y-110239563D01*
X91021640Y-110244827D01*
X91025404Y-110324637D01*
X91026654Y-110330096D01*
X91026655Y-110330101D01*
X91029173Y-110341094D01*
X91031854Y-110358025D01*
X91033354Y-110374834D01*
X91034835Y-110380246D01*
X91034836Y-110380254D01*
X91054437Y-110451903D01*
X91055723Y-110457021D01*
X91058856Y-110470698D01*
X91073564Y-110534919D01*
X91075764Y-110540076D01*
X91075766Y-110540083D01*
X91080186Y-110550445D01*
X91085823Y-110566632D01*
X91088796Y-110577499D01*
X91088799Y-110577506D01*
X91090278Y-110582914D01*
X91092690Y-110587972D01*
X91092692Y-110587976D01*
X91106679Y-110617300D01*
X91117952Y-110687396D01*
X91089538Y-110752459D01*
X91030460Y-110791832D01*
X91019151Y-110794791D01*
X90811630Y-110838901D01*
X90807501Y-110840404D01*
X90807497Y-110840405D01*
X90551819Y-110933464D01*
X90551815Y-110933466D01*
X90547674Y-110934973D01*
X90299658Y-111066846D01*
X90296099Y-111069432D01*
X90296097Y-111069433D01*
X90098941Y-111212675D01*
X90072408Y-111231952D01*
X90069244Y-111235008D01*
X90069241Y-111235010D01*
X90018608Y-111283906D01*
X89870348Y-111427079D01*
X89697412Y-111648428D01*
X89695216Y-111652232D01*
X89695211Y-111652239D01*
X89596161Y-111823800D01*
X89556964Y-111891691D01*
X89451738Y-112152134D01*
X89450673Y-112156407D01*
X89450672Y-112156409D01*
X89401665Y-112352967D01*
X89383783Y-112424686D01*
X89383324Y-112429054D01*
X89383323Y-112429059D01*
X89362215Y-112629893D01*
X89354422Y-112704043D01*
X89354575Y-112708431D01*
X89354575Y-112708437D01*
X89363776Y-112971908D01*
X89364225Y-112984768D01*
X89364987Y-112989091D01*
X89364988Y-112989098D01*
X89388558Y-113122770D01*
X89413002Y-113261397D01*
X89499803Y-113528545D01*
X89622940Y-113781012D01*
X89625395Y-113784651D01*
X89625398Y-113784657D01*
X89691928Y-113883291D01*
X89780015Y-114013886D01*
X89967971Y-114222632D01*
X90183150Y-114403189D01*
X90421364Y-114552041D01*
X90677975Y-114666292D01*
X90682203Y-114667504D01*
X90682202Y-114667504D01*
X90896331Y-114728904D01*
X90947990Y-114743717D01*
X90952340Y-114744328D01*
X90952343Y-114744329D01*
X91055290Y-114758797D01*
X91226152Y-114782810D01*
X91436746Y-114782810D01*
X91438932Y-114782657D01*
X91438936Y-114782657D01*
X91642427Y-114768428D01*
X91642432Y-114768427D01*
X91646812Y-114768121D01*
X91921570Y-114709719D01*
X91925699Y-114708216D01*
X91925703Y-114708215D01*
X92181381Y-114615156D01*
X92181385Y-114615154D01*
X92185526Y-114613647D01*
X92433542Y-114481774D01*
X92440468Y-114476742D01*
X92657229Y-114319257D01*
X92657232Y-114319254D01*
X92660792Y-114316668D01*
X92664042Y-114313530D01*
X92851402Y-114132598D01*
X92862852Y-114121541D01*
X93035788Y-113900192D01*
X93037984Y-113896388D01*
X93037989Y-113896381D01*
X93174035Y-113660741D01*
X93176236Y-113656929D01*
X93281462Y-113396486D01*
X93315144Y-113261397D01*
X93322091Y-113233533D01*
X93357979Y-113172274D01*
X93421288Y-113140143D01*
X93491919Y-113147340D01*
X93533443Y-113174920D01*
X97875971Y-117517448D01*
X97886838Y-117529839D01*
X97896215Y-117542060D01*
X97896219Y-117542064D01*
X97899631Y-117546511D01*
X97903780Y-117550286D01*
X97957428Y-117599102D01*
X97961724Y-117603201D01*
X97976965Y-117618442D01*
X97979118Y-117620243D01*
X97979120Y-117620244D01*
X97996122Y-117634460D01*
X98000089Y-117637921D01*
X98059189Y-117691697D01*
X98063944Y-117694680D01*
X98073493Y-117700671D01*
X98087353Y-117710741D01*
X98100305Y-117721570D01*
X98169761Y-117761187D01*
X98174228Y-117763861D01*
X98178178Y-117766339D01*
X98237184Y-117803354D01*
X98237187Y-117803355D01*
X98241935Y-117806334D01*
X98257595Y-117812630D01*
X98273023Y-117820088D01*
X98282816Y-117825674D01*
X98282822Y-117825677D01*
X98287691Y-117828454D01*
X98292979Y-117830327D01*
X98292980Y-117830327D01*
X98363029Y-117855132D01*
X98367930Y-117856984D01*
X98442093Y-117886797D01*
X98447583Y-117887934D01*
X98458630Y-117890222D01*
X98475132Y-117894830D01*
X98491044Y-117900464D01*
X98548333Y-117909846D01*
X98569897Y-117913377D01*
X98575085Y-117914339D01*
X98648814Y-117929608D01*
X98648823Y-117929609D01*
X98653337Y-117930544D01*
X98657943Y-117930810D01*
X98657947Y-117930810D01*
X98679757Y-117932067D01*
X98692869Y-117933515D01*
X98698385Y-117934418D01*
X98703935Y-117935327D01*
X98709552Y-117935239D01*
X98709555Y-117935239D01*
X98806470Y-117933716D01*
X98808449Y-117933700D01*
X102518335Y-117933700D01*
X102521122Y-117933451D01*
X102521128Y-117933451D01*
X102587840Y-117927497D01*
X102678472Y-117919408D01*
X102805325Y-117884705D01*
X102881136Y-117863966D01*
X102881140Y-117863965D01*
X102886552Y-117862484D01*
X103081263Y-117769611D01*
X103256451Y-117643726D01*
X103406577Y-117488808D01*
X103526897Y-117309753D01*
X103531969Y-117298200D01*
X103582317Y-117183503D01*
X103613608Y-117112220D01*
X103663968Y-116902455D01*
X103668756Y-116819412D01*
X103676063Y-116692694D01*
X103676063Y-116692691D01*
X103676386Y-116687087D01*
X103650470Y-116472923D01*
X103617081Y-116364390D01*
X103588685Y-116272091D01*
X103587037Y-116266734D01*
X103488095Y-116075036D01*
X103393694Y-115952010D01*
X103360185Y-115908340D01*
X103360181Y-115908336D01*
X103356769Y-115903889D01*
X103244493Y-115801726D01*
X103207570Y-115741085D01*
X103209293Y-115670110D01*
X103248722Y-115611658D01*
X103259778Y-115602463D01*
X103304046Y-115565646D01*
X103443132Y-115398413D01*
X103529437Y-115244304D01*
X103546589Y-115213678D01*
X103546590Y-115213676D01*
X103549413Y-115208635D01*
X103551269Y-115203168D01*
X103551271Y-115203163D01*
X103617474Y-115008135D01*
X103617475Y-115008130D01*
X103619330Y-115002666D01*
X103650541Y-114787405D01*
X103652170Y-114725200D01*
X103632267Y-114508600D01*
X103621423Y-114470148D01*
X103588633Y-114353884D01*
X103573226Y-114299255D01*
X103554651Y-114261588D01*
X103482573Y-114115428D01*
X103470383Y-114045486D01*
X103497942Y-113980056D01*
X103556501Y-113939913D01*
X103595579Y-113933700D01*
X105153242Y-113933700D01*
X105221363Y-113953702D01*
X105242337Y-113970605D01*
X105722710Y-114450978D01*
X105728996Y-114457742D01*
X105732405Y-114461691D01*
X105735678Y-114466246D01*
X105779384Y-114508600D01*
X105809354Y-114537643D01*
X105810764Y-114539032D01*
X105942394Y-114670662D01*
X105944541Y-114672457D01*
X106061429Y-114770191D01*
X106061433Y-114770194D01*
X106065734Y-114773790D01*
X106081548Y-114782810D01*
X106102661Y-114794853D01*
X106143446Y-114832030D01*
X106237592Y-114966485D01*
X106307247Y-115046829D01*
X106312786Y-115050935D01*
X106312787Y-115050936D01*
X106415659Y-115127196D01*
X106449334Y-115152160D01*
X106456058Y-115155049D01*
X106456060Y-115155050D01*
X106580784Y-115208635D01*
X106611841Y-115221978D01*
X106720816Y-115241095D01*
X106784456Y-115272567D01*
X106820979Y-115333449D01*
X106818788Y-115404412D01*
X106778580Y-115462925D01*
X106713120Y-115490411D01*
X106699045Y-115491200D01*
X106124578Y-115491200D01*
X106098381Y-115488447D01*
X106070744Y-115482572D01*
X106070739Y-115482572D01*
X106064287Y-115481200D01*
X105873313Y-115481200D01*
X105866861Y-115482572D01*
X105866856Y-115482572D01*
X105779913Y-115501053D01*
X105686512Y-115520906D01*
X105680482Y-115523591D01*
X105680481Y-115523591D01*
X105518078Y-115595897D01*
X105518076Y-115595898D01*
X105512048Y-115598582D01*
X105506707Y-115602462D01*
X105506706Y-115602463D01*
X105456643Y-115638836D01*
X105357547Y-115710834D01*
X105353126Y-115715744D01*
X105353125Y-115715745D01*
X105275708Y-115801726D01*
X105229760Y-115852756D01*
X105134273Y-116018144D01*
X105075258Y-116199772D01*
X105074568Y-116206333D01*
X105074568Y-116206335D01*
X105068220Y-116266734D01*
X105055296Y-116389700D01*
X105075258Y-116579628D01*
X105134273Y-116761256D01*
X105229760Y-116926644D01*
X105357547Y-117068566D01*
X105512048Y-117180818D01*
X105518076Y-117183502D01*
X105518078Y-117183503D01*
X105680481Y-117255809D01*
X105686512Y-117258494D01*
X105779913Y-117278347D01*
X105866856Y-117296828D01*
X105866861Y-117296828D01*
X105873313Y-117298200D01*
X105886181Y-117298200D01*
X105954302Y-117318202D01*
X106000795Y-117371858D01*
X106010899Y-117442132D01*
X105981405Y-117506712D01*
X105929122Y-117542657D01*
X105555764Y-117678001D01*
X105550227Y-117679864D01*
X105280005Y-117763869D01*
X104781344Y-117918889D01*
X104775757Y-117920486D01*
X104109061Y-118094299D01*
X103996584Y-118123623D01*
X103990898Y-118124965D01*
X103203184Y-118291759D01*
X103197442Y-118292836D01*
X102630730Y-118385626D01*
X102402843Y-118422939D01*
X102397075Y-118423747D01*
X101818598Y-118491108D01*
X101597290Y-118516879D01*
X101591473Y-118517420D01*
X101449748Y-118527293D01*
X100788230Y-118573379D01*
X100782424Y-118573648D01*
X100319811Y-118584376D01*
X99977441Y-118592315D01*
X99971599Y-118592315D01*
X99629246Y-118584376D01*
X99166617Y-118573648D01*
X99160811Y-118573379D01*
X98499293Y-118527293D01*
X98357568Y-118517420D01*
X98351751Y-118516879D01*
X98129869Y-118491042D01*
X97551965Y-118423747D01*
X97546197Y-118422939D01*
X97318036Y-118385582D01*
X96751599Y-118292836D01*
X96745857Y-118291759D01*
X95958142Y-118124965D01*
X95952456Y-118123623D01*
X95839979Y-118094299D01*
X95173283Y-117920486D01*
X95167696Y-117918889D01*
X94660315Y-117761158D01*
X94398814Y-117679864D01*
X94393277Y-117678001D01*
X93636295Y-117403591D01*
X93630850Y-117401473D01*
X92887409Y-117092273D01*
X92882068Y-117089905D01*
X92153752Y-116746573D01*
X92148527Y-116743960D01*
X91436915Y-116367242D01*
X91431817Y-116364390D01*
X90934090Y-116070586D01*
X90738429Y-115955088D01*
X90733489Y-115952017D01*
X90059763Y-115510979D01*
X90054985Y-115507690D01*
X89633779Y-115203163D01*
X89402492Y-115035945D01*
X89397838Y-115032414D01*
X88767884Y-114530908D01*
X88763399Y-114527164D01*
X88748760Y-114514357D01*
X88537100Y-114329193D01*
X88157389Y-113997013D01*
X88153083Y-113993066D01*
X87650531Y-113510516D01*
X87572299Y-113435398D01*
X87568185Y-113431261D01*
X87535178Y-113396486D01*
X87013850Y-112847243D01*
X87009928Y-112842913D01*
X86513772Y-112269115D01*
X86499932Y-112249649D01*
X86495706Y-112242320D01*
X86495702Y-112242315D01*
X86493273Y-112238102D01*
X86489509Y-112233424D01*
X86489371Y-112233192D01*
X86489174Y-112233008D01*
X86485411Y-112228332D01*
X86481816Y-112225057D01*
X86480658Y-112224002D01*
X86471789Y-112215073D01*
X86463366Y-112205700D01*
X86280359Y-112002066D01*
X86238027Y-111954962D01*
X86238019Y-111954953D01*
X86236237Y-111952971D01*
X85965582Y-111698774D01*
X85963497Y-111697124D01*
X85963491Y-111697119D01*
X85774535Y-111547602D01*
X85674405Y-111468371D01*
X85659979Y-111458821D01*
X85367023Y-111264889D01*
X85367019Y-111264887D01*
X85364790Y-111263411D01*
X85038955Y-111085363D01*
X85036518Y-111084288D01*
X85036510Y-111084284D01*
X84701681Y-110936580D01*
X84701674Y-110936577D01*
X84699232Y-110935500D01*
X84693304Y-110933464D01*
X84350587Y-110815766D01*
X84350582Y-110815765D01*
X84348056Y-110814897D01*
X84345472Y-110814248D01*
X84345466Y-110814246D01*
X83990513Y-110725063D01*
X83990502Y-110725061D01*
X83987940Y-110724417D01*
X83621464Y-110664708D01*
X83251252Y-110636197D01*
X82913460Y-110638829D01*
X82897832Y-110637978D01*
X82892422Y-110637345D01*
X82887567Y-110637529D01*
X82887336Y-110637538D01*
X82879891Y-110637820D01*
X82813185Y-110650813D01*
X82810642Y-110651279D01*
X80296394Y-111085363D01*
X77406571Y-111584289D01*
X77393356Y-111585857D01*
X77362791Y-111587856D01*
X77362785Y-111587857D01*
X77353826Y-111588443D01*
X77345391Y-111591520D01*
X77345386Y-111591521D01*
X77343829Y-111592089D01*
X77315553Y-111598833D01*
X77264005Y-111604971D01*
X77216905Y-111610579D01*
X77191446Y-111611019D01*
X77071802Y-111600951D01*
X77046781Y-111596265D01*
X76931595Y-111562339D01*
X76908023Y-111552714D01*
X76905232Y-111551229D01*
X76802024Y-111496326D01*
X76780863Y-111482154D01*
X76744414Y-111451988D01*
X76688372Y-111405607D01*
X76670494Y-111387470D01*
X76595280Y-111293880D01*
X76581415Y-111272520D01*
X76526558Y-111165723D01*
X76517271Y-111142009D01*
X76492392Y-111052824D01*
X76490099Y-111037046D01*
X76489311Y-111037172D01*
X76487894Y-111028309D01*
X76487747Y-111019331D01*
X76479098Y-110991453D01*
X76475105Y-110974534D01*
X76468953Y-110937043D01*
X75324846Y-103965616D01*
X75323184Y-103945585D01*
X75323145Y-103932291D01*
X75323145Y-103932288D01*
X75323118Y-103923313D01*
X75315394Y-103897189D01*
X75311492Y-103879291D01*
X75203731Y-103124979D01*
X75203239Y-103121101D01*
X75114839Y-102327036D01*
X75114466Y-102323144D01*
X75091223Y-102032630D01*
X75050738Y-101526625D01*
X75050488Y-101522732D01*
X75031717Y-101138410D01*
X75048372Y-101069394D01*
X75099696Y-101020339D01*
X75169393Y-101006819D01*
X75235336Y-101033127D01*
X75274960Y-101086494D01*
X75339064Y-101250914D01*
X75342081Y-101257503D01*
X75501002Y-101557652D01*
X75504761Y-101563860D01*
X75697129Y-101843757D01*
X75701574Y-101849486D01*
X75768743Y-101926484D01*
X75781917Y-101934888D01*
X75791768Y-101929021D01*
X76393999Y-101326791D01*
X76456311Y-101292766D01*
X76527127Y-101297831D01*
X76576285Y-101331085D01*
X76686929Y-101452681D01*
X76744427Y-101500757D01*
X76783855Y-101559795D01*
X76785106Y-101630781D01*
X76752698Y-101686513D01*
X76151474Y-102287737D01*
X76143860Y-102301681D01*
X76143878Y-102301934D01*
X76149792Y-102310676D01*
X76181111Y-102339174D01*
X76186748Y-102343738D01*
X76462544Y-102541918D01*
X76468682Y-102545813D01*
X76765435Y-102710984D01*
X76771955Y-102714136D01*
X77085738Y-102844109D01*
X77092589Y-102846495D01*
X77419212Y-102939536D01*
X77426301Y-102941120D01*
X77761465Y-102996006D01*
X77768671Y-102996763D01*
X78107926Y-103012762D01*
X78115176Y-103012686D01*
X78454010Y-102989587D01*
X78461219Y-102988676D01*
X78795160Y-102926784D01*
X78802190Y-102925057D01*
X79126819Y-102825187D01*
X79133597Y-102822667D01*
X79444603Y-102686145D01*
X79451043Y-102682864D01*
X79744293Y-102511502D01*
X79750326Y-102507493D01*
X80008828Y-102313405D01*
X80017282Y-102302078D01*
X80010537Y-102289748D01*
X79409438Y-101688649D01*
X79375412Y-101626337D01*
X79380477Y-101555522D01*
X79420792Y-101500397D01*
X79426754Y-101495722D01*
X79587779Y-101329557D01*
X79649549Y-101294557D01*
X79720436Y-101298509D01*
X79767358Y-101328147D01*
X80366268Y-101927057D01*
X80379622Y-101934349D01*
X80389595Y-101927294D01*
X80496641Y-101799267D01*
X80500957Y-101793456D01*
X80687432Y-101509575D01*
X80691046Y-101503313D01*
X80843658Y-101199882D01*
X80846530Y-101193244D01*
X80963249Y-100874293D01*
X80965345Y-100867351D01*
X81044631Y-100537103D01*
X81045915Y-100529964D01*
X81086816Y-100191973D01*
X81087240Y-100186403D01*
X81093010Y-100002797D01*
X81092937Y-99997204D01*
X81073338Y-99657303D01*
X81072506Y-99650113D01*
X81014113Y-99315529D01*
X81012458Y-99308474D01*
X80915998Y-98982834D01*
X80913540Y-98976006D01*
X80780290Y-98663608D01*
X80777073Y-98657125D01*
X80608788Y-98362089D01*
X80604856Y-98356034D01*
X80403774Y-98082295D01*
X80399166Y-98076726D01*
X80393830Y-98070984D01*
X80380178Y-98062866D01*
X80379570Y-98062887D01*
X80371092Y-98068119D01*
X79766288Y-98672923D01*
X79703976Y-98706949D01*
X79633161Y-98701884D01*
X79584893Y-98669599D01*
X79582577Y-98667106D01*
X79481194Y-98558005D01*
X79460703Y-98535954D01*
X79460700Y-98535951D01*
X79457782Y-98532811D01*
X79440252Y-98518463D01*
X79417135Y-98499541D01*
X79377090Y-98440916D01*
X79375097Y-98369947D01*
X79407847Y-98312943D01*
X80007074Y-97713716D01*
X80014466Y-97700179D01*
X80007679Y-97690479D01*
X79904476Y-97602335D01*
X79898704Y-97597953D01*
X79616796Y-97408519D01*
X79610575Y-97404839D01*
X79308757Y-97249060D01*
X79302146Y-97246116D01*
X78984439Y-97126065D01*
X78977513Y-97123894D01*
X78648112Y-97041155D01*
X78641005Y-97039799D01*
X78304278Y-96995468D01*
X78297036Y-96994937D01*
X77957467Y-96989602D01*
X77950205Y-96989906D01*
X77612256Y-97023638D01*
X77605108Y-97024770D01*
X77273263Y-97097124D01*
X77266285Y-97099072D01*
X76944960Y-97209086D01*
X76938253Y-97211823D01*
X76631707Y-97358039D01*
X76625349Y-97361534D01*
X76337654Y-97542005D01*
X76331731Y-97546214D01*
X76153601Y-97688923D01*
X76145132Y-97701048D01*
X76151527Y-97712316D01*
X76751442Y-98312231D01*
X76785468Y-98374543D01*
X76780403Y-98445358D01*
X76741126Y-98499661D01*
X76734685Y-98504821D01*
X76721010Y-98515776D01*
X76721004Y-98515782D01*
X76717657Y-98518463D01*
X76714703Y-98521576D01*
X76573752Y-98670107D01*
X76512352Y-98705751D01*
X76441428Y-98702542D01*
X76393260Y-98672470D01*
X75792370Y-98071581D01*
X75779583Y-98064598D01*
X75768827Y-98072464D01*
X75608037Y-98277527D01*
X75603902Y-98283476D01*
X75426440Y-98573068D01*
X75423019Y-98579447D01*
X75280016Y-98887522D01*
X75277351Y-98894251D01*
X75264162Y-98934132D01*
X75223782Y-98992527D01*
X75158242Y-99019820D01*
X75088349Y-99007347D01*
X75036295Y-98959068D01*
X75018692Y-98888284D01*
X75019231Y-98877505D01*
X75022966Y-98802699D01*
X75024217Y-98790203D01*
X75025111Y-98784280D01*
X75062004Y-98539615D01*
X75068026Y-98499683D01*
X75070517Y-98487366D01*
X75112183Y-98323810D01*
X75143048Y-98202653D01*
X75146752Y-98190649D01*
X75147612Y-98188288D01*
X75247290Y-97914558D01*
X75252171Y-97902985D01*
X75253194Y-97900863D01*
X75379702Y-97638300D01*
X75385715Y-97627265D01*
X75538970Y-97376614D01*
X75546052Y-97366232D01*
X75723532Y-97132068D01*
X75731612Y-97122445D01*
X75931522Y-96907137D01*
X75940521Y-96898365D01*
X76159247Y-96705485D01*
X76160887Y-96704039D01*
X76170713Y-96696210D01*
X76379592Y-96546171D01*
X76401889Y-96533383D01*
X76403789Y-96532538D01*
X76403791Y-96532537D01*
X76411993Y-96528888D01*
X76418839Y-96523086D01*
X76418842Y-96523084D01*
X76430806Y-96512943D01*
X76436316Y-96508274D01*
X76449430Y-96498546D01*
X78041042Y-95470916D01*
X82321752Y-95470916D01*
X82323220Y-95481208D01*
X82336785Y-95485200D01*
X83404285Y-95485200D01*
X83419524Y-95480725D01*
X83420729Y-95479335D01*
X83422400Y-95471652D01*
X83422400Y-95467085D01*
X83930400Y-95467085D01*
X83934875Y-95482324D01*
X83936265Y-95483529D01*
X83943948Y-95485200D01*
X85011802Y-95485200D01*
X85025333Y-95481227D01*
X85026688Y-95471801D01*
X85005206Y-95382663D01*
X85001317Y-95371368D01*
X84918771Y-95189818D01*
X84912824Y-95179476D01*
X84797432Y-95016803D01*
X84789639Y-95007775D01*
X84645569Y-94869858D01*
X84636204Y-94862462D01*
X84468659Y-94754279D01*
X84458055Y-94748783D01*
X84273088Y-94674239D01*
X84261630Y-94670845D01*
X84064472Y-94632343D01*
X84055609Y-94631266D01*
X84052900Y-94631200D01*
X83948515Y-94631200D01*
X83933276Y-94635675D01*
X83932071Y-94637065D01*
X83930400Y-94644748D01*
X83930400Y-95467085D01*
X83422400Y-95467085D01*
X83422400Y-94649315D01*
X83417925Y-94634076D01*
X83416535Y-94632871D01*
X83408852Y-94631200D01*
X83351568Y-94631200D01*
X83345592Y-94631485D01*
X83196906Y-94645671D01*
X83185172Y-94647930D01*
X82993801Y-94704072D01*
X82982725Y-94708502D01*
X82805422Y-94799819D01*
X82795376Y-94806269D01*
X82638543Y-94929462D01*
X82629894Y-94937699D01*
X82499188Y-95088323D01*
X82492253Y-95098047D01*
X82392390Y-95270667D01*
X82387416Y-95281531D01*
X82321993Y-95469927D01*
X82321752Y-95470916D01*
X78041042Y-95470916D01*
X79751251Y-94366713D01*
X81261422Y-93391666D01*
X81269894Y-93386654D01*
X81308277Y-93365925D01*
X81312562Y-93363611D01*
X81322547Y-93356025D01*
X81325927Y-93352517D01*
X81327749Y-93350896D01*
X81331852Y-93346972D01*
X81547289Y-93157120D01*
X81547291Y-93157118D01*
X81550154Y-93154595D01*
X81552686Y-93151751D01*
X81552692Y-93151745D01*
X81658319Y-93033099D01*
X81752230Y-92927613D01*
X81823705Y-92824558D01*
X81923253Y-92681026D01*
X81923257Y-92681020D01*
X81925424Y-92677895D01*
X82067202Y-92409094D01*
X82068561Y-92405531D01*
X82068564Y-92405524D01*
X82174131Y-92128711D01*
X82175492Y-92125143D01*
X82202043Y-92018184D01*
X82247791Y-91833889D01*
X82247792Y-91833886D01*
X82248708Y-91830194D01*
X82249435Y-91824285D01*
X82285313Y-91532356D01*
X82285313Y-91532355D01*
X82285779Y-91528564D01*
X82285819Y-91497311D01*
X82286058Y-91307636D01*
X82286163Y-91224664D01*
X82263261Y-91034346D01*
X82250310Y-90926719D01*
X82250309Y-90926713D01*
X82249855Y-90922941D01*
X82177386Y-90627809D01*
X82069815Y-90343584D01*
X81928717Y-90074425D01*
X81926559Y-90071297D01*
X81926555Y-90071290D01*
X81758316Y-89827403D01*
X81756155Y-89824270D01*
X81575116Y-89619880D01*
X81566798Y-89609419D01*
X81563866Y-89605300D01*
X81555107Y-89596325D01*
X81532799Y-89579606D01*
X81519269Y-89567875D01*
X79753107Y-87801713D01*
X79740464Y-87786951D01*
X79726326Y-87767598D01*
X79719210Y-87762128D01*
X79719206Y-87762124D01*
X79719129Y-87762065D01*
X79697414Y-87740732D01*
X79658386Y-87691793D01*
X79643374Y-87667902D01*
X79607891Y-87594220D01*
X79598572Y-87567589D01*
X79587659Y-87519775D01*
X79580375Y-87487861D01*
X79577216Y-87459825D01*
X79577216Y-87378043D01*
X79580375Y-87350005D01*
X79598572Y-87270279D01*
X79607891Y-87243648D01*
X79643374Y-87169966D01*
X79658386Y-87146074D01*
X79693290Y-87102307D01*
X79703798Y-87090692D01*
X79710212Y-87084432D01*
X79717459Y-87079138D01*
X79736842Y-87053923D01*
X79747643Y-87041619D01*
X79756270Y-87032992D01*
X79818582Y-86998966D01*
X79889397Y-87004031D01*
X79946233Y-87046578D01*
X79971044Y-87113098D01*
X79968011Y-87150966D01*
X79965015Y-87163688D01*
X79965014Y-87163694D01*
X79963338Y-87170813D01*
X79963344Y-87178127D01*
X79963344Y-87178131D01*
X79963402Y-87243648D01*
X79963493Y-87347684D01*
X80004332Y-87519775D01*
X80007614Y-87526314D01*
X80007614Y-87526315D01*
X80023715Y-87558398D01*
X80083666Y-87677855D01*
X80088008Y-87683188D01*
X80088009Y-87683190D01*
X80144618Y-87752723D01*
X80149963Y-87759288D01*
X81105124Y-88714448D01*
X81187671Y-88781478D01*
X81193838Y-88784560D01*
X81193839Y-88784560D01*
X81339345Y-88857264D01*
X81339347Y-88857265D01*
X81345890Y-88860534D01*
X81518052Y-88901074D01*
X81525366Y-88901068D01*
X81525370Y-88901068D01*
X81606487Y-88900997D01*
X81694923Y-88900919D01*
X81780969Y-88880499D01*
X81859893Y-88861770D01*
X81859894Y-88861770D01*
X81867014Y-88860080D01*
X82025094Y-88780746D01*
X82106527Y-88714449D01*
X82672778Y-88148197D01*
X82674831Y-88145668D01*
X82674837Y-88145662D01*
X82735461Y-88071002D01*
X82739808Y-88065649D01*
X82818864Y-87907431D01*
X82859404Y-87735269D01*
X82859359Y-87683190D01*
X82859255Y-87565716D01*
X82859249Y-87558398D01*
X82850083Y-87519775D01*
X82845270Y-87499491D01*
X82849003Y-87428592D01*
X82890473Y-87370967D01*
X82956516Y-87344910D01*
X82982893Y-87345297D01*
X82984743Y-87345519D01*
X82986887Y-87345777D01*
X82986889Y-87345777D01*
X82992832Y-87346491D01*
X82998807Y-87346068D01*
X82998810Y-87346068D01*
X83197843Y-87331975D01*
X83197846Y-87331974D01*
X83203827Y-87331551D01*
X83240949Y-87321639D01*
X83402396Y-87278531D01*
X83402398Y-87278530D01*
X83408189Y-87276984D01*
X83413584Y-87274370D01*
X83413587Y-87274369D01*
X83593145Y-87187374D01*
X83593147Y-87187373D01*
X83598546Y-87184757D01*
X83607420Y-87178131D01*
X83708960Y-87102307D01*
X83768029Y-87058198D01*
X83910521Y-86901875D01*
X83998586Y-86757885D01*
X84017757Y-86726540D01*
X84017760Y-86726534D01*
X84020884Y-86721426D01*
X84095133Y-86523364D01*
X84130591Y-86314835D01*
X84125976Y-86103364D01*
X84117881Y-86065763D01*
X84123098Y-85994958D01*
X84165767Y-85938214D01*
X84232340Y-85913546D01*
X84256084Y-85914143D01*
X84351804Y-85925642D01*
X84401100Y-85931564D01*
X84401102Y-85931564D01*
X84407045Y-85932278D01*
X84413020Y-85931855D01*
X84413023Y-85931855D01*
X84612056Y-85917762D01*
X84612059Y-85917761D01*
X84618040Y-85917338D01*
X84656574Y-85907049D01*
X84816609Y-85864318D01*
X84816611Y-85864317D01*
X84822402Y-85862771D01*
X84827797Y-85860157D01*
X84827800Y-85860156D01*
X85007358Y-85773161D01*
X85007360Y-85773160D01*
X85012759Y-85770544D01*
X85182242Y-85643985D01*
X85324734Y-85487662D01*
X85370388Y-85413016D01*
X85431970Y-85312327D01*
X85431973Y-85312321D01*
X85435097Y-85307213D01*
X85509346Y-85109151D01*
X85544804Y-84900622D01*
X85540189Y-84689151D01*
X85537932Y-84678669D01*
X85532094Y-84651548D01*
X85537311Y-84580743D01*
X85579981Y-84523999D01*
X85646554Y-84499332D01*
X85670299Y-84499929D01*
X85751569Y-84509692D01*
X85815314Y-84517350D01*
X85815316Y-84517350D01*
X85821259Y-84518064D01*
X85827234Y-84517641D01*
X85827237Y-84517641D01*
X86026270Y-84503548D01*
X86026273Y-84503547D01*
X86032254Y-84503124D01*
X86109996Y-84482366D01*
X86230823Y-84450104D01*
X86230825Y-84450103D01*
X86236616Y-84448557D01*
X86242011Y-84445943D01*
X86242014Y-84445942D01*
X86421572Y-84358947D01*
X86421574Y-84358946D01*
X86426973Y-84356330D01*
X86454594Y-84335705D01*
X86514497Y-84290973D01*
X86596456Y-84229771D01*
X86738948Y-84073448D01*
X86819333Y-83942015D01*
X86846184Y-83898113D01*
X86846187Y-83898107D01*
X86849311Y-83892999D01*
X86923560Y-83694937D01*
X86959018Y-83486408D01*
X86955407Y-83320948D01*
X86954534Y-83280935D01*
X86954534Y-83280934D01*
X86954403Y-83274937D01*
X86909884Y-83068152D01*
X86892666Y-83027686D01*
X86829414Y-82879037D01*
X86827066Y-82873518D01*
X86708938Y-82698055D01*
X86705197Y-82693930D01*
X86206018Y-82194750D01*
X86198615Y-82188636D01*
X86167708Y-82163113D01*
X86083853Y-82093866D01*
X85898229Y-81992450D01*
X85763034Y-81949174D01*
X85702482Y-81929791D01*
X85702480Y-81929791D01*
X85696777Y-81927965D01*
X85607600Y-81917252D01*
X85492712Y-81903450D01*
X85492708Y-81903450D01*
X85486765Y-81902736D01*
X85480790Y-81903159D01*
X85480787Y-81903159D01*
X85281754Y-81917252D01*
X85281751Y-81917253D01*
X85275770Y-81917676D01*
X85269977Y-81919223D01*
X85269976Y-81919223D01*
X85233551Y-81928949D01*
X85177879Y-81943814D01*
X85106904Y-81942062D01*
X85048143Y-81902217D01*
X85020252Y-81836928D01*
X85032087Y-81766925D01*
X85056279Y-81732984D01*
X85340208Y-81449055D01*
X85354976Y-81436408D01*
X85367067Y-81427575D01*
X85367070Y-81427572D01*
X85374318Y-81422277D01*
X85379788Y-81415161D01*
X85379791Y-81415158D01*
X85379851Y-81415080D01*
X85401184Y-81393365D01*
X85450123Y-81354337D01*
X85474014Y-81339325D01*
X85547696Y-81303842D01*
X85574327Y-81294523D01*
X85614190Y-81285424D01*
X85654055Y-81276326D01*
X85682091Y-81273167D01*
X85763873Y-81273167D01*
X85791909Y-81276326D01*
G37*
%TD.AperFunction*%
%TA.AperFunction,Conductor*%
G36*
X106322321Y-107462002D02*
G01*
X106368814Y-107515658D01*
X106380200Y-107568000D01*
X106380200Y-109014517D01*
X106384264Y-109028359D01*
X106397678Y-109030393D01*
X106404384Y-109029534D01*
X106414462Y-109027392D01*
X106618455Y-108966191D01*
X106628042Y-108962433D01*
X106819295Y-108868739D01*
X106828145Y-108863464D01*
X107001528Y-108739792D01*
X107009400Y-108733139D01*
X107160252Y-108582812D01*
X107166930Y-108574965D01*
X107294222Y-108397819D01*
X107295479Y-108398722D01*
X107342573Y-108355362D01*
X107412511Y-108343145D01*
X107477951Y-108370678D01*
X107505779Y-108402511D01*
X107566187Y-108501088D01*
X107712450Y-108669938D01*
X107884326Y-108812632D01*
X108077200Y-108925338D01*
X108082029Y-108927182D01*
X108096174Y-108932584D01*
X108152676Y-108975572D01*
X108176968Y-109042283D01*
X108161337Y-109111538D01*
X108140318Y-109139388D01*
X107664915Y-109614791D01*
X107602603Y-109648817D01*
X107581757Y-109651556D01*
X107536555Y-109653688D01*
X107532763Y-109653867D01*
X107526827Y-109654007D01*
X107505265Y-109654007D01*
X107482144Y-109656070D01*
X107480409Y-109656225D01*
X107475147Y-109656584D01*
X107395325Y-109660349D01*
X107389866Y-109661599D01*
X107389861Y-109661600D01*
X107378868Y-109664118D01*
X107361937Y-109666799D01*
X107357826Y-109667166D01*
X107345128Y-109668299D01*
X107339716Y-109669780D01*
X107339708Y-109669781D01*
X107268059Y-109689382D01*
X107262941Y-109690668D01*
X107219052Y-109700720D01*
X107185043Y-109708509D01*
X107170716Y-109714620D01*
X107169511Y-109715134D01*
X107153332Y-109720768D01*
X107137048Y-109725223D01*
X107131980Y-109727640D01*
X107131981Y-109727640D01*
X107064955Y-109759610D01*
X107060144Y-109761783D01*
X107056398Y-109763381D01*
X106986614Y-109793146D01*
X106972494Y-109802421D01*
X106957570Y-109810830D01*
X106942337Y-109818096D01*
X106937784Y-109821368D01*
X106937775Y-109821373D01*
X106877438Y-109864729D01*
X106873093Y-109867716D01*
X106806309Y-109911585D01*
X106788071Y-109927835D01*
X106786548Y-109929192D01*
X106776248Y-109937443D01*
X106771706Y-109940706D01*
X106771702Y-109940710D01*
X106767149Y-109943981D01*
X106763249Y-109948006D01*
X106763245Y-109948009D01*
X106695752Y-110017657D01*
X106694363Y-110019067D01*
X106088124Y-110625306D01*
X106081360Y-110631592D01*
X106077411Y-110635001D01*
X106072856Y-110638274D01*
X106001459Y-110711950D01*
X106000070Y-110713360D01*
X105972465Y-110740965D01*
X105969914Y-110744016D01*
X105963744Y-110750868D01*
X105922730Y-110793192D01*
X105907561Y-110815766D01*
X105901580Y-110824666D01*
X105893663Y-110835211D01*
X105877424Y-110854633D01*
X105857469Y-110873769D01*
X105832893Y-110892627D01*
X105829118Y-110896776D01*
X105692127Y-111047328D01*
X105687707Y-111052185D01*
X105684726Y-111056937D01*
X105576563Y-111229363D01*
X105573070Y-111234931D01*
X105492607Y-111435089D01*
X105490800Y-111434363D01*
X105456701Y-111486547D01*
X105391899Y-111515550D01*
X105374913Y-111516700D01*
X103016367Y-111516700D01*
X102948246Y-111496698D01*
X102927272Y-111479795D01*
X102494805Y-111047328D01*
X102460779Y-110985016D01*
X102457900Y-110958233D01*
X102457900Y-108793395D01*
X102477902Y-108725274D01*
X102531558Y-108678781D01*
X102601832Y-108668677D01*
X102664385Y-108696451D01*
X102774159Y-108787587D01*
X102804326Y-108812632D01*
X102997200Y-108925338D01*
X103002025Y-108927180D01*
X103002026Y-108927181D01*
X103027428Y-108936881D01*
X103205892Y-109005030D01*
X103210960Y-109006061D01*
X103210963Y-109006062D01*
X103306062Y-109025410D01*
X103424797Y-109049567D01*
X103429972Y-109049757D01*
X103429974Y-109049757D01*
X103642873Y-109057564D01*
X103642877Y-109057564D01*
X103648037Y-109057753D01*
X103653157Y-109057097D01*
X103653159Y-109057097D01*
X103864488Y-109030025D01*
X103864489Y-109030025D01*
X103869616Y-109029368D01*
X103874566Y-109027883D01*
X104078629Y-108966661D01*
X104078634Y-108966659D01*
X104083584Y-108965174D01*
X104284194Y-108866896D01*
X104466060Y-108737173D01*
X104521506Y-108681921D01*
X104586647Y-108617007D01*
X104624296Y-108579489D01*
X104661969Y-108527062D01*
X104754653Y-108398077D01*
X104755840Y-108398930D01*
X104803160Y-108355362D01*
X104873097Y-108343145D01*
X104938538Y-108370678D01*
X104966366Y-108402511D01*
X105023894Y-108496388D01*
X105029977Y-108504699D01*
X105169413Y-108665667D01*
X105176780Y-108672883D01*
X105340634Y-108808916D01*
X105349081Y-108814831D01*
X105532956Y-108922279D01*
X105542242Y-108926729D01*
X105741201Y-109002703D01*
X105751099Y-109005579D01*
X105854450Y-109026606D01*
X105868499Y-109025410D01*
X105872200Y-109015065D01*
X105872200Y-107568000D01*
X105892202Y-107499879D01*
X105945858Y-107453386D01*
X105998200Y-107442000D01*
X106254200Y-107442000D01*
X106322321Y-107462002D01*
G37*
%TD.AperFunction*%
%TA.AperFunction,Conductor*%
G36*
X110230577Y-96329423D02*
G01*
X110277070Y-96383079D01*
X110287174Y-96453353D01*
X110276650Y-96488672D01*
X110255276Y-96534508D01*
X110251528Y-96544805D01*
X110197404Y-96746801D01*
X110195501Y-96757596D01*
X110177274Y-96965925D01*
X110177274Y-96976875D01*
X110195501Y-97185204D01*
X110197404Y-97195999D01*
X110251528Y-97397995D01*
X110255274Y-97408287D01*
X110343654Y-97597817D01*
X110349134Y-97607307D01*
X110378011Y-97648549D01*
X110388486Y-97656923D01*
X110401933Y-97649855D01*
X111350505Y-96701284D01*
X111412817Y-96667259D01*
X111483633Y-96672324D01*
X111528695Y-96701285D01*
X111709715Y-96882305D01*
X111743741Y-96944617D01*
X111738676Y-97015432D01*
X111709716Y-97060495D01*
X110760422Y-98009789D01*
X110753994Y-98021563D01*
X110763287Y-98033575D01*
X110803688Y-98061864D01*
X110813184Y-98067347D01*
X111002713Y-98155726D01*
X111013005Y-98159472D01*
X111219765Y-98214872D01*
X111280388Y-98251823D01*
X111311409Y-98315684D01*
X111302981Y-98386178D01*
X111276249Y-98425674D01*
X110854823Y-98847100D01*
X110818979Y-98872199D01*
X110812940Y-98875015D01*
X110812935Y-98875018D01*
X110807947Y-98877344D01*
X110803440Y-98880500D01*
X110803438Y-98880501D01*
X110632073Y-99000492D01*
X110632070Y-99000494D01*
X110627562Y-99003651D01*
X110471851Y-99159362D01*
X110468694Y-99163870D01*
X110468692Y-99163873D01*
X110362004Y-99316239D01*
X110345544Y-99339747D01*
X110343221Y-99344729D01*
X110343218Y-99344734D01*
X110313283Y-99408931D01*
X110252480Y-99539324D01*
X110195485Y-99752029D01*
X110176293Y-99971400D01*
X110195485Y-100190771D01*
X110196908Y-100196081D01*
X110226807Y-100307665D01*
X110231100Y-100340277D01*
X110231100Y-105621706D01*
X110211098Y-105689827D01*
X110157442Y-105736320D01*
X110087168Y-105746424D01*
X110022588Y-105716930D01*
X110016005Y-105710801D01*
X109510329Y-105205124D01*
X108939878Y-104634673D01*
X108905852Y-104572361D01*
X108904199Y-104556985D01*
X108903663Y-104557041D01*
X108884391Y-104373676D01*
X108884391Y-104373674D01*
X108883701Y-104367113D01*
X108824686Y-104185485D01*
X108814192Y-104167308D01*
X108755482Y-104065621D01*
X108729199Y-104020097D01*
X108621634Y-103900634D01*
X108590917Y-103836627D01*
X108599681Y-103766173D01*
X108626175Y-103727229D01*
X108831847Y-103521557D01*
X108840137Y-103514013D01*
X108846618Y-103509900D01*
X108893259Y-103460232D01*
X108896013Y-103457391D01*
X108915734Y-103437670D01*
X108918212Y-103434475D01*
X108925918Y-103425453D01*
X108950758Y-103399001D01*
X108956186Y-103393221D01*
X108965946Y-103375468D01*
X108976799Y-103358945D01*
X108984353Y-103349206D01*
X108989213Y-103342941D01*
X109006776Y-103302357D01*
X109011983Y-103291727D01*
X109033295Y-103252960D01*
X109035266Y-103245283D01*
X109035268Y-103245278D01*
X109038332Y-103233342D01*
X109044738Y-103214630D01*
X109049634Y-103203317D01*
X109052781Y-103196045D01*
X109059697Y-103152384D01*
X109059697Y-103152381D01*
X109062104Y-103140760D01*
X109071128Y-103105611D01*
X109071128Y-103105610D01*
X109073100Y-103097930D01*
X109073100Y-103077669D01*
X109074651Y-103057958D01*
X109076579Y-103045785D01*
X109077819Y-103037957D01*
X109073659Y-102993946D01*
X109073100Y-102982089D01*
X109073100Y-101129754D01*
X109093102Y-101061633D01*
X109126828Y-101026542D01*
X109210860Y-100967702D01*
X109247127Y-100942308D01*
X109247130Y-100942306D01*
X109251638Y-100939149D01*
X109407349Y-100783438D01*
X109411525Y-100777475D01*
X109530499Y-100607562D01*
X109530501Y-100607559D01*
X109533656Y-100603053D01*
X109535979Y-100598071D01*
X109535982Y-100598066D01*
X109583185Y-100496838D01*
X109626720Y-100403476D01*
X109683715Y-100190771D01*
X109702907Y-99971400D01*
X109683715Y-99752029D01*
X109626720Y-99539324D01*
X109565917Y-99408931D01*
X109535982Y-99344734D01*
X109535979Y-99344729D01*
X109533656Y-99339747D01*
X109517196Y-99316239D01*
X109410508Y-99163873D01*
X109410506Y-99163870D01*
X109407349Y-99159362D01*
X109251638Y-99003651D01*
X109241636Y-98996647D01*
X109112820Y-98906449D01*
X109071254Y-98877344D01*
X108871676Y-98784280D01*
X108658971Y-98727285D01*
X108439600Y-98708093D01*
X108220229Y-98727285D01*
X108007524Y-98784280D01*
X107933330Y-98818877D01*
X107812934Y-98875018D01*
X107812929Y-98875021D01*
X107807947Y-98877344D01*
X107803440Y-98880500D01*
X107803438Y-98880501D01*
X107725517Y-98935062D01*
X107658243Y-98957750D01*
X107589382Y-98940465D01*
X107540798Y-98888695D01*
X107527916Y-98818877D01*
X107554824Y-98753178D01*
X107564151Y-98742753D01*
X107776812Y-98530093D01*
X108067178Y-98239727D01*
X108129490Y-98205702D01*
X108188884Y-98207116D01*
X108220229Y-98215515D01*
X108439600Y-98234707D01*
X108658971Y-98215515D01*
X108871676Y-98158520D01*
X109071254Y-98065456D01*
X109186259Y-97984928D01*
X109247127Y-97942308D01*
X109247129Y-97942306D01*
X109251638Y-97939149D01*
X109407349Y-97783438D01*
X109427426Y-97754766D01*
X109530499Y-97607562D01*
X109530500Y-97607560D01*
X109533656Y-97603053D01*
X109535979Y-97598071D01*
X109535982Y-97598066D01*
X109617718Y-97422781D01*
X109626720Y-97403476D01*
X109683715Y-97190771D01*
X109702907Y-96971400D01*
X109683715Y-96752029D01*
X109626720Y-96539324D01*
X109624398Y-96534344D01*
X109624396Y-96534339D01*
X109603614Y-96489773D01*
X109603100Y-96488670D01*
X109592439Y-96418480D01*
X109621419Y-96353667D01*
X109680838Y-96314810D01*
X109717295Y-96309421D01*
X110162456Y-96309421D01*
X110230577Y-96329423D01*
G37*
%TD.AperFunction*%
%TA.AperFunction,Conductor*%
G36*
X92165832Y-96524102D02*
G01*
X92212325Y-96577758D01*
X92222429Y-96648032D01*
X92219417Y-96662712D01*
X92196910Y-96746708D01*
X92196909Y-96746717D01*
X92195485Y-96752029D01*
X92176293Y-96971400D01*
X92195485Y-97190771D01*
X92252480Y-97403476D01*
X92261482Y-97422781D01*
X92343218Y-97598066D01*
X92343221Y-97598071D01*
X92345544Y-97603053D01*
X92348700Y-97607560D01*
X92348701Y-97607562D01*
X92451775Y-97754766D01*
X92471851Y-97783438D01*
X92627562Y-97939149D01*
X92632071Y-97942306D01*
X92632073Y-97942308D01*
X92692941Y-97984928D01*
X92807946Y-98065456D01*
X93007524Y-98158520D01*
X93220229Y-98215515D01*
X93439600Y-98234707D01*
X93658971Y-98215515D01*
X93871676Y-98158520D01*
X94071254Y-98065456D01*
X94186259Y-97984928D01*
X94247127Y-97942308D01*
X94247129Y-97942306D01*
X94251638Y-97939149D01*
X94407349Y-97783438D01*
X94427426Y-97754766D01*
X94530499Y-97607562D01*
X94530500Y-97607560D01*
X94533656Y-97603053D01*
X94535979Y-97598071D01*
X94535982Y-97598066D01*
X94617718Y-97422781D01*
X94626720Y-97403476D01*
X94683715Y-97190771D01*
X94702907Y-96971400D01*
X94683715Y-96752029D01*
X94682291Y-96746717D01*
X94682290Y-96746708D01*
X94659783Y-96662712D01*
X94661472Y-96591735D01*
X94701265Y-96532939D01*
X94766530Y-96504991D01*
X94781489Y-96504100D01*
X95097711Y-96504100D01*
X95165832Y-96524102D01*
X95212325Y-96577758D01*
X95222429Y-96648032D01*
X95219417Y-96662712D01*
X95196910Y-96746708D01*
X95196909Y-96746717D01*
X95195485Y-96752029D01*
X95176293Y-96971400D01*
X95195485Y-97190771D01*
X95252480Y-97403476D01*
X95261482Y-97422781D01*
X95343218Y-97598066D01*
X95343221Y-97598071D01*
X95345544Y-97603053D01*
X95348700Y-97607560D01*
X95348701Y-97607562D01*
X95451775Y-97754766D01*
X95471851Y-97783438D01*
X95627562Y-97939149D01*
X95632071Y-97942306D01*
X95632073Y-97942308D01*
X95692941Y-97984928D01*
X95807946Y-98065456D01*
X96007524Y-98158520D01*
X96220229Y-98215515D01*
X96439600Y-98234707D01*
X96658971Y-98215515D01*
X96871676Y-98158520D01*
X97071254Y-98065456D01*
X97186259Y-97984928D01*
X97247127Y-97942308D01*
X97247129Y-97942306D01*
X97251638Y-97939149D01*
X97407349Y-97783438D01*
X97427426Y-97754766D01*
X97530499Y-97607562D01*
X97530500Y-97607560D01*
X97533656Y-97603053D01*
X97535979Y-97598071D01*
X97535982Y-97598066D01*
X97617718Y-97422781D01*
X97626720Y-97403476D01*
X97683715Y-97190771D01*
X97702907Y-96971400D01*
X97683715Y-96752029D01*
X97682291Y-96746717D01*
X97682290Y-96746708D01*
X97659783Y-96662712D01*
X97661472Y-96591735D01*
X97701265Y-96532939D01*
X97766530Y-96504991D01*
X97781489Y-96504100D01*
X98097711Y-96504100D01*
X98165832Y-96524102D01*
X98212325Y-96577758D01*
X98222429Y-96648032D01*
X98219417Y-96662712D01*
X98196910Y-96746708D01*
X98196909Y-96746717D01*
X98195485Y-96752029D01*
X98176293Y-96971400D01*
X98195485Y-97190771D01*
X98252480Y-97403476D01*
X98261482Y-97422781D01*
X98343218Y-97598066D01*
X98343221Y-97598071D01*
X98345544Y-97603053D01*
X98348700Y-97607560D01*
X98348701Y-97607562D01*
X98451775Y-97754766D01*
X98471851Y-97783438D01*
X98627562Y-97939149D01*
X98632071Y-97942306D01*
X98632073Y-97942308D01*
X98692941Y-97984928D01*
X98807946Y-98065456D01*
X99007524Y-98158520D01*
X99220229Y-98215515D01*
X99439600Y-98234707D01*
X99658971Y-98215515D01*
X99871676Y-98158520D01*
X100071254Y-98065456D01*
X100186259Y-97984928D01*
X100247127Y-97942308D01*
X100247129Y-97942306D01*
X100251638Y-97939149D01*
X100407349Y-97783438D01*
X100427426Y-97754766D01*
X100530499Y-97607562D01*
X100530500Y-97607560D01*
X100533656Y-97603053D01*
X100535979Y-97598071D01*
X100535982Y-97598066D01*
X100617718Y-97422781D01*
X100626720Y-97403476D01*
X100683715Y-97190771D01*
X100702907Y-96971400D01*
X100683715Y-96752029D01*
X100682291Y-96746717D01*
X100682290Y-96746708D01*
X100659783Y-96662712D01*
X100661472Y-96591735D01*
X100701265Y-96532939D01*
X100766530Y-96504991D01*
X100781489Y-96504100D01*
X101097711Y-96504100D01*
X101165832Y-96524102D01*
X101212325Y-96577758D01*
X101222429Y-96648032D01*
X101219417Y-96662712D01*
X101196910Y-96746708D01*
X101196909Y-96746717D01*
X101195485Y-96752029D01*
X101176293Y-96971400D01*
X101195485Y-97190771D01*
X101252480Y-97403476D01*
X101261482Y-97422781D01*
X101343218Y-97598066D01*
X101343221Y-97598071D01*
X101345544Y-97603053D01*
X101348700Y-97607560D01*
X101348701Y-97607562D01*
X101451775Y-97754766D01*
X101471851Y-97783438D01*
X101507527Y-97819114D01*
X101541553Y-97881426D01*
X101536488Y-97952241D01*
X101515516Y-97988525D01*
X101490302Y-98019003D01*
X101482313Y-98027782D01*
X100699747Y-98810348D01*
X100691461Y-98817888D01*
X100684982Y-98822000D01*
X100679557Y-98827777D01*
X100638357Y-98871651D01*
X100635602Y-98874493D01*
X100615865Y-98894230D01*
X100613385Y-98897427D01*
X100605682Y-98906447D01*
X100575414Y-98938679D01*
X100571595Y-98945625D01*
X100571593Y-98945628D01*
X100565652Y-98956434D01*
X100554801Y-98972953D01*
X100542386Y-98988959D01*
X100539241Y-98996228D01*
X100539238Y-98996232D01*
X100524826Y-99029537D01*
X100519600Y-99040204D01*
X100518353Y-99042472D01*
X100468005Y-99092528D01*
X100398588Y-99107417D01*
X100332140Y-99082413D01*
X100318847Y-99070860D01*
X100251638Y-99003651D01*
X100241636Y-98996647D01*
X100112820Y-98906449D01*
X100071254Y-98877344D01*
X99871676Y-98784280D01*
X99658971Y-98727285D01*
X99439600Y-98708093D01*
X99220229Y-98727285D01*
X99007524Y-98784280D01*
X98933330Y-98818877D01*
X98812934Y-98875018D01*
X98812929Y-98875021D01*
X98807947Y-98877344D01*
X98803440Y-98880500D01*
X98803438Y-98880501D01*
X98632073Y-99000492D01*
X98632070Y-99000494D01*
X98627562Y-99003651D01*
X98471851Y-99159362D01*
X98468694Y-99163870D01*
X98468692Y-99163873D01*
X98442931Y-99200664D01*
X98414564Y-99241177D01*
X98384459Y-99284171D01*
X98329002Y-99328499D01*
X98281246Y-99337900D01*
X98151167Y-99337900D01*
X98139984Y-99337373D01*
X98132491Y-99335698D01*
X98124565Y-99335947D01*
X98124564Y-99335947D01*
X98064414Y-99337838D01*
X98060455Y-99337900D01*
X98032544Y-99337900D01*
X98028610Y-99338397D01*
X98028609Y-99338397D01*
X98028544Y-99338405D01*
X98016707Y-99339338D01*
X97984890Y-99340338D01*
X97980429Y-99340478D01*
X97972510Y-99340727D01*
X97954854Y-99345856D01*
X97953058Y-99346378D01*
X97933706Y-99350386D01*
X97926635Y-99351280D01*
X97913603Y-99352926D01*
X97906234Y-99355843D01*
X97906232Y-99355844D01*
X97872497Y-99369200D01*
X97861269Y-99373045D01*
X97818807Y-99385382D01*
X97811984Y-99389417D01*
X97811982Y-99389418D01*
X97801372Y-99395693D01*
X97783624Y-99404388D01*
X97764783Y-99411848D01*
X97758367Y-99416509D01*
X97758364Y-99416511D01*
X97740916Y-99429188D01*
X97674048Y-99453047D01*
X97604896Y-99436966D01*
X97552660Y-99380501D01*
X97535984Y-99344738D01*
X97535980Y-99344732D01*
X97533656Y-99339747D01*
X97517196Y-99316239D01*
X97410508Y-99163873D01*
X97410506Y-99163870D01*
X97407349Y-99159362D01*
X97251638Y-99003651D01*
X97241636Y-98996647D01*
X97112820Y-98906449D01*
X97071254Y-98877344D01*
X96871676Y-98784280D01*
X96658971Y-98727285D01*
X96439600Y-98708093D01*
X96220229Y-98727285D01*
X96007524Y-98784280D01*
X95933330Y-98818877D01*
X95812934Y-98875018D01*
X95812929Y-98875021D01*
X95807947Y-98877344D01*
X95803440Y-98880500D01*
X95803438Y-98880501D01*
X95632073Y-99000492D01*
X95632070Y-99000494D01*
X95627562Y-99003651D01*
X95471851Y-99159362D01*
X95468694Y-99163870D01*
X95468692Y-99163873D01*
X95362004Y-99316239D01*
X95345544Y-99339747D01*
X95343221Y-99344729D01*
X95343218Y-99344734D01*
X95313283Y-99408931D01*
X95252480Y-99539324D01*
X95195485Y-99752029D01*
X95176293Y-99971400D01*
X95195485Y-100190771D01*
X95196908Y-100196081D01*
X95196909Y-100196088D01*
X95210773Y-100247829D01*
X95209083Y-100318805D01*
X95178161Y-100369534D01*
X90858900Y-104688795D01*
X90796588Y-104722821D01*
X90769805Y-104725700D01*
X85817934Y-104725700D01*
X85749813Y-104705698D01*
X85703320Y-104652042D01*
X85696769Y-104634269D01*
X85695270Y-104629015D01*
X85693379Y-104622386D01*
X85690097Y-104616328D01*
X85690095Y-104616324D01*
X85612606Y-104473311D01*
X85612605Y-104473309D01*
X85609119Y-104466876D01*
X85491345Y-104334920D01*
X85449892Y-104305948D01*
X85352377Y-104237795D01*
X85352378Y-104237795D01*
X85346372Y-104233598D01*
X85339565Y-104230896D01*
X85339563Y-104230895D01*
X85188787Y-104171046D01*
X85188784Y-104171045D01*
X85181979Y-104168344D01*
X85174735Y-104167281D01*
X85174732Y-104167280D01*
X85057169Y-104150025D01*
X85006984Y-104142659D01*
X85000132Y-104143156D01*
X85000127Y-104143156D01*
X84913771Y-104149422D01*
X84902251Y-104150258D01*
X84899085Y-104150816D01*
X84899079Y-104150817D01*
X84241456Y-104266775D01*
X84170897Y-104258906D01*
X84115793Y-104214139D01*
X84093639Y-104146687D01*
X84111470Y-104077966D01*
X84130481Y-104053594D01*
X88212675Y-99971400D01*
X89176293Y-99971400D01*
X89195485Y-100190771D01*
X89252480Y-100403476D01*
X89296015Y-100496838D01*
X89343218Y-100598066D01*
X89343221Y-100598071D01*
X89345544Y-100603053D01*
X89348699Y-100607559D01*
X89348701Y-100607562D01*
X89467676Y-100777475D01*
X89471851Y-100783438D01*
X89627562Y-100939149D01*
X89632071Y-100942306D01*
X89632073Y-100942308D01*
X89669992Y-100968859D01*
X89807946Y-101065456D01*
X90007524Y-101158520D01*
X90220229Y-101215515D01*
X90439600Y-101234707D01*
X90658971Y-101215515D01*
X90871676Y-101158520D01*
X91071254Y-101065456D01*
X91209208Y-100968859D01*
X91247127Y-100942308D01*
X91247129Y-100942306D01*
X91251638Y-100939149D01*
X91407349Y-100783438D01*
X91411525Y-100777475D01*
X91530499Y-100607562D01*
X91530501Y-100607559D01*
X91533656Y-100603053D01*
X91535979Y-100598071D01*
X91535982Y-100598066D01*
X91583185Y-100496838D01*
X91626720Y-100403476D01*
X91683715Y-100190771D01*
X91702907Y-99971400D01*
X92176293Y-99971400D01*
X92195485Y-100190771D01*
X92252480Y-100403476D01*
X92296015Y-100496838D01*
X92343218Y-100598066D01*
X92343221Y-100598071D01*
X92345544Y-100603053D01*
X92348699Y-100607559D01*
X92348701Y-100607562D01*
X92467676Y-100777475D01*
X92471851Y-100783438D01*
X92627562Y-100939149D01*
X92632071Y-100942306D01*
X92632073Y-100942308D01*
X92669992Y-100968859D01*
X92807946Y-101065456D01*
X93007524Y-101158520D01*
X93220229Y-101215515D01*
X93439600Y-101234707D01*
X93658971Y-101215515D01*
X93871676Y-101158520D01*
X94071254Y-101065456D01*
X94209208Y-100968859D01*
X94247127Y-100942308D01*
X94247129Y-100942306D01*
X94251638Y-100939149D01*
X94407349Y-100783438D01*
X94411525Y-100777475D01*
X94530499Y-100607562D01*
X94530501Y-100607559D01*
X94533656Y-100603053D01*
X94535979Y-100598071D01*
X94535982Y-100598066D01*
X94583185Y-100496838D01*
X94626720Y-100403476D01*
X94683715Y-100190771D01*
X94702907Y-99971400D01*
X94683715Y-99752029D01*
X94626720Y-99539324D01*
X94565917Y-99408931D01*
X94535982Y-99344734D01*
X94535979Y-99344729D01*
X94533656Y-99339747D01*
X94517196Y-99316239D01*
X94410508Y-99163873D01*
X94410506Y-99163870D01*
X94407349Y-99159362D01*
X94251638Y-99003651D01*
X94241636Y-98996647D01*
X94112820Y-98906449D01*
X94071254Y-98877344D01*
X93871676Y-98784280D01*
X93658971Y-98727285D01*
X93439600Y-98708093D01*
X93220229Y-98727285D01*
X93007524Y-98784280D01*
X92933330Y-98818877D01*
X92812934Y-98875018D01*
X92812929Y-98875021D01*
X92807947Y-98877344D01*
X92803440Y-98880500D01*
X92803438Y-98880501D01*
X92632073Y-99000492D01*
X92632070Y-99000494D01*
X92627562Y-99003651D01*
X92471851Y-99159362D01*
X92468694Y-99163870D01*
X92468692Y-99163873D01*
X92362004Y-99316239D01*
X92345544Y-99339747D01*
X92343221Y-99344729D01*
X92343218Y-99344734D01*
X92313283Y-99408931D01*
X92252480Y-99539324D01*
X92195485Y-99752029D01*
X92176293Y-99971400D01*
X91702907Y-99971400D01*
X91683715Y-99752029D01*
X91626720Y-99539324D01*
X91565917Y-99408931D01*
X91535982Y-99344734D01*
X91535979Y-99344729D01*
X91533656Y-99339747D01*
X91517196Y-99316239D01*
X91410508Y-99163873D01*
X91410506Y-99163870D01*
X91407349Y-99159362D01*
X91251638Y-99003651D01*
X91241636Y-98996647D01*
X91112820Y-98906449D01*
X91071254Y-98877344D01*
X90871676Y-98784280D01*
X90658971Y-98727285D01*
X90439600Y-98708093D01*
X90220229Y-98727285D01*
X90007524Y-98784280D01*
X89933330Y-98818877D01*
X89812934Y-98875018D01*
X89812929Y-98875021D01*
X89807947Y-98877344D01*
X89803440Y-98880500D01*
X89803438Y-98880501D01*
X89632073Y-99000492D01*
X89632070Y-99000494D01*
X89627562Y-99003651D01*
X89471851Y-99159362D01*
X89468694Y-99163870D01*
X89468692Y-99163873D01*
X89362004Y-99316239D01*
X89345544Y-99339747D01*
X89343221Y-99344729D01*
X89343218Y-99344734D01*
X89313283Y-99408931D01*
X89252480Y-99539324D01*
X89195485Y-99752029D01*
X89176293Y-99971400D01*
X88212675Y-99971400D01*
X89678403Y-98505672D01*
X89693437Y-98492831D01*
X89699266Y-98488596D01*
X89704605Y-98484717D01*
X89749848Y-98434470D01*
X89754389Y-98429686D01*
X89768710Y-98415365D01*
X89781461Y-98399619D01*
X89785745Y-98394603D01*
X89826569Y-98349264D01*
X89826571Y-98349262D01*
X89830986Y-98344358D01*
X89837896Y-98332391D01*
X89849088Y-98316107D01*
X89857776Y-98305377D01*
X89861179Y-98298698D01*
X89861536Y-98298320D01*
X89864370Y-98293956D01*
X89865168Y-98294474D01*
X89909926Y-98247083D01*
X89973446Y-98229900D01*
X90990000Y-98229900D01*
X90993246Y-98229563D01*
X90993250Y-98229563D01*
X91088907Y-98219638D01*
X91088911Y-98219637D01*
X91095765Y-98218926D01*
X91102301Y-98216745D01*
X91102303Y-98216745D01*
X91256597Y-98165268D01*
X91263545Y-98162950D01*
X91413948Y-98069878D01*
X91538905Y-97944703D01*
X91563541Y-97904737D01*
X91627875Y-97800368D01*
X91627876Y-97800366D01*
X91631715Y-97794138D01*
X91663283Y-97698962D01*
X91685232Y-97632789D01*
X91685232Y-97632787D01*
X91687397Y-97626261D01*
X91689849Y-97602335D01*
X91693727Y-97564476D01*
X91698100Y-97521800D01*
X91698100Y-96630100D01*
X91718102Y-96561979D01*
X91771758Y-96515486D01*
X91824100Y-96504100D01*
X92097711Y-96504100D01*
X92165832Y-96524102D01*
G37*
%TD.AperFunction*%
%TD*%
M02*
