%TF.GenerationSoftware,KiCad,Pcbnew,(6.0.1)*%
%TF.CreationDate,2022-03-14T16:44:18+09:00*%
%TF.ProjectId,v0_miniAB_pancake_board,76305f6d-696e-4694-9142-5f70616e6361,rev?*%
%TF.SameCoordinates,Original*%
%TF.FileFunction,Profile,NP*%
%FSLAX46Y46*%
G04 Gerber Fmt 4.6, Leading zero omitted, Abs format (unit mm)*
G04 Created by KiCad (PCBNEW (6.0.1)) date 2022-03-14 16:44:18*
%MOMM*%
%LPD*%
G01*
G04 APERTURE LIST*
%TA.AperFunction,Profile*%
%ADD10C,0.200000*%
%TD*%
G04 APERTURE END LIST*
D10*
X81192203Y-89959229D02*
X79359015Y-88126041D01*
X75980843Y-111837200D02*
X74815294Y-103997572D01*
X123962667Y-112037200D02*
X125200000Y-104000000D01*
X75980844Y-111837200D02*
G75*
G03*
X77459451Y-112827472I1210783J208846D01*
G01*
X86430089Y-81054966D02*
G75*
G03*
X85015875Y-81054966I-707107J-707108D01*
G01*
X115164672Y-89405389D02*
G75*
G03*
X90982800Y-83769200I-14980431J-9579182D01*
G01*
X88738797Y-83363674D02*
G75*
G03*
X90982800Y-83769200I1414214J1414211D01*
G01*
X115164672Y-89405389D02*
G75*
G03*
X118167779Y-92420822I8424837J5387267D01*
G01*
X74500000Y-99102435D02*
G75*
G03*
X74815294Y-103997572I26372170J-759101D01*
G01*
X88738797Y-83363674D02*
X86430089Y-81054966D01*
X122808088Y-112846691D02*
G75*
G03*
X123962667Y-112037200I145734J1020274D01*
G01*
X79580000Y-100000000D02*
G75*
G03*
X79580000Y-100000000I-1500000J0D01*
G01*
X125200000Y-104000000D02*
G75*
G03*
X125514702Y-99302429I-25718144J4082249D01*
G01*
X117093880Y-111887217D02*
X122808088Y-112846691D01*
X118167779Y-92420822D02*
X123871958Y-96077250D01*
X77459451Y-112827472D02*
X82905480Y-111887217D01*
X123420000Y-100000000D02*
G75*
G03*
X123420000Y-100000000I-1500000J0D01*
G01*
X79359015Y-86711827D02*
G75*
G03*
X79359015Y-88126041I707108J-707107D01*
G01*
X117093880Y-111887217D02*
G75*
G03*
X113859407Y-113291745I-239356J-3875371D01*
G01*
X86089395Y-113291745D02*
G75*
G03*
X113859406Y-113291746I13885006J11454544D01*
G01*
X81007134Y-92951163D02*
G75*
G03*
X81192203Y-89959229I-1229145J1577721D01*
G01*
X76139027Y-96094275D02*
X81007134Y-92951163D01*
X125514703Y-99302429D02*
G75*
G03*
X123871958Y-96077250I-3594705J199993D01*
G01*
X86089395Y-113291745D02*
G75*
G03*
X82905480Y-111887217I-2989765J-2466417D01*
G01*
X85015876Y-81054966D02*
X79359015Y-86711827D01*
X76139027Y-96094275D02*
G75*
G03*
X74500000Y-99102435I1940974J-3008160D01*
G01*
M02*
