%TF.GenerationSoftware,KiCad,Pcbnew,(6.0.1)*%
%TF.CreationDate,2022-03-14T16:44:18+09:00*%
%TF.ProjectId,v0_miniAB_pancake_board,76305f6d-696e-4694-9142-5f70616e6361,rev?*%
%TF.SameCoordinates,Original*%
%TF.FileFunction,Soldermask,Bot*%
%TF.FilePolarity,Negative*%
%FSLAX46Y46*%
G04 Gerber Fmt 4.6, Leading zero omitted, Abs format (unit mm)*
G04 Created by KiCad (PCBNEW (6.0.1)) date 2022-03-14 16:44:18*
%MOMM*%
%LPD*%
G01*
G04 APERTURE LIST*
G04 Aperture macros list*
%AMRoundRect*
0 Rectangle with rounded corners*
0 $1 Rounding radius*
0 $2 $3 $4 $5 $6 $7 $8 $9 X,Y pos of 4 corners*
0 Add a 4 corners polygon primitive as box body*
4,1,4,$2,$3,$4,$5,$6,$7,$8,$9,$2,$3,0*
0 Add four circle primitives for the rounded corners*
1,1,$1+$1,$2,$3*
1,1,$1+$1,$4,$5*
1,1,$1+$1,$6,$7*
1,1,$1+$1,$8,$9*
0 Add four rect primitives between the rounded corners*
20,1,$1+$1,$2,$3,$4,$5,0*
20,1,$1+$1,$4,$5,$6,$7,0*
20,1,$1+$1,$6,$7,$8,$9,0*
20,1,$1+$1,$8,$9,$2,$3,0*%
%AMHorizOval*
0 Thick line with rounded ends*
0 $1 width*
0 $2 $3 position (X,Y) of the first rounded end (center of the circle)*
0 $4 $5 position (X,Y) of the second rounded end (center of the circle)*
0 Add line between two ends*
20,1,$1,$2,$3,$4,$5,0*
0 Add two circle primitives to create the rounded ends*
1,1,$1,$2,$3*
1,1,$1,$4,$5*%
G04 Aperture macros list end*
%ADD10C,0.013229*%
%ADD11RoundRect,0.249999X-0.194454X0.689431X-0.689431X0.194454X0.194454X-0.689431X0.689431X-0.194454X0*%
%ADD12HorizOval,1.200000X-0.194454X0.194454X0.194454X-0.194454X0*%
%ADD13C,3.000000*%
%ADD14RoundRect,0.250001X0.835277X-0.360430X0.661629X0.624375X-0.835277X0.360430X-0.661629X-0.624375X0*%
%ADD15HorizOval,1.500000X0.256050X0.045149X-0.256050X-0.045149X0*%
%ADD16RoundRect,0.249999X-0.676283X0.236153X-0.554729X-0.453214X0.676283X-0.236153X0.554729X0.453214X0*%
%ADD17HorizOval,1.200000X-0.270822X-0.047753X0.270822X0.047753X0*%
%ADD18RoundRect,0.249999X-0.554729X0.453214X-0.676283X-0.236153X0.554729X-0.453214X0.676283X0.236153X0*%
%ADD19HorizOval,1.200000X-0.270822X0.047753X0.270822X-0.047753X0*%
%ADD20RoundRect,0.249999X0.676283X-0.236153X0.554729X0.453214X-0.676283X0.236153X-0.554729X-0.453214X0*%
%ADD21HorizOval,1.200000X0.270822X0.047753X-0.270822X-0.047753X0*%
%ADD22R,1.350000X1.350000*%
%ADD23O,1.350000X1.350000*%
%ADD24RoundRect,0.250000X0.071782X-0.712722X0.645188X-0.311218X-0.071782X0.712722X-0.645188X0.311218X0*%
%ADD25HorizOval,1.200000X-0.157734X0.225267X0.157734X-0.225267X0*%
%ADD26R,1.700000X1.700000*%
%ADD27O,1.700000X1.700000*%
%ADD28C,5.000000*%
%ADD29RoundRect,0.250000X0.350000X0.625000X-0.350000X0.625000X-0.350000X-0.625000X0.350000X-0.625000X0*%
%ADD30O,1.200000X1.750000*%
%ADD31RoundRect,0.250000X0.625000X-0.350000X0.625000X0.350000X-0.625000X0.350000X-0.625000X-0.350000X0*%
%ADD32O,1.750000X1.200000*%
%ADD33RoundRect,0.250001X-0.499999X-0.499999X0.499999X-0.499999X0.499999X0.499999X-0.499999X0.499999X0*%
%ADD34C,1.500000*%
G04 APERTURE END LIST*
D10*
X98540795Y-85126151D02*
X98555680Y-85157895D01*
X98555680Y-85157895D02*
X98568838Y-85190359D01*
X98568838Y-85190359D02*
X98580290Y-85223464D01*
X98580290Y-85223464D02*
X98590056Y-85257132D01*
X98590056Y-85257132D02*
X98598154Y-85291284D01*
X98598154Y-85291284D02*
X98604605Y-85325842D01*
X98604605Y-85325842D02*
X98609429Y-85360728D01*
X98609429Y-85360728D02*
X98612646Y-85395862D01*
X98612646Y-85395862D02*
X98614274Y-85431166D01*
X98614274Y-85431166D02*
X98614333Y-85466563D01*
X98614333Y-85466563D02*
X98612844Y-85501974D01*
X98612844Y-85501974D02*
X98609826Y-85537319D01*
X98609826Y-85537319D02*
X98605298Y-85572522D01*
X98605298Y-85572522D02*
X98599280Y-85607501D01*
X98599280Y-85607501D02*
X98591794Y-85642182D01*
X98591794Y-85642182D02*
X98582855Y-85676483D01*
X98582855Y-85676483D02*
X99402154Y-85543024D01*
X99402154Y-85543024D02*
X100177600Y-85445600D01*
X100177600Y-85445600D02*
X100918184Y-85376823D01*
X100918184Y-85376823D02*
X101632895Y-85329310D01*
X101632895Y-85329310D02*
X104412822Y-85204191D01*
X104412822Y-85204191D02*
X104428918Y-85202787D01*
X104428918Y-85202787D02*
X104444724Y-85200554D01*
X104444724Y-85200554D02*
X104460226Y-85197516D01*
X104460226Y-85197516D02*
X104475401Y-85193697D01*
X104475401Y-85193697D02*
X104490237Y-85189119D01*
X104490237Y-85189119D02*
X104504713Y-85183809D01*
X104504713Y-85183809D02*
X104518812Y-85177786D01*
X104518812Y-85177786D02*
X104532517Y-85171077D01*
X104532517Y-85171077D02*
X104545811Y-85163704D01*
X104545811Y-85163704D02*
X104558677Y-85155691D01*
X104558677Y-85155691D02*
X104571095Y-85147061D01*
X104571095Y-85147061D02*
X104583049Y-85137839D01*
X104583049Y-85137839D02*
X104594522Y-85128047D01*
X104594522Y-85128047D02*
X104605496Y-85117709D01*
X104605496Y-85117709D02*
X104615953Y-85106849D01*
X104615953Y-85106849D02*
X104625876Y-85095489D01*
X104625876Y-85095489D02*
X104635247Y-85083655D01*
X104635247Y-85083655D02*
X104644050Y-85071369D01*
X104644050Y-85071369D02*
X104652265Y-85058654D01*
X104652265Y-85058654D02*
X104659876Y-85045536D01*
X104659876Y-85045536D02*
X104666866Y-85032035D01*
X104666866Y-85032035D02*
X104673218Y-85018178D01*
X104673218Y-85018178D02*
X104678911Y-85003986D01*
X104678911Y-85003986D02*
X104683932Y-84989484D01*
X104683932Y-84989484D02*
X104688260Y-84974696D01*
X104688260Y-84974696D02*
X104691879Y-84959643D01*
X104691879Y-84959643D02*
X104694771Y-84944352D01*
X104694771Y-84944352D02*
X104696920Y-84928842D01*
X104696920Y-84928842D02*
X104698306Y-84913142D01*
X104698306Y-84913142D02*
X104698914Y-84897271D01*
X104698914Y-84897271D02*
X104698724Y-84881256D01*
X104698724Y-84881256D02*
X104697721Y-84865118D01*
X104697721Y-84865118D02*
X104695904Y-84849034D01*
X104695904Y-84849034D02*
X104693303Y-84833179D01*
X104693303Y-84833179D02*
X104689940Y-84817576D01*
X104689940Y-84817576D02*
X104685835Y-84802251D01*
X104685835Y-84802251D02*
X104681011Y-84787224D01*
X104681011Y-84787224D02*
X104675490Y-84772521D01*
X104675490Y-84772521D02*
X104669292Y-84758165D01*
X104669292Y-84758165D02*
X104662440Y-84744179D01*
X104662440Y-84744179D02*
X104654956Y-84730586D01*
X104654956Y-84730586D02*
X104646861Y-84717411D01*
X104646861Y-84717411D02*
X104638177Y-84704677D01*
X104638177Y-84704677D02*
X104628926Y-84692407D01*
X104628926Y-84692407D02*
X104619130Y-84680624D01*
X104619130Y-84680624D02*
X104608809Y-84669352D01*
X104608809Y-84669352D02*
X104597987Y-84658616D01*
X104597987Y-84658616D02*
X104586684Y-84648437D01*
X104586684Y-84648437D02*
X104574923Y-84638841D01*
X104574923Y-84638841D02*
X104562726Y-84629849D01*
X104562726Y-84629849D02*
X104550113Y-84621486D01*
X104550113Y-84621486D02*
X104537107Y-84613775D01*
X104537107Y-84613775D02*
X104523730Y-84606740D01*
X104523730Y-84606740D02*
X104510002Y-84600405D01*
X104510002Y-84600405D02*
X104495947Y-84594791D01*
X104495947Y-84594791D02*
X104481585Y-84589924D01*
X104481585Y-84589924D02*
X104466938Y-84585826D01*
X104466938Y-84585826D02*
X104452029Y-84582522D01*
X104452029Y-84582522D02*
X104436879Y-84580034D01*
X104436879Y-84580034D02*
X104421509Y-84578387D01*
X104421509Y-84578387D02*
X104405941Y-84577603D01*
X104405941Y-84577603D02*
X104390198Y-84577707D01*
X104390198Y-84577707D02*
X104374301Y-84578720D01*
X104374301Y-84578720D02*
X104358271Y-84580669D01*
X104358271Y-84580669D02*
X102909283Y-84789332D01*
X102909283Y-84789332D02*
X102184626Y-84882361D01*
X102184626Y-84882361D02*
X101459229Y-84964245D01*
X101459229Y-84964245D02*
X100732621Y-85032275D01*
X100732621Y-85032275D02*
X100004327Y-85083741D01*
X100004327Y-85083741D02*
X99273876Y-85115936D01*
X99273876Y-85115936D02*
X98540794Y-85126151D01*
X98540794Y-85126151D02*
X98540795Y-85126151D01*
X98540795Y-85126151D02*
X98540795Y-85126151D01*
G36*
X104421509Y-84578387D02*
G01*
X104436879Y-84580034D01*
X104452029Y-84582522D01*
X104466938Y-84585826D01*
X104481585Y-84589924D01*
X104495947Y-84594791D01*
X104510002Y-84600405D01*
X104523730Y-84606740D01*
X104537107Y-84613775D01*
X104550113Y-84621486D01*
X104562726Y-84629849D01*
X104574923Y-84638841D01*
X104586684Y-84648437D01*
X104597987Y-84658616D01*
X104608809Y-84669352D01*
X104619130Y-84680624D01*
X104628926Y-84692407D01*
X104638177Y-84704677D01*
X104646861Y-84717411D01*
X104654956Y-84730586D01*
X104662440Y-84744179D01*
X104669292Y-84758165D01*
X104675490Y-84772521D01*
X104681011Y-84787224D01*
X104685835Y-84802251D01*
X104689940Y-84817576D01*
X104693303Y-84833179D01*
X104695904Y-84849034D01*
X104697721Y-84865118D01*
X104698724Y-84881256D01*
X104698914Y-84897271D01*
X104698306Y-84913142D01*
X104696920Y-84928842D01*
X104694771Y-84944352D01*
X104691879Y-84959643D01*
X104688260Y-84974696D01*
X104683932Y-84989484D01*
X104678911Y-85003986D01*
X104673218Y-85018178D01*
X104666866Y-85032035D01*
X104659876Y-85045536D01*
X104652265Y-85058654D01*
X104644050Y-85071369D01*
X104635247Y-85083655D01*
X104625876Y-85095489D01*
X104615953Y-85106849D01*
X104605496Y-85117709D01*
X104594522Y-85128047D01*
X104583049Y-85137839D01*
X104571095Y-85147061D01*
X104558677Y-85155691D01*
X104545811Y-85163704D01*
X104532517Y-85171077D01*
X104518812Y-85177786D01*
X104504713Y-85183809D01*
X104490237Y-85189119D01*
X104475401Y-85193697D01*
X104460226Y-85197516D01*
X104444724Y-85200554D01*
X104428918Y-85202787D01*
X104412822Y-85204191D01*
X101632895Y-85329310D01*
X100918184Y-85376823D01*
X100177600Y-85445600D01*
X99402154Y-85543024D01*
X98582855Y-85676483D01*
X98591794Y-85642182D01*
X98599280Y-85607501D01*
X98605298Y-85572522D01*
X98609826Y-85537319D01*
X98612844Y-85501974D01*
X98614333Y-85466563D01*
X98614274Y-85431166D01*
X98612646Y-85395862D01*
X98609429Y-85360728D01*
X98604605Y-85325842D01*
X98598154Y-85291284D01*
X98590056Y-85257132D01*
X98580290Y-85223464D01*
X98568838Y-85190359D01*
X98555680Y-85157895D01*
X98540795Y-85126151D01*
X98540794Y-85126151D01*
X99273876Y-85115936D01*
X100004327Y-85083741D01*
X100732621Y-85032275D01*
X101459229Y-84964245D01*
X102184626Y-84882361D01*
X102909283Y-84789332D01*
X104358271Y-84580669D01*
X104374301Y-84578720D01*
X104390198Y-84577707D01*
X104405941Y-84577603D01*
X104421509Y-84578387D01*
G37*
X104421509Y-84578387D02*
X104436879Y-84580034D01*
X104452029Y-84582522D01*
X104466938Y-84585826D01*
X104481585Y-84589924D01*
X104495947Y-84594791D01*
X104510002Y-84600405D01*
X104523730Y-84606740D01*
X104537107Y-84613775D01*
X104550113Y-84621486D01*
X104562726Y-84629849D01*
X104574923Y-84638841D01*
X104586684Y-84648437D01*
X104597987Y-84658616D01*
X104608809Y-84669352D01*
X104619130Y-84680624D01*
X104628926Y-84692407D01*
X104638177Y-84704677D01*
X104646861Y-84717411D01*
X104654956Y-84730586D01*
X104662440Y-84744179D01*
X104669292Y-84758165D01*
X104675490Y-84772521D01*
X104681011Y-84787224D01*
X104685835Y-84802251D01*
X104689940Y-84817576D01*
X104693303Y-84833179D01*
X104695904Y-84849034D01*
X104697721Y-84865118D01*
X104698724Y-84881256D01*
X104698914Y-84897271D01*
X104698306Y-84913142D01*
X104696920Y-84928842D01*
X104694771Y-84944352D01*
X104691879Y-84959643D01*
X104688260Y-84974696D01*
X104683932Y-84989484D01*
X104678911Y-85003986D01*
X104673218Y-85018178D01*
X104666866Y-85032035D01*
X104659876Y-85045536D01*
X104652265Y-85058654D01*
X104644050Y-85071369D01*
X104635247Y-85083655D01*
X104625876Y-85095489D01*
X104615953Y-85106849D01*
X104605496Y-85117709D01*
X104594522Y-85128047D01*
X104583049Y-85137839D01*
X104571095Y-85147061D01*
X104558677Y-85155691D01*
X104545811Y-85163704D01*
X104532517Y-85171077D01*
X104518812Y-85177786D01*
X104504713Y-85183809D01*
X104490237Y-85189119D01*
X104475401Y-85193697D01*
X104460226Y-85197516D01*
X104444724Y-85200554D01*
X104428918Y-85202787D01*
X104412822Y-85204191D01*
X101632895Y-85329310D01*
X100918184Y-85376823D01*
X100177600Y-85445600D01*
X99402154Y-85543024D01*
X98582855Y-85676483D01*
X98591794Y-85642182D01*
X98599280Y-85607501D01*
X98605298Y-85572522D01*
X98609826Y-85537319D01*
X98612844Y-85501974D01*
X98614333Y-85466563D01*
X98614274Y-85431166D01*
X98612646Y-85395862D01*
X98609429Y-85360728D01*
X98604605Y-85325842D01*
X98598154Y-85291284D01*
X98590056Y-85257132D01*
X98580290Y-85223464D01*
X98568838Y-85190359D01*
X98555680Y-85157895D01*
X98540795Y-85126151D01*
X98540794Y-85126151D01*
X99273876Y-85115936D01*
X100004327Y-85083741D01*
X100732621Y-85032275D01*
X101459229Y-84964245D01*
X102184626Y-84882361D01*
X102909283Y-84789332D01*
X104358271Y-84580669D01*
X104374301Y-84578720D01*
X104390198Y-84577707D01*
X104405941Y-84577603D01*
X104421509Y-84578387D01*
X96347305Y-84871877D02*
X97834226Y-84741788D01*
X97834226Y-84741788D02*
X97920954Y-84738322D01*
X97920954Y-84738322D02*
X98002837Y-84743171D01*
X98002837Y-84743171D02*
X98079814Y-84755815D01*
X98079814Y-84755815D02*
X98151828Y-84775730D01*
X98151828Y-84775730D02*
X98218818Y-84802398D01*
X98218818Y-84802398D02*
X98280728Y-84835295D01*
X98280728Y-84835295D02*
X98337496Y-84873901D01*
X98337496Y-84873901D02*
X98389064Y-84917694D01*
X98389064Y-84917694D02*
X98435373Y-84966151D01*
X98435373Y-84966151D02*
X98476365Y-85018754D01*
X98476365Y-85018754D02*
X98511981Y-85074977D01*
X98511981Y-85074977D02*
X98542160Y-85134303D01*
X98542160Y-85134303D02*
X98566844Y-85196207D01*
X98566844Y-85196207D02*
X98585975Y-85260170D01*
X98585975Y-85260170D02*
X98599494Y-85325669D01*
X98599494Y-85325669D02*
X98607340Y-85392183D01*
X98607340Y-85392183D02*
X98609456Y-85459191D01*
X98609456Y-85459191D02*
X98605783Y-85526171D01*
X98605783Y-85526171D02*
X98596260Y-85592602D01*
X98596260Y-85592602D02*
X98580831Y-85657961D01*
X98580831Y-85657961D02*
X98559434Y-85721729D01*
X98559434Y-85721729D02*
X98532012Y-85783382D01*
X98532012Y-85783382D02*
X98498506Y-85842400D01*
X98498506Y-85842400D02*
X98458857Y-85898262D01*
X98458857Y-85898262D02*
X98413004Y-85950445D01*
X98413004Y-85950445D02*
X98360890Y-85998430D01*
X98360890Y-85998430D02*
X98302456Y-86041692D01*
X98302456Y-86041692D02*
X98237642Y-86079712D01*
X98237642Y-86079712D02*
X98166390Y-86111968D01*
X98166390Y-86111968D02*
X98088641Y-86137939D01*
X98088641Y-86137939D02*
X98004335Y-86157101D01*
X98004335Y-86157101D02*
X97913415Y-86168937D01*
X97913415Y-86168937D02*
X96471817Y-86295060D01*
X96471817Y-86295060D02*
X96424835Y-86288021D01*
X96424835Y-86288021D02*
X96383326Y-86281134D01*
X96383326Y-86281134D02*
X96347400Y-86274266D01*
X96347400Y-86274266D02*
X96317165Y-86267284D01*
X96317165Y-86267284D02*
X96292730Y-86260058D01*
X96292730Y-86260058D02*
X96282723Y-86256312D01*
X96282723Y-86256312D02*
X96274206Y-86252457D01*
X96274206Y-86252457D02*
X96267194Y-86248473D01*
X96267194Y-86248473D02*
X96261700Y-86244347D01*
X96261700Y-86244347D02*
X96257737Y-86240060D01*
X96257737Y-86240060D02*
X96255321Y-86235598D01*
X96255321Y-86235598D02*
X96254463Y-86230942D01*
X96254463Y-86230942D02*
X96255179Y-86226078D01*
X96255179Y-86226078D02*
X96257481Y-86220987D01*
X96257481Y-86220987D02*
X96261382Y-86215655D01*
X96261382Y-86215655D02*
X96266898Y-86210063D01*
X96266898Y-86210063D02*
X96274041Y-86204197D01*
X96274041Y-86204197D02*
X96282823Y-86198039D01*
X96282823Y-86198039D02*
X96293261Y-86191573D01*
X96293261Y-86191573D02*
X96319156Y-86177651D01*
X96319156Y-86177651D02*
X96351831Y-86162298D01*
X96351831Y-86162298D02*
X96391396Y-86145386D01*
X96391396Y-86145386D02*
X96437962Y-86126780D01*
X96437962Y-86126780D02*
X97363130Y-85984734D01*
X97363130Y-85984734D02*
X97404539Y-85970122D01*
X97404539Y-85970122D02*
X97439889Y-85955818D01*
X97439889Y-85955818D02*
X97455322Y-85948802D01*
X97455322Y-85948802D02*
X97469275Y-85941885D01*
X97469275Y-85941885D02*
X97481760Y-85935076D01*
X97481760Y-85935076D02*
X97492790Y-85928383D01*
X97492790Y-85928383D02*
X97502375Y-85921814D01*
X97502375Y-85921814D02*
X97510526Y-85915375D01*
X97510526Y-85915375D02*
X97517258Y-85909075D01*
X97517258Y-85909075D02*
X97522581Y-85902922D01*
X97522581Y-85902922D02*
X97526505Y-85896922D01*
X97526505Y-85896922D02*
X97529044Y-85891084D01*
X97529044Y-85891084D02*
X97530209Y-85885414D01*
X97530209Y-85885414D02*
X97530012Y-85879923D01*
X97530012Y-85879923D02*
X97528464Y-85874615D01*
X97528464Y-85874615D02*
X97525577Y-85869501D01*
X97525577Y-85869501D02*
X97521363Y-85864586D01*
X97521363Y-85864586D02*
X97515835Y-85859879D01*
X97515835Y-85859879D02*
X97509001Y-85855387D01*
X97509001Y-85855387D02*
X97500876Y-85851117D01*
X97500876Y-85851117D02*
X97491472Y-85847080D01*
X97491472Y-85847080D02*
X97480798Y-85843280D01*
X97480798Y-85843280D02*
X97468867Y-85839726D01*
X97468867Y-85839726D02*
X97455692Y-85836425D01*
X97455692Y-85836425D02*
X97441282Y-85833386D01*
X97441282Y-85833386D02*
X97425651Y-85830616D01*
X97425651Y-85830616D02*
X97390773Y-85825914D01*
X97390773Y-85825914D02*
X97351147Y-85822379D01*
X97351147Y-85822379D02*
X97237549Y-85818627D01*
X97237549Y-85818627D02*
X97099940Y-85820037D01*
X97099940Y-85820037D02*
X96950386Y-85825171D01*
X96950386Y-85825171D02*
X96800959Y-85832595D01*
X96800959Y-85832595D02*
X96445907Y-85856434D01*
X96445907Y-85856434D02*
X96390675Y-85852529D01*
X96390675Y-85852529D02*
X96342915Y-85847613D01*
X96342915Y-85847613D02*
X96302590Y-85841721D01*
X96302590Y-85841721D02*
X96269663Y-85834886D01*
X96269663Y-85834886D02*
X96255963Y-85831126D01*
X96255963Y-85831126D02*
X96244096Y-85827142D01*
X96244096Y-85827142D02*
X96234061Y-85822939D01*
X96234061Y-85822939D02*
X96225852Y-85818523D01*
X96225852Y-85818523D02*
X96219463Y-85813896D01*
X96219463Y-85813896D02*
X96214891Y-85809064D01*
X96214891Y-85809064D02*
X96212131Y-85804030D01*
X96212131Y-85804030D02*
X96211179Y-85798798D01*
X96211179Y-85798798D02*
X96212027Y-85793373D01*
X96212027Y-85793373D02*
X96214675Y-85787759D01*
X96214675Y-85787759D02*
X96219114Y-85781960D01*
X96219114Y-85781960D02*
X96225343Y-85775982D01*
X96225343Y-85775982D02*
X96233355Y-85769827D01*
X96233355Y-85769827D02*
X96243145Y-85763500D01*
X96243145Y-85763500D02*
X96254710Y-85757005D01*
X96254710Y-85757005D02*
X96268044Y-85750346D01*
X96268044Y-85750346D02*
X96300003Y-85736558D01*
X96300003Y-85736558D02*
X96338982Y-85722166D01*
X96338982Y-85722166D02*
X96384946Y-85707205D01*
X96384946Y-85707205D02*
X96437856Y-85691708D01*
X96437856Y-85691708D02*
X97332111Y-85579512D01*
X97332111Y-85579512D02*
X97354985Y-85573786D01*
X97354985Y-85573786D02*
X97376284Y-85567908D01*
X97376284Y-85567908D02*
X97396012Y-85561895D01*
X97396012Y-85561895D02*
X97414175Y-85555767D01*
X97414175Y-85555767D02*
X97430778Y-85549540D01*
X97430778Y-85549540D02*
X97445827Y-85543235D01*
X97445827Y-85543235D02*
X97459327Y-85536868D01*
X97459327Y-85536868D02*
X97471284Y-85530458D01*
X97471284Y-85530458D02*
X97481704Y-85524025D01*
X97481704Y-85524025D02*
X97490592Y-85517586D01*
X97490592Y-85517586D02*
X97497954Y-85511160D01*
X97497954Y-85511160D02*
X97503794Y-85504764D01*
X97503794Y-85504764D02*
X97508119Y-85498417D01*
X97508119Y-85498417D02*
X97510933Y-85492139D01*
X97510933Y-85492139D02*
X97512245Y-85485946D01*
X97512245Y-85485946D02*
X97512056Y-85479858D01*
X97512056Y-85479858D02*
X97510375Y-85473893D01*
X97510375Y-85473893D02*
X97507205Y-85468069D01*
X97507205Y-85468069D02*
X97502554Y-85462405D01*
X97502554Y-85462405D02*
X97496426Y-85456919D01*
X97496426Y-85456919D02*
X97488827Y-85451629D01*
X97488827Y-85451629D02*
X97479761Y-85446554D01*
X97479761Y-85446554D02*
X97469236Y-85441712D01*
X97469236Y-85441712D02*
X97457256Y-85437122D01*
X97457256Y-85437122D02*
X97443826Y-85432801D01*
X97443826Y-85432801D02*
X97428954Y-85428769D01*
X97428954Y-85428769D02*
X97412644Y-85425043D01*
X97412644Y-85425043D02*
X97394901Y-85421643D01*
X97394901Y-85421643D02*
X97375730Y-85418586D01*
X97375730Y-85418586D02*
X97355139Y-85415890D01*
X97355139Y-85415890D02*
X97333132Y-85413574D01*
X97333132Y-85413574D02*
X97309713Y-85411658D01*
X97309713Y-85411658D02*
X96402631Y-85486484D01*
X96402631Y-85486484D02*
X96347201Y-85482079D01*
X96347201Y-85482079D02*
X96322325Y-85479251D01*
X96322325Y-85479251D02*
X96299334Y-85476027D01*
X96299334Y-85476027D02*
X96278222Y-85472425D01*
X96278222Y-85472425D02*
X96258987Y-85468460D01*
X96258987Y-85468460D02*
X96241621Y-85464148D01*
X96241621Y-85464148D02*
X96226120Y-85459506D01*
X96226120Y-85459506D02*
X96212478Y-85454549D01*
X96212478Y-85454549D02*
X96200691Y-85449294D01*
X96200691Y-85449294D02*
X96190753Y-85443757D01*
X96190753Y-85443757D02*
X96182659Y-85437954D01*
X96182659Y-85437954D02*
X96176405Y-85431902D01*
X96176405Y-85431902D02*
X96171984Y-85425617D01*
X96171984Y-85425617D02*
X96169392Y-85419114D01*
X96169392Y-85419114D02*
X96168623Y-85412411D01*
X96168623Y-85412411D02*
X96169672Y-85405522D01*
X96169672Y-85405522D02*
X96172535Y-85398465D01*
X96172535Y-85398465D02*
X96177206Y-85391255D01*
X96177206Y-85391255D02*
X96183679Y-85383909D01*
X96183679Y-85383909D02*
X96191950Y-85376443D01*
X96191950Y-85376443D02*
X96202014Y-85368872D01*
X96202014Y-85368872D02*
X96213865Y-85361214D01*
X96213865Y-85361214D02*
X96227498Y-85353484D01*
X96227498Y-85353484D02*
X96242908Y-85345699D01*
X96242908Y-85345699D02*
X96260091Y-85337875D01*
X96260091Y-85337875D02*
X96279040Y-85330028D01*
X96279040Y-85330028D02*
X96299750Y-85322174D01*
X96299750Y-85322174D02*
X96346435Y-85306510D01*
X96346435Y-85306510D02*
X96400104Y-85291013D01*
X96400104Y-85291013D02*
X96504325Y-85282058D01*
X96504325Y-85282058D02*
X96752278Y-85257338D01*
X96752278Y-85257338D02*
X96899824Y-85240069D01*
X96899824Y-85240069D02*
X97046903Y-85220065D01*
X97046903Y-85220065D02*
X97116477Y-85209162D01*
X97116477Y-85209162D02*
X97181385Y-85197726D01*
X97181385Y-85197726D02*
X97240110Y-85185806D01*
X97240110Y-85185806D02*
X97291136Y-85173453D01*
X97291136Y-85173453D02*
X97315976Y-85168149D01*
X97315976Y-85168149D02*
X97338754Y-85162708D01*
X97338754Y-85162708D02*
X97359513Y-85157146D01*
X97359513Y-85157146D02*
X97378292Y-85151481D01*
X97378292Y-85151481D02*
X97395136Y-85145728D01*
X97395136Y-85145728D02*
X97410083Y-85139904D01*
X97410083Y-85139904D02*
X97423179Y-85134026D01*
X97423179Y-85134026D02*
X97434462Y-85128112D01*
X97434462Y-85128112D02*
X97443977Y-85122177D01*
X97443977Y-85122177D02*
X97451763Y-85116237D01*
X97451763Y-85116237D02*
X97457864Y-85110311D01*
X97457864Y-85110311D02*
X97462321Y-85104415D01*
X97462321Y-85104415D02*
X97465175Y-85098565D01*
X97465175Y-85098565D02*
X97466469Y-85092778D01*
X97466469Y-85092778D02*
X97466243Y-85087070D01*
X97466243Y-85087070D02*
X97464542Y-85081459D01*
X97464542Y-85081459D02*
X97461405Y-85075962D01*
X97461405Y-85075962D02*
X97456874Y-85070593D01*
X97456874Y-85070593D02*
X97450992Y-85065372D01*
X97450992Y-85065372D02*
X97443800Y-85060314D01*
X97443800Y-85060314D02*
X97435340Y-85055436D01*
X97435340Y-85055436D02*
X97425654Y-85050754D01*
X97425654Y-85050754D02*
X97414783Y-85046286D01*
X97414783Y-85046286D02*
X97402770Y-85042048D01*
X97402770Y-85042048D02*
X97375482Y-85034328D01*
X97375482Y-85034328D02*
X97344126Y-85027730D01*
X97344126Y-85027730D02*
X97309035Y-85022386D01*
X97309035Y-85022386D02*
X97270543Y-85018430D01*
X97270543Y-85018430D02*
X97211471Y-85014795D01*
X97211471Y-85014795D02*
X97147583Y-85012805D01*
X97147583Y-85012805D02*
X97009486Y-85012986D01*
X97009486Y-85012986D02*
X96864492Y-85017422D01*
X96864492Y-85017422D02*
X96720841Y-85024563D01*
X96720841Y-85024563D02*
X96324440Y-85049188D01*
X96324440Y-85049188D02*
X96296395Y-85048007D01*
X96296395Y-85048007D02*
X96270779Y-85046071D01*
X96270779Y-85046071D02*
X96247533Y-85043427D01*
X96247533Y-85043427D02*
X96226600Y-85040122D01*
X96226600Y-85040122D02*
X96207924Y-85036204D01*
X96207924Y-85036204D02*
X96191446Y-85031720D01*
X96191446Y-85031720D02*
X96177110Y-85026717D01*
X96177110Y-85026717D02*
X96164858Y-85021243D01*
X96164858Y-85021243D02*
X96154633Y-85015346D01*
X96154633Y-85015346D02*
X96146379Y-85009072D01*
X96146379Y-85009072D02*
X96140036Y-85002470D01*
X96140036Y-85002470D02*
X96135550Y-84995587D01*
X96135550Y-84995587D02*
X96132862Y-84988469D01*
X96132862Y-84988469D02*
X96131914Y-84981165D01*
X96131914Y-84981165D02*
X96132650Y-84973723D01*
X96132650Y-84973723D02*
X96135013Y-84966188D01*
X96135013Y-84966188D02*
X96138944Y-84958609D01*
X96138944Y-84958609D02*
X96144388Y-84951034D01*
X96144388Y-84951034D02*
X96151287Y-84943509D01*
X96151287Y-84943509D02*
X96159583Y-84936082D01*
X96159583Y-84936082D02*
X96169220Y-84928801D01*
X96169220Y-84928801D02*
X96180138Y-84921713D01*
X96180138Y-84921713D02*
X96192284Y-84914865D01*
X96192284Y-84914865D02*
X96205598Y-84908305D01*
X96205598Y-84908305D02*
X96220022Y-84902080D01*
X96220022Y-84902080D02*
X96235502Y-84896238D01*
X96235502Y-84896238D02*
X96251977Y-84890826D01*
X96251977Y-84890826D02*
X96269393Y-84885891D01*
X96269393Y-84885891D02*
X96287690Y-84881482D01*
X96287690Y-84881482D02*
X96306813Y-84877645D01*
X96306813Y-84877645D02*
X96326704Y-84874427D01*
X96326704Y-84874427D02*
X96347305Y-84871877D01*
X96347305Y-84871877D02*
X96347305Y-84871877D01*
G36*
X98002837Y-84743171D02*
G01*
X98079814Y-84755815D01*
X98151828Y-84775730D01*
X98218818Y-84802398D01*
X98280728Y-84835295D01*
X98337496Y-84873901D01*
X98389064Y-84917694D01*
X98435373Y-84966151D01*
X98476365Y-85018754D01*
X98511981Y-85074977D01*
X98542160Y-85134303D01*
X98566844Y-85196207D01*
X98585975Y-85260170D01*
X98599494Y-85325669D01*
X98607340Y-85392183D01*
X98609456Y-85459191D01*
X98605783Y-85526171D01*
X98596260Y-85592602D01*
X98580831Y-85657961D01*
X98559434Y-85721729D01*
X98532012Y-85783382D01*
X98498506Y-85842400D01*
X98458857Y-85898262D01*
X98413004Y-85950445D01*
X98360890Y-85998430D01*
X98302456Y-86041692D01*
X98237642Y-86079712D01*
X98166390Y-86111968D01*
X98088641Y-86137939D01*
X98004335Y-86157101D01*
X97913415Y-86168937D01*
X96471817Y-86295060D01*
X96424835Y-86288021D01*
X96383326Y-86281134D01*
X96347400Y-86274266D01*
X96317165Y-86267284D01*
X96292730Y-86260058D01*
X96282723Y-86256312D01*
X96274206Y-86252457D01*
X96267194Y-86248473D01*
X96261700Y-86244347D01*
X96257737Y-86240060D01*
X96255321Y-86235598D01*
X96254463Y-86230942D01*
X96255179Y-86226078D01*
X96257481Y-86220987D01*
X96261382Y-86215655D01*
X96266898Y-86210063D01*
X96274041Y-86204197D01*
X96282823Y-86198039D01*
X96293261Y-86191573D01*
X96319156Y-86177651D01*
X96351831Y-86162298D01*
X96391396Y-86145386D01*
X96437962Y-86126780D01*
X97363130Y-85984734D01*
X97404539Y-85970122D01*
X97439889Y-85955818D01*
X97455322Y-85948802D01*
X97469275Y-85941885D01*
X97481760Y-85935076D01*
X97492790Y-85928383D01*
X97502375Y-85921814D01*
X97510526Y-85915375D01*
X97517258Y-85909075D01*
X97522581Y-85902922D01*
X97526505Y-85896922D01*
X97529044Y-85891084D01*
X97530209Y-85885414D01*
X97530012Y-85879923D01*
X97528464Y-85874615D01*
X97525577Y-85869501D01*
X97521363Y-85864586D01*
X97515835Y-85859879D01*
X97509001Y-85855387D01*
X97500876Y-85851117D01*
X97491472Y-85847080D01*
X97480798Y-85843280D01*
X97468867Y-85839726D01*
X97455692Y-85836425D01*
X97441282Y-85833386D01*
X97425651Y-85830616D01*
X97390773Y-85825914D01*
X97351147Y-85822379D01*
X97237549Y-85818627D01*
X97099940Y-85820037D01*
X96950386Y-85825171D01*
X96800959Y-85832595D01*
X96445907Y-85856434D01*
X96390675Y-85852529D01*
X96342915Y-85847613D01*
X96302590Y-85841721D01*
X96269663Y-85834886D01*
X96255963Y-85831126D01*
X96244096Y-85827142D01*
X96234061Y-85822939D01*
X96225852Y-85818523D01*
X96219463Y-85813896D01*
X96214891Y-85809064D01*
X96212131Y-85804030D01*
X96211179Y-85798798D01*
X96212027Y-85793373D01*
X96214675Y-85787759D01*
X96219114Y-85781960D01*
X96225343Y-85775982D01*
X96233355Y-85769827D01*
X96243145Y-85763500D01*
X96254710Y-85757005D01*
X96268044Y-85750346D01*
X96300003Y-85736558D01*
X96338982Y-85722166D01*
X96384946Y-85707205D01*
X96437856Y-85691708D01*
X97332111Y-85579512D01*
X97354985Y-85573786D01*
X97376284Y-85567908D01*
X97396012Y-85561895D01*
X97414175Y-85555767D01*
X97430778Y-85549540D01*
X97445827Y-85543235D01*
X97459327Y-85536868D01*
X97471284Y-85530458D01*
X97481704Y-85524025D01*
X97490592Y-85517586D01*
X97497954Y-85511160D01*
X97503794Y-85504764D01*
X97508119Y-85498417D01*
X97510933Y-85492139D01*
X97512245Y-85485946D01*
X97512056Y-85479858D01*
X97510375Y-85473893D01*
X97507205Y-85468069D01*
X97502554Y-85462405D01*
X97496426Y-85456919D01*
X97488827Y-85451629D01*
X97479761Y-85446554D01*
X97469236Y-85441712D01*
X97457256Y-85437122D01*
X97443826Y-85432801D01*
X97428954Y-85428769D01*
X97412644Y-85425043D01*
X97394901Y-85421643D01*
X97375730Y-85418586D01*
X97355139Y-85415890D01*
X97333132Y-85413574D01*
X97309713Y-85411658D01*
X96402631Y-85486484D01*
X96347201Y-85482079D01*
X96322325Y-85479251D01*
X96299334Y-85476027D01*
X96278222Y-85472425D01*
X96258987Y-85468460D01*
X96241621Y-85464148D01*
X96226120Y-85459506D01*
X96212478Y-85454549D01*
X96200691Y-85449294D01*
X96190753Y-85443757D01*
X96182659Y-85437954D01*
X96176405Y-85431902D01*
X96171984Y-85425617D01*
X96169392Y-85419114D01*
X96168623Y-85412411D01*
X96169672Y-85405522D01*
X96172535Y-85398465D01*
X96177206Y-85391255D01*
X96183679Y-85383909D01*
X96191950Y-85376443D01*
X96202014Y-85368872D01*
X96213865Y-85361214D01*
X96227498Y-85353484D01*
X96242908Y-85345699D01*
X96260091Y-85337875D01*
X96279040Y-85330028D01*
X96299750Y-85322174D01*
X96346435Y-85306510D01*
X96400104Y-85291013D01*
X96504325Y-85282058D01*
X96752278Y-85257338D01*
X96899824Y-85240069D01*
X97046903Y-85220065D01*
X97116477Y-85209162D01*
X97181385Y-85197726D01*
X97240110Y-85185806D01*
X97291136Y-85173453D01*
X97315976Y-85168149D01*
X97338754Y-85162708D01*
X97359513Y-85157146D01*
X97378292Y-85151481D01*
X97395136Y-85145728D01*
X97410083Y-85139904D01*
X97423179Y-85134026D01*
X97434462Y-85128112D01*
X97443977Y-85122177D01*
X97451763Y-85116237D01*
X97457864Y-85110311D01*
X97462321Y-85104415D01*
X97465175Y-85098565D01*
X97466469Y-85092778D01*
X97466243Y-85087070D01*
X97464542Y-85081459D01*
X97461405Y-85075962D01*
X97456874Y-85070593D01*
X97450992Y-85065372D01*
X97443800Y-85060314D01*
X97435340Y-85055436D01*
X97425654Y-85050754D01*
X97414783Y-85046286D01*
X97402770Y-85042048D01*
X97375482Y-85034328D01*
X97344126Y-85027730D01*
X97309035Y-85022386D01*
X97270543Y-85018430D01*
X97211471Y-85014795D01*
X97147583Y-85012805D01*
X97009486Y-85012986D01*
X96864492Y-85017422D01*
X96720841Y-85024563D01*
X96324440Y-85049188D01*
X96296395Y-85048007D01*
X96270779Y-85046071D01*
X96247533Y-85043427D01*
X96226600Y-85040122D01*
X96207924Y-85036204D01*
X96191446Y-85031720D01*
X96177110Y-85026717D01*
X96164858Y-85021243D01*
X96154633Y-85015346D01*
X96146379Y-85009072D01*
X96140036Y-85002470D01*
X96135550Y-84995587D01*
X96132862Y-84988469D01*
X96131914Y-84981165D01*
X96132650Y-84973723D01*
X96135013Y-84966188D01*
X96138944Y-84958609D01*
X96144388Y-84951034D01*
X96151287Y-84943509D01*
X96159583Y-84936082D01*
X96169220Y-84928801D01*
X96180138Y-84921713D01*
X96192284Y-84914865D01*
X96205598Y-84908305D01*
X96220022Y-84902080D01*
X96235502Y-84896238D01*
X96251977Y-84890826D01*
X96269393Y-84885891D01*
X96287690Y-84881482D01*
X96306813Y-84877645D01*
X96326704Y-84874427D01*
X96347305Y-84871877D01*
X97834226Y-84741788D01*
X97920954Y-84738322D01*
X98002837Y-84743171D01*
G37*
X98002837Y-84743171D02*
X98079814Y-84755815D01*
X98151828Y-84775730D01*
X98218818Y-84802398D01*
X98280728Y-84835295D01*
X98337496Y-84873901D01*
X98389064Y-84917694D01*
X98435373Y-84966151D01*
X98476365Y-85018754D01*
X98511981Y-85074977D01*
X98542160Y-85134303D01*
X98566844Y-85196207D01*
X98585975Y-85260170D01*
X98599494Y-85325669D01*
X98607340Y-85392183D01*
X98609456Y-85459191D01*
X98605783Y-85526171D01*
X98596260Y-85592602D01*
X98580831Y-85657961D01*
X98559434Y-85721729D01*
X98532012Y-85783382D01*
X98498506Y-85842400D01*
X98458857Y-85898262D01*
X98413004Y-85950445D01*
X98360890Y-85998430D01*
X98302456Y-86041692D01*
X98237642Y-86079712D01*
X98166390Y-86111968D01*
X98088641Y-86137939D01*
X98004335Y-86157101D01*
X97913415Y-86168937D01*
X96471817Y-86295060D01*
X96424835Y-86288021D01*
X96383326Y-86281134D01*
X96347400Y-86274266D01*
X96317165Y-86267284D01*
X96292730Y-86260058D01*
X96282723Y-86256312D01*
X96274206Y-86252457D01*
X96267194Y-86248473D01*
X96261700Y-86244347D01*
X96257737Y-86240060D01*
X96255321Y-86235598D01*
X96254463Y-86230942D01*
X96255179Y-86226078D01*
X96257481Y-86220987D01*
X96261382Y-86215655D01*
X96266898Y-86210063D01*
X96274041Y-86204197D01*
X96282823Y-86198039D01*
X96293261Y-86191573D01*
X96319156Y-86177651D01*
X96351831Y-86162298D01*
X96391396Y-86145386D01*
X96437962Y-86126780D01*
X97363130Y-85984734D01*
X97404539Y-85970122D01*
X97439889Y-85955818D01*
X97455322Y-85948802D01*
X97469275Y-85941885D01*
X97481760Y-85935076D01*
X97492790Y-85928383D01*
X97502375Y-85921814D01*
X97510526Y-85915375D01*
X97517258Y-85909075D01*
X97522581Y-85902922D01*
X97526505Y-85896922D01*
X97529044Y-85891084D01*
X97530209Y-85885414D01*
X97530012Y-85879923D01*
X97528464Y-85874615D01*
X97525577Y-85869501D01*
X97521363Y-85864586D01*
X97515835Y-85859879D01*
X97509001Y-85855387D01*
X97500876Y-85851117D01*
X97491472Y-85847080D01*
X97480798Y-85843280D01*
X97468867Y-85839726D01*
X97455692Y-85836425D01*
X97441282Y-85833386D01*
X97425651Y-85830616D01*
X97390773Y-85825914D01*
X97351147Y-85822379D01*
X97237549Y-85818627D01*
X97099940Y-85820037D01*
X96950386Y-85825171D01*
X96800959Y-85832595D01*
X96445907Y-85856434D01*
X96390675Y-85852529D01*
X96342915Y-85847613D01*
X96302590Y-85841721D01*
X96269663Y-85834886D01*
X96255963Y-85831126D01*
X96244096Y-85827142D01*
X96234061Y-85822939D01*
X96225852Y-85818523D01*
X96219463Y-85813896D01*
X96214891Y-85809064D01*
X96212131Y-85804030D01*
X96211179Y-85798798D01*
X96212027Y-85793373D01*
X96214675Y-85787759D01*
X96219114Y-85781960D01*
X96225343Y-85775982D01*
X96233355Y-85769827D01*
X96243145Y-85763500D01*
X96254710Y-85757005D01*
X96268044Y-85750346D01*
X96300003Y-85736558D01*
X96338982Y-85722166D01*
X96384946Y-85707205D01*
X96437856Y-85691708D01*
X97332111Y-85579512D01*
X97354985Y-85573786D01*
X97376284Y-85567908D01*
X97396012Y-85561895D01*
X97414175Y-85555767D01*
X97430778Y-85549540D01*
X97445827Y-85543235D01*
X97459327Y-85536868D01*
X97471284Y-85530458D01*
X97481704Y-85524025D01*
X97490592Y-85517586D01*
X97497954Y-85511160D01*
X97503794Y-85504764D01*
X97508119Y-85498417D01*
X97510933Y-85492139D01*
X97512245Y-85485946D01*
X97512056Y-85479858D01*
X97510375Y-85473893D01*
X97507205Y-85468069D01*
X97502554Y-85462405D01*
X97496426Y-85456919D01*
X97488827Y-85451629D01*
X97479761Y-85446554D01*
X97469236Y-85441712D01*
X97457256Y-85437122D01*
X97443826Y-85432801D01*
X97428954Y-85428769D01*
X97412644Y-85425043D01*
X97394901Y-85421643D01*
X97375730Y-85418586D01*
X97355139Y-85415890D01*
X97333132Y-85413574D01*
X97309713Y-85411658D01*
X96402631Y-85486484D01*
X96347201Y-85482079D01*
X96322325Y-85479251D01*
X96299334Y-85476027D01*
X96278222Y-85472425D01*
X96258987Y-85468460D01*
X96241621Y-85464148D01*
X96226120Y-85459506D01*
X96212478Y-85454549D01*
X96200691Y-85449294D01*
X96190753Y-85443757D01*
X96182659Y-85437954D01*
X96176405Y-85431902D01*
X96171984Y-85425617D01*
X96169392Y-85419114D01*
X96168623Y-85412411D01*
X96169672Y-85405522D01*
X96172535Y-85398465D01*
X96177206Y-85391255D01*
X96183679Y-85383909D01*
X96191950Y-85376443D01*
X96202014Y-85368872D01*
X96213865Y-85361214D01*
X96227498Y-85353484D01*
X96242908Y-85345699D01*
X96260091Y-85337875D01*
X96279040Y-85330028D01*
X96299750Y-85322174D01*
X96346435Y-85306510D01*
X96400104Y-85291013D01*
X96504325Y-85282058D01*
X96752278Y-85257338D01*
X96899824Y-85240069D01*
X97046903Y-85220065D01*
X97116477Y-85209162D01*
X97181385Y-85197726D01*
X97240110Y-85185806D01*
X97291136Y-85173453D01*
X97315976Y-85168149D01*
X97338754Y-85162708D01*
X97359513Y-85157146D01*
X97378292Y-85151481D01*
X97395136Y-85145728D01*
X97410083Y-85139904D01*
X97423179Y-85134026D01*
X97434462Y-85128112D01*
X97443977Y-85122177D01*
X97451763Y-85116237D01*
X97457864Y-85110311D01*
X97462321Y-85104415D01*
X97465175Y-85098565D01*
X97466469Y-85092778D01*
X97466243Y-85087070D01*
X97464542Y-85081459D01*
X97461405Y-85075962D01*
X97456874Y-85070593D01*
X97450992Y-85065372D01*
X97443800Y-85060314D01*
X97435340Y-85055436D01*
X97425654Y-85050754D01*
X97414783Y-85046286D01*
X97402770Y-85042048D01*
X97375482Y-85034328D01*
X97344126Y-85027730D01*
X97309035Y-85022386D01*
X97270543Y-85018430D01*
X97211471Y-85014795D01*
X97147583Y-85012805D01*
X97009486Y-85012986D01*
X96864492Y-85017422D01*
X96720841Y-85024563D01*
X96324440Y-85049188D01*
X96296395Y-85048007D01*
X96270779Y-85046071D01*
X96247533Y-85043427D01*
X96226600Y-85040122D01*
X96207924Y-85036204D01*
X96191446Y-85031720D01*
X96177110Y-85026717D01*
X96164858Y-85021243D01*
X96154633Y-85015346D01*
X96146379Y-85009072D01*
X96140036Y-85002470D01*
X96135550Y-84995587D01*
X96132862Y-84988469D01*
X96131914Y-84981165D01*
X96132650Y-84973723D01*
X96135013Y-84966188D01*
X96138944Y-84958609D01*
X96144388Y-84951034D01*
X96151287Y-84943509D01*
X96159583Y-84936082D01*
X96169220Y-84928801D01*
X96180138Y-84921713D01*
X96192284Y-84914865D01*
X96205598Y-84908305D01*
X96220022Y-84902080D01*
X96235502Y-84896238D01*
X96251977Y-84890826D01*
X96269393Y-84885891D01*
X96287690Y-84881482D01*
X96306813Y-84877645D01*
X96326704Y-84874427D01*
X96347305Y-84871877D01*
X97834226Y-84741788D01*
X97920954Y-84738322D01*
X98002837Y-84743171D01*
D11*
%TO.C,J1*%
X86330229Y-83865589D03*
D12*
X84916015Y-85279803D03*
X83501802Y-86694016D03*
X82087588Y-88108230D03*
%TD*%
D13*
%TO.C,J2*%
X90333317Y-114208377D03*
D14*
X94848159Y-114935429D03*
D15*
X94327214Y-111981006D03*
%TD*%
D16*
%TO.C,J3*%
X84429600Y-105359200D03*
D17*
X84776896Y-107328816D03*
%TD*%
D18*
%TO.C,J4*%
X122478800Y-107340400D03*
D19*
X122131504Y-109310016D03*
%TD*%
D20*
%TO.C,J5*%
X78130400Y-108508800D03*
D21*
X77783104Y-106539184D03*
%TD*%
D18*
%TO.C,J6*%
X116974612Y-106324400D03*
D19*
X116627316Y-108294016D03*
%TD*%
D22*
%TO.C,J10*%
X100279200Y-112706400D03*
D23*
X102279200Y-112706400D03*
X100279200Y-114706400D03*
X102279200Y-114706400D03*
X100279200Y-116706400D03*
X102279200Y-116706400D03*
%TD*%
D24*
%TO.C,J12*%
X106984800Y-113842800D03*
D25*
X108623104Y-112695647D03*
X110261408Y-111548494D03*
%TD*%
D26*
%TO.C,J13*%
X98653600Y-107696000D03*
D27*
X101193600Y-107696000D03*
X103733600Y-107696000D03*
X106273600Y-107696000D03*
X108813600Y-107696000D03*
%TD*%
D28*
%TO.C,H1*%
X121920000Y-100000000D03*
%TD*%
D29*
%TO.C,J8*%
X103378000Y-103682800D03*
D30*
X101378000Y-103682800D03*
X99378000Y-103682800D03*
%TD*%
D31*
%TO.C,J7*%
X83625600Y-99739200D03*
D32*
X83625600Y-97739200D03*
X83625600Y-95739200D03*
%TD*%
D28*
%TO.C,H2*%
X78080000Y-100000000D03*
%TD*%
D13*
%TO.C,J9*%
X109299600Y-92651400D03*
X92599600Y-92651400D03*
D33*
X90439600Y-96971400D03*
D34*
X93439600Y-96971400D03*
X96439600Y-96971400D03*
X99439600Y-96971400D03*
X102439600Y-96971400D03*
X105439600Y-96971400D03*
X108439600Y-96971400D03*
X111439600Y-96971400D03*
X90439600Y-99971400D03*
X93439600Y-99971400D03*
X96439600Y-99971400D03*
X99439600Y-99971400D03*
X102439600Y-99971400D03*
X105439600Y-99971400D03*
X108439600Y-99971400D03*
X111439600Y-99971400D03*
%TD*%
M02*
