%TF.GenerationSoftware,KiCad,Pcbnew,(6.0.1)*%
%TF.CreationDate,2022-03-04T07:34:18+09:00*%
%TF.ProjectId,v0_miniAB_pancake_board,76305f6d-696e-4694-9142-5f70616e6361,rev?*%
%TF.SameCoordinates,Original*%
%TF.FileFunction,Copper,L2,Bot*%
%TF.FilePolarity,Positive*%
%FSLAX46Y46*%
G04 Gerber Fmt 4.6, Leading zero omitted, Abs format (unit mm)*
G04 Created by KiCad (PCBNEW (6.0.1)) date 2022-03-04 07:34:18*
%MOMM*%
%LPD*%
G01*
G04 APERTURE LIST*
G04 Aperture macros list*
%AMRoundRect*
0 Rectangle with rounded corners*
0 $1 Rounding radius*
0 $2 $3 $4 $5 $6 $7 $8 $9 X,Y pos of 4 corners*
0 Add a 4 corners polygon primitive as box body*
4,1,4,$2,$3,$4,$5,$6,$7,$8,$9,$2,$3,0*
0 Add four circle primitives for the rounded corners*
1,1,$1+$1,$2,$3*
1,1,$1+$1,$4,$5*
1,1,$1+$1,$6,$7*
1,1,$1+$1,$8,$9*
0 Add four rect primitives between the rounded corners*
20,1,$1+$1,$2,$3,$4,$5,0*
20,1,$1+$1,$4,$5,$6,$7,0*
20,1,$1+$1,$6,$7,$8,$9,0*
20,1,$1+$1,$8,$9,$2,$3,0*%
%AMHorizOval*
0 Thick line with rounded ends*
0 $1 width*
0 $2 $3 position (X,Y) of the first rounded end (center of the circle)*
0 $4 $5 position (X,Y) of the second rounded end (center of the circle)*
0 Add line between two ends*
20,1,$1,$2,$3,$4,$5,0*
0 Add two circle primitives to create the rounded ends*
1,1,$1,$2,$3*
1,1,$1,$4,$5*%
G04 Aperture macros list end*
%TA.AperFunction,ComponentPad*%
%ADD10RoundRect,0.249999X-0.194454X0.689431X-0.689431X0.194454X0.194454X-0.689431X0.689431X-0.194454X0*%
%TD*%
%TA.AperFunction,ComponentPad*%
%ADD11HorizOval,1.200000X-0.194454X0.194454X0.194454X-0.194454X0*%
%TD*%
%TA.AperFunction,ComponentPad*%
%ADD12RoundRect,0.250001X0.813011X0.408179X-0.053012X0.908178X-0.813011X-0.408179X0.053012X-0.908178X0*%
%TD*%
%TA.AperFunction,ComponentPad*%
%ADD13HorizOval,1.500000X0.130000X0.225167X-0.130000X-0.225167X0*%
%TD*%
%TA.AperFunction,ComponentPad*%
%ADD14RoundRect,0.249999X-0.676283X0.236153X-0.554729X-0.453214X0.676283X-0.236153X0.554729X0.453214X0*%
%TD*%
%TA.AperFunction,ComponentPad*%
%ADD15HorizOval,1.200000X-0.270822X-0.047753X0.270822X0.047753X0*%
%TD*%
%TA.AperFunction,ComponentPad*%
%ADD16RoundRect,0.249999X-0.554729X0.453214X-0.676283X-0.236153X0.554729X-0.453214X0.676283X0.236153X0*%
%TD*%
%TA.AperFunction,ComponentPad*%
%ADD17HorizOval,1.200000X-0.270822X0.047753X0.270822X-0.047753X0*%
%TD*%
%TA.AperFunction,ComponentPad*%
%ADD18RoundRect,0.249999X0.676283X-0.236153X0.554729X0.453214X-0.676283X0.236153X-0.554729X-0.453214X0*%
%TD*%
%TA.AperFunction,ComponentPad*%
%ADD19HorizOval,1.200000X0.270822X0.047753X-0.270822X-0.047753X0*%
%TD*%
%TA.AperFunction,ComponentPad*%
%ADD20RoundRect,0.250000X0.350000X0.625000X-0.350000X0.625000X-0.350000X-0.625000X0.350000X-0.625000X0*%
%TD*%
%TA.AperFunction,ComponentPad*%
%ADD21O,1.200000X1.750000*%
%TD*%
%TA.AperFunction,ComponentPad*%
%ADD22RoundRect,0.249999X0.625001X-0.350001X0.625001X0.350001X-0.625001X0.350001X-0.625001X-0.350001X0*%
%TD*%
%TA.AperFunction,ComponentPad*%
%ADD23O,1.750000X1.200000*%
%TD*%
%TA.AperFunction,ComponentPad*%
%ADD24R,1.350000X1.350000*%
%TD*%
%TA.AperFunction,ComponentPad*%
%ADD25O,1.350000X1.350000*%
%TD*%
%TA.AperFunction,ComponentPad*%
%ADD26RoundRect,0.250000X0.071782X-0.712722X0.645188X-0.311218X-0.071782X0.712722X-0.645188X0.311218X0*%
%TD*%
%TA.AperFunction,ComponentPad*%
%ADD27HorizOval,1.200000X-0.157734X0.225267X0.157734X-0.225267X0*%
%TD*%
%TA.AperFunction,ComponentPad*%
%ADD28R,1.700000X1.700000*%
%TD*%
%TA.AperFunction,ComponentPad*%
%ADD29O,1.700000X1.700000*%
%TD*%
%TA.AperFunction,ComponentPad*%
%ADD30C,5.000000*%
%TD*%
%TA.AperFunction,ComponentPad*%
%ADD31RoundRect,0.250001X-0.499999X-0.499999X0.499999X-0.499999X0.499999X0.499999X-0.499999X0.499999X0*%
%TD*%
%TA.AperFunction,ComponentPad*%
%ADD32C,1.500000*%
%TD*%
%TA.AperFunction,ViaPad*%
%ADD33C,0.800000*%
%TD*%
%TA.AperFunction,Conductor*%
%ADD34C,0.250000*%
%TD*%
%TA.AperFunction,Conductor*%
%ADD35C,0.780000*%
%TD*%
%TA.AperFunction,Conductor*%
%ADD36C,1.400000*%
%TD*%
G04 APERTURE END LIST*
D10*
%TO.P,J1,1,Pin_1*%
%TO.N,/B-*%
X86330229Y-83865589D03*
D11*
%TO.P,J1,2,Pin_2*%
%TO.N,/B+*%
X84916015Y-85279803D03*
%TO.P,J1,3,Pin_3*%
%TO.N,/A-*%
X83501802Y-86694016D03*
%TO.P,J1,4,Pin_4*%
%TO.N,/A+*%
X82087588Y-88108230D03*
%TD*%
D12*
%TO.P,J2,1,Pin_1*%
%TO.N,/heat_gnd*%
X94825638Y-109783080D03*
D13*
%TO.P,J2,2,Pin_2*%
%TO.N,+24V*%
X92227562Y-108283080D03*
%TD*%
D14*
%TO.P,J3,1,Pin_1*%
%TO.N,/therm0*%
X84429600Y-105359200D03*
D15*
%TO.P,J3,2,Pin_2*%
%TO.N,/therm1*%
X84776896Y-107328816D03*
%TD*%
D16*
%TO.P,J4,1,Pin_1*%
%TO.N,/VFAN0*%
X122478800Y-107340400D03*
D17*
%TO.P,J4,2,Pin_2*%
%TO.N,/fan0*%
X122131504Y-109310016D03*
%TD*%
D18*
%TO.P,J5,1,Pin_1*%
%TO.N,/VFAN0*%
X78130400Y-108508800D03*
D19*
%TO.P,J5,2,Pin_2*%
%TO.N,/fan0*%
X77783104Y-106539184D03*
%TD*%
D16*
%TO.P,J6,1,Pin_1*%
%TO.N,/VFAN1*%
X116974612Y-106324400D03*
D17*
%TO.P,J6,2,Pin_2*%
%TO.N,/fan1*%
X116627316Y-108294016D03*
%TD*%
D20*
%TO.P,J7,1,Pin_1*%
%TO.N,+5V*%
X103022400Y-104038400D03*
D21*
%TO.P,J7,2,Pin_2*%
%TO.N,/sw0*%
X101022400Y-104038400D03*
%TO.P,J7,3,Pin_3*%
%TO.N,GND*%
X99022400Y-104038400D03*
%TD*%
D22*
%TO.P,J8,1,Pin_1*%
%TO.N,+5V*%
X83676400Y-99739200D03*
D23*
%TO.P,J8,2,Pin_2*%
%TO.N,/sw1*%
X83676400Y-97739200D03*
%TO.P,J8,3,Pin_3*%
%TO.N,GND*%
X83676400Y-95739200D03*
%TD*%
D24*
%TO.P,J10,1,Pin_1*%
%TO.N,+5V*%
X99415600Y-112725200D03*
D25*
%TO.P,J10,2,Pin_2*%
%TO.N,/VFAN0*%
X99415600Y-114725200D03*
%TO.P,J10,3,Pin_3*%
%TO.N,+24V*%
X99415600Y-116725200D03*
%TD*%
D24*
%TO.P,J11,1,Pin_1*%
%TO.N,+5V*%
X102463600Y-112725200D03*
D25*
%TO.P,J11,2,Pin_2*%
%TO.N,/VFAN1*%
X102463600Y-114725200D03*
%TO.P,J11,3,Pin_3*%
%TO.N,+24V*%
X102463600Y-116725200D03*
%TD*%
D26*
%TO.P,J12,1,Pin_1*%
%TO.N,+5V*%
X106758229Y-113777420D03*
D27*
%TO.P,J12,2,Pin_2*%
%TO.N,/led*%
X108396533Y-112630267D03*
%TO.P,J12,3,Pin_3*%
%TO.N,GND*%
X110034837Y-111483114D03*
%TD*%
D28*
%TO.P,J13,1,Pin_1*%
%TO.N,GND*%
X98506200Y-107696000D03*
D29*
%TO.P,J13,2,Pin_2*%
%TO.N,+5V*%
X101046200Y-107696000D03*
%TO.P,J13,3,Pin_3*%
%TO.N,/servo*%
X103586200Y-107696000D03*
%TO.P,J13,4,Pin_4*%
%TO.N,GND*%
X106126200Y-107696000D03*
%TO.P,J13,5,Pin_5*%
%TO.N,/sw1*%
X108666200Y-107696000D03*
%TD*%
D30*
%TO.P,H1,1,1*%
%TO.N,GND*%
X121920000Y-100000000D03*
%TD*%
%TO.P,H2,1,1*%
%TO.N,GND*%
X78080000Y-100000000D03*
%TD*%
D31*
%TO.P,J9,1,Pin_1*%
%TO.N,/A+*%
X90439600Y-96971400D03*
D32*
%TO.P,J9,2,Pin_2*%
%TO.N,/A-*%
X93439600Y-96971400D03*
%TO.P,J9,3,Pin_3*%
%TO.N,/B+*%
X96439600Y-96971400D03*
%TO.P,J9,4,Pin_4*%
%TO.N,/B-*%
X99439600Y-96971400D03*
%TO.P,J9,5,Pin_5*%
%TO.N,/sw1*%
X102439600Y-96971400D03*
%TO.P,J9,6,Pin_6*%
%TO.N,/fan0*%
X105439600Y-96971400D03*
%TO.P,J9,7,Pin_7*%
%TO.N,/led*%
X108439600Y-96971400D03*
%TO.P,J9,8,Pin_8*%
%TO.N,GND*%
X111439600Y-96971400D03*
%TO.P,J9,9,Pin_9*%
%TO.N,+24V*%
X90439600Y-99971400D03*
%TO.P,J9,10,Pin_10*%
%TO.N,/heat_gnd*%
X93439600Y-99971400D03*
%TO.P,J9,11,Pin_11*%
%TO.N,/therm0*%
X96439600Y-99971400D03*
%TO.P,J9,12,Pin_12*%
%TO.N,/therm1*%
X99439600Y-99971400D03*
%TO.P,J9,13,Pin_13*%
%TO.N,/sw0*%
X102439600Y-99971400D03*
%TO.P,J9,14,Pin_14*%
%TO.N,/fan1*%
X105439600Y-99971400D03*
%TO.P,J9,15,Pin_15*%
%TO.N,/servo*%
X108439600Y-99971400D03*
%TO.P,J9,16,Pin_16*%
%TO.N,+5V*%
X111439600Y-99971400D03*
%TD*%
D33*
%TO.N,GND*%
X90322400Y-91744800D03*
X94894400Y-93726000D03*
X86360000Y-87477600D03*
X88798400Y-109169200D03*
X113538000Y-108204000D03*
X88798400Y-111607600D03*
X87477600Y-104190800D03*
%TO.N,/VFAN0*%
X105467700Y-116389700D03*
%TO.N,/led*%
X105664000Y-104394000D03*
%TD*%
D34*
%TO.N,/therm1*%
X99439600Y-99971400D02*
X98072400Y-99971400D01*
X86296992Y-105808720D02*
X84776896Y-107328816D01*
X92235080Y-105808720D02*
X86296992Y-105808720D01*
X98072400Y-99971400D02*
X92235080Y-105808720D01*
%TO.N,/therm0*%
X91084400Y-105359200D02*
X84429600Y-105359200D01*
X96439600Y-100004000D02*
X91084400Y-105359200D01*
X96439600Y-99971400D02*
X96439600Y-100004000D01*
D35*
%TO.N,/fan0*%
X105439600Y-95787600D02*
X104648000Y-94996000D01*
X77783104Y-106539184D02*
X80374220Y-106539184D01*
X105439600Y-96971400D02*
X105439600Y-95787600D01*
X104648000Y-94996000D02*
X88900000Y-94996000D01*
X80374220Y-106539184D02*
X88376702Y-98536702D01*
X88376702Y-95519298D02*
X88376702Y-98536702D01*
X88900000Y-94996000D02*
X88376702Y-95519298D01*
D36*
%TO.N,+5V*%
X101046200Y-107696000D02*
X101046200Y-111307800D01*
X101046200Y-111307800D02*
X102463600Y-112725200D01*
X84918800Y-99739200D02*
X83676400Y-99739200D01*
X99415600Y-112725200D02*
X102463600Y-112725200D01*
X107188000Y-109728000D02*
X109260783Y-109728000D01*
X111537879Y-90201879D02*
X89630121Y-90201879D01*
X111439600Y-107549183D02*
X111439600Y-99971400D01*
X86360000Y-93472000D02*
X86360000Y-98298000D01*
X113089111Y-91753111D02*
X111537879Y-90201879D01*
X111439600Y-99971400D02*
X113089111Y-98321889D01*
X105706009Y-112725200D02*
X102463600Y-112725200D01*
X86360000Y-98298000D02*
X84918800Y-99739200D01*
X105706009Y-112725200D02*
X105706009Y-111209991D01*
X109260783Y-109728000D02*
X111439600Y-107549183D01*
X113089111Y-98321889D02*
X113089111Y-91753111D01*
X105706009Y-112725200D02*
X106758229Y-113777420D01*
X89630121Y-90201879D02*
X86360000Y-93472000D01*
X105706009Y-111209991D02*
X107188000Y-109728000D01*
%TO.N,+24V*%
X92227562Y-110159962D02*
X98792800Y-116725200D01*
X92227562Y-108283080D02*
X92227562Y-110159962D01*
X99415600Y-116725200D02*
X102463600Y-116725200D01*
X98792800Y-116725200D02*
X99415600Y-116725200D01*
D35*
%TO.N,/VFAN0*%
X108298700Y-116389700D02*
X105467700Y-116389700D01*
X108298700Y-116389700D02*
X114182249Y-110506151D01*
X114182249Y-110506151D02*
X118121630Y-110506151D01*
X118121630Y-110506151D02*
X121287381Y-107340400D01*
X121287381Y-107340400D02*
X122478800Y-107340400D01*
D34*
%TO.N,/led*%
X105664000Y-104394000D02*
X106934000Y-103124000D01*
X106934000Y-103124000D02*
X106934000Y-97536000D01*
X106934000Y-97536000D02*
X107498600Y-96971400D01*
X107498600Y-96971400D02*
X108439600Y-96971400D01*
%TO.N,/servo*%
X108430600Y-102851600D02*
X108439600Y-102851600D01*
X108439600Y-99971400D02*
X108439600Y-102851600D01*
X103586200Y-107696000D02*
X108430600Y-102851600D01*
%TD*%
%TA.AperFunction,Conductor*%
%TO.N,GND*%
G36*
X85886212Y-80878150D02*
G01*
X85910432Y-80882966D01*
X86055527Y-80926980D01*
X86078341Y-80936431D01*
X86212056Y-81007903D01*
X86232583Y-81021619D01*
X86349939Y-81117930D01*
X86349939Y-81117931D01*
X86348083Y-81120193D01*
X86352402Y-81122764D01*
X86355740Y-81129316D01*
X86369270Y-81136210D01*
X86379507Y-81147049D01*
X86384453Y-81150752D01*
X88656888Y-83423187D01*
X88664447Y-83438023D01*
X88669088Y-83440388D01*
X88683318Y-83452989D01*
X88683319Y-83452990D01*
X88853486Y-83603670D01*
X88856349Y-83606205D01*
X88859495Y-83608373D01*
X89063246Y-83748791D01*
X89063250Y-83748793D01*
X89066388Y-83750956D01*
X89069772Y-83752727D01*
X89069774Y-83752728D01*
X89289016Y-83867452D01*
X89289020Y-83867454D01*
X89292401Y-83869223D01*
X89531067Y-83959267D01*
X89689615Y-83997974D01*
X89775167Y-84018860D01*
X89775171Y-84018861D01*
X89778875Y-84019765D01*
X89782658Y-84020214D01*
X89782664Y-84020215D01*
X90028390Y-84049376D01*
X90028394Y-84049376D01*
X90032184Y-84049826D01*
X90036004Y-84049814D01*
X90036008Y-84049814D01*
X90157936Y-84049424D01*
X90287269Y-84049011D01*
X90291062Y-84048536D01*
X90291066Y-84048536D01*
X90536588Y-84017804D01*
X90536592Y-84017803D01*
X90540381Y-84017329D01*
X90662863Y-83986596D01*
X90784104Y-83956175D01*
X90784110Y-83956173D01*
X90787797Y-83955248D01*
X90791349Y-83953882D01*
X90791355Y-83953880D01*
X91003799Y-83872173D01*
X91003800Y-83872173D01*
X91021253Y-83865460D01*
X91026425Y-83864869D01*
X91031072Y-83860609D01*
X91037211Y-83859173D01*
X91046777Y-83848105D01*
X91053377Y-83843977D01*
X91064351Y-83837687D01*
X91588623Y-83537173D01*
X91750477Y-83444398D01*
X91755665Y-83441584D01*
X92487383Y-83066540D01*
X92492696Y-83063972D01*
X92661896Y-82987028D01*
X93241195Y-82723592D01*
X93246583Y-82721291D01*
X93711842Y-82535485D01*
X94010213Y-82416327D01*
X94015744Y-82414267D01*
X94792794Y-82145402D01*
X94798414Y-82143604D01*
X95587178Y-81911425D01*
X95592877Y-81909891D01*
X96391671Y-81714894D01*
X96397435Y-81713629D01*
X97204496Y-81556247D01*
X97210314Y-81555254D01*
X97409077Y-81526078D01*
X98023846Y-81435838D01*
X98029663Y-81435122D01*
X98847922Y-81353927D01*
X98853779Y-81353484D01*
X99207626Y-81335045D01*
X99674922Y-81310694D01*
X99680821Y-81310525D01*
X100072165Y-81308481D01*
X100503063Y-81306231D01*
X100508925Y-81306338D01*
X100938624Y-81324232D01*
X101330494Y-81340551D01*
X101336383Y-81340935D01*
X102155406Y-81413577D01*
X102161270Y-81414236D01*
X102687432Y-81485865D01*
X102975985Y-81525147D01*
X102981796Y-81526077D01*
X103665858Y-81652072D01*
X103790473Y-81675024D01*
X103796250Y-81676229D01*
X104597029Y-81862871D01*
X104602743Y-81864345D01*
X105393899Y-82088276D01*
X105399539Y-82090016D01*
X106179353Y-82350751D01*
X106184904Y-82352753D01*
X106343731Y-82414267D01*
X106951642Y-82649712D01*
X106957070Y-82651961D01*
X107523539Y-82902457D01*
X107709104Y-82984515D01*
X107714444Y-82987028D01*
X108450063Y-83354423D01*
X108455229Y-83357155D01*
X109172854Y-83758601D01*
X109177904Y-83761583D01*
X109657274Y-84060043D01*
X109875950Y-84196193D01*
X109880885Y-84199429D01*
X110557762Y-84666213D01*
X110562541Y-84669676D01*
X111216855Y-85167670D01*
X111221458Y-85171347D01*
X111851747Y-85699442D01*
X111856129Y-85703291D01*
X112461005Y-86260326D01*
X112465219Y-86264392D01*
X112607630Y-86408433D01*
X113043332Y-86849123D01*
X113047382Y-86853416D01*
X113597462Y-87464553D01*
X113601306Y-87469030D01*
X114122179Y-88105269D01*
X114125809Y-88109922D01*
X114342055Y-88400858D01*
X114591678Y-88736699D01*
X114616303Y-88769830D01*
X114619706Y-88774640D01*
X115072174Y-89447004D01*
X115076088Y-89462034D01*
X115080190Y-89465404D01*
X115381230Y-89909494D01*
X115382247Y-89910834D01*
X115382253Y-89910842D01*
X115695002Y-90322813D01*
X115708687Y-90340840D01*
X115709793Y-90342145D01*
X115709800Y-90342154D01*
X115895331Y-90561114D01*
X116058786Y-90754020D01*
X116059957Y-90755261D01*
X116059969Y-90755274D01*
X116418754Y-91135382D01*
X116430520Y-91147847D01*
X116822822Y-91521192D01*
X117234565Y-91872980D01*
X117235899Y-91874002D01*
X117235906Y-91874007D01*
X117663223Y-92201174D01*
X117663234Y-92201182D01*
X117664565Y-92202201D01*
X118107422Y-92505060D01*
X118110772Y-92509173D01*
X118125447Y-92513059D01*
X118137258Y-92521168D01*
X118143403Y-92523977D01*
X123790250Y-96143655D01*
X123804529Y-96152808D01*
X123814951Y-96165601D01*
X123828870Y-96169287D01*
X123828942Y-96169370D01*
X123828980Y-96169316D01*
X124074577Y-96344983D01*
X124085353Y-96352691D01*
X124094803Y-96360159D01*
X124338347Y-96572328D01*
X124347045Y-96580671D01*
X124415866Y-96653315D01*
X124535867Y-96779983D01*
X124569177Y-96815144D01*
X124577039Y-96824282D01*
X124608578Y-96864701D01*
X124775728Y-97078911D01*
X124782684Y-97088764D01*
X124956125Y-97361235D01*
X124962108Y-97371708D01*
X125021741Y-97488785D01*
X125108130Y-97658390D01*
X125108699Y-97659508D01*
X125113650Y-97670501D01*
X125191640Y-97868435D01*
X125232049Y-97970990D01*
X125235928Y-97982410D01*
X125325060Y-98292863D01*
X125327829Y-98304596D01*
X125340426Y-98372355D01*
X125386863Y-98622130D01*
X125388498Y-98634079D01*
X125416905Y-98955819D01*
X125417389Y-98967871D01*
X125416376Y-99099410D01*
X125415782Y-99176657D01*
X125415070Y-99269093D01*
X125414929Y-99270031D01*
X125414983Y-99272335D01*
X125415014Y-99276272D01*
X125414962Y-99283056D01*
X125409718Y-99296588D01*
X125410824Y-99300770D01*
X125409585Y-99304914D01*
X125414630Y-99319279D01*
X125414237Y-99326351D01*
X125414959Y-99331725D01*
X125421322Y-100076240D01*
X125421401Y-100085542D01*
X125421377Y-100089311D01*
X125404545Y-100867351D01*
X125404529Y-100868112D01*
X125404389Y-100871898D01*
X125368511Y-101563860D01*
X125364057Y-101649752D01*
X125363804Y-101653532D01*
X125340731Y-101934349D01*
X125300017Y-102429860D01*
X125299648Y-102433644D01*
X125212476Y-103207626D01*
X125211994Y-103211397D01*
X125129323Y-103788318D01*
X125103383Y-103969341D01*
X125102700Y-103969243D01*
X125102766Y-103970551D01*
X125096154Y-103983517D01*
X125098525Y-103998520D01*
X125095378Y-104015249D01*
X125095297Y-104019338D01*
X123867165Y-111266130D01*
X123859864Y-111278879D01*
X123861027Y-111289584D01*
X123860086Y-111291341D01*
X123861257Y-111291703D01*
X123818577Y-111429608D01*
X123816675Y-111435752D01*
X123807572Y-111457629D01*
X123736608Y-111591160D01*
X123723570Y-111610945D01*
X123628868Y-111728821D01*
X123612356Y-111745817D01*
X123497251Y-111843884D01*
X123477849Y-111857487D01*
X123346417Y-111932270D01*
X123324813Y-111941999D01*
X123181709Y-111990850D01*
X123158670Y-111996361D01*
X123008944Y-112017557D01*
X122985283Y-112018658D01*
X122834659Y-112011466D01*
X122834658Y-112011466D01*
X122834702Y-112010539D01*
X122833149Y-112010725D01*
X122823076Y-112005784D01*
X122807908Y-112008423D01*
X121366881Y-111766460D01*
X118423547Y-111272244D01*
X118359679Y-111241238D01*
X118322713Y-111180625D01*
X118324386Y-111109648D01*
X118364166Y-111050842D01*
X118396195Y-111031575D01*
X118411795Y-111025113D01*
X118411797Y-111025112D01*
X118419428Y-111021951D01*
X118511811Y-110951063D01*
X118511813Y-110951061D01*
X118511937Y-110950966D01*
X118536233Y-110932323D01*
X118542779Y-110927300D01*
X118561519Y-110902878D01*
X118572386Y-110890488D01*
X120166877Y-109295997D01*
X121055824Y-109295997D01*
X121056902Y-109302960D01*
X121056902Y-109302961D01*
X121071473Y-109397080D01*
X121083299Y-109473474D01*
X121149411Y-109640453D01*
X121250873Y-109788636D01*
X121382645Y-109910658D01*
X121388742Y-109914178D01*
X121388746Y-109914181D01*
X121520677Y-109990350D01*
X121538176Y-110000453D01*
X121577514Y-110012630D01*
X121667953Y-110040626D01*
X121667960Y-110040628D01*
X121671731Y-110041795D01*
X122307791Y-110153949D01*
X122311300Y-110154170D01*
X122311302Y-110154170D01*
X122346860Y-110156407D01*
X122441679Y-110162372D01*
X122448637Y-110161245D01*
X122448638Y-110161245D01*
X122612007Y-110134785D01*
X122618959Y-110133659D01*
X122625487Y-110131022D01*
X122625489Y-110131021D01*
X122778941Y-110069022D01*
X122778940Y-110069022D01*
X122785473Y-110066383D01*
X122792872Y-110061241D01*
X122927161Y-109967907D01*
X122932944Y-109963888D01*
X123054043Y-109831267D01*
X123142750Y-109675114D01*
X123153215Y-109640453D01*
X123192620Y-109509936D01*
X123192620Y-109509933D01*
X123194657Y-109503188D01*
X123196278Y-109480019D01*
X123206110Y-109339404D01*
X123207185Y-109324035D01*
X123202845Y-109295997D01*
X123180787Y-109153515D01*
X123179710Y-109146558D01*
X123113598Y-108979579D01*
X123019619Y-108842326D01*
X123016114Y-108837207D01*
X123016113Y-108837206D01*
X123012135Y-108831396D01*
X122880364Y-108709375D01*
X122874270Y-108705856D01*
X122874265Y-108705853D01*
X122730937Y-108623103D01*
X122730936Y-108623103D01*
X122724833Y-108619579D01*
X122671372Y-108603030D01*
X122595056Y-108579406D01*
X122595049Y-108579404D01*
X122591278Y-108578237D01*
X121955218Y-108466083D01*
X121951709Y-108465862D01*
X121951707Y-108465862D01*
X121916084Y-108463621D01*
X121821329Y-108457660D01*
X121814371Y-108458787D01*
X121814370Y-108458787D01*
X121651304Y-108485198D01*
X121644049Y-108486373D01*
X121637521Y-108489010D01*
X121637519Y-108489011D01*
X121522910Y-108535316D01*
X121477535Y-108553649D01*
X121471754Y-108557667D01*
X121471752Y-108557668D01*
X121424266Y-108590672D01*
X121330065Y-108656144D01*
X121208966Y-108788765D01*
X121120258Y-108944918D01*
X121068352Y-109116844D01*
X121055824Y-109295997D01*
X120166877Y-109295997D01*
X121457758Y-108005116D01*
X121520070Y-107971090D01*
X121590885Y-107976155D01*
X121608602Y-107984380D01*
X121640734Y-108002448D01*
X121671273Y-108010860D01*
X123008316Y-108246616D01*
X123024383Y-108247909D01*
X123032234Y-108248541D01*
X123032235Y-108248541D01*
X123039890Y-108249157D01*
X123154948Y-108230213D01*
X123164259Y-108228680D01*
X123164260Y-108228680D01*
X123173557Y-108227149D01*
X123294843Y-108166809D01*
X123375573Y-108090066D01*
X123386198Y-108079966D01*
X123386199Y-108079965D01*
X123393026Y-108073475D01*
X123398056Y-108064531D01*
X123454823Y-107963579D01*
X123459424Y-107955397D01*
X123464748Y-107936069D01*
X123467047Y-107927723D01*
X123467048Y-107927720D01*
X123467836Y-107924858D01*
X123589415Y-107235345D01*
X123607569Y-107132387D01*
X123607569Y-107132385D01*
X123608085Y-107129460D01*
X123609065Y-107117290D01*
X123610010Y-107105541D01*
X123610010Y-107105540D01*
X123610626Y-107097885D01*
X123593663Y-106994860D01*
X123590148Y-106973509D01*
X123590147Y-106973506D01*
X123588618Y-106964219D01*
X123528278Y-106842932D01*
X123434944Y-106744749D01*
X123316866Y-106678352D01*
X123286327Y-106669940D01*
X121949284Y-106434184D01*
X121930964Y-106432710D01*
X121925366Y-106432259D01*
X121925365Y-106432259D01*
X121917710Y-106431643D01*
X121856373Y-106441742D01*
X121793341Y-106452120D01*
X121793340Y-106452120D01*
X121784043Y-106453651D01*
X121662757Y-106513991D01*
X121655932Y-106520479D01*
X121576413Y-106596071D01*
X121564574Y-106607325D01*
X121525781Y-106676313D01*
X121520526Y-106685658D01*
X121469703Y-106735231D01*
X121410699Y-106749900D01*
X121334339Y-106749900D01*
X121317892Y-106748822D01*
X121295569Y-106745883D01*
X121287381Y-106744805D01*
X121248682Y-106749900D01*
X121248677Y-106749900D01*
X121141418Y-106764021D01*
X121133230Y-106765099D01*
X121059837Y-106795500D01*
X120989583Y-106824600D01*
X120942462Y-106860757D01*
X120897200Y-106895488D01*
X120897198Y-106895490D01*
X120876043Y-106911723D01*
X120866232Y-106919251D01*
X120861206Y-106925801D01*
X120861203Y-106925804D01*
X120847496Y-106943668D01*
X120836629Y-106956059D01*
X117913942Y-109878746D01*
X117851630Y-109912772D01*
X117824847Y-109915651D01*
X114229207Y-109915651D01*
X114212760Y-109914573D01*
X114190437Y-109911634D01*
X114182249Y-109910556D01*
X114143550Y-109915651D01*
X114143545Y-109915651D01*
X114036284Y-109929772D01*
X114036282Y-109929773D01*
X114028098Y-109930850D01*
X113977661Y-109951742D01*
X113884451Y-109990350D01*
X113877901Y-109995376D01*
X113792068Y-110061239D01*
X113792066Y-110061241D01*
X113781926Y-110069022D01*
X113761100Y-110085002D01*
X113756074Y-110091552D01*
X113756071Y-110091555D01*
X113742364Y-110109419D01*
X113731497Y-110121810D01*
X108091012Y-115762295D01*
X108028700Y-115796321D01*
X108001917Y-115799200D01*
X105591277Y-115799200D01*
X105574831Y-115798122D01*
X105475888Y-115785096D01*
X105467700Y-115784018D01*
X105310938Y-115804656D01*
X105164859Y-115865164D01*
X105039418Y-115961418D01*
X104943164Y-116086859D01*
X104882656Y-116232938D01*
X104862018Y-116389700D01*
X104882656Y-116546462D01*
X104943164Y-116692541D01*
X105039418Y-116817982D01*
X105164859Y-116914236D01*
X105310938Y-116974744D01*
X105467700Y-116995382D01*
X105475888Y-116994304D01*
X105574831Y-116981278D01*
X105591277Y-116980200D01*
X107693498Y-116980200D01*
X107761619Y-117000202D01*
X107808112Y-117053858D01*
X107818216Y-117124132D01*
X107788722Y-117188712D01*
X107747225Y-117220171D01*
X107232342Y-117462889D01*
X107227001Y-117465257D01*
X106466094Y-117781722D01*
X106460649Y-117783840D01*
X105685882Y-118064696D01*
X105680345Y-118066559D01*
X105352859Y-118168366D01*
X104893398Y-118311200D01*
X104887810Y-118312797D01*
X104202035Y-118491585D01*
X104090333Y-118520707D01*
X104084647Y-118522049D01*
X103278426Y-118692762D01*
X103272684Y-118693839D01*
X102691674Y-118788970D01*
X102459417Y-118826998D01*
X102453649Y-118827806D01*
X101879335Y-118894682D01*
X101635073Y-118923125D01*
X101629256Y-118923666D01*
X101478518Y-118934168D01*
X100807142Y-118980941D01*
X100801336Y-118981210D01*
X100328241Y-118992181D01*
X99977441Y-119000315D01*
X99971599Y-119000315D01*
X99620816Y-118992181D01*
X99147705Y-118981210D01*
X99141899Y-118980941D01*
X98470231Y-118934147D01*
X98319784Y-118923666D01*
X98313967Y-118923125D01*
X98069706Y-118894682D01*
X97495392Y-118827806D01*
X97489630Y-118826999D01*
X97073179Y-118758812D01*
X96676356Y-118693838D01*
X96670615Y-118692761D01*
X95864394Y-118522048D01*
X95858708Y-118520706D01*
X95741103Y-118490046D01*
X95061229Y-118312797D01*
X95055642Y-118311200D01*
X94596402Y-118168435D01*
X94268696Y-118066559D01*
X94263159Y-118064696D01*
X93488392Y-117783839D01*
X93482947Y-117781721D01*
X92722040Y-117465256D01*
X92716700Y-117462888D01*
X91971273Y-117111491D01*
X91966047Y-117108878D01*
X91237716Y-116723308D01*
X91232618Y-116720456D01*
X90686161Y-116397888D01*
X90522938Y-116301539D01*
X90517999Y-116298468D01*
X89828445Y-115847069D01*
X89823668Y-115843780D01*
X89325624Y-115483700D01*
X89155845Y-115360951D01*
X89151191Y-115357420D01*
X88570831Y-114895396D01*
X88506435Y-114844130D01*
X88501952Y-114840388D01*
X88449959Y-114794903D01*
X88168566Y-114548735D01*
X87881715Y-114297792D01*
X87877408Y-114293845D01*
X87282964Y-113723059D01*
X87278846Y-113718916D01*
X86711507Y-113121199D01*
X86707584Y-113116869D01*
X86176326Y-112502476D01*
X86176972Y-112501918D01*
X86175712Y-112500921D01*
X86170624Y-112488017D01*
X86168163Y-112486451D01*
X85921227Y-112214008D01*
X85917130Y-112210256D01*
X85650146Y-111965813D01*
X85650144Y-111965812D01*
X85647980Y-111963830D01*
X85352656Y-111740143D01*
X85350163Y-111738597D01*
X85350153Y-111738590D01*
X85040303Y-111546427D01*
X85040299Y-111546425D01*
X85037813Y-111544883D01*
X85035203Y-111543583D01*
X85035197Y-111543580D01*
X84708805Y-111381051D01*
X84708803Y-111381050D01*
X84706178Y-111379743D01*
X84694427Y-111375200D01*
X84363361Y-111247211D01*
X84363355Y-111247209D01*
X84360626Y-111246154D01*
X84155880Y-111188212D01*
X84006970Y-111146071D01*
X84006963Y-111146069D01*
X84004149Y-111145273D01*
X83774481Y-111102846D01*
X83642708Y-111078503D01*
X83642700Y-111078502D01*
X83639837Y-111077973D01*
X83636933Y-111077712D01*
X83636924Y-111077711D01*
X83273778Y-111045102D01*
X83273770Y-111045102D01*
X83270845Y-111044839D01*
X83267909Y-111044849D01*
X83267899Y-111044849D01*
X83065304Y-111045570D01*
X82903148Y-111046147D01*
X82900333Y-111045386D01*
X82881687Y-111052496D01*
X82877497Y-111052706D01*
X82866998Y-111055585D01*
X80424995Y-111477196D01*
X77472284Y-111986980D01*
X77468151Y-111987138D01*
X77454683Y-111989745D01*
X77436651Y-111988037D01*
X77427016Y-111993733D01*
X77425004Y-111993542D01*
X77425182Y-111994817D01*
X77267037Y-112016903D01*
X77246694Y-112018080D01*
X77165633Y-112016198D01*
X77084576Y-112014315D01*
X77064301Y-112012195D01*
X76904907Y-111982335D01*
X76885239Y-111976972D01*
X76777949Y-111938153D01*
X76732753Y-111921800D01*
X76714219Y-111913342D01*
X76572621Y-111834298D01*
X76555682Y-111822954D01*
X76428687Y-111722112D01*
X76413800Y-111708185D01*
X76304730Y-111588185D01*
X76292283Y-111572038D01*
X76203994Y-111436019D01*
X76194315Y-111418078D01*
X76149794Y-111316692D01*
X76129116Y-111269601D01*
X76122457Y-111250337D01*
X76122429Y-111250226D01*
X76082675Y-111095697D01*
X76084975Y-111095105D01*
X76083311Y-111091290D01*
X76084579Y-111082510D01*
X76077501Y-111069078D01*
X76075158Y-111052715D01*
X76073761Y-111048347D01*
X75617186Y-108266285D01*
X76998574Y-108266285D01*
X77001114Y-108297859D01*
X77001626Y-108300764D01*
X77001627Y-108300770D01*
X77050759Y-108579406D01*
X77141365Y-109093257D01*
X77149776Y-109123797D01*
X77153539Y-109130490D01*
X77153540Y-109130491D01*
X77180964Y-109179259D01*
X77216174Y-109241875D01*
X77314357Y-109335209D01*
X77435643Y-109395549D01*
X77444940Y-109397080D01*
X77444941Y-109397080D01*
X77495955Y-109405479D01*
X77569310Y-109417557D01*
X77600883Y-109415017D01*
X77603788Y-109414505D01*
X77603794Y-109414504D01*
X78275875Y-109295997D01*
X78937926Y-109179259D01*
X78940786Y-109178471D01*
X78940792Y-109178470D01*
X78961062Y-109172887D01*
X78961061Y-109172887D01*
X78968466Y-109170848D01*
X79086544Y-109104451D01*
X79179878Y-109006268D01*
X79240218Y-108884981D01*
X79243626Y-108864287D01*
X79257928Y-108777420D01*
X79262226Y-108751315D01*
X79259686Y-108719741D01*
X79253893Y-108686884D01*
X79180907Y-108272965D01*
X79119435Y-107924343D01*
X79111024Y-107893803D01*
X79106650Y-107886025D01*
X79049244Y-107783937D01*
X79049243Y-107783936D01*
X79044626Y-107775725D01*
X78979478Y-107713794D01*
X78953268Y-107688879D01*
X78946443Y-107682391D01*
X78825157Y-107622051D01*
X78815860Y-107620520D01*
X78815859Y-107620520D01*
X78715966Y-107604073D01*
X78691490Y-107600043D01*
X78659917Y-107602583D01*
X78657012Y-107603095D01*
X78657006Y-107603096D01*
X78102108Y-107700940D01*
X77322874Y-107838341D01*
X77320014Y-107839129D01*
X77320008Y-107839130D01*
X77313502Y-107840922D01*
X77292334Y-107846752D01*
X77174256Y-107913149D01*
X77167767Y-107919975D01*
X77133650Y-107955865D01*
X77080922Y-108011332D01*
X77020582Y-108132619D01*
X77019053Y-108141906D01*
X77019052Y-108141909D01*
X77008048Y-108208746D01*
X76998574Y-108266285D01*
X75617186Y-108266285D01*
X75334202Y-106541969D01*
X76707973Y-106541969D01*
X76708366Y-106548998D01*
X76715809Y-106682117D01*
X76717998Y-106721279D01*
X76719939Y-106728048D01*
X76757993Y-106860757D01*
X76767500Y-106893913D01*
X76770892Y-106900083D01*
X76770894Y-106900088D01*
X76799543Y-106952200D01*
X76854018Y-107051290D01*
X76858693Y-107056556D01*
X76858694Y-107056557D01*
X76968578Y-107180323D01*
X76968581Y-107180325D01*
X76973253Y-107185588D01*
X76978976Y-107189686D01*
X76978978Y-107189687D01*
X77011663Y-107213087D01*
X77119278Y-107290132D01*
X77284837Y-107359727D01*
X77291767Y-107360949D01*
X77454768Y-107389691D01*
X77454771Y-107389691D01*
X77461700Y-107390913D01*
X77601340Y-107384083D01*
X78237400Y-107271929D01*
X78304692Y-107252124D01*
X78359335Y-107236042D01*
X78359338Y-107236041D01*
X78366095Y-107234052D01*
X78372247Y-107230614D01*
X78372249Y-107230613D01*
X78522864Y-107146437D01*
X78524435Y-107149248D01*
X78585369Y-107129684D01*
X80327262Y-107129684D01*
X80343709Y-107130762D01*
X80374220Y-107134779D01*
X80412919Y-107129684D01*
X80412924Y-107129684D01*
X80520185Y-107115563D01*
X80520187Y-107115562D01*
X80528371Y-107114485D01*
X80651760Y-107063375D01*
X80672018Y-107054984D01*
X80764401Y-106984096D01*
X80764403Y-106984094D01*
X80768615Y-106980862D01*
X80788818Y-106965360D01*
X80788819Y-106965359D01*
X80795369Y-106960333D01*
X80800395Y-106953783D01*
X80800398Y-106953780D01*
X80814105Y-106935916D01*
X80824972Y-106923525D01*
X82631812Y-105116685D01*
X83297774Y-105116685D01*
X83300314Y-105148259D01*
X83300826Y-105151164D01*
X83300827Y-105151170D01*
X83340826Y-105378015D01*
X83440565Y-105943657D01*
X83448976Y-105974197D01*
X83452739Y-105980890D01*
X83452740Y-105980891D01*
X83510444Y-106083507D01*
X83515374Y-106092275D01*
X83522201Y-106098765D01*
X83522202Y-106098766D01*
X83540739Y-106116387D01*
X83613557Y-106185609D01*
X83734843Y-106245949D01*
X83744140Y-106247480D01*
X83744141Y-106247480D01*
X83765405Y-106250981D01*
X83868510Y-106267957D01*
X83900083Y-106265417D01*
X83902988Y-106264905D01*
X83902994Y-106264904D01*
X84567578Y-106147719D01*
X85237126Y-106029659D01*
X85239986Y-106028871D01*
X85239992Y-106028870D01*
X85260262Y-106023287D01*
X85260261Y-106023287D01*
X85267666Y-106021248D01*
X85282968Y-106012644D01*
X85352147Y-105996690D01*
X85418971Y-106020670D01*
X85462222Y-106076972D01*
X85468168Y-106147719D01*
X85433819Y-106211566D01*
X85203643Y-106441742D01*
X85141331Y-106475768D01*
X85106633Y-106478398D01*
X85105239Y-106478310D01*
X85098301Y-106477087D01*
X84958660Y-106483917D01*
X84322600Y-106596071D01*
X84267120Y-106612400D01*
X84200665Y-106631958D01*
X84200662Y-106631959D01*
X84193905Y-106633948D01*
X84187754Y-106637386D01*
X84187751Y-106637387D01*
X84107717Y-106682117D01*
X84037137Y-106721563D01*
X83903674Y-106841733D01*
X83865753Y-106895490D01*
X83810310Y-106974087D01*
X83800153Y-106988485D01*
X83797471Y-106994993D01*
X83797470Y-106994994D01*
X83734933Y-107146721D01*
X83731716Y-107154525D01*
X83701765Y-107331601D01*
X83711790Y-107510911D01*
X83713731Y-107517680D01*
X83747695Y-107636125D01*
X83761292Y-107683545D01*
X83764684Y-107689715D01*
X83764686Y-107689720D01*
X83806165Y-107765170D01*
X83847810Y-107840922D01*
X83852485Y-107846188D01*
X83852486Y-107846189D01*
X83962370Y-107969955D01*
X83962373Y-107969957D01*
X83967045Y-107975220D01*
X83972768Y-107979318D01*
X83972770Y-107979319D01*
X84017544Y-108011374D01*
X84113070Y-108079764D01*
X84278629Y-108149359D01*
X84285559Y-108150581D01*
X84448560Y-108179323D01*
X84448563Y-108179323D01*
X84455492Y-108180545D01*
X84595132Y-108173715D01*
X85231192Y-108061561D01*
X85296527Y-108042332D01*
X85353127Y-108025674D01*
X85353130Y-108025673D01*
X85359887Y-108023684D01*
X85366039Y-108020246D01*
X85366041Y-108020245D01*
X85460998Y-107967175D01*
X85516656Y-107936069D01*
X85611671Y-107850517D01*
X85644883Y-107820613D01*
X85644885Y-107820611D01*
X85650118Y-107815899D01*
X85733842Y-107697213D01*
X85749578Y-107674906D01*
X85749580Y-107674903D01*
X85753640Y-107669147D01*
X85822077Y-107503107D01*
X85823832Y-107492734D01*
X85841260Y-107389691D01*
X85852027Y-107326031D01*
X85849191Y-107275296D01*
X85842395Y-107153750D01*
X85842002Y-107146721D01*
X85831675Y-107110704D01*
X85794444Y-106980862D01*
X85794443Y-106980859D01*
X85792501Y-106974087D01*
X85766934Y-106927581D01*
X85751645Y-106858250D01*
X85776265Y-106791660D01*
X85788254Y-106777785D01*
X86394914Y-106171125D01*
X86457226Y-106137099D01*
X86484009Y-106134220D01*
X92215370Y-106134220D01*
X92226352Y-106134700D01*
X92252900Y-106137023D01*
X92252902Y-106137023D01*
X92263887Y-106137984D01*
X92300295Y-106128228D01*
X92311022Y-106125850D01*
X92314381Y-106125258D01*
X92348125Y-106119308D01*
X92357670Y-106113797D01*
X92360946Y-106112605D01*
X92364114Y-106111128D01*
X92374764Y-106108274D01*
X92405624Y-106086665D01*
X92414895Y-106080759D01*
X92437986Y-106067427D01*
X92447535Y-106061914D01*
X92471765Y-106033037D01*
X92479191Y-106024935D01*
X94140894Y-104363232D01*
X97914400Y-104363232D01*
X97914685Y-104369208D01*
X97928871Y-104517894D01*
X97931130Y-104529628D01*
X97987272Y-104720999D01*
X97991702Y-104732075D01*
X98083019Y-104909378D01*
X98089469Y-104919424D01*
X98212662Y-105076257D01*
X98220899Y-105084906D01*
X98371523Y-105215612D01*
X98381247Y-105222547D01*
X98553867Y-105322410D01*
X98564731Y-105327384D01*
X98753127Y-105392807D01*
X98754116Y-105393048D01*
X98764408Y-105391580D01*
X98768400Y-105378015D01*
X98768400Y-105373802D01*
X99276400Y-105373802D01*
X99280373Y-105387333D01*
X99289799Y-105388688D01*
X99378937Y-105367206D01*
X99390232Y-105363317D01*
X99571782Y-105280771D01*
X99582124Y-105274824D01*
X99744797Y-105159432D01*
X99753825Y-105151639D01*
X99891742Y-105007569D01*
X99899138Y-104998204D01*
X100007321Y-104830659D01*
X100012815Y-104820058D01*
X100070351Y-104677295D01*
X100114366Y-104621589D01*
X100181511Y-104598523D01*
X100250468Y-104615420D01*
X100294076Y-104662622D01*
X100295915Y-104661473D01*
X100391084Y-104813775D01*
X100404687Y-104827473D01*
X100512667Y-104936210D01*
X100512671Y-104936213D01*
X100517630Y-104941207D01*
X100523576Y-104944981D01*
X100523578Y-104944982D01*
X100570235Y-104974591D01*
X100669264Y-105037437D01*
X100689290Y-105044568D01*
X100831814Y-105095319D01*
X100831819Y-105095320D01*
X100838449Y-105097681D01*
X100845435Y-105098514D01*
X100845439Y-105098515D01*
X100972127Y-105113621D01*
X101016776Y-105118945D01*
X101023779Y-105118209D01*
X101023780Y-105118209D01*
X101188375Y-105100910D01*
X101188379Y-105100909D01*
X101195383Y-105100173D01*
X101265636Y-105076257D01*
X101358723Y-105044568D01*
X101358726Y-105044567D01*
X101365393Y-105042297D01*
X101379368Y-105033700D01*
X101469940Y-104977979D01*
X101518355Y-104948194D01*
X101523386Y-104943268D01*
X101523389Y-104943265D01*
X101638378Y-104830659D01*
X101646668Y-104822541D01*
X101652318Y-104813775D01*
X101714534Y-104717234D01*
X102221900Y-104717234D01*
X102224881Y-104748769D01*
X102269766Y-104876584D01*
X102275358Y-104884154D01*
X102275359Y-104884157D01*
X102331409Y-104960042D01*
X102350250Y-104985550D01*
X102357821Y-104991142D01*
X102451643Y-105060441D01*
X102451646Y-105060442D01*
X102459216Y-105066034D01*
X102587031Y-105110919D01*
X102594677Y-105111642D01*
X102594678Y-105111642D01*
X102600648Y-105112206D01*
X102618566Y-105113900D01*
X103426234Y-105113900D01*
X103444152Y-105112206D01*
X103450122Y-105111642D01*
X103450123Y-105111642D01*
X103457769Y-105110919D01*
X103585584Y-105066034D01*
X103593154Y-105060442D01*
X103593157Y-105060441D01*
X103686979Y-104991142D01*
X103694550Y-104985550D01*
X103713391Y-104960042D01*
X103769441Y-104884157D01*
X103769442Y-104884154D01*
X103775034Y-104876584D01*
X103819919Y-104748769D01*
X103822900Y-104717234D01*
X103822900Y-103359566D01*
X103819919Y-103328031D01*
X103775034Y-103200216D01*
X103769442Y-103192646D01*
X103769441Y-103192643D01*
X103700142Y-103098821D01*
X103694550Y-103091250D01*
X103657731Y-103064055D01*
X103593157Y-103016359D01*
X103593154Y-103016358D01*
X103585584Y-103010766D01*
X103457769Y-102965881D01*
X103450123Y-102965158D01*
X103450122Y-102965158D01*
X103444152Y-102964594D01*
X103426234Y-102962900D01*
X102618566Y-102962900D01*
X102600648Y-102964594D01*
X102594678Y-102965158D01*
X102594677Y-102965158D01*
X102587031Y-102965881D01*
X102459216Y-103010766D01*
X102451646Y-103016358D01*
X102451643Y-103016359D01*
X102387069Y-103064055D01*
X102350250Y-103091250D01*
X102344658Y-103098821D01*
X102275359Y-103192643D01*
X102275358Y-103192646D01*
X102269766Y-103200216D01*
X102224881Y-103328031D01*
X102221900Y-103359566D01*
X102221900Y-104717234D01*
X101714534Y-104717234D01*
X101740135Y-104677509D01*
X101743954Y-104671583D01*
X101757511Y-104634337D01*
X101802970Y-104509439D01*
X101802971Y-104509436D01*
X101805378Y-104502822D01*
X101819125Y-104394000D01*
X101822404Y-104368045D01*
X101822404Y-104368042D01*
X101822900Y-104364117D01*
X101822900Y-103718245D01*
X101807946Y-103584928D01*
X101748885Y-103415327D01*
X101743891Y-103407334D01*
X101657449Y-103268999D01*
X101653716Y-103263025D01*
X101580401Y-103189197D01*
X101532133Y-103140590D01*
X101532129Y-103140587D01*
X101527170Y-103135593D01*
X101516161Y-103128606D01*
X101448485Y-103085658D01*
X101375536Y-103039363D01*
X101312343Y-103016861D01*
X101212986Y-102981481D01*
X101212981Y-102981480D01*
X101206351Y-102979119D01*
X101199365Y-102978286D01*
X101199361Y-102978285D01*
X101070333Y-102962900D01*
X101028024Y-102957855D01*
X101021021Y-102958591D01*
X101021020Y-102958591D01*
X100856425Y-102975890D01*
X100856421Y-102975891D01*
X100849417Y-102976627D01*
X100842746Y-102978898D01*
X100686077Y-103032232D01*
X100686074Y-103032233D01*
X100679407Y-103034503D01*
X100673409Y-103038193D01*
X100673407Y-103038194D01*
X100619851Y-103071142D01*
X100526445Y-103128606D01*
X100521414Y-103133532D01*
X100521411Y-103133535D01*
X100497066Y-103157376D01*
X100398132Y-103254259D01*
X100394313Y-103260184D01*
X100394312Y-103260186D01*
X100373035Y-103293202D01*
X100300846Y-103405217D01*
X100299585Y-103408681D01*
X100252281Y-103459827D01*
X100183548Y-103477613D01*
X100116111Y-103455415D01*
X100071380Y-103400282D01*
X100066724Y-103387147D01*
X100057529Y-103355803D01*
X100053098Y-103344725D01*
X99961781Y-103167422D01*
X99955331Y-103157376D01*
X99832138Y-103000543D01*
X99823901Y-102991894D01*
X99673277Y-102861188D01*
X99663553Y-102854253D01*
X99490933Y-102754390D01*
X99480069Y-102749416D01*
X99291673Y-102683993D01*
X99290684Y-102683752D01*
X99280392Y-102685220D01*
X99276400Y-102698785D01*
X99276400Y-105373802D01*
X98768400Y-105373802D01*
X98768400Y-104310515D01*
X98763925Y-104295276D01*
X98762535Y-104294071D01*
X98754852Y-104292400D01*
X97932515Y-104292400D01*
X97917276Y-104296875D01*
X97916071Y-104298265D01*
X97914400Y-104305948D01*
X97914400Y-104363232D01*
X94140894Y-104363232D01*
X94737841Y-103766285D01*
X97914400Y-103766285D01*
X97918875Y-103781524D01*
X97920265Y-103782729D01*
X97927948Y-103784400D01*
X98750285Y-103784400D01*
X98765524Y-103779925D01*
X98766729Y-103778535D01*
X98768400Y-103770852D01*
X98768400Y-102702998D01*
X98764427Y-102689467D01*
X98755001Y-102688112D01*
X98665863Y-102709594D01*
X98654568Y-102713483D01*
X98473018Y-102796029D01*
X98462676Y-102801976D01*
X98300003Y-102917368D01*
X98290975Y-102925161D01*
X98153058Y-103069231D01*
X98145662Y-103078596D01*
X98037479Y-103246141D01*
X98031983Y-103256745D01*
X97957439Y-103441712D01*
X97954045Y-103453170D01*
X97915543Y-103650328D01*
X97914466Y-103659191D01*
X97914400Y-103661900D01*
X97914400Y-103766285D01*
X94737841Y-103766285D01*
X98170321Y-100333805D01*
X98232633Y-100299779D01*
X98259416Y-100296900D01*
X98461250Y-100296900D01*
X98529371Y-100316902D01*
X98573316Y-100365306D01*
X98636776Y-100488785D01*
X98752559Y-100634868D01*
X98757252Y-100638862D01*
X98757253Y-100638863D01*
X98758440Y-100639873D01*
X98894512Y-100755679D01*
X98899890Y-100758685D01*
X98899892Y-100758686D01*
X98975870Y-100801148D01*
X99057227Y-100846617D01*
X99234507Y-100904219D01*
X99419598Y-100926290D01*
X99425733Y-100925818D01*
X99425735Y-100925818D01*
X99599310Y-100912462D01*
X99599315Y-100912461D01*
X99605451Y-100911989D01*
X99611381Y-100910333D01*
X99611383Y-100910333D01*
X99748995Y-100871911D01*
X99784987Y-100861862D01*
X99951368Y-100777817D01*
X99975855Y-100758686D01*
X100093394Y-100666854D01*
X100093395Y-100666853D01*
X100098255Y-100663056D01*
X100204733Y-100539700D01*
X100216030Y-100526612D01*
X100216031Y-100526611D01*
X100220054Y-100521950D01*
X100312126Y-100359874D01*
X100370964Y-100183001D01*
X100382865Y-100088800D01*
X100393885Y-100001570D01*
X100393886Y-100001563D01*
X100394327Y-99998068D01*
X100394699Y-99971400D01*
X100393391Y-99958065D01*
X101484594Y-99958065D01*
X101485110Y-99964209D01*
X101498328Y-100121612D01*
X101500192Y-100143814D01*
X101501891Y-100149739D01*
X101549824Y-100316902D01*
X101551571Y-100322995D01*
X101636776Y-100488785D01*
X101752559Y-100634868D01*
X101757252Y-100638862D01*
X101757253Y-100638863D01*
X101758440Y-100639873D01*
X101894512Y-100755679D01*
X101899890Y-100758685D01*
X101899892Y-100758686D01*
X101975870Y-100801148D01*
X102057227Y-100846617D01*
X102234507Y-100904219D01*
X102419598Y-100926290D01*
X102425733Y-100925818D01*
X102425735Y-100925818D01*
X102599310Y-100912462D01*
X102599315Y-100912461D01*
X102605451Y-100911989D01*
X102611381Y-100910333D01*
X102611383Y-100910333D01*
X102748995Y-100871911D01*
X102784987Y-100861862D01*
X102951368Y-100777817D01*
X102975855Y-100758686D01*
X103093394Y-100666854D01*
X103093395Y-100666853D01*
X103098255Y-100663056D01*
X103204733Y-100539700D01*
X103216030Y-100526612D01*
X103216031Y-100526611D01*
X103220054Y-100521950D01*
X103312126Y-100359874D01*
X103370964Y-100183001D01*
X103382865Y-100088800D01*
X103393885Y-100001570D01*
X103393886Y-100001563D01*
X103394327Y-99998068D01*
X103394699Y-99971400D01*
X103376509Y-99785887D01*
X103374728Y-99779988D01*
X103374727Y-99779983D01*
X103324414Y-99613339D01*
X103322633Y-99607440D01*
X103235122Y-99442856D01*
X103231232Y-99438086D01*
X103231229Y-99438082D01*
X103121205Y-99303180D01*
X103121202Y-99303177D01*
X103117310Y-99298405D01*
X103111656Y-99293727D01*
X103018555Y-99216707D01*
X102973685Y-99179587D01*
X102809716Y-99090929D01*
X102698928Y-99056635D01*
X102637536Y-99037631D01*
X102637533Y-99037630D01*
X102631649Y-99035809D01*
X102625524Y-99035165D01*
X102625523Y-99035165D01*
X102452396Y-99016968D01*
X102452395Y-99016968D01*
X102446268Y-99016324D01*
X102368149Y-99023433D01*
X102266771Y-99032659D01*
X102266768Y-99032660D01*
X102260632Y-99033218D01*
X102254722Y-99034957D01*
X102254719Y-99034958D01*
X102119959Y-99074621D01*
X102081814Y-99085848D01*
X101916623Y-99172207D01*
X101771352Y-99289008D01*
X101651535Y-99431801D01*
X101648571Y-99437193D01*
X101648568Y-99437197D01*
X101587199Y-99548828D01*
X101561735Y-99595146D01*
X101559874Y-99601013D01*
X101559873Y-99601015D01*
X101541511Y-99658899D01*
X101505372Y-99772824D01*
X101484594Y-99958065D01*
X100393391Y-99958065D01*
X100376509Y-99785887D01*
X100374728Y-99779988D01*
X100374727Y-99779983D01*
X100324414Y-99613339D01*
X100322633Y-99607440D01*
X100235122Y-99442856D01*
X100231232Y-99438086D01*
X100231229Y-99438082D01*
X100121205Y-99303180D01*
X100121202Y-99303177D01*
X100117310Y-99298405D01*
X100111656Y-99293727D01*
X100018555Y-99216707D01*
X99973685Y-99179587D01*
X99809716Y-99090929D01*
X99698928Y-99056635D01*
X99637536Y-99037631D01*
X99637533Y-99037630D01*
X99631649Y-99035809D01*
X99625524Y-99035165D01*
X99625523Y-99035165D01*
X99452396Y-99016968D01*
X99452395Y-99016968D01*
X99446268Y-99016324D01*
X99368149Y-99023433D01*
X99266771Y-99032659D01*
X99266768Y-99032660D01*
X99260632Y-99033218D01*
X99254722Y-99034957D01*
X99254719Y-99034958D01*
X99119959Y-99074621D01*
X99081814Y-99085848D01*
X98916623Y-99172207D01*
X98771352Y-99289008D01*
X98651535Y-99431801D01*
X98648569Y-99437197D01*
X98648563Y-99437205D01*
X98569730Y-99580601D01*
X98519385Y-99630660D01*
X98459316Y-99645900D01*
X98092113Y-99645900D01*
X98081132Y-99645421D01*
X98054570Y-99643097D01*
X98054568Y-99643097D01*
X98043593Y-99642137D01*
X98007183Y-99651892D01*
X97996476Y-99654266D01*
X97959355Y-99660812D01*
X97949812Y-99666321D01*
X97946540Y-99667512D01*
X97943367Y-99668992D01*
X97932716Y-99671846D01*
X97901856Y-99693455D01*
X97892585Y-99699361D01*
X97869494Y-99712693D01*
X97859945Y-99718206D01*
X97843616Y-99737666D01*
X97835715Y-99747082D01*
X97828289Y-99755185D01*
X97602592Y-99980882D01*
X97540280Y-100014908D01*
X97469465Y-100009843D01*
X97412629Y-99967296D01*
X97388098Y-99904082D01*
X97377111Y-99792021D01*
X97377110Y-99792016D01*
X97376509Y-99785887D01*
X97374728Y-99779988D01*
X97374727Y-99779983D01*
X97324414Y-99613339D01*
X97322633Y-99607440D01*
X97235122Y-99442856D01*
X97231232Y-99438086D01*
X97231229Y-99438082D01*
X97121205Y-99303180D01*
X97121202Y-99303177D01*
X97117310Y-99298405D01*
X97111656Y-99293727D01*
X97018555Y-99216707D01*
X96973685Y-99179587D01*
X96809716Y-99090929D01*
X96698928Y-99056635D01*
X96637536Y-99037631D01*
X96637533Y-99037630D01*
X96631649Y-99035809D01*
X96625524Y-99035165D01*
X96625523Y-99035165D01*
X96452396Y-99016968D01*
X96452395Y-99016968D01*
X96446268Y-99016324D01*
X96368149Y-99023433D01*
X96266771Y-99032659D01*
X96266768Y-99032660D01*
X96260632Y-99033218D01*
X96254722Y-99034957D01*
X96254719Y-99034958D01*
X96119959Y-99074621D01*
X96081814Y-99085848D01*
X95916623Y-99172207D01*
X95771352Y-99289008D01*
X95651535Y-99431801D01*
X95648571Y-99437193D01*
X95648568Y-99437197D01*
X95587199Y-99548828D01*
X95561735Y-99595146D01*
X95559874Y-99601013D01*
X95559873Y-99601015D01*
X95541511Y-99658899D01*
X95505372Y-99772824D01*
X95484594Y-99958065D01*
X95485110Y-99964209D01*
X95498328Y-100121612D01*
X95500192Y-100143814D01*
X95551571Y-100322995D01*
X95552528Y-100324856D01*
X95558878Y-100394153D01*
X95524342Y-100458931D01*
X90986479Y-104996795D01*
X90924167Y-105030821D01*
X90897384Y-105033700D01*
X85570023Y-105033700D01*
X85501902Y-105013698D01*
X85455409Y-104960042D01*
X85445937Y-104929580D01*
X85428494Y-104830659D01*
X85418635Y-104774743D01*
X85410224Y-104744203D01*
X85397176Y-104720999D01*
X85348444Y-104634337D01*
X85348443Y-104634336D01*
X85343826Y-104626125D01*
X85245643Y-104532791D01*
X85124357Y-104472451D01*
X85115060Y-104470920D01*
X85115059Y-104470920D01*
X85064045Y-104462521D01*
X84990690Y-104450443D01*
X84959117Y-104452983D01*
X84956212Y-104453495D01*
X84956206Y-104453496D01*
X84451024Y-104542574D01*
X83622074Y-104688741D01*
X83619214Y-104689529D01*
X83619208Y-104689530D01*
X83604769Y-104693507D01*
X83591534Y-104697152D01*
X83473456Y-104763549D01*
X83380122Y-104861732D01*
X83319782Y-104983019D01*
X83318253Y-104992306D01*
X83318252Y-104992309D01*
X83306114Y-105066034D01*
X83297774Y-105116685D01*
X82631812Y-105116685D01*
X87790433Y-99958065D01*
X89484594Y-99958065D01*
X89485110Y-99964209D01*
X89498328Y-100121612D01*
X89500192Y-100143814D01*
X89501891Y-100149739D01*
X89549824Y-100316902D01*
X89551571Y-100322995D01*
X89636776Y-100488785D01*
X89752559Y-100634868D01*
X89757252Y-100638862D01*
X89757253Y-100638863D01*
X89758440Y-100639873D01*
X89894512Y-100755679D01*
X89899890Y-100758685D01*
X89899892Y-100758686D01*
X89975870Y-100801148D01*
X90057227Y-100846617D01*
X90234507Y-100904219D01*
X90419598Y-100926290D01*
X90425733Y-100925818D01*
X90425735Y-100925818D01*
X90599310Y-100912462D01*
X90599315Y-100912461D01*
X90605451Y-100911989D01*
X90611381Y-100910333D01*
X90611383Y-100910333D01*
X90748995Y-100871911D01*
X90784987Y-100861862D01*
X90951368Y-100777817D01*
X90975855Y-100758686D01*
X91093394Y-100666854D01*
X91093395Y-100666853D01*
X91098255Y-100663056D01*
X91204733Y-100539700D01*
X91216030Y-100526612D01*
X91216031Y-100526611D01*
X91220054Y-100521950D01*
X91312126Y-100359874D01*
X91370964Y-100183001D01*
X91382865Y-100088800D01*
X91393885Y-100001570D01*
X91393886Y-100001563D01*
X91394327Y-99998068D01*
X91394699Y-99971400D01*
X91393391Y-99958065D01*
X92484594Y-99958065D01*
X92485110Y-99964209D01*
X92498328Y-100121612D01*
X92500192Y-100143814D01*
X92501891Y-100149739D01*
X92549824Y-100316902D01*
X92551571Y-100322995D01*
X92636776Y-100488785D01*
X92752559Y-100634868D01*
X92757252Y-100638862D01*
X92757253Y-100638863D01*
X92758440Y-100639873D01*
X92894512Y-100755679D01*
X92899890Y-100758685D01*
X92899892Y-100758686D01*
X92975870Y-100801148D01*
X93057227Y-100846617D01*
X93234507Y-100904219D01*
X93419598Y-100926290D01*
X93425733Y-100925818D01*
X93425735Y-100925818D01*
X93599310Y-100912462D01*
X93599315Y-100912461D01*
X93605451Y-100911989D01*
X93611381Y-100910333D01*
X93611383Y-100910333D01*
X93748995Y-100871911D01*
X93784987Y-100861862D01*
X93951368Y-100777817D01*
X93975855Y-100758686D01*
X94093394Y-100666854D01*
X94093395Y-100666853D01*
X94098255Y-100663056D01*
X94204733Y-100539700D01*
X94216030Y-100526612D01*
X94216031Y-100526611D01*
X94220054Y-100521950D01*
X94312126Y-100359874D01*
X94370964Y-100183001D01*
X94382865Y-100088800D01*
X94393885Y-100001570D01*
X94393886Y-100001563D01*
X94394327Y-99998068D01*
X94394699Y-99971400D01*
X94376509Y-99785887D01*
X94374728Y-99779988D01*
X94374727Y-99779983D01*
X94324414Y-99613339D01*
X94322633Y-99607440D01*
X94235122Y-99442856D01*
X94231232Y-99438086D01*
X94231229Y-99438082D01*
X94121205Y-99303180D01*
X94121202Y-99303177D01*
X94117310Y-99298405D01*
X94111656Y-99293727D01*
X94018555Y-99216707D01*
X93973685Y-99179587D01*
X93809716Y-99090929D01*
X93698928Y-99056635D01*
X93637536Y-99037631D01*
X93637533Y-99037630D01*
X93631649Y-99035809D01*
X93625524Y-99035165D01*
X93625523Y-99035165D01*
X93452396Y-99016968D01*
X93452395Y-99016968D01*
X93446268Y-99016324D01*
X93368149Y-99023433D01*
X93266771Y-99032659D01*
X93266768Y-99032660D01*
X93260632Y-99033218D01*
X93254722Y-99034957D01*
X93254719Y-99034958D01*
X93119959Y-99074621D01*
X93081814Y-99085848D01*
X92916623Y-99172207D01*
X92771352Y-99289008D01*
X92651535Y-99431801D01*
X92648571Y-99437193D01*
X92648568Y-99437197D01*
X92587199Y-99548828D01*
X92561735Y-99595146D01*
X92559874Y-99601013D01*
X92559873Y-99601015D01*
X92541511Y-99658899D01*
X92505372Y-99772824D01*
X92484594Y-99958065D01*
X91393391Y-99958065D01*
X91376509Y-99785887D01*
X91374728Y-99779988D01*
X91374727Y-99779983D01*
X91324414Y-99613339D01*
X91322633Y-99607440D01*
X91235122Y-99442856D01*
X91231232Y-99438086D01*
X91231229Y-99438082D01*
X91121205Y-99303180D01*
X91121202Y-99303177D01*
X91117310Y-99298405D01*
X91111656Y-99293727D01*
X91018555Y-99216707D01*
X90973685Y-99179587D01*
X90809716Y-99090929D01*
X90698928Y-99056635D01*
X90637536Y-99037631D01*
X90637533Y-99037630D01*
X90631649Y-99035809D01*
X90625524Y-99035165D01*
X90625523Y-99035165D01*
X90452396Y-99016968D01*
X90452395Y-99016968D01*
X90446268Y-99016324D01*
X90368149Y-99023433D01*
X90266771Y-99032659D01*
X90266768Y-99032660D01*
X90260632Y-99033218D01*
X90254722Y-99034957D01*
X90254719Y-99034958D01*
X90119959Y-99074621D01*
X90081814Y-99085848D01*
X89916623Y-99172207D01*
X89771352Y-99289008D01*
X89651535Y-99431801D01*
X89648571Y-99437193D01*
X89648568Y-99437197D01*
X89587199Y-99548828D01*
X89561735Y-99595146D01*
X89559874Y-99601013D01*
X89559873Y-99601015D01*
X89541511Y-99658899D01*
X89505372Y-99772824D01*
X89484594Y-99958065D01*
X87790433Y-99958065D01*
X88761048Y-98987450D01*
X88773439Y-98976583D01*
X88791301Y-98962877D01*
X88797851Y-98957851D01*
X88821609Y-98926889D01*
X88821615Y-98926883D01*
X88822854Y-98925269D01*
X88876338Y-98855566D01*
X88892503Y-98834500D01*
X88927357Y-98750353D01*
X88952003Y-98690853D01*
X88955070Y-98667562D01*
X88967202Y-98575403D01*
X88967202Y-98575401D01*
X88971219Y-98544890D01*
X88972297Y-98536702D01*
X88968280Y-98506189D01*
X88967202Y-98489743D01*
X88967202Y-96417567D01*
X89489100Y-96417567D01*
X89489101Y-97525232D01*
X89492081Y-97556768D01*
X89494624Y-97564009D01*
X89494624Y-97564010D01*
X89527768Y-97658390D01*
X89536966Y-97684583D01*
X89617450Y-97793550D01*
X89726417Y-97874034D01*
X89735304Y-97877155D01*
X89735306Y-97877156D01*
X89806950Y-97902315D01*
X89854232Y-97918919D01*
X89861878Y-97919642D01*
X89861879Y-97919642D01*
X89867849Y-97920206D01*
X89885767Y-97921900D01*
X90439319Y-97921900D01*
X90993432Y-97921899D01*
X90996382Y-97921620D01*
X90996387Y-97921620D01*
X91007006Y-97920616D01*
X91024968Y-97918919D01*
X91032209Y-97916376D01*
X91032210Y-97916376D01*
X91143894Y-97877156D01*
X91143896Y-97877155D01*
X91152783Y-97874034D01*
X91261750Y-97793550D01*
X91342234Y-97684583D01*
X91351433Y-97658390D01*
X91384574Y-97564015D01*
X91387119Y-97556768D01*
X91390100Y-97525233D01*
X91390099Y-96958065D01*
X92484594Y-96958065D01*
X92485110Y-96964209D01*
X92498702Y-97126065D01*
X92500192Y-97143814D01*
X92501891Y-97149739D01*
X92549697Y-97316459D01*
X92551571Y-97322995D01*
X92636776Y-97488785D01*
X92752559Y-97634868D01*
X92894512Y-97755679D01*
X92899890Y-97758685D01*
X92899892Y-97758686D01*
X92962274Y-97793550D01*
X93057227Y-97846617D01*
X93234507Y-97904219D01*
X93419598Y-97926290D01*
X93425733Y-97925818D01*
X93425735Y-97925818D01*
X93599310Y-97912462D01*
X93599315Y-97912461D01*
X93605451Y-97911989D01*
X93611381Y-97910333D01*
X93611383Y-97910333D01*
X93779059Y-97863517D01*
X93779058Y-97863517D01*
X93784987Y-97861862D01*
X93951368Y-97777817D01*
X93975855Y-97758686D01*
X94093394Y-97666854D01*
X94093395Y-97666853D01*
X94098255Y-97663056D01*
X94220054Y-97521950D01*
X94312126Y-97359874D01*
X94370964Y-97183001D01*
X94384114Y-97078911D01*
X94393885Y-97001570D01*
X94393886Y-97001563D01*
X94394327Y-96998068D01*
X94394699Y-96971400D01*
X94393391Y-96958065D01*
X95484594Y-96958065D01*
X95485110Y-96964209D01*
X95498702Y-97126065D01*
X95500192Y-97143814D01*
X95501891Y-97149739D01*
X95549697Y-97316459D01*
X95551571Y-97322995D01*
X95636776Y-97488785D01*
X95752559Y-97634868D01*
X95894512Y-97755679D01*
X95899890Y-97758685D01*
X95899892Y-97758686D01*
X95962274Y-97793550D01*
X96057227Y-97846617D01*
X96234507Y-97904219D01*
X96419598Y-97926290D01*
X96425733Y-97925818D01*
X96425735Y-97925818D01*
X96599310Y-97912462D01*
X96599315Y-97912461D01*
X96605451Y-97911989D01*
X96611381Y-97910333D01*
X96611383Y-97910333D01*
X96779059Y-97863517D01*
X96779058Y-97863517D01*
X96784987Y-97861862D01*
X96951368Y-97777817D01*
X96975855Y-97758686D01*
X97093394Y-97666854D01*
X97093395Y-97666853D01*
X97098255Y-97663056D01*
X97220054Y-97521950D01*
X97312126Y-97359874D01*
X97370964Y-97183001D01*
X97384114Y-97078911D01*
X97393885Y-97001570D01*
X97393886Y-97001563D01*
X97394327Y-96998068D01*
X97394699Y-96971400D01*
X97393391Y-96958065D01*
X98484594Y-96958065D01*
X98485110Y-96964209D01*
X98498702Y-97126065D01*
X98500192Y-97143814D01*
X98501891Y-97149739D01*
X98549697Y-97316459D01*
X98551571Y-97322995D01*
X98636776Y-97488785D01*
X98752559Y-97634868D01*
X98894512Y-97755679D01*
X98899890Y-97758685D01*
X98899892Y-97758686D01*
X98962274Y-97793550D01*
X99057227Y-97846617D01*
X99234507Y-97904219D01*
X99419598Y-97926290D01*
X99425733Y-97925818D01*
X99425735Y-97925818D01*
X99599310Y-97912462D01*
X99599315Y-97912461D01*
X99605451Y-97911989D01*
X99611381Y-97910333D01*
X99611383Y-97910333D01*
X99779059Y-97863517D01*
X99779058Y-97863517D01*
X99784987Y-97861862D01*
X99951368Y-97777817D01*
X99975855Y-97758686D01*
X100093394Y-97666854D01*
X100093395Y-97666853D01*
X100098255Y-97663056D01*
X100220054Y-97521950D01*
X100312126Y-97359874D01*
X100370964Y-97183001D01*
X100384114Y-97078911D01*
X100393885Y-97001570D01*
X100393886Y-97001563D01*
X100394327Y-96998068D01*
X100394699Y-96971400D01*
X100393391Y-96958065D01*
X101484594Y-96958065D01*
X101485110Y-96964209D01*
X101498702Y-97126065D01*
X101500192Y-97143814D01*
X101501891Y-97149739D01*
X101549697Y-97316459D01*
X101551571Y-97322995D01*
X101636776Y-97488785D01*
X101752559Y-97634868D01*
X101894512Y-97755679D01*
X101899890Y-97758685D01*
X101899892Y-97758686D01*
X101962274Y-97793550D01*
X102057227Y-97846617D01*
X102234507Y-97904219D01*
X102419598Y-97926290D01*
X102425733Y-97925818D01*
X102425735Y-97925818D01*
X102599310Y-97912462D01*
X102599315Y-97912461D01*
X102605451Y-97911989D01*
X102611381Y-97910333D01*
X102611383Y-97910333D01*
X102779059Y-97863517D01*
X102779058Y-97863517D01*
X102784987Y-97861862D01*
X102951368Y-97777817D01*
X102975855Y-97758686D01*
X103093394Y-97666854D01*
X103093395Y-97666853D01*
X103098255Y-97663056D01*
X103220054Y-97521950D01*
X103312126Y-97359874D01*
X103370964Y-97183001D01*
X103384114Y-97078911D01*
X103393885Y-97001570D01*
X103393886Y-97001563D01*
X103394327Y-96998068D01*
X103394699Y-96971400D01*
X103376509Y-96785887D01*
X103374728Y-96779988D01*
X103374727Y-96779983D01*
X103324414Y-96613339D01*
X103322633Y-96607440D01*
X103235122Y-96442856D01*
X103231232Y-96438086D01*
X103231229Y-96438082D01*
X103121205Y-96303180D01*
X103121202Y-96303177D01*
X103117310Y-96298405D01*
X103111656Y-96293727D01*
X102978434Y-96183516D01*
X102973685Y-96179587D01*
X102809716Y-96090929D01*
X102702046Y-96057600D01*
X102637536Y-96037631D01*
X102637533Y-96037630D01*
X102631649Y-96035809D01*
X102625524Y-96035165D01*
X102625523Y-96035165D01*
X102452396Y-96016968D01*
X102452395Y-96016968D01*
X102446268Y-96016324D01*
X102371174Y-96023158D01*
X102266771Y-96032659D01*
X102266768Y-96032660D01*
X102260632Y-96033218D01*
X102254722Y-96034957D01*
X102254719Y-96034958D01*
X102120829Y-96074365D01*
X102081814Y-96085848D01*
X101916623Y-96172207D01*
X101771352Y-96289008D01*
X101651535Y-96431801D01*
X101648571Y-96437193D01*
X101648568Y-96437197D01*
X101589410Y-96544805D01*
X101561735Y-96595146D01*
X101559874Y-96601013D01*
X101559873Y-96601015D01*
X101520019Y-96726651D01*
X101505372Y-96772824D01*
X101484594Y-96958065D01*
X100393391Y-96958065D01*
X100376509Y-96785887D01*
X100374728Y-96779988D01*
X100374727Y-96779983D01*
X100324414Y-96613339D01*
X100322633Y-96607440D01*
X100235122Y-96442856D01*
X100231232Y-96438086D01*
X100231229Y-96438082D01*
X100121205Y-96303180D01*
X100121202Y-96303177D01*
X100117310Y-96298405D01*
X100111656Y-96293727D01*
X99978434Y-96183516D01*
X99973685Y-96179587D01*
X99809716Y-96090929D01*
X99702046Y-96057600D01*
X99637536Y-96037631D01*
X99637533Y-96037630D01*
X99631649Y-96035809D01*
X99625524Y-96035165D01*
X99625523Y-96035165D01*
X99452396Y-96016968D01*
X99452395Y-96016968D01*
X99446268Y-96016324D01*
X99371174Y-96023158D01*
X99266771Y-96032659D01*
X99266768Y-96032660D01*
X99260632Y-96033218D01*
X99254722Y-96034957D01*
X99254719Y-96034958D01*
X99120829Y-96074365D01*
X99081814Y-96085848D01*
X98916623Y-96172207D01*
X98771352Y-96289008D01*
X98651535Y-96431801D01*
X98648571Y-96437193D01*
X98648568Y-96437197D01*
X98589410Y-96544805D01*
X98561735Y-96595146D01*
X98559874Y-96601013D01*
X98559873Y-96601015D01*
X98520019Y-96726651D01*
X98505372Y-96772824D01*
X98484594Y-96958065D01*
X97393391Y-96958065D01*
X97376509Y-96785887D01*
X97374728Y-96779988D01*
X97374727Y-96779983D01*
X97324414Y-96613339D01*
X97322633Y-96607440D01*
X97235122Y-96442856D01*
X97231232Y-96438086D01*
X97231229Y-96438082D01*
X97121205Y-96303180D01*
X97121202Y-96303177D01*
X97117310Y-96298405D01*
X97111656Y-96293727D01*
X96978434Y-96183516D01*
X96973685Y-96179587D01*
X96809716Y-96090929D01*
X96702046Y-96057600D01*
X96637536Y-96037631D01*
X96637533Y-96037630D01*
X96631649Y-96035809D01*
X96625524Y-96035165D01*
X96625523Y-96035165D01*
X96452396Y-96016968D01*
X96452395Y-96016968D01*
X96446268Y-96016324D01*
X96371174Y-96023158D01*
X96266771Y-96032659D01*
X96266768Y-96032660D01*
X96260632Y-96033218D01*
X96254722Y-96034957D01*
X96254719Y-96034958D01*
X96120829Y-96074365D01*
X96081814Y-96085848D01*
X95916623Y-96172207D01*
X95771352Y-96289008D01*
X95651535Y-96431801D01*
X95648571Y-96437193D01*
X95648568Y-96437197D01*
X95589410Y-96544805D01*
X95561735Y-96595146D01*
X95559874Y-96601013D01*
X95559873Y-96601015D01*
X95520019Y-96726651D01*
X95505372Y-96772824D01*
X95484594Y-96958065D01*
X94393391Y-96958065D01*
X94376509Y-96785887D01*
X94374728Y-96779988D01*
X94374727Y-96779983D01*
X94324414Y-96613339D01*
X94322633Y-96607440D01*
X94235122Y-96442856D01*
X94231232Y-96438086D01*
X94231229Y-96438082D01*
X94121205Y-96303180D01*
X94121202Y-96303177D01*
X94117310Y-96298405D01*
X94111656Y-96293727D01*
X93978434Y-96183516D01*
X93973685Y-96179587D01*
X93809716Y-96090929D01*
X93702046Y-96057600D01*
X93637536Y-96037631D01*
X93637533Y-96037630D01*
X93631649Y-96035809D01*
X93625524Y-96035165D01*
X93625523Y-96035165D01*
X93452396Y-96016968D01*
X93452395Y-96016968D01*
X93446268Y-96016324D01*
X93371174Y-96023158D01*
X93266771Y-96032659D01*
X93266768Y-96032660D01*
X93260632Y-96033218D01*
X93254722Y-96034957D01*
X93254719Y-96034958D01*
X93120829Y-96074365D01*
X93081814Y-96085848D01*
X92916623Y-96172207D01*
X92771352Y-96289008D01*
X92651535Y-96431801D01*
X92648571Y-96437193D01*
X92648568Y-96437197D01*
X92589410Y-96544805D01*
X92561735Y-96595146D01*
X92559874Y-96601013D01*
X92559873Y-96601015D01*
X92520019Y-96726651D01*
X92505372Y-96772824D01*
X92484594Y-96958065D01*
X91390099Y-96958065D01*
X91390099Y-96417568D01*
X91387119Y-96386032D01*
X91358024Y-96303180D01*
X91345356Y-96267106D01*
X91345355Y-96267104D01*
X91342234Y-96258217D01*
X91261750Y-96149250D01*
X91152783Y-96068766D01*
X91143896Y-96065645D01*
X91143894Y-96065644D01*
X91032215Y-96026426D01*
X91024968Y-96023881D01*
X91017322Y-96023158D01*
X91017321Y-96023158D01*
X91011351Y-96022594D01*
X90993433Y-96020900D01*
X90439881Y-96020900D01*
X89885768Y-96020901D01*
X89882818Y-96021180D01*
X89882813Y-96021180D01*
X89872194Y-96022184D01*
X89854232Y-96023881D01*
X89846991Y-96026424D01*
X89846990Y-96026424D01*
X89735306Y-96065644D01*
X89735304Y-96065645D01*
X89726417Y-96068766D01*
X89617450Y-96149250D01*
X89536966Y-96258217D01*
X89533845Y-96267104D01*
X89533844Y-96267106D01*
X89522853Y-96298405D01*
X89492081Y-96386032D01*
X89489100Y-96417567D01*
X88967202Y-96417567D01*
X88967202Y-95816081D01*
X88987204Y-95747960D01*
X89004107Y-95726986D01*
X89107688Y-95623405D01*
X89170000Y-95589379D01*
X89196783Y-95586500D01*
X104351217Y-95586500D01*
X104419338Y-95606502D01*
X104440312Y-95623405D01*
X104812195Y-95995288D01*
X104846221Y-96057600D01*
X104849100Y-96084383D01*
X104849100Y-96166128D01*
X104829098Y-96234249D01*
X104802051Y-96264325D01*
X104776156Y-96285144D01*
X104776148Y-96285152D01*
X104771352Y-96289008D01*
X104651535Y-96431801D01*
X104648571Y-96437193D01*
X104648568Y-96437197D01*
X104589410Y-96544805D01*
X104561735Y-96595146D01*
X104559874Y-96601013D01*
X104559873Y-96601015D01*
X104520019Y-96726651D01*
X104505372Y-96772824D01*
X104484594Y-96958065D01*
X104485110Y-96964209D01*
X104498702Y-97126065D01*
X104500192Y-97143814D01*
X104501891Y-97149739D01*
X104549697Y-97316459D01*
X104551571Y-97322995D01*
X104636776Y-97488785D01*
X104752559Y-97634868D01*
X104894512Y-97755679D01*
X104899890Y-97758685D01*
X104899892Y-97758686D01*
X104962274Y-97793550D01*
X105057227Y-97846617D01*
X105234507Y-97904219D01*
X105419598Y-97926290D01*
X105425733Y-97925818D01*
X105425735Y-97925818D01*
X105599310Y-97912462D01*
X105599315Y-97912461D01*
X105605451Y-97911989D01*
X105611381Y-97910333D01*
X105611383Y-97910333D01*
X105779059Y-97863517D01*
X105779058Y-97863517D01*
X105784987Y-97861862D01*
X105951368Y-97777817D01*
X105975855Y-97758686D01*
X106093394Y-97666854D01*
X106093395Y-97666853D01*
X106098255Y-97663056D01*
X106220054Y-97521950D01*
X106312126Y-97359874D01*
X106370964Y-97183001D01*
X106384114Y-97078911D01*
X106393885Y-97001570D01*
X106393886Y-97001563D01*
X106394327Y-96998068D01*
X106394699Y-96971400D01*
X106376509Y-96785887D01*
X106374728Y-96779988D01*
X106374727Y-96779983D01*
X106324414Y-96613339D01*
X106322633Y-96607440D01*
X106235122Y-96442856D01*
X106231232Y-96438086D01*
X106231229Y-96438082D01*
X106121205Y-96303180D01*
X106121202Y-96303177D01*
X106117310Y-96298405D01*
X106091154Y-96276767D01*
X106075784Y-96264051D01*
X106036046Y-96205217D01*
X106030100Y-96166967D01*
X106030100Y-95834551D01*
X106031178Y-95818105D01*
X106034116Y-95795788D01*
X106035194Y-95787600D01*
X106030100Y-95748906D01*
X106030100Y-95748899D01*
X106014901Y-95633449D01*
X105980046Y-95549303D01*
X105955400Y-95489802D01*
X105884512Y-95397419D01*
X105884510Y-95397417D01*
X105884508Y-95397414D01*
X105865779Y-95373005D01*
X105865775Y-95373001D01*
X105860749Y-95366451D01*
X105854199Y-95361425D01*
X105854196Y-95361422D01*
X105836332Y-95347715D01*
X105823941Y-95336848D01*
X105098755Y-94611662D01*
X105087887Y-94599271D01*
X105074172Y-94581397D01*
X105069149Y-94574851D01*
X105038183Y-94551090D01*
X105038181Y-94551088D01*
X104945798Y-94480200D01*
X104938169Y-94477040D01*
X104938167Y-94477039D01*
X104903724Y-94462773D01*
X104903722Y-94462772D01*
X104809782Y-94423860D01*
X104802151Y-94420699D01*
X104793963Y-94419621D01*
X104686704Y-94405500D01*
X104686699Y-94405500D01*
X104648000Y-94400405D01*
X104636644Y-94401900D01*
X104617487Y-94404422D01*
X104601041Y-94405500D01*
X93532794Y-94405500D01*
X93464673Y-94385498D01*
X93418180Y-94331842D01*
X93408076Y-94261568D01*
X93437570Y-94196988D01*
X93470271Y-94170107D01*
X93493487Y-94156838D01*
X93581212Y-94106699D01*
X93785536Y-93945623D01*
X93963808Y-93756114D01*
X94112111Y-93542337D01*
X94129858Y-93506349D01*
X94225121Y-93313175D01*
X94225122Y-93313172D01*
X94227186Y-93308987D01*
X94306506Y-93061192D01*
X94348328Y-92804394D01*
X94350385Y-92647288D01*
X94351673Y-92548912D01*
X94351673Y-92548909D01*
X94351734Y-92544235D01*
X94316648Y-92286430D01*
X94243842Y-92036643D01*
X94134914Y-91800361D01*
X94106237Y-91756621D01*
X93994825Y-91586688D01*
X93994821Y-91586683D01*
X93992259Y-91582775D01*
X93849422Y-91422740D01*
X93822126Y-91392157D01*
X93822124Y-91392155D01*
X93819009Y-91388665D01*
X93742763Y-91325252D01*
X93703180Y-91266316D01*
X93701743Y-91195334D01*
X93738911Y-91134843D01*
X93802882Y-91104050D01*
X93823333Y-91102379D01*
X108073520Y-91102379D01*
X108141641Y-91122381D01*
X108188134Y-91176037D01*
X108198238Y-91246311D01*
X108168744Y-91310891D01*
X108151526Y-91327329D01*
X108113664Y-91357177D01*
X107935392Y-91546686D01*
X107787089Y-91760463D01*
X107785023Y-91764653D01*
X107785021Y-91764656D01*
X107711949Y-91912833D01*
X107672014Y-91993813D01*
X107592694Y-92241608D01*
X107550872Y-92498406D01*
X107550811Y-92503083D01*
X107548131Y-92707804D01*
X107547466Y-92758565D01*
X107582552Y-93016370D01*
X107583860Y-93020856D01*
X107583860Y-93020858D01*
X107590790Y-93044634D01*
X107655358Y-93266157D01*
X107764286Y-93502439D01*
X107766846Y-93506344D01*
X107766849Y-93506349D01*
X107904375Y-93716112D01*
X107904379Y-93716117D01*
X107906941Y-93720025D01*
X108080191Y-93914135D01*
X108280229Y-94080505D01*
X108502661Y-94215480D01*
X108506975Y-94217289D01*
X108506977Y-94217290D01*
X108738286Y-94314286D01*
X108738291Y-94314288D01*
X108742601Y-94316095D01*
X108747133Y-94317246D01*
X108747136Y-94317247D01*
X108804605Y-94331842D01*
X108994777Y-94380139D01*
X109210886Y-94401900D01*
X109365644Y-94401900D01*
X109367969Y-94401727D01*
X109367975Y-94401727D01*
X109554414Y-94387872D01*
X109554418Y-94387871D01*
X109559066Y-94387526D01*
X109812832Y-94330105D01*
X109817186Y-94328412D01*
X110050970Y-94237498D01*
X110050972Y-94237497D01*
X110055323Y-94235805D01*
X110090885Y-94215480D01*
X110170271Y-94170107D01*
X110281212Y-94106699D01*
X110485536Y-93945623D01*
X110663808Y-93756114D01*
X110812111Y-93542337D01*
X110829858Y-93506349D01*
X110925121Y-93313175D01*
X110925122Y-93313172D01*
X110927186Y-93308987D01*
X111006506Y-93061192D01*
X111048328Y-92804394D01*
X111050385Y-92647288D01*
X111051673Y-92548912D01*
X111051673Y-92548909D01*
X111051734Y-92544235D01*
X111016648Y-92286430D01*
X110943842Y-92036643D01*
X110834914Y-91800361D01*
X110806237Y-91756621D01*
X110694825Y-91586688D01*
X110694821Y-91586683D01*
X110692259Y-91582775D01*
X110549422Y-91422740D01*
X110522126Y-91392157D01*
X110522124Y-91392155D01*
X110519009Y-91388665D01*
X110442763Y-91325252D01*
X110403180Y-91266316D01*
X110401743Y-91195334D01*
X110438911Y-91134843D01*
X110502882Y-91104050D01*
X110523333Y-91102379D01*
X111112690Y-91102379D01*
X111180811Y-91122381D01*
X111201785Y-91139284D01*
X112151706Y-92089205D01*
X112185732Y-92151517D01*
X112188611Y-92178300D01*
X112188611Y-95734840D01*
X112168609Y-95802961D01*
X112114953Y-95849454D01*
X112044679Y-95859558D01*
X112009361Y-95849035D01*
X111876487Y-95787074D01*
X111866195Y-95783328D01*
X111664199Y-95729204D01*
X111653404Y-95727301D01*
X111445075Y-95709074D01*
X111434125Y-95709074D01*
X111225796Y-95727301D01*
X111215001Y-95729204D01*
X111013005Y-95783328D01*
X111002713Y-95787074D01*
X110813183Y-95875454D01*
X110803693Y-95880934D01*
X110762451Y-95909811D01*
X110754077Y-95920286D01*
X110761145Y-95933733D01*
X111709716Y-96882305D01*
X111743741Y-96944617D01*
X111738676Y-97015433D01*
X111709715Y-97060495D01*
X111439600Y-97330610D01*
X110760424Y-98009787D01*
X110753994Y-98021562D01*
X110763290Y-98033576D01*
X110803688Y-98061864D01*
X110813184Y-98067347D01*
X111002713Y-98155726D01*
X111013005Y-98159472D01*
X111215001Y-98213596D01*
X111225796Y-98215499D01*
X111434125Y-98233726D01*
X111445075Y-98233726D01*
X111602888Y-98219919D01*
X111672493Y-98233908D01*
X111723486Y-98283308D01*
X111739676Y-98352433D01*
X111715924Y-98419339D01*
X111702969Y-98434531D01*
X111032245Y-99105256D01*
X111001528Y-99127820D01*
X110916623Y-99172207D01*
X110771352Y-99289008D01*
X110651535Y-99431801D01*
X110648571Y-99437193D01*
X110648568Y-99437197D01*
X110587199Y-99548828D01*
X110561735Y-99595146D01*
X110559874Y-99601013D01*
X110559873Y-99601015D01*
X110541511Y-99658899D01*
X110505372Y-99772824D01*
X110484594Y-99958065D01*
X110485110Y-99964209D01*
X110498328Y-100121612D01*
X110500192Y-100143814D01*
X110501891Y-100149739D01*
X110534219Y-100262481D01*
X110539100Y-100297211D01*
X110539100Y-107123992D01*
X110519098Y-107192113D01*
X110502196Y-107213087D01*
X110095429Y-107619855D01*
X109936528Y-107778756D01*
X109874215Y-107812781D01*
X109803400Y-107807717D01*
X109746564Y-107765170D01*
X109721914Y-107695987D01*
X109721783Y-107696000D01*
X109721731Y-107695474D01*
X109720941Y-107687406D01*
X109712674Y-107603096D01*
X109701680Y-107490970D01*
X109642135Y-107293749D01*
X109545418Y-107111849D01*
X109444806Y-106988487D01*
X109419106Y-106956975D01*
X109419103Y-106956972D01*
X109415211Y-106952200D01*
X109390791Y-106931998D01*
X109261225Y-106824811D01*
X109261221Y-106824809D01*
X109256475Y-106820882D01*
X109075255Y-106722897D01*
X108878454Y-106661977D01*
X108872329Y-106661333D01*
X108872328Y-106661333D01*
X108679698Y-106641087D01*
X108679696Y-106641087D01*
X108673569Y-106640443D01*
X108586729Y-106648346D01*
X108474542Y-106658555D01*
X108474539Y-106658556D01*
X108468403Y-106659114D01*
X108270772Y-106717280D01*
X108265307Y-106720137D01*
X108250175Y-106728048D01*
X108088202Y-106812726D01*
X108083401Y-106816586D01*
X108083398Y-106816588D01*
X107943130Y-106929366D01*
X107927647Y-106941815D01*
X107795224Y-107099630D01*
X107792256Y-107105028D01*
X107792253Y-107105033D01*
X107711390Y-107252124D01*
X107695976Y-107280162D01*
X107679223Y-107332976D01*
X107677268Y-107339138D01*
X107637605Y-107398022D01*
X107572402Y-107426114D01*
X107502363Y-107414497D01*
X107449723Y-107366857D01*
X107434962Y-107331735D01*
X107417414Y-107261875D01*
X107414094Y-107252124D01*
X107329172Y-107056814D01*
X107324305Y-107047739D01*
X107208626Y-106868926D01*
X107202336Y-106860757D01*
X107059006Y-106703240D01*
X107051473Y-106696215D01*
X106884339Y-106564222D01*
X106875752Y-106558517D01*
X106689317Y-106455599D01*
X106679905Y-106451369D01*
X106479159Y-106380280D01*
X106469188Y-106377646D01*
X106398037Y-106364972D01*
X106384740Y-106366432D01*
X106380200Y-106380989D01*
X106380200Y-109014517D01*
X106384675Y-109029756D01*
X106404587Y-109047010D01*
X106442972Y-109106735D01*
X106442973Y-109177732D01*
X106411171Y-109231330D01*
X105126388Y-110516113D01*
X105111360Y-110528950D01*
X105100138Y-110537103D01*
X105095725Y-110542005D01*
X105095723Y-110542006D01*
X105054780Y-110587478D01*
X105050239Y-110592262D01*
X105035890Y-110606611D01*
X105033814Y-110609175D01*
X105023108Y-110622395D01*
X105018824Y-110627411D01*
X105015251Y-110631379D01*
X104973476Y-110677775D01*
X104966543Y-110689782D01*
X104955348Y-110706071D01*
X104946626Y-110716842D01*
X104943630Y-110722722D01*
X104943628Y-110722725D01*
X104915858Y-110777225D01*
X104912712Y-110783020D01*
X104882130Y-110835991D01*
X104878830Y-110841707D01*
X104874986Y-110853538D01*
X104874545Y-110854894D01*
X104866982Y-110873151D01*
X104860689Y-110885503D01*
X104858981Y-110891876D01*
X104858979Y-110891882D01*
X104843147Y-110950966D01*
X104841274Y-110957290D01*
X104824825Y-111007917D01*
X104820335Y-111021735D01*
X104819645Y-111028296D01*
X104819645Y-111028298D01*
X104818887Y-111035512D01*
X104815284Y-111054954D01*
X104811696Y-111068345D01*
X104811351Y-111074934D01*
X104811350Y-111074939D01*
X104810263Y-111095697D01*
X104808194Y-111135192D01*
X104808151Y-111136008D01*
X104807633Y-111142591D01*
X104805853Y-111159521D01*
X104805852Y-111159532D01*
X104805509Y-111162799D01*
X104805509Y-111183117D01*
X104805336Y-111189711D01*
X104802165Y-111250226D01*
X104801790Y-111257379D01*
X104802822Y-111263895D01*
X104803958Y-111271067D01*
X104805509Y-111290778D01*
X104805509Y-111698700D01*
X104785507Y-111766821D01*
X104731851Y-111813314D01*
X104679509Y-111824700D01*
X102888789Y-111824700D01*
X102820668Y-111804698D01*
X102799694Y-111787795D01*
X101983605Y-110971706D01*
X101949579Y-110909394D01*
X101946700Y-110882611D01*
X101946700Y-108270983D01*
X101963144Y-108208746D01*
X101972275Y-108192672D01*
X102010523Y-108125344D01*
X102075551Y-107929863D01*
X102101371Y-107725474D01*
X102101783Y-107696000D01*
X102100338Y-107681262D01*
X102530720Y-107681262D01*
X102532139Y-107698161D01*
X102547372Y-107879558D01*
X102547959Y-107886553D01*
X102549658Y-107892478D01*
X102598142Y-108061561D01*
X102604744Y-108084586D01*
X102607559Y-108090063D01*
X102607560Y-108090066D01*
X102694229Y-108258706D01*
X102698912Y-108267818D01*
X102826877Y-108429270D01*
X102831570Y-108433264D01*
X102831571Y-108433265D01*
X102905741Y-108496388D01*
X102983764Y-108562791D01*
X102989142Y-108565797D01*
X102989144Y-108565798D01*
X103010174Y-108577551D01*
X103163598Y-108663297D01*
X103236191Y-108686884D01*
X103353671Y-108725056D01*
X103353675Y-108725057D01*
X103359529Y-108726959D01*
X103564094Y-108751351D01*
X103570229Y-108750879D01*
X103570231Y-108750879D01*
X103626239Y-108746569D01*
X103769500Y-108735546D01*
X103775430Y-108733890D01*
X103775432Y-108733890D01*
X103899304Y-108699304D01*
X103967925Y-108680145D01*
X103973414Y-108677372D01*
X103973420Y-108677370D01*
X104136228Y-108595129D01*
X104151810Y-108587258D01*
X104156663Y-108583467D01*
X104279894Y-108487188D01*
X104314151Y-108460424D01*
X104322703Y-108450517D01*
X104444740Y-108309134D01*
X104444740Y-108309133D01*
X104448764Y-108304472D01*
X104466108Y-108273942D01*
X104504320Y-108206676D01*
X104550523Y-108125344D01*
X104562123Y-108090474D01*
X104574696Y-108052678D01*
X104615178Y-107994354D01*
X104680766Y-107967175D01*
X104750637Y-107979770D01*
X104802606Y-108028141D01*
X104817171Y-108064751D01*
X104824764Y-108098444D01*
X104827845Y-108108275D01*
X104907970Y-108305603D01*
X104912613Y-108314794D01*
X105023894Y-108496388D01*
X105029977Y-108504699D01*
X105169413Y-108665667D01*
X105176780Y-108672883D01*
X105340634Y-108808916D01*
X105349081Y-108814831D01*
X105532956Y-108922279D01*
X105542242Y-108926729D01*
X105741201Y-109002703D01*
X105751099Y-109005579D01*
X105854450Y-109026606D01*
X105868499Y-109025410D01*
X105872200Y-109015065D01*
X105872200Y-106379102D01*
X105868282Y-106365758D01*
X105854006Y-106363771D01*
X105815524Y-106369660D01*
X105805488Y-106372051D01*
X105660034Y-106419592D01*
X105589070Y-106421743D01*
X105528208Y-106385186D01*
X105496772Y-106321529D01*
X105504742Y-106250981D01*
X105531794Y-106210732D01*
X106583095Y-105159432D01*
X108599892Y-103142635D01*
X108607995Y-103135210D01*
X108618573Y-103126334D01*
X108636555Y-103113743D01*
X108652055Y-103104794D01*
X108659139Y-103096352D01*
X108659141Y-103096350D01*
X108663560Y-103091084D01*
X108679086Y-103075558D01*
X108684348Y-103071142D01*
X108692794Y-103064055D01*
X108701742Y-103048557D01*
X108714339Y-103030567D01*
X108718756Y-103025303D01*
X108725840Y-103016861D01*
X108729608Y-103006508D01*
X108729611Y-103006503D01*
X108731963Y-103000040D01*
X108741244Y-102980136D01*
X108744676Y-102974192D01*
X108750188Y-102964645D01*
X108752102Y-102953791D01*
X108752104Y-102953785D01*
X108753296Y-102947024D01*
X108758978Y-102925816D01*
X108761330Y-102919352D01*
X108765100Y-102908994D01*
X108765100Y-100949424D01*
X108785102Y-100881303D01*
X108834289Y-100836958D01*
X108945868Y-100780595D01*
X108951368Y-100777817D01*
X108975855Y-100758686D01*
X109093394Y-100666854D01*
X109093395Y-100666853D01*
X109098255Y-100663056D01*
X109204733Y-100539700D01*
X109216030Y-100526612D01*
X109216031Y-100526611D01*
X109220054Y-100521950D01*
X109312126Y-100359874D01*
X109370964Y-100183001D01*
X109382865Y-100088800D01*
X109393885Y-100001570D01*
X109393886Y-100001563D01*
X109394327Y-99998068D01*
X109394699Y-99971400D01*
X109376509Y-99785887D01*
X109374728Y-99779988D01*
X109374727Y-99779983D01*
X109324414Y-99613339D01*
X109322633Y-99607440D01*
X109235122Y-99442856D01*
X109231232Y-99438086D01*
X109231229Y-99438082D01*
X109121205Y-99303180D01*
X109121202Y-99303177D01*
X109117310Y-99298405D01*
X109111656Y-99293727D01*
X109018555Y-99216707D01*
X108973685Y-99179587D01*
X108809716Y-99090929D01*
X108698928Y-99056635D01*
X108637536Y-99037631D01*
X108637533Y-99037630D01*
X108631649Y-99035809D01*
X108625524Y-99035165D01*
X108625523Y-99035165D01*
X108452396Y-99016968D01*
X108452395Y-99016968D01*
X108446268Y-99016324D01*
X108368149Y-99023433D01*
X108266771Y-99032659D01*
X108266768Y-99032660D01*
X108260632Y-99033218D01*
X108254722Y-99034957D01*
X108254719Y-99034958D01*
X108119959Y-99074621D01*
X108081814Y-99085848D01*
X107916623Y-99172207D01*
X107771352Y-99289008D01*
X107651535Y-99431801D01*
X107648571Y-99437193D01*
X107648568Y-99437197D01*
X107587199Y-99548828D01*
X107561735Y-99595146D01*
X107559874Y-99601013D01*
X107559873Y-99601015D01*
X107505602Y-99772099D01*
X107465938Y-99830983D01*
X107400736Y-99859075D01*
X107330697Y-99847458D01*
X107278057Y-99799818D01*
X107259500Y-99734000D01*
X107259500Y-97723016D01*
X107279502Y-97654895D01*
X107296405Y-97633921D01*
X107450455Y-97479871D01*
X107512767Y-97445845D01*
X107583582Y-97450910D01*
X107638295Y-97490701D01*
X107752559Y-97634868D01*
X107894512Y-97755679D01*
X107899890Y-97758685D01*
X107899892Y-97758686D01*
X107962274Y-97793550D01*
X108057227Y-97846617D01*
X108234507Y-97904219D01*
X108419598Y-97926290D01*
X108425733Y-97925818D01*
X108425735Y-97925818D01*
X108599310Y-97912462D01*
X108599315Y-97912461D01*
X108605451Y-97911989D01*
X108611381Y-97910333D01*
X108611383Y-97910333D01*
X108779059Y-97863517D01*
X108779058Y-97863517D01*
X108784987Y-97861862D01*
X108951368Y-97777817D01*
X108975855Y-97758686D01*
X109093394Y-97666854D01*
X109093395Y-97666853D01*
X109098255Y-97663056D01*
X109220054Y-97521950D01*
X109312126Y-97359874D01*
X109370964Y-97183001D01*
X109384114Y-97078911D01*
X109393885Y-97001570D01*
X109393886Y-97001563D01*
X109394327Y-96998068D01*
X109394623Y-96976875D01*
X110177274Y-96976875D01*
X110195501Y-97185204D01*
X110197404Y-97195999D01*
X110251528Y-97397995D01*
X110255274Y-97408287D01*
X110343654Y-97597817D01*
X110349134Y-97607307D01*
X110378011Y-97648549D01*
X110388487Y-97656923D01*
X110401934Y-97649855D01*
X111067579Y-96984211D01*
X111075192Y-96970268D01*
X111075061Y-96968434D01*
X111070810Y-96961820D01*
X110401209Y-96292220D01*
X110389439Y-96285793D01*
X110377424Y-96295089D01*
X110349134Y-96335493D01*
X110343654Y-96344983D01*
X110255274Y-96534513D01*
X110251528Y-96544805D01*
X110197404Y-96746801D01*
X110195501Y-96757596D01*
X110177274Y-96965925D01*
X110177274Y-96976875D01*
X109394623Y-96976875D01*
X109394699Y-96971400D01*
X109376509Y-96785887D01*
X109374728Y-96779988D01*
X109374727Y-96779983D01*
X109324414Y-96613339D01*
X109322633Y-96607440D01*
X109235122Y-96442856D01*
X109231232Y-96438086D01*
X109231229Y-96438082D01*
X109121205Y-96303180D01*
X109121202Y-96303177D01*
X109117310Y-96298405D01*
X109111656Y-96293727D01*
X108978434Y-96183516D01*
X108973685Y-96179587D01*
X108809716Y-96090929D01*
X108702046Y-96057600D01*
X108637536Y-96037631D01*
X108637533Y-96037630D01*
X108631649Y-96035809D01*
X108625524Y-96035165D01*
X108625523Y-96035165D01*
X108452396Y-96016968D01*
X108452395Y-96016968D01*
X108446268Y-96016324D01*
X108371174Y-96023158D01*
X108266771Y-96032659D01*
X108266768Y-96032660D01*
X108260632Y-96033218D01*
X108254722Y-96034957D01*
X108254719Y-96034958D01*
X108120829Y-96074365D01*
X108081814Y-96085848D01*
X107916623Y-96172207D01*
X107771352Y-96289008D01*
X107651535Y-96431801D01*
X107648571Y-96437193D01*
X107648568Y-96437197D01*
X107570544Y-96579123D01*
X107520198Y-96629182D01*
X107475467Y-96642632D01*
X107469793Y-96642136D01*
X107433385Y-96651892D01*
X107422658Y-96654270D01*
X107419299Y-96654862D01*
X107385555Y-96660812D01*
X107376010Y-96666323D01*
X107372734Y-96667515D01*
X107369566Y-96668992D01*
X107358916Y-96671846D01*
X107349885Y-96678170D01*
X107328056Y-96693455D01*
X107318785Y-96699361D01*
X107295694Y-96712693D01*
X107286145Y-96718206D01*
X107279059Y-96726651D01*
X107261915Y-96747082D01*
X107254489Y-96755185D01*
X106717785Y-97291889D01*
X106709681Y-97299316D01*
X106680806Y-97323545D01*
X106675293Y-97333094D01*
X106661961Y-97356185D01*
X106656055Y-97365456D01*
X106634446Y-97396316D01*
X106631592Y-97406966D01*
X106630115Y-97410134D01*
X106628923Y-97413410D01*
X106623412Y-97422955D01*
X106619376Y-97445845D01*
X106616870Y-97460058D01*
X106614492Y-97470785D01*
X106604736Y-97507193D01*
X106605697Y-97518178D01*
X106605697Y-97518180D01*
X106608020Y-97544728D01*
X106608500Y-97555710D01*
X106608500Y-99701008D01*
X106588498Y-99769129D01*
X106534842Y-99815622D01*
X106464568Y-99825726D01*
X106399988Y-99796232D01*
X106361878Y-99737426D01*
X106324414Y-99613339D01*
X106322633Y-99607440D01*
X106235122Y-99442856D01*
X106231232Y-99438086D01*
X106231229Y-99438082D01*
X106121205Y-99303180D01*
X106121202Y-99303177D01*
X106117310Y-99298405D01*
X106111656Y-99293727D01*
X106018555Y-99216707D01*
X105973685Y-99179587D01*
X105809716Y-99090929D01*
X105698928Y-99056635D01*
X105637536Y-99037631D01*
X105637533Y-99037630D01*
X105631649Y-99035809D01*
X105625524Y-99035165D01*
X105625523Y-99035165D01*
X105452396Y-99016968D01*
X105452395Y-99016968D01*
X105446268Y-99016324D01*
X105368149Y-99023433D01*
X105266771Y-99032659D01*
X105266768Y-99032660D01*
X105260632Y-99033218D01*
X105254722Y-99034957D01*
X105254719Y-99034958D01*
X105119959Y-99074621D01*
X105081814Y-99085848D01*
X104916623Y-99172207D01*
X104771352Y-99289008D01*
X104651535Y-99431801D01*
X104648571Y-99437193D01*
X104648568Y-99437197D01*
X104587199Y-99548828D01*
X104561735Y-99595146D01*
X104559874Y-99601013D01*
X104559873Y-99601015D01*
X104541511Y-99658899D01*
X104505372Y-99772824D01*
X104484594Y-99958065D01*
X104485110Y-99964209D01*
X104498328Y-100121612D01*
X104500192Y-100143814D01*
X104501891Y-100149739D01*
X104549824Y-100316902D01*
X104551571Y-100322995D01*
X104636776Y-100488785D01*
X104752559Y-100634868D01*
X104757252Y-100638862D01*
X104757253Y-100638863D01*
X104758440Y-100639873D01*
X104894512Y-100755679D01*
X104899890Y-100758685D01*
X104899892Y-100758686D01*
X104975870Y-100801148D01*
X105057227Y-100846617D01*
X105234507Y-100904219D01*
X105419598Y-100926290D01*
X105425733Y-100925818D01*
X105425735Y-100925818D01*
X105599310Y-100912462D01*
X105599315Y-100912461D01*
X105605451Y-100911989D01*
X105611381Y-100910333D01*
X105611383Y-100910333D01*
X105748995Y-100871911D01*
X105784987Y-100861862D01*
X105951368Y-100777817D01*
X105975855Y-100758686D01*
X106093394Y-100666854D01*
X106093395Y-100666853D01*
X106098255Y-100663056D01*
X106204733Y-100539700D01*
X106216030Y-100526612D01*
X106216031Y-100526611D01*
X106220054Y-100521950D01*
X106312126Y-100359874D01*
X106362942Y-100207116D01*
X106403423Y-100148792D01*
X106469011Y-100121612D01*
X106538882Y-100134207D01*
X106590852Y-100182577D01*
X106608500Y-100246888D01*
X106608500Y-102936982D01*
X106588498Y-103005103D01*
X106571596Y-103026077D01*
X105836383Y-103761291D01*
X105774070Y-103795316D01*
X105730843Y-103797118D01*
X105664000Y-103788318D01*
X105507238Y-103808956D01*
X105361159Y-103869464D01*
X105235718Y-103965718D01*
X105230695Y-103972264D01*
X105223924Y-103981088D01*
X105139464Y-104091159D01*
X105078956Y-104237238D01*
X105058318Y-104394000D01*
X105078956Y-104550762D01*
X105139464Y-104696841D01*
X105235718Y-104822282D01*
X105361159Y-104918536D01*
X105461363Y-104960042D01*
X105496488Y-104974591D01*
X105507238Y-104979044D01*
X105515426Y-104980122D01*
X105550473Y-104984736D01*
X105615400Y-105013459D01*
X105654491Y-105072724D01*
X105655336Y-105143716D01*
X105623121Y-105198753D01*
X104875350Y-105946523D01*
X104127690Y-106694183D01*
X104065378Y-106728209D01*
X103995600Y-106721781D01*
X103995255Y-106722897D01*
X103991650Y-106721781D01*
X103798454Y-106661977D01*
X103792329Y-106661333D01*
X103792328Y-106661333D01*
X103599698Y-106641087D01*
X103599696Y-106641087D01*
X103593569Y-106640443D01*
X103506729Y-106648346D01*
X103394542Y-106658555D01*
X103394539Y-106658556D01*
X103388403Y-106659114D01*
X103190772Y-106717280D01*
X103185307Y-106720137D01*
X103170175Y-106728048D01*
X103008202Y-106812726D01*
X103003401Y-106816586D01*
X103003398Y-106816588D01*
X102863130Y-106929366D01*
X102847647Y-106941815D01*
X102715224Y-107099630D01*
X102712256Y-107105028D01*
X102712253Y-107105033D01*
X102631390Y-107252124D01*
X102615976Y-107280162D01*
X102614114Y-107286032D01*
X102614113Y-107286035D01*
X102564389Y-107442787D01*
X102553684Y-107476532D01*
X102552998Y-107482649D01*
X102552997Y-107482653D01*
X102537237Y-107623163D01*
X102530720Y-107681262D01*
X102100338Y-107681262D01*
X102081680Y-107490970D01*
X102022135Y-107293749D01*
X101925418Y-107111849D01*
X101824806Y-106988487D01*
X101799106Y-106956975D01*
X101799103Y-106956972D01*
X101795211Y-106952200D01*
X101770791Y-106931998D01*
X101641225Y-106824811D01*
X101641221Y-106824809D01*
X101636475Y-106820882D01*
X101455255Y-106722897D01*
X101258454Y-106661977D01*
X101252329Y-106661333D01*
X101252328Y-106661333D01*
X101059698Y-106641087D01*
X101059696Y-106641087D01*
X101053569Y-106640443D01*
X100966729Y-106648346D01*
X100854542Y-106658555D01*
X100854539Y-106658556D01*
X100848403Y-106659114D01*
X100650772Y-106717280D01*
X100645307Y-106720137D01*
X100630175Y-106728048D01*
X100468202Y-106812726D01*
X100463401Y-106816586D01*
X100463398Y-106816588D01*
X100323130Y-106929366D01*
X100307647Y-106941815D01*
X100175224Y-107099630D01*
X100172254Y-107105033D01*
X100172253Y-107105034D01*
X100100614Y-107235345D01*
X100050268Y-107285404D01*
X99980851Y-107300297D01*
X99914402Y-107275296D01*
X99872018Y-107218339D01*
X99864199Y-107174644D01*
X99864199Y-106801331D01*
X99863829Y-106794510D01*
X99858305Y-106743648D01*
X99854679Y-106728396D01*
X99809524Y-106607946D01*
X99800986Y-106592351D01*
X99724485Y-106490276D01*
X99711924Y-106477715D01*
X99609849Y-106401214D01*
X99594254Y-106392676D01*
X99473806Y-106347522D01*
X99458551Y-106343895D01*
X99407686Y-106338369D01*
X99400872Y-106338000D01*
X98778315Y-106338000D01*
X98763076Y-106342475D01*
X98761871Y-106343865D01*
X98760200Y-106351548D01*
X98760200Y-109035884D01*
X98764675Y-109051123D01*
X98766065Y-109052328D01*
X98773748Y-109053999D01*
X99400869Y-109053999D01*
X99407690Y-109053629D01*
X99458552Y-109048105D01*
X99473804Y-109044479D01*
X99594254Y-108999324D01*
X99609849Y-108990786D01*
X99711924Y-108914285D01*
X99724485Y-108901724D01*
X99800986Y-108799649D01*
X99809524Y-108784054D01*
X99854678Y-108663606D01*
X99858305Y-108648351D01*
X99863831Y-108597486D01*
X99864200Y-108590672D01*
X99864200Y-108215192D01*
X99884202Y-108147071D01*
X99937858Y-108100578D01*
X100008132Y-108090474D01*
X100072712Y-108119968D01*
X100102267Y-108157598D01*
X100127490Y-108206676D01*
X100131767Y-108214999D01*
X100145700Y-108272593D01*
X100145700Y-111227013D01*
X100144149Y-111246723D01*
X100141981Y-111260412D01*
X100142326Y-111267000D01*
X100142326Y-111267004D01*
X100145527Y-111328080D01*
X100145700Y-111334674D01*
X100145700Y-111354992D01*
X100146043Y-111358259D01*
X100146044Y-111358270D01*
X100147824Y-111375200D01*
X100148342Y-111381783D01*
X100150848Y-111429608D01*
X100151887Y-111449446D01*
X100153825Y-111456677D01*
X100155474Y-111462831D01*
X100159078Y-111482279D01*
X100160526Y-111496056D01*
X100162566Y-111502333D01*
X100162566Y-111502335D01*
X100181465Y-111560501D01*
X100183338Y-111566825D01*
X100199170Y-111625909D01*
X100199172Y-111625915D01*
X100200880Y-111632288D01*
X100203877Y-111638170D01*
X100205571Y-111641495D01*
X100205971Y-111643626D01*
X100206243Y-111644334D01*
X100206114Y-111644384D01*
X100218677Y-111711271D01*
X100191979Y-111777056D01*
X100133952Y-111817964D01*
X100093306Y-111824700D01*
X99368408Y-111824700D01*
X99313070Y-111830516D01*
X99233914Y-111838835D01*
X99233909Y-111838836D01*
X99227344Y-111839526D01*
X99221065Y-111841566D01*
X99221061Y-111841567D01*
X99215012Y-111843533D01*
X99176075Y-111849700D01*
X98720852Y-111849700D01*
X98714784Y-111850907D01*
X98674539Y-111858912D01*
X98674538Y-111858912D01*
X98662369Y-111861333D01*
X98596048Y-111905648D01*
X98551733Y-111971969D01*
X98549312Y-111984138D01*
X98549312Y-111984139D01*
X98543357Y-112014078D01*
X98540100Y-112030452D01*
X98540100Y-112499692D01*
X98537347Y-112525889D01*
X98516827Y-112622431D01*
X98515100Y-112630554D01*
X98515100Y-112819846D01*
X98516472Y-112826299D01*
X98516472Y-112826303D01*
X98537347Y-112924511D01*
X98540100Y-112950708D01*
X98540100Y-113419948D01*
X98541307Y-113426016D01*
X98545492Y-113447053D01*
X98551733Y-113478431D01*
X98596048Y-113544752D01*
X98662369Y-113589067D01*
X98674538Y-113591488D01*
X98674539Y-113591488D01*
X98714784Y-113599493D01*
X98720852Y-113600700D01*
X99176075Y-113600700D01*
X99215012Y-113606867D01*
X99221061Y-113608833D01*
X99221065Y-113608834D01*
X99227344Y-113610874D01*
X99233911Y-113611564D01*
X99233915Y-113611565D01*
X99247029Y-113612943D01*
X99252389Y-113613506D01*
X99318046Y-113640518D01*
X99358676Y-113698739D01*
X99361380Y-113769684D01*
X99325299Y-113830829D01*
X99265418Y-113862062D01*
X99150030Y-113886589D01*
X99150021Y-113886592D01*
X99143566Y-113887964D01*
X99137536Y-113890649D01*
X99137535Y-113890649D01*
X98981469Y-113960134D01*
X98981467Y-113960135D01*
X98975439Y-113962819D01*
X98970098Y-113966699D01*
X98970097Y-113966700D01*
X98831894Y-114067110D01*
X98831892Y-114067112D01*
X98826550Y-114070993D01*
X98822129Y-114075903D01*
X98822128Y-114075904D01*
X98731389Y-114176681D01*
X98703405Y-114207760D01*
X98611386Y-114367141D01*
X98609344Y-114373426D01*
X98560259Y-114524494D01*
X98554515Y-114542171D01*
X98535278Y-114725200D01*
X98535968Y-114731765D01*
X98535968Y-114731766D01*
X98553166Y-114895396D01*
X98540394Y-114965234D01*
X98491892Y-115017081D01*
X98423059Y-115034475D01*
X98355749Y-115011894D01*
X98338761Y-114997661D01*
X94689215Y-111348116D01*
X94655189Y-111285804D01*
X94660254Y-111214989D01*
X94702801Y-111158153D01*
X94769321Y-111133342D01*
X94801597Y-111135192D01*
X94852699Y-111144802D01*
X94852704Y-111144802D01*
X94861956Y-111146542D01*
X94996566Y-111131324D01*
X95005196Y-111127562D01*
X95005198Y-111127562D01*
X95112114Y-111080962D01*
X95120750Y-111077198D01*
X95127895Y-111071063D01*
X95127897Y-111071062D01*
X95217706Y-110993951D01*
X95217708Y-110993949D01*
X95223530Y-110988950D01*
X95241879Y-110963130D01*
X95262566Y-110927300D01*
X95559510Y-110412976D01*
X96055710Y-109553530D01*
X96061247Y-109541438D01*
X96065702Y-109531710D01*
X96065703Y-109531706D01*
X96068898Y-109524729D01*
X96077306Y-109480019D01*
X96089484Y-109415254D01*
X96093933Y-109391596D01*
X96087091Y-109331067D01*
X96079773Y-109266339D01*
X96078716Y-109256986D01*
X96024590Y-109132801D01*
X95974602Y-109074583D01*
X95941342Y-109035846D01*
X95941340Y-109035845D01*
X95936341Y-109030022D01*
X95910521Y-109011673D01*
X95894985Y-109002703D01*
X95578504Y-108819983D01*
X95181320Y-108590669D01*
X97148201Y-108590669D01*
X97148571Y-108597490D01*
X97154095Y-108648352D01*
X97157721Y-108663604D01*
X97202876Y-108784054D01*
X97211414Y-108799649D01*
X97287915Y-108901724D01*
X97300476Y-108914285D01*
X97402551Y-108990786D01*
X97418146Y-108999324D01*
X97538594Y-109044478D01*
X97553849Y-109048105D01*
X97604714Y-109053631D01*
X97611528Y-109054000D01*
X98234085Y-109054000D01*
X98249324Y-109049525D01*
X98250529Y-109048135D01*
X98252200Y-109040452D01*
X98252200Y-107968115D01*
X98247725Y-107952876D01*
X98246335Y-107951671D01*
X98238652Y-107950000D01*
X97166316Y-107950000D01*
X97151077Y-107954475D01*
X97149872Y-107955865D01*
X97148201Y-107963548D01*
X97148201Y-108590669D01*
X95181320Y-108590669D01*
X94951255Y-108457841D01*
X94948548Y-108456601D01*
X94948543Y-108456599D01*
X94935259Y-108450517D01*
X94922454Y-108444654D01*
X94789320Y-108419618D01*
X94654710Y-108434836D01*
X94646080Y-108438598D01*
X94646078Y-108438598D01*
X94601928Y-108457841D01*
X94530526Y-108488962D01*
X94523381Y-108495097D01*
X94523379Y-108495098D01*
X94433570Y-108572209D01*
X94433568Y-108572211D01*
X94427746Y-108577210D01*
X94409397Y-108603030D01*
X94407917Y-108605593D01*
X94407916Y-108605595D01*
X94182824Y-108995467D01*
X93595566Y-110012630D01*
X93594332Y-110015325D01*
X93592967Y-110017969D01*
X93591862Y-110017399D01*
X93548527Y-110067302D01*
X93480385Y-110087231D01*
X93412286Y-110067156D01*
X93391425Y-110050326D01*
X93164967Y-109823868D01*
X93130941Y-109761556D01*
X93128062Y-109734773D01*
X93128062Y-108658129D01*
X93144943Y-108595129D01*
X93203254Y-108494132D01*
X93203256Y-108494129D01*
X93204849Y-108491369D01*
X93264120Y-108359484D01*
X93294836Y-108222071D01*
X93304852Y-108177264D01*
X93304852Y-108177260D01*
X93306244Y-108171035D01*
X93308229Y-108057319D01*
X93309503Y-107984345D01*
X93309503Y-107984342D01*
X93309614Y-107977966D01*
X93308328Y-107971090D01*
X93275266Y-107794434D01*
X93275265Y-107794431D01*
X93274092Y-107788163D01*
X93269017Y-107775725D01*
X93203545Y-107615291D01*
X93201132Y-107609378D01*
X93196584Y-107602583D01*
X93097262Y-107454220D01*
X93097261Y-107454218D01*
X93093711Y-107448916D01*
X93068328Y-107423885D01*
X97148200Y-107423885D01*
X97152675Y-107439124D01*
X97154065Y-107440329D01*
X97161748Y-107442000D01*
X98234085Y-107442000D01*
X98249324Y-107437525D01*
X98250529Y-107436135D01*
X98252200Y-107428452D01*
X98252200Y-106356116D01*
X98247725Y-106340877D01*
X98246335Y-106339672D01*
X98238652Y-106338001D01*
X97611531Y-106338001D01*
X97604710Y-106338371D01*
X97553848Y-106343895D01*
X97538596Y-106347521D01*
X97418146Y-106392676D01*
X97402551Y-106401214D01*
X97300476Y-106477715D01*
X97287915Y-106490276D01*
X97211414Y-106592351D01*
X97202876Y-106607946D01*
X97157722Y-106728394D01*
X97154095Y-106743649D01*
X97148569Y-106794514D01*
X97148200Y-106801328D01*
X97148200Y-107423885D01*
X93068328Y-107423885D01*
X92956220Y-107313332D01*
X92950868Y-107309856D01*
X92950865Y-107309854D01*
X92799624Y-107211637D01*
X92799622Y-107211636D01*
X92794274Y-107208163D01*
X92788339Y-107205837D01*
X92788337Y-107205836D01*
X92657389Y-107154518D01*
X92614488Y-107137705D01*
X92608203Y-107136619D01*
X92608198Y-107136618D01*
X92430501Y-107105925D01*
X92430499Y-107105925D01*
X92424207Y-107104838D01*
X92231203Y-107110904D01*
X92225000Y-107112382D01*
X92224998Y-107112382D01*
X92063698Y-107150809D01*
X92043361Y-107155654D01*
X91868355Y-107237261D01*
X91863231Y-107241066D01*
X91863230Y-107241067D01*
X91741326Y-107331601D01*
X91713332Y-107352391D01*
X91584626Y-107496342D01*
X91581171Y-107501662D01*
X91458697Y-107713794D01*
X91256072Y-108064751D01*
X91250275Y-108074791D01*
X91191004Y-108206676D01*
X91173058Y-108286961D01*
X91155545Y-108365309D01*
X91148880Y-108395124D01*
X91147631Y-108466693D01*
X91145684Y-108578237D01*
X91145510Y-108588194D01*
X91146683Y-108594460D01*
X91146683Y-108594464D01*
X91178941Y-108766826D01*
X91181032Y-108777997D01*
X91183442Y-108783903D01*
X91183443Y-108783906D01*
X91202823Y-108831396D01*
X91253992Y-108956782D01*
X91257543Y-108962087D01*
X91257546Y-108962092D01*
X91305766Y-109034122D01*
X91327062Y-109104215D01*
X91327062Y-110079175D01*
X91325511Y-110098885D01*
X91323343Y-110112574D01*
X91323688Y-110119162D01*
X91323688Y-110119166D01*
X91326889Y-110180242D01*
X91327062Y-110186836D01*
X91327062Y-110207154D01*
X91327405Y-110210421D01*
X91327406Y-110210432D01*
X91329186Y-110227362D01*
X91329703Y-110233928D01*
X91333249Y-110301608D01*
X91336740Y-110314636D01*
X91336836Y-110314993D01*
X91340440Y-110334441D01*
X91341888Y-110348218D01*
X91343928Y-110354495D01*
X91343928Y-110354497D01*
X91362827Y-110412663D01*
X91364700Y-110418987D01*
X91380532Y-110478071D01*
X91380534Y-110478077D01*
X91382242Y-110484450D01*
X91385238Y-110490329D01*
X91385239Y-110490333D01*
X91388535Y-110496802D01*
X91396098Y-110515059D01*
X91400383Y-110528246D01*
X91403683Y-110533961D01*
X91403683Y-110533962D01*
X91434265Y-110586933D01*
X91437411Y-110592728D01*
X91465181Y-110647228D01*
X91468179Y-110653111D01*
X91472333Y-110658240D01*
X91472333Y-110658241D01*
X91476901Y-110663882D01*
X91488096Y-110680171D01*
X91495029Y-110692178D01*
X91499450Y-110697088D01*
X91540377Y-110742542D01*
X91544661Y-110747558D01*
X91557443Y-110763342D01*
X91571792Y-110777691D01*
X91576333Y-110782475D01*
X91609152Y-110818924D01*
X91639869Y-110882932D01*
X91631106Y-110953385D01*
X91585643Y-111007917D01*
X91517915Y-111029212D01*
X91502895Y-111028601D01*
X91455314Y-111023810D01*
X91300556Y-111023810D01*
X91298231Y-111023983D01*
X91298225Y-111023983D01*
X91111786Y-111037838D01*
X91111782Y-111037839D01*
X91107134Y-111038184D01*
X90853368Y-111095605D01*
X90849016Y-111097297D01*
X90849014Y-111097298D01*
X90615230Y-111188212D01*
X90615228Y-111188213D01*
X90610877Y-111189905D01*
X90384988Y-111319011D01*
X90180664Y-111480087D01*
X90002392Y-111669596D01*
X89920394Y-111787795D01*
X89876612Y-111850907D01*
X89854089Y-111883373D01*
X89852023Y-111887563D01*
X89852021Y-111887566D01*
X89788240Y-112016903D01*
X89739014Y-112116723D01*
X89737592Y-112121166D01*
X89737591Y-112121168D01*
X89661119Y-112360066D01*
X89659694Y-112364518D01*
X89658944Y-112369124D01*
X89618805Y-112615590D01*
X89617872Y-112621316D01*
X89616500Y-112726149D01*
X89615260Y-112820862D01*
X89614466Y-112881475D01*
X89649552Y-113139280D01*
X89722358Y-113389067D01*
X89831286Y-113625349D01*
X89833846Y-113629254D01*
X89833849Y-113629259D01*
X89971375Y-113839022D01*
X89971379Y-113839027D01*
X89973941Y-113842935D01*
X90020590Y-113895201D01*
X90134885Y-114023257D01*
X90147191Y-114037045D01*
X90347229Y-114203415D01*
X90569661Y-114338390D01*
X90573975Y-114340199D01*
X90573977Y-114340200D01*
X90805286Y-114437196D01*
X90805291Y-114437198D01*
X90809601Y-114439005D01*
X90814133Y-114440156D01*
X90814136Y-114440157D01*
X90939415Y-114471973D01*
X91061777Y-114503049D01*
X91277886Y-114524810D01*
X91432644Y-114524810D01*
X91434969Y-114524637D01*
X91434975Y-114524637D01*
X91621414Y-114510782D01*
X91621418Y-114510781D01*
X91626066Y-114510436D01*
X91879832Y-114453015D01*
X91884186Y-114451322D01*
X92117970Y-114360408D01*
X92117972Y-114360407D01*
X92122323Y-114358715D01*
X92157885Y-114338390D01*
X92218347Y-114303833D01*
X92348212Y-114229609D01*
X92552536Y-114068533D01*
X92730808Y-113879024D01*
X92855877Y-113698739D01*
X92876446Y-113669089D01*
X92876448Y-113669086D01*
X92879111Y-113665247D01*
X92886970Y-113649310D01*
X92992121Y-113436085D01*
X92992122Y-113436082D01*
X92994186Y-113431897D01*
X92999992Y-113413761D01*
X93072083Y-113188547D01*
X93073506Y-113184102D01*
X93096343Y-113043879D01*
X93114577Y-112931916D01*
X93114577Y-112931915D01*
X93115328Y-112927304D01*
X93117458Y-112764641D01*
X93118673Y-112671822D01*
X93118673Y-112671819D01*
X93118734Y-112667145D01*
X93115192Y-112641121D01*
X93125825Y-112570927D01*
X93172720Y-112517622D01*
X93240989Y-112498134D01*
X93308958Y-112518648D01*
X93329136Y-112535035D01*
X95729912Y-114935812D01*
X98098928Y-117304828D01*
X98111763Y-117319855D01*
X98119912Y-117331071D01*
X98124815Y-117335485D01*
X98124817Y-117335488D01*
X98170277Y-117376420D01*
X98175061Y-117380961D01*
X98189420Y-117395320D01*
X98191980Y-117397393D01*
X98191981Y-117397394D01*
X98205211Y-117408108D01*
X98210221Y-117412388D01*
X98255674Y-117453313D01*
X98255679Y-117453317D01*
X98260584Y-117457733D01*
X98266300Y-117461033D01*
X98272586Y-117464662D01*
X98288883Y-117475863D01*
X98299651Y-117484583D01*
X98305531Y-117487579D01*
X98305534Y-117487581D01*
X98360037Y-117515351D01*
X98365831Y-117518497D01*
X98424516Y-117552379D01*
X98430801Y-117554421D01*
X98430805Y-117554423D01*
X98437706Y-117556666D01*
X98455963Y-117564228D01*
X98461836Y-117567220D01*
X98468313Y-117570520D01*
X98527684Y-117586429D01*
X98533763Y-117588058D01*
X98540088Y-117589931D01*
X98604544Y-117610874D01*
X98617922Y-117612280D01*
X98618331Y-117612323D01*
X98637767Y-117615926D01*
X98643892Y-117617567D01*
X98651155Y-117619513D01*
X98657754Y-117619859D01*
X98657755Y-117619859D01*
X98718820Y-117623059D01*
X98725395Y-117623576D01*
X98742334Y-117625356D01*
X98742337Y-117625356D01*
X98745608Y-117625700D01*
X98765927Y-117625700D01*
X98772521Y-117625873D01*
X98833596Y-117629074D01*
X98833600Y-117629074D01*
X98840188Y-117629419D01*
X98853877Y-117627251D01*
X98873587Y-117625700D01*
X102510792Y-117625700D01*
X102591637Y-117617203D01*
X102645293Y-117611564D01*
X102645295Y-117611564D01*
X102651856Y-117610874D01*
X102831884Y-117552379D01*
X102956511Y-117480426D01*
X102990095Y-117461036D01*
X102995816Y-117457733D01*
X103046177Y-117412388D01*
X103131585Y-117335486D01*
X103131586Y-117335484D01*
X103136488Y-117331071D01*
X103217061Y-117220171D01*
X103243870Y-117183272D01*
X103243871Y-117183271D01*
X103247751Y-117177930D01*
X103324744Y-117005003D01*
X103364100Y-116819846D01*
X103364100Y-116630554D01*
X103356686Y-116595670D01*
X103344485Y-116538274D01*
X103324744Y-116445397D01*
X103247751Y-116272470D01*
X103219030Y-116232938D01*
X103140367Y-116124668D01*
X103136488Y-116119329D01*
X103108901Y-116094489D01*
X103000724Y-115997086D01*
X103000723Y-115997085D01*
X102995816Y-115992667D01*
X102831884Y-115898021D01*
X102651856Y-115839526D01*
X102645293Y-115838836D01*
X102645292Y-115838836D01*
X102637407Y-115838007D01*
X102626811Y-115836894D01*
X102561154Y-115809882D01*
X102520524Y-115751661D01*
X102517820Y-115680716D01*
X102553901Y-115619571D01*
X102613782Y-115588338D01*
X102729170Y-115563811D01*
X102729179Y-115563808D01*
X102735634Y-115562436D01*
X102825570Y-115522394D01*
X102897731Y-115490266D01*
X102897733Y-115490265D01*
X102903761Y-115487581D01*
X102909103Y-115483700D01*
X103047306Y-115383290D01*
X103047308Y-115383288D01*
X103052650Y-115379407D01*
X103069268Y-115360951D01*
X103171376Y-115247548D01*
X103171377Y-115247547D01*
X103175795Y-115242640D01*
X103267814Y-115083259D01*
X103313712Y-114942000D01*
X103322645Y-114914508D01*
X103322645Y-114914506D01*
X103324685Y-114908229D01*
X103325686Y-114898710D01*
X103343232Y-114731765D01*
X103343922Y-114725200D01*
X103324685Y-114542171D01*
X103318942Y-114524494D01*
X103269856Y-114373426D01*
X103267814Y-114367141D01*
X103175795Y-114207760D01*
X103147812Y-114176681D01*
X103057072Y-114075904D01*
X103057071Y-114075903D01*
X103052650Y-114070993D01*
X103047308Y-114067112D01*
X103047306Y-114067110D01*
X102909103Y-113966700D01*
X102909102Y-113966699D01*
X102903761Y-113962819D01*
X102897733Y-113960135D01*
X102897731Y-113960134D01*
X102741665Y-113890649D01*
X102741664Y-113890649D01*
X102735634Y-113887964D01*
X102729173Y-113886591D01*
X102729168Y-113886589D01*
X102674395Y-113874946D01*
X102611921Y-113841218D01*
X102577600Y-113779068D01*
X102582328Y-113708229D01*
X102624604Y-113651192D01*
X102691006Y-113626065D01*
X102700592Y-113625700D01*
X105280819Y-113625700D01*
X105348940Y-113645702D01*
X105369915Y-113662605D01*
X106154849Y-114447540D01*
X106157406Y-114449611D01*
X106157412Y-114449616D01*
X106250056Y-114524637D01*
X106265080Y-114536803D01*
X106270964Y-114539801D01*
X106311161Y-114560282D01*
X106357171Y-114600278D01*
X106491861Y-114792636D01*
X106512391Y-114816758D01*
X106518625Y-114821230D01*
X106518629Y-114821233D01*
X106550557Y-114844133D01*
X106622470Y-114895713D01*
X106631398Y-114898709D01*
X106631400Y-114898710D01*
X106741967Y-114935812D01*
X106741969Y-114935812D01*
X106750899Y-114938809D01*
X106822131Y-114940613D01*
X106876907Y-114942000D01*
X106876910Y-114942000D01*
X106886322Y-114942238D01*
X107016767Y-114905694D01*
X107023446Y-114901900D01*
X107023448Y-114901899D01*
X107041724Y-114891517D01*
X107041732Y-114891512D01*
X107044309Y-114890048D01*
X107109883Y-114844133D01*
X107703486Y-114428487D01*
X107703490Y-114428484D01*
X107705912Y-114426788D01*
X107730034Y-114406259D01*
X107734505Y-114400025D01*
X107734509Y-114400021D01*
X107803499Y-114303833D01*
X107808989Y-114296179D01*
X107852085Y-114167750D01*
X107855513Y-114032327D01*
X107818969Y-113901882D01*
X107812588Y-113890649D01*
X107804789Y-113876920D01*
X107804785Y-113876914D01*
X107803323Y-113874340D01*
X107673076Y-113688328D01*
X107652646Y-113637757D01*
X107652542Y-113635775D01*
X107611805Y-113483745D01*
X107605257Y-113459306D01*
X107605257Y-113459305D01*
X107603549Y-113452932D01*
X107517612Y-113284271D01*
X107489383Y-113249411D01*
X107430423Y-113176601D01*
X107430422Y-113176599D01*
X107428349Y-113174040D01*
X107051277Y-112796968D01*
X107037160Y-112780145D01*
X107026304Y-112764641D01*
X107026298Y-112764633D01*
X107024597Y-112762204D01*
X107004067Y-112738082D01*
X106997836Y-112733613D01*
X106997833Y-112733610D01*
X106971142Y-112714466D01*
X106955485Y-112701176D01*
X106815910Y-112561601D01*
X106643414Y-112389106D01*
X106609389Y-112326793D01*
X106606509Y-112300010D01*
X106606509Y-111635181D01*
X106626511Y-111567060D01*
X106643414Y-111546085D01*
X107524096Y-110665404D01*
X107586408Y-110631379D01*
X107613191Y-110628500D01*
X108746516Y-110628500D01*
X108814637Y-110648502D01*
X108861130Y-110702158D01*
X108871234Y-110772432D01*
X108865178Y-110796870D01*
X108800088Y-110979163D01*
X108797159Y-110990734D01*
X108766820Y-111187855D01*
X108766134Y-111199768D01*
X108773616Y-111399065D01*
X108775194Y-111410892D01*
X108809950Y-111560841D01*
X108805846Y-111631719D01*
X108764074Y-111689127D01*
X108697897Y-111714837D01*
X108635101Y-111701182D01*
X108634253Y-111703180D01*
X108468939Y-111633009D01*
X108292186Y-111601206D01*
X108183603Y-111606137D01*
X108119820Y-111609033D01*
X108119817Y-111609033D01*
X108112780Y-111609353D01*
X108105988Y-111611224D01*
X108105987Y-111611224D01*
X107985602Y-111644384D01*
X107939637Y-111657045D01*
X107933436Y-111660370D01*
X107933431Y-111660372D01*
X107831856Y-111714837D01*
X107781364Y-111741911D01*
X107776047Y-111746533D01*
X107651146Y-111855107D01*
X107651144Y-111855110D01*
X107645825Y-111859733D01*
X107641662Y-111865421D01*
X107556094Y-111982335D01*
X107539757Y-112004656D01*
X107468433Y-112169476D01*
X107435397Y-112346002D01*
X107437053Y-112389106D01*
X107441990Y-112517622D01*
X107442291Y-112525461D01*
X107488773Y-112698933D01*
X107553978Y-112822604D01*
X107556250Y-112825849D01*
X107556252Y-112825852D01*
X107922418Y-113348791D01*
X107922424Y-113348799D01*
X107924436Y-113351672D01*
X107926760Y-113354308D01*
X107998857Y-113436085D01*
X108013153Y-113452301D01*
X108158813Y-113557354D01*
X108324127Y-113627526D01*
X108500880Y-113659328D01*
X108605601Y-113654573D01*
X108673246Y-113651501D01*
X108673249Y-113651501D01*
X108680286Y-113651181D01*
X108700178Y-113645702D01*
X108846640Y-113605359D01*
X108853429Y-113603489D01*
X108859630Y-113600164D01*
X108859635Y-113600162D01*
X108972267Y-113539768D01*
X109011702Y-113518623D01*
X109019852Y-113511538D01*
X109141920Y-113405427D01*
X109141922Y-113405424D01*
X109147241Y-113400801D01*
X109228223Y-113290154D01*
X109249147Y-113261565D01*
X109249148Y-113261563D01*
X109253309Y-113255878D01*
X109301823Y-113143768D01*
X109321837Y-113097520D01*
X109321838Y-113097517D01*
X109324633Y-113091058D01*
X109355279Y-112927304D01*
X109356373Y-112921458D01*
X109356373Y-112921457D01*
X109357669Y-112914532D01*
X109350775Y-112735073D01*
X109349821Y-112731514D01*
X109359235Y-112662483D01*
X109405338Y-112608491D01*
X109473311Y-112587995D01*
X109541576Y-112607502D01*
X109552922Y-112615590D01*
X109578431Y-112635991D01*
X109588415Y-112642524D01*
X109764920Y-112735387D01*
X109775955Y-112739913D01*
X109966833Y-112797724D01*
X109978539Y-112800084D01*
X110176895Y-112820757D01*
X110188833Y-112820862D01*
X110387527Y-112803652D01*
X110399264Y-112801498D01*
X110591114Y-112747029D01*
X110592068Y-112746657D01*
X110599655Y-112739554D01*
X110595143Y-112726149D01*
X109771130Y-111549337D01*
X110393324Y-111549337D01*
X110396361Y-111556588D01*
X111008857Y-112431323D01*
X111019872Y-112440128D01*
X111028373Y-112435830D01*
X111089066Y-112367109D01*
X111096091Y-112357439D01*
X111197456Y-112185699D01*
X111202524Y-112174880D01*
X111269586Y-111987064D01*
X111272515Y-111975494D01*
X111302854Y-111778373D01*
X111303540Y-111766460D01*
X111296059Y-111567164D01*
X111294481Y-111555337D01*
X111249448Y-111361054D01*
X111245655Y-111349719D01*
X111164111Y-111166137D01*
X111159905Y-111158252D01*
X111158432Y-111156034D01*
X111098537Y-111070496D01*
X111086131Y-111060579D01*
X111084299Y-111060390D01*
X111077048Y-111063427D01*
X110403430Y-111535099D01*
X110393513Y-111547505D01*
X110393324Y-111549337D01*
X109771130Y-111549337D01*
X109753355Y-111523951D01*
X109730667Y-111456677D01*
X109747952Y-111387816D01*
X109784297Y-111348467D01*
X110097213Y-111129361D01*
X110781929Y-110649918D01*
X110791846Y-110637512D01*
X110792035Y-110635680D01*
X110788998Y-110628429D01*
X110756142Y-110581505D01*
X110752478Y-110576770D01*
X110655573Y-110463108D01*
X110646998Y-110454798D01*
X110491242Y-110330237D01*
X110481259Y-110323704D01*
X110304754Y-110230841D01*
X110288163Y-110224036D01*
X110288995Y-110222007D01*
X110237771Y-110188462D01*
X110208834Y-110123630D01*
X110219542Y-110053445D01*
X110244606Y-110017676D01*
X110995944Y-109266339D01*
X111982286Y-108279997D01*
X115551636Y-108279997D01*
X115552714Y-108286960D01*
X115552714Y-108286961D01*
X115556147Y-108309134D01*
X115579111Y-108457474D01*
X115645223Y-108624453D01*
X115649200Y-108630262D01*
X115649201Y-108630263D01*
X115678383Y-108672883D01*
X115746685Y-108772636D01*
X115751850Y-108777419D01*
X115751851Y-108777420D01*
X115792722Y-108815267D01*
X115878457Y-108894658D01*
X115884554Y-108898178D01*
X115884558Y-108898181D01*
X115977616Y-108951907D01*
X116033988Y-108984453D01*
X116054447Y-108990786D01*
X116163765Y-109024626D01*
X116163772Y-109024628D01*
X116167543Y-109025795D01*
X116803603Y-109137949D01*
X116807112Y-109138170D01*
X116807114Y-109138170D01*
X116836411Y-109140013D01*
X116937491Y-109146372D01*
X116944449Y-109145245D01*
X116944450Y-109145245D01*
X117107819Y-109118785D01*
X117114771Y-109117659D01*
X117121299Y-109115022D01*
X117121301Y-109115021D01*
X117262729Y-109057880D01*
X117281285Y-109050383D01*
X117289782Y-109044478D01*
X117381216Y-108980929D01*
X117428756Y-108947888D01*
X117549855Y-108815267D01*
X117638562Y-108659114D01*
X117649027Y-108624453D01*
X117688432Y-108493936D01*
X117688432Y-108493933D01*
X117690469Y-108487188D01*
X117691903Y-108466693D01*
X117702505Y-108315067D01*
X117702997Y-108308035D01*
X117698657Y-108279997D01*
X117676599Y-108137515D01*
X117675522Y-108130558D01*
X117609410Y-107963579D01*
X117507947Y-107815396D01*
X117376176Y-107693375D01*
X117370082Y-107689856D01*
X117370077Y-107689853D01*
X117226749Y-107607103D01*
X117226748Y-107607103D01*
X117220645Y-107603579D01*
X117177454Y-107590209D01*
X117090868Y-107563406D01*
X117090861Y-107563404D01*
X117087090Y-107562237D01*
X116451030Y-107450083D01*
X116447521Y-107449862D01*
X116447519Y-107449862D01*
X116411896Y-107447621D01*
X116317141Y-107441660D01*
X116310183Y-107442787D01*
X116310182Y-107442787D01*
X116261369Y-107450693D01*
X116139861Y-107470373D01*
X116133333Y-107473010D01*
X116133331Y-107473011D01*
X116078216Y-107495279D01*
X115973347Y-107537649D01*
X115967566Y-107541667D01*
X115967564Y-107541668D01*
X115936288Y-107563406D01*
X115825877Y-107640144D01*
X115704778Y-107772765D01*
X115616070Y-107928918D01*
X115564164Y-108100844D01*
X115551636Y-108279997D01*
X111982286Y-108279997D01*
X112019228Y-108243055D01*
X112034255Y-108230220D01*
X112045471Y-108222071D01*
X112049885Y-108217168D01*
X112049888Y-108217166D01*
X112090820Y-108171706D01*
X112095361Y-108166922D01*
X112109720Y-108152563D01*
X112122513Y-108136765D01*
X112126785Y-108131763D01*
X112167716Y-108086305D01*
X112167718Y-108086303D01*
X112172133Y-108081399D01*
X112175433Y-108075683D01*
X112175436Y-108075679D01*
X112179061Y-108069400D01*
X112190260Y-108053106D01*
X112194822Y-108047472D01*
X112194824Y-108047470D01*
X112198984Y-108042332D01*
X112201986Y-108036441D01*
X112229752Y-107981946D01*
X112232900Y-107976148D01*
X112263477Y-107923188D01*
X112263481Y-107923180D01*
X112266779Y-107917467D01*
X112271065Y-107904277D01*
X112278626Y-107886025D01*
X112281921Y-107879558D01*
X112281924Y-107879551D01*
X112284920Y-107873670D01*
X112301944Y-107810140D01*
X112302458Y-107808220D01*
X112304331Y-107801896D01*
X112314943Y-107769234D01*
X112325274Y-107737439D01*
X112326723Y-107723652D01*
X112330326Y-107704216D01*
X112332202Y-107697213D01*
X112333913Y-107690828D01*
X112334735Y-107675137D01*
X112337459Y-107623163D01*
X112337976Y-107616588D01*
X112339756Y-107599649D01*
X112339756Y-107599646D01*
X112340100Y-107596375D01*
X112340100Y-107576056D01*
X112340273Y-107569462D01*
X112343474Y-107508387D01*
X112343474Y-107508383D01*
X112343819Y-107501795D01*
X112341651Y-107488106D01*
X112340100Y-107468396D01*
X112340100Y-106566915D01*
X115842786Y-106566915D01*
X115844034Y-106574494D01*
X115859879Y-106670727D01*
X115864794Y-106700581D01*
X115925134Y-106821868D01*
X116018468Y-106920051D01*
X116136546Y-106986448D01*
X116167085Y-106994860D01*
X117504128Y-107230616D01*
X117520195Y-107231909D01*
X117528046Y-107232541D01*
X117528047Y-107232541D01*
X117535702Y-107233157D01*
X117625700Y-107218339D01*
X117660071Y-107212680D01*
X117660072Y-107212680D01*
X117669369Y-107211149D01*
X117790655Y-107150809D01*
X117836663Y-107107073D01*
X117882010Y-107063966D01*
X117882011Y-107063965D01*
X117888838Y-107057475D01*
X117955236Y-106939397D01*
X117963648Y-106908858D01*
X118086598Y-106211566D01*
X118103381Y-106116387D01*
X118103381Y-106116385D01*
X118103897Y-106113460D01*
X118104315Y-106108274D01*
X118105822Y-106089541D01*
X118105822Y-106089540D01*
X118106438Y-106081885D01*
X118092411Y-105996690D01*
X118085960Y-105957509D01*
X118085959Y-105957506D01*
X118084430Y-105948219D01*
X118024090Y-105826932D01*
X117930756Y-105728749D01*
X117812678Y-105662352D01*
X117782139Y-105653940D01*
X116445096Y-105418184D01*
X116426776Y-105416710D01*
X116421178Y-105416259D01*
X116421177Y-105416259D01*
X116413522Y-105415643D01*
X116340167Y-105427721D01*
X116289153Y-105436120D01*
X116289152Y-105436120D01*
X116279855Y-105437651D01*
X116158569Y-105497991D01*
X116060386Y-105591325D01*
X115993988Y-105709403D01*
X115985576Y-105739942D01*
X115845327Y-106535340D01*
X115845089Y-106538294D01*
X115845088Y-106538304D01*
X115844228Y-106548998D01*
X115842786Y-106566915D01*
X112340100Y-106566915D01*
X112340100Y-100396589D01*
X112360102Y-100328468D01*
X112377005Y-100307494D01*
X112775513Y-99908987D01*
X118908484Y-99908987D01*
X118917374Y-100248505D01*
X118917980Y-100255721D01*
X118965835Y-100591963D01*
X118967269Y-100599074D01*
X119053455Y-100927595D01*
X119055692Y-100934478D01*
X119179064Y-101250914D01*
X119182081Y-101257503D01*
X119341002Y-101557652D01*
X119344761Y-101563860D01*
X119537129Y-101843757D01*
X119541574Y-101849486D01*
X119608743Y-101926484D01*
X119621917Y-101934888D01*
X119631767Y-101929021D01*
X120523278Y-101037511D01*
X120585590Y-101003486D01*
X120656406Y-101008551D01*
X120708182Y-101044775D01*
X120785130Y-101134870D01*
X120875225Y-101211818D01*
X120914032Y-101271266D01*
X120914540Y-101342261D01*
X120882489Y-101396722D01*
X119991472Y-102287739D01*
X119983860Y-102301681D01*
X119983878Y-102301933D01*
X119989793Y-102310677D01*
X120021111Y-102339174D01*
X120026748Y-102343738D01*
X120302544Y-102541918D01*
X120308682Y-102545813D01*
X120605435Y-102710984D01*
X120611955Y-102714136D01*
X120925738Y-102844109D01*
X120932589Y-102846495D01*
X121259212Y-102939536D01*
X121266301Y-102941120D01*
X121601465Y-102996006D01*
X121608671Y-102996763D01*
X121947926Y-103012762D01*
X121955176Y-103012686D01*
X122294010Y-102989587D01*
X122301219Y-102988676D01*
X122635160Y-102926784D01*
X122642190Y-102925057D01*
X122966819Y-102825187D01*
X122973597Y-102822667D01*
X123284603Y-102686145D01*
X123291043Y-102682864D01*
X123584293Y-102511502D01*
X123590326Y-102507493D01*
X123848828Y-102313405D01*
X123857282Y-102302078D01*
X123850539Y-102289750D01*
X122957511Y-101396722D01*
X122923486Y-101334410D01*
X122928551Y-101263594D01*
X122964775Y-101211818D01*
X123054870Y-101134870D01*
X123131818Y-101044775D01*
X123191266Y-101005968D01*
X123262261Y-101005460D01*
X123316722Y-101037511D01*
X124206270Y-101927059D01*
X124219622Y-101934349D01*
X124229594Y-101927295D01*
X124336641Y-101799267D01*
X124340957Y-101793456D01*
X124527432Y-101509575D01*
X124531046Y-101503313D01*
X124683658Y-101199882D01*
X124686530Y-101193244D01*
X124803249Y-100874293D01*
X124805345Y-100867351D01*
X124884631Y-100537103D01*
X124885915Y-100529964D01*
X124926816Y-100191973D01*
X124927240Y-100186403D01*
X124933010Y-100002797D01*
X124932937Y-99997204D01*
X124913338Y-99657303D01*
X124912506Y-99650113D01*
X124854113Y-99315529D01*
X124852458Y-99308474D01*
X124755998Y-98982834D01*
X124753540Y-98976006D01*
X124620290Y-98663608D01*
X124617073Y-98657125D01*
X124448788Y-98362089D01*
X124444856Y-98356034D01*
X124243774Y-98082295D01*
X124239166Y-98076726D01*
X124233830Y-98070984D01*
X124220178Y-98062866D01*
X124219570Y-98062887D01*
X124211094Y-98068118D01*
X123316722Y-98962489D01*
X123254410Y-98996514D01*
X123183594Y-98991449D01*
X123131818Y-98955225D01*
X123054870Y-98865130D01*
X122964775Y-98788182D01*
X122925968Y-98728734D01*
X122925460Y-98657739D01*
X122957512Y-98603278D01*
X123847074Y-97713716D01*
X123854466Y-97700179D01*
X123847679Y-97690479D01*
X123744476Y-97602335D01*
X123738704Y-97597953D01*
X123456796Y-97408519D01*
X123450575Y-97404839D01*
X123148757Y-97249060D01*
X123142146Y-97246116D01*
X122824439Y-97126065D01*
X122817513Y-97123894D01*
X122488112Y-97041155D01*
X122481005Y-97039799D01*
X122144278Y-96995468D01*
X122137036Y-96994937D01*
X121797467Y-96989602D01*
X121790205Y-96989906D01*
X121452256Y-97023638D01*
X121445108Y-97024770D01*
X121113263Y-97097124D01*
X121106285Y-97099072D01*
X120784960Y-97209086D01*
X120778253Y-97211823D01*
X120471707Y-97358039D01*
X120465349Y-97361534D01*
X120177654Y-97542005D01*
X120171731Y-97546214D01*
X119993601Y-97688923D01*
X119985132Y-97701048D01*
X119991526Y-97712314D01*
X120882489Y-98603278D01*
X120916514Y-98665590D01*
X120911449Y-98736406D01*
X120875225Y-98788182D01*
X120785130Y-98865130D01*
X120708182Y-98955225D01*
X120648734Y-98994032D01*
X120577739Y-98994540D01*
X120523278Y-98962489D01*
X119632372Y-98071583D01*
X119619581Y-98064599D01*
X119608827Y-98072464D01*
X119448037Y-98277527D01*
X119443902Y-98283476D01*
X119266440Y-98573068D01*
X119263019Y-98579447D01*
X119120016Y-98887522D01*
X119117356Y-98894241D01*
X119010711Y-99216707D01*
X119008834Y-99223711D01*
X118939961Y-99556288D01*
X118938904Y-99563449D01*
X118908712Y-99901735D01*
X118908484Y-99908987D01*
X112775513Y-99908987D01*
X113012654Y-99671846D01*
X113668739Y-99015761D01*
X113683766Y-99002926D01*
X113694982Y-98994777D01*
X113699396Y-98989874D01*
X113699399Y-98989872D01*
X113740331Y-98944412D01*
X113744872Y-98939628D01*
X113759231Y-98925269D01*
X113765050Y-98918083D01*
X113772019Y-98909478D01*
X113776299Y-98904468D01*
X113817224Y-98859015D01*
X113817228Y-98859010D01*
X113821644Y-98854105D01*
X113828573Y-98842103D01*
X113839774Y-98825806D01*
X113844337Y-98820171D01*
X113848494Y-98815038D01*
X113860666Y-98791149D01*
X113879262Y-98754655D01*
X113882408Y-98748860D01*
X113912990Y-98695889D01*
X113912990Y-98695888D01*
X113916290Y-98690173D01*
X113920575Y-98676986D01*
X113928138Y-98658729D01*
X113931434Y-98652260D01*
X113931435Y-98652256D01*
X113934431Y-98646377D01*
X113936645Y-98638114D01*
X113951971Y-98580917D01*
X113953845Y-98574591D01*
X113968816Y-98528514D01*
X113974785Y-98510145D01*
X113976233Y-98496366D01*
X113979837Y-98476919D01*
X113983424Y-98463534D01*
X113986970Y-98395869D01*
X113987487Y-98389294D01*
X113989267Y-98372355D01*
X113989267Y-98372352D01*
X113989611Y-98369081D01*
X113989611Y-98348762D01*
X113989784Y-98342168D01*
X113992985Y-98281093D01*
X113992985Y-98281089D01*
X113993330Y-98274501D01*
X113991162Y-98260812D01*
X113989611Y-98241102D01*
X113989611Y-91833898D01*
X113991162Y-91814187D01*
X113992298Y-91807015D01*
X113993330Y-91800499D01*
X113991031Y-91756621D01*
X113989784Y-91732838D01*
X113989611Y-91726244D01*
X113989611Y-91705919D01*
X113989267Y-91702645D01*
X113987486Y-91685696D01*
X113986969Y-91679122D01*
X113983769Y-91618066D01*
X113983769Y-91618065D01*
X113983423Y-91611465D01*
X113979837Y-91598082D01*
X113976234Y-91578644D01*
X113975475Y-91571423D01*
X113974785Y-91564855D01*
X113953840Y-91500392D01*
X113951971Y-91494084D01*
X113936138Y-91434995D01*
X113934431Y-91428623D01*
X113928138Y-91416271D01*
X113920575Y-91398014D01*
X113920134Y-91396658D01*
X113916290Y-91384827D01*
X113902291Y-91360579D01*
X113882408Y-91326140D01*
X113879262Y-91320345D01*
X113851492Y-91265845D01*
X113851490Y-91265842D01*
X113848494Y-91259962D01*
X113839772Y-91249191D01*
X113828577Y-91232902D01*
X113821644Y-91220895D01*
X113798629Y-91195334D01*
X113776296Y-91170531D01*
X113772012Y-91165515D01*
X113761306Y-91152295D01*
X113759230Y-91149731D01*
X113744881Y-91135382D01*
X113740340Y-91130598D01*
X113699397Y-91085126D01*
X113699395Y-91085125D01*
X113694982Y-91080223D01*
X113683760Y-91072070D01*
X113668732Y-91059233D01*
X112231757Y-89622258D01*
X112218920Y-89607230D01*
X112210767Y-89596008D01*
X112160392Y-89550650D01*
X112155608Y-89546109D01*
X112141259Y-89531760D01*
X112133801Y-89525721D01*
X112125475Y-89518978D01*
X112120459Y-89514694D01*
X112075005Y-89473767D01*
X112070095Y-89469346D01*
X112058088Y-89462413D01*
X112041799Y-89451218D01*
X112036158Y-89446650D01*
X112036157Y-89446650D01*
X112031028Y-89442496D01*
X112025148Y-89439500D01*
X112025145Y-89439498D01*
X111970645Y-89411728D01*
X111964850Y-89408582D01*
X111911879Y-89378000D01*
X111911878Y-89378000D01*
X111906163Y-89374700D01*
X111892976Y-89370415D01*
X111874719Y-89362852D01*
X111868250Y-89359556D01*
X111868246Y-89359555D01*
X111862367Y-89356559D01*
X111855994Y-89354851D01*
X111855988Y-89354849D01*
X111796904Y-89339017D01*
X111790580Y-89337144D01*
X111732414Y-89318245D01*
X111732412Y-89318245D01*
X111726135Y-89316205D01*
X111719574Y-89315515D01*
X111719572Y-89315515D01*
X111712358Y-89314757D01*
X111692916Y-89311154D01*
X111679525Y-89307566D01*
X111672936Y-89307221D01*
X111672931Y-89307220D01*
X111641506Y-89305574D01*
X111611845Y-89304020D01*
X111605279Y-89303503D01*
X111588349Y-89301723D01*
X111588338Y-89301722D01*
X111585071Y-89301379D01*
X111564753Y-89301379D01*
X111558159Y-89301206D01*
X111497083Y-89298005D01*
X111497079Y-89298005D01*
X111490491Y-89297660D01*
X111483975Y-89298692D01*
X111476803Y-89299828D01*
X111457092Y-89301379D01*
X89710908Y-89301379D01*
X89691197Y-89299828D01*
X89684025Y-89298692D01*
X89677509Y-89297660D01*
X89670922Y-89298005D01*
X89670917Y-89298005D01*
X89609848Y-89301206D01*
X89603254Y-89301379D01*
X89582929Y-89301379D01*
X89579657Y-89301723D01*
X89579655Y-89301723D01*
X89562706Y-89303504D01*
X89556132Y-89304021D01*
X89495076Y-89307221D01*
X89495075Y-89307221D01*
X89488475Y-89307567D01*
X89476661Y-89310733D01*
X89475092Y-89311153D01*
X89455654Y-89314756D01*
X89455208Y-89314803D01*
X89441865Y-89316205D01*
X89377402Y-89337150D01*
X89371101Y-89339017D01*
X89305633Y-89356559D01*
X89299754Y-89359555D01*
X89299750Y-89359556D01*
X89293281Y-89362852D01*
X89275024Y-89370415D01*
X89261837Y-89374700D01*
X89256122Y-89378000D01*
X89256121Y-89378000D01*
X89203150Y-89408582D01*
X89197355Y-89411728D01*
X89142855Y-89439498D01*
X89142852Y-89439500D01*
X89136972Y-89442496D01*
X89131843Y-89446650D01*
X89131842Y-89446650D01*
X89126201Y-89451218D01*
X89109912Y-89462413D01*
X89097905Y-89469346D01*
X89092995Y-89473767D01*
X89047541Y-89514694D01*
X89042525Y-89518978D01*
X89034199Y-89525721D01*
X89026741Y-89531760D01*
X89012392Y-89546109D01*
X89007608Y-89550650D01*
X88957233Y-89596008D01*
X88949080Y-89607230D01*
X88936243Y-89622258D01*
X85780379Y-92778122D01*
X85765351Y-92790959D01*
X85754129Y-92799112D01*
X85749716Y-92804014D01*
X85749714Y-92804015D01*
X85708771Y-92849487D01*
X85704230Y-92854271D01*
X85689881Y-92868620D01*
X85687805Y-92871184D01*
X85677099Y-92884404D01*
X85672815Y-92889420D01*
X85627467Y-92939784D01*
X85620534Y-92951791D01*
X85609339Y-92968080D01*
X85600617Y-92978851D01*
X85597621Y-92984731D01*
X85597619Y-92984734D01*
X85569849Y-93039234D01*
X85566703Y-93045029D01*
X85536121Y-93098000D01*
X85532821Y-93103716D01*
X85528977Y-93115547D01*
X85528536Y-93116903D01*
X85520973Y-93135160D01*
X85514680Y-93147512D01*
X85512972Y-93153885D01*
X85512970Y-93153891D01*
X85497138Y-93212975D01*
X85495265Y-93219299D01*
X85481502Y-93261658D01*
X85474326Y-93283744D01*
X85473636Y-93290305D01*
X85473636Y-93290307D01*
X85472878Y-93297521D01*
X85469275Y-93316963D01*
X85465687Y-93330354D01*
X85465342Y-93336943D01*
X85465341Y-93336948D01*
X85462142Y-93398017D01*
X85461624Y-93404600D01*
X85459844Y-93421530D01*
X85459843Y-93421541D01*
X85459500Y-93424808D01*
X85459500Y-93445126D01*
X85459327Y-93451720D01*
X85456892Y-93498193D01*
X85455781Y-93519388D01*
X85456813Y-93525904D01*
X85457949Y-93533076D01*
X85459500Y-93552787D01*
X85459500Y-97872809D01*
X85439498Y-97940930D01*
X85422596Y-97961904D01*
X84582706Y-98801795D01*
X84520393Y-98835820D01*
X84493610Y-98838700D01*
X83629208Y-98838700D01*
X83548363Y-98847197D01*
X83494707Y-98852836D01*
X83494705Y-98852836D01*
X83488144Y-98853526D01*
X83308116Y-98912021D01*
X83291143Y-98921821D01*
X83228144Y-98938701D01*
X82997566Y-98938701D01*
X82994616Y-98938980D01*
X82994611Y-98938980D01*
X82973679Y-98940958D01*
X82973677Y-98940958D01*
X82966030Y-98941681D01*
X82908660Y-98961828D01*
X82847102Y-98983445D01*
X82847099Y-98983446D01*
X82838216Y-98986566D01*
X82729250Y-99067050D01*
X82648766Y-99176016D01*
X82645646Y-99184899D01*
X82645645Y-99184902D01*
X82616080Y-99269093D01*
X82603881Y-99303830D01*
X82600900Y-99335365D01*
X82600901Y-100143034D01*
X82601180Y-100145984D01*
X82601180Y-100145989D01*
X82603093Y-100166228D01*
X82603881Y-100174570D01*
X82622370Y-100227220D01*
X82640731Y-100279503D01*
X82648766Y-100302384D01*
X82729250Y-100411350D01*
X82838216Y-100491834D01*
X82847099Y-100494954D01*
X82847102Y-100494955D01*
X82923974Y-100521950D01*
X82966030Y-100536719D01*
X82973672Y-100537441D01*
X82973675Y-100537442D01*
X82984034Y-100538421D01*
X82997565Y-100539700D01*
X83228144Y-100539700D01*
X83291142Y-100556580D01*
X83302390Y-100563074D01*
X83302397Y-100563077D01*
X83308116Y-100566379D01*
X83488144Y-100624874D01*
X83494705Y-100625564D01*
X83494707Y-100625564D01*
X83548363Y-100631203D01*
X83629208Y-100639700D01*
X84838013Y-100639700D01*
X84857723Y-100641251D01*
X84871412Y-100643419D01*
X84878000Y-100643074D01*
X84878004Y-100643074D01*
X84939080Y-100639873D01*
X84945674Y-100639700D01*
X84965992Y-100639700D01*
X84969259Y-100639357D01*
X84969270Y-100639356D01*
X84986200Y-100637576D01*
X84992766Y-100637059D01*
X85022427Y-100635505D01*
X85053852Y-100633859D01*
X85053857Y-100633858D01*
X85060446Y-100633513D01*
X85073837Y-100629925D01*
X85093279Y-100626322D01*
X85100493Y-100625564D01*
X85100495Y-100625564D01*
X85107056Y-100624874D01*
X85113330Y-100622835D01*
X85113332Y-100622835D01*
X85121010Y-100620340D01*
X85191978Y-100618312D01*
X85252776Y-100654975D01*
X85284101Y-100718687D01*
X85276009Y-100789221D01*
X85249042Y-100829268D01*
X80166532Y-105911779D01*
X80104220Y-105945805D01*
X80077437Y-105948684D01*
X78699215Y-105948684D01*
X78631094Y-105928682D01*
X78604992Y-105906338D01*
X78597631Y-105898047D01*
X78592955Y-105892780D01*
X78542515Y-105856668D01*
X78473740Y-105807430D01*
X78446930Y-105788236D01*
X78281372Y-105718641D01*
X78270943Y-105716802D01*
X78111441Y-105688677D01*
X78111438Y-105688677D01*
X78104509Y-105687455D01*
X77964868Y-105694285D01*
X77328808Y-105806439D01*
X77282372Y-105820106D01*
X77206873Y-105842326D01*
X77206870Y-105842327D01*
X77200113Y-105844316D01*
X77193962Y-105847754D01*
X77193959Y-105847755D01*
X77120731Y-105888681D01*
X77043345Y-105931931D01*
X76909882Y-106052101D01*
X76864534Y-106116387D01*
X76815704Y-106185609D01*
X76806361Y-106198853D01*
X76803679Y-106205361D01*
X76803678Y-106205362D01*
X76741542Y-106356116D01*
X76737924Y-106364893D01*
X76707973Y-106541969D01*
X75334202Y-106541969D01*
X74916582Y-103997271D01*
X74917081Y-103997189D01*
X74916739Y-103996279D01*
X74919140Y-103981088D01*
X74912241Y-103967561D01*
X74909919Y-103949634D01*
X74909025Y-103946665D01*
X74798985Y-103176408D01*
X74798493Y-103172529D01*
X74708692Y-102365881D01*
X74708319Y-102361989D01*
X74663297Y-101799267D01*
X74643582Y-101552850D01*
X74643332Y-101548956D01*
X74642230Y-101526396D01*
X74603734Y-100738234D01*
X74603604Y-100734339D01*
X74602194Y-100654975D01*
X74592999Y-100137672D01*
X74589180Y-99922794D01*
X74589171Y-99918884D01*
X74589302Y-99908987D01*
X75068484Y-99908987D01*
X75077374Y-100248505D01*
X75077980Y-100255721D01*
X75125835Y-100591963D01*
X75127269Y-100599074D01*
X75213455Y-100927595D01*
X75215692Y-100934478D01*
X75339064Y-101250914D01*
X75342081Y-101257503D01*
X75501002Y-101557652D01*
X75504761Y-101563860D01*
X75697129Y-101843757D01*
X75701574Y-101849486D01*
X75768743Y-101926484D01*
X75781917Y-101934888D01*
X75791767Y-101929021D01*
X76683278Y-101037511D01*
X76745590Y-101003486D01*
X76816406Y-101008551D01*
X76868182Y-101044775D01*
X76945130Y-101134870D01*
X77035225Y-101211818D01*
X77074032Y-101271266D01*
X77074540Y-101342261D01*
X77042489Y-101396722D01*
X76151472Y-102287739D01*
X76143860Y-102301681D01*
X76143878Y-102301933D01*
X76149793Y-102310677D01*
X76181111Y-102339174D01*
X76186748Y-102343738D01*
X76462544Y-102541918D01*
X76468682Y-102545813D01*
X76765435Y-102710984D01*
X76771955Y-102714136D01*
X77085738Y-102844109D01*
X77092589Y-102846495D01*
X77419212Y-102939536D01*
X77426301Y-102941120D01*
X77761465Y-102996006D01*
X77768671Y-102996763D01*
X78107926Y-103012762D01*
X78115176Y-103012686D01*
X78454010Y-102989587D01*
X78461219Y-102988676D01*
X78795160Y-102926784D01*
X78802190Y-102925057D01*
X79126819Y-102825187D01*
X79133597Y-102822667D01*
X79444603Y-102686145D01*
X79451043Y-102682864D01*
X79744293Y-102511502D01*
X79750326Y-102507493D01*
X80008828Y-102313405D01*
X80017282Y-102302078D01*
X80010539Y-102289750D01*
X79117511Y-101396722D01*
X79083486Y-101334410D01*
X79088551Y-101263594D01*
X79124775Y-101211818D01*
X79214870Y-101134870D01*
X79291818Y-101044775D01*
X79351266Y-101005968D01*
X79422261Y-101005460D01*
X79476722Y-101037511D01*
X80366270Y-101927059D01*
X80379622Y-101934349D01*
X80389594Y-101927295D01*
X80496641Y-101799267D01*
X80500957Y-101793456D01*
X80687432Y-101509575D01*
X80691046Y-101503313D01*
X80843658Y-101199882D01*
X80846530Y-101193244D01*
X80963249Y-100874293D01*
X80965345Y-100867351D01*
X81044631Y-100537103D01*
X81045915Y-100529964D01*
X81086816Y-100191973D01*
X81087240Y-100186403D01*
X81093010Y-100002797D01*
X81092937Y-99997204D01*
X81073338Y-99657303D01*
X81072506Y-99650113D01*
X81014113Y-99315529D01*
X81012458Y-99308474D01*
X80915998Y-98982834D01*
X80913540Y-98976006D01*
X80780290Y-98663608D01*
X80777073Y-98657125D01*
X80608788Y-98362089D01*
X80604856Y-98356034D01*
X80403774Y-98082295D01*
X80399166Y-98076726D01*
X80393830Y-98070984D01*
X80380178Y-98062866D01*
X80379570Y-98062887D01*
X80371094Y-98068118D01*
X79476722Y-98962489D01*
X79414410Y-98996514D01*
X79343594Y-98991449D01*
X79291818Y-98955225D01*
X79214870Y-98865130D01*
X79124775Y-98788182D01*
X79085968Y-98728734D01*
X79085460Y-98657739D01*
X79117512Y-98603278D01*
X80007074Y-97713716D01*
X80014466Y-97700179D01*
X80007679Y-97690479D01*
X79904476Y-97602335D01*
X79898704Y-97597953D01*
X79616796Y-97408519D01*
X79610575Y-97404839D01*
X79308757Y-97249060D01*
X79302146Y-97246116D01*
X78984439Y-97126065D01*
X78977513Y-97123894D01*
X78648112Y-97041155D01*
X78641005Y-97039799D01*
X78304278Y-96995468D01*
X78297036Y-96994937D01*
X77957467Y-96989602D01*
X77950205Y-96989906D01*
X77612256Y-97023638D01*
X77605108Y-97024770D01*
X77273263Y-97097124D01*
X77266285Y-97099072D01*
X76944960Y-97209086D01*
X76938253Y-97211823D01*
X76631707Y-97358039D01*
X76625349Y-97361534D01*
X76337654Y-97542005D01*
X76331731Y-97546214D01*
X76153601Y-97688923D01*
X76145132Y-97701048D01*
X76151526Y-97712314D01*
X77042489Y-98603278D01*
X77076514Y-98665590D01*
X77071449Y-98736406D01*
X77035225Y-98788182D01*
X76945130Y-98865130D01*
X76868182Y-98955225D01*
X76808734Y-98994032D01*
X76737739Y-98994540D01*
X76683278Y-98962489D01*
X75792372Y-98071583D01*
X75779581Y-98064599D01*
X75768827Y-98072464D01*
X75608037Y-98277527D01*
X75603902Y-98283476D01*
X75426440Y-98573068D01*
X75423019Y-98579447D01*
X75280016Y-98887522D01*
X75277356Y-98894241D01*
X75170711Y-99216707D01*
X75168834Y-99223711D01*
X75099961Y-99556288D01*
X75098904Y-99563449D01*
X75068712Y-99901735D01*
X75068484Y-99908987D01*
X74589302Y-99908987D01*
X74592680Y-99654267D01*
X74599759Y-99120426D01*
X74605102Y-99105460D01*
X74604657Y-99103942D01*
X74605146Y-99102435D01*
X74600685Y-99088707D01*
X74616995Y-98762061D01*
X74618246Y-98749562D01*
X74624304Y-98709392D01*
X74657426Y-98489743D01*
X74668123Y-98418804D01*
X74670614Y-98406487D01*
X74753189Y-98082345D01*
X74756894Y-98070337D01*
X74757983Y-98067347D01*
X74871356Y-97756009D01*
X74876237Y-97744436D01*
X74897143Y-97701048D01*
X75021431Y-97443093D01*
X75027435Y-97432072D01*
X75201942Y-97146663D01*
X75209011Y-97136301D01*
X75228103Y-97111112D01*
X75282153Y-97039799D01*
X75411063Y-96869717D01*
X75419143Y-96860093D01*
X75646746Y-96614960D01*
X75655745Y-96606189D01*
X75906636Y-96384945D01*
X75916465Y-96377114D01*
X76181278Y-96186897D01*
X76182080Y-96186321D01*
X76196034Y-96182626D01*
X76206562Y-96169704D01*
X76209499Y-96167807D01*
X76209501Y-96167807D01*
X76459183Y-96006599D01*
X82326112Y-96006599D01*
X82347594Y-96095737D01*
X82351483Y-96107032D01*
X82434029Y-96288582D01*
X82439976Y-96298924D01*
X82555368Y-96461597D01*
X82563161Y-96470625D01*
X82707231Y-96608542D01*
X82716596Y-96615938D01*
X82884141Y-96724121D01*
X82894742Y-96729615D01*
X83037505Y-96787151D01*
X83093211Y-96831166D01*
X83116277Y-96898311D01*
X83099380Y-96967268D01*
X83052178Y-97010876D01*
X83053327Y-97012715D01*
X82901025Y-97107884D01*
X82858877Y-97149739D01*
X82778590Y-97229467D01*
X82778587Y-97229471D01*
X82773593Y-97234430D01*
X82769819Y-97240376D01*
X82769818Y-97240378D01*
X82764191Y-97249245D01*
X82677363Y-97386064D01*
X82673115Y-97397995D01*
X82619481Y-97548614D01*
X82619480Y-97548619D01*
X82617119Y-97555249D01*
X82616286Y-97562235D01*
X82616285Y-97562239D01*
X82608201Y-97630038D01*
X82595855Y-97733576D01*
X82596591Y-97740579D01*
X82596591Y-97740580D01*
X82613867Y-97904948D01*
X82614627Y-97912183D01*
X82616898Y-97918854D01*
X82666514Y-98064599D01*
X82672503Y-98082193D01*
X82766606Y-98235155D01*
X82771532Y-98240186D01*
X82771535Y-98240189D01*
X82832376Y-98302317D01*
X82892259Y-98363468D01*
X82898184Y-98367287D01*
X82898186Y-98367288D01*
X83000221Y-98433045D01*
X83043217Y-98460754D01*
X83049837Y-98463163D01*
X83049840Y-98463165D01*
X83205361Y-98519770D01*
X83205364Y-98519771D01*
X83211978Y-98522178D01*
X83238521Y-98525531D01*
X83346755Y-98539204D01*
X83346758Y-98539204D01*
X83350683Y-98539700D01*
X83996555Y-98539700D01*
X84129872Y-98524746D01*
X84137247Y-98522178D01*
X84211366Y-98496367D01*
X84299473Y-98465685D01*
X84307365Y-98460754D01*
X84445801Y-98374249D01*
X84451775Y-98370516D01*
X84515765Y-98306971D01*
X84574210Y-98248933D01*
X84574213Y-98248929D01*
X84579207Y-98243970D01*
X84589894Y-98227131D01*
X84671658Y-98098290D01*
X84675437Y-98092336D01*
X84686288Y-98061864D01*
X84733319Y-97929786D01*
X84733320Y-97929781D01*
X84735681Y-97923151D01*
X84736514Y-97916165D01*
X84736515Y-97916161D01*
X84753011Y-97777817D01*
X84756945Y-97744824D01*
X84754653Y-97723016D01*
X84738910Y-97573225D01*
X84738909Y-97573221D01*
X84738173Y-97566217D01*
X84718080Y-97507193D01*
X84682568Y-97402877D01*
X84682567Y-97402874D01*
X84680297Y-97396207D01*
X84586194Y-97243245D01*
X84581268Y-97238214D01*
X84581265Y-97238211D01*
X84494626Y-97149739D01*
X84460541Y-97114932D01*
X84443813Y-97104151D01*
X84376071Y-97060495D01*
X84309583Y-97017646D01*
X84306119Y-97016385D01*
X84254973Y-96969081D01*
X84237187Y-96900348D01*
X84259385Y-96832911D01*
X84314518Y-96788180D01*
X84327653Y-96783524D01*
X84358997Y-96774329D01*
X84370075Y-96769898D01*
X84547378Y-96678581D01*
X84557424Y-96672131D01*
X84714257Y-96548938D01*
X84722906Y-96540701D01*
X84853612Y-96390077D01*
X84860547Y-96380353D01*
X84960410Y-96207733D01*
X84965384Y-96196869D01*
X85030807Y-96008473D01*
X85031048Y-96007484D01*
X85029580Y-95997192D01*
X85016015Y-95993200D01*
X82340998Y-95993200D01*
X82327467Y-95997173D01*
X82326112Y-96006599D01*
X76459183Y-96006599D01*
X77288857Y-95470916D01*
X82321752Y-95470916D01*
X82323220Y-95481208D01*
X82336785Y-95485200D01*
X83404285Y-95485200D01*
X83419524Y-95480725D01*
X83420729Y-95479335D01*
X83422400Y-95471652D01*
X83422400Y-95467085D01*
X83930400Y-95467085D01*
X83934875Y-95482324D01*
X83936265Y-95483529D01*
X83943948Y-95485200D01*
X85011802Y-95485200D01*
X85025333Y-95481227D01*
X85026688Y-95471801D01*
X85005206Y-95382663D01*
X85001317Y-95371368D01*
X84918771Y-95189818D01*
X84912824Y-95179476D01*
X84797432Y-95016803D01*
X84789639Y-95007775D01*
X84645569Y-94869858D01*
X84636204Y-94862462D01*
X84468659Y-94754279D01*
X84458055Y-94748783D01*
X84273088Y-94674239D01*
X84261630Y-94670845D01*
X84064472Y-94632343D01*
X84055609Y-94631266D01*
X84052900Y-94631200D01*
X83948515Y-94631200D01*
X83933276Y-94635675D01*
X83932071Y-94637065D01*
X83930400Y-94644748D01*
X83930400Y-95467085D01*
X83422400Y-95467085D01*
X83422400Y-94649315D01*
X83417925Y-94634076D01*
X83416535Y-94632871D01*
X83408852Y-94631200D01*
X83351568Y-94631200D01*
X83345592Y-94631485D01*
X83196906Y-94645671D01*
X83185172Y-94647930D01*
X82993801Y-94704072D01*
X82982725Y-94708502D01*
X82805422Y-94799819D01*
X82795376Y-94806269D01*
X82638543Y-94929462D01*
X82629894Y-94937699D01*
X82499188Y-95088323D01*
X82492253Y-95098047D01*
X82392390Y-95270667D01*
X82387416Y-95281531D01*
X82321993Y-95469927D01*
X82321752Y-95470916D01*
X77288857Y-95470916D01*
X81039864Y-93049063D01*
X81048794Y-93044634D01*
X81054724Y-93040280D01*
X81071754Y-93034109D01*
X81073209Y-93031958D01*
X81276154Y-92851428D01*
X81455535Y-92644182D01*
X81606460Y-92415380D01*
X81726368Y-92168904D01*
X81813226Y-91908934D01*
X81865560Y-91639881D01*
X81881284Y-91385672D01*
X81882229Y-91370399D01*
X81882229Y-91370398D01*
X81882482Y-91366308D01*
X81863705Y-91092856D01*
X81809549Y-90824164D01*
X81785135Y-90752708D01*
X81722255Y-90568666D01*
X81722253Y-90568661D01*
X81720930Y-90564789D01*
X81599354Y-90319131D01*
X81446881Y-90091358D01*
X81267730Y-89887191D01*
X81266552Y-89884880D01*
X81251717Y-89877321D01*
X79440924Y-88066528D01*
X79441221Y-88066231D01*
X79440544Y-88065782D01*
X79433365Y-88051692D01*
X79424530Y-88047191D01*
X79423311Y-88044799D01*
X79421980Y-88045891D01*
X79421979Y-88045891D01*
X79380364Y-87995183D01*
X81091693Y-87995183D01*
X81129645Y-88170718D01*
X81205543Y-88333483D01*
X81291233Y-88443953D01*
X81747932Y-88900652D01*
X81750675Y-88902841D01*
X81750682Y-88902848D01*
X81825197Y-88962332D01*
X81852776Y-88984348D01*
X81859119Y-88987414D01*
X81859120Y-88987415D01*
X81940668Y-89026837D01*
X82014464Y-89062511D01*
X82189453Y-89102910D01*
X82196491Y-89102935D01*
X82196495Y-89102935D01*
X82281391Y-89103231D01*
X82369042Y-89103537D01*
X82456675Y-89083949D01*
X82537429Y-89065898D01*
X82537430Y-89065898D01*
X82544309Y-89064360D01*
X82706539Y-88987327D01*
X82712076Y-88982970D01*
X82842132Y-88880627D01*
X82842134Y-88880625D01*
X82847672Y-88876267D01*
X82960692Y-88736699D01*
X82963806Y-88730371D01*
X83036873Y-88581880D01*
X83036874Y-88581878D01*
X83039983Y-88575559D01*
X83081602Y-88400858D01*
X83083483Y-88221277D01*
X83045531Y-88045742D01*
X82969633Y-87882977D01*
X82883943Y-87772507D01*
X82427244Y-87315808D01*
X82424501Y-87313619D01*
X82424494Y-87313612D01*
X82327904Y-87236506D01*
X82322400Y-87232112D01*
X82309987Y-87226111D01*
X82167054Y-87157015D01*
X82167055Y-87157015D01*
X82160712Y-87153949D01*
X81985723Y-87113550D01*
X81978685Y-87113525D01*
X81978681Y-87113525D01*
X81893785Y-87113229D01*
X81806134Y-87112923D01*
X81796243Y-87115134D01*
X81637747Y-87150562D01*
X81637746Y-87150562D01*
X81630867Y-87152100D01*
X81468637Y-87229133D01*
X81463101Y-87233489D01*
X81463100Y-87233490D01*
X81333044Y-87335833D01*
X81333042Y-87335835D01*
X81327504Y-87340193D01*
X81214484Y-87479761D01*
X81211371Y-87486087D01*
X81211370Y-87486089D01*
X81164097Y-87582161D01*
X81135193Y-87640901D01*
X81133561Y-87647750D01*
X81133561Y-87647751D01*
X81132624Y-87651684D01*
X81093574Y-87815602D01*
X81091693Y-87995183D01*
X79380364Y-87995183D01*
X79325668Y-87928535D01*
X79311950Y-87908005D01*
X79298573Y-87882977D01*
X79240480Y-87774293D01*
X79231028Y-87751476D01*
X79212175Y-87689323D01*
X79187015Y-87606384D01*
X79182198Y-87582161D01*
X79167338Y-87431280D01*
X79167338Y-87406584D01*
X79169008Y-87389634D01*
X79182199Y-87255704D01*
X79187016Y-87231481D01*
X79231029Y-87086389D01*
X79240481Y-87063572D01*
X79311952Y-86929860D01*
X79325668Y-86909333D01*
X79421979Y-86791977D01*
X79421980Y-86791977D01*
X79424242Y-86793833D01*
X79426813Y-86789514D01*
X79433365Y-86786176D01*
X79440259Y-86772646D01*
X79451098Y-86762409D01*
X79454801Y-86757463D01*
X79631295Y-86580969D01*
X82505907Y-86580969D01*
X82543859Y-86756504D01*
X82619757Y-86919269D01*
X82624074Y-86924835D01*
X82624075Y-86924836D01*
X82645362Y-86952278D01*
X82705447Y-87029739D01*
X83162146Y-87486438D01*
X83164889Y-87488627D01*
X83164896Y-87488634D01*
X83198140Y-87515172D01*
X83266990Y-87570134D01*
X83273333Y-87573200D01*
X83273334Y-87573201D01*
X83341983Y-87606387D01*
X83428678Y-87648297D01*
X83603667Y-87688696D01*
X83610705Y-87688721D01*
X83610709Y-87688721D01*
X83695605Y-87689017D01*
X83783256Y-87689323D01*
X83870889Y-87669735D01*
X83951643Y-87651684D01*
X83951644Y-87651684D01*
X83958523Y-87650146D01*
X84120753Y-87573113D01*
X84126290Y-87568756D01*
X84256346Y-87466413D01*
X84256348Y-87466411D01*
X84261886Y-87462053D01*
X84374906Y-87322485D01*
X84420841Y-87229133D01*
X84451087Y-87167666D01*
X84451088Y-87167664D01*
X84454197Y-87161345D01*
X84456400Y-87152100D01*
X84472053Y-87086392D01*
X84495816Y-86986644D01*
X84497697Y-86807063D01*
X84459745Y-86631528D01*
X84383847Y-86468763D01*
X84298157Y-86358293D01*
X83841458Y-85901594D01*
X83838715Y-85899405D01*
X83838708Y-85899398D01*
X83742118Y-85822292D01*
X83736614Y-85817898D01*
X83724201Y-85811897D01*
X83581268Y-85742801D01*
X83581269Y-85742801D01*
X83574926Y-85739735D01*
X83399937Y-85699336D01*
X83392899Y-85699311D01*
X83392895Y-85699311D01*
X83307999Y-85699015D01*
X83220348Y-85698709D01*
X83132715Y-85718297D01*
X83051961Y-85736348D01*
X83051960Y-85736348D01*
X83045081Y-85737886D01*
X82882851Y-85814919D01*
X82877315Y-85819275D01*
X82877314Y-85819276D01*
X82747258Y-85921619D01*
X82747256Y-85921621D01*
X82741718Y-85925979D01*
X82628698Y-86065547D01*
X82549407Y-86226687D01*
X82507788Y-86401388D01*
X82505907Y-86580969D01*
X79631295Y-86580969D01*
X81045508Y-85166756D01*
X83920120Y-85166756D01*
X83958072Y-85342291D01*
X84033970Y-85505056D01*
X84119660Y-85615526D01*
X84576359Y-86072225D01*
X84579102Y-86074414D01*
X84579109Y-86074421D01*
X84653624Y-86133905D01*
X84681203Y-86155921D01*
X84687546Y-86158987D01*
X84687547Y-86158988D01*
X84769095Y-86198410D01*
X84842891Y-86234084D01*
X85017880Y-86274483D01*
X85024918Y-86274508D01*
X85024922Y-86274508D01*
X85109818Y-86274804D01*
X85197469Y-86275110D01*
X85285102Y-86255522D01*
X85365856Y-86237471D01*
X85365857Y-86237471D01*
X85372736Y-86235933D01*
X85534966Y-86158900D01*
X85540503Y-86154543D01*
X85670559Y-86052200D01*
X85670561Y-86052198D01*
X85676099Y-86047840D01*
X85789119Y-85908272D01*
X85868410Y-85747132D01*
X85910029Y-85572431D01*
X85911910Y-85392850D01*
X85873958Y-85217315D01*
X85798060Y-85054550D01*
X85712370Y-84944080D01*
X85255671Y-84487381D01*
X85252928Y-84485192D01*
X85252921Y-84485185D01*
X85156331Y-84408079D01*
X85150827Y-84403685D01*
X85138414Y-84397684D01*
X84995481Y-84328588D01*
X84995482Y-84328588D01*
X84989139Y-84325522D01*
X84814150Y-84285123D01*
X84807112Y-84285098D01*
X84807108Y-84285098D01*
X84722212Y-84284802D01*
X84634561Y-84284496D01*
X84624670Y-84286707D01*
X84466174Y-84322135D01*
X84466173Y-84322135D01*
X84459294Y-84323673D01*
X84297064Y-84400706D01*
X84291528Y-84405062D01*
X84291527Y-84405063D01*
X84161471Y-84507406D01*
X84161469Y-84507408D01*
X84155931Y-84511766D01*
X84042911Y-84651334D01*
X84039798Y-84657660D01*
X84039797Y-84657662D01*
X84033886Y-84669676D01*
X83963620Y-84812474D01*
X83922001Y-84987175D01*
X83921927Y-84994218D01*
X83921927Y-84994220D01*
X83921354Y-85048983D01*
X83920120Y-85166756D01*
X81045508Y-85166756D01*
X82541129Y-83671135D01*
X85185211Y-83671135D01*
X85205351Y-83805096D01*
X85209426Y-83813583D01*
X85209427Y-83813585D01*
X85260667Y-83920293D01*
X85263990Y-83927213D01*
X85284181Y-83951619D01*
X86244199Y-84911635D01*
X86268605Y-84931828D01*
X86275524Y-84935151D01*
X86275525Y-84935151D01*
X86382233Y-84986391D01*
X86382235Y-84986392D01*
X86390722Y-84990467D01*
X86524683Y-85010607D01*
X86533995Y-85009207D01*
X86649329Y-84991868D01*
X86649332Y-84991867D01*
X86658645Y-84990467D01*
X86780761Y-84931828D01*
X86805168Y-84911637D01*
X87376275Y-84340528D01*
X87396468Y-84316121D01*
X87455107Y-84194005D01*
X87461821Y-84149350D01*
X87473847Y-84069355D01*
X87475247Y-84060043D01*
X87455107Y-83926082D01*
X87425714Y-83864869D01*
X87399791Y-83810885D01*
X87399791Y-83810884D01*
X87396468Y-83803965D01*
X87376277Y-83779559D01*
X86416259Y-82819543D01*
X86391853Y-82799350D01*
X86278231Y-82744790D01*
X86278223Y-82744786D01*
X86269736Y-82740711D01*
X86135775Y-82720571D01*
X86126463Y-82721971D01*
X86011129Y-82739310D01*
X86011126Y-82739311D01*
X86001813Y-82740711D01*
X85879697Y-82799350D01*
X85855290Y-82819541D01*
X85284183Y-83390650D01*
X85263990Y-83415057D01*
X85205351Y-83537173D01*
X85203951Y-83546486D01*
X85203950Y-83546489D01*
X85194647Y-83608373D01*
X85185211Y-83671135D01*
X82541129Y-83671135D01*
X85075388Y-81136875D01*
X85075685Y-81137172D01*
X85076134Y-81136495D01*
X85090224Y-81129316D01*
X85094725Y-81120481D01*
X85097117Y-81119262D01*
X85096025Y-81117931D01*
X85096025Y-81117930D01*
X85213381Y-81021619D01*
X85233908Y-81007903D01*
X85367623Y-80936431D01*
X85390437Y-80926980D01*
X85535532Y-80882966D01*
X85559752Y-80878150D01*
X85710636Y-80863289D01*
X85735328Y-80863289D01*
X85886212Y-80878150D01*
G37*
%TD.AperFunction*%
%TA.AperFunction,Conductor*%
G36*
X91441641Y-91122381D02*
G01*
X91488134Y-91176037D01*
X91498238Y-91246311D01*
X91468744Y-91310891D01*
X91451526Y-91327329D01*
X91413664Y-91357177D01*
X91235392Y-91546686D01*
X91087089Y-91760463D01*
X91085023Y-91764653D01*
X91085021Y-91764656D01*
X91011949Y-91912833D01*
X90972014Y-91993813D01*
X90892694Y-92241608D01*
X90850872Y-92498406D01*
X90850811Y-92503083D01*
X90848131Y-92707804D01*
X90847466Y-92758565D01*
X90882552Y-93016370D01*
X90883860Y-93020856D01*
X90883860Y-93020858D01*
X90890790Y-93044634D01*
X90955358Y-93266157D01*
X91064286Y-93502439D01*
X91066846Y-93506344D01*
X91066849Y-93506349D01*
X91204375Y-93716112D01*
X91204379Y-93716117D01*
X91206941Y-93720025D01*
X91380191Y-93914135D01*
X91580229Y-94080505D01*
X91627217Y-94109018D01*
X91730647Y-94171781D01*
X91778508Y-94224220D01*
X91790420Y-94294211D01*
X91762602Y-94359530D01*
X91703885Y-94399441D01*
X91665282Y-94405500D01*
X88946958Y-94405500D01*
X88930511Y-94404422D01*
X88908188Y-94401483D01*
X88900000Y-94400405D01*
X88861301Y-94405500D01*
X88861296Y-94405500D01*
X88754037Y-94419621D01*
X88745849Y-94420699D01*
X88738218Y-94423860D01*
X88644278Y-94462772D01*
X88644276Y-94462773D01*
X88609833Y-94477039D01*
X88609831Y-94477040D01*
X88602202Y-94480200D01*
X88509819Y-94551088D01*
X88509817Y-94551090D01*
X88478851Y-94574851D01*
X88473825Y-94581401D01*
X88473822Y-94581404D01*
X88460115Y-94599268D01*
X88449248Y-94611659D01*
X87992364Y-95068543D01*
X87979973Y-95079411D01*
X87968359Y-95088323D01*
X87955553Y-95098149D01*
X87950530Y-95104695D01*
X87950528Y-95104697D01*
X87931794Y-95129112D01*
X87931792Y-95129115D01*
X87931790Y-95129117D01*
X87860902Y-95221500D01*
X87860902Y-95221501D01*
X87801401Y-95365147D01*
X87800324Y-95373331D01*
X87800323Y-95373333D01*
X87787380Y-95471652D01*
X87786202Y-95480597D01*
X87781107Y-95519298D01*
X87782185Y-95527486D01*
X87785124Y-95549811D01*
X87786202Y-95566257D01*
X87786202Y-98239918D01*
X87766200Y-98308039D01*
X87749297Y-98329013D01*
X87450068Y-98628242D01*
X87387756Y-98662268D01*
X87316941Y-98657203D01*
X87260105Y-98614656D01*
X87235294Y-98548136D01*
X87241139Y-98500213D01*
X87243635Y-98492532D01*
X87243635Y-98492531D01*
X87245674Y-98486256D01*
X87247123Y-98472469D01*
X87250726Y-98453033D01*
X87252602Y-98446030D01*
X87254313Y-98439645D01*
X87255731Y-98412582D01*
X87257859Y-98371980D01*
X87258376Y-98365405D01*
X87260156Y-98348466D01*
X87260156Y-98348463D01*
X87260500Y-98345192D01*
X87260500Y-98324873D01*
X87260673Y-98318279D01*
X87263874Y-98257204D01*
X87263874Y-98257200D01*
X87264219Y-98250612D01*
X87262051Y-98236923D01*
X87260500Y-98217213D01*
X87260500Y-93897189D01*
X87280502Y-93829068D01*
X87297405Y-93808094D01*
X89966215Y-91139284D01*
X90028527Y-91105258D01*
X90055310Y-91102379D01*
X91373520Y-91102379D01*
X91441641Y-91122381D01*
G37*
%TD.AperFunction*%
%TD*%
M02*
