%TF.GenerationSoftware,KiCad,Pcbnew,(6.0.1)*%
%TF.CreationDate,2022-03-14T16:44:18+09:00*%
%TF.ProjectId,v0_miniAB_pancake_board,76305f6d-696e-4694-9142-5f70616e6361,rev?*%
%TF.SameCoordinates,Original*%
%TF.FileFunction,Legend,Top*%
%TF.FilePolarity,Positive*%
%FSLAX46Y46*%
G04 Gerber Fmt 4.6, Leading zero omitted, Abs format (unit mm)*
G04 Created by KiCad (PCBNEW (6.0.1)) date 2022-03-14 16:44:18*
%MOMM*%
%LPD*%
G01*
G04 APERTURE LIST*
G04 Aperture macros list*
%AMRoundRect*
0 Rectangle with rounded corners*
0 $1 Rounding radius*
0 $2 $3 $4 $5 $6 $7 $8 $9 X,Y pos of 4 corners*
0 Add a 4 corners polygon primitive as box body*
4,1,4,$2,$3,$4,$5,$6,$7,$8,$9,$2,$3,0*
0 Add four circle primitives for the rounded corners*
1,1,$1+$1,$2,$3*
1,1,$1+$1,$4,$5*
1,1,$1+$1,$6,$7*
1,1,$1+$1,$8,$9*
0 Add four rect primitives between the rounded corners*
20,1,$1+$1,$2,$3,$4,$5,0*
20,1,$1+$1,$4,$5,$6,$7,0*
20,1,$1+$1,$6,$7,$8,$9,0*
20,1,$1+$1,$8,$9,$2,$3,0*%
%AMHorizOval*
0 Thick line with rounded ends*
0 $1 width*
0 $2 $3 position (X,Y) of the first rounded end (center of the circle)*
0 $4 $5 position (X,Y) of the second rounded end (center of the circle)*
0 Add line between two ends*
20,1,$1,$2,$3,$4,$5,0*
0 Add two circle primitives to create the rounded ends*
1,1,$1,$2,$3*
1,1,$1,$4,$5*%
G04 Aperture macros list end*
%ADD10C,0.150000*%
%ADD11C,0.100000*%
%ADD12C,0.120000*%
%ADD13C,0.013229*%
%ADD14RoundRect,0.249999X-0.194454X0.689431X-0.689431X0.194454X0.194454X-0.689431X0.689431X-0.194454X0*%
%ADD15HorizOval,1.200000X-0.194454X0.194454X0.194454X-0.194454X0*%
%ADD16C,3.000000*%
%ADD17RoundRect,0.250001X0.835277X-0.360430X0.661629X0.624375X-0.835277X0.360430X-0.661629X-0.624375X0*%
%ADD18HorizOval,1.500000X0.256050X0.045149X-0.256050X-0.045149X0*%
%ADD19RoundRect,0.249999X-0.676283X0.236153X-0.554729X-0.453214X0.676283X-0.236153X0.554729X0.453214X0*%
%ADD20HorizOval,1.200000X-0.270822X-0.047753X0.270822X0.047753X0*%
%ADD21RoundRect,0.249999X-0.554729X0.453214X-0.676283X-0.236153X0.554729X-0.453214X0.676283X0.236153X0*%
%ADD22HorizOval,1.200000X-0.270822X0.047753X0.270822X-0.047753X0*%
%ADD23RoundRect,0.249999X0.676283X-0.236153X0.554729X0.453214X-0.676283X0.236153X-0.554729X-0.453214X0*%
%ADD24HorizOval,1.200000X0.270822X0.047753X-0.270822X-0.047753X0*%
%ADD25R,1.350000X1.350000*%
%ADD26O,1.350000X1.350000*%
%ADD27RoundRect,0.250000X0.071782X-0.712722X0.645188X-0.311218X-0.071782X0.712722X-0.645188X0.311218X0*%
%ADD28HorizOval,1.200000X-0.157734X0.225267X0.157734X-0.225267X0*%
%ADD29R,1.700000X1.700000*%
%ADD30O,1.700000X1.700000*%
%ADD31C,5.000000*%
%ADD32RoundRect,0.250000X0.350000X0.625000X-0.350000X0.625000X-0.350000X-0.625000X0.350000X-0.625000X0*%
%ADD33O,1.200000X1.750000*%
%ADD34RoundRect,0.250000X0.625000X-0.350000X0.625000X0.350000X-0.625000X0.350000X-0.625000X-0.350000X0*%
%ADD35O,1.750000X1.200000*%
%ADD36RoundRect,0.250001X-0.499999X-0.499999X0.499999X-0.499999X0.499999X0.499999X-0.499999X0.499999X0*%
%ADD37C,1.500000*%
G04 APERTURE END LIST*
D10*
X75294128Y-104705684D02*
X75120480Y-103720876D01*
X75495645Y-103654725D01*
X75597705Y-103685082D01*
X75652870Y-103723709D01*
X75716303Y-103809231D01*
X75741110Y-103949918D01*
X75710752Y-104051978D01*
X75672126Y-104107143D01*
X75586603Y-104170576D01*
X75211439Y-104236728D01*
X76182426Y-104258931D02*
X76651383Y-104176242D01*
X76138249Y-104556843D02*
X76292870Y-103514152D01*
X76794788Y-104441077D01*
X77685804Y-104283967D02*
X77274845Y-103872894D01*
X77123057Y-104383195D02*
X76949409Y-103398387D01*
X77324573Y-103332235D01*
X77426634Y-103362593D01*
X77481798Y-103401219D01*
X77545232Y-103486742D01*
X77570039Y-103627429D01*
X77539681Y-103729489D01*
X77501054Y-103784653D01*
X77415532Y-103848087D01*
X77040367Y-103914238D01*
X77793530Y-103249546D02*
X78356277Y-103150318D01*
X78248551Y-104184739D02*
X78074903Y-103199932D01*
X79845835Y-103371205D02*
X79517565Y-103429088D01*
X79608524Y-103944940D02*
X79434876Y-102960132D01*
X79903832Y-102877442D01*
X80356136Y-103522994D02*
X80825092Y-103440304D01*
X80311958Y-103820905D02*
X80466579Y-102778215D01*
X80968497Y-103705140D01*
X81296766Y-103647257D02*
X81123118Y-102662449D01*
X81859513Y-103548030D01*
X81685865Y-102563222D01*
X78071227Y-112777018D02*
X78016062Y-112738391D01*
X77897464Y-112614242D01*
X77834031Y-112528720D01*
X77762328Y-112396302D01*
X77674088Y-112170093D01*
X77641012Y-111982511D01*
X77646563Y-111739764D01*
X77668651Y-111590808D01*
X77699009Y-111488748D01*
X77767993Y-111331523D01*
X77806620Y-111276359D01*
X78617551Y-111761967D02*
X78289281Y-111819850D01*
X78380240Y-112335701D02*
X78206592Y-111350894D01*
X78675548Y-111268204D01*
X79127852Y-111913755D02*
X79596808Y-111831066D01*
X79083674Y-112211667D02*
X79238295Y-111168977D01*
X79740213Y-112095902D01*
X80068482Y-112038019D02*
X79894834Y-111053211D01*
X80631229Y-111938791D01*
X80457581Y-110953984D01*
X81114119Y-110838218D02*
X81207911Y-110821680D01*
X81309971Y-110852038D01*
X81365135Y-110890665D01*
X81428569Y-110976187D01*
X81508540Y-111155500D01*
X81549885Y-111389978D01*
X81536065Y-111585830D01*
X81505708Y-111687890D01*
X81467081Y-111743054D01*
X81381559Y-111806488D01*
X81287768Y-111823026D01*
X81185707Y-111792668D01*
X81130543Y-111754042D01*
X81067109Y-111668519D01*
X80987138Y-111489206D01*
X80945793Y-111254728D01*
X80959613Y-111058876D01*
X80989971Y-110956816D01*
X81028597Y-110901652D01*
X81114119Y-110838218D01*
X82010458Y-112082425D02*
X82049084Y-112027261D01*
X82118069Y-111870036D01*
X82148426Y-111767976D01*
X82170515Y-111619020D01*
X82176066Y-111376273D01*
X82142990Y-111188691D01*
X82054750Y-110962482D01*
X81983047Y-110830064D01*
X81919614Y-110744541D01*
X81801016Y-110620392D01*
X81745851Y-110581766D01*
X89453866Y-90630180D02*
X89453866Y-89630180D01*
X89453866Y-90582561D02*
X89358628Y-90630180D01*
X89168152Y-90630180D01*
X89072914Y-90582561D01*
X89025295Y-90534942D01*
X88977676Y-90439704D01*
X88977676Y-90153990D01*
X89025295Y-90058752D01*
X89072914Y-90011133D01*
X89168152Y-89963514D01*
X89358628Y-89963514D01*
X89453866Y-90011133D01*
X90311009Y-90582561D02*
X90215771Y-90630180D01*
X90025295Y-90630180D01*
X89930057Y-90582561D01*
X89882438Y-90487323D01*
X89882438Y-90106371D01*
X89930057Y-90011133D01*
X90025295Y-89963514D01*
X90215771Y-89963514D01*
X90311009Y-90011133D01*
X90358628Y-90106371D01*
X90358628Y-90201609D01*
X89882438Y-90296847D01*
X90739580Y-90582561D02*
X90834819Y-90630180D01*
X91025295Y-90630180D01*
X91120533Y-90582561D01*
X91168152Y-90487323D01*
X91168152Y-90439704D01*
X91120533Y-90344466D01*
X91025295Y-90296847D01*
X90882438Y-90296847D01*
X90787200Y-90249228D01*
X90739580Y-90153990D01*
X90739580Y-90106371D01*
X90787200Y-90011133D01*
X90882438Y-89963514D01*
X91025295Y-89963514D01*
X91120533Y-90011133D01*
X91596723Y-90630180D02*
X91596723Y-89963514D01*
X91596723Y-89630180D02*
X91549104Y-89677800D01*
X91596723Y-89725419D01*
X91644342Y-89677800D01*
X91596723Y-89630180D01*
X91596723Y-89725419D01*
X92501485Y-89963514D02*
X92501485Y-90773038D01*
X92453866Y-90868276D01*
X92406247Y-90915895D01*
X92311009Y-90963514D01*
X92168152Y-90963514D01*
X92072914Y-90915895D01*
X92501485Y-90582561D02*
X92406247Y-90630180D01*
X92215771Y-90630180D01*
X92120533Y-90582561D01*
X92072914Y-90534942D01*
X92025295Y-90439704D01*
X92025295Y-90153990D01*
X92072914Y-90058752D01*
X92120533Y-90011133D01*
X92215771Y-89963514D01*
X92406247Y-89963514D01*
X92501485Y-90011133D01*
X92977676Y-89963514D02*
X92977676Y-90630180D01*
X92977676Y-90058752D02*
X93025295Y-90011133D01*
X93120533Y-89963514D01*
X93263390Y-89963514D01*
X93358628Y-90011133D01*
X93406247Y-90106371D01*
X93406247Y-90630180D01*
X94644342Y-90630180D02*
X94644342Y-89630180D01*
X94644342Y-90011133D02*
X94739580Y-89963514D01*
X94930057Y-89963514D01*
X95025295Y-90011133D01*
X95072914Y-90058752D01*
X95120533Y-90153990D01*
X95120533Y-90439704D01*
X95072914Y-90534942D01*
X95025295Y-90582561D01*
X94930057Y-90630180D01*
X94739580Y-90630180D01*
X94644342Y-90582561D01*
X95453866Y-89963514D02*
X95691961Y-90630180D01*
X95930057Y-89963514D02*
X95691961Y-90630180D01*
X95596723Y-90868276D01*
X95549104Y-90915895D01*
X95453866Y-90963514D01*
X96311009Y-90534942D02*
X96358628Y-90582561D01*
X96311009Y-90630180D01*
X96263390Y-90582561D01*
X96311009Y-90534942D01*
X96311009Y-90630180D01*
X96311009Y-90011133D02*
X96358628Y-90058752D01*
X96311009Y-90106371D01*
X96263390Y-90058752D01*
X96311009Y-90011133D01*
X96311009Y-90106371D01*
X97977676Y-90582561D02*
X97882438Y-90630180D01*
X97691961Y-90630180D01*
X97596723Y-90582561D01*
X97549104Y-90534942D01*
X97501485Y-90439704D01*
X97501485Y-90153990D01*
X97549104Y-90058752D01*
X97596723Y-90011133D01*
X97691961Y-89963514D01*
X97882438Y-89963514D01*
X97977676Y-90011133D01*
X98406247Y-90630180D02*
X98406247Y-89630180D01*
X98834819Y-90630180D02*
X98834819Y-90106371D01*
X98787200Y-90011133D01*
X98691961Y-89963514D01*
X98549104Y-89963514D01*
X98453866Y-90011133D01*
X98406247Y-90058752D01*
X99311009Y-90630180D02*
X99311009Y-89963514D01*
X99311009Y-90153990D02*
X99358628Y-90058752D01*
X99406247Y-90011133D01*
X99501485Y-89963514D01*
X99596723Y-89963514D01*
X99930057Y-90630180D02*
X99930057Y-89963514D01*
X99930057Y-89630180D02*
X99882438Y-89677800D01*
X99930057Y-89725419D01*
X99977676Y-89677800D01*
X99930057Y-89630180D01*
X99930057Y-89725419D01*
X100358628Y-90582561D02*
X100453866Y-90630180D01*
X100644342Y-90630180D01*
X100739580Y-90582561D01*
X100787200Y-90487323D01*
X100787200Y-90439704D01*
X100739580Y-90344466D01*
X100644342Y-90296847D01*
X100501485Y-90296847D01*
X100406247Y-90249228D01*
X100358628Y-90153990D01*
X100358628Y-90106371D01*
X100406247Y-90011133D01*
X100501485Y-89963514D01*
X100644342Y-89963514D01*
X100739580Y-90011133D01*
X101072914Y-89963514D02*
X101453866Y-89963514D01*
X101215771Y-89630180D02*
X101215771Y-90487323D01*
X101263390Y-90582561D01*
X101358628Y-90630180D01*
X101453866Y-90630180D01*
X101930057Y-90630180D02*
X101834819Y-90582561D01*
X101787200Y-90534942D01*
X101739580Y-90439704D01*
X101739580Y-90153990D01*
X101787200Y-90058752D01*
X101834819Y-90011133D01*
X101930057Y-89963514D01*
X102072914Y-89963514D01*
X102168152Y-90011133D01*
X102215771Y-90058752D01*
X102263390Y-90153990D01*
X102263390Y-90439704D01*
X102215771Y-90534942D01*
X102168152Y-90582561D01*
X102072914Y-90630180D01*
X101930057Y-90630180D01*
X102691961Y-89963514D02*
X102691961Y-90963514D01*
X102691961Y-90011133D02*
X102787200Y-89963514D01*
X102977676Y-89963514D01*
X103072914Y-90011133D01*
X103120533Y-90058752D01*
X103168152Y-90153990D01*
X103168152Y-90439704D01*
X103120533Y-90534942D01*
X103072914Y-90582561D01*
X102977676Y-90630180D01*
X102787200Y-90630180D01*
X102691961Y-90582561D01*
X103596723Y-90630180D02*
X103596723Y-89630180D01*
X104025295Y-90630180D02*
X104025295Y-90106371D01*
X103977676Y-90011133D01*
X103882438Y-89963514D01*
X103739580Y-89963514D01*
X103644342Y-90011133D01*
X103596723Y-90058752D01*
X104501485Y-90630180D02*
X104501485Y-89963514D01*
X104501485Y-90058752D02*
X104549104Y-90011133D01*
X104644342Y-89963514D01*
X104787200Y-89963514D01*
X104882438Y-90011133D01*
X104930057Y-90106371D01*
X104930057Y-90630180D01*
X104930057Y-90106371D02*
X104977676Y-90011133D01*
X105072914Y-89963514D01*
X105215771Y-89963514D01*
X105311009Y-90011133D01*
X105358628Y-90106371D01*
X105358628Y-90630180D01*
X106263390Y-89963514D02*
X106263390Y-90630180D01*
X105834819Y-89963514D02*
X105834819Y-90487323D01*
X105882438Y-90582561D01*
X105977676Y-90630180D01*
X106120533Y-90630180D01*
X106215771Y-90582561D01*
X106263390Y-90534942D01*
X107120533Y-90582561D02*
X107025295Y-90630180D01*
X106834819Y-90630180D01*
X106739580Y-90582561D01*
X106691961Y-90487323D01*
X106691961Y-90106371D01*
X106739580Y-90011133D01*
X106834819Y-89963514D01*
X107025295Y-89963514D01*
X107120533Y-90011133D01*
X107168152Y-90106371D01*
X107168152Y-90201609D01*
X106691961Y-90296847D01*
X107739580Y-90630180D02*
X107644342Y-90582561D01*
X107596723Y-90487323D01*
X107596723Y-89630180D01*
X108263390Y-90630180D02*
X108168152Y-90582561D01*
X108120533Y-90487323D01*
X108120533Y-89630180D01*
X109025295Y-90582561D02*
X108930057Y-90630180D01*
X108739580Y-90630180D01*
X108644342Y-90582561D01*
X108596723Y-90487323D01*
X108596723Y-90106371D01*
X108644342Y-90011133D01*
X108739580Y-89963514D01*
X108930057Y-89963514D01*
X109025295Y-90011133D01*
X109072914Y-90106371D01*
X109072914Y-90201609D01*
X108596723Y-90296847D01*
X109501485Y-90630180D02*
X109501485Y-89963514D01*
X109501485Y-90153990D02*
X109549104Y-90058752D01*
X109596723Y-90011133D01*
X109691961Y-89963514D01*
X109787200Y-89963514D01*
X110120533Y-90534942D02*
X110168152Y-90582561D01*
X110120533Y-90630180D01*
X110072914Y-90582561D01*
X110120533Y-90534942D01*
X110120533Y-90630180D01*
X110739580Y-90630180D02*
X110644342Y-90582561D01*
X110596723Y-90534942D01*
X110549104Y-90439704D01*
X110549104Y-90153990D01*
X110596723Y-90058752D01*
X110644342Y-90011133D01*
X110739580Y-89963514D01*
X110882438Y-89963514D01*
X110977676Y-90011133D01*
X111025295Y-90058752D01*
X111072914Y-90153990D01*
X111072914Y-90439704D01*
X111025295Y-90534942D01*
X110977676Y-90582561D01*
X110882438Y-90630180D01*
X110739580Y-90630180D01*
X111501485Y-90630180D02*
X111501485Y-89963514D01*
X111501485Y-90153990D02*
X111549104Y-90058752D01*
X111596723Y-90011133D01*
X111691961Y-89963514D01*
X111787200Y-89963514D01*
X112549104Y-89963514D02*
X112549104Y-90773038D01*
X112501485Y-90868276D01*
X112453866Y-90915895D01*
X112358628Y-90963514D01*
X112215771Y-90963514D01*
X112120533Y-90915895D01*
X112549104Y-90582561D02*
X112453866Y-90630180D01*
X112263390Y-90630180D01*
X112168152Y-90582561D01*
X112120533Y-90534942D01*
X112072914Y-90439704D01*
X112072914Y-90153990D01*
X112120533Y-90058752D01*
X112168152Y-90011133D01*
X112263390Y-89963514D01*
X112453866Y-89963514D01*
X112549104Y-90011133D01*
X99072914Y-91335419D02*
X99120533Y-91287800D01*
X99215771Y-91240180D01*
X99453866Y-91240180D01*
X99549104Y-91287800D01*
X99596723Y-91335419D01*
X99644342Y-91430657D01*
X99644342Y-91525895D01*
X99596723Y-91668752D01*
X99025295Y-92240180D01*
X99644342Y-92240180D01*
X100263390Y-91240180D02*
X100358628Y-91240180D01*
X100453866Y-91287800D01*
X100501485Y-91335419D01*
X100549104Y-91430657D01*
X100596723Y-91621133D01*
X100596723Y-91859228D01*
X100549104Y-92049704D01*
X100501485Y-92144942D01*
X100453866Y-92192561D01*
X100358628Y-92240180D01*
X100263390Y-92240180D01*
X100168152Y-92192561D01*
X100120533Y-92144942D01*
X100072914Y-92049704D01*
X100025295Y-91859228D01*
X100025295Y-91621133D01*
X100072914Y-91430657D01*
X100120533Y-91335419D01*
X100168152Y-91287800D01*
X100263390Y-91240180D01*
X100977676Y-91335419D02*
X101025295Y-91287800D01*
X101120533Y-91240180D01*
X101358628Y-91240180D01*
X101453866Y-91287800D01*
X101501485Y-91335419D01*
X101549104Y-91430657D01*
X101549104Y-91525895D01*
X101501485Y-91668752D01*
X100930057Y-92240180D01*
X101549104Y-92240180D01*
X102501485Y-92240180D02*
X101930057Y-92240180D01*
X102215771Y-92240180D02*
X102215771Y-91240180D01*
X102120533Y-91383038D01*
X102025295Y-91478276D01*
X101930057Y-91525895D01*
X97087276Y-109859771D02*
X96753942Y-109859771D01*
X96753942Y-110383580D02*
X96753942Y-109383580D01*
X97230133Y-109383580D01*
X97563466Y-110097866D02*
X98039657Y-110097866D01*
X97468228Y-110383580D02*
X97801561Y-109383580D01*
X98134895Y-110383580D01*
X98468228Y-110383580D02*
X98468228Y-109383580D01*
X99039657Y-110383580D01*
X99039657Y-109383580D01*
X100134895Y-109383580D02*
X100468228Y-110383580D01*
X100801561Y-109383580D01*
X101325371Y-109383580D02*
X101515847Y-109383580D01*
X101611085Y-109431200D01*
X101706323Y-109526438D01*
X101753942Y-109716914D01*
X101753942Y-110050247D01*
X101706323Y-110240723D01*
X101611085Y-110335961D01*
X101515847Y-110383580D01*
X101325371Y-110383580D01*
X101230133Y-110335961D01*
X101134895Y-110240723D01*
X101087276Y-110050247D01*
X101087276Y-109716914D01*
X101134895Y-109526438D01*
X101230133Y-109431200D01*
X101325371Y-109383580D01*
X102658704Y-110383580D02*
X102182514Y-110383580D01*
X102182514Y-109383580D01*
X102849180Y-109383580D02*
X103420609Y-109383580D01*
X103134895Y-110383580D02*
X103134895Y-109383580D01*
X103706323Y-110097866D02*
X104182514Y-110097866D01*
X103611085Y-110383580D02*
X103944419Y-109383580D01*
X104277752Y-110383580D01*
X105134895Y-109431200D02*
X105039657Y-109383580D01*
X104896800Y-109383580D01*
X104753942Y-109431200D01*
X104658704Y-109526438D01*
X104611085Y-109621676D01*
X104563466Y-109812152D01*
X104563466Y-109955009D01*
X104611085Y-110145485D01*
X104658704Y-110240723D01*
X104753942Y-110335961D01*
X104896800Y-110383580D01*
X104992038Y-110383580D01*
X105134895Y-110335961D01*
X105182514Y-110288342D01*
X105182514Y-109955009D01*
X104992038Y-109955009D01*
X105611085Y-109859771D02*
X105944419Y-109859771D01*
X106087276Y-110383580D02*
X105611085Y-110383580D01*
X105611085Y-109383580D01*
X106087276Y-109383580D01*
X104077623Y-112365213D02*
X103687550Y-112638344D01*
X103921675Y-113055730D01*
X103933369Y-112989410D01*
X103984070Y-112895776D01*
X104179106Y-112759210D01*
X104284434Y-112743591D01*
X104350754Y-112755285D01*
X104444388Y-112805986D01*
X104580954Y-113001023D01*
X104596573Y-113106350D01*
X104584879Y-113172671D01*
X104534177Y-113266304D01*
X104339141Y-113402870D01*
X104233813Y-113418489D01*
X104167493Y-113406795D01*
X104580873Y-112419758D02*
X105158293Y-112829294D01*
X104970945Y-112146626D01*
X106679575Y-111764080D02*
X106289503Y-112037212D01*
X105715927Y-111218060D01*
X106652181Y-111143808D02*
X106925232Y-110952616D01*
X107342699Y-111299757D02*
X106952626Y-111572888D01*
X106379050Y-110753736D01*
X106769122Y-110480604D01*
X107693764Y-111053938D02*
X107120187Y-110234786D01*
X107315223Y-110098220D01*
X107459558Y-110055288D01*
X107592199Y-110078676D01*
X107685833Y-110129377D01*
X107834093Y-110258093D01*
X107916032Y-110375115D01*
X107986278Y-110558457D01*
X108001897Y-110663785D01*
X107978508Y-110796425D01*
X107888800Y-110917372D01*
X107693764Y-111053938D01*
X109019848Y-108962761D02*
X108914520Y-108978380D01*
X108797499Y-109060320D01*
X108707790Y-109181267D01*
X108684402Y-109313907D01*
X108700021Y-109419235D01*
X108770266Y-109602577D01*
X108852206Y-109719599D01*
X109000466Y-109848315D01*
X109094099Y-109899016D01*
X109226740Y-109922404D01*
X109371075Y-109879472D01*
X109449090Y-109824846D01*
X109538798Y-109703899D01*
X109550492Y-109637579D01*
X109359300Y-109364528D01*
X109203271Y-109473781D01*
X109956184Y-109469775D02*
X109382607Y-108650622D01*
X110424271Y-109142017D01*
X109850694Y-108322865D01*
X110814343Y-108868885D02*
X110240766Y-108049733D01*
X110435803Y-107913167D01*
X110580138Y-107870235D01*
X110712778Y-107893623D01*
X110806412Y-107944324D01*
X110954672Y-108073040D01*
X111036611Y-108190062D01*
X111106857Y-108373404D01*
X111122476Y-108478732D01*
X111099088Y-108611372D01*
X111009379Y-108732319D01*
X110814343Y-108868885D01*
D11*
X97553866Y-94096742D02*
X97553866Y-94739600D01*
X97520533Y-94868171D01*
X97453866Y-94953885D01*
X97353866Y-94996742D01*
X97287200Y-94996742D01*
X98220533Y-94996742D02*
X97887200Y-94996742D01*
X97887200Y-94096742D01*
X98853866Y-94911028D02*
X98820533Y-94953885D01*
X98720533Y-94996742D01*
X98653866Y-94996742D01*
X98553866Y-94953885D01*
X98487200Y-94868171D01*
X98453866Y-94782457D01*
X98420533Y-94611028D01*
X98420533Y-94482457D01*
X98453866Y-94311028D01*
X98487200Y-94225314D01*
X98553866Y-94139600D01*
X98653866Y-94096742D01*
X98720533Y-94096742D01*
X98820533Y-94139600D01*
X98853866Y-94182457D01*
X99353866Y-94096742D02*
X99353866Y-94739600D01*
X99320533Y-94868171D01*
X99253866Y-94953885D01*
X99153866Y-94996742D01*
X99087200Y-94996742D01*
X100020533Y-94996742D02*
X99687200Y-94996742D01*
X99687200Y-94096742D01*
X100653866Y-94911028D02*
X100620533Y-94953885D01*
X100520533Y-94996742D01*
X100453866Y-94996742D01*
X100353866Y-94953885D01*
X100287200Y-94868171D01*
X100253866Y-94782457D01*
X100220533Y-94611028D01*
X100220533Y-94482457D01*
X100253866Y-94311028D01*
X100287200Y-94225314D01*
X100353866Y-94139600D01*
X100453866Y-94096742D01*
X100520533Y-94096742D01*
X100620533Y-94139600D01*
X100653866Y-94182457D01*
X101153866Y-94096742D02*
X101153866Y-94739600D01*
X101120533Y-94868171D01*
X101053866Y-94953885D01*
X100953866Y-94996742D01*
X100887200Y-94996742D01*
X101820533Y-94996742D02*
X101487200Y-94996742D01*
X101487200Y-94096742D01*
X102453866Y-94911028D02*
X102420533Y-94953885D01*
X102320533Y-94996742D01*
X102253866Y-94996742D01*
X102153866Y-94953885D01*
X102087200Y-94868171D01*
X102053866Y-94782457D01*
X102020533Y-94611028D01*
X102020533Y-94482457D01*
X102053866Y-94311028D01*
X102087200Y-94225314D01*
X102153866Y-94139600D01*
X102253866Y-94096742D01*
X102320533Y-94096742D01*
X102420533Y-94139600D01*
X102453866Y-94182457D01*
X102953866Y-94096742D02*
X102953866Y-94739600D01*
X102920533Y-94868171D01*
X102853866Y-94953885D01*
X102753866Y-94996742D01*
X102687200Y-94996742D01*
X103620533Y-94996742D02*
X103287200Y-94996742D01*
X103287200Y-94096742D01*
X104253866Y-94911028D02*
X104220533Y-94953885D01*
X104120533Y-94996742D01*
X104053866Y-94996742D01*
X103953866Y-94953885D01*
X103887200Y-94868171D01*
X103853866Y-94782457D01*
X103820533Y-94611028D01*
X103820533Y-94482457D01*
X103853866Y-94311028D01*
X103887200Y-94225314D01*
X103953866Y-94139600D01*
X104053866Y-94096742D01*
X104120533Y-94096742D01*
X104220533Y-94139600D01*
X104253866Y-94182457D01*
D10*
X90144342Y-87067914D02*
X90525295Y-87067914D01*
X90287200Y-87734580D02*
X90287200Y-86877438D01*
X90334819Y-86782200D01*
X90430057Y-86734580D01*
X90525295Y-86734580D01*
X91001485Y-87734580D02*
X90906247Y-87686961D01*
X90858628Y-87639342D01*
X90811009Y-87544104D01*
X90811009Y-87258390D01*
X90858628Y-87163152D01*
X90906247Y-87115533D01*
X91001485Y-87067914D01*
X91144342Y-87067914D01*
X91239580Y-87115533D01*
X91287200Y-87163152D01*
X91334819Y-87258390D01*
X91334819Y-87544104D01*
X91287200Y-87639342D01*
X91239580Y-87686961D01*
X91144342Y-87734580D01*
X91001485Y-87734580D01*
X91763390Y-87734580D02*
X91763390Y-87067914D01*
X91763390Y-87258390D02*
X91811009Y-87163152D01*
X91858628Y-87115533D01*
X91953866Y-87067914D01*
X92049104Y-87067914D01*
X92382438Y-87734580D02*
X92382438Y-86734580D01*
X92477676Y-87353628D02*
X92763390Y-87734580D01*
X92763390Y-87067914D02*
X92382438Y-87448866D01*
X93953866Y-87734580D02*
X93953866Y-86734580D01*
X93953866Y-87115533D02*
X94049104Y-87067914D01*
X94239580Y-87067914D01*
X94334819Y-87115533D01*
X94382438Y-87163152D01*
X94430057Y-87258390D01*
X94430057Y-87544104D01*
X94382438Y-87639342D01*
X94334819Y-87686961D01*
X94239580Y-87734580D01*
X94049104Y-87734580D01*
X93953866Y-87686961D01*
X94763390Y-87067914D02*
X95001485Y-87734580D01*
X95239580Y-87067914D02*
X95001485Y-87734580D01*
X94906247Y-87972676D01*
X94858628Y-88020295D01*
X94763390Y-88067914D01*
X95620533Y-87639342D02*
X95668152Y-87686961D01*
X95620533Y-87734580D01*
X95572914Y-87686961D01*
X95620533Y-87639342D01*
X95620533Y-87734580D01*
X95620533Y-87115533D02*
X95668152Y-87163152D01*
X95620533Y-87210771D01*
X95572914Y-87163152D01*
X95620533Y-87115533D01*
X95620533Y-87210771D01*
X96858628Y-87734580D02*
X96858628Y-87067914D01*
X96858628Y-87163152D02*
X96906247Y-87115533D01*
X97001485Y-87067914D01*
X97144342Y-87067914D01*
X97239580Y-87115533D01*
X97287200Y-87210771D01*
X97287200Y-87734580D01*
X97287200Y-87210771D02*
X97334819Y-87115533D01*
X97430057Y-87067914D01*
X97572914Y-87067914D01*
X97668152Y-87115533D01*
X97715771Y-87210771D01*
X97715771Y-87734580D01*
X98620533Y-87734580D02*
X98620533Y-87210771D01*
X98572914Y-87115533D01*
X98477676Y-87067914D01*
X98287200Y-87067914D01*
X98191961Y-87115533D01*
X98620533Y-87686961D02*
X98525295Y-87734580D01*
X98287200Y-87734580D01*
X98191961Y-87686961D01*
X98144342Y-87591723D01*
X98144342Y-87496485D01*
X98191961Y-87401247D01*
X98287200Y-87353628D01*
X98525295Y-87353628D01*
X98620533Y-87306009D01*
X98953866Y-87067914D02*
X99334819Y-87067914D01*
X99096723Y-86734580D02*
X99096723Y-87591723D01*
X99144342Y-87686961D01*
X99239580Y-87734580D01*
X99334819Y-87734580D01*
X99525295Y-87067914D02*
X99906247Y-87067914D01*
X99668152Y-86734580D02*
X99668152Y-87591723D01*
X99715771Y-87686961D01*
X99811009Y-87734580D01*
X99906247Y-87734580D01*
X100239580Y-87734580D02*
X100239580Y-86734580D01*
X100668152Y-87734580D02*
X100668152Y-87210771D01*
X100620533Y-87115533D01*
X100525295Y-87067914D01*
X100382438Y-87067914D01*
X100287200Y-87115533D01*
X100239580Y-87163152D01*
X101525295Y-87686961D02*
X101430057Y-87734580D01*
X101239580Y-87734580D01*
X101144342Y-87686961D01*
X101096723Y-87591723D01*
X101096723Y-87210771D01*
X101144342Y-87115533D01*
X101239580Y-87067914D01*
X101430057Y-87067914D01*
X101525295Y-87115533D01*
X101572914Y-87210771D01*
X101572914Y-87306009D01*
X101096723Y-87401247D01*
X101906247Y-87067914D02*
X102096723Y-87734580D01*
X102287200Y-87258390D01*
X102477676Y-87734580D01*
X102668152Y-87067914D01*
X104620533Y-87734580D02*
X104572914Y-87734580D01*
X104477676Y-87686961D01*
X104334819Y-87544104D01*
X104096723Y-87258390D01*
X104001485Y-87115533D01*
X103953866Y-86972676D01*
X103953866Y-86877438D01*
X104001485Y-86782200D01*
X104096723Y-86734580D01*
X104144342Y-86734580D01*
X104239580Y-86782200D01*
X104287200Y-86877438D01*
X104287200Y-86925057D01*
X104239580Y-87020295D01*
X104191961Y-87067914D01*
X103906247Y-87258390D01*
X103858628Y-87306009D01*
X103811009Y-87401247D01*
X103811009Y-87544104D01*
X103858628Y-87639342D01*
X103906247Y-87686961D01*
X104001485Y-87734580D01*
X104144342Y-87734580D01*
X104239580Y-87686961D01*
X104287200Y-87639342D01*
X104430057Y-87448866D01*
X104477676Y-87306009D01*
X104477676Y-87210771D01*
X105668152Y-87067914D02*
X106049104Y-87067914D01*
X105811009Y-87734580D02*
X105811009Y-86877438D01*
X105858628Y-86782200D01*
X105953866Y-86734580D01*
X106049104Y-86734580D01*
X106811009Y-87734580D02*
X106811009Y-87210771D01*
X106763390Y-87115533D01*
X106668152Y-87067914D01*
X106477676Y-87067914D01*
X106382438Y-87115533D01*
X106811009Y-87686961D02*
X106715771Y-87734580D01*
X106477676Y-87734580D01*
X106382438Y-87686961D01*
X106334819Y-87591723D01*
X106334819Y-87496485D01*
X106382438Y-87401247D01*
X106477676Y-87353628D01*
X106715771Y-87353628D01*
X106811009Y-87306009D01*
X107287200Y-87734580D02*
X107287200Y-87067914D01*
X107287200Y-87163152D02*
X107334819Y-87115533D01*
X107430057Y-87067914D01*
X107572914Y-87067914D01*
X107668152Y-87115533D01*
X107715771Y-87210771D01*
X107715771Y-87734580D01*
X107715771Y-87210771D02*
X107763390Y-87115533D01*
X107858628Y-87067914D01*
X108001485Y-87067914D01*
X108096723Y-87115533D01*
X108144342Y-87210771D01*
X108144342Y-87734580D01*
X108620533Y-87734580D02*
X108620533Y-87067914D01*
X108620533Y-86734580D02*
X108572914Y-86782200D01*
X108620533Y-86829819D01*
X108668152Y-86782200D01*
X108620533Y-86734580D01*
X108620533Y-86829819D01*
X109525295Y-87686961D02*
X109430057Y-87734580D01*
X109239580Y-87734580D01*
X109144342Y-87686961D01*
X109096723Y-87639342D01*
X109049104Y-87544104D01*
X109049104Y-87258390D01*
X109096723Y-87163152D01*
X109144342Y-87115533D01*
X109239580Y-87067914D01*
X109430057Y-87067914D01*
X109525295Y-87115533D01*
X109953866Y-87734580D02*
X109953866Y-86734580D01*
X110382438Y-87734580D02*
X110382438Y-87210771D01*
X110334819Y-87115533D01*
X110239580Y-87067914D01*
X110096723Y-87067914D01*
X110001485Y-87115533D01*
X109953866Y-87163152D01*
X111287200Y-87067914D02*
X111287200Y-87734580D01*
X110858628Y-87067914D02*
X110858628Y-87591723D01*
X110906247Y-87686961D01*
X111001485Y-87734580D01*
X111144342Y-87734580D01*
X111239580Y-87686961D01*
X111287200Y-87639342D01*
X99072914Y-88439819D02*
X99120533Y-88392200D01*
X99215771Y-88344580D01*
X99453866Y-88344580D01*
X99549104Y-88392200D01*
X99596723Y-88439819D01*
X99644342Y-88535057D01*
X99644342Y-88630295D01*
X99596723Y-88773152D01*
X99025295Y-89344580D01*
X99644342Y-89344580D01*
X100263390Y-88344580D02*
X100358628Y-88344580D01*
X100453866Y-88392200D01*
X100501485Y-88439819D01*
X100549104Y-88535057D01*
X100596723Y-88725533D01*
X100596723Y-88963628D01*
X100549104Y-89154104D01*
X100501485Y-89249342D01*
X100453866Y-89296961D01*
X100358628Y-89344580D01*
X100263390Y-89344580D01*
X100168152Y-89296961D01*
X100120533Y-89249342D01*
X100072914Y-89154104D01*
X100025295Y-88963628D01*
X100025295Y-88725533D01*
X100072914Y-88535057D01*
X100120533Y-88439819D01*
X100168152Y-88392200D01*
X100263390Y-88344580D01*
X100977676Y-88439819D02*
X101025295Y-88392200D01*
X101120533Y-88344580D01*
X101358628Y-88344580D01*
X101453866Y-88392200D01*
X101501485Y-88439819D01*
X101549104Y-88535057D01*
X101549104Y-88630295D01*
X101501485Y-88773152D01*
X100930057Y-89344580D01*
X101549104Y-89344580D01*
X101930057Y-88439819D02*
X101977676Y-88392200D01*
X102072914Y-88344580D01*
X102311009Y-88344580D01*
X102406247Y-88392200D01*
X102453866Y-88439819D01*
X102501485Y-88535057D01*
X102501485Y-88630295D01*
X102453866Y-88773152D01*
X101882438Y-89344580D01*
X102501485Y-89344580D01*
X99850723Y-117962419D02*
X99898342Y-117914800D01*
X99993580Y-117867180D01*
X100231676Y-117867180D01*
X100326914Y-117914800D01*
X100374533Y-117962419D01*
X100422152Y-118057657D01*
X100422152Y-118152895D01*
X100374533Y-118295752D01*
X99803104Y-118867180D01*
X100422152Y-118867180D01*
X101279295Y-118200514D02*
X101279295Y-118867180D01*
X101041200Y-117819561D02*
X100803104Y-118533847D01*
X101422152Y-118533847D01*
X101660247Y-117867180D02*
X101993580Y-118867180D01*
X102326914Y-117867180D01*
X77514723Y-95159580D02*
X78181390Y-96159580D01*
X78181390Y-95159580D02*
X77514723Y-96159580D01*
X79324247Y-95635771D02*
X79657580Y-95635771D01*
X79800438Y-96159580D02*
X79324247Y-96159580D01*
X79324247Y-95159580D01*
X79800438Y-95159580D01*
X80229009Y-96159580D02*
X80229009Y-95159580D01*
X80800438Y-96159580D01*
X80800438Y-95159580D01*
X81276628Y-96159580D02*
X81276628Y-95159580D01*
X81514723Y-95159580D01*
X81657580Y-95207200D01*
X81752819Y-95302438D01*
X81800438Y-95397676D01*
X81848057Y-95588152D01*
X81848057Y-95731009D01*
X81800438Y-95921485D01*
X81752819Y-96016723D01*
X81657580Y-96111961D01*
X81514723Y-96159580D01*
X81276628Y-96159580D01*
X101155523Y-110551980D02*
X100679333Y-110551980D01*
X100631714Y-111028171D01*
X100679333Y-110980552D01*
X100774571Y-110932933D01*
X101012666Y-110932933D01*
X101107904Y-110980552D01*
X101155523Y-111028171D01*
X101203142Y-111123409D01*
X101203142Y-111361504D01*
X101155523Y-111456742D01*
X101107904Y-111504361D01*
X101012666Y-111551980D01*
X100774571Y-111551980D01*
X100679333Y-111504361D01*
X100631714Y-111456742D01*
X101488857Y-110551980D02*
X101822190Y-111551980D01*
X102155523Y-110551980D01*
X105556323Y-106017961D02*
X105699180Y-106065580D01*
X105937276Y-106065580D01*
X106032514Y-106017961D01*
X106080133Y-105970342D01*
X106127752Y-105875104D01*
X106127752Y-105779866D01*
X106080133Y-105684628D01*
X106032514Y-105637009D01*
X105937276Y-105589390D01*
X105746800Y-105541771D01*
X105651561Y-105494152D01*
X105603942Y-105446533D01*
X105556323Y-105351295D01*
X105556323Y-105256057D01*
X105603942Y-105160819D01*
X105651561Y-105113200D01*
X105746800Y-105065580D01*
X105984895Y-105065580D01*
X106127752Y-105113200D01*
X106556323Y-105541771D02*
X106889657Y-105541771D01*
X107032514Y-106065580D02*
X106556323Y-106065580D01*
X106556323Y-105065580D01*
X107032514Y-105065580D01*
X108032514Y-106065580D02*
X107699180Y-105589390D01*
X107461085Y-106065580D02*
X107461085Y-105065580D01*
X107842038Y-105065580D01*
X107937276Y-105113200D01*
X107984895Y-105160819D01*
X108032514Y-105256057D01*
X108032514Y-105398914D01*
X107984895Y-105494152D01*
X107937276Y-105541771D01*
X107842038Y-105589390D01*
X107461085Y-105589390D01*
X108318228Y-105065580D02*
X108651561Y-106065580D01*
X108984895Y-105065580D01*
X109508704Y-105065580D02*
X109699180Y-105065580D01*
X109794419Y-105113200D01*
X109889657Y-105208438D01*
X109937276Y-105398914D01*
X109937276Y-105732247D01*
X109889657Y-105922723D01*
X109794419Y-106017961D01*
X109699180Y-106065580D01*
X109508704Y-106065580D01*
X109413466Y-106017961D01*
X109318228Y-105922723D01*
X109270609Y-105732247D01*
X109270609Y-105398914D01*
X109318228Y-105208438D01*
X109413466Y-105113200D01*
X109508704Y-105065580D01*
X87357720Y-102559822D02*
X87456947Y-103122569D01*
X86422526Y-103014844D02*
X87407334Y-102841195D01*
X86530022Y-103624486D02*
X87514830Y-103450838D01*
X87045874Y-103533528D02*
X87145102Y-104096275D01*
X86629250Y-104187234D02*
X87614058Y-104013586D01*
X87227791Y-104565231D02*
X87285674Y-104893500D01*
X86794629Y-105125146D02*
X86711940Y-104656190D01*
X87696747Y-104482542D01*
X87779437Y-104951498D01*
X86968277Y-106109954D02*
X87379351Y-105698995D01*
X86869050Y-105547206D02*
X87853858Y-105373558D01*
X87920009Y-105748723D01*
X87889652Y-105850783D01*
X87851025Y-105905948D01*
X87765503Y-105969381D01*
X87624816Y-105994188D01*
X87522756Y-105963830D01*
X87467591Y-105925204D01*
X87404158Y-105839682D01*
X87338006Y-105464517D01*
X87042698Y-106532014D02*
X88027506Y-106358366D01*
X87381954Y-106810670D01*
X88143271Y-107014904D01*
X87158463Y-107188553D01*
X98175771Y-115992114D02*
X98175771Y-116325447D01*
X98699580Y-116325447D02*
X97699580Y-116325447D01*
X97699580Y-115849257D01*
X98413866Y-115515923D02*
X98413866Y-115039733D01*
X98699580Y-115611161D02*
X97699580Y-115277828D01*
X98699580Y-114944495D01*
X98699580Y-114611161D02*
X97699580Y-114611161D01*
X98699580Y-114039733D01*
X97699580Y-114039733D01*
X97699580Y-113373066D02*
X97699580Y-113277828D01*
X97747200Y-113182590D01*
X97794819Y-113134971D01*
X97890057Y-113087352D01*
X98080533Y-113039733D01*
X98318628Y-113039733D01*
X98509104Y-113087352D01*
X98604342Y-113134971D01*
X98651961Y-113182590D01*
X98699580Y-113277828D01*
X98699580Y-113373066D01*
X98651961Y-113468304D01*
X98604342Y-113515923D01*
X98509104Y-113563542D01*
X98318628Y-113611161D01*
X98080533Y-113611161D01*
X97890057Y-113563542D01*
X97794819Y-113515923D01*
X97747200Y-113468304D01*
X97699580Y-113373066D01*
X118343286Y-103751230D02*
X118516934Y-102766422D01*
X118892099Y-102832573D01*
X118977621Y-102896007D01*
X119016248Y-102951172D01*
X119046605Y-103053232D01*
X119021799Y-103193919D01*
X118958365Y-103279441D01*
X118903201Y-103318067D01*
X118801140Y-103348425D01*
X118425975Y-103282273D01*
X119330812Y-103635235D02*
X119799768Y-103717925D01*
X119187407Y-103900071D02*
X119689324Y-102973146D01*
X119843945Y-104015836D01*
X120734962Y-104172947D02*
X120489382Y-103646108D01*
X120172215Y-104073719D02*
X120345863Y-103088911D01*
X120721028Y-103155063D01*
X120806550Y-103218496D01*
X120845176Y-103273661D01*
X120875534Y-103375721D01*
X120850727Y-103516408D01*
X120787294Y-103601930D01*
X120732129Y-103640557D01*
X120630069Y-103670915D01*
X120254904Y-103604763D01*
X121189984Y-103237753D02*
X121752731Y-103336980D01*
X121297709Y-104272174D02*
X121471357Y-103287366D01*
X123076910Y-104054005D02*
X122748640Y-103996122D01*
X122657682Y-104511974D02*
X122831330Y-103527166D01*
X123300286Y-103609856D01*
X123504521Y-104371173D02*
X123973477Y-104453862D01*
X123361116Y-104636008D02*
X123863033Y-103709083D01*
X124017654Y-104751774D01*
X124345924Y-104809656D02*
X124519572Y-103824849D01*
X124908671Y-104908884D01*
X125082319Y-103924076D01*
X118192341Y-112285625D02*
X118153715Y-112230461D01*
X118084730Y-112073236D01*
X118054373Y-111971176D01*
X118032284Y-111822220D01*
X118026733Y-111579473D01*
X118059809Y-111391891D01*
X118148049Y-111165682D01*
X118219752Y-111033264D01*
X118283185Y-110947741D01*
X118401783Y-110823592D01*
X118456948Y-110784966D01*
X119052886Y-111518643D02*
X118724616Y-111460760D01*
X118633658Y-111976612D02*
X118807306Y-110991804D01*
X119276262Y-111074494D01*
X119480497Y-111835811D02*
X119949453Y-111918500D01*
X119337092Y-112100647D02*
X119839009Y-111173721D01*
X119993630Y-112216412D01*
X120321900Y-112274295D02*
X120495548Y-111289487D01*
X120884647Y-112373522D01*
X121058295Y-111388714D01*
X121714834Y-111504480D02*
X121808625Y-111521018D01*
X121894147Y-111584451D01*
X121932774Y-111639616D01*
X121963131Y-111741676D01*
X121976951Y-111937528D01*
X121935606Y-112172006D01*
X121855635Y-112351319D01*
X121792201Y-112436841D01*
X121737037Y-112475468D01*
X121634977Y-112505826D01*
X121541185Y-112489288D01*
X121455663Y-112425854D01*
X121417036Y-112370690D01*
X121386679Y-112268629D01*
X121372859Y-112072778D01*
X121414204Y-111838300D01*
X121494175Y-111658987D01*
X121557609Y-111573464D01*
X121612773Y-111534838D01*
X121714834Y-111504480D01*
X122131572Y-112980218D02*
X122186737Y-112941591D01*
X122305335Y-112817442D01*
X122368768Y-112731920D01*
X122440471Y-112599502D01*
X122528711Y-112373293D01*
X122561787Y-112185711D01*
X122556236Y-111942964D01*
X122534148Y-111794008D01*
X122503790Y-111691948D01*
X122434806Y-111534723D01*
X122396179Y-111479559D01*
X96464380Y-105819295D02*
X95464380Y-105819295D01*
X95464380Y-105438342D01*
X95512000Y-105343104D01*
X95559619Y-105295485D01*
X95654857Y-105247866D01*
X95797714Y-105247866D01*
X95892952Y-105295485D01*
X95940571Y-105343104D01*
X95988190Y-105438342D01*
X95988190Y-105819295D01*
X96464380Y-104247866D02*
X95988190Y-104581200D01*
X96464380Y-104819295D02*
X95464380Y-104819295D01*
X95464380Y-104438342D01*
X95512000Y-104343104D01*
X95559619Y-104295485D01*
X95654857Y-104247866D01*
X95797714Y-104247866D01*
X95892952Y-104295485D01*
X95940571Y-104343104D01*
X95988190Y-104438342D01*
X95988190Y-104819295D01*
X95464380Y-103628819D02*
X95464380Y-103438342D01*
X95512000Y-103343104D01*
X95607238Y-103247866D01*
X95797714Y-103200247D01*
X96131047Y-103200247D01*
X96321523Y-103247866D01*
X96416761Y-103343104D01*
X96464380Y-103438342D01*
X96464380Y-103628819D01*
X96416761Y-103724057D01*
X96321523Y-103819295D01*
X96131047Y-103866914D01*
X95797714Y-103866914D01*
X95607238Y-103819295D01*
X95512000Y-103724057D01*
X95464380Y-103628819D01*
X95940571Y-102438342D02*
X95988190Y-102295485D01*
X96035809Y-102247866D01*
X96131047Y-102200247D01*
X96273904Y-102200247D01*
X96369142Y-102247866D01*
X96416761Y-102295485D01*
X96464380Y-102390723D01*
X96464380Y-102771676D01*
X95464380Y-102771676D01*
X95464380Y-102438342D01*
X95512000Y-102343104D01*
X95559619Y-102295485D01*
X95654857Y-102247866D01*
X95750095Y-102247866D01*
X95845333Y-102295485D01*
X95892952Y-102343104D01*
X95940571Y-102438342D01*
X95940571Y-102771676D01*
X95940571Y-101771676D02*
X95940571Y-101438342D01*
X96464380Y-101295485D02*
X96464380Y-101771676D01*
X95464380Y-101771676D01*
X95464380Y-101295485D01*
X111965676Y-108482922D02*
X110980868Y-108309273D01*
X111449824Y-108391963D02*
X111549052Y-107829216D01*
X112064903Y-107920174D02*
X111080096Y-107746526D01*
X111195861Y-107089988D02*
X111228937Y-106902405D01*
X111292371Y-106816883D01*
X111402700Y-106739630D01*
X111598551Y-106725810D01*
X111926820Y-106783693D01*
X112106134Y-106863664D01*
X112183387Y-106973993D01*
X112213745Y-107076053D01*
X112180669Y-107263636D01*
X112117235Y-107349158D01*
X112006906Y-107426411D01*
X111811055Y-107440231D01*
X111482786Y-107382348D01*
X111303472Y-107302377D01*
X111226219Y-107192048D01*
X111195861Y-107089988D01*
X111319896Y-106386554D02*
X111419123Y-105823806D01*
X112354317Y-106278828D02*
X111369509Y-106105180D01*
X111945962Y-105578227D02*
X112003845Y-105249957D01*
X112544503Y-105200229D02*
X112461814Y-105669185D01*
X111477006Y-105495537D01*
X111559695Y-105026581D01*
X112618924Y-104778169D02*
X111634116Y-104604520D01*
X112718151Y-104215421D01*
X111733344Y-104041773D01*
X112800841Y-103746465D02*
X111816033Y-103572817D01*
X111857378Y-103338339D01*
X111929081Y-103205921D01*
X112039410Y-103128668D01*
X112141470Y-103098310D01*
X112337321Y-103084490D01*
X112478008Y-103109297D01*
X112657322Y-103189269D01*
X112742844Y-103252702D01*
X112820097Y-103363031D01*
X112842186Y-103511987D01*
X112800841Y-103746465D01*
X112853447Y-109703240D02*
X112795564Y-110031510D01*
X113311416Y-110122468D02*
X112326608Y-109948820D01*
X112409298Y-109479864D01*
X113170615Y-109275629D02*
X113253304Y-108806673D01*
X113435451Y-109419034D02*
X112508525Y-108917117D01*
X113551216Y-108762496D01*
X113609099Y-108434226D02*
X112624291Y-108260578D01*
X113708326Y-107871479D01*
X112723518Y-107697831D01*
X114348098Y-106436971D02*
X114292933Y-106475598D01*
X114135709Y-106544582D01*
X114033648Y-106574940D01*
X113884693Y-106597029D01*
X113641946Y-106602580D01*
X113454363Y-106569504D01*
X113228154Y-106481263D01*
X113095736Y-106409561D01*
X113010214Y-106346127D01*
X112886065Y-106227529D01*
X112847438Y-106172365D01*
X113581116Y-105576427D02*
X113523233Y-105904696D01*
X114039085Y-105995655D02*
X113054277Y-105822007D01*
X113136967Y-105353051D01*
X113898283Y-105148816D02*
X113980973Y-104679860D01*
X114163119Y-105292221D02*
X113236194Y-104790303D01*
X114278885Y-104635682D01*
X114336767Y-104307413D02*
X113351959Y-104133765D01*
X114435995Y-103744666D01*
X113451187Y-103571017D01*
X114609643Y-102759858D02*
X114510415Y-103322605D01*
X114560029Y-103041232D02*
X113575221Y-102867583D01*
X113699370Y-102986181D01*
X113776624Y-103096511D01*
X113806981Y-103198571D01*
X115042691Y-102497740D02*
X115004064Y-102442576D01*
X114879915Y-102323978D01*
X114794393Y-102260544D01*
X114661975Y-102188842D01*
X114435766Y-102100601D01*
X114248183Y-102067525D01*
X114005436Y-102073076D01*
X113856481Y-102095165D01*
X113754420Y-102125523D01*
X113597196Y-102194507D01*
X113542031Y-102233134D01*
X89208935Y-108778828D02*
X89035287Y-107794020D01*
X89117977Y-108262977D02*
X89680724Y-108163749D01*
X89771683Y-108679601D02*
X89598034Y-107694793D01*
X90149680Y-108081059D02*
X90477949Y-108023177D01*
X90709595Y-108514221D02*
X90240639Y-108596911D01*
X90066990Y-107612103D01*
X90535947Y-107529414D01*
X91035146Y-108166696D02*
X91504102Y-108084007D01*
X90990968Y-108464608D02*
X91145589Y-107421917D01*
X91647507Y-108348842D01*
X91661441Y-107330959D02*
X92224188Y-107231731D01*
X92116463Y-108266153D02*
X91942815Y-107281345D01*
X92635147Y-107642804D02*
X92963416Y-107584922D01*
X93195062Y-108075967D02*
X92726106Y-108158656D01*
X92552458Y-107173848D01*
X93021414Y-107091159D01*
X94179870Y-107902318D02*
X93768911Y-107491245D01*
X93617122Y-108001546D02*
X93443474Y-107016738D01*
X93818639Y-106950586D01*
X93920699Y-106980944D01*
X93975864Y-107019571D01*
X94039297Y-107105093D01*
X94064104Y-107245780D01*
X94033746Y-107347840D01*
X93995120Y-107403005D01*
X93909598Y-107466438D01*
X93534433Y-107532590D01*
X104008228Y-114741485D02*
X104008228Y-114408152D01*
X103484419Y-114408152D02*
X104484419Y-114408152D01*
X104484419Y-114884342D01*
X103770133Y-115217676D02*
X103770133Y-115693866D01*
X103484419Y-115122438D02*
X104484419Y-115455771D01*
X103484419Y-115789104D01*
X103484419Y-116122438D02*
X104484419Y-116122438D01*
X103484419Y-116693866D01*
X104484419Y-116693866D01*
X103484419Y-117693866D02*
X103484419Y-117122438D01*
X103484419Y-117408152D02*
X104484419Y-117408152D01*
X104341561Y-117312914D01*
X104246323Y-117217676D01*
X104198704Y-117122438D01*
%TO.C,J1*%
X82536672Y-84756307D02*
X83041748Y-85261383D01*
X83109092Y-85396070D01*
X83109092Y-85530757D01*
X83041748Y-85665444D01*
X82974405Y-85732787D01*
X83950886Y-84756307D02*
X83546825Y-85160368D01*
X83748855Y-84958337D02*
X83041748Y-84251230D01*
X83075420Y-84419589D01*
X83075420Y-84554276D01*
X83041748Y-84655291D01*
X83582080Y-90560904D02*
X83817782Y-90325201D01*
X84289187Y-90594575D02*
X83952469Y-90931293D01*
X83245362Y-90224186D01*
X83582080Y-89887469D01*
X84491217Y-90527232D02*
X85029965Y-89988484D01*
X85063637Y-89752782D02*
X85198324Y-89685438D01*
X85366683Y-89517079D01*
X85400355Y-89416064D01*
X85400355Y-89348721D01*
X85366683Y-89247705D01*
X85299339Y-89180362D01*
X85198324Y-89146690D01*
X85130981Y-89146690D01*
X85029965Y-89180362D01*
X84861607Y-89281377D01*
X84760591Y-89315049D01*
X84693248Y-89315049D01*
X84592233Y-89281377D01*
X84524889Y-89214034D01*
X84491217Y-89113018D01*
X84491217Y-89045675D01*
X84524889Y-88944660D01*
X84693248Y-88776301D01*
X84827935Y-88708957D01*
X84996294Y-88473255D02*
X85400355Y-88069194D01*
X85905431Y-88978331D02*
X85198324Y-88271225D01*
X85972774Y-88170209D02*
X86208477Y-87934507D01*
X86679881Y-88203881D02*
X86343164Y-88540599D01*
X85636057Y-87833492D01*
X85972774Y-87496774D01*
X86982927Y-87900835D02*
X86275820Y-87193729D01*
X86545194Y-86924355D01*
X86646209Y-86890683D01*
X86713553Y-86890683D01*
X86814568Y-86924355D01*
X86915583Y-87025370D01*
X86949255Y-87126385D01*
X86949255Y-87193729D01*
X86915583Y-87294744D01*
X86646209Y-87564118D01*
X87690034Y-87193729D02*
X86982927Y-86486622D01*
X87252301Y-86217248D01*
X87353316Y-86183576D01*
X87420660Y-86183576D01*
X87521675Y-86217248D01*
X87622690Y-86318263D01*
X87656362Y-86419278D01*
X87656362Y-86486622D01*
X87622690Y-86587637D01*
X87353316Y-86857011D01*
X88026751Y-86116233D02*
X88262453Y-85880530D01*
X88733858Y-86149904D02*
X88397140Y-86486622D01*
X87690034Y-85779515D01*
X88026751Y-85442798D01*
X89440965Y-85442798D02*
X88868545Y-85341782D01*
X89036904Y-85846859D02*
X88329797Y-85139752D01*
X88599171Y-84870378D01*
X88700186Y-84836706D01*
X88767530Y-84836706D01*
X88868545Y-84870378D01*
X88969560Y-84971393D01*
X89003232Y-85072408D01*
X89003232Y-85139752D01*
X88969560Y-85240767D01*
X88700186Y-85510141D01*
%TO.C,J2*%
X92354820Y-114218910D02*
X93058254Y-114094875D01*
X93207210Y-114116964D01*
X93317539Y-114194217D01*
X93389241Y-114326635D01*
X93405779Y-114420426D01*
X92374190Y-113780311D02*
X92319026Y-113741685D01*
X92255592Y-113656163D01*
X92214247Y-113421684D01*
X92244605Y-113319624D01*
X92283232Y-113264460D01*
X92368754Y-113201026D01*
X92462545Y-113184488D01*
X92611501Y-113206577D01*
X93273476Y-113670097D01*
X93165979Y-113060454D01*
%TO.C,J3*%
X82627383Y-107001762D02*
X83330817Y-106877727D01*
X83479773Y-106899816D01*
X83590102Y-106977069D01*
X83661804Y-107109487D01*
X83678342Y-107203278D01*
X82561231Y-106626597D02*
X82453735Y-106016954D01*
X82886782Y-106279072D01*
X82861975Y-106138385D01*
X82892333Y-106036325D01*
X82930960Y-105981160D01*
X83016482Y-105917727D01*
X83250960Y-105876382D01*
X83353020Y-105906739D01*
X83408185Y-105945366D01*
X83471618Y-106030888D01*
X83521232Y-106312262D01*
X83490874Y-106414322D01*
X83452248Y-106469487D01*
%TO.C,J4*%
X119935315Y-108245817D02*
X120638749Y-108369851D01*
X120771167Y-108441554D01*
X120848421Y-108551883D01*
X120870509Y-108700839D01*
X120853971Y-108794630D01*
X120420695Y-107412683D02*
X121077233Y-107528448D01*
X120004185Y-107581009D02*
X120666274Y-107939522D01*
X120773771Y-107329879D01*
%TO.C,J5*%
X78969783Y-107662162D02*
X79673217Y-107538127D01*
X79822173Y-107560216D01*
X79932502Y-107637469D01*
X80004204Y-107769887D01*
X80020742Y-107863678D01*
X78804404Y-106724250D02*
X78887093Y-107193206D01*
X79364318Y-107157412D01*
X79309154Y-107118785D01*
X79245720Y-107033263D01*
X79204375Y-106798785D01*
X79234733Y-106696725D01*
X79273360Y-106641560D01*
X79358882Y-106578127D01*
X79593360Y-106536782D01*
X79695420Y-106567139D01*
X79750585Y-106605766D01*
X79814018Y-106691288D01*
X79855363Y-106925766D01*
X79825005Y-107027827D01*
X79786379Y-107082991D01*
%TO.C,J6*%
X114431127Y-107229817D02*
X115134561Y-107353851D01*
X115266979Y-107425554D01*
X115344233Y-107535883D01*
X115366321Y-107684839D01*
X115349783Y-107778630D01*
X114588238Y-106338800D02*
X114555162Y-106526383D01*
X114585519Y-106628443D01*
X114624146Y-106683607D01*
X114748295Y-106802205D01*
X114927608Y-106882177D01*
X115302773Y-106948329D01*
X115404833Y-106917971D01*
X115459998Y-106879344D01*
X115523432Y-106793822D01*
X115556507Y-106606240D01*
X115526150Y-106504179D01*
X115487523Y-106449015D01*
X115402001Y-106385581D01*
X115167523Y-106344236D01*
X115065463Y-106374594D01*
X115010298Y-106413221D01*
X114946864Y-106498743D01*
X114913789Y-106686325D01*
X114944146Y-106788386D01*
X114982773Y-106843550D01*
X115068295Y-106906984D01*
%TO.C,J10*%
X100282476Y-115073180D02*
X100282476Y-115787466D01*
X100234857Y-115930323D01*
X100139619Y-116025561D01*
X99996761Y-116073180D01*
X99901523Y-116073180D01*
X101282476Y-116073180D02*
X100711047Y-116073180D01*
X100996761Y-116073180D02*
X100996761Y-115073180D01*
X100901523Y-115216038D01*
X100806285Y-115311276D01*
X100711047Y-115358895D01*
X101901523Y-115073180D02*
X101996761Y-115073180D01*
X102092000Y-115120800D01*
X102139619Y-115168419D01*
X102187238Y-115263657D01*
X102234857Y-115454133D01*
X102234857Y-115692228D01*
X102187238Y-115882704D01*
X102139619Y-115977942D01*
X102092000Y-116025561D01*
X101996761Y-116073180D01*
X101901523Y-116073180D01*
X101806285Y-116025561D01*
X101758666Y-115977942D01*
X101711047Y-115882704D01*
X101663428Y-115692228D01*
X101663428Y-115454133D01*
X101711047Y-115263657D01*
X101758666Y-115168419D01*
X101806285Y-115120800D01*
X101901523Y-115073180D01*
%TO.C,J12*%
X108395175Y-114315740D02*
X108804872Y-114900849D01*
X108847805Y-115045184D01*
X108824417Y-115177824D01*
X108734708Y-115298771D01*
X108656694Y-115353397D01*
X109787904Y-114561316D02*
X109319817Y-114889074D01*
X109553860Y-114725195D02*
X108980284Y-113906043D01*
X108984209Y-114077691D01*
X108960820Y-114210331D01*
X108910119Y-114303965D01*
X109581011Y-113601673D02*
X109592705Y-113535352D01*
X109643407Y-113441719D01*
X109838443Y-113305153D01*
X109943771Y-113289534D01*
X110010091Y-113301228D01*
X110103725Y-113351929D01*
X110158351Y-113429944D01*
X110201283Y-113574279D01*
X110060954Y-114370123D01*
X110568048Y-114015052D01*
%TO.C,J13*%
X99320180Y-108454723D02*
X100034466Y-108454723D01*
X100177323Y-108502342D01*
X100272561Y-108597580D01*
X100320180Y-108740438D01*
X100320180Y-108835676D01*
X100320180Y-107454723D02*
X100320180Y-108026152D01*
X100320180Y-107740438D02*
X99320180Y-107740438D01*
X99463038Y-107835676D01*
X99558276Y-107930914D01*
X99605895Y-108026152D01*
X99320180Y-107121390D02*
X99320180Y-106502342D01*
X99701133Y-106835676D01*
X99701133Y-106692819D01*
X99748752Y-106597580D01*
X99796371Y-106549961D01*
X99891609Y-106502342D01*
X100129704Y-106502342D01*
X100224942Y-106549961D01*
X100272561Y-106597580D01*
X100320180Y-106692819D01*
X100320180Y-106978533D01*
X100272561Y-107073771D01*
X100224942Y-107121390D01*
%TO.C,J8*%
X101044666Y-106035180D02*
X101044666Y-106749466D01*
X100997047Y-106892323D01*
X100901809Y-106987561D01*
X100758952Y-107035180D01*
X100663714Y-107035180D01*
X101663714Y-106463752D02*
X101568476Y-106416133D01*
X101520857Y-106368514D01*
X101473238Y-106273276D01*
X101473238Y-106225657D01*
X101520857Y-106130419D01*
X101568476Y-106082800D01*
X101663714Y-106035180D01*
X101854190Y-106035180D01*
X101949428Y-106082800D01*
X101997047Y-106130419D01*
X102044666Y-106225657D01*
X102044666Y-106273276D01*
X101997047Y-106368514D01*
X101949428Y-106416133D01*
X101854190Y-106463752D01*
X101663714Y-106463752D01*
X101568476Y-106511371D01*
X101520857Y-106558990D01*
X101473238Y-106654228D01*
X101473238Y-106844704D01*
X101520857Y-106939942D01*
X101568476Y-106987561D01*
X101663714Y-107035180D01*
X101854190Y-107035180D01*
X101949428Y-106987561D01*
X101997047Y-106939942D01*
X102044666Y-106844704D01*
X102044666Y-106654228D01*
X101997047Y-106558990D01*
X101949428Y-106511371D01*
X101854190Y-106463752D01*
%TO.C,J7*%
X80177980Y-98072533D02*
X80892266Y-98072533D01*
X81035123Y-98120152D01*
X81130361Y-98215390D01*
X81177980Y-98358247D01*
X81177980Y-98453485D01*
X80177980Y-97691580D02*
X80177980Y-97024914D01*
X81177980Y-97453485D01*
D12*
%TO.C,J1*%
X87822224Y-84933320D02*
X87963646Y-85074742D01*
X82865406Y-84784828D02*
X82511852Y-84431274D01*
X79435938Y-87507189D02*
X81910812Y-89982063D01*
X81910812Y-89982063D02*
X83289670Y-88603204D01*
X84421041Y-83229193D02*
X84279619Y-83370614D01*
X88607113Y-84572696D02*
X89490996Y-83688812D01*
X88140422Y-82762502D02*
X87709087Y-83193838D01*
X84279619Y-83370614D02*
X83926066Y-83017061D01*
X87256539Y-85499006D02*
X86825204Y-85067671D01*
X85729188Y-80351268D02*
X78573268Y-87507189D01*
X81910812Y-90844733D02*
X89066732Y-83688812D01*
X83996777Y-82946350D02*
X84350330Y-83299904D01*
X81451192Y-86199041D02*
X81097639Y-85845488D01*
X80984502Y-89918423D02*
X81415837Y-89487088D01*
X86825204Y-85067671D02*
X88204062Y-83688812D01*
X88175778Y-84862610D02*
X88034356Y-84721188D01*
X81168349Y-85774777D02*
X81521903Y-86128331D01*
X89490996Y-83688812D02*
X88607113Y-82804929D01*
X87892935Y-85004031D02*
X88105067Y-84791899D01*
X80065263Y-88999184D02*
X80496598Y-88567849D01*
X87221184Y-81843264D02*
X86789848Y-82274599D01*
X81592614Y-86057620D02*
X81451192Y-86199041D01*
X84067487Y-82875640D02*
X84421041Y-83229193D01*
X81239060Y-85704067D02*
X81592614Y-86057620D01*
X82582563Y-84360564D02*
X82936116Y-84714117D01*
X89066732Y-83688812D02*
X85729188Y-80351268D01*
X78573268Y-87507189D02*
X81910812Y-90844733D01*
X82653274Y-84289853D02*
X83006827Y-84643406D01*
X85729188Y-81213939D02*
X79435938Y-87507189D01*
X87963646Y-85074742D02*
X88175778Y-84862610D01*
X83006827Y-84643406D02*
X82865406Y-84784828D01*
X88204062Y-83688812D02*
X85729188Y-81213939D01*
X83289670Y-88603204D02*
X83721005Y-89034540D01*
%TO.C,J2*%
X95746215Y-113751497D02*
X95513833Y-112433594D01*
X96518081Y-118128967D02*
X96096984Y-115740808D01*
X96518081Y-118128967D02*
X87536634Y-119712638D01*
X85822727Y-109992586D02*
X94804173Y-108408915D01*
X86378178Y-118901479D02*
X85011567Y-111151042D01*
X87536634Y-119712638D02*
X86378178Y-118901479D01*
X94804173Y-108408915D02*
X95287477Y-111149864D01*
X85011567Y-111151042D02*
X85822727Y-109992586D01*
%TO.C,J3*%
X84346765Y-109496438D02*
X84240840Y-108895705D01*
X81206094Y-103835812D02*
X82268821Y-109862836D01*
X83284039Y-103469415D02*
X83389964Y-104070147D01*
X86298926Y-105537301D02*
X85698193Y-105643226D01*
X86258488Y-104732090D02*
X86206394Y-104436647D01*
X85627015Y-109270695D02*
X85521090Y-108669963D01*
X82338190Y-106743399D02*
X82830594Y-106656574D01*
X86917114Y-109043216D02*
X85854387Y-103016193D01*
X82763628Y-109156178D02*
X86210456Y-108548409D01*
X85698193Y-105643226D02*
X85359579Y-103722851D01*
X86356969Y-104714725D02*
X86304875Y-104419283D01*
X84564289Y-103243672D02*
X84670214Y-103844405D01*
X82813229Y-106558094D02*
X82847959Y-106755055D01*
X82268821Y-109862836D02*
X86917114Y-109043216D01*
X82847959Y-106755055D02*
X82355555Y-106841879D01*
X81912752Y-104330620D02*
X82763628Y-109156178D01*
X85871842Y-106628034D02*
X86472574Y-106522108D01*
X86097735Y-102668656D02*
X84866725Y-102885716D01*
X86210456Y-108548409D02*
X85871842Y-106628034D01*
X85854387Y-103016193D02*
X81206094Y-103835812D01*
X86160008Y-104749454D02*
X86356969Y-104714725D01*
X85359579Y-103722851D02*
X81912752Y-104330620D01*
X82320826Y-106644918D02*
X82813229Y-106558094D01*
X86304875Y-104419283D02*
X86107913Y-104454012D01*
X86314795Y-103899666D02*
X86097735Y-102668656D01*
%TO.C,J4*%
X123400097Y-109025989D02*
X124000830Y-109131915D01*
X124562452Y-107098548D02*
X124365491Y-107063819D01*
X119970725Y-104806380D02*
X118907998Y-110833403D01*
X120057459Y-107827336D02*
X120549863Y-107914160D01*
X124510358Y-107393991D02*
X124562452Y-107098548D01*
X119614656Y-110338596D02*
X123061483Y-110946365D01*
X124749494Y-106613661D02*
X124966554Y-105382651D01*
X124619017Y-105625999D02*
X119970725Y-104806380D01*
X124174478Y-108147107D02*
X123573745Y-108041182D01*
X123556290Y-111653023D02*
X124619017Y-105625999D01*
X120040094Y-107925817D02*
X120532498Y-108012641D01*
X122048669Y-105172777D02*
X121942744Y-105773510D01*
X123912359Y-106120807D02*
X120465532Y-105513038D01*
X123061483Y-110946365D02*
X123400097Y-109025989D01*
X120549863Y-107914160D02*
X120515133Y-108111122D01*
X122266192Y-111425544D02*
X122372118Y-110824811D01*
X124313396Y-107359261D02*
X124510358Y-107393991D01*
X120515133Y-108111122D02*
X120022729Y-108024298D01*
X120985942Y-111199801D02*
X121091868Y-110599068D01*
X123328919Y-105398520D02*
X123222994Y-105999253D01*
X120465532Y-105513038D02*
X119614656Y-110338596D01*
X124966554Y-105382651D02*
X123735544Y-105165591D01*
X123573745Y-108041182D02*
X123912359Y-106120807D01*
X118907998Y-110833403D02*
X123556290Y-111653023D01*
X124411877Y-107376626D02*
X124463972Y-107081183D01*
%TO.C,J5*%
X75642886Y-104824784D02*
X76705613Y-110851807D01*
X78213235Y-104371562D02*
X78319160Y-104972295D01*
X80291179Y-104005164D02*
X75642886Y-104824784D01*
X77995711Y-110624328D02*
X77889786Y-110023595D01*
X77200421Y-110145149D02*
X80647248Y-109537380D01*
X76399992Y-109118546D02*
X76203031Y-109153275D01*
X81353906Y-110032188D02*
X80291179Y-104005164D01*
X80221810Y-107124601D02*
X79729406Y-107211426D01*
X79712041Y-107112945D02*
X80204445Y-107026121D01*
X76462265Y-111199344D02*
X77693275Y-110982284D01*
X76245205Y-109968334D02*
X76462265Y-111199344D01*
X76861807Y-108224774D02*
X77200421Y-110145149D01*
X79796372Y-104711822D02*
X76349544Y-105319591D01*
X80239174Y-107223082D02*
X79746771Y-107309906D01*
X76301512Y-109135910D02*
X76353606Y-109431353D01*
X76349544Y-105319591D02*
X76688158Y-107239966D01*
X76932985Y-104597305D02*
X77038910Y-105198037D01*
X76255125Y-109448717D02*
X76452087Y-109413988D01*
X76705613Y-110851807D02*
X81353906Y-110032188D01*
X76203031Y-109153275D02*
X76255125Y-109448717D01*
X76688158Y-107239966D02*
X76087426Y-107345892D01*
X79746771Y-107309906D02*
X79712041Y-107112945D01*
X80647248Y-109537380D02*
X79796372Y-104711822D01*
X79275961Y-110398585D02*
X79170036Y-109797853D01*
X76261074Y-108330699D02*
X76861807Y-108224774D01*
%TO.C,J6*%
X118907689Y-106360626D02*
X118959784Y-106065183D01*
X116544481Y-104156777D02*
X116438556Y-104757510D01*
X114961344Y-104497038D02*
X114110468Y-109322596D01*
X119006170Y-106377991D02*
X119058264Y-106082548D01*
X114553271Y-106811336D02*
X115045675Y-106898160D01*
X119058264Y-106082548D02*
X118861303Y-106047819D01*
X114535906Y-106909817D02*
X115028310Y-106996641D01*
X115045675Y-106898160D02*
X115010945Y-107095122D01*
X117895909Y-108009989D02*
X118496642Y-108115915D01*
X118069557Y-107025182D02*
X118408171Y-105104807D01*
X119114829Y-104609999D02*
X114466537Y-103790380D01*
X115481754Y-110183801D02*
X115587680Y-109583068D01*
X118670290Y-107131107D02*
X118069557Y-107025182D01*
X113403810Y-109817403D02*
X118052102Y-110637023D01*
X118408171Y-105104807D02*
X114961344Y-104497038D01*
X118052102Y-110637023D02*
X119114829Y-104609999D01*
X119245306Y-105597661D02*
X119462366Y-104366651D01*
X118809208Y-106343261D02*
X119006170Y-106377991D01*
X119462366Y-104366651D02*
X118231356Y-104149591D01*
X116762004Y-110409544D02*
X116867930Y-109808811D01*
X114110468Y-109322596D02*
X117557295Y-109930365D01*
X117557295Y-109930365D02*
X117895909Y-108009989D01*
X117824731Y-104382520D02*
X117718806Y-104983253D01*
X115010945Y-107095122D02*
X114518541Y-107008298D01*
X114466537Y-103790380D02*
X113403810Y-109817403D01*
%TO.C,J10*%
X101279200Y-111646400D02*
X103339200Y-111646400D01*
X99219200Y-113706400D02*
X99219200Y-117766400D01*
X99219200Y-113706400D02*
X101279200Y-113706400D01*
X101279200Y-113706400D02*
X101279200Y-111646400D01*
X99219200Y-111646400D02*
X100279200Y-111646400D01*
X103339200Y-111646400D02*
X103339200Y-117766400D01*
X99219200Y-117766400D02*
X103339200Y-117766400D01*
X99219200Y-112706400D02*
X99219200Y-111646400D01*
%TO.C,J12*%
X110910688Y-108884262D02*
X104259173Y-113541702D01*
X110760887Y-109733826D02*
X109163540Y-110852300D01*
X110556609Y-113539187D02*
X110843397Y-113948763D01*
X104259173Y-113541702D02*
X106966454Y-117408100D01*
X110392779Y-113653902D02*
X110556609Y-113539187D01*
X109123178Y-115153273D02*
X108836390Y-114743697D01*
X105108738Y-113691503D02*
X107116255Y-116558536D01*
X108918305Y-114686340D02*
X109205093Y-115095916D01*
X105586166Y-112368377D02*
X105340420Y-112540450D01*
X106356203Y-112073347D02*
X106706084Y-112573029D01*
X112407723Y-111022248D02*
X111908040Y-111372130D01*
X111662073Y-109957351D02*
X111162390Y-110307232D01*
X105643523Y-112450293D02*
X105397778Y-112622365D01*
X112768404Y-112600858D02*
X110760887Y-109733826D01*
X110761482Y-114006120D02*
X110474694Y-113596544D01*
X105756208Y-115679689D02*
X106255891Y-115329807D01*
X105700881Y-112532208D02*
X105586166Y-112368377D01*
X107116255Y-116558536D02*
X112768404Y-112600858D01*
X105340420Y-112540450D02*
X105455135Y-112704281D01*
X106966454Y-117408100D02*
X113617969Y-112750659D01*
X104865295Y-112751059D02*
X103841355Y-113468030D01*
X109041263Y-115210631D02*
X108754474Y-114801055D01*
X105010559Y-114614791D02*
X105510241Y-114264910D01*
X109163540Y-110852300D02*
X108813659Y-110352617D01*
X108754474Y-114801055D02*
X108918305Y-114686340D01*
X103841355Y-113468030D02*
X104558325Y-114491970D01*
X110679567Y-114063478D02*
X110392779Y-113653902D01*
X106706084Y-112573029D02*
X105108738Y-113691503D01*
X113617969Y-112750659D02*
X110910688Y-108884262D01*
%TO.C,J13*%
X99923600Y-106366000D02*
X110143600Y-106366000D01*
X97323600Y-109026000D02*
X97323600Y-107696000D01*
X99923600Y-109026000D02*
X110143600Y-109026000D01*
X98653600Y-109026000D02*
X97323600Y-109026000D01*
X99923600Y-109026000D02*
X99923600Y-106366000D01*
X110143600Y-109026000D02*
X110143600Y-106366000D01*
%TO.C,J8*%
X104828000Y-104882800D02*
X104828000Y-101382800D01*
X103678000Y-105592800D02*
X103978000Y-105592800D01*
X105738000Y-105792800D02*
X105738000Y-104542800D01*
X104488000Y-105792800D02*
X105738000Y-105792800D01*
X97318000Y-105492800D02*
X105438000Y-105492800D01*
X105438000Y-102882800D02*
X104828000Y-102882800D01*
X100278000Y-101882800D02*
X100278000Y-101382800D01*
X104828000Y-101382800D02*
X97928000Y-101382800D01*
X105438000Y-104182800D02*
X104828000Y-104182800D01*
X103678000Y-105492800D02*
X103678000Y-105692800D01*
X100478000Y-101382800D02*
X100478000Y-101882800D01*
X102278000Y-101882800D02*
X102278000Y-101382800D01*
X103978000Y-105692800D02*
X103978000Y-105492800D01*
X100378000Y-101382800D02*
X100378000Y-101882800D01*
X97928000Y-104882800D02*
X99878000Y-104882800D01*
X99878000Y-104882800D02*
X99878000Y-105492800D01*
X105438000Y-105492800D02*
X105438000Y-100772800D01*
X97318000Y-102882800D02*
X97928000Y-102882800D01*
X102378000Y-101382800D02*
X102378000Y-101882800D01*
X102878000Y-105492800D02*
X102878000Y-104882800D01*
X100478000Y-101882800D02*
X100278000Y-101882800D01*
X97928000Y-101382800D02*
X97928000Y-104882800D01*
X102478000Y-101382800D02*
X102478000Y-101882800D01*
X97318000Y-100772800D02*
X97318000Y-105492800D01*
X105438000Y-100772800D02*
X97318000Y-100772800D01*
X97318000Y-104182800D02*
X97928000Y-104182800D01*
X102878000Y-104882800D02*
X104828000Y-104882800D01*
X102478000Y-101882800D02*
X102278000Y-101882800D01*
X103678000Y-105692800D02*
X103978000Y-105692800D01*
%TO.C,J7*%
X82425600Y-96239200D02*
X81815600Y-96239200D01*
X81715600Y-100039200D02*
X81715600Y-100339200D01*
X85425600Y-98839200D02*
X85425600Y-98639200D01*
X85925600Y-101189200D02*
X85925600Y-94289200D01*
X83125600Y-93679200D02*
X83125600Y-94289200D01*
X85925600Y-98739200D02*
X85425600Y-98739200D01*
X81615600Y-100039200D02*
X81615600Y-100339200D01*
X86535600Y-93679200D02*
X81815600Y-93679200D01*
X85425600Y-98639200D02*
X85925600Y-98639200D01*
X85925600Y-96739200D02*
X85425600Y-96739200D01*
X85925600Y-94289200D02*
X82425600Y-94289200D01*
X84425600Y-93679200D02*
X84425600Y-94289200D01*
X82425600Y-94289200D02*
X82425600Y-96239200D01*
X85925600Y-96839200D02*
X85425600Y-96839200D01*
X85425600Y-96639200D02*
X85925600Y-96639200D01*
X85425600Y-96839200D02*
X85425600Y-96639200D01*
X81515600Y-100849200D02*
X81515600Y-102099200D01*
X81815600Y-93679200D02*
X81815600Y-101799200D01*
X82425600Y-101189200D02*
X85925600Y-101189200D01*
X82425600Y-99239200D02*
X82425600Y-101189200D01*
X81815600Y-100039200D02*
X81615600Y-100039200D01*
X86535600Y-101799200D02*
X86535600Y-93679200D01*
X81515600Y-102099200D02*
X82765600Y-102099200D01*
X85925600Y-98839200D02*
X85425600Y-98839200D01*
X81815600Y-101799200D02*
X86535600Y-101799200D01*
X84425600Y-101799200D02*
X84425600Y-101189200D01*
X81615600Y-100339200D02*
X81815600Y-100339200D01*
X81815600Y-99239200D02*
X82425600Y-99239200D01*
X83125600Y-101799200D02*
X83125600Y-101189200D01*
%TO.C,J9*%
X86754600Y-98071400D02*
X86754600Y-88941400D01*
X114124600Y-87941400D02*
X115124600Y-88941400D01*
X115124600Y-88941400D02*
X115124600Y-98071400D01*
X115124600Y-98071400D02*
X86754600Y-98071400D01*
X87754600Y-87941400D02*
X114124600Y-87941400D01*
X86754600Y-88941400D02*
X87754600Y-87941400D01*
%TD*%
%LPC*%
D13*
X104547964Y-84665899D02*
X103061043Y-84535810D01*
X103061043Y-84535810D02*
X102974315Y-84532344D01*
X102974315Y-84532344D02*
X102892432Y-84537193D01*
X102892432Y-84537193D02*
X102815455Y-84549837D01*
X102815455Y-84549837D02*
X102743441Y-84569752D01*
X102743441Y-84569752D02*
X102676451Y-84596420D01*
X102676451Y-84596420D02*
X102614541Y-84629317D01*
X102614541Y-84629317D02*
X102557773Y-84667923D01*
X102557773Y-84667923D02*
X102506205Y-84711716D01*
X102506205Y-84711716D02*
X102459896Y-84760173D01*
X102459896Y-84760173D02*
X102418904Y-84812776D01*
X102418904Y-84812776D02*
X102383288Y-84868999D01*
X102383288Y-84868999D02*
X102353109Y-84928325D01*
X102353109Y-84928325D02*
X102328425Y-84990229D01*
X102328425Y-84990229D02*
X102309294Y-85054192D01*
X102309294Y-85054192D02*
X102295775Y-85119691D01*
X102295775Y-85119691D02*
X102287929Y-85186205D01*
X102287929Y-85186205D02*
X102285813Y-85253213D01*
X102285813Y-85253213D02*
X102289486Y-85320193D01*
X102289486Y-85320193D02*
X102299009Y-85386624D01*
X102299009Y-85386624D02*
X102314438Y-85451983D01*
X102314438Y-85451983D02*
X102335835Y-85515751D01*
X102335835Y-85515751D02*
X102363257Y-85577404D01*
X102363257Y-85577404D02*
X102396763Y-85636422D01*
X102396763Y-85636422D02*
X102436412Y-85692284D01*
X102436412Y-85692284D02*
X102482265Y-85744467D01*
X102482265Y-85744467D02*
X102534379Y-85792452D01*
X102534379Y-85792452D02*
X102592813Y-85835714D01*
X102592813Y-85835714D02*
X102657627Y-85873734D01*
X102657627Y-85873734D02*
X102728879Y-85905990D01*
X102728879Y-85905990D02*
X102806628Y-85931961D01*
X102806628Y-85931961D02*
X102890934Y-85951123D01*
X102890934Y-85951123D02*
X102981854Y-85962959D01*
X102981854Y-85962959D02*
X104423452Y-86089082D01*
X104423452Y-86089082D02*
X104470434Y-86082043D01*
X104470434Y-86082043D02*
X104511943Y-86075156D01*
X104511943Y-86075156D02*
X104547869Y-86068288D01*
X104547869Y-86068288D02*
X104578104Y-86061306D01*
X104578104Y-86061306D02*
X104602539Y-86054080D01*
X104602539Y-86054080D02*
X104612546Y-86050334D01*
X104612546Y-86050334D02*
X104621063Y-86046479D01*
X104621063Y-86046479D02*
X104628075Y-86042495D01*
X104628075Y-86042495D02*
X104633569Y-86038369D01*
X104633569Y-86038369D02*
X104637532Y-86034082D01*
X104637532Y-86034082D02*
X104639948Y-86029620D01*
X104639948Y-86029620D02*
X104640806Y-86024964D01*
X104640806Y-86024964D02*
X104640090Y-86020100D01*
X104640090Y-86020100D02*
X104637788Y-86015009D01*
X104637788Y-86015009D02*
X104633887Y-86009677D01*
X104633887Y-86009677D02*
X104628371Y-86004085D01*
X104628371Y-86004085D02*
X104621228Y-85998219D01*
X104621228Y-85998219D02*
X104612446Y-85992061D01*
X104612446Y-85992061D02*
X104602008Y-85985595D01*
X104602008Y-85985595D02*
X104576113Y-85971673D01*
X104576113Y-85971673D02*
X104543438Y-85956320D01*
X104543438Y-85956320D02*
X104503873Y-85939408D01*
X104503873Y-85939408D02*
X104457307Y-85920802D01*
X104457307Y-85920802D02*
X103532139Y-85778756D01*
X103532139Y-85778756D02*
X103490730Y-85764144D01*
X103490730Y-85764144D02*
X103455380Y-85749840D01*
X103455380Y-85749840D02*
X103439947Y-85742824D01*
X103439947Y-85742824D02*
X103425994Y-85735907D01*
X103425994Y-85735907D02*
X103413509Y-85729098D01*
X103413509Y-85729098D02*
X103402479Y-85722405D01*
X103402479Y-85722405D02*
X103392894Y-85715836D01*
X103392894Y-85715836D02*
X103384743Y-85709397D01*
X103384743Y-85709397D02*
X103378011Y-85703097D01*
X103378011Y-85703097D02*
X103372688Y-85696944D01*
X103372688Y-85696944D02*
X103368764Y-85690944D01*
X103368764Y-85690944D02*
X103366225Y-85685106D01*
X103366225Y-85685106D02*
X103365060Y-85679436D01*
X103365060Y-85679436D02*
X103365257Y-85673945D01*
X103365257Y-85673945D02*
X103366805Y-85668637D01*
X103366805Y-85668637D02*
X103369692Y-85663523D01*
X103369692Y-85663523D02*
X103373906Y-85658608D01*
X103373906Y-85658608D02*
X103379434Y-85653901D01*
X103379434Y-85653901D02*
X103386268Y-85649409D01*
X103386268Y-85649409D02*
X103394393Y-85645139D01*
X103394393Y-85645139D02*
X103403797Y-85641102D01*
X103403797Y-85641102D02*
X103414471Y-85637302D01*
X103414471Y-85637302D02*
X103426402Y-85633748D01*
X103426402Y-85633748D02*
X103439577Y-85630447D01*
X103439577Y-85630447D02*
X103453987Y-85627408D01*
X103453987Y-85627408D02*
X103469618Y-85624638D01*
X103469618Y-85624638D02*
X103504496Y-85619936D01*
X103504496Y-85619936D02*
X103544122Y-85616401D01*
X103544122Y-85616401D02*
X103657720Y-85612649D01*
X103657720Y-85612649D02*
X103795329Y-85614059D01*
X103795329Y-85614059D02*
X103944883Y-85619193D01*
X103944883Y-85619193D02*
X104094310Y-85626617D01*
X104094310Y-85626617D02*
X104449362Y-85650456D01*
X104449362Y-85650456D02*
X104504594Y-85646551D01*
X104504594Y-85646551D02*
X104552354Y-85641635D01*
X104552354Y-85641635D02*
X104592679Y-85635743D01*
X104592679Y-85635743D02*
X104625606Y-85628908D01*
X104625606Y-85628908D02*
X104639306Y-85625148D01*
X104639306Y-85625148D02*
X104651173Y-85621164D01*
X104651173Y-85621164D02*
X104661208Y-85616961D01*
X104661208Y-85616961D02*
X104669417Y-85612545D01*
X104669417Y-85612545D02*
X104675806Y-85607918D01*
X104675806Y-85607918D02*
X104680378Y-85603086D01*
X104680378Y-85603086D02*
X104683138Y-85598052D01*
X104683138Y-85598052D02*
X104684090Y-85592820D01*
X104684090Y-85592820D02*
X104683242Y-85587395D01*
X104683242Y-85587395D02*
X104680594Y-85581781D01*
X104680594Y-85581781D02*
X104676155Y-85575982D01*
X104676155Y-85575982D02*
X104669926Y-85570004D01*
X104669926Y-85570004D02*
X104661914Y-85563849D01*
X104661914Y-85563849D02*
X104652124Y-85557522D01*
X104652124Y-85557522D02*
X104640559Y-85551027D01*
X104640559Y-85551027D02*
X104627225Y-85544368D01*
X104627225Y-85544368D02*
X104595266Y-85530580D01*
X104595266Y-85530580D02*
X104556287Y-85516188D01*
X104556287Y-85516188D02*
X104510323Y-85501227D01*
X104510323Y-85501227D02*
X104457413Y-85485730D01*
X104457413Y-85485730D02*
X103563158Y-85373534D01*
X103563158Y-85373534D02*
X103540284Y-85367808D01*
X103540284Y-85367808D02*
X103518985Y-85361930D01*
X103518985Y-85361930D02*
X103499257Y-85355917D01*
X103499257Y-85355917D02*
X103481094Y-85349789D01*
X103481094Y-85349789D02*
X103464491Y-85343562D01*
X103464491Y-85343562D02*
X103449442Y-85337257D01*
X103449442Y-85337257D02*
X103435942Y-85330890D01*
X103435942Y-85330890D02*
X103423985Y-85324480D01*
X103423985Y-85324480D02*
X103413565Y-85318047D01*
X103413565Y-85318047D02*
X103404677Y-85311608D01*
X103404677Y-85311608D02*
X103397315Y-85305182D01*
X103397315Y-85305182D02*
X103391475Y-85298786D01*
X103391475Y-85298786D02*
X103387150Y-85292439D01*
X103387150Y-85292439D02*
X103384336Y-85286161D01*
X103384336Y-85286161D02*
X103383024Y-85279968D01*
X103383024Y-85279968D02*
X103383213Y-85273880D01*
X103383213Y-85273880D02*
X103384894Y-85267915D01*
X103384894Y-85267915D02*
X103388064Y-85262091D01*
X103388064Y-85262091D02*
X103392715Y-85256427D01*
X103392715Y-85256427D02*
X103398843Y-85250941D01*
X103398843Y-85250941D02*
X103406442Y-85245651D01*
X103406442Y-85245651D02*
X103415508Y-85240576D01*
X103415508Y-85240576D02*
X103426033Y-85235734D01*
X103426033Y-85235734D02*
X103438013Y-85231144D01*
X103438013Y-85231144D02*
X103451443Y-85226823D01*
X103451443Y-85226823D02*
X103466315Y-85222791D01*
X103466315Y-85222791D02*
X103482625Y-85219065D01*
X103482625Y-85219065D02*
X103500368Y-85215665D01*
X103500368Y-85215665D02*
X103519539Y-85212608D01*
X103519539Y-85212608D02*
X103540130Y-85209912D01*
X103540130Y-85209912D02*
X103562137Y-85207596D01*
X103562137Y-85207596D02*
X103585556Y-85205680D01*
X103585556Y-85205680D02*
X104492638Y-85280506D01*
X104492638Y-85280506D02*
X104548068Y-85276101D01*
X104548068Y-85276101D02*
X104572944Y-85273273D01*
X104572944Y-85273273D02*
X104595935Y-85270049D01*
X104595935Y-85270049D02*
X104617047Y-85266447D01*
X104617047Y-85266447D02*
X104636282Y-85262482D01*
X104636282Y-85262482D02*
X104653648Y-85258170D01*
X104653648Y-85258170D02*
X104669149Y-85253528D01*
X104669149Y-85253528D02*
X104682791Y-85248571D01*
X104682791Y-85248571D02*
X104694578Y-85243316D01*
X104694578Y-85243316D02*
X104704516Y-85237779D01*
X104704516Y-85237779D02*
X104712610Y-85231976D01*
X104712610Y-85231976D02*
X104718864Y-85225924D01*
X104718864Y-85225924D02*
X104723285Y-85219639D01*
X104723285Y-85219639D02*
X104725877Y-85213136D01*
X104725877Y-85213136D02*
X104726646Y-85206433D01*
X104726646Y-85206433D02*
X104725597Y-85199544D01*
X104725597Y-85199544D02*
X104722734Y-85192487D01*
X104722734Y-85192487D02*
X104718063Y-85185277D01*
X104718063Y-85185277D02*
X104711590Y-85177931D01*
X104711590Y-85177931D02*
X104703319Y-85170465D01*
X104703319Y-85170465D02*
X104693255Y-85162894D01*
X104693255Y-85162894D02*
X104681404Y-85155236D01*
X104681404Y-85155236D02*
X104667771Y-85147506D01*
X104667771Y-85147506D02*
X104652361Y-85139721D01*
X104652361Y-85139721D02*
X104635178Y-85131897D01*
X104635178Y-85131897D02*
X104616229Y-85124050D01*
X104616229Y-85124050D02*
X104595519Y-85116196D01*
X104595519Y-85116196D02*
X104548834Y-85100532D01*
X104548834Y-85100532D02*
X104495165Y-85085035D01*
X104495165Y-85085035D02*
X104390944Y-85076080D01*
X104390944Y-85076080D02*
X104142991Y-85051360D01*
X104142991Y-85051360D02*
X103995445Y-85034091D01*
X103995445Y-85034091D02*
X103848366Y-85014087D01*
X103848366Y-85014087D02*
X103778792Y-85003184D01*
X103778792Y-85003184D02*
X103713884Y-84991748D01*
X103713884Y-84991748D02*
X103655159Y-84979828D01*
X103655159Y-84979828D02*
X103604133Y-84967475D01*
X103604133Y-84967475D02*
X103579293Y-84962171D01*
X103579293Y-84962171D02*
X103556515Y-84956730D01*
X103556515Y-84956730D02*
X103535756Y-84951168D01*
X103535756Y-84951168D02*
X103516977Y-84945503D01*
X103516977Y-84945503D02*
X103500133Y-84939750D01*
X103500133Y-84939750D02*
X103485186Y-84933926D01*
X103485186Y-84933926D02*
X103472090Y-84928048D01*
X103472090Y-84928048D02*
X103460807Y-84922134D01*
X103460807Y-84922134D02*
X103451292Y-84916199D01*
X103451292Y-84916199D02*
X103443506Y-84910259D01*
X103443506Y-84910259D02*
X103437405Y-84904333D01*
X103437405Y-84904333D02*
X103432948Y-84898437D01*
X103432948Y-84898437D02*
X103430094Y-84892587D01*
X103430094Y-84892587D02*
X103428800Y-84886800D01*
X103428800Y-84886800D02*
X103429026Y-84881092D01*
X103429026Y-84881092D02*
X103430727Y-84875481D01*
X103430727Y-84875481D02*
X103433864Y-84869984D01*
X103433864Y-84869984D02*
X103438395Y-84864615D01*
X103438395Y-84864615D02*
X103444277Y-84859394D01*
X103444277Y-84859394D02*
X103451469Y-84854336D01*
X103451469Y-84854336D02*
X103459929Y-84849458D01*
X103459929Y-84849458D02*
X103469615Y-84844776D01*
X103469615Y-84844776D02*
X103480486Y-84840308D01*
X103480486Y-84840308D02*
X103492499Y-84836070D01*
X103492499Y-84836070D02*
X103519787Y-84828350D01*
X103519787Y-84828350D02*
X103551143Y-84821752D01*
X103551143Y-84821752D02*
X103586234Y-84816408D01*
X103586234Y-84816408D02*
X103624726Y-84812452D01*
X103624726Y-84812452D02*
X103683798Y-84808817D01*
X103683798Y-84808817D02*
X103747686Y-84806827D01*
X103747686Y-84806827D02*
X103885783Y-84807008D01*
X103885783Y-84807008D02*
X104030777Y-84811444D01*
X104030777Y-84811444D02*
X104174428Y-84818585D01*
X104174428Y-84818585D02*
X104570829Y-84843210D01*
X104570829Y-84843210D02*
X104598874Y-84842029D01*
X104598874Y-84842029D02*
X104624490Y-84840093D01*
X104624490Y-84840093D02*
X104647736Y-84837449D01*
X104647736Y-84837449D02*
X104668669Y-84834144D01*
X104668669Y-84834144D02*
X104687345Y-84830226D01*
X104687345Y-84830226D02*
X104703823Y-84825742D01*
X104703823Y-84825742D02*
X104718159Y-84820739D01*
X104718159Y-84820739D02*
X104730411Y-84815265D01*
X104730411Y-84815265D02*
X104740636Y-84809368D01*
X104740636Y-84809368D02*
X104748890Y-84803094D01*
X104748890Y-84803094D02*
X104755233Y-84796492D01*
X104755233Y-84796492D02*
X104759719Y-84789609D01*
X104759719Y-84789609D02*
X104762407Y-84782491D01*
X104762407Y-84782491D02*
X104763355Y-84775187D01*
X104763355Y-84775187D02*
X104762619Y-84767745D01*
X104762619Y-84767745D02*
X104760256Y-84760210D01*
X104760256Y-84760210D02*
X104756325Y-84752631D01*
X104756325Y-84752631D02*
X104750881Y-84745056D01*
X104750881Y-84745056D02*
X104743982Y-84737531D01*
X104743982Y-84737531D02*
X104735686Y-84730104D01*
X104735686Y-84730104D02*
X104726049Y-84722823D01*
X104726049Y-84722823D02*
X104715131Y-84715735D01*
X104715131Y-84715735D02*
X104702985Y-84708887D01*
X104702985Y-84708887D02*
X104689671Y-84702327D01*
X104689671Y-84702327D02*
X104675247Y-84696102D01*
X104675247Y-84696102D02*
X104659767Y-84690260D01*
X104659767Y-84690260D02*
X104643292Y-84684848D01*
X104643292Y-84684848D02*
X104625876Y-84679913D01*
X104625876Y-84679913D02*
X104607579Y-84675504D01*
X104607579Y-84675504D02*
X104588456Y-84671667D01*
X104588456Y-84671667D02*
X104568565Y-84668449D01*
X104568565Y-84668449D02*
X104547964Y-84665899D01*
X104547964Y-84665899D02*
X104547964Y-84665899D01*
G36*
X103061043Y-84535810D02*
G01*
X104547964Y-84665899D01*
X104568565Y-84668449D01*
X104588456Y-84671667D01*
X104607579Y-84675504D01*
X104625876Y-84679913D01*
X104643292Y-84684848D01*
X104659767Y-84690260D01*
X104675247Y-84696102D01*
X104689671Y-84702327D01*
X104702985Y-84708887D01*
X104715131Y-84715735D01*
X104726049Y-84722823D01*
X104735686Y-84730104D01*
X104743982Y-84737531D01*
X104750881Y-84745056D01*
X104756325Y-84752631D01*
X104760256Y-84760210D01*
X104762619Y-84767745D01*
X104763355Y-84775187D01*
X104762407Y-84782491D01*
X104759719Y-84789609D01*
X104755233Y-84796492D01*
X104748890Y-84803094D01*
X104740636Y-84809368D01*
X104730411Y-84815265D01*
X104718159Y-84820739D01*
X104703823Y-84825742D01*
X104687345Y-84830226D01*
X104668669Y-84834144D01*
X104647736Y-84837449D01*
X104624490Y-84840093D01*
X104598874Y-84842029D01*
X104570829Y-84843210D01*
X104174428Y-84818585D01*
X104030777Y-84811444D01*
X103885783Y-84807008D01*
X103747686Y-84806827D01*
X103683798Y-84808817D01*
X103624726Y-84812452D01*
X103586234Y-84816408D01*
X103551143Y-84821752D01*
X103519787Y-84828350D01*
X103492499Y-84836070D01*
X103480486Y-84840308D01*
X103469615Y-84844776D01*
X103459929Y-84849458D01*
X103451469Y-84854336D01*
X103444277Y-84859394D01*
X103438395Y-84864615D01*
X103433864Y-84869984D01*
X103430727Y-84875481D01*
X103429026Y-84881092D01*
X103428800Y-84886800D01*
X103430094Y-84892587D01*
X103432948Y-84898437D01*
X103437405Y-84904333D01*
X103443506Y-84910259D01*
X103451292Y-84916199D01*
X103460807Y-84922134D01*
X103472090Y-84928048D01*
X103485186Y-84933926D01*
X103500133Y-84939750D01*
X103516977Y-84945503D01*
X103535756Y-84951168D01*
X103556515Y-84956730D01*
X103579293Y-84962171D01*
X103604133Y-84967475D01*
X103655159Y-84979828D01*
X103713884Y-84991748D01*
X103778792Y-85003184D01*
X103848366Y-85014087D01*
X103995445Y-85034091D01*
X104142991Y-85051360D01*
X104390944Y-85076080D01*
X104495165Y-85085035D01*
X104548834Y-85100532D01*
X104595519Y-85116196D01*
X104616229Y-85124050D01*
X104635178Y-85131897D01*
X104652361Y-85139721D01*
X104667771Y-85147506D01*
X104681404Y-85155236D01*
X104693255Y-85162894D01*
X104703319Y-85170465D01*
X104711590Y-85177931D01*
X104718063Y-85185277D01*
X104722734Y-85192487D01*
X104725597Y-85199544D01*
X104726646Y-85206433D01*
X104725877Y-85213136D01*
X104723285Y-85219639D01*
X104718864Y-85225924D01*
X104712610Y-85231976D01*
X104704516Y-85237779D01*
X104694578Y-85243316D01*
X104682791Y-85248571D01*
X104669149Y-85253528D01*
X104653648Y-85258170D01*
X104636282Y-85262482D01*
X104617047Y-85266447D01*
X104595935Y-85270049D01*
X104572944Y-85273273D01*
X104548068Y-85276101D01*
X104492638Y-85280506D01*
X103585556Y-85205680D01*
X103562137Y-85207596D01*
X103540130Y-85209912D01*
X103519539Y-85212608D01*
X103500368Y-85215665D01*
X103482625Y-85219065D01*
X103466315Y-85222791D01*
X103451443Y-85226823D01*
X103438013Y-85231144D01*
X103426033Y-85235734D01*
X103415508Y-85240576D01*
X103406442Y-85245651D01*
X103398843Y-85250941D01*
X103392715Y-85256427D01*
X103388064Y-85262091D01*
X103384894Y-85267915D01*
X103383213Y-85273880D01*
X103383024Y-85279968D01*
X103384336Y-85286161D01*
X103387150Y-85292439D01*
X103391475Y-85298786D01*
X103397315Y-85305182D01*
X103404677Y-85311608D01*
X103413565Y-85318047D01*
X103423985Y-85324480D01*
X103435942Y-85330890D01*
X103449442Y-85337257D01*
X103464491Y-85343562D01*
X103481094Y-85349789D01*
X103499257Y-85355917D01*
X103518985Y-85361930D01*
X103540284Y-85367808D01*
X103563158Y-85373534D01*
X104457413Y-85485730D01*
X104510323Y-85501227D01*
X104556287Y-85516188D01*
X104595266Y-85530580D01*
X104627225Y-85544368D01*
X104640559Y-85551027D01*
X104652124Y-85557522D01*
X104661914Y-85563849D01*
X104669926Y-85570004D01*
X104676155Y-85575982D01*
X104680594Y-85581781D01*
X104683242Y-85587395D01*
X104684090Y-85592820D01*
X104683138Y-85598052D01*
X104680378Y-85603086D01*
X104675806Y-85607918D01*
X104669417Y-85612545D01*
X104661208Y-85616961D01*
X104651173Y-85621164D01*
X104639306Y-85625148D01*
X104625606Y-85628908D01*
X104592679Y-85635743D01*
X104552354Y-85641635D01*
X104504594Y-85646551D01*
X104449362Y-85650456D01*
X104094310Y-85626617D01*
X103944883Y-85619193D01*
X103795329Y-85614059D01*
X103657720Y-85612649D01*
X103544122Y-85616401D01*
X103504496Y-85619936D01*
X103469618Y-85624638D01*
X103453987Y-85627408D01*
X103439577Y-85630447D01*
X103426402Y-85633748D01*
X103414471Y-85637302D01*
X103403797Y-85641102D01*
X103394393Y-85645139D01*
X103386268Y-85649409D01*
X103379434Y-85653901D01*
X103373906Y-85658608D01*
X103369692Y-85663523D01*
X103366805Y-85668637D01*
X103365257Y-85673945D01*
X103365060Y-85679436D01*
X103366225Y-85685106D01*
X103368764Y-85690944D01*
X103372688Y-85696944D01*
X103378011Y-85703097D01*
X103384743Y-85709397D01*
X103392894Y-85715836D01*
X103402479Y-85722405D01*
X103413509Y-85729098D01*
X103425994Y-85735907D01*
X103439947Y-85742824D01*
X103455380Y-85749840D01*
X103490730Y-85764144D01*
X103532139Y-85778756D01*
X104457307Y-85920802D01*
X104503873Y-85939408D01*
X104543438Y-85956320D01*
X104576113Y-85971673D01*
X104602008Y-85985595D01*
X104612446Y-85992061D01*
X104621228Y-85998219D01*
X104628371Y-86004085D01*
X104633887Y-86009677D01*
X104637788Y-86015009D01*
X104640090Y-86020100D01*
X104640806Y-86024964D01*
X104639948Y-86029620D01*
X104637532Y-86034082D01*
X104633569Y-86038369D01*
X104628075Y-86042495D01*
X104621063Y-86046479D01*
X104612546Y-86050334D01*
X104602539Y-86054080D01*
X104578104Y-86061306D01*
X104547869Y-86068288D01*
X104511943Y-86075156D01*
X104470434Y-86082043D01*
X104423452Y-86089082D01*
X102981854Y-85962959D01*
X102890934Y-85951123D01*
X102806628Y-85931961D01*
X102728879Y-85905990D01*
X102657627Y-85873734D01*
X102592813Y-85835714D01*
X102534379Y-85792452D01*
X102482265Y-85744467D01*
X102436412Y-85692284D01*
X102396763Y-85636422D01*
X102363257Y-85577404D01*
X102335835Y-85515751D01*
X102314438Y-85451983D01*
X102299009Y-85386624D01*
X102289486Y-85320193D01*
X102285813Y-85253213D01*
X102287929Y-85186205D01*
X102295775Y-85119691D01*
X102309294Y-85054192D01*
X102328425Y-84990229D01*
X102353109Y-84928325D01*
X102383288Y-84868999D01*
X102418904Y-84812776D01*
X102459896Y-84760173D01*
X102506205Y-84711716D01*
X102557773Y-84667923D01*
X102614541Y-84629317D01*
X102676451Y-84596420D01*
X102743441Y-84569752D01*
X102815455Y-84549837D01*
X102892432Y-84537193D01*
X102974315Y-84532344D01*
X103061043Y-84535810D01*
G37*
X103061043Y-84535810D02*
X104547964Y-84665899D01*
X104568565Y-84668449D01*
X104588456Y-84671667D01*
X104607579Y-84675504D01*
X104625876Y-84679913D01*
X104643292Y-84684848D01*
X104659767Y-84690260D01*
X104675247Y-84696102D01*
X104689671Y-84702327D01*
X104702985Y-84708887D01*
X104715131Y-84715735D01*
X104726049Y-84722823D01*
X104735686Y-84730104D01*
X104743982Y-84737531D01*
X104750881Y-84745056D01*
X104756325Y-84752631D01*
X104760256Y-84760210D01*
X104762619Y-84767745D01*
X104763355Y-84775187D01*
X104762407Y-84782491D01*
X104759719Y-84789609D01*
X104755233Y-84796492D01*
X104748890Y-84803094D01*
X104740636Y-84809368D01*
X104730411Y-84815265D01*
X104718159Y-84820739D01*
X104703823Y-84825742D01*
X104687345Y-84830226D01*
X104668669Y-84834144D01*
X104647736Y-84837449D01*
X104624490Y-84840093D01*
X104598874Y-84842029D01*
X104570829Y-84843210D01*
X104174428Y-84818585D01*
X104030777Y-84811444D01*
X103885783Y-84807008D01*
X103747686Y-84806827D01*
X103683798Y-84808817D01*
X103624726Y-84812452D01*
X103586234Y-84816408D01*
X103551143Y-84821752D01*
X103519787Y-84828350D01*
X103492499Y-84836070D01*
X103480486Y-84840308D01*
X103469615Y-84844776D01*
X103459929Y-84849458D01*
X103451469Y-84854336D01*
X103444277Y-84859394D01*
X103438395Y-84864615D01*
X103433864Y-84869984D01*
X103430727Y-84875481D01*
X103429026Y-84881092D01*
X103428800Y-84886800D01*
X103430094Y-84892587D01*
X103432948Y-84898437D01*
X103437405Y-84904333D01*
X103443506Y-84910259D01*
X103451292Y-84916199D01*
X103460807Y-84922134D01*
X103472090Y-84928048D01*
X103485186Y-84933926D01*
X103500133Y-84939750D01*
X103516977Y-84945503D01*
X103535756Y-84951168D01*
X103556515Y-84956730D01*
X103579293Y-84962171D01*
X103604133Y-84967475D01*
X103655159Y-84979828D01*
X103713884Y-84991748D01*
X103778792Y-85003184D01*
X103848366Y-85014087D01*
X103995445Y-85034091D01*
X104142991Y-85051360D01*
X104390944Y-85076080D01*
X104495165Y-85085035D01*
X104548834Y-85100532D01*
X104595519Y-85116196D01*
X104616229Y-85124050D01*
X104635178Y-85131897D01*
X104652361Y-85139721D01*
X104667771Y-85147506D01*
X104681404Y-85155236D01*
X104693255Y-85162894D01*
X104703319Y-85170465D01*
X104711590Y-85177931D01*
X104718063Y-85185277D01*
X104722734Y-85192487D01*
X104725597Y-85199544D01*
X104726646Y-85206433D01*
X104725877Y-85213136D01*
X104723285Y-85219639D01*
X104718864Y-85225924D01*
X104712610Y-85231976D01*
X104704516Y-85237779D01*
X104694578Y-85243316D01*
X104682791Y-85248571D01*
X104669149Y-85253528D01*
X104653648Y-85258170D01*
X104636282Y-85262482D01*
X104617047Y-85266447D01*
X104595935Y-85270049D01*
X104572944Y-85273273D01*
X104548068Y-85276101D01*
X104492638Y-85280506D01*
X103585556Y-85205680D01*
X103562137Y-85207596D01*
X103540130Y-85209912D01*
X103519539Y-85212608D01*
X103500368Y-85215665D01*
X103482625Y-85219065D01*
X103466315Y-85222791D01*
X103451443Y-85226823D01*
X103438013Y-85231144D01*
X103426033Y-85235734D01*
X103415508Y-85240576D01*
X103406442Y-85245651D01*
X103398843Y-85250941D01*
X103392715Y-85256427D01*
X103388064Y-85262091D01*
X103384894Y-85267915D01*
X103383213Y-85273880D01*
X103383024Y-85279968D01*
X103384336Y-85286161D01*
X103387150Y-85292439D01*
X103391475Y-85298786D01*
X103397315Y-85305182D01*
X103404677Y-85311608D01*
X103413565Y-85318047D01*
X103423985Y-85324480D01*
X103435942Y-85330890D01*
X103449442Y-85337257D01*
X103464491Y-85343562D01*
X103481094Y-85349789D01*
X103499257Y-85355917D01*
X103518985Y-85361930D01*
X103540284Y-85367808D01*
X103563158Y-85373534D01*
X104457413Y-85485730D01*
X104510323Y-85501227D01*
X104556287Y-85516188D01*
X104595266Y-85530580D01*
X104627225Y-85544368D01*
X104640559Y-85551027D01*
X104652124Y-85557522D01*
X104661914Y-85563849D01*
X104669926Y-85570004D01*
X104676155Y-85575982D01*
X104680594Y-85581781D01*
X104683242Y-85587395D01*
X104684090Y-85592820D01*
X104683138Y-85598052D01*
X104680378Y-85603086D01*
X104675806Y-85607918D01*
X104669417Y-85612545D01*
X104661208Y-85616961D01*
X104651173Y-85621164D01*
X104639306Y-85625148D01*
X104625606Y-85628908D01*
X104592679Y-85635743D01*
X104552354Y-85641635D01*
X104504594Y-85646551D01*
X104449362Y-85650456D01*
X104094310Y-85626617D01*
X103944883Y-85619193D01*
X103795329Y-85614059D01*
X103657720Y-85612649D01*
X103544122Y-85616401D01*
X103504496Y-85619936D01*
X103469618Y-85624638D01*
X103453987Y-85627408D01*
X103439577Y-85630447D01*
X103426402Y-85633748D01*
X103414471Y-85637302D01*
X103403797Y-85641102D01*
X103394393Y-85645139D01*
X103386268Y-85649409D01*
X103379434Y-85653901D01*
X103373906Y-85658608D01*
X103369692Y-85663523D01*
X103366805Y-85668637D01*
X103365257Y-85673945D01*
X103365060Y-85679436D01*
X103366225Y-85685106D01*
X103368764Y-85690944D01*
X103372688Y-85696944D01*
X103378011Y-85703097D01*
X103384743Y-85709397D01*
X103392894Y-85715836D01*
X103402479Y-85722405D01*
X103413509Y-85729098D01*
X103425994Y-85735907D01*
X103439947Y-85742824D01*
X103455380Y-85749840D01*
X103490730Y-85764144D01*
X103532139Y-85778756D01*
X104457307Y-85920802D01*
X104503873Y-85939408D01*
X104543438Y-85956320D01*
X104576113Y-85971673D01*
X104602008Y-85985595D01*
X104612446Y-85992061D01*
X104621228Y-85998219D01*
X104628371Y-86004085D01*
X104633887Y-86009677D01*
X104637788Y-86015009D01*
X104640090Y-86020100D01*
X104640806Y-86024964D01*
X104639948Y-86029620D01*
X104637532Y-86034082D01*
X104633569Y-86038369D01*
X104628075Y-86042495D01*
X104621063Y-86046479D01*
X104612546Y-86050334D01*
X104602539Y-86054080D01*
X104578104Y-86061306D01*
X104547869Y-86068288D01*
X104511943Y-86075156D01*
X104470434Y-86082043D01*
X104423452Y-86089082D01*
X102981854Y-85962959D01*
X102890934Y-85951123D01*
X102806628Y-85931961D01*
X102728879Y-85905990D01*
X102657627Y-85873734D01*
X102592813Y-85835714D01*
X102534379Y-85792452D01*
X102482265Y-85744467D01*
X102436412Y-85692284D01*
X102396763Y-85636422D01*
X102363257Y-85577404D01*
X102335835Y-85515751D01*
X102314438Y-85451983D01*
X102299009Y-85386624D01*
X102289486Y-85320193D01*
X102285813Y-85253213D01*
X102287929Y-85186205D01*
X102295775Y-85119691D01*
X102309294Y-85054192D01*
X102328425Y-84990229D01*
X102353109Y-84928325D01*
X102383288Y-84868999D01*
X102418904Y-84812776D01*
X102459896Y-84760173D01*
X102506205Y-84711716D01*
X102557773Y-84667923D01*
X102614541Y-84629317D01*
X102676451Y-84596420D01*
X102743441Y-84569752D01*
X102815455Y-84549837D01*
X102892432Y-84537193D01*
X102974315Y-84532344D01*
X103061043Y-84535810D01*
X102354474Y-84920173D02*
X102339589Y-84951917D01*
X102339589Y-84951917D02*
X102326431Y-84984381D01*
X102326431Y-84984381D02*
X102314979Y-85017486D01*
X102314979Y-85017486D02*
X102305213Y-85051154D01*
X102305213Y-85051154D02*
X102297115Y-85085306D01*
X102297115Y-85085306D02*
X102290664Y-85119864D01*
X102290664Y-85119864D02*
X102285840Y-85154750D01*
X102285840Y-85154750D02*
X102282623Y-85189884D01*
X102282623Y-85189884D02*
X102280995Y-85225188D01*
X102280995Y-85225188D02*
X102280936Y-85260585D01*
X102280936Y-85260585D02*
X102282425Y-85295996D01*
X102282425Y-85295996D02*
X102285443Y-85331341D01*
X102285443Y-85331341D02*
X102289971Y-85366544D01*
X102289971Y-85366544D02*
X102295989Y-85401523D01*
X102295989Y-85401523D02*
X102303475Y-85436204D01*
X102303475Y-85436204D02*
X102312414Y-85470505D01*
X102312414Y-85470505D02*
X101493115Y-85337046D01*
X101493115Y-85337046D02*
X100717669Y-85239622D01*
X100717669Y-85239622D02*
X99977085Y-85170845D01*
X99977085Y-85170845D02*
X99262374Y-85123332D01*
X99262374Y-85123332D02*
X96482447Y-84998213D01*
X96482447Y-84998213D02*
X96466351Y-84996809D01*
X96466351Y-84996809D02*
X96450545Y-84994576D01*
X96450545Y-84994576D02*
X96435043Y-84991538D01*
X96435043Y-84991538D02*
X96419868Y-84987719D01*
X96419868Y-84987719D02*
X96405032Y-84983141D01*
X96405032Y-84983141D02*
X96390556Y-84977831D01*
X96390556Y-84977831D02*
X96376457Y-84971808D01*
X96376457Y-84971808D02*
X96362752Y-84965099D01*
X96362752Y-84965099D02*
X96349458Y-84957726D01*
X96349458Y-84957726D02*
X96336592Y-84949713D01*
X96336592Y-84949713D02*
X96324174Y-84941083D01*
X96324174Y-84941083D02*
X96312220Y-84931861D01*
X96312220Y-84931861D02*
X96300747Y-84922069D01*
X96300747Y-84922069D02*
X96289773Y-84911731D01*
X96289773Y-84911731D02*
X96279316Y-84900871D01*
X96279316Y-84900871D02*
X96269393Y-84889511D01*
X96269393Y-84889511D02*
X96260022Y-84877677D01*
X96260022Y-84877677D02*
X96251219Y-84865391D01*
X96251219Y-84865391D02*
X96243004Y-84852676D01*
X96243004Y-84852676D02*
X96235393Y-84839558D01*
X96235393Y-84839558D02*
X96228403Y-84826057D01*
X96228403Y-84826057D02*
X96222051Y-84812200D01*
X96222051Y-84812200D02*
X96216358Y-84798008D01*
X96216358Y-84798008D02*
X96211337Y-84783506D01*
X96211337Y-84783506D02*
X96207009Y-84768718D01*
X96207009Y-84768718D02*
X96203390Y-84753665D01*
X96203390Y-84753665D02*
X96200498Y-84738374D01*
X96200498Y-84738374D02*
X96198349Y-84722864D01*
X96198349Y-84722864D02*
X96196963Y-84707164D01*
X96196963Y-84707164D02*
X96196355Y-84691293D01*
X96196355Y-84691293D02*
X96196545Y-84675278D01*
X96196545Y-84675278D02*
X96197548Y-84659140D01*
X96197548Y-84659140D02*
X96199365Y-84643056D01*
X96199365Y-84643056D02*
X96201966Y-84627201D01*
X96201966Y-84627201D02*
X96205329Y-84611598D01*
X96205329Y-84611598D02*
X96209434Y-84596273D01*
X96209434Y-84596273D02*
X96214258Y-84581246D01*
X96214258Y-84581246D02*
X96219779Y-84566543D01*
X96219779Y-84566543D02*
X96225977Y-84552187D01*
X96225977Y-84552187D02*
X96232829Y-84538201D01*
X96232829Y-84538201D02*
X96240313Y-84524608D01*
X96240313Y-84524608D02*
X96248408Y-84511433D01*
X96248408Y-84511433D02*
X96257092Y-84498699D01*
X96257092Y-84498699D02*
X96266343Y-84486429D01*
X96266343Y-84486429D02*
X96276139Y-84474646D01*
X96276139Y-84474646D02*
X96286460Y-84463374D01*
X96286460Y-84463374D02*
X96297282Y-84452638D01*
X96297282Y-84452638D02*
X96308585Y-84442459D01*
X96308585Y-84442459D02*
X96320346Y-84432863D01*
X96320346Y-84432863D02*
X96332543Y-84423871D01*
X96332543Y-84423871D02*
X96345156Y-84415508D01*
X96345156Y-84415508D02*
X96358162Y-84407797D01*
X96358162Y-84407797D02*
X96371539Y-84400762D01*
X96371539Y-84400762D02*
X96385267Y-84394427D01*
X96385267Y-84394427D02*
X96399322Y-84388813D01*
X96399322Y-84388813D02*
X96413684Y-84383946D01*
X96413684Y-84383946D02*
X96428331Y-84379848D01*
X96428331Y-84379848D02*
X96443240Y-84376544D01*
X96443240Y-84376544D02*
X96458390Y-84374056D01*
X96458390Y-84374056D02*
X96473760Y-84372409D01*
X96473760Y-84372409D02*
X96489328Y-84371625D01*
X96489328Y-84371625D02*
X96505071Y-84371729D01*
X96505071Y-84371729D02*
X96520968Y-84372742D01*
X96520968Y-84372742D02*
X96536998Y-84374691D01*
X96536998Y-84374691D02*
X97985986Y-84583354D01*
X97985986Y-84583354D02*
X98710643Y-84676383D01*
X98710643Y-84676383D02*
X99436040Y-84758267D01*
X99436040Y-84758267D02*
X100162648Y-84826297D01*
X100162648Y-84826297D02*
X100890942Y-84877763D01*
X100890942Y-84877763D02*
X101621393Y-84909958D01*
X101621393Y-84909958D02*
X102354475Y-84920173D01*
X102354475Y-84920173D02*
X102354474Y-84920173D01*
X102354474Y-84920173D02*
X102354474Y-84920173D01*
G36*
X96505071Y-84371729D02*
G01*
X96520968Y-84372742D01*
X96536998Y-84374691D01*
X97985986Y-84583354D01*
X98710643Y-84676383D01*
X99436040Y-84758267D01*
X100162648Y-84826297D01*
X100890942Y-84877763D01*
X101621393Y-84909958D01*
X102354475Y-84920173D01*
X102354474Y-84920173D01*
X102339589Y-84951917D01*
X102326431Y-84984381D01*
X102314979Y-85017486D01*
X102305213Y-85051154D01*
X102297115Y-85085306D01*
X102290664Y-85119864D01*
X102285840Y-85154750D01*
X102282623Y-85189884D01*
X102280995Y-85225188D01*
X102280936Y-85260585D01*
X102282425Y-85295996D01*
X102285443Y-85331341D01*
X102289971Y-85366544D01*
X102295989Y-85401523D01*
X102303475Y-85436204D01*
X102312414Y-85470505D01*
X101493115Y-85337046D01*
X100717669Y-85239622D01*
X99977085Y-85170845D01*
X99262374Y-85123332D01*
X96482447Y-84998213D01*
X96466351Y-84996809D01*
X96450545Y-84994576D01*
X96435043Y-84991538D01*
X96419868Y-84987719D01*
X96405032Y-84983141D01*
X96390556Y-84977831D01*
X96376457Y-84971808D01*
X96362752Y-84965099D01*
X96349458Y-84957726D01*
X96336592Y-84949713D01*
X96324174Y-84941083D01*
X96312220Y-84931861D01*
X96300747Y-84922069D01*
X96289773Y-84911731D01*
X96279316Y-84900871D01*
X96269393Y-84889511D01*
X96260022Y-84877677D01*
X96251219Y-84865391D01*
X96243004Y-84852676D01*
X96235393Y-84839558D01*
X96228403Y-84826057D01*
X96222051Y-84812200D01*
X96216358Y-84798008D01*
X96211337Y-84783506D01*
X96207009Y-84768718D01*
X96203390Y-84753665D01*
X96200498Y-84738374D01*
X96198349Y-84722864D01*
X96196963Y-84707164D01*
X96196355Y-84691293D01*
X96196545Y-84675278D01*
X96197548Y-84659140D01*
X96199365Y-84643056D01*
X96201966Y-84627201D01*
X96205329Y-84611598D01*
X96209434Y-84596273D01*
X96214258Y-84581246D01*
X96219779Y-84566543D01*
X96225977Y-84552187D01*
X96232829Y-84538201D01*
X96240313Y-84524608D01*
X96248408Y-84511433D01*
X96257092Y-84498699D01*
X96266343Y-84486429D01*
X96276139Y-84474646D01*
X96286460Y-84463374D01*
X96297282Y-84452638D01*
X96308585Y-84442459D01*
X96320346Y-84432863D01*
X96332543Y-84423871D01*
X96345156Y-84415508D01*
X96358162Y-84407797D01*
X96371539Y-84400762D01*
X96385267Y-84394427D01*
X96399322Y-84388813D01*
X96413684Y-84383946D01*
X96428331Y-84379848D01*
X96443240Y-84376544D01*
X96458390Y-84374056D01*
X96473760Y-84372409D01*
X96489328Y-84371625D01*
X96505071Y-84371729D01*
G37*
X96505071Y-84371729D02*
X96520968Y-84372742D01*
X96536998Y-84374691D01*
X97985986Y-84583354D01*
X98710643Y-84676383D01*
X99436040Y-84758267D01*
X100162648Y-84826297D01*
X100890942Y-84877763D01*
X101621393Y-84909958D01*
X102354475Y-84920173D01*
X102354474Y-84920173D01*
X102339589Y-84951917D01*
X102326431Y-84984381D01*
X102314979Y-85017486D01*
X102305213Y-85051154D01*
X102297115Y-85085306D01*
X102290664Y-85119864D01*
X102285840Y-85154750D01*
X102282623Y-85189884D01*
X102280995Y-85225188D01*
X102280936Y-85260585D01*
X102282425Y-85295996D01*
X102285443Y-85331341D01*
X102289971Y-85366544D01*
X102295989Y-85401523D01*
X102303475Y-85436204D01*
X102312414Y-85470505D01*
X101493115Y-85337046D01*
X100717669Y-85239622D01*
X99977085Y-85170845D01*
X99262374Y-85123332D01*
X96482447Y-84998213D01*
X96466351Y-84996809D01*
X96450545Y-84994576D01*
X96435043Y-84991538D01*
X96419868Y-84987719D01*
X96405032Y-84983141D01*
X96390556Y-84977831D01*
X96376457Y-84971808D01*
X96362752Y-84965099D01*
X96349458Y-84957726D01*
X96336592Y-84949713D01*
X96324174Y-84941083D01*
X96312220Y-84931861D01*
X96300747Y-84922069D01*
X96289773Y-84911731D01*
X96279316Y-84900871D01*
X96269393Y-84889511D01*
X96260022Y-84877677D01*
X96251219Y-84865391D01*
X96243004Y-84852676D01*
X96235393Y-84839558D01*
X96228403Y-84826057D01*
X96222051Y-84812200D01*
X96216358Y-84798008D01*
X96211337Y-84783506D01*
X96207009Y-84768718D01*
X96203390Y-84753665D01*
X96200498Y-84738374D01*
X96198349Y-84722864D01*
X96196963Y-84707164D01*
X96196355Y-84691293D01*
X96196545Y-84675278D01*
X96197548Y-84659140D01*
X96199365Y-84643056D01*
X96201966Y-84627201D01*
X96205329Y-84611598D01*
X96209434Y-84596273D01*
X96214258Y-84581246D01*
X96219779Y-84566543D01*
X96225977Y-84552187D01*
X96232829Y-84538201D01*
X96240313Y-84524608D01*
X96248408Y-84511433D01*
X96257092Y-84498699D01*
X96266343Y-84486429D01*
X96276139Y-84474646D01*
X96286460Y-84463374D01*
X96297282Y-84452638D01*
X96308585Y-84442459D01*
X96320346Y-84432863D01*
X96332543Y-84423871D01*
X96345156Y-84415508D01*
X96358162Y-84407797D01*
X96371539Y-84400762D01*
X96385267Y-84394427D01*
X96399322Y-84388813D01*
X96413684Y-84383946D01*
X96428331Y-84379848D01*
X96443240Y-84376544D01*
X96458390Y-84374056D01*
X96473760Y-84372409D01*
X96489328Y-84371625D01*
X96505071Y-84371729D01*
D14*
%TO.C,J1*%
X86330229Y-83865589D03*
D15*
X84916015Y-85279803D03*
X83501802Y-86694016D03*
X82087588Y-88108230D03*
%TD*%
D16*
%TO.C,J2*%
X90333317Y-114208377D03*
D17*
X94848159Y-114935429D03*
D18*
X94327214Y-111981006D03*
%TD*%
D19*
%TO.C,J3*%
X84429600Y-105359200D03*
D20*
X84776896Y-107328816D03*
%TD*%
D21*
%TO.C,J4*%
X122478800Y-107340400D03*
D22*
X122131504Y-109310016D03*
%TD*%
D23*
%TO.C,J5*%
X78130400Y-108508800D03*
D24*
X77783104Y-106539184D03*
%TD*%
D21*
%TO.C,J6*%
X116974612Y-106324400D03*
D22*
X116627316Y-108294016D03*
%TD*%
D25*
%TO.C,J10*%
X100279200Y-112706400D03*
D26*
X102279200Y-112706400D03*
X100279200Y-114706400D03*
X102279200Y-114706400D03*
X100279200Y-116706400D03*
X102279200Y-116706400D03*
%TD*%
D27*
%TO.C,J12*%
X106984800Y-113842800D03*
D28*
X108623104Y-112695647D03*
X110261408Y-111548494D03*
%TD*%
D29*
%TO.C,J13*%
X98653600Y-107696000D03*
D30*
X101193600Y-107696000D03*
X103733600Y-107696000D03*
X106273600Y-107696000D03*
X108813600Y-107696000D03*
%TD*%
D31*
%TO.C,H1*%
X121920000Y-100000000D03*
%TD*%
D32*
%TO.C,J8*%
X103378000Y-103682800D03*
D33*
X101378000Y-103682800D03*
X99378000Y-103682800D03*
%TD*%
D34*
%TO.C,J7*%
X83625600Y-99739200D03*
D35*
X83625600Y-97739200D03*
X83625600Y-95739200D03*
%TD*%
D31*
%TO.C,H2*%
X78080000Y-100000000D03*
%TD*%
D16*
%TO.C,J9*%
X109299600Y-92651400D03*
X92599600Y-92651400D03*
D36*
X90439600Y-96971400D03*
D37*
X93439600Y-96971400D03*
X96439600Y-96971400D03*
X99439600Y-96971400D03*
X102439600Y-96971400D03*
X105439600Y-96971400D03*
X108439600Y-96971400D03*
X111439600Y-96971400D03*
X90439600Y-99971400D03*
X93439600Y-99971400D03*
X96439600Y-99971400D03*
X99439600Y-99971400D03*
X102439600Y-99971400D03*
X105439600Y-99971400D03*
X108439600Y-99971400D03*
X111439600Y-99971400D03*
%TD*%
M02*
