%TF.GenerationSoftware,KiCad,Pcbnew,(6.0.1)*%
%TF.CreationDate,2022-03-04T07:34:18+09:00*%
%TF.ProjectId,v0_miniAB_pancake_board,76305f6d-696e-4694-9142-5f70616e6361,rev?*%
%TF.SameCoordinates,Original*%
%TF.FileFunction,Copper,L1,Top*%
%TF.FilePolarity,Positive*%
%FSLAX46Y46*%
G04 Gerber Fmt 4.6, Leading zero omitted, Abs format (unit mm)*
G04 Created by KiCad (PCBNEW (6.0.1)) date 2022-03-04 07:34:18*
%MOMM*%
%LPD*%
G01*
G04 APERTURE LIST*
G04 Aperture macros list*
%AMRoundRect*
0 Rectangle with rounded corners*
0 $1 Rounding radius*
0 $2 $3 $4 $5 $6 $7 $8 $9 X,Y pos of 4 corners*
0 Add a 4 corners polygon primitive as box body*
4,1,4,$2,$3,$4,$5,$6,$7,$8,$9,$2,$3,0*
0 Add four circle primitives for the rounded corners*
1,1,$1+$1,$2,$3*
1,1,$1+$1,$4,$5*
1,1,$1+$1,$6,$7*
1,1,$1+$1,$8,$9*
0 Add four rect primitives between the rounded corners*
20,1,$1+$1,$2,$3,$4,$5,0*
20,1,$1+$1,$4,$5,$6,$7,0*
20,1,$1+$1,$6,$7,$8,$9,0*
20,1,$1+$1,$8,$9,$2,$3,0*%
%AMHorizOval*
0 Thick line with rounded ends*
0 $1 width*
0 $2 $3 position (X,Y) of the first rounded end (center of the circle)*
0 $4 $5 position (X,Y) of the second rounded end (center of the circle)*
0 Add line between two ends*
20,1,$1,$2,$3,$4,$5,0*
0 Add two circle primitives to create the rounded ends*
1,1,$1,$2,$3*
1,1,$1,$4,$5*%
G04 Aperture macros list end*
%TA.AperFunction,ComponentPad*%
%ADD10RoundRect,0.249999X-0.194454X0.689431X-0.689431X0.194454X0.194454X-0.689431X0.689431X-0.194454X0*%
%TD*%
%TA.AperFunction,ComponentPad*%
%ADD11HorizOval,1.200000X-0.194454X0.194454X0.194454X-0.194454X0*%
%TD*%
%TA.AperFunction,ComponentPad*%
%ADD12RoundRect,0.250001X0.813011X0.408179X-0.053012X0.908178X-0.813011X-0.408179X0.053012X-0.908178X0*%
%TD*%
%TA.AperFunction,ComponentPad*%
%ADD13HorizOval,1.500000X0.130000X0.225167X-0.130000X-0.225167X0*%
%TD*%
%TA.AperFunction,ComponentPad*%
%ADD14RoundRect,0.249999X-0.676283X0.236153X-0.554729X-0.453214X0.676283X-0.236153X0.554729X0.453214X0*%
%TD*%
%TA.AperFunction,ComponentPad*%
%ADD15HorizOval,1.200000X-0.270822X-0.047753X0.270822X0.047753X0*%
%TD*%
%TA.AperFunction,ComponentPad*%
%ADD16RoundRect,0.249999X-0.554729X0.453214X-0.676283X-0.236153X0.554729X-0.453214X0.676283X0.236153X0*%
%TD*%
%TA.AperFunction,ComponentPad*%
%ADD17HorizOval,1.200000X-0.270822X0.047753X0.270822X-0.047753X0*%
%TD*%
%TA.AperFunction,ComponentPad*%
%ADD18RoundRect,0.249999X0.676283X-0.236153X0.554729X0.453214X-0.676283X0.236153X-0.554729X-0.453214X0*%
%TD*%
%TA.AperFunction,ComponentPad*%
%ADD19HorizOval,1.200000X0.270822X0.047753X-0.270822X-0.047753X0*%
%TD*%
%TA.AperFunction,ComponentPad*%
%ADD20RoundRect,0.250000X0.350000X0.625000X-0.350000X0.625000X-0.350000X-0.625000X0.350000X-0.625000X0*%
%TD*%
%TA.AperFunction,ComponentPad*%
%ADD21O,1.200000X1.750000*%
%TD*%
%TA.AperFunction,ComponentPad*%
%ADD22RoundRect,0.249999X0.625001X-0.350001X0.625001X0.350001X-0.625001X0.350001X-0.625001X-0.350001X0*%
%TD*%
%TA.AperFunction,ComponentPad*%
%ADD23O,1.750000X1.200000*%
%TD*%
%TA.AperFunction,ComponentPad*%
%ADD24R,1.350000X1.350000*%
%TD*%
%TA.AperFunction,ComponentPad*%
%ADD25O,1.350000X1.350000*%
%TD*%
%TA.AperFunction,ComponentPad*%
%ADD26RoundRect,0.250000X0.071782X-0.712722X0.645188X-0.311218X-0.071782X0.712722X-0.645188X0.311218X0*%
%TD*%
%TA.AperFunction,ComponentPad*%
%ADD27HorizOval,1.200000X-0.157734X0.225267X0.157734X-0.225267X0*%
%TD*%
%TA.AperFunction,ComponentPad*%
%ADD28R,1.700000X1.700000*%
%TD*%
%TA.AperFunction,ComponentPad*%
%ADD29O,1.700000X1.700000*%
%TD*%
%TA.AperFunction,ComponentPad*%
%ADD30C,5.000000*%
%TD*%
%TA.AperFunction,ComponentPad*%
%ADD31RoundRect,0.250001X-0.499999X-0.499999X0.499999X-0.499999X0.499999X0.499999X-0.499999X0.499999X0*%
%TD*%
%TA.AperFunction,ComponentPad*%
%ADD32C,1.500000*%
%TD*%
%TA.AperFunction,ViaPad*%
%ADD33C,0.800000*%
%TD*%
%TA.AperFunction,Conductor*%
%ADD34C,0.800000*%
%TD*%
%TA.AperFunction,Conductor*%
%ADD35C,0.780000*%
%TD*%
%TA.AperFunction,Conductor*%
%ADD36C,1.400000*%
%TD*%
%TA.AperFunction,Conductor*%
%ADD37C,0.250000*%
%TD*%
%TA.AperFunction,Conductor*%
%ADD38C,2.800000*%
%TD*%
G04 APERTURE END LIST*
D10*
%TO.P,J1,1,Pin_1*%
%TO.N,/B-*%
X86330229Y-83865589D03*
D11*
%TO.P,J1,2,Pin_2*%
%TO.N,/B+*%
X84916015Y-85279803D03*
%TO.P,J1,3,Pin_3*%
%TO.N,/A-*%
X83501802Y-86694016D03*
%TO.P,J1,4,Pin_4*%
%TO.N,/A+*%
X82087588Y-88108230D03*
%TD*%
D12*
%TO.P,J2,1,Pin_1*%
%TO.N,/heat_gnd*%
X94825638Y-109783080D03*
D13*
%TO.P,J2,2,Pin_2*%
%TO.N,+24V*%
X92227562Y-108283080D03*
%TD*%
D14*
%TO.P,J3,1,Pin_1*%
%TO.N,/therm0*%
X84429600Y-105359200D03*
D15*
%TO.P,J3,2,Pin_2*%
%TO.N,/therm1*%
X84776896Y-107328816D03*
%TD*%
D16*
%TO.P,J4,1,Pin_1*%
%TO.N,/VFAN0*%
X122478800Y-107340400D03*
D17*
%TO.P,J4,2,Pin_2*%
%TO.N,/fan0*%
X122131504Y-109310016D03*
%TD*%
D18*
%TO.P,J5,1,Pin_1*%
%TO.N,/VFAN0*%
X78130400Y-108508800D03*
D19*
%TO.P,J5,2,Pin_2*%
%TO.N,/fan0*%
X77783104Y-106539184D03*
%TD*%
D16*
%TO.P,J6,1,Pin_1*%
%TO.N,/VFAN1*%
X116974612Y-106324400D03*
D17*
%TO.P,J6,2,Pin_2*%
%TO.N,/fan1*%
X116627316Y-108294016D03*
%TD*%
D20*
%TO.P,J7,1,Pin_1*%
%TO.N,+5V*%
X103022400Y-104038400D03*
D21*
%TO.P,J7,2,Pin_2*%
%TO.N,/sw0*%
X101022400Y-104038400D03*
%TO.P,J7,3,Pin_3*%
%TO.N,GND*%
X99022400Y-104038400D03*
%TD*%
D22*
%TO.P,J8,1,Pin_1*%
%TO.N,+5V*%
X83676400Y-99739200D03*
D23*
%TO.P,J8,2,Pin_2*%
%TO.N,/sw1*%
X83676400Y-97739200D03*
%TO.P,J8,3,Pin_3*%
%TO.N,GND*%
X83676400Y-95739200D03*
%TD*%
D24*
%TO.P,J10,1,Pin_1*%
%TO.N,+5V*%
X99415600Y-112725200D03*
D25*
%TO.P,J10,2,Pin_2*%
%TO.N,/VFAN0*%
X99415600Y-114725200D03*
%TO.P,J10,3,Pin_3*%
%TO.N,+24V*%
X99415600Y-116725200D03*
%TD*%
D24*
%TO.P,J11,1,Pin_1*%
%TO.N,+5V*%
X102463600Y-112725200D03*
D25*
%TO.P,J11,2,Pin_2*%
%TO.N,/VFAN1*%
X102463600Y-114725200D03*
%TO.P,J11,3,Pin_3*%
%TO.N,+24V*%
X102463600Y-116725200D03*
%TD*%
D26*
%TO.P,J12,1,Pin_1*%
%TO.N,+5V*%
X106758229Y-113777420D03*
D27*
%TO.P,J12,2,Pin_2*%
%TO.N,/led*%
X108396533Y-112630267D03*
%TO.P,J12,3,Pin_3*%
%TO.N,GND*%
X110034837Y-111483114D03*
%TD*%
D28*
%TO.P,J13,1,Pin_1*%
%TO.N,GND*%
X98506200Y-107696000D03*
D29*
%TO.P,J13,2,Pin_2*%
%TO.N,+5V*%
X101046200Y-107696000D03*
%TO.P,J13,3,Pin_3*%
%TO.N,/servo*%
X103586200Y-107696000D03*
%TO.P,J13,4,Pin_4*%
%TO.N,GND*%
X106126200Y-107696000D03*
%TO.P,J13,5,Pin_5*%
%TO.N,/sw1*%
X108666200Y-107696000D03*
%TD*%
D30*
%TO.P,H1,1,1*%
%TO.N,GND*%
X121920000Y-100000000D03*
%TD*%
%TO.P,H2,1,1*%
%TO.N,GND*%
X78080000Y-100000000D03*
%TD*%
D31*
%TO.P,J9,1,Pin_1*%
%TO.N,/A+*%
X90439600Y-96971400D03*
D32*
%TO.P,J9,2,Pin_2*%
%TO.N,/A-*%
X93439600Y-96971400D03*
%TO.P,J9,3,Pin_3*%
%TO.N,/B+*%
X96439600Y-96971400D03*
%TO.P,J9,4,Pin_4*%
%TO.N,/B-*%
X99439600Y-96971400D03*
%TO.P,J9,5,Pin_5*%
%TO.N,/sw1*%
X102439600Y-96971400D03*
%TO.P,J9,6,Pin_6*%
%TO.N,/fan0*%
X105439600Y-96971400D03*
%TO.P,J9,7,Pin_7*%
%TO.N,/led*%
X108439600Y-96971400D03*
%TO.P,J9,8,Pin_8*%
%TO.N,GND*%
X111439600Y-96971400D03*
%TO.P,J9,9,Pin_9*%
%TO.N,+24V*%
X90439600Y-99971400D03*
%TO.P,J9,10,Pin_10*%
%TO.N,/heat_gnd*%
X93439600Y-99971400D03*
%TO.P,J9,11,Pin_11*%
%TO.N,/therm0*%
X96439600Y-99971400D03*
%TO.P,J9,12,Pin_12*%
%TO.N,/therm1*%
X99439600Y-99971400D03*
%TO.P,J9,13,Pin_13*%
%TO.N,/sw0*%
X102439600Y-99971400D03*
%TO.P,J9,14,Pin_14*%
%TO.N,/fan1*%
X105439600Y-99971400D03*
%TO.P,J9,15,Pin_15*%
%TO.N,/servo*%
X108439600Y-99971400D03*
%TO.P,J9,16,Pin_16*%
%TO.N,+5V*%
X111439600Y-99971400D03*
%TD*%
D33*
%TO.N,GND*%
X90322400Y-91744800D03*
X94894400Y-93726000D03*
X86360000Y-87477600D03*
X88798400Y-109169200D03*
X113538000Y-108204000D03*
X88798400Y-111607600D03*
X87477600Y-104190800D03*
%TO.N,/VFAN0*%
X105467700Y-116389700D03*
%TO.N,/led*%
X105664000Y-104394000D03*
%TD*%
D34*
%TO.N,/B-*%
X87300640Y-84836000D02*
X91186000Y-84836000D01*
X86330229Y-83865589D02*
X87300640Y-84836000D01*
X99439600Y-93089600D02*
X99439600Y-96971400D01*
X91186000Y-84836000D02*
X99439600Y-93089600D01*
%TO.N,/B+*%
X96439600Y-96971400D02*
X96439600Y-92883600D01*
X96439600Y-92883600D02*
X89916000Y-86360000D01*
X85996212Y-86360000D02*
X84916015Y-85279803D01*
X89916000Y-86360000D02*
X85996212Y-86360000D01*
%TO.N,/A-*%
X93439600Y-96631814D02*
X93439600Y-96971400D01*
X83501802Y-86694016D02*
X93439600Y-96631814D01*
%TO.N,/A+*%
X90439600Y-96460242D02*
X82087588Y-88108230D01*
X90439600Y-96971400D02*
X90439600Y-96460242D01*
D35*
%TO.N,/fan0*%
X105439600Y-95728400D02*
X106172000Y-94996000D01*
X115824000Y-97028000D02*
X115824000Y-102108000D01*
X120142000Y-108712000D02*
X120740016Y-109310016D01*
X106172000Y-94996000D02*
X113792000Y-94996000D01*
X113792000Y-94996000D02*
X115824000Y-97028000D01*
X120142000Y-106426000D02*
X115824000Y-102108000D01*
X105439600Y-96971400D02*
X105439600Y-95728400D01*
X120740016Y-109310016D02*
X122131504Y-109310016D01*
X120142000Y-106426000D02*
X120142000Y-108712000D01*
D36*
%TO.N,+5V*%
X101046200Y-107696000D02*
X103022400Y-105719800D01*
X103022400Y-105719800D02*
X103022400Y-104038400D01*
D35*
%TO.N,/fan1*%
X114657700Y-106324400D02*
X116627316Y-108294016D01*
X111792600Y-106324400D02*
X105439600Y-99971400D01*
X111792600Y-106324400D02*
X114657700Y-106324400D01*
D37*
%TO.N,/sw0*%
X101022400Y-101388600D02*
X102439600Y-99971400D01*
X101022400Y-104038400D02*
X101022400Y-101388600D01*
%TO.N,/sw1*%
X104601911Y-101045911D02*
X103936800Y-100380800D01*
X103936800Y-100380800D02*
X103936800Y-98468600D01*
X103936800Y-98468600D02*
X102439600Y-96971400D01*
X104610525Y-101045911D02*
X104601911Y-101045911D01*
X102439600Y-96971400D02*
X101164120Y-98246880D01*
X108666200Y-107696000D02*
X108666200Y-105101586D01*
X87935440Y-97739200D02*
X83676400Y-97739200D01*
X101164120Y-98246880D02*
X88443120Y-98246880D01*
X108666200Y-105101586D02*
X104610525Y-101045911D01*
X88443120Y-98246880D02*
X87935440Y-97739200D01*
D38*
%TO.N,/heat_gnd*%
X93439600Y-105253156D02*
X95227081Y-107040637D01*
X93439600Y-99971400D02*
X93439600Y-105253156D01*
X95227081Y-109381637D02*
X94825638Y-109783080D01*
X95227081Y-107040637D02*
X95227081Y-109381637D01*
%TO.N,+24V*%
X90439600Y-99971400D02*
X90439600Y-106495118D01*
X90439600Y-106495118D02*
X92227562Y-108283080D01*
D35*
%TO.N,/VFAN0*%
X91403476Y-110272600D02*
X91316076Y-110185200D01*
X97536000Y-118110000D02*
X103632000Y-118110000D01*
X105352300Y-116389700D02*
X105467700Y-116389700D01*
X96640400Y-114725200D02*
X96640400Y-117214400D01*
X96640400Y-117214400D02*
X97536000Y-118110000D01*
X96640400Y-114725200D02*
X92608400Y-110693200D01*
X78943200Y-110185200D02*
X78130400Y-109372400D01*
X92608400Y-110693200D02*
X92608400Y-110642400D01*
X92608400Y-110642400D02*
X92238600Y-110272600D01*
X99415600Y-114725200D02*
X96640400Y-114725200D01*
X78130400Y-109372400D02*
X78130400Y-108508800D01*
X92238600Y-110272600D02*
X91403476Y-110272600D01*
X103632000Y-118110000D02*
X105352300Y-116389700D01*
X91316076Y-110185200D02*
X78943200Y-110185200D01*
%TO.N,/VFAN1*%
X117246400Y-106324400D02*
X118618000Y-107696000D01*
X103138600Y-115400200D02*
X109288200Y-115400200D01*
X117856000Y-110236000D02*
X114452400Y-110236000D01*
X102463600Y-114725200D02*
X103138600Y-115400200D01*
X116974612Y-106324400D02*
X117246400Y-106324400D01*
X118618000Y-109474000D02*
X117856000Y-110236000D01*
X114452400Y-110236000D02*
X109288200Y-115400200D01*
X118618000Y-107696000D02*
X118618000Y-109474000D01*
D37*
%TO.N,/led*%
X107491689Y-106221689D02*
X105664000Y-104394000D01*
X108396533Y-112630267D02*
X107491689Y-111725423D01*
X107491689Y-111725423D02*
X107491689Y-106221689D01*
%TD*%
%TA.AperFunction,Conductor*%
%TO.N,GND*%
G36*
X85886212Y-80878150D02*
G01*
X85910432Y-80882966D01*
X86055527Y-80926980D01*
X86078341Y-80936431D01*
X86212056Y-81007903D01*
X86232583Y-81021619D01*
X86349939Y-81117930D01*
X86349939Y-81117931D01*
X86348083Y-81120193D01*
X86352402Y-81122764D01*
X86355740Y-81129316D01*
X86369270Y-81136210D01*
X86379507Y-81147049D01*
X86384453Y-81150752D01*
X88656888Y-83423187D01*
X88664447Y-83438023D01*
X88669088Y-83440388D01*
X88683318Y-83452989D01*
X88683319Y-83452990D01*
X88853486Y-83603670D01*
X88856349Y-83606205D01*
X88859495Y-83608373D01*
X89063246Y-83748791D01*
X89063250Y-83748793D01*
X89066388Y-83750956D01*
X89069772Y-83752727D01*
X89069774Y-83752728D01*
X89289016Y-83867452D01*
X89289020Y-83867454D01*
X89292401Y-83869223D01*
X89531067Y-83959267D01*
X89631350Y-83983749D01*
X89645054Y-83987095D01*
X89706487Y-84022682D01*
X89738928Y-84085834D01*
X89732077Y-84156499D01*
X89688109Y-84212242D01*
X89615171Y-84235500D01*
X87601565Y-84235500D01*
X87533444Y-84215498D01*
X87512470Y-84198595D01*
X87506961Y-84193086D01*
X87472935Y-84130774D01*
X87471456Y-84085258D01*
X87473847Y-84069355D01*
X87475247Y-84060043D01*
X87455107Y-83926082D01*
X87425714Y-83864869D01*
X87399791Y-83810885D01*
X87399791Y-83810884D01*
X87396468Y-83803965D01*
X87376277Y-83779559D01*
X86416259Y-82819543D01*
X86391853Y-82799350D01*
X86278231Y-82744790D01*
X86278223Y-82744786D01*
X86269736Y-82740711D01*
X86135775Y-82720571D01*
X86126463Y-82721971D01*
X86011129Y-82739310D01*
X86011126Y-82739311D01*
X86001813Y-82740711D01*
X85879697Y-82799350D01*
X85855290Y-82819541D01*
X85284183Y-83390650D01*
X85263990Y-83415057D01*
X85205351Y-83537173D01*
X85203951Y-83546486D01*
X85203950Y-83546489D01*
X85194647Y-83608373D01*
X85185211Y-83671135D01*
X85205351Y-83805096D01*
X85209426Y-83813583D01*
X85209427Y-83813585D01*
X85260667Y-83920293D01*
X85263990Y-83927213D01*
X85284181Y-83951619D01*
X86244199Y-84911635D01*
X86268605Y-84931828D01*
X86275524Y-84935151D01*
X86275525Y-84935151D01*
X86382233Y-84986391D01*
X86382235Y-84986392D01*
X86390722Y-84990467D01*
X86524683Y-85010607D01*
X86549898Y-85006816D01*
X86620235Y-85016468D01*
X86657726Y-85042321D01*
X86842343Y-85226938D01*
X86853210Y-85239328D01*
X86872358Y-85264282D01*
X86878904Y-85269305D01*
X86878907Y-85269308D01*
X86974020Y-85342290D01*
X86974022Y-85342291D01*
X86997799Y-85360536D01*
X87005425Y-85363695D01*
X87005427Y-85363696D01*
X87090171Y-85398798D01*
X87143878Y-85421044D01*
X87300640Y-85441682D01*
X87308828Y-85440604D01*
X87331813Y-85437578D01*
X87348259Y-85436500D01*
X90885075Y-85436500D01*
X90953196Y-85456502D01*
X90974170Y-85473405D01*
X98802195Y-93301430D01*
X98836221Y-93363742D01*
X98839100Y-93390525D01*
X98839100Y-96174169D01*
X98819098Y-96242290D01*
X98792053Y-96272364D01*
X98781876Y-96280546D01*
X98776158Y-96285144D01*
X98771352Y-96289008D01*
X98767394Y-96293725D01*
X98767391Y-96293728D01*
X98711641Y-96360169D01*
X98651535Y-96431801D01*
X98648571Y-96437193D01*
X98648568Y-96437197D01*
X98589410Y-96544805D01*
X98561735Y-96595146D01*
X98559874Y-96601013D01*
X98559873Y-96601015D01*
X98518892Y-96730203D01*
X98505372Y-96772824D01*
X98484594Y-96958065D01*
X98485110Y-96964209D01*
X98498702Y-97126065D01*
X98500192Y-97143814D01*
X98501891Y-97149739D01*
X98548074Y-97310799D01*
X98551571Y-97322995D01*
X98636776Y-97488785D01*
X98752559Y-97634868D01*
X98757252Y-97638862D01*
X98757253Y-97638863D01*
X98768634Y-97648549D01*
X98794433Y-97670505D01*
X98828415Y-97699426D01*
X98867328Y-97758808D01*
X98867959Y-97829802D01*
X98830108Y-97889867D01*
X98765792Y-97919933D01*
X98746752Y-97921380D01*
X97133545Y-97921380D01*
X97065424Y-97901378D01*
X97018931Y-97847722D01*
X97008827Y-97777448D01*
X97038321Y-97712868D01*
X97055972Y-97696091D01*
X97093394Y-97666854D01*
X97093395Y-97666853D01*
X97098255Y-97663056D01*
X97220054Y-97521950D01*
X97251179Y-97467161D01*
X97268947Y-97435882D01*
X97312126Y-97359874D01*
X97370964Y-97183001D01*
X97389055Y-97039799D01*
X97393885Y-97001570D01*
X97393886Y-97001563D01*
X97394327Y-96998068D01*
X97394699Y-96971400D01*
X97376509Y-96785887D01*
X97374728Y-96779988D01*
X97374727Y-96779983D01*
X97324414Y-96613339D01*
X97322633Y-96607440D01*
X97235122Y-96442856D01*
X97231232Y-96438086D01*
X97231229Y-96438082D01*
X97121205Y-96303180D01*
X97121202Y-96303177D01*
X97117310Y-96298405D01*
X97111657Y-96293728D01*
X97085784Y-96272324D01*
X97046046Y-96213490D01*
X97040100Y-96175240D01*
X97040100Y-92931219D01*
X97041178Y-92914773D01*
X97044204Y-92891788D01*
X97045282Y-92883600D01*
X97024644Y-92726838D01*
X96964136Y-92580759D01*
X96906050Y-92505060D01*
X96867882Y-92455318D01*
X96842928Y-92436170D01*
X96830538Y-92425303D01*
X90374292Y-85969057D01*
X90363432Y-85956675D01*
X90344282Y-85931718D01*
X90218841Y-85835464D01*
X90072762Y-85774956D01*
X89955361Y-85759500D01*
X89916000Y-85754318D01*
X89907812Y-85755396D01*
X89884827Y-85758422D01*
X89868381Y-85759500D01*
X86297137Y-85759500D01*
X86229016Y-85739498D01*
X86208042Y-85722595D01*
X85946557Y-85461110D01*
X85912531Y-85398798D01*
X85911890Y-85394766D01*
X85911910Y-85392850D01*
X85873958Y-85217315D01*
X85798060Y-85054550D01*
X85712370Y-84944080D01*
X85255671Y-84487381D01*
X85252928Y-84485192D01*
X85252921Y-84485185D01*
X85178406Y-84425701D01*
X85150827Y-84403685D01*
X85138414Y-84397684D01*
X84995481Y-84328588D01*
X84995482Y-84328588D01*
X84989139Y-84325522D01*
X84814150Y-84285123D01*
X84807112Y-84285098D01*
X84807108Y-84285098D01*
X84722212Y-84284802D01*
X84634561Y-84284496D01*
X84624670Y-84286707D01*
X84466174Y-84322135D01*
X84466173Y-84322135D01*
X84459294Y-84323673D01*
X84297064Y-84400706D01*
X84291528Y-84405062D01*
X84291527Y-84405063D01*
X84161471Y-84507406D01*
X84161469Y-84507408D01*
X84155931Y-84511766D01*
X84042911Y-84651334D01*
X84039798Y-84657660D01*
X84039797Y-84657662D01*
X84033886Y-84669676D01*
X83963620Y-84812474D01*
X83922001Y-84987175D01*
X83921927Y-84994218D01*
X83921927Y-84994220D01*
X83921694Y-85016468D01*
X83920120Y-85166756D01*
X83958072Y-85342291D01*
X84033970Y-85505056D01*
X84119660Y-85615526D01*
X84576359Y-86072225D01*
X84579102Y-86074414D01*
X84579109Y-86074421D01*
X84653624Y-86133905D01*
X84681203Y-86155921D01*
X84842891Y-86234084D01*
X85017880Y-86274483D01*
X85023278Y-86274502D01*
X85088050Y-86301945D01*
X85097295Y-86310318D01*
X85537915Y-86750938D01*
X85548782Y-86763328D01*
X85567930Y-86788282D01*
X85649377Y-86850778D01*
X85693371Y-86884536D01*
X85839450Y-86945044D01*
X85996212Y-86965682D01*
X86004400Y-86964604D01*
X86027385Y-86961578D01*
X86043831Y-86960500D01*
X89615075Y-86960500D01*
X89683196Y-86980502D01*
X89704170Y-86997405D01*
X93668684Y-90961919D01*
X93702710Y-91024231D01*
X93697645Y-91095046D01*
X93655098Y-91151882D01*
X93588578Y-91176693D01*
X93514224Y-91158733D01*
X93496284Y-91147847D01*
X93396539Y-91087320D01*
X93392223Y-91085510D01*
X93160914Y-90988514D01*
X93160909Y-90988512D01*
X93156599Y-90986705D01*
X93152067Y-90985554D01*
X93152064Y-90985553D01*
X93026785Y-90953737D01*
X92904423Y-90922661D01*
X92688314Y-90900900D01*
X92533556Y-90900900D01*
X92531231Y-90901073D01*
X92531225Y-90901073D01*
X92344786Y-90914928D01*
X92344782Y-90914929D01*
X92340134Y-90915274D01*
X92086368Y-90972695D01*
X92082016Y-90974387D01*
X92082014Y-90974388D01*
X91848230Y-91065302D01*
X91848228Y-91065303D01*
X91843877Y-91066995D01*
X91839823Y-91069312D01*
X91839821Y-91069313D01*
X91760562Y-91114614D01*
X91617988Y-91196101D01*
X91413664Y-91357177D01*
X91235392Y-91546686D01*
X91087089Y-91760463D01*
X91085023Y-91764653D01*
X91085021Y-91764656D01*
X91011949Y-91912833D01*
X90972014Y-91993813D01*
X90892694Y-92241608D01*
X90891944Y-92246214D01*
X90862778Y-92425303D01*
X90850872Y-92498406D01*
X90850811Y-92503083D01*
X90848131Y-92707804D01*
X90847466Y-92758565D01*
X90853067Y-92799717D01*
X90865086Y-92888035D01*
X90854453Y-92958231D01*
X90807557Y-93011534D01*
X90739287Y-93031022D01*
X90671319Y-93010507D01*
X90651142Y-92994121D01*
X84532344Y-86875323D01*
X84498318Y-86813011D01*
X84497677Y-86808979D01*
X84497697Y-86807063D01*
X84459745Y-86631528D01*
X84383847Y-86468763D01*
X84298157Y-86358293D01*
X83841458Y-85901594D01*
X83838715Y-85899405D01*
X83838708Y-85899398D01*
X83764193Y-85839914D01*
X83736614Y-85817898D01*
X83724201Y-85811897D01*
X83581268Y-85742801D01*
X83581269Y-85742801D01*
X83574926Y-85739735D01*
X83399937Y-85699336D01*
X83392899Y-85699311D01*
X83392895Y-85699311D01*
X83307999Y-85699015D01*
X83220348Y-85698709D01*
X83132715Y-85718297D01*
X83051961Y-85736348D01*
X83051960Y-85736348D01*
X83045081Y-85737886D01*
X82882851Y-85814919D01*
X82877315Y-85819275D01*
X82877314Y-85819276D01*
X82747258Y-85921619D01*
X82747256Y-85921621D01*
X82741718Y-85925979D01*
X82737282Y-85931457D01*
X82737280Y-85931459D01*
X82731768Y-85938266D01*
X82628698Y-86065547D01*
X82549407Y-86226687D01*
X82507788Y-86401388D01*
X82505907Y-86580969D01*
X82543859Y-86756504D01*
X82619757Y-86919269D01*
X82624074Y-86924835D01*
X82624075Y-86924836D01*
X82637299Y-86941884D01*
X82705447Y-87029739D01*
X83162146Y-87486438D01*
X83164889Y-87488627D01*
X83164896Y-87488634D01*
X83198140Y-87515172D01*
X83266990Y-87570134D01*
X83273333Y-87573200D01*
X83273334Y-87573201D01*
X83341983Y-87606387D01*
X83428678Y-87648297D01*
X83603667Y-87688696D01*
X83609065Y-87688715D01*
X83673837Y-87716158D01*
X83683082Y-87724531D01*
X92505628Y-96547077D01*
X92539654Y-96609389D01*
X92536635Y-96674270D01*
X92505372Y-96772824D01*
X92484594Y-96958065D01*
X92485110Y-96964209D01*
X92498702Y-97126065D01*
X92500192Y-97143814D01*
X92501891Y-97149739D01*
X92548074Y-97310799D01*
X92551571Y-97322995D01*
X92636776Y-97488785D01*
X92752559Y-97634868D01*
X92757252Y-97638862D01*
X92757253Y-97638863D01*
X92768634Y-97648549D01*
X92794433Y-97670505D01*
X92828415Y-97699426D01*
X92867328Y-97758808D01*
X92867959Y-97829802D01*
X92830108Y-97889867D01*
X92765792Y-97919933D01*
X92746752Y-97921380D01*
X91417041Y-97921380D01*
X91348920Y-97901378D01*
X91302427Y-97847722D01*
X91292323Y-97777448D01*
X91315688Y-97720524D01*
X91342234Y-97684583D01*
X91351433Y-97658390D01*
X91384574Y-97564015D01*
X91387119Y-97556768D01*
X91390100Y-97525233D01*
X91390099Y-96417568D01*
X91387119Y-96386032D01*
X91369371Y-96335493D01*
X91345356Y-96267106D01*
X91345355Y-96267104D01*
X91342234Y-96258217D01*
X91261750Y-96149250D01*
X91152783Y-96068766D01*
X91143896Y-96065645D01*
X91143894Y-96065644D01*
X91032215Y-96026426D01*
X91024968Y-96023881D01*
X91017322Y-96023158D01*
X91017321Y-96023158D01*
X91011351Y-96022594D01*
X90993433Y-96020900D01*
X90901683Y-96020900D01*
X90833562Y-96000898D01*
X90812588Y-95983995D01*
X83118130Y-88289537D01*
X83084104Y-88227225D01*
X83083463Y-88223193D01*
X83083483Y-88221277D01*
X83045531Y-88045742D01*
X82969633Y-87882977D01*
X82883943Y-87772507D01*
X82427244Y-87315808D01*
X82424501Y-87313619D01*
X82424494Y-87313612D01*
X82327904Y-87236506D01*
X82322400Y-87232112D01*
X82309987Y-87226111D01*
X82167054Y-87157015D01*
X82167055Y-87157015D01*
X82160712Y-87153949D01*
X81985723Y-87113550D01*
X81978685Y-87113525D01*
X81978681Y-87113525D01*
X81893785Y-87113229D01*
X81806134Y-87112923D01*
X81796243Y-87115134D01*
X81637747Y-87150562D01*
X81637746Y-87150562D01*
X81630867Y-87152100D01*
X81468637Y-87229133D01*
X81463101Y-87233489D01*
X81463100Y-87233490D01*
X81333044Y-87335833D01*
X81333042Y-87335835D01*
X81327504Y-87340193D01*
X81214484Y-87479761D01*
X81211371Y-87486087D01*
X81211370Y-87486089D01*
X81164097Y-87582161D01*
X81135193Y-87640901D01*
X81093574Y-87815602D01*
X81091693Y-87995183D01*
X81129645Y-88170718D01*
X81205543Y-88333483D01*
X81291233Y-88443953D01*
X81747932Y-88900652D01*
X81750675Y-88902841D01*
X81750682Y-88902848D01*
X81825197Y-88962332D01*
X81852776Y-88984348D01*
X82014464Y-89062511D01*
X82189453Y-89102910D01*
X82194851Y-89102929D01*
X82259623Y-89130372D01*
X82268868Y-89138745D01*
X89452483Y-96322360D01*
X89486509Y-96384672D01*
X89489187Y-96416652D01*
X89489100Y-96417567D01*
X89489101Y-97525232D01*
X89492081Y-97556768D01*
X89494624Y-97564009D01*
X89494624Y-97564010D01*
X89527768Y-97658390D01*
X89536966Y-97684583D01*
X89563512Y-97720523D01*
X89587893Y-97787200D01*
X89572356Y-97856475D01*
X89521832Y-97906354D01*
X89462159Y-97921380D01*
X88630136Y-97921380D01*
X88562015Y-97901378D01*
X88541041Y-97884475D01*
X88179551Y-97522985D01*
X88172124Y-97514881D01*
X88154981Y-97494451D01*
X88154982Y-97494451D01*
X88147895Y-97486006D01*
X88138346Y-97480493D01*
X88115255Y-97467161D01*
X88105984Y-97461255D01*
X88084155Y-97445970D01*
X88075124Y-97439646D01*
X88064474Y-97436792D01*
X88061306Y-97435315D01*
X88058030Y-97434123D01*
X88048485Y-97428612D01*
X88014741Y-97422662D01*
X88011382Y-97422070D01*
X88000655Y-97419692D01*
X87964247Y-97409936D01*
X87953262Y-97410897D01*
X87953260Y-97410897D01*
X87926712Y-97413220D01*
X87915730Y-97413700D01*
X84761478Y-97413700D01*
X84693357Y-97393698D01*
X84654160Y-97353722D01*
X84631610Y-97317068D01*
X84586194Y-97243245D01*
X84581268Y-97238214D01*
X84581265Y-97238211D01*
X84494626Y-97149739D01*
X84460541Y-97114932D01*
X84443813Y-97104151D01*
X84372993Y-97058511D01*
X84309583Y-97017646D01*
X84306119Y-97016385D01*
X84254973Y-96969081D01*
X84237187Y-96900348D01*
X84259385Y-96832911D01*
X84314518Y-96788180D01*
X84327653Y-96783524D01*
X84358997Y-96774329D01*
X84370075Y-96769898D01*
X84547378Y-96678581D01*
X84557424Y-96672131D01*
X84714257Y-96548938D01*
X84722906Y-96540701D01*
X84853612Y-96390077D01*
X84860547Y-96380353D01*
X84960410Y-96207733D01*
X84965384Y-96196869D01*
X85030807Y-96008473D01*
X85031048Y-96007484D01*
X85029580Y-95997192D01*
X85016015Y-95993200D01*
X82340998Y-95993200D01*
X82327467Y-95997173D01*
X82326112Y-96006599D01*
X82347594Y-96095737D01*
X82351483Y-96107032D01*
X82434029Y-96288582D01*
X82439976Y-96298924D01*
X82555368Y-96461597D01*
X82563161Y-96470625D01*
X82707231Y-96608542D01*
X82716596Y-96615938D01*
X82884141Y-96724121D01*
X82894742Y-96729615D01*
X83037505Y-96787151D01*
X83093211Y-96831166D01*
X83116277Y-96898311D01*
X83099380Y-96967268D01*
X83052178Y-97010876D01*
X83053327Y-97012715D01*
X82901025Y-97107884D01*
X82858877Y-97149739D01*
X82778590Y-97229467D01*
X82778587Y-97229471D01*
X82773593Y-97234430D01*
X82769819Y-97240376D01*
X82769818Y-97240378D01*
X82764191Y-97249245D01*
X82677363Y-97386064D01*
X82674998Y-97392706D01*
X82619481Y-97548614D01*
X82619480Y-97548619D01*
X82617119Y-97555249D01*
X82616286Y-97562235D01*
X82616285Y-97562239D01*
X82604995Y-97656923D01*
X82595855Y-97733576D01*
X82596591Y-97740579D01*
X82596591Y-97740580D01*
X82613867Y-97904948D01*
X82614627Y-97912183D01*
X82616898Y-97918854D01*
X82666514Y-98064599D01*
X82672503Y-98082193D01*
X82766606Y-98235155D01*
X82771532Y-98240186D01*
X82771535Y-98240189D01*
X82832376Y-98302317D01*
X82892259Y-98363468D01*
X82898184Y-98367287D01*
X82898186Y-98367288D01*
X82959011Y-98406487D01*
X83043217Y-98460754D01*
X83049837Y-98463163D01*
X83049840Y-98463165D01*
X83205361Y-98519770D01*
X83205364Y-98519771D01*
X83211978Y-98522178D01*
X83238521Y-98525531D01*
X83346755Y-98539204D01*
X83346758Y-98539204D01*
X83350683Y-98539700D01*
X83996555Y-98539700D01*
X84129872Y-98524746D01*
X84137247Y-98522178D01*
X84204851Y-98498636D01*
X84299473Y-98465685D01*
X84307365Y-98460754D01*
X84445801Y-98374249D01*
X84451775Y-98370516D01*
X84515765Y-98306971D01*
X84574210Y-98248933D01*
X84574213Y-98248929D01*
X84579207Y-98243970D01*
X84586858Y-98231915D01*
X84655859Y-98123186D01*
X84709248Y-98076387D01*
X84762244Y-98064700D01*
X87748424Y-98064700D01*
X87816545Y-98084702D01*
X87837519Y-98101605D01*
X88199009Y-98463095D01*
X88206435Y-98471198D01*
X88230665Y-98500074D01*
X88240214Y-98505587D01*
X88263305Y-98518919D01*
X88272576Y-98524825D01*
X88303436Y-98546434D01*
X88314086Y-98549288D01*
X88317254Y-98550765D01*
X88320530Y-98551957D01*
X88330075Y-98557468D01*
X88363819Y-98563418D01*
X88367178Y-98564010D01*
X88377905Y-98566388D01*
X88414313Y-98576144D01*
X88425298Y-98575183D01*
X88425300Y-98575183D01*
X88451848Y-98572860D01*
X88462830Y-98572380D01*
X89271704Y-98572380D01*
X89339825Y-98592382D01*
X89386318Y-98646038D01*
X89396422Y-98716312D01*
X89366928Y-98780892D01*
X89353540Y-98794186D01*
X89304376Y-98836176D01*
X89301163Y-98839938D01*
X89143979Y-99023976D01*
X89143976Y-99023981D01*
X89140764Y-99027741D01*
X89009134Y-99242541D01*
X89007241Y-99247111D01*
X89007239Y-99247115D01*
X88926161Y-99442856D01*
X88912727Y-99475289D01*
X88911572Y-99480101D01*
X88869030Y-99657303D01*
X88853917Y-99720252D01*
X88849340Y-99778404D01*
X88839634Y-99901735D01*
X88839100Y-99908518D01*
X88839100Y-106427280D01*
X88838712Y-106437166D01*
X88834151Y-106495118D01*
X88839100Y-106558000D01*
X88853917Y-106746266D01*
X88855071Y-106751073D01*
X88855072Y-106751079D01*
X88879148Y-106851363D01*
X88912727Y-106991229D01*
X88914620Y-106995800D01*
X88914621Y-106995802D01*
X89006974Y-107218762D01*
X89009134Y-107223977D01*
X89140764Y-107438777D01*
X89143976Y-107442537D01*
X89143979Y-107442542D01*
X89270343Y-107590494D01*
X89304376Y-107630342D01*
X89348591Y-107668106D01*
X89355844Y-107674811D01*
X91060638Y-109379605D01*
X91094664Y-109441917D01*
X91089599Y-109512732D01*
X91047052Y-109569568D01*
X90980532Y-109594379D01*
X90971543Y-109594700D01*
X79239983Y-109594700D01*
X79171862Y-109574698D01*
X79150888Y-109557795D01*
X78955040Y-109361947D01*
X78921014Y-109299635D01*
X78926079Y-109228820D01*
X78968626Y-109171984D01*
X78982378Y-109163025D01*
X79086544Y-109104451D01*
X79179878Y-109006268D01*
X79240218Y-108884981D01*
X79242063Y-108873779D01*
X79257928Y-108777420D01*
X79262226Y-108751315D01*
X79259686Y-108719741D01*
X79256878Y-108703812D01*
X79180907Y-108272965D01*
X79119435Y-107924343D01*
X79111024Y-107893803D01*
X79106947Y-107886553D01*
X79049244Y-107783937D01*
X79049243Y-107783936D01*
X79044626Y-107775725D01*
X78946443Y-107682391D01*
X78825157Y-107622051D01*
X78815860Y-107620520D01*
X78815859Y-107620520D01*
X78734369Y-107607103D01*
X78691490Y-107600043D01*
X78659917Y-107602583D01*
X78657012Y-107603095D01*
X78657006Y-107603096D01*
X78102108Y-107700940D01*
X77322874Y-107838341D01*
X77320014Y-107839129D01*
X77320008Y-107839130D01*
X77313502Y-107840922D01*
X77292334Y-107846752D01*
X77174256Y-107913149D01*
X77167767Y-107919975D01*
X77133650Y-107955865D01*
X77080922Y-108011332D01*
X77020582Y-108132619D01*
X77019053Y-108141906D01*
X77019052Y-108141909D01*
X77012691Y-108180545D01*
X76998574Y-108266285D01*
X77001114Y-108297859D01*
X77001626Y-108300764D01*
X77001627Y-108300770D01*
X77050759Y-108579406D01*
X77141365Y-109093257D01*
X77149776Y-109123797D01*
X77153539Y-109130490D01*
X77153540Y-109130491D01*
X77180964Y-109179259D01*
X77216174Y-109241875D01*
X77223001Y-109248365D01*
X77223002Y-109248366D01*
X77276935Y-109299635D01*
X77314357Y-109335209D01*
X77435643Y-109395549D01*
X77447870Y-109397562D01*
X77450796Y-109398971D01*
X77453901Y-109399974D01*
X77453763Y-109400400D01*
X77511836Y-109428366D01*
X77548993Y-109488863D01*
X77552320Y-109505442D01*
X77555099Y-109526551D01*
X77589624Y-109609900D01*
X77614600Y-109670198D01*
X77685488Y-109762581D01*
X77709251Y-109793549D01*
X77715801Y-109798575D01*
X77715804Y-109798578D01*
X77733668Y-109812285D01*
X77746059Y-109823152D01*
X78492444Y-110569537D01*
X78503311Y-110581927D01*
X78522051Y-110606349D01*
X78528597Y-110611372D01*
X78547897Y-110626181D01*
X78553017Y-110630110D01*
X78553019Y-110630112D01*
X78645402Y-110701001D01*
X78729549Y-110735855D01*
X78789049Y-110760501D01*
X78797233Y-110761578D01*
X78797235Y-110761579D01*
X78904496Y-110775700D01*
X78904501Y-110775700D01*
X78943200Y-110780795D01*
X78951388Y-110779717D01*
X78973713Y-110776778D01*
X78990159Y-110775700D01*
X91052075Y-110775700D01*
X91105057Y-110789897D01*
X91105677Y-110788400D01*
X91130071Y-110798504D01*
X91185352Y-110843051D01*
X91207774Y-110910414D01*
X91190217Y-110979206D01*
X91138255Y-111027585D01*
X91106974Y-111037477D01*
X91107134Y-111038184D01*
X90853368Y-111095605D01*
X90849016Y-111097297D01*
X90849014Y-111097298D01*
X90615230Y-111188212D01*
X90615228Y-111188213D01*
X90610877Y-111189905D01*
X90606823Y-111192222D01*
X90606821Y-111192223D01*
X90574038Y-111210960D01*
X90384988Y-111319011D01*
X90180664Y-111480087D01*
X90002392Y-111669596D01*
X89918425Y-111790633D01*
X89860496Y-111874138D01*
X89854089Y-111883373D01*
X89852023Y-111887563D01*
X89852021Y-111887566D01*
X89788240Y-112016903D01*
X89739014Y-112116723D01*
X89737592Y-112121166D01*
X89737591Y-112121168D01*
X89661119Y-112360066D01*
X89659694Y-112364518D01*
X89639836Y-112486451D01*
X89618805Y-112615590D01*
X89617872Y-112621316D01*
X89617535Y-112647074D01*
X89615260Y-112820862D01*
X89614466Y-112881475D01*
X89649552Y-113139280D01*
X89722358Y-113389067D01*
X89831286Y-113625349D01*
X89833846Y-113629254D01*
X89833849Y-113629259D01*
X89971375Y-113839022D01*
X89971379Y-113839027D01*
X89973941Y-113842935D01*
X90020590Y-113895201D01*
X90134885Y-114023257D01*
X90147191Y-114037045D01*
X90347229Y-114203415D01*
X90569661Y-114338390D01*
X90573975Y-114340199D01*
X90573977Y-114340200D01*
X90805286Y-114437196D01*
X90805291Y-114437198D01*
X90809601Y-114439005D01*
X90814133Y-114440156D01*
X90814136Y-114440157D01*
X90939415Y-114471973D01*
X91061777Y-114503049D01*
X91277886Y-114524810D01*
X91432644Y-114524810D01*
X91434969Y-114524637D01*
X91434975Y-114524637D01*
X91621414Y-114510782D01*
X91621418Y-114510781D01*
X91626066Y-114510436D01*
X91879832Y-114453015D01*
X91884186Y-114451322D01*
X92117970Y-114360408D01*
X92117972Y-114360407D01*
X92122323Y-114358715D01*
X92157885Y-114338390D01*
X92218347Y-114303833D01*
X92348212Y-114229609D01*
X92552536Y-114068533D01*
X92730808Y-113879024D01*
X92841879Y-113718916D01*
X92876446Y-113669089D01*
X92876448Y-113669086D01*
X92879111Y-113665247D01*
X92898371Y-113626192D01*
X92992121Y-113436085D01*
X92992122Y-113436082D01*
X92994186Y-113431897D01*
X92999992Y-113413761D01*
X93072083Y-113188547D01*
X93073506Y-113184102D01*
X93115328Y-112927304D01*
X93117458Y-112764636D01*
X93118673Y-112671822D01*
X93118673Y-112671819D01*
X93118734Y-112667145D01*
X93083648Y-112409340D01*
X93054282Y-112308589D01*
X93054423Y-112237593D01*
X93092925Y-112177943D01*
X93157564Y-112148578D01*
X93227818Y-112158822D01*
X93264343Y-112184236D01*
X96012995Y-114932888D01*
X96047021Y-114995200D01*
X96049900Y-115021983D01*
X96049900Y-117167442D01*
X96048822Y-117183889D01*
X96044805Y-117214400D01*
X96049900Y-117253099D01*
X96049900Y-117253101D01*
X96065099Y-117368551D01*
X96068257Y-117376175D01*
X96068259Y-117376182D01*
X96076344Y-117395699D01*
X96076345Y-117395700D01*
X96124600Y-117512198D01*
X96195488Y-117604581D01*
X96219251Y-117635549D01*
X96225797Y-117640572D01*
X96243667Y-117654284D01*
X96256059Y-117665152D01*
X97085256Y-118494350D01*
X97096122Y-118506741D01*
X97114851Y-118531149D01*
X97120627Y-118535581D01*
X97154437Y-118597497D01*
X97149372Y-118668312D01*
X97106825Y-118725148D01*
X97040305Y-118749959D01*
X97010957Y-118748624D01*
X96921291Y-118733943D01*
X96676356Y-118693838D01*
X96670615Y-118692761D01*
X95864394Y-118522048D01*
X95858708Y-118520706D01*
X95741103Y-118490046D01*
X95061229Y-118312797D01*
X95055642Y-118311200D01*
X94596402Y-118168435D01*
X94268696Y-118066559D01*
X94263159Y-118064696D01*
X93488392Y-117783839D01*
X93482947Y-117781721D01*
X92722040Y-117465256D01*
X92716700Y-117462888D01*
X91971273Y-117111491D01*
X91966047Y-117108878D01*
X91237716Y-116723308D01*
X91232618Y-116720456D01*
X90686161Y-116397888D01*
X90522938Y-116301539D01*
X90517999Y-116298468D01*
X89828445Y-115847069D01*
X89823668Y-115843780D01*
X89267532Y-115441700D01*
X89155845Y-115360951D01*
X89151191Y-115357420D01*
X88506437Y-114844132D01*
X88501952Y-114840388D01*
X87881715Y-114297792D01*
X87877408Y-114293845D01*
X87282964Y-113723059D01*
X87278846Y-113718916D01*
X86711507Y-113121199D01*
X86707584Y-113116869D01*
X86176326Y-112502476D01*
X86176972Y-112501918D01*
X86175712Y-112500921D01*
X86170624Y-112488017D01*
X86168163Y-112486451D01*
X85921227Y-112214008D01*
X85917130Y-112210256D01*
X85650146Y-111965813D01*
X85650144Y-111965812D01*
X85647980Y-111963830D01*
X85352656Y-111740143D01*
X85350163Y-111738597D01*
X85350153Y-111738590D01*
X85040303Y-111546427D01*
X85040299Y-111546425D01*
X85037813Y-111544883D01*
X85035203Y-111543583D01*
X85035197Y-111543580D01*
X84708805Y-111381051D01*
X84708803Y-111381050D01*
X84706178Y-111379743D01*
X84703434Y-111378682D01*
X84363361Y-111247211D01*
X84363355Y-111247209D01*
X84360626Y-111246154D01*
X84155880Y-111188212D01*
X84006970Y-111146071D01*
X84006963Y-111146069D01*
X84004149Y-111145273D01*
X83811123Y-111109615D01*
X83642708Y-111078503D01*
X83642700Y-111078502D01*
X83639837Y-111077973D01*
X83636933Y-111077712D01*
X83636924Y-111077711D01*
X83273778Y-111045102D01*
X83273770Y-111045102D01*
X83270845Y-111044839D01*
X83267909Y-111044849D01*
X83267899Y-111044849D01*
X83065304Y-111045570D01*
X82903148Y-111046147D01*
X82900333Y-111045386D01*
X82881687Y-111052496D01*
X82877497Y-111052706D01*
X82866998Y-111055585D01*
X80640420Y-111440003D01*
X77472284Y-111986980D01*
X77468151Y-111987138D01*
X77454683Y-111989745D01*
X77436651Y-111988037D01*
X77427016Y-111993733D01*
X77425004Y-111993542D01*
X77425182Y-111994817D01*
X77267037Y-112016903D01*
X77246694Y-112018080D01*
X77165633Y-112016198D01*
X77084576Y-112014315D01*
X77064301Y-112012195D01*
X76904907Y-111982335D01*
X76885239Y-111976972D01*
X76818175Y-111952707D01*
X76732753Y-111921800D01*
X76714219Y-111913342D01*
X76572621Y-111834298D01*
X76555682Y-111822954D01*
X76428687Y-111722112D01*
X76413800Y-111708185D01*
X76304730Y-111588185D01*
X76292283Y-111572038D01*
X76203994Y-111436019D01*
X76194315Y-111418078D01*
X76133883Y-111280458D01*
X76129116Y-111269601D01*
X76122457Y-111250337D01*
X76122429Y-111250226D01*
X76082675Y-111095697D01*
X76084975Y-111095105D01*
X76083311Y-111091290D01*
X76084579Y-111082510D01*
X76077501Y-111069078D01*
X76075158Y-111052715D01*
X76073761Y-111048347D01*
X75334202Y-106541969D01*
X76707973Y-106541969D01*
X76709980Y-106577868D01*
X76715809Y-106682117D01*
X76717998Y-106721279D01*
X76719939Y-106728048D01*
X76763583Y-106880252D01*
X76767500Y-106893913D01*
X76770892Y-106900083D01*
X76770894Y-106900088D01*
X76791709Y-106937950D01*
X76854018Y-107051290D01*
X76858693Y-107056556D01*
X76858694Y-107056557D01*
X76968578Y-107180323D01*
X76968581Y-107180325D01*
X76973253Y-107185588D01*
X77119278Y-107290132D01*
X77284837Y-107359727D01*
X77291767Y-107360949D01*
X77454768Y-107389691D01*
X77454771Y-107389691D01*
X77461700Y-107390913D01*
X77601340Y-107384083D01*
X77898982Y-107331601D01*
X83701765Y-107331601D01*
X83711790Y-107510911D01*
X83713731Y-107517680D01*
X83758788Y-107674811D01*
X83761292Y-107683545D01*
X83764684Y-107689715D01*
X83764686Y-107689720D01*
X83793950Y-107742951D01*
X83847810Y-107840922D01*
X83852485Y-107846188D01*
X83852486Y-107846189D01*
X83962370Y-107969955D01*
X83962373Y-107969957D01*
X83967045Y-107975220D01*
X83972768Y-107979318D01*
X83972770Y-107979319D01*
X84017544Y-108011374D01*
X84113070Y-108079764D01*
X84278629Y-108149359D01*
X84285559Y-108150581D01*
X84448560Y-108179323D01*
X84448563Y-108179323D01*
X84455492Y-108180545D01*
X84595132Y-108173715D01*
X85231192Y-108061561D01*
X85286672Y-108045232D01*
X85353127Y-108025674D01*
X85353130Y-108025673D01*
X85359887Y-108023684D01*
X85366039Y-108020246D01*
X85366041Y-108020245D01*
X85463101Y-107966000D01*
X85516656Y-107936069D01*
X85611671Y-107850517D01*
X85644883Y-107820613D01*
X85644885Y-107820611D01*
X85650118Y-107815899D01*
X85701879Y-107742523D01*
X85749578Y-107674906D01*
X85749580Y-107674903D01*
X85753640Y-107669147D01*
X85822077Y-107503107D01*
X85824983Y-107485929D01*
X85841687Y-107387167D01*
X85852027Y-107326031D01*
X85849191Y-107275296D01*
X85842395Y-107153750D01*
X85842002Y-107146721D01*
X85831036Y-107108478D01*
X85794444Y-106980862D01*
X85794443Y-106980859D01*
X85792501Y-106974087D01*
X85782443Y-106955791D01*
X85709376Y-106822883D01*
X85709374Y-106822881D01*
X85705982Y-106816710D01*
X85701306Y-106811443D01*
X85591422Y-106687677D01*
X85591419Y-106687675D01*
X85586747Y-106682412D01*
X85576818Y-106675303D01*
X85478217Y-106604712D01*
X85440722Y-106577868D01*
X85275164Y-106508273D01*
X85268234Y-106507051D01*
X85105233Y-106478309D01*
X85105230Y-106478309D01*
X85098301Y-106477087D01*
X84958660Y-106483917D01*
X84322600Y-106596071D01*
X84267120Y-106612400D01*
X84200665Y-106631958D01*
X84200662Y-106631959D01*
X84193905Y-106633948D01*
X84187754Y-106637386D01*
X84187751Y-106637387D01*
X84107717Y-106682117D01*
X84037137Y-106721563D01*
X83903674Y-106841733D01*
X83865011Y-106896542D01*
X83810310Y-106974087D01*
X83800153Y-106988485D01*
X83797471Y-106994993D01*
X83797470Y-106994994D01*
X83734933Y-107146721D01*
X83731716Y-107154525D01*
X83701765Y-107331601D01*
X77898982Y-107331601D01*
X78237400Y-107271929D01*
X78292880Y-107255600D01*
X78359335Y-107236042D01*
X78359338Y-107236041D01*
X78366095Y-107234052D01*
X78372247Y-107230614D01*
X78372249Y-107230613D01*
X78516712Y-107149875D01*
X78522864Y-107146437D01*
X78628535Y-107051290D01*
X78651091Y-107030981D01*
X78651093Y-107030979D01*
X78656326Y-107026267D01*
X78732053Y-106918917D01*
X78755786Y-106885274D01*
X78755788Y-106885271D01*
X78759848Y-106879515D01*
X78828285Y-106713475D01*
X78831123Y-106696699D01*
X78851221Y-106577868D01*
X78858235Y-106536399D01*
X78857696Y-106526749D01*
X78848603Y-106364118D01*
X78848210Y-106357089D01*
X78845467Y-106347522D01*
X78800652Y-106191230D01*
X78800651Y-106191227D01*
X78798709Y-106184455D01*
X78767784Y-106128202D01*
X78715584Y-106033251D01*
X78715582Y-106033249D01*
X78712190Y-106027078D01*
X78707014Y-106021248D01*
X78597630Y-105898045D01*
X78597627Y-105898043D01*
X78592955Y-105892780D01*
X78542515Y-105856668D01*
X78491445Y-105820106D01*
X78446930Y-105788236D01*
X78281372Y-105718641D01*
X78270943Y-105716802D01*
X78111441Y-105688677D01*
X78111438Y-105688677D01*
X78104509Y-105687455D01*
X77964868Y-105694285D01*
X77328808Y-105806439D01*
X77282372Y-105820106D01*
X77206873Y-105842326D01*
X77206870Y-105842327D01*
X77200113Y-105844316D01*
X77193962Y-105847754D01*
X77193959Y-105847755D01*
X77128370Y-105884412D01*
X77043345Y-105931931D01*
X76909882Y-106052101D01*
X76862339Y-106119498D01*
X76815704Y-106185609D01*
X76806361Y-106198853D01*
X76803679Y-106205361D01*
X76803678Y-106205362D01*
X76740680Y-106358207D01*
X76737924Y-106364893D01*
X76707973Y-106541969D01*
X75334202Y-106541969D01*
X75100293Y-105116685D01*
X83297774Y-105116685D01*
X83300314Y-105148259D01*
X83300826Y-105151164D01*
X83300827Y-105151170D01*
X83340826Y-105378015D01*
X83440565Y-105943657D01*
X83448976Y-105974197D01*
X83452739Y-105980890D01*
X83452740Y-105980891D01*
X83509488Y-106081807D01*
X83515374Y-106092275D01*
X83522201Y-106098765D01*
X83522202Y-106098766D01*
X83562173Y-106136763D01*
X83613557Y-106185609D01*
X83734843Y-106245949D01*
X83744140Y-106247480D01*
X83744141Y-106247480D01*
X83771691Y-106252016D01*
X83868510Y-106267957D01*
X83900083Y-106265417D01*
X83902988Y-106264905D01*
X83902994Y-106264904D01*
X84540089Y-106152566D01*
X85237126Y-106029659D01*
X85239986Y-106028871D01*
X85239992Y-106028870D01*
X85260262Y-106023287D01*
X85260261Y-106023287D01*
X85267666Y-106021248D01*
X85385744Y-105954851D01*
X85479078Y-105856668D01*
X85539418Y-105735381D01*
X85541271Y-105724132D01*
X85560178Y-105609294D01*
X85561426Y-105601715D01*
X85558886Y-105570141D01*
X85535255Y-105436120D01*
X85478773Y-105115800D01*
X85418635Y-104774743D01*
X85410224Y-104744203D01*
X85379301Y-104689211D01*
X85348444Y-104634337D01*
X85348443Y-104634336D01*
X85343826Y-104626125D01*
X85245643Y-104532791D01*
X85124357Y-104472451D01*
X85115060Y-104470920D01*
X85115059Y-104470920D01*
X85053849Y-104460842D01*
X84990690Y-104450443D01*
X84959117Y-104452983D01*
X84956212Y-104453495D01*
X84956206Y-104453496D01*
X84451024Y-104542574D01*
X83622074Y-104688741D01*
X83619214Y-104689529D01*
X83619208Y-104689530D01*
X83604769Y-104693507D01*
X83591534Y-104697152D01*
X83473456Y-104763549D01*
X83380122Y-104861732D01*
X83319782Y-104983019D01*
X83318253Y-104992306D01*
X83318252Y-104992309D01*
X83310433Y-105039802D01*
X83297774Y-105116685D01*
X75100293Y-105116685D01*
X74916582Y-103997271D01*
X74917081Y-103997189D01*
X74916739Y-103996279D01*
X74919140Y-103981088D01*
X74912241Y-103967561D01*
X74909919Y-103949634D01*
X74909025Y-103946665D01*
X74798985Y-103176408D01*
X74798493Y-103172529D01*
X74708692Y-102365881D01*
X74708319Y-102361989D01*
X74699676Y-102253963D01*
X74643582Y-101552850D01*
X74643332Y-101548956D01*
X74642085Y-101523426D01*
X74603734Y-100738234D01*
X74603604Y-100734339D01*
X74601772Y-100631229D01*
X74592140Y-100089344D01*
X74589180Y-99922794D01*
X74589171Y-99918884D01*
X74589302Y-99908987D01*
X75068484Y-99908987D01*
X75077374Y-100248505D01*
X75077980Y-100255721D01*
X75125835Y-100591963D01*
X75127269Y-100599074D01*
X75213455Y-100927595D01*
X75215692Y-100934478D01*
X75339064Y-101250914D01*
X75342081Y-101257503D01*
X75501002Y-101557652D01*
X75504761Y-101563860D01*
X75697129Y-101843757D01*
X75701574Y-101849486D01*
X75768743Y-101926484D01*
X75781917Y-101934888D01*
X75791767Y-101929021D01*
X76683278Y-101037511D01*
X76745590Y-101003486D01*
X76816406Y-101008551D01*
X76868182Y-101044775D01*
X76945130Y-101134870D01*
X77035225Y-101211818D01*
X77074032Y-101271266D01*
X77074540Y-101342261D01*
X77042489Y-101396722D01*
X76151472Y-102287739D01*
X76143860Y-102301681D01*
X76143878Y-102301933D01*
X76149793Y-102310677D01*
X76181111Y-102339174D01*
X76186748Y-102343738D01*
X76462544Y-102541918D01*
X76468682Y-102545813D01*
X76765435Y-102710984D01*
X76771955Y-102714136D01*
X77085738Y-102844109D01*
X77092589Y-102846495D01*
X77419212Y-102939536D01*
X77426301Y-102941120D01*
X77761465Y-102996006D01*
X77768671Y-102996763D01*
X78107926Y-103012762D01*
X78115176Y-103012686D01*
X78454010Y-102989587D01*
X78461219Y-102988676D01*
X78795160Y-102926784D01*
X78802190Y-102925057D01*
X79126819Y-102825187D01*
X79133597Y-102822667D01*
X79444603Y-102686145D01*
X79451043Y-102682864D01*
X79744293Y-102511502D01*
X79750326Y-102507493D01*
X80008828Y-102313405D01*
X80017282Y-102302078D01*
X80010539Y-102289750D01*
X79117511Y-101396722D01*
X79083486Y-101334410D01*
X79088551Y-101263594D01*
X79124775Y-101211818D01*
X79214870Y-101134870D01*
X79291818Y-101044775D01*
X79351266Y-101005968D01*
X79422261Y-101005460D01*
X79476722Y-101037511D01*
X80366270Y-101927059D01*
X80379622Y-101934349D01*
X80389594Y-101927295D01*
X80496641Y-101799267D01*
X80500957Y-101793456D01*
X80687432Y-101509575D01*
X80691046Y-101503313D01*
X80843658Y-101199882D01*
X80846530Y-101193244D01*
X80963249Y-100874293D01*
X80965345Y-100867351D01*
X81044631Y-100537103D01*
X81045915Y-100529964D01*
X81086816Y-100191973D01*
X81087240Y-100186403D01*
X81093010Y-100002797D01*
X81092937Y-99997204D01*
X81073338Y-99657303D01*
X81072506Y-99650113D01*
X81017575Y-99335365D01*
X82600900Y-99335365D01*
X82600901Y-100143034D01*
X82601180Y-100145983D01*
X82601180Y-100145989D01*
X82603158Y-100166921D01*
X82603881Y-100174570D01*
X82648766Y-100302384D01*
X82729250Y-100411350D01*
X82838216Y-100491834D01*
X82847099Y-100494954D01*
X82847102Y-100494955D01*
X82919799Y-100520484D01*
X82966030Y-100536719D01*
X82973672Y-100537441D01*
X82973675Y-100537442D01*
X82984034Y-100538421D01*
X82997565Y-100539700D01*
X83676056Y-100539700D01*
X84355234Y-100539699D01*
X84358184Y-100539420D01*
X84358189Y-100539420D01*
X84379121Y-100537442D01*
X84379123Y-100537442D01*
X84386770Y-100536719D01*
X84473001Y-100506437D01*
X84505698Y-100494955D01*
X84505701Y-100494954D01*
X84514584Y-100491834D01*
X84623550Y-100411350D01*
X84704034Y-100302384D01*
X84748919Y-100174570D01*
X84751900Y-100143035D01*
X84751899Y-99335366D01*
X84750025Y-99315529D01*
X84749642Y-99311479D01*
X84749641Y-99311475D01*
X84748919Y-99303830D01*
X84718324Y-99216707D01*
X84707155Y-99184902D01*
X84707154Y-99184899D01*
X84704034Y-99176016D01*
X84623550Y-99067050D01*
X84514584Y-98986566D01*
X84505701Y-98983446D01*
X84505698Y-98983445D01*
X84394014Y-98944225D01*
X84394015Y-98944225D01*
X84386770Y-98941681D01*
X84379128Y-98940959D01*
X84379125Y-98940958D01*
X84368766Y-98939979D01*
X84355235Y-98938700D01*
X83676744Y-98938700D01*
X82997566Y-98938701D01*
X82994616Y-98938980D01*
X82994611Y-98938980D01*
X82973679Y-98940958D01*
X82973677Y-98940958D01*
X82966030Y-98941681D01*
X82933562Y-98953083D01*
X82847102Y-98983445D01*
X82847099Y-98983446D01*
X82838216Y-98986566D01*
X82729250Y-99067050D01*
X82648766Y-99176016D01*
X82645646Y-99184899D01*
X82645645Y-99184902D01*
X82625404Y-99242541D01*
X82603881Y-99303830D01*
X82600900Y-99335365D01*
X81017575Y-99335365D01*
X81014113Y-99315529D01*
X81012458Y-99308474D01*
X80915998Y-98982834D01*
X80913540Y-98976006D01*
X80780290Y-98663608D01*
X80777073Y-98657125D01*
X80608788Y-98362089D01*
X80604856Y-98356034D01*
X80403774Y-98082295D01*
X80399166Y-98076726D01*
X80393830Y-98070984D01*
X80380178Y-98062866D01*
X80379570Y-98062887D01*
X80371094Y-98068118D01*
X79476722Y-98962489D01*
X79414410Y-98996514D01*
X79343594Y-98991449D01*
X79291818Y-98955225D01*
X79214870Y-98865130D01*
X79124775Y-98788182D01*
X79085968Y-98728734D01*
X79085460Y-98657739D01*
X79117512Y-98603278D01*
X80007074Y-97713716D01*
X80014466Y-97700179D01*
X80007679Y-97690479D01*
X79904476Y-97602335D01*
X79898704Y-97597953D01*
X79616796Y-97408519D01*
X79610575Y-97404839D01*
X79308757Y-97249060D01*
X79302146Y-97246116D01*
X78984439Y-97126065D01*
X78977513Y-97123894D01*
X78648112Y-97041155D01*
X78641005Y-97039799D01*
X78304278Y-96995468D01*
X78297036Y-96994937D01*
X77957467Y-96989602D01*
X77950205Y-96989906D01*
X77612256Y-97023638D01*
X77605108Y-97024770D01*
X77273263Y-97097124D01*
X77266285Y-97099072D01*
X76944960Y-97209086D01*
X76938253Y-97211823D01*
X76631707Y-97358039D01*
X76625349Y-97361534D01*
X76337654Y-97542005D01*
X76331731Y-97546214D01*
X76153601Y-97688923D01*
X76145132Y-97701048D01*
X76151526Y-97712314D01*
X77042489Y-98603278D01*
X77076514Y-98665590D01*
X77071449Y-98736406D01*
X77035225Y-98788182D01*
X76945130Y-98865130D01*
X76868182Y-98955225D01*
X76808734Y-98994032D01*
X76737739Y-98994540D01*
X76683278Y-98962489D01*
X75792372Y-98071583D01*
X75779581Y-98064599D01*
X75768827Y-98072464D01*
X75608037Y-98277527D01*
X75603902Y-98283476D01*
X75426440Y-98573068D01*
X75423019Y-98579447D01*
X75280016Y-98887522D01*
X75277356Y-98894241D01*
X75170711Y-99216707D01*
X75168834Y-99223711D01*
X75099961Y-99556288D01*
X75098904Y-99563449D01*
X75068712Y-99901735D01*
X75068484Y-99908987D01*
X74589302Y-99908987D01*
X74594078Y-99548828D01*
X74599759Y-99120426D01*
X74605102Y-99105460D01*
X74604657Y-99103942D01*
X74605146Y-99102435D01*
X74600685Y-99088707D01*
X74616995Y-98762061D01*
X74618246Y-98749562D01*
X74624304Y-98709392D01*
X74646082Y-98564965D01*
X74668123Y-98418804D01*
X74670614Y-98406487D01*
X74753189Y-98082345D01*
X74756894Y-98070337D01*
X74758947Y-98064700D01*
X74871356Y-97756009D01*
X74876237Y-97744436D01*
X74891448Y-97712868D01*
X75021431Y-97443093D01*
X75027435Y-97432072D01*
X75201942Y-97146663D01*
X75209011Y-97136301D01*
X75228103Y-97111112D01*
X75282153Y-97039799D01*
X75411063Y-96869717D01*
X75419143Y-96860093D01*
X75646746Y-96614960D01*
X75655745Y-96606189D01*
X75906636Y-96384945D01*
X75916465Y-96377114D01*
X75992692Y-96322360D01*
X76182080Y-96186321D01*
X76196034Y-96182626D01*
X76206562Y-96169704D01*
X76209499Y-96167807D01*
X76209501Y-96167807D01*
X77288857Y-95470916D01*
X82321752Y-95470916D01*
X82323220Y-95481208D01*
X82336785Y-95485200D01*
X83404285Y-95485200D01*
X83419524Y-95480725D01*
X83420729Y-95479335D01*
X83422400Y-95471652D01*
X83422400Y-95467085D01*
X83930400Y-95467085D01*
X83934875Y-95482324D01*
X83936265Y-95483529D01*
X83943948Y-95485200D01*
X85011802Y-95485200D01*
X85025333Y-95481227D01*
X85026688Y-95471801D01*
X85005206Y-95382663D01*
X85001317Y-95371368D01*
X84918771Y-95189818D01*
X84912824Y-95179476D01*
X84797432Y-95016803D01*
X84789639Y-95007775D01*
X84645569Y-94869858D01*
X84636204Y-94862462D01*
X84468659Y-94754279D01*
X84458055Y-94748783D01*
X84273088Y-94674239D01*
X84261630Y-94670845D01*
X84064472Y-94632343D01*
X84055609Y-94631266D01*
X84052900Y-94631200D01*
X83948515Y-94631200D01*
X83933276Y-94635675D01*
X83932071Y-94637065D01*
X83930400Y-94644748D01*
X83930400Y-95467085D01*
X83422400Y-95467085D01*
X83422400Y-94649315D01*
X83417925Y-94634076D01*
X83416535Y-94632871D01*
X83408852Y-94631200D01*
X83351568Y-94631200D01*
X83345592Y-94631485D01*
X83196906Y-94645671D01*
X83185172Y-94647930D01*
X82993801Y-94704072D01*
X82982725Y-94708502D01*
X82805422Y-94799819D01*
X82795376Y-94806269D01*
X82638543Y-94929462D01*
X82629894Y-94937699D01*
X82499188Y-95088323D01*
X82492253Y-95098047D01*
X82392390Y-95270667D01*
X82387416Y-95281531D01*
X82321993Y-95469927D01*
X82321752Y-95470916D01*
X77288857Y-95470916D01*
X81039864Y-93049063D01*
X81048794Y-93044634D01*
X81054724Y-93040280D01*
X81071754Y-93034109D01*
X81073209Y-93031958D01*
X81276154Y-92851428D01*
X81455535Y-92644182D01*
X81606460Y-92415380D01*
X81726368Y-92168904D01*
X81813226Y-91908934D01*
X81865560Y-91639881D01*
X81882482Y-91366308D01*
X81863705Y-91092856D01*
X81809549Y-90824164D01*
X81785135Y-90752708D01*
X81722255Y-90568666D01*
X81722253Y-90568661D01*
X81720930Y-90564789D01*
X81599354Y-90319131D01*
X81446881Y-90091358D01*
X81267730Y-89887191D01*
X81266552Y-89884880D01*
X81251717Y-89877321D01*
X79440924Y-88066528D01*
X79441221Y-88066231D01*
X79440544Y-88065782D01*
X79433365Y-88051692D01*
X79424530Y-88047191D01*
X79423311Y-88044799D01*
X79421980Y-88045891D01*
X79421979Y-88045891D01*
X79325668Y-87928535D01*
X79311950Y-87908005D01*
X79298573Y-87882977D01*
X79240480Y-87774293D01*
X79231028Y-87751476D01*
X79222855Y-87724531D01*
X79187015Y-87606384D01*
X79182198Y-87582161D01*
X79181316Y-87573201D01*
X79167338Y-87431280D01*
X79167338Y-87406584D01*
X79169008Y-87389634D01*
X79182199Y-87255704D01*
X79187016Y-87231481D01*
X79231029Y-87086389D01*
X79240481Y-87063572D01*
X79311952Y-86929860D01*
X79325668Y-86909333D01*
X79421979Y-86791977D01*
X79421980Y-86791977D01*
X79424242Y-86793833D01*
X79426813Y-86789514D01*
X79433365Y-86786176D01*
X79440259Y-86772646D01*
X79451098Y-86762409D01*
X79454801Y-86757463D01*
X85075388Y-81136875D01*
X85075685Y-81137172D01*
X85076134Y-81136495D01*
X85090224Y-81129316D01*
X85094725Y-81120481D01*
X85097117Y-81119262D01*
X85096025Y-81117931D01*
X85096025Y-81117930D01*
X85213381Y-81021619D01*
X85233908Y-81007903D01*
X85367623Y-80936431D01*
X85390437Y-80926980D01*
X85535532Y-80882966D01*
X85559752Y-80878150D01*
X85710636Y-80863289D01*
X85735328Y-80863289D01*
X85886212Y-80878150D01*
G37*
%TD.AperFunction*%
%TA.AperFunction,Conductor*%
G36*
X102106115Y-97862502D02*
G01*
X102234507Y-97904219D01*
X102419598Y-97926290D01*
X102425733Y-97925818D01*
X102425735Y-97925818D01*
X102599310Y-97912462D01*
X102599315Y-97912461D01*
X102605451Y-97911989D01*
X102611381Y-97910333D01*
X102611383Y-97910333D01*
X102741391Y-97874034D01*
X102780324Y-97863164D01*
X102851313Y-97864111D01*
X102903302Y-97895428D01*
X103574395Y-98566521D01*
X103608421Y-98628833D01*
X103611300Y-98655616D01*
X103611300Y-99710283D01*
X103591298Y-99778404D01*
X103537642Y-99824897D01*
X103467368Y-99835001D01*
X103402788Y-99805507D01*
X103364678Y-99746701D01*
X103324414Y-99613339D01*
X103322633Y-99607440D01*
X103252367Y-99475289D01*
X103238016Y-99448298D01*
X103238014Y-99448295D01*
X103235122Y-99442856D01*
X103231232Y-99438086D01*
X103231229Y-99438082D01*
X103121205Y-99303180D01*
X103121202Y-99303177D01*
X103117310Y-99298405D01*
X103111656Y-99293727D01*
X103012661Y-99211831D01*
X102973685Y-99179587D01*
X102809716Y-99090929D01*
X102698928Y-99056635D01*
X102637536Y-99037631D01*
X102637533Y-99037630D01*
X102631649Y-99035809D01*
X102625524Y-99035165D01*
X102625523Y-99035165D01*
X102452396Y-99016968D01*
X102452395Y-99016968D01*
X102446268Y-99016324D01*
X102368149Y-99023433D01*
X102266771Y-99032659D01*
X102266768Y-99032660D01*
X102260632Y-99033218D01*
X102254722Y-99034957D01*
X102254719Y-99034958D01*
X102119959Y-99074621D01*
X102081814Y-99085848D01*
X101916623Y-99172207D01*
X101771352Y-99289008D01*
X101651535Y-99431801D01*
X101648571Y-99437193D01*
X101648568Y-99437197D01*
X101587199Y-99548828D01*
X101561735Y-99595146D01*
X101559874Y-99601013D01*
X101559873Y-99601015D01*
X101525211Y-99710283D01*
X101505372Y-99772824D01*
X101484594Y-99958065D01*
X101500192Y-100143814D01*
X101501891Y-100149739D01*
X101548073Y-100310798D01*
X101547622Y-100381793D01*
X101516050Y-100434623D01*
X100806179Y-101144495D01*
X100798075Y-101151921D01*
X100769206Y-101176145D01*
X100763693Y-101185694D01*
X100750361Y-101208785D01*
X100744455Y-101218056D01*
X100722846Y-101248916D01*
X100719992Y-101259566D01*
X100718515Y-101262734D01*
X100717323Y-101266010D01*
X100711812Y-101275555D01*
X100709149Y-101290660D01*
X100705270Y-101312658D01*
X100702892Y-101323385D01*
X100693136Y-101359793D01*
X100694097Y-101370778D01*
X100694097Y-101370780D01*
X100696420Y-101397328D01*
X100696900Y-101408310D01*
X100696900Y-102953322D01*
X100676898Y-103021443D01*
X100636922Y-103060640D01*
X100526445Y-103128606D01*
X100521414Y-103133532D01*
X100521411Y-103133535D01*
X100514207Y-103140590D01*
X100398132Y-103254259D01*
X100394313Y-103260184D01*
X100394312Y-103260186D01*
X100361575Y-103310984D01*
X100300846Y-103405217D01*
X100299585Y-103408681D01*
X100252281Y-103459827D01*
X100183548Y-103477613D01*
X100116111Y-103455415D01*
X100071380Y-103400282D01*
X100066724Y-103387147D01*
X100057529Y-103355803D01*
X100053098Y-103344725D01*
X99961781Y-103167422D01*
X99955331Y-103157376D01*
X99832138Y-103000543D01*
X99823901Y-102991894D01*
X99673277Y-102861188D01*
X99663553Y-102854253D01*
X99490933Y-102754390D01*
X99480069Y-102749416D01*
X99291673Y-102683993D01*
X99290684Y-102683752D01*
X99280392Y-102685220D01*
X99276400Y-102698785D01*
X99276400Y-105373802D01*
X99280373Y-105387333D01*
X99289799Y-105388688D01*
X99378937Y-105367206D01*
X99390232Y-105363317D01*
X99571782Y-105280771D01*
X99582124Y-105274824D01*
X99744797Y-105159432D01*
X99753825Y-105151639D01*
X99891742Y-105007569D01*
X99899138Y-104998204D01*
X100007321Y-104830659D01*
X100012815Y-104820058D01*
X100070351Y-104677295D01*
X100114366Y-104621589D01*
X100181511Y-104598523D01*
X100250468Y-104615420D01*
X100294076Y-104662622D01*
X100295915Y-104661473D01*
X100391084Y-104813775D01*
X100404687Y-104827473D01*
X100512667Y-104936210D01*
X100512671Y-104936213D01*
X100517630Y-104941207D01*
X100523576Y-104944981D01*
X100523578Y-104944982D01*
X100536009Y-104952871D01*
X100669264Y-105037437D01*
X100689290Y-105044568D01*
X100831814Y-105095319D01*
X100831819Y-105095320D01*
X100838449Y-105097681D01*
X100845435Y-105098514D01*
X100845439Y-105098515D01*
X100973223Y-105113752D01*
X101016776Y-105118945D01*
X101023779Y-105118209D01*
X101023780Y-105118209D01*
X101188375Y-105100910D01*
X101188379Y-105100909D01*
X101195383Y-105100173D01*
X101240230Y-105084906D01*
X101358723Y-105044568D01*
X101358726Y-105044567D01*
X101365393Y-105042297D01*
X101375018Y-105036376D01*
X101473240Y-104975949D01*
X101518355Y-104948194D01*
X101523386Y-104943268D01*
X101523389Y-104943265D01*
X101638378Y-104830659D01*
X101646668Y-104822541D01*
X101652318Y-104813775D01*
X101740135Y-104677509D01*
X101743954Y-104671583D01*
X101757511Y-104634337D01*
X101802970Y-104509439D01*
X101802971Y-104509436D01*
X101805378Y-104502822D01*
X101819125Y-104394000D01*
X101822404Y-104368045D01*
X101822404Y-104368042D01*
X101822900Y-104364117D01*
X101822900Y-103718245D01*
X101807946Y-103584928D01*
X101748885Y-103415327D01*
X101712200Y-103356618D01*
X101657449Y-103268999D01*
X101653716Y-103263025D01*
X101583823Y-103192643D01*
X101532133Y-103140590D01*
X101532129Y-103140587D01*
X101527170Y-103135593D01*
X101516161Y-103128606D01*
X101406386Y-103058941D01*
X101359587Y-103005552D01*
X101347900Y-102952556D01*
X101347900Y-101575616D01*
X101367902Y-101507495D01*
X101384805Y-101486521D01*
X101978086Y-100893240D01*
X102040398Y-100859214D01*
X102106115Y-100862502D01*
X102234507Y-100904219D01*
X102419598Y-100926290D01*
X102425733Y-100925818D01*
X102425735Y-100925818D01*
X102599310Y-100912462D01*
X102599315Y-100912461D01*
X102605451Y-100911989D01*
X102611381Y-100910333D01*
X102611383Y-100910333D01*
X102779059Y-100863517D01*
X102779058Y-100863517D01*
X102784987Y-100861862D01*
X102951368Y-100777817D01*
X102956665Y-100773679D01*
X103093394Y-100666854D01*
X103093395Y-100666853D01*
X103098255Y-100663056D01*
X103204734Y-100539699D01*
X103216030Y-100526612D01*
X103216031Y-100526611D01*
X103220054Y-100521950D01*
X103312126Y-100359874D01*
X103365742Y-100198699D01*
X103406223Y-100140375D01*
X103471811Y-100113195D01*
X103541682Y-100125790D01*
X103593652Y-100174160D01*
X103611300Y-100238471D01*
X103611300Y-100361090D01*
X103610820Y-100372072D01*
X103609970Y-100381793D01*
X103607536Y-100409607D01*
X103617291Y-100446010D01*
X103619670Y-100456742D01*
X103626212Y-100493845D01*
X103631723Y-100503390D01*
X103632915Y-100506666D01*
X103634392Y-100509834D01*
X103637246Y-100520484D01*
X103650506Y-100539421D01*
X103658855Y-100551344D01*
X103664761Y-100560615D01*
X103678093Y-100583706D01*
X103683606Y-100593255D01*
X103692051Y-100600341D01*
X103712482Y-100617485D01*
X103720585Y-100624911D01*
X104357800Y-101262126D01*
X104365227Y-101270230D01*
X104389456Y-101299105D01*
X104407982Y-101309801D01*
X104408067Y-101309850D01*
X104434162Y-101329874D01*
X108303795Y-105199507D01*
X108337821Y-105261819D01*
X108340700Y-105288602D01*
X108340700Y-106604688D01*
X108320698Y-106672809D01*
X108269636Y-106715107D01*
X108270772Y-106717280D01*
X108088202Y-106812726D01*
X108050888Y-106842727D01*
X108022141Y-106865840D01*
X107956518Y-106892936D01*
X107886664Y-106880252D01*
X107834756Y-106831816D01*
X107817189Y-106767643D01*
X107817189Y-106241399D01*
X107817669Y-106230417D01*
X107819992Y-106203869D01*
X107819992Y-106203867D01*
X107820953Y-106192882D01*
X107811197Y-106156474D01*
X107808819Y-106145747D01*
X107807235Y-106136763D01*
X107802277Y-106108644D01*
X107796766Y-106099099D01*
X107795574Y-106095823D01*
X107794097Y-106092655D01*
X107791243Y-106082005D01*
X107769634Y-106051145D01*
X107763728Y-106041874D01*
X107750396Y-106018783D01*
X107744883Y-106009234D01*
X107716006Y-105985004D01*
X107707904Y-105977578D01*
X106296709Y-104566383D01*
X106262683Y-104504071D01*
X106260882Y-104460842D01*
X106268604Y-104402188D01*
X106269682Y-104394000D01*
X106249044Y-104237238D01*
X106188536Y-104091159D01*
X106104076Y-103981088D01*
X106097305Y-103972264D01*
X106092282Y-103965718D01*
X105966841Y-103869464D01*
X105820762Y-103808956D01*
X105664000Y-103788318D01*
X105507238Y-103808956D01*
X105361159Y-103869464D01*
X105235718Y-103965718D01*
X105230695Y-103972264D01*
X105223924Y-103981088D01*
X105139464Y-104091159D01*
X105078956Y-104237238D01*
X105058318Y-104394000D01*
X105078956Y-104550762D01*
X105139464Y-104696841D01*
X105235718Y-104822282D01*
X105361159Y-104918536D01*
X105444051Y-104952871D01*
X105496488Y-104974591D01*
X105507238Y-104979044D01*
X105664000Y-104999682D01*
X105730843Y-104990882D01*
X105800990Y-105001821D01*
X105836383Y-105026709D01*
X107129284Y-106319610D01*
X107163310Y-106381922D01*
X107166189Y-106408705D01*
X107166189Y-106526749D01*
X107146187Y-106594870D01*
X107092531Y-106641363D01*
X107022257Y-106651467D01*
X106962097Y-106625631D01*
X106884339Y-106564222D01*
X106875752Y-106558517D01*
X106689317Y-106455599D01*
X106679905Y-106451369D01*
X106479159Y-106380280D01*
X106469188Y-106377646D01*
X106398037Y-106364972D01*
X106384740Y-106366432D01*
X106380200Y-106380989D01*
X106380200Y-109014517D01*
X106384264Y-109028359D01*
X106397678Y-109030393D01*
X106404384Y-109029534D01*
X106414462Y-109027392D01*
X106618455Y-108966191D01*
X106628042Y-108962433D01*
X106819295Y-108868739D01*
X106828145Y-108863464D01*
X106967021Y-108764405D01*
X107034094Y-108741131D01*
X107103103Y-108757815D01*
X107152137Y-108809159D01*
X107166189Y-108866984D01*
X107166189Y-111705713D01*
X107165709Y-111716695D01*
X107163658Y-111740143D01*
X107162425Y-111754230D01*
X107172180Y-111790633D01*
X107174559Y-111801365D01*
X107181101Y-111838468D01*
X107186612Y-111848013D01*
X107187804Y-111851289D01*
X107189281Y-111854457D01*
X107192135Y-111865107D01*
X107198459Y-111874138D01*
X107213744Y-111895967D01*
X107219650Y-111905238D01*
X107229214Y-111921802D01*
X107238495Y-111937878D01*
X107246940Y-111944964D01*
X107267371Y-111962108D01*
X107275474Y-111969534D01*
X107422559Y-112116619D01*
X107456585Y-112178931D01*
X107457314Y-112228890D01*
X107435397Y-112346002D01*
X107437658Y-112404852D01*
X107441387Y-112501918D01*
X107442291Y-112525461D01*
X107488773Y-112698933D01*
X107553978Y-112822604D01*
X107556250Y-112825849D01*
X107556252Y-112825852D01*
X107922418Y-113348791D01*
X107922424Y-113348799D01*
X107924436Y-113351672D01*
X107926760Y-113354308D01*
X107998857Y-113436085D01*
X108013153Y-113452301D01*
X108158813Y-113557354D01*
X108324127Y-113627526D01*
X108500880Y-113659328D01*
X108605601Y-113654573D01*
X108673246Y-113651501D01*
X108673249Y-113651501D01*
X108680286Y-113651181D01*
X108789483Y-113621103D01*
X108846640Y-113605359D01*
X108853429Y-113603489D01*
X108859630Y-113600164D01*
X108859635Y-113600162D01*
X108972267Y-113539768D01*
X109011702Y-113518623D01*
X109019852Y-113511538D01*
X109141920Y-113405427D01*
X109141922Y-113405424D01*
X109147241Y-113400801D01*
X109253309Y-113255878D01*
X109301894Y-113143605D01*
X109321837Y-113097520D01*
X109321838Y-113097517D01*
X109324633Y-113091058D01*
X109357669Y-112914532D01*
X109350775Y-112735073D01*
X109349821Y-112731514D01*
X109359235Y-112662483D01*
X109405338Y-112608491D01*
X109473311Y-112587995D01*
X109541576Y-112607502D01*
X109552922Y-112615590D01*
X109578431Y-112635991D01*
X109588415Y-112642524D01*
X109764920Y-112735387D01*
X109775955Y-112739913D01*
X109966833Y-112797724D01*
X109978539Y-112800084D01*
X110176895Y-112820757D01*
X110188833Y-112820862D01*
X110387527Y-112803652D01*
X110399264Y-112801498D01*
X110591114Y-112747029D01*
X110592068Y-112746657D01*
X110599655Y-112739554D01*
X110595143Y-112726149D01*
X109771130Y-111549337D01*
X110393324Y-111549337D01*
X110396361Y-111556588D01*
X111008857Y-112431323D01*
X111019872Y-112440128D01*
X111028373Y-112435830D01*
X111089066Y-112367109D01*
X111096091Y-112357439D01*
X111197456Y-112185699D01*
X111202524Y-112174880D01*
X111269586Y-111987064D01*
X111272515Y-111975494D01*
X111302854Y-111778373D01*
X111303540Y-111766460D01*
X111296059Y-111567164D01*
X111294481Y-111555337D01*
X111249448Y-111361054D01*
X111245655Y-111349719D01*
X111164111Y-111166137D01*
X111159905Y-111158252D01*
X111158432Y-111156034D01*
X111098537Y-111070496D01*
X111086131Y-111060579D01*
X111084299Y-111060390D01*
X111077048Y-111063427D01*
X110403430Y-111535099D01*
X110393513Y-111547505D01*
X110393324Y-111549337D01*
X109771130Y-111549337D01*
X109681084Y-111420738D01*
X109060817Y-110534905D01*
X109049802Y-110526100D01*
X109041301Y-110530398D01*
X108980608Y-110599119D01*
X108973583Y-110608789D01*
X108872218Y-110780529D01*
X108867150Y-110791348D01*
X108800088Y-110979164D01*
X108797159Y-110990734D01*
X108766820Y-111187855D01*
X108766134Y-111199768D01*
X108773616Y-111399065D01*
X108775194Y-111410892D01*
X108809950Y-111560841D01*
X108805846Y-111631719D01*
X108764074Y-111689127D01*
X108697897Y-111714837D01*
X108635101Y-111701182D01*
X108634253Y-111703180D01*
X108468939Y-111633009D01*
X108292186Y-111601206D01*
X108183603Y-111606137D01*
X108119820Y-111609033D01*
X108119817Y-111609033D01*
X108112780Y-111609353D01*
X108105988Y-111611224D01*
X108105987Y-111611224D01*
X107980984Y-111645656D01*
X107976649Y-111646850D01*
X107905663Y-111645656D01*
X107846590Y-111606273D01*
X107818188Y-111541206D01*
X107817189Y-111525374D01*
X107817189Y-110226674D01*
X109470020Y-110226674D01*
X109474532Y-110240079D01*
X110086822Y-111114521D01*
X110099228Y-111124438D01*
X110101060Y-111124627D01*
X110108311Y-111121590D01*
X110781929Y-110649918D01*
X110791846Y-110637512D01*
X110792035Y-110635680D01*
X110788998Y-110628429D01*
X110756142Y-110581505D01*
X110752478Y-110576770D01*
X110655573Y-110463108D01*
X110646998Y-110454798D01*
X110491242Y-110330237D01*
X110481259Y-110323704D01*
X110304754Y-110230841D01*
X110293719Y-110226315D01*
X110102841Y-110168504D01*
X110091135Y-110166144D01*
X109892779Y-110145471D01*
X109880841Y-110145366D01*
X109682147Y-110162576D01*
X109670410Y-110164730D01*
X109478562Y-110219199D01*
X109477607Y-110219571D01*
X109470020Y-110226674D01*
X107817189Y-110226674D01*
X107817189Y-108625628D01*
X107837191Y-108557507D01*
X107890847Y-108511014D01*
X107961121Y-108500910D01*
X108024852Y-108529675D01*
X108063764Y-108562791D01*
X108243598Y-108663297D01*
X108338438Y-108694112D01*
X108433671Y-108725056D01*
X108433675Y-108725057D01*
X108439529Y-108726959D01*
X108644094Y-108751351D01*
X108650229Y-108750879D01*
X108650231Y-108750879D01*
X108706239Y-108746569D01*
X108849500Y-108735546D01*
X108855430Y-108733890D01*
X108855432Y-108733890D01*
X108979304Y-108699304D01*
X109047925Y-108680145D01*
X109053414Y-108677372D01*
X109053420Y-108677370D01*
X109226316Y-108590033D01*
X109231810Y-108587258D01*
X109243357Y-108578237D01*
X109359894Y-108487188D01*
X109394151Y-108460424D01*
X109402703Y-108450517D01*
X109524740Y-108309134D01*
X109524740Y-108309133D01*
X109528764Y-108304472D01*
X109546108Y-108273942D01*
X109599360Y-108180201D01*
X109630523Y-108125344D01*
X109695551Y-107929863D01*
X109721371Y-107725474D01*
X109721783Y-107696000D01*
X109701680Y-107490970D01*
X109642135Y-107293749D01*
X109545418Y-107111849D01*
X109450004Y-106994860D01*
X109419106Y-106956975D01*
X109419103Y-106956972D01*
X109415211Y-106952200D01*
X109397986Y-106937950D01*
X109261225Y-106824811D01*
X109261221Y-106824809D01*
X109256475Y-106820882D01*
X109075255Y-106722897D01*
X109069367Y-106721074D01*
X109068876Y-106720868D01*
X109013828Y-106676033D01*
X108991700Y-106604712D01*
X108991700Y-105121296D01*
X108992180Y-105110314D01*
X108994503Y-105083766D01*
X108994503Y-105083764D01*
X108995464Y-105072779D01*
X108985708Y-105036371D01*
X108983330Y-105025644D01*
X108982738Y-105022285D01*
X108976788Y-104988541D01*
X108971277Y-104978996D01*
X108970085Y-104975720D01*
X108968608Y-104972552D01*
X108965754Y-104961902D01*
X108944145Y-104931042D01*
X108938239Y-104921771D01*
X108924907Y-104898680D01*
X108919394Y-104889131D01*
X108890517Y-104864901D01*
X108882415Y-104857475D01*
X105145111Y-101120171D01*
X105111085Y-101057859D01*
X105116150Y-100987044D01*
X105158697Y-100930208D01*
X105225217Y-100905397D01*
X105249124Y-100905962D01*
X105419598Y-100926290D01*
X105425732Y-100925818D01*
X105425734Y-100925818D01*
X105443711Y-100924434D01*
X105491627Y-100920747D01*
X105561080Y-100935464D01*
X105590388Y-100957281D01*
X111341844Y-106708737D01*
X111352711Y-106721127D01*
X111371451Y-106745549D01*
X111377997Y-106750572D01*
X111402417Y-106769310D01*
X111402419Y-106769312D01*
X111435143Y-106794422D01*
X111494802Y-106840201D01*
X111568947Y-106870912D01*
X111638449Y-106899701D01*
X111646633Y-106900778D01*
X111646635Y-106900779D01*
X111753896Y-106914900D01*
X111753901Y-106914900D01*
X111792600Y-106919995D01*
X111800788Y-106918917D01*
X111823113Y-106915978D01*
X111839559Y-106914900D01*
X114360917Y-106914900D01*
X114429038Y-106934902D01*
X114450012Y-106951805D01*
X115525840Y-108027634D01*
X115559866Y-108089946D01*
X115562438Y-108125518D01*
X115556168Y-108215192D01*
X115551636Y-108279997D01*
X115552714Y-108286960D01*
X115552714Y-108286961D01*
X115556147Y-108309134D01*
X115579111Y-108457474D01*
X115645223Y-108624453D01*
X115649200Y-108630262D01*
X115649201Y-108630263D01*
X115678383Y-108672883D01*
X115746685Y-108772636D01*
X115751850Y-108777419D01*
X115751851Y-108777420D01*
X115792722Y-108815267D01*
X115878457Y-108894658D01*
X115884554Y-108898178D01*
X115884558Y-108898181D01*
X116002357Y-108966191D01*
X116033988Y-108984453D01*
X116054447Y-108990786D01*
X116163765Y-109024626D01*
X116163772Y-109024628D01*
X116167543Y-109025795D01*
X116803603Y-109137949D01*
X116807112Y-109138170D01*
X116807114Y-109138170D01*
X116836411Y-109140013D01*
X116937491Y-109146372D01*
X116944449Y-109145245D01*
X116944450Y-109145245D01*
X117107819Y-109118785D01*
X117114771Y-109117659D01*
X117121299Y-109115022D01*
X117121301Y-109115021D01*
X117235910Y-109068716D01*
X117281285Y-109050383D01*
X117289782Y-109044478D01*
X117381216Y-108980929D01*
X117428756Y-108947888D01*
X117549855Y-108815267D01*
X117638562Y-108659114D01*
X117649027Y-108624453D01*
X117688432Y-108493936D01*
X117688432Y-108493933D01*
X117690469Y-108487188D01*
X117691853Y-108467407D01*
X117702505Y-108315067D01*
X117702997Y-108308035D01*
X117698657Y-108279997D01*
X117676599Y-108137515D01*
X117675522Y-108130558D01*
X117609410Y-107963579D01*
X117507947Y-107815396D01*
X117376176Y-107693375D01*
X117370082Y-107689856D01*
X117370077Y-107689853D01*
X117226749Y-107607103D01*
X117226748Y-107607103D01*
X117220645Y-107603579D01*
X117177454Y-107590209D01*
X117090868Y-107563406D01*
X117090861Y-107563404D01*
X117087090Y-107562237D01*
X116928214Y-107534223D01*
X116693445Y-107492827D01*
X116626230Y-107457836D01*
X116445008Y-107276614D01*
X116410982Y-107214302D01*
X116416047Y-107143487D01*
X116458594Y-107086651D01*
X116525114Y-107061840D01*
X116555983Y-107063433D01*
X117238454Y-107183771D01*
X117305669Y-107218762D01*
X117990595Y-107903688D01*
X118024621Y-107966000D01*
X118027500Y-107992783D01*
X118027500Y-109177217D01*
X118007498Y-109245338D01*
X117990595Y-109266312D01*
X117648312Y-109608595D01*
X117586000Y-109642621D01*
X117559217Y-109645500D01*
X114499358Y-109645500D01*
X114482911Y-109644422D01*
X114460588Y-109641483D01*
X114452400Y-109640405D01*
X114413701Y-109645500D01*
X114413696Y-109645500D01*
X114306435Y-109659621D01*
X114306433Y-109659622D01*
X114298249Y-109660699D01*
X114263449Y-109675114D01*
X114246583Y-109682100D01*
X114246581Y-109682101D01*
X114176915Y-109710957D01*
X114154602Y-109720199D01*
X114148051Y-109725226D01*
X114062238Y-109791072D01*
X114062231Y-109791078D01*
X114062219Y-109791087D01*
X114062213Y-109791093D01*
X114031251Y-109814851D01*
X114026225Y-109821401D01*
X114012519Y-109839263D01*
X114001652Y-109851654D01*
X109080512Y-114772795D01*
X109018200Y-114806821D01*
X108991417Y-114809700D01*
X107558678Y-114809700D01*
X107490557Y-114789698D01*
X107444064Y-114736042D01*
X107433960Y-114665768D01*
X107463454Y-114601188D01*
X107486407Y-114580487D01*
X107550096Y-114535892D01*
X107686819Y-114440157D01*
X107703486Y-114428487D01*
X107703490Y-114428484D01*
X107705912Y-114426788D01*
X107730034Y-114406259D01*
X107734505Y-114400025D01*
X107734509Y-114400021D01*
X107803499Y-114303833D01*
X107808989Y-114296179D01*
X107852085Y-114167750D01*
X107855513Y-114032327D01*
X107818969Y-113901882D01*
X107812588Y-113890649D01*
X107804792Y-113876925D01*
X107804787Y-113876917D01*
X107803323Y-113874340D01*
X107797103Y-113865456D01*
X107026300Y-112764636D01*
X107026299Y-112764635D01*
X107024597Y-112762204D01*
X107004067Y-112738082D01*
X106997833Y-112733610D01*
X106997829Y-112733607D01*
X106911687Y-112671822D01*
X106893988Y-112659127D01*
X106885060Y-112656131D01*
X106885058Y-112656130D01*
X106774491Y-112619028D01*
X106774489Y-112619028D01*
X106765559Y-112616031D01*
X106694327Y-112614227D01*
X106639551Y-112612840D01*
X106639548Y-112612840D01*
X106630136Y-112612602D01*
X106499691Y-112649146D01*
X106493012Y-112652940D01*
X106493010Y-112652941D01*
X106474734Y-112663323D01*
X106474726Y-112663328D01*
X106472149Y-112664792D01*
X106469720Y-112666493D01*
X106469715Y-112666496D01*
X105812972Y-113126353D01*
X105810546Y-113128052D01*
X105786424Y-113148581D01*
X105781953Y-113154815D01*
X105781949Y-113154819D01*
X105757758Y-113188547D01*
X105707469Y-113258661D01*
X105664373Y-113387090D01*
X105660945Y-113522513D01*
X105697489Y-113652958D01*
X105701283Y-113659637D01*
X105701284Y-113659639D01*
X105711666Y-113677915D01*
X105711671Y-113677923D01*
X105713135Y-113680500D01*
X105714836Y-113682930D01*
X105714839Y-113682934D01*
X106364978Y-114611429D01*
X106387666Y-114678703D01*
X106370381Y-114747564D01*
X106318611Y-114796148D01*
X106261765Y-114809700D01*
X103466255Y-114809700D01*
X103398134Y-114789698D01*
X103351641Y-114736042D01*
X103340945Y-114696871D01*
X103325375Y-114548735D01*
X103325375Y-114548734D01*
X103324685Y-114542171D01*
X103318942Y-114524494D01*
X103269856Y-114373426D01*
X103267814Y-114367141D01*
X103175795Y-114207760D01*
X103147812Y-114176681D01*
X103057072Y-114075904D01*
X103057071Y-114075903D01*
X103052650Y-114070993D01*
X103047308Y-114067112D01*
X103047306Y-114067110D01*
X102909103Y-113966700D01*
X102909102Y-113966699D01*
X102903761Y-113962819D01*
X102897733Y-113960135D01*
X102897731Y-113960134D01*
X102741665Y-113890649D01*
X102741664Y-113890649D01*
X102735634Y-113887964D01*
X102556781Y-113849947D01*
X102494307Y-113816218D01*
X102462528Y-113758672D01*
X102439446Y-113809212D01*
X102379720Y-113847596D01*
X102370419Y-113849947D01*
X102191566Y-113887964D01*
X102185536Y-113890649D01*
X102185535Y-113890649D01*
X102029469Y-113960134D01*
X102029467Y-113960135D01*
X102023439Y-113962819D01*
X102018098Y-113966699D01*
X102018097Y-113966700D01*
X101879894Y-114067110D01*
X101879892Y-114067112D01*
X101874550Y-114070993D01*
X101870129Y-114075903D01*
X101870128Y-114075904D01*
X101779389Y-114176681D01*
X101751405Y-114207760D01*
X101659386Y-114367141D01*
X101657344Y-114373426D01*
X101608259Y-114524494D01*
X101602515Y-114542171D01*
X101601825Y-114548734D01*
X101601825Y-114548735D01*
X101588165Y-114678703D01*
X101583278Y-114725200D01*
X101602515Y-114908229D01*
X101659386Y-115083259D01*
X101751405Y-115242640D01*
X101755823Y-115247547D01*
X101755824Y-115247548D01*
X101857932Y-115360951D01*
X101874550Y-115379407D01*
X101879892Y-115383288D01*
X101879894Y-115383290D01*
X101960289Y-115441700D01*
X102023439Y-115487581D01*
X102029467Y-115490265D01*
X102029469Y-115490266D01*
X102101630Y-115522394D01*
X102191566Y-115562436D01*
X102281573Y-115581568D01*
X102365124Y-115599328D01*
X102365129Y-115599328D01*
X102371581Y-115600700D01*
X102372445Y-115600700D01*
X102436133Y-115626902D01*
X102476764Y-115685123D01*
X102479467Y-115756068D01*
X102443386Y-115817213D01*
X102379975Y-115849144D01*
X102376109Y-115849700D01*
X102371581Y-115849700D01*
X102365129Y-115851072D01*
X102365124Y-115851072D01*
X102281573Y-115868832D01*
X102191566Y-115887964D01*
X102185536Y-115890649D01*
X102185535Y-115890649D01*
X102029469Y-115960134D01*
X102029467Y-115960135D01*
X102023439Y-115962819D01*
X102018098Y-115966699D01*
X102018097Y-115966700D01*
X101879894Y-116067110D01*
X101879892Y-116067112D01*
X101874550Y-116070993D01*
X101870129Y-116075903D01*
X101870128Y-116075904D01*
X101758651Y-116199713D01*
X101751405Y-116207760D01*
X101659386Y-116367141D01*
X101602515Y-116542171D01*
X101601825Y-116548734D01*
X101601825Y-116548735D01*
X101586711Y-116692541D01*
X101583278Y-116725200D01*
X101583968Y-116731765D01*
X101601724Y-116900699D01*
X101602515Y-116908229D01*
X101604555Y-116914506D01*
X101604555Y-116914508D01*
X101605565Y-116917616D01*
X101659386Y-117083259D01*
X101662689Y-117088981D01*
X101662690Y-117088982D01*
X101675686Y-117111491D01*
X101751405Y-117242640D01*
X101811328Y-117309192D01*
X101842044Y-117373197D01*
X101833280Y-117443651D01*
X101787818Y-117498182D01*
X101717691Y-117519500D01*
X100161509Y-117519500D01*
X100093388Y-117499498D01*
X100046895Y-117445842D01*
X100036791Y-117375568D01*
X100067872Y-117309192D01*
X100127795Y-117242640D01*
X100203514Y-117111491D01*
X100216510Y-117088982D01*
X100216511Y-117088981D01*
X100219814Y-117083259D01*
X100273635Y-116917616D01*
X100274645Y-116914508D01*
X100274645Y-116914506D01*
X100276685Y-116908229D01*
X100277477Y-116900699D01*
X100295232Y-116731765D01*
X100295922Y-116725200D01*
X100292489Y-116692541D01*
X100277375Y-116548735D01*
X100277375Y-116548734D01*
X100276685Y-116542171D01*
X100219814Y-116367141D01*
X100127795Y-116207760D01*
X100120550Y-116199713D01*
X100009072Y-116075904D01*
X100009071Y-116075903D01*
X100004650Y-116070993D01*
X99999308Y-116067112D01*
X99999306Y-116067110D01*
X99861103Y-115966700D01*
X99861102Y-115966699D01*
X99855761Y-115962819D01*
X99849733Y-115960135D01*
X99849731Y-115960134D01*
X99693665Y-115890649D01*
X99693664Y-115890649D01*
X99687634Y-115887964D01*
X99597627Y-115868832D01*
X99514076Y-115851072D01*
X99514071Y-115851072D01*
X99507619Y-115849700D01*
X99506755Y-115849700D01*
X99443067Y-115823498D01*
X99415222Y-115783598D01*
X99395386Y-115817213D01*
X99331975Y-115849144D01*
X99328109Y-115849700D01*
X99323581Y-115849700D01*
X99317129Y-115851072D01*
X99317124Y-115851072D01*
X99233573Y-115868832D01*
X99143566Y-115887964D01*
X99137536Y-115890649D01*
X99137535Y-115890649D01*
X98981469Y-115960134D01*
X98981467Y-115960135D01*
X98975439Y-115962819D01*
X98970098Y-115966699D01*
X98970097Y-115966700D01*
X98831894Y-116067110D01*
X98831892Y-116067112D01*
X98826550Y-116070993D01*
X98822129Y-116075903D01*
X98822128Y-116075904D01*
X98710651Y-116199713D01*
X98703405Y-116207760D01*
X98611386Y-116367141D01*
X98554515Y-116542171D01*
X98553825Y-116548734D01*
X98553825Y-116548735D01*
X98538711Y-116692541D01*
X98535278Y-116725200D01*
X98535968Y-116731765D01*
X98553724Y-116900699D01*
X98554515Y-116908229D01*
X98556555Y-116914506D01*
X98556555Y-116914508D01*
X98557565Y-116917616D01*
X98611386Y-117083259D01*
X98614689Y-117088981D01*
X98614690Y-117088982D01*
X98627686Y-117111491D01*
X98703405Y-117242640D01*
X98763328Y-117309192D01*
X98794044Y-117373197D01*
X98785280Y-117443651D01*
X98739818Y-117498182D01*
X98669691Y-117519500D01*
X97832785Y-117519500D01*
X97764664Y-117499498D01*
X97743690Y-117482596D01*
X97267805Y-117006712D01*
X97233780Y-116944399D01*
X97230900Y-116917616D01*
X97230900Y-115441700D01*
X97250902Y-115373579D01*
X97304558Y-115327086D01*
X97356900Y-115315700D01*
X98713090Y-115315700D01*
X98781211Y-115335702D01*
X98806722Y-115357386D01*
X98826550Y-115379407D01*
X98831892Y-115383288D01*
X98831894Y-115383290D01*
X98912289Y-115441700D01*
X98975439Y-115487581D01*
X98981467Y-115490265D01*
X98981469Y-115490266D01*
X99053630Y-115522394D01*
X99143566Y-115562436D01*
X99233573Y-115581568D01*
X99317124Y-115599328D01*
X99317129Y-115599328D01*
X99323581Y-115600700D01*
X99324445Y-115600700D01*
X99388133Y-115626902D01*
X99415978Y-115666802D01*
X99435814Y-115633187D01*
X99499225Y-115601256D01*
X99503091Y-115600700D01*
X99507619Y-115600700D01*
X99514071Y-115599328D01*
X99514076Y-115599328D01*
X99597627Y-115581568D01*
X99687634Y-115562436D01*
X99777570Y-115522394D01*
X99849731Y-115490266D01*
X99849733Y-115490265D01*
X99855761Y-115487581D01*
X99918911Y-115441700D01*
X99999306Y-115383290D01*
X99999308Y-115383288D01*
X100004650Y-115379407D01*
X100021268Y-115360951D01*
X100123376Y-115247548D01*
X100123377Y-115247547D01*
X100127795Y-115242640D01*
X100219814Y-115083259D01*
X100276685Y-114908229D01*
X100295922Y-114725200D01*
X100291035Y-114678703D01*
X100277375Y-114548735D01*
X100277375Y-114548734D01*
X100276685Y-114542171D01*
X100270942Y-114524494D01*
X100221856Y-114373426D01*
X100219814Y-114367141D01*
X100127795Y-114207760D01*
X100099812Y-114176681D01*
X100009072Y-114075904D01*
X100009071Y-114075903D01*
X100004650Y-114070993D01*
X99999308Y-114067112D01*
X99999306Y-114067110D01*
X99861103Y-113966700D01*
X99861102Y-113966699D01*
X99855761Y-113962819D01*
X99849733Y-113960135D01*
X99849731Y-113960134D01*
X99693665Y-113890649D01*
X99693664Y-113890649D01*
X99687634Y-113887964D01*
X99508781Y-113849947D01*
X99446307Y-113816218D01*
X99414528Y-113758672D01*
X99391446Y-113809212D01*
X99331720Y-113847596D01*
X99322419Y-113849947D01*
X99143566Y-113887964D01*
X99137536Y-113890649D01*
X99137535Y-113890649D01*
X98981469Y-113960134D01*
X98981467Y-113960135D01*
X98975439Y-113962819D01*
X98970098Y-113966699D01*
X98970097Y-113966700D01*
X98831894Y-114067110D01*
X98831892Y-114067112D01*
X98826550Y-114070993D01*
X98806724Y-114093012D01*
X98746281Y-114130250D01*
X98713090Y-114134700D01*
X96937183Y-114134700D01*
X96869062Y-114114698D01*
X96848088Y-114097795D01*
X96170241Y-113419948D01*
X98540100Y-113419948D01*
X98551733Y-113478431D01*
X98596048Y-113544752D01*
X98662369Y-113589067D01*
X98674538Y-113591488D01*
X98674539Y-113591488D01*
X98714784Y-113599493D01*
X98720852Y-113600700D01*
X99296222Y-113600700D01*
X99364343Y-113620702D01*
X99410836Y-113674358D01*
X99415255Y-113705092D01*
X99416714Y-113683230D01*
X99458990Y-113626192D01*
X99525392Y-113601065D01*
X99534978Y-113600700D01*
X100110348Y-113600700D01*
X100116416Y-113599493D01*
X100156661Y-113591488D01*
X100156662Y-113591488D01*
X100168831Y-113589067D01*
X100235152Y-113544752D01*
X100279467Y-113478431D01*
X100291100Y-113419948D01*
X101588100Y-113419948D01*
X101599733Y-113478431D01*
X101644048Y-113544752D01*
X101710369Y-113589067D01*
X101722538Y-113591488D01*
X101722539Y-113591488D01*
X101762784Y-113599493D01*
X101768852Y-113600700D01*
X102344222Y-113600700D01*
X102412343Y-113620702D01*
X102458836Y-113674358D01*
X102463255Y-113705092D01*
X102464714Y-113683230D01*
X102506990Y-113626192D01*
X102573392Y-113601065D01*
X102582978Y-113600700D01*
X103158348Y-113600700D01*
X103164416Y-113599493D01*
X103204661Y-113591488D01*
X103204662Y-113591488D01*
X103216831Y-113589067D01*
X103283152Y-113544752D01*
X103327467Y-113478431D01*
X103339100Y-113419948D01*
X103339100Y-112030452D01*
X103335843Y-112014078D01*
X103329888Y-111984139D01*
X103329888Y-111984138D01*
X103327467Y-111971969D01*
X103283152Y-111905648D01*
X103216831Y-111861333D01*
X103204662Y-111858912D01*
X103204661Y-111858912D01*
X103164416Y-111850907D01*
X103158348Y-111849700D01*
X101768852Y-111849700D01*
X101762784Y-111850907D01*
X101722539Y-111858912D01*
X101722538Y-111858912D01*
X101710369Y-111861333D01*
X101644048Y-111905648D01*
X101599733Y-111971969D01*
X101597312Y-111984138D01*
X101597312Y-111984139D01*
X101591357Y-112014078D01*
X101588100Y-112030452D01*
X101588100Y-113419948D01*
X100291100Y-113419948D01*
X100291100Y-112030452D01*
X100287843Y-112014078D01*
X100281888Y-111984139D01*
X100281888Y-111984138D01*
X100279467Y-111971969D01*
X100235152Y-111905648D01*
X100168831Y-111861333D01*
X100156662Y-111858912D01*
X100156661Y-111858912D01*
X100116416Y-111850907D01*
X100110348Y-111849700D01*
X98720852Y-111849700D01*
X98714784Y-111850907D01*
X98674539Y-111858912D01*
X98674538Y-111858912D01*
X98662369Y-111861333D01*
X98596048Y-111905648D01*
X98551733Y-111971969D01*
X98549312Y-111984138D01*
X98549312Y-111984139D01*
X98543357Y-112014078D01*
X98540100Y-112030452D01*
X98540100Y-113419948D01*
X96170241Y-113419948D01*
X94291081Y-111540788D01*
X94257055Y-111478476D01*
X94262120Y-111407661D01*
X94304667Y-111350825D01*
X94371187Y-111326014D01*
X94409588Y-111329174D01*
X94469125Y-111343467D01*
X94569677Y-111367608D01*
X94569683Y-111367609D01*
X94574490Y-111368763D01*
X94825638Y-111388529D01*
X95076786Y-111368763D01*
X95081593Y-111367609D01*
X95081599Y-111367608D01*
X95250797Y-111326987D01*
X95321749Y-111309953D01*
X95326322Y-111308059D01*
X95549923Y-111215441D01*
X95549927Y-111215439D01*
X95554497Y-111213546D01*
X95769297Y-111081916D01*
X95912898Y-110959269D01*
X96310837Y-110561330D01*
X96318090Y-110554625D01*
X96362305Y-110516861D01*
X96377825Y-110498689D01*
X96522702Y-110329061D01*
X96522705Y-110329056D01*
X96525917Y-110325296D01*
X96657547Y-110110496D01*
X96704588Y-109996930D01*
X96752060Y-109882321D01*
X96752061Y-109882319D01*
X96753954Y-109877748D01*
X96795008Y-109706745D01*
X96811609Y-109637598D01*
X96811610Y-109637592D01*
X96812764Y-109632785D01*
X96827581Y-109444519D01*
X96832530Y-109381637D01*
X96827969Y-109323685D01*
X96827581Y-109313799D01*
X96827581Y-108590669D01*
X97148201Y-108590669D01*
X97148571Y-108597490D01*
X97154095Y-108648352D01*
X97157721Y-108663604D01*
X97202876Y-108784054D01*
X97211414Y-108799649D01*
X97287915Y-108901724D01*
X97300476Y-108914285D01*
X97402551Y-108990786D01*
X97418146Y-108999324D01*
X97538594Y-109044478D01*
X97553849Y-109048105D01*
X97604714Y-109053631D01*
X97611528Y-109054000D01*
X98234085Y-109054000D01*
X98249324Y-109049525D01*
X98250529Y-109048135D01*
X98252200Y-109040452D01*
X98252200Y-109035884D01*
X98760200Y-109035884D01*
X98764675Y-109051123D01*
X98766065Y-109052328D01*
X98773748Y-109053999D01*
X99400869Y-109053999D01*
X99407690Y-109053629D01*
X99458552Y-109048105D01*
X99473804Y-109044479D01*
X99594254Y-108999324D01*
X99609849Y-108990786D01*
X99711924Y-108914285D01*
X99724485Y-108901724D01*
X99800986Y-108799649D01*
X99809524Y-108784054D01*
X99854678Y-108663606D01*
X99858305Y-108648351D01*
X99863831Y-108597486D01*
X99864200Y-108590672D01*
X99864200Y-108215192D01*
X99884202Y-108147071D01*
X99937858Y-108100578D01*
X100008132Y-108090474D01*
X100072712Y-108119968D01*
X100102267Y-108157598D01*
X100149322Y-108249157D01*
X100158912Y-108267818D01*
X100286877Y-108429270D01*
X100291570Y-108433264D01*
X100291571Y-108433265D01*
X100365741Y-108496388D01*
X100443764Y-108562791D01*
X100623598Y-108663297D01*
X100718438Y-108694112D01*
X100813671Y-108725056D01*
X100813675Y-108725057D01*
X100819529Y-108726959D01*
X101024094Y-108751351D01*
X101030229Y-108750879D01*
X101030231Y-108750879D01*
X101086239Y-108746569D01*
X101229500Y-108735546D01*
X101235430Y-108733890D01*
X101235432Y-108733890D01*
X101359304Y-108699304D01*
X101427925Y-108680145D01*
X101433414Y-108677372D01*
X101433420Y-108677370D01*
X101606316Y-108590033D01*
X101611810Y-108587258D01*
X101623357Y-108578237D01*
X101739894Y-108487188D01*
X101774151Y-108460424D01*
X101782703Y-108450517D01*
X101904740Y-108309134D01*
X101904740Y-108309133D01*
X101908764Y-108304472D01*
X101926108Y-108273942D01*
X101979360Y-108180201D01*
X102010523Y-108125344D01*
X102031741Y-108061561D01*
X102061023Y-107973536D01*
X102091486Y-107924213D01*
X102323575Y-107692124D01*
X102385887Y-107658098D01*
X102456702Y-107663163D01*
X102513538Y-107705710D01*
X102538228Y-107770675D01*
X102544569Y-107846189D01*
X102547959Y-107886553D01*
X102549658Y-107892478D01*
X102598142Y-108061561D01*
X102604744Y-108084586D01*
X102607559Y-108090063D01*
X102607560Y-108090066D01*
X102694229Y-108258706D01*
X102698912Y-108267818D01*
X102826877Y-108429270D01*
X102831570Y-108433264D01*
X102831571Y-108433265D01*
X102905741Y-108496388D01*
X102983764Y-108562791D01*
X103163598Y-108663297D01*
X103258438Y-108694112D01*
X103353671Y-108725056D01*
X103353675Y-108725057D01*
X103359529Y-108726959D01*
X103564094Y-108751351D01*
X103570229Y-108750879D01*
X103570231Y-108750879D01*
X103626239Y-108746569D01*
X103769500Y-108735546D01*
X103775430Y-108733890D01*
X103775432Y-108733890D01*
X103899304Y-108699304D01*
X103967925Y-108680145D01*
X103973414Y-108677372D01*
X103973420Y-108677370D01*
X104146316Y-108590033D01*
X104151810Y-108587258D01*
X104163357Y-108578237D01*
X104279894Y-108487188D01*
X104314151Y-108460424D01*
X104322703Y-108450517D01*
X104444740Y-108309134D01*
X104444740Y-108309133D01*
X104448764Y-108304472D01*
X104466108Y-108273942D01*
X104519360Y-108180201D01*
X104550523Y-108125344D01*
X104562123Y-108090474D01*
X104574696Y-108052678D01*
X104615178Y-107994354D01*
X104680766Y-107967175D01*
X104750637Y-107979770D01*
X104802606Y-108028141D01*
X104817171Y-108064751D01*
X104824764Y-108098444D01*
X104827845Y-108108275D01*
X104907970Y-108305603D01*
X104912613Y-108314794D01*
X105023894Y-108496388D01*
X105029977Y-108504699D01*
X105169413Y-108665667D01*
X105176780Y-108672883D01*
X105340634Y-108808916D01*
X105349081Y-108814831D01*
X105532956Y-108922279D01*
X105542242Y-108926729D01*
X105741201Y-109002703D01*
X105751099Y-109005579D01*
X105854450Y-109026606D01*
X105868499Y-109025410D01*
X105872200Y-109015065D01*
X105872200Y-106379102D01*
X105868282Y-106365758D01*
X105854006Y-106363771D01*
X105815524Y-106369660D01*
X105805488Y-106372051D01*
X105603068Y-106438212D01*
X105593559Y-106442209D01*
X105404663Y-106540542D01*
X105395938Y-106546036D01*
X105225633Y-106673905D01*
X105217926Y-106680748D01*
X105070790Y-106834717D01*
X105064304Y-106842727D01*
X104944298Y-107018649D01*
X104939200Y-107027623D01*
X104849538Y-107220783D01*
X104845975Y-107230470D01*
X104817212Y-107334185D01*
X104779733Y-107394483D01*
X104715605Y-107424946D01*
X104645186Y-107415903D01*
X104590836Y-107370224D01*
X104575173Y-107336933D01*
X104573563Y-107331601D01*
X104562135Y-107293749D01*
X104465418Y-107111849D01*
X104370004Y-106994860D01*
X104339106Y-106956975D01*
X104339103Y-106956972D01*
X104335211Y-106952200D01*
X104317986Y-106937950D01*
X104181225Y-106824811D01*
X104181221Y-106824809D01*
X104176475Y-106820882D01*
X103995255Y-106722897D01*
X103798454Y-106661977D01*
X103792331Y-106661334D01*
X103792329Y-106661333D01*
X103658737Y-106647292D01*
X103593080Y-106620279D01*
X103552451Y-106562057D01*
X103549748Y-106491112D01*
X103582813Y-106432887D01*
X103602028Y-106413672D01*
X103617055Y-106400837D01*
X103628271Y-106392688D01*
X103632685Y-106387785D01*
X103632688Y-106387783D01*
X103673620Y-106342323D01*
X103678161Y-106337539D01*
X103692520Y-106323180D01*
X103695411Y-106319610D01*
X103705308Y-106307389D01*
X103709588Y-106302379D01*
X103750513Y-106256926D01*
X103750517Y-106256921D01*
X103754933Y-106252016D01*
X103761862Y-106240014D01*
X103773063Y-106223717D01*
X103777626Y-106218082D01*
X103781783Y-106212949D01*
X103792008Y-106192882D01*
X103812551Y-106152566D01*
X103815697Y-106146771D01*
X103846279Y-106093800D01*
X103846279Y-106093799D01*
X103849579Y-106088084D01*
X103853864Y-106074897D01*
X103861427Y-106056640D01*
X103864723Y-106050171D01*
X103864724Y-106050167D01*
X103867720Y-106044288D01*
X103869428Y-106037915D01*
X103885260Y-105978828D01*
X103887134Y-105972502D01*
X103898784Y-105936646D01*
X103908074Y-105908056D01*
X103909522Y-105894277D01*
X103913126Y-105874830D01*
X103916713Y-105861445D01*
X103919482Y-105808600D01*
X103920259Y-105793780D01*
X103920776Y-105787205D01*
X103922556Y-105770266D01*
X103922556Y-105770263D01*
X103922900Y-105766992D01*
X103922900Y-105746673D01*
X103923073Y-105740079D01*
X103926274Y-105679004D01*
X103926274Y-105679000D01*
X103926619Y-105672412D01*
X103924451Y-105658723D01*
X103922900Y-105639013D01*
X103922900Y-103991208D01*
X103910105Y-103869464D01*
X103908764Y-103856707D01*
X103908764Y-103856705D01*
X103908074Y-103850144D01*
X103849579Y-103670116D01*
X103839782Y-103653147D01*
X103822900Y-103590146D01*
X103822900Y-103359566D01*
X103819919Y-103328031D01*
X103775034Y-103200216D01*
X103769442Y-103192646D01*
X103769441Y-103192643D01*
X103700142Y-103098821D01*
X103694550Y-103091250D01*
X103653108Y-103060640D01*
X103593157Y-103016359D01*
X103593154Y-103016358D01*
X103585584Y-103010766D01*
X103457769Y-102965881D01*
X103450123Y-102965158D01*
X103450122Y-102965158D01*
X103444152Y-102964594D01*
X103426234Y-102962900D01*
X102618566Y-102962900D01*
X102600648Y-102964594D01*
X102594678Y-102965158D01*
X102594677Y-102965158D01*
X102587031Y-102965881D01*
X102459216Y-103010766D01*
X102451646Y-103016358D01*
X102451643Y-103016359D01*
X102391692Y-103060640D01*
X102350250Y-103091250D01*
X102344658Y-103098821D01*
X102275359Y-103192643D01*
X102275358Y-103192646D01*
X102269766Y-103200216D01*
X102224881Y-103328031D01*
X102221900Y-103359566D01*
X102221900Y-103590146D01*
X102205018Y-103653147D01*
X102195221Y-103670116D01*
X102136726Y-103850144D01*
X102136036Y-103856705D01*
X102136036Y-103856707D01*
X102134695Y-103869464D01*
X102121900Y-103991208D01*
X102121900Y-105294610D01*
X102101898Y-105362731D01*
X102084995Y-105383705D01*
X100816110Y-106652591D01*
X100762590Y-106684370D01*
X100663700Y-106713475D01*
X100650772Y-106717280D01*
X100645307Y-106720137D01*
X100630175Y-106728048D01*
X100468202Y-106812726D01*
X100463401Y-106816586D01*
X100463398Y-106816588D01*
X100339782Y-106915978D01*
X100307647Y-106941815D01*
X100175224Y-107099630D01*
X100172254Y-107105033D01*
X100172253Y-107105034D01*
X100100614Y-107235345D01*
X100050268Y-107285404D01*
X99980851Y-107300297D01*
X99914402Y-107275296D01*
X99872018Y-107218339D01*
X99864199Y-107174644D01*
X99864199Y-106801331D01*
X99863829Y-106794510D01*
X99858305Y-106743648D01*
X99854679Y-106728396D01*
X99809524Y-106607946D01*
X99800986Y-106592351D01*
X99724485Y-106490276D01*
X99711924Y-106477715D01*
X99609849Y-106401214D01*
X99594254Y-106392676D01*
X99473806Y-106347522D01*
X99458551Y-106343895D01*
X99407686Y-106338369D01*
X99400872Y-106338000D01*
X98778315Y-106338000D01*
X98763076Y-106342475D01*
X98761871Y-106343865D01*
X98760200Y-106351548D01*
X98760200Y-109035884D01*
X98252200Y-109035884D01*
X98252200Y-107968115D01*
X98247725Y-107952876D01*
X98246335Y-107951671D01*
X98238652Y-107950000D01*
X97166316Y-107950000D01*
X97151077Y-107954475D01*
X97149872Y-107955865D01*
X97148201Y-107963548D01*
X97148201Y-108590669D01*
X96827581Y-108590669D01*
X96827581Y-107423885D01*
X97148200Y-107423885D01*
X97152675Y-107439124D01*
X97154065Y-107440329D01*
X97161748Y-107442000D01*
X98234085Y-107442000D01*
X98249324Y-107437525D01*
X98250529Y-107436135D01*
X98252200Y-107428452D01*
X98252200Y-106356116D01*
X98247725Y-106340877D01*
X98246335Y-106339672D01*
X98238652Y-106338001D01*
X97611531Y-106338001D01*
X97604710Y-106338371D01*
X97553848Y-106343895D01*
X97538596Y-106347521D01*
X97418146Y-106392676D01*
X97402551Y-106401214D01*
X97300476Y-106477715D01*
X97287915Y-106490276D01*
X97211414Y-106592351D01*
X97202876Y-106607946D01*
X97157722Y-106728394D01*
X97154095Y-106743649D01*
X97148569Y-106794514D01*
X97148200Y-106801328D01*
X97148200Y-107423885D01*
X96827581Y-107423885D01*
X96827581Y-107108478D01*
X96827969Y-107098592D01*
X96832142Y-107045567D01*
X96832530Y-107040637D01*
X96812765Y-106789489D01*
X96753954Y-106544526D01*
X96746591Y-106526749D01*
X96659442Y-106316352D01*
X96659440Y-106316348D01*
X96657547Y-106311778D01*
X96629137Y-106265417D01*
X96528504Y-106101199D01*
X96528502Y-106101196D01*
X96525917Y-106096978D01*
X96522704Y-106093216D01*
X96522701Y-106093212D01*
X96513026Y-106081885D01*
X96513025Y-106081884D01*
X96499009Y-106065473D01*
X96362305Y-105905413D01*
X96318090Y-105867649D01*
X96310837Y-105860944D01*
X95077005Y-104627112D01*
X95042979Y-104564800D01*
X95040100Y-104538017D01*
X95040100Y-104363232D01*
X97914400Y-104363232D01*
X97914685Y-104369208D01*
X97928871Y-104517894D01*
X97931130Y-104529628D01*
X97987272Y-104720999D01*
X97991702Y-104732075D01*
X98083019Y-104909378D01*
X98089469Y-104919424D01*
X98212662Y-105076257D01*
X98220899Y-105084906D01*
X98371523Y-105215612D01*
X98381247Y-105222547D01*
X98553867Y-105322410D01*
X98564731Y-105327384D01*
X98753127Y-105392807D01*
X98754116Y-105393048D01*
X98764408Y-105391580D01*
X98768400Y-105378015D01*
X98768400Y-104310515D01*
X98763925Y-104295276D01*
X98762535Y-104294071D01*
X98754852Y-104292400D01*
X97932515Y-104292400D01*
X97917276Y-104296875D01*
X97916071Y-104298265D01*
X97914400Y-104305948D01*
X97914400Y-104363232D01*
X95040100Y-104363232D01*
X95040100Y-103766285D01*
X97914400Y-103766285D01*
X97918875Y-103781524D01*
X97920265Y-103782729D01*
X97927948Y-103784400D01*
X98750285Y-103784400D01*
X98765524Y-103779925D01*
X98766729Y-103778535D01*
X98768400Y-103770852D01*
X98768400Y-102702998D01*
X98764427Y-102689467D01*
X98755001Y-102688112D01*
X98665863Y-102709594D01*
X98654568Y-102713483D01*
X98473018Y-102796029D01*
X98462676Y-102801976D01*
X98300003Y-102917368D01*
X98290975Y-102925161D01*
X98153058Y-103069231D01*
X98145662Y-103078596D01*
X98037479Y-103246141D01*
X98031983Y-103256745D01*
X97957439Y-103441712D01*
X97954045Y-103453170D01*
X97915543Y-103650328D01*
X97914466Y-103659191D01*
X97914400Y-103661900D01*
X97914400Y-103766285D01*
X95040100Y-103766285D01*
X95040100Y-99958065D01*
X95484594Y-99958065D01*
X95500192Y-100143814D01*
X95501891Y-100149739D01*
X95548074Y-100310798D01*
X95551571Y-100322995D01*
X95554390Y-100328480D01*
X95614793Y-100446010D01*
X95636776Y-100488785D01*
X95752559Y-100634868D01*
X95894512Y-100755679D01*
X96057227Y-100846617D01*
X96234507Y-100904219D01*
X96419598Y-100926290D01*
X96425733Y-100925818D01*
X96425735Y-100925818D01*
X96599310Y-100912462D01*
X96599315Y-100912461D01*
X96605451Y-100911989D01*
X96611381Y-100910333D01*
X96611383Y-100910333D01*
X96779059Y-100863517D01*
X96779058Y-100863517D01*
X96784987Y-100861862D01*
X96951368Y-100777817D01*
X96956665Y-100773679D01*
X97093394Y-100666854D01*
X97093395Y-100666853D01*
X97098255Y-100663056D01*
X97204734Y-100539699D01*
X97216030Y-100526612D01*
X97216031Y-100526611D01*
X97220054Y-100521950D01*
X97312126Y-100359874D01*
X97370964Y-100183001D01*
X97382865Y-100088800D01*
X97393885Y-100001570D01*
X97393886Y-100001563D01*
X97394327Y-99998068D01*
X97394699Y-99971400D01*
X97393391Y-99958065D01*
X98484594Y-99958065D01*
X98500192Y-100143814D01*
X98501891Y-100149739D01*
X98548074Y-100310798D01*
X98551571Y-100322995D01*
X98554390Y-100328480D01*
X98614793Y-100446010D01*
X98636776Y-100488785D01*
X98752559Y-100634868D01*
X98894512Y-100755679D01*
X99057227Y-100846617D01*
X99234507Y-100904219D01*
X99419598Y-100926290D01*
X99425733Y-100925818D01*
X99425735Y-100925818D01*
X99599310Y-100912462D01*
X99599315Y-100912461D01*
X99605451Y-100911989D01*
X99611381Y-100910333D01*
X99611383Y-100910333D01*
X99779059Y-100863517D01*
X99779058Y-100863517D01*
X99784987Y-100861862D01*
X99951368Y-100777817D01*
X99956665Y-100773679D01*
X100093394Y-100666854D01*
X100093395Y-100666853D01*
X100098255Y-100663056D01*
X100204734Y-100539699D01*
X100216030Y-100526612D01*
X100216031Y-100526611D01*
X100220054Y-100521950D01*
X100312126Y-100359874D01*
X100370964Y-100183001D01*
X100382865Y-100088800D01*
X100393885Y-100001570D01*
X100393886Y-100001563D01*
X100394327Y-99998068D01*
X100394699Y-99971400D01*
X100376509Y-99785887D01*
X100374728Y-99779988D01*
X100374727Y-99779983D01*
X100324414Y-99613339D01*
X100322633Y-99607440D01*
X100252367Y-99475289D01*
X100238016Y-99448298D01*
X100238014Y-99448295D01*
X100235122Y-99442856D01*
X100231232Y-99438086D01*
X100231229Y-99438082D01*
X100121205Y-99303180D01*
X100121202Y-99303177D01*
X100117310Y-99298405D01*
X100111656Y-99293727D01*
X100012661Y-99211831D01*
X99973685Y-99179587D01*
X99809716Y-99090929D01*
X99698928Y-99056635D01*
X99637536Y-99037631D01*
X99637533Y-99037630D01*
X99631649Y-99035809D01*
X99625524Y-99035165D01*
X99625523Y-99035165D01*
X99452396Y-99016968D01*
X99452395Y-99016968D01*
X99446268Y-99016324D01*
X99368149Y-99023433D01*
X99266771Y-99032659D01*
X99266768Y-99032660D01*
X99260632Y-99033218D01*
X99254722Y-99034957D01*
X99254719Y-99034958D01*
X99119959Y-99074621D01*
X99081814Y-99085848D01*
X98916623Y-99172207D01*
X98771352Y-99289008D01*
X98651535Y-99431801D01*
X98648571Y-99437193D01*
X98648568Y-99437197D01*
X98587199Y-99548828D01*
X98561735Y-99595146D01*
X98559874Y-99601013D01*
X98559873Y-99601015D01*
X98525211Y-99710283D01*
X98505372Y-99772824D01*
X98484594Y-99958065D01*
X97393391Y-99958065D01*
X97376509Y-99785887D01*
X97374728Y-99779988D01*
X97374727Y-99779983D01*
X97324414Y-99613339D01*
X97322633Y-99607440D01*
X97252367Y-99475289D01*
X97238016Y-99448298D01*
X97238014Y-99448295D01*
X97235122Y-99442856D01*
X97231232Y-99438086D01*
X97231229Y-99438082D01*
X97121205Y-99303180D01*
X97121202Y-99303177D01*
X97117310Y-99298405D01*
X97111656Y-99293727D01*
X97012661Y-99211831D01*
X96973685Y-99179587D01*
X96809716Y-99090929D01*
X96698928Y-99056635D01*
X96637536Y-99037631D01*
X96637533Y-99037630D01*
X96631649Y-99035809D01*
X96625524Y-99035165D01*
X96625523Y-99035165D01*
X96452396Y-99016968D01*
X96452395Y-99016968D01*
X96446268Y-99016324D01*
X96368149Y-99023433D01*
X96266771Y-99032659D01*
X96266768Y-99032660D01*
X96260632Y-99033218D01*
X96254722Y-99034957D01*
X96254719Y-99034958D01*
X96119959Y-99074621D01*
X96081814Y-99085848D01*
X95916623Y-99172207D01*
X95771352Y-99289008D01*
X95651535Y-99431801D01*
X95648571Y-99437193D01*
X95648568Y-99437197D01*
X95587199Y-99548828D01*
X95561735Y-99595146D01*
X95559874Y-99601013D01*
X95559873Y-99601015D01*
X95525211Y-99710283D01*
X95505372Y-99772824D01*
X95484594Y-99958065D01*
X95040100Y-99958065D01*
X95040100Y-99908518D01*
X95039567Y-99901735D01*
X95029860Y-99778404D01*
X95025283Y-99720252D01*
X95010171Y-99657303D01*
X94967628Y-99480101D01*
X94966473Y-99475289D01*
X94953039Y-99442856D01*
X94871961Y-99247115D01*
X94871959Y-99247111D01*
X94870066Y-99242541D01*
X94738436Y-99027741D01*
X94735224Y-99023981D01*
X94735221Y-99023976D01*
X94578037Y-98839938D01*
X94574824Y-98836176D01*
X94525664Y-98794189D01*
X94486856Y-98734740D01*
X94486350Y-98663746D01*
X94524306Y-98603747D01*
X94588674Y-98573794D01*
X94607496Y-98572380D01*
X101144410Y-98572380D01*
X101155392Y-98572860D01*
X101181940Y-98575183D01*
X101181942Y-98575183D01*
X101192927Y-98576144D01*
X101229335Y-98566388D01*
X101240062Y-98564010D01*
X101243421Y-98563418D01*
X101277165Y-98557468D01*
X101286710Y-98551957D01*
X101289986Y-98550765D01*
X101293154Y-98549288D01*
X101303804Y-98546434D01*
X101334664Y-98524825D01*
X101343935Y-98518919D01*
X101367026Y-98505587D01*
X101376575Y-98500074D01*
X101400805Y-98471197D01*
X101408231Y-98463095D01*
X101978086Y-97893240D01*
X102040398Y-97859214D01*
X102106115Y-97862502D01*
G37*
%TD.AperFunction*%
%TA.AperFunction,Conductor*%
G36*
X100508925Y-81306338D02*
G01*
X100938624Y-81324232D01*
X101330494Y-81340551D01*
X101336383Y-81340935D01*
X102155406Y-81413577D01*
X102161270Y-81414236D01*
X102687432Y-81485865D01*
X102975985Y-81525147D01*
X102981796Y-81526077D01*
X103665858Y-81652072D01*
X103790473Y-81675024D01*
X103796250Y-81676229D01*
X104597029Y-81862871D01*
X104602743Y-81864345D01*
X105393899Y-82088276D01*
X105399539Y-82090016D01*
X106179353Y-82350751D01*
X106184904Y-82352753D01*
X106343731Y-82414267D01*
X106951642Y-82649712D01*
X106957070Y-82651961D01*
X107523539Y-82902457D01*
X107709104Y-82984515D01*
X107714444Y-82987028D01*
X108450063Y-83354423D01*
X108455229Y-83357155D01*
X109172854Y-83758601D01*
X109177904Y-83761583D01*
X109765765Y-84127591D01*
X109875950Y-84196193D01*
X109880885Y-84199429D01*
X110557762Y-84666213D01*
X110562541Y-84669676D01*
X111216855Y-85167670D01*
X111221458Y-85171347D01*
X111851747Y-85699442D01*
X111856129Y-85703291D01*
X112461005Y-86260326D01*
X112465219Y-86264392D01*
X112607630Y-86408433D01*
X113043332Y-86849123D01*
X113047382Y-86853416D01*
X113597462Y-87464553D01*
X113601306Y-87469030D01*
X114122179Y-88105269D01*
X114125809Y-88109922D01*
X114371758Y-88440821D01*
X114545174Y-88674133D01*
X114616303Y-88769830D01*
X114619706Y-88774640D01*
X115072174Y-89447004D01*
X115076088Y-89462034D01*
X115080190Y-89465404D01*
X115381230Y-89909494D01*
X115382247Y-89910834D01*
X115382253Y-89910842D01*
X115695002Y-90322813D01*
X115708687Y-90340840D01*
X115709793Y-90342145D01*
X115709800Y-90342154D01*
X115895331Y-90561114D01*
X116058786Y-90754020D01*
X116059957Y-90755261D01*
X116059969Y-90755274D01*
X116371680Y-91085510D01*
X116430520Y-91147847D01*
X116822822Y-91521192D01*
X117234565Y-91872980D01*
X117235899Y-91874002D01*
X117235906Y-91874007D01*
X117663223Y-92201174D01*
X117663234Y-92201182D01*
X117664565Y-92202201D01*
X118107422Y-92505060D01*
X118110772Y-92509173D01*
X118125447Y-92513059D01*
X118137258Y-92521168D01*
X118143403Y-92523977D01*
X123790250Y-96143655D01*
X123804529Y-96152808D01*
X123814951Y-96165601D01*
X123828870Y-96169287D01*
X123828942Y-96169370D01*
X123828980Y-96169316D01*
X124074577Y-96344983D01*
X124085353Y-96352691D01*
X124094803Y-96360159D01*
X124338347Y-96572328D01*
X124347045Y-96580671D01*
X124401183Y-96637817D01*
X124535867Y-96779983D01*
X124569177Y-96815144D01*
X124577039Y-96824282D01*
X124622103Y-96882033D01*
X124775728Y-97078911D01*
X124782684Y-97088764D01*
X124956125Y-97361235D01*
X124962108Y-97371708D01*
X125021741Y-97488785D01*
X125108130Y-97658390D01*
X125108699Y-97659508D01*
X125113650Y-97670501D01*
X125204990Y-97902315D01*
X125232049Y-97970990D01*
X125235928Y-97982410D01*
X125325060Y-98292863D01*
X125327829Y-98304596D01*
X125338518Y-98362089D01*
X125386863Y-98622130D01*
X125388498Y-98634079D01*
X125416905Y-98955819D01*
X125417389Y-98967871D01*
X125416376Y-99099410D01*
X125415751Y-99180696D01*
X125415070Y-99269093D01*
X125414929Y-99270031D01*
X125414983Y-99272335D01*
X125415014Y-99276272D01*
X125414962Y-99283056D01*
X125409718Y-99296588D01*
X125410824Y-99300770D01*
X125409585Y-99304914D01*
X125414630Y-99319279D01*
X125414237Y-99326351D01*
X125414959Y-99331725D01*
X125421359Y-100080607D01*
X125421401Y-100085542D01*
X125421377Y-100089311D01*
X125404664Y-100861862D01*
X125404529Y-100868112D01*
X125404389Y-100871898D01*
X125368511Y-101563860D01*
X125364057Y-101649752D01*
X125363804Y-101653532D01*
X125340731Y-101934349D01*
X125300017Y-102429860D01*
X125299648Y-102433644D01*
X125212476Y-103207626D01*
X125211994Y-103211397D01*
X125129323Y-103788318D01*
X125103383Y-103969341D01*
X125102700Y-103969243D01*
X125102766Y-103970551D01*
X125096154Y-103983517D01*
X125098525Y-103998520D01*
X125095378Y-104015249D01*
X125095297Y-104019338D01*
X123867165Y-111266130D01*
X123859864Y-111278879D01*
X123861027Y-111289584D01*
X123860086Y-111291341D01*
X123861257Y-111291703D01*
X123818577Y-111429608D01*
X123816675Y-111435752D01*
X123807572Y-111457629D01*
X123736608Y-111591160D01*
X123723570Y-111610945D01*
X123628868Y-111728821D01*
X123612356Y-111745817D01*
X123497251Y-111843884D01*
X123477849Y-111857487D01*
X123346417Y-111932270D01*
X123324813Y-111941999D01*
X123181709Y-111990850D01*
X123158670Y-111996361D01*
X123008944Y-112017557D01*
X122985283Y-112018658D01*
X122834659Y-112011466D01*
X122834658Y-112011466D01*
X122834702Y-112010539D01*
X122833149Y-112010725D01*
X122823076Y-112005784D01*
X122807908Y-112008423D01*
X117259327Y-111076760D01*
X117195459Y-111045754D01*
X117158493Y-110985141D01*
X117160166Y-110914164D01*
X117199946Y-110855358D01*
X117265203Y-110827395D01*
X117280192Y-110826500D01*
X117809042Y-110826500D01*
X117825489Y-110827578D01*
X117856000Y-110831595D01*
X117894699Y-110826500D01*
X117894704Y-110826500D01*
X118001963Y-110812379D01*
X118010151Y-110811301D01*
X118058321Y-110791348D01*
X118111722Y-110769228D01*
X118111724Y-110769227D01*
X118146167Y-110754961D01*
X118146169Y-110754960D01*
X118153798Y-110751800D01*
X118246181Y-110680912D01*
X118246183Y-110680910D01*
X118277149Y-110657149D01*
X118295889Y-110632727D01*
X118306756Y-110620337D01*
X119002338Y-109924755D01*
X119014729Y-109913887D01*
X119032598Y-109900176D01*
X119032599Y-109900175D01*
X119039149Y-109895149D01*
X119044175Y-109888599D01*
X119044178Y-109888596D01*
X119072680Y-109851451D01*
X119128773Y-109778351D01*
X119128774Y-109778349D01*
X119133801Y-109771798D01*
X119140790Y-109754926D01*
X119160746Y-109706745D01*
X119175884Y-109670198D01*
X119175885Y-109670197D01*
X119175885Y-109670196D01*
X119190140Y-109635782D01*
X119193301Y-109628151D01*
X119208500Y-109512701D01*
X119208500Y-109512699D01*
X119213595Y-109474000D01*
X119209578Y-109443487D01*
X119208500Y-109427041D01*
X119208500Y-107742951D01*
X119209578Y-107726505D01*
X119211047Y-107715347D01*
X119213594Y-107696000D01*
X119208500Y-107657306D01*
X119208500Y-107657299D01*
X119194379Y-107550035D01*
X119194378Y-107550033D01*
X119193301Y-107541849D01*
X119151942Y-107442000D01*
X119137346Y-107406763D01*
X119137345Y-107406762D01*
X119133800Y-107398203D01*
X119133800Y-107398202D01*
X119062912Y-107305819D01*
X119062910Y-107305817D01*
X119062908Y-107305814D01*
X119044179Y-107281405D01*
X119044175Y-107281401D01*
X119039149Y-107274851D01*
X119032599Y-107269825D01*
X119032596Y-107269822D01*
X119014732Y-107256115D01*
X119002341Y-107245248D01*
X118115300Y-106358207D01*
X118081274Y-106295895D01*
X118080309Y-106247236D01*
X118103897Y-106113460D01*
X118105224Y-106096978D01*
X118105822Y-106089541D01*
X118105822Y-106089540D01*
X118106438Y-106081885D01*
X118098852Y-106035814D01*
X118085960Y-105957509D01*
X118085959Y-105957506D01*
X118084430Y-105948219D01*
X118024090Y-105826932D01*
X117945072Y-105743809D01*
X117937245Y-105735575D01*
X117930756Y-105728749D01*
X117812678Y-105662352D01*
X117782139Y-105653940D01*
X116445096Y-105418184D01*
X116426776Y-105416710D01*
X116421178Y-105416259D01*
X116421177Y-105416259D01*
X116413522Y-105415643D01*
X116340167Y-105427721D01*
X116289153Y-105436120D01*
X116289152Y-105436120D01*
X116279855Y-105437651D01*
X116158569Y-105497991D01*
X116151744Y-105504479D01*
X116082671Y-105570141D01*
X116060386Y-105591325D01*
X116055769Y-105599536D01*
X116055768Y-105599537D01*
X116033570Y-105639013D01*
X115993988Y-105709403D01*
X115985576Y-105739942D01*
X115871345Y-106387783D01*
X115866133Y-106417343D01*
X115834606Y-106480956D01*
X115773692Y-106517425D01*
X115702731Y-106515173D01*
X115652952Y-106484559D01*
X115108455Y-105940062D01*
X115097587Y-105927671D01*
X115083872Y-105909797D01*
X115078849Y-105903251D01*
X115072065Y-105898045D01*
X115047883Y-105879490D01*
X115047881Y-105879488D01*
X115002044Y-105844316D01*
X114955498Y-105808600D01*
X114906335Y-105788236D01*
X114811851Y-105749099D01*
X114803663Y-105748021D01*
X114696404Y-105733900D01*
X114696399Y-105733900D01*
X114657700Y-105728805D01*
X114649512Y-105729883D01*
X114627187Y-105732822D01*
X114610741Y-105733900D01*
X112089383Y-105733900D01*
X112021262Y-105713898D01*
X112000288Y-105696995D01*
X106427547Y-100124254D01*
X106393521Y-100061942D01*
X106391636Y-100019368D01*
X106394327Y-99998068D01*
X106394699Y-99971400D01*
X106393391Y-99958065D01*
X107484594Y-99958065D01*
X107500192Y-100143814D01*
X107501891Y-100149739D01*
X107548074Y-100310798D01*
X107551571Y-100322995D01*
X107554390Y-100328480D01*
X107614793Y-100446010D01*
X107636776Y-100488785D01*
X107752559Y-100634868D01*
X107894512Y-100755679D01*
X108057227Y-100846617D01*
X108234507Y-100904219D01*
X108419598Y-100926290D01*
X108425733Y-100925818D01*
X108425735Y-100925818D01*
X108599310Y-100912462D01*
X108599315Y-100912461D01*
X108605451Y-100911989D01*
X108611381Y-100910333D01*
X108611383Y-100910333D01*
X108779059Y-100863517D01*
X108779058Y-100863517D01*
X108784987Y-100861862D01*
X108951368Y-100777817D01*
X108956665Y-100773679D01*
X109093394Y-100666854D01*
X109093395Y-100666853D01*
X109098255Y-100663056D01*
X109204734Y-100539699D01*
X109216030Y-100526612D01*
X109216031Y-100526611D01*
X109220054Y-100521950D01*
X109312126Y-100359874D01*
X109370964Y-100183001D01*
X109382865Y-100088800D01*
X109393885Y-100001570D01*
X109393886Y-100001563D01*
X109394327Y-99998068D01*
X109394699Y-99971400D01*
X109393391Y-99958065D01*
X110484594Y-99958065D01*
X110500192Y-100143814D01*
X110501891Y-100149739D01*
X110548074Y-100310798D01*
X110551571Y-100322995D01*
X110554390Y-100328480D01*
X110614793Y-100446010D01*
X110636776Y-100488785D01*
X110752559Y-100634868D01*
X110894512Y-100755679D01*
X111057227Y-100846617D01*
X111234507Y-100904219D01*
X111419598Y-100926290D01*
X111425733Y-100925818D01*
X111425735Y-100925818D01*
X111599310Y-100912462D01*
X111599315Y-100912461D01*
X111605451Y-100911989D01*
X111611381Y-100910333D01*
X111611383Y-100910333D01*
X111779059Y-100863517D01*
X111779058Y-100863517D01*
X111784987Y-100861862D01*
X111951368Y-100777817D01*
X111956665Y-100773679D01*
X112093394Y-100666854D01*
X112093395Y-100666853D01*
X112098255Y-100663056D01*
X112204734Y-100539699D01*
X112216030Y-100526612D01*
X112216031Y-100526611D01*
X112220054Y-100521950D01*
X112312126Y-100359874D01*
X112370964Y-100183001D01*
X112382865Y-100088800D01*
X112393885Y-100001570D01*
X112393886Y-100001563D01*
X112394327Y-99998068D01*
X112394699Y-99971400D01*
X112376509Y-99785887D01*
X112374728Y-99779988D01*
X112374727Y-99779983D01*
X112324414Y-99613339D01*
X112322633Y-99607440D01*
X112252367Y-99475289D01*
X112238016Y-99448298D01*
X112238014Y-99448295D01*
X112235122Y-99442856D01*
X112231232Y-99438086D01*
X112231229Y-99438082D01*
X112121205Y-99303180D01*
X112121202Y-99303177D01*
X112117310Y-99298405D01*
X112111656Y-99293727D01*
X112012661Y-99211831D01*
X111973685Y-99179587D01*
X111809716Y-99090929D01*
X111698928Y-99056635D01*
X111637536Y-99037631D01*
X111637533Y-99037630D01*
X111631649Y-99035809D01*
X111625524Y-99035165D01*
X111625523Y-99035165D01*
X111452396Y-99016968D01*
X111452395Y-99016968D01*
X111446268Y-99016324D01*
X111368149Y-99023433D01*
X111266771Y-99032659D01*
X111266768Y-99032660D01*
X111260632Y-99033218D01*
X111254722Y-99034957D01*
X111254719Y-99034958D01*
X111119959Y-99074621D01*
X111081814Y-99085848D01*
X110916623Y-99172207D01*
X110771352Y-99289008D01*
X110651535Y-99431801D01*
X110648571Y-99437193D01*
X110648568Y-99437197D01*
X110587199Y-99548828D01*
X110561735Y-99595146D01*
X110559874Y-99601013D01*
X110559873Y-99601015D01*
X110525211Y-99710283D01*
X110505372Y-99772824D01*
X110484594Y-99958065D01*
X109393391Y-99958065D01*
X109376509Y-99785887D01*
X109374728Y-99779988D01*
X109374727Y-99779983D01*
X109324414Y-99613339D01*
X109322633Y-99607440D01*
X109252367Y-99475289D01*
X109238016Y-99448298D01*
X109238014Y-99448295D01*
X109235122Y-99442856D01*
X109231232Y-99438086D01*
X109231229Y-99438082D01*
X109121205Y-99303180D01*
X109121202Y-99303177D01*
X109117310Y-99298405D01*
X109111656Y-99293727D01*
X109012661Y-99211831D01*
X108973685Y-99179587D01*
X108809716Y-99090929D01*
X108698928Y-99056635D01*
X108637536Y-99037631D01*
X108637533Y-99037630D01*
X108631649Y-99035809D01*
X108625524Y-99035165D01*
X108625523Y-99035165D01*
X108452396Y-99016968D01*
X108452395Y-99016968D01*
X108446268Y-99016324D01*
X108368149Y-99023433D01*
X108266771Y-99032659D01*
X108266768Y-99032660D01*
X108260632Y-99033218D01*
X108254722Y-99034957D01*
X108254719Y-99034958D01*
X108119959Y-99074621D01*
X108081814Y-99085848D01*
X107916623Y-99172207D01*
X107771352Y-99289008D01*
X107651535Y-99431801D01*
X107648571Y-99437193D01*
X107648568Y-99437197D01*
X107587199Y-99548828D01*
X107561735Y-99595146D01*
X107559874Y-99601013D01*
X107559873Y-99601015D01*
X107525211Y-99710283D01*
X107505372Y-99772824D01*
X107484594Y-99958065D01*
X106393391Y-99958065D01*
X106376509Y-99785887D01*
X106374728Y-99779988D01*
X106374727Y-99779983D01*
X106324414Y-99613339D01*
X106322633Y-99607440D01*
X106252367Y-99475289D01*
X106238016Y-99448298D01*
X106238014Y-99448295D01*
X106235122Y-99442856D01*
X106231232Y-99438086D01*
X106231229Y-99438082D01*
X106121205Y-99303180D01*
X106121202Y-99303177D01*
X106117310Y-99298405D01*
X106111656Y-99293727D01*
X106012661Y-99211831D01*
X105973685Y-99179587D01*
X105809716Y-99090929D01*
X105698928Y-99056635D01*
X105637536Y-99037631D01*
X105637533Y-99037630D01*
X105631649Y-99035809D01*
X105625524Y-99035165D01*
X105625523Y-99035165D01*
X105452396Y-99016968D01*
X105452395Y-99016968D01*
X105446268Y-99016324D01*
X105368149Y-99023433D01*
X105266771Y-99032659D01*
X105266768Y-99032660D01*
X105260632Y-99033218D01*
X105254722Y-99034957D01*
X105254719Y-99034958D01*
X105119959Y-99074621D01*
X105081814Y-99085848D01*
X104916623Y-99172207D01*
X104771352Y-99289008D01*
X104651535Y-99431801D01*
X104648571Y-99437193D01*
X104648568Y-99437197D01*
X104587199Y-99548828D01*
X104561735Y-99595146D01*
X104559874Y-99601013D01*
X104559873Y-99601015D01*
X104508402Y-99763272D01*
X104468738Y-99822156D01*
X104403536Y-99850248D01*
X104333497Y-99838630D01*
X104280857Y-99790991D01*
X104262300Y-99725173D01*
X104262300Y-98488310D01*
X104262780Y-98477328D01*
X104265103Y-98450780D01*
X104265103Y-98450778D01*
X104266064Y-98439793D01*
X104256308Y-98403385D01*
X104253930Y-98392658D01*
X104250684Y-98374249D01*
X104247388Y-98355555D01*
X104241877Y-98346010D01*
X104240685Y-98342734D01*
X104239208Y-98339566D01*
X104236354Y-98328916D01*
X104214745Y-98298056D01*
X104208839Y-98288785D01*
X104195507Y-98265694D01*
X104189994Y-98256145D01*
X104161117Y-98231915D01*
X104153015Y-98224489D01*
X103950087Y-98021561D01*
X110753993Y-98021561D01*
X110763287Y-98033575D01*
X110803688Y-98061864D01*
X110813184Y-98067347D01*
X111002713Y-98155726D01*
X111013005Y-98159472D01*
X111215001Y-98213596D01*
X111225796Y-98215499D01*
X111434125Y-98233726D01*
X111445075Y-98233726D01*
X111653404Y-98215499D01*
X111664199Y-98213596D01*
X111866195Y-98159472D01*
X111876487Y-98155726D01*
X112066016Y-98067347D01*
X112075512Y-98061864D01*
X112116748Y-98032990D01*
X112125123Y-98022512D01*
X112118057Y-98009068D01*
X111452411Y-97343421D01*
X111438468Y-97335808D01*
X111436634Y-97335939D01*
X111430020Y-97340190D01*
X110760420Y-98009791D01*
X110753993Y-98021561D01*
X103950087Y-98021561D01*
X103361230Y-97432704D01*
X103327204Y-97370392D01*
X103330767Y-97303837D01*
X103332709Y-97298000D01*
X103370964Y-97183001D01*
X103389055Y-97039799D01*
X103393885Y-97001570D01*
X103393886Y-97001563D01*
X103394327Y-96998068D01*
X103394699Y-96971400D01*
X103393391Y-96958065D01*
X104484594Y-96958065D01*
X104485110Y-96964209D01*
X104498702Y-97126065D01*
X104500192Y-97143814D01*
X104501891Y-97149739D01*
X104548074Y-97310799D01*
X104551571Y-97322995D01*
X104636776Y-97488785D01*
X104752559Y-97634868D01*
X104757252Y-97638862D01*
X104757253Y-97638863D01*
X104768634Y-97648549D01*
X104894512Y-97755679D01*
X104899890Y-97758685D01*
X104899892Y-97758686D01*
X104927331Y-97774021D01*
X105057227Y-97846617D01*
X105234507Y-97904219D01*
X105419598Y-97926290D01*
X105425733Y-97925818D01*
X105425735Y-97925818D01*
X105599310Y-97912462D01*
X105599315Y-97912461D01*
X105605451Y-97911989D01*
X105611381Y-97910333D01*
X105611383Y-97910333D01*
X105779059Y-97863517D01*
X105779058Y-97863517D01*
X105784987Y-97861862D01*
X105951368Y-97777817D01*
X105975699Y-97758808D01*
X106093394Y-97666854D01*
X106093395Y-97666853D01*
X106098255Y-97663056D01*
X106220054Y-97521950D01*
X106251179Y-97467161D01*
X106268947Y-97435882D01*
X106312126Y-97359874D01*
X106370964Y-97183001D01*
X106389055Y-97039799D01*
X106393885Y-97001570D01*
X106393886Y-97001563D01*
X106394327Y-96998068D01*
X106394699Y-96971400D01*
X106393391Y-96958065D01*
X107484594Y-96958065D01*
X107485110Y-96964209D01*
X107498702Y-97126065D01*
X107500192Y-97143814D01*
X107501891Y-97149739D01*
X107548074Y-97310799D01*
X107551571Y-97322995D01*
X107636776Y-97488785D01*
X107752559Y-97634868D01*
X107757252Y-97638862D01*
X107757253Y-97638863D01*
X107768634Y-97648549D01*
X107894512Y-97755679D01*
X107899890Y-97758685D01*
X107899892Y-97758686D01*
X107927331Y-97774021D01*
X108057227Y-97846617D01*
X108234507Y-97904219D01*
X108419598Y-97926290D01*
X108425733Y-97925818D01*
X108425735Y-97925818D01*
X108599310Y-97912462D01*
X108599315Y-97912461D01*
X108605451Y-97911989D01*
X108611381Y-97910333D01*
X108611383Y-97910333D01*
X108779059Y-97863517D01*
X108779058Y-97863517D01*
X108784987Y-97861862D01*
X108951368Y-97777817D01*
X108975699Y-97758808D01*
X109093394Y-97666854D01*
X109093395Y-97666853D01*
X109098255Y-97663056D01*
X109220054Y-97521950D01*
X109251179Y-97467161D01*
X109268947Y-97435882D01*
X109312126Y-97359874D01*
X109370964Y-97183001D01*
X109389055Y-97039799D01*
X109393885Y-97001570D01*
X109393886Y-97001563D01*
X109394327Y-96998068D01*
X109394623Y-96976875D01*
X110177274Y-96976875D01*
X110195501Y-97185204D01*
X110197404Y-97195999D01*
X110251528Y-97397995D01*
X110255274Y-97408287D01*
X110343654Y-97597817D01*
X110349134Y-97607307D01*
X110378011Y-97648549D01*
X110388487Y-97656923D01*
X110401934Y-97649855D01*
X111067579Y-96984211D01*
X111073956Y-96972532D01*
X111804008Y-96972532D01*
X111804139Y-96974366D01*
X111808390Y-96980980D01*
X112477991Y-97650580D01*
X112489761Y-97657007D01*
X112501776Y-97647711D01*
X112530066Y-97607307D01*
X112535546Y-97597817D01*
X112623926Y-97408287D01*
X112627672Y-97397995D01*
X112681796Y-97195999D01*
X112683699Y-97185204D01*
X112701926Y-96976875D01*
X112701926Y-96965925D01*
X112683699Y-96757596D01*
X112681796Y-96746801D01*
X112627672Y-96544805D01*
X112623926Y-96534513D01*
X112535546Y-96344983D01*
X112530066Y-96335493D01*
X112501189Y-96294251D01*
X112490713Y-96285877D01*
X112477266Y-96292945D01*
X111811621Y-96958589D01*
X111804008Y-96972532D01*
X111073956Y-96972532D01*
X111075192Y-96970268D01*
X111075061Y-96968434D01*
X111070810Y-96961820D01*
X110401209Y-96292220D01*
X110389439Y-96285793D01*
X110377424Y-96295089D01*
X110349134Y-96335493D01*
X110343654Y-96344983D01*
X110255274Y-96534513D01*
X110251528Y-96544805D01*
X110197404Y-96746801D01*
X110195501Y-96757596D01*
X110177274Y-96965925D01*
X110177274Y-96976875D01*
X109394623Y-96976875D01*
X109394699Y-96971400D01*
X109376509Y-96785887D01*
X109374728Y-96779988D01*
X109374727Y-96779983D01*
X109324414Y-96613339D01*
X109322633Y-96607440D01*
X109235122Y-96442856D01*
X109231232Y-96438086D01*
X109231229Y-96438082D01*
X109121205Y-96303180D01*
X109121202Y-96303177D01*
X109117310Y-96298405D01*
X109111656Y-96293727D01*
X108978434Y-96183516D01*
X108973685Y-96179587D01*
X108809716Y-96090929D01*
X108720259Y-96063238D01*
X108637536Y-96037631D01*
X108637533Y-96037630D01*
X108631649Y-96035809D01*
X108625524Y-96035165D01*
X108625523Y-96035165D01*
X108452396Y-96016968D01*
X108452395Y-96016968D01*
X108446268Y-96016324D01*
X108371174Y-96023158D01*
X108266771Y-96032659D01*
X108266768Y-96032660D01*
X108260632Y-96033218D01*
X108254722Y-96034957D01*
X108254719Y-96034958D01*
X108127308Y-96072458D01*
X108081814Y-96085848D01*
X107916623Y-96172207D01*
X107771352Y-96289008D01*
X107651535Y-96431801D01*
X107648571Y-96437193D01*
X107648568Y-96437197D01*
X107589410Y-96544805D01*
X107561735Y-96595146D01*
X107559874Y-96601013D01*
X107559873Y-96601015D01*
X107518892Y-96730203D01*
X107505372Y-96772824D01*
X107484594Y-96958065D01*
X106393391Y-96958065D01*
X106376509Y-96785887D01*
X106374728Y-96779988D01*
X106374727Y-96779983D01*
X106324414Y-96613339D01*
X106322633Y-96607440D01*
X106235122Y-96442856D01*
X106231232Y-96438086D01*
X106231229Y-96438082D01*
X106121205Y-96303180D01*
X106121202Y-96303177D01*
X106117310Y-96298405D01*
X106085784Y-96272324D01*
X106075784Y-96264051D01*
X106036046Y-96205217D01*
X106030100Y-96166967D01*
X106030100Y-96025183D01*
X106050102Y-95957062D01*
X106067005Y-95936088D01*
X106379688Y-95623405D01*
X106442000Y-95589379D01*
X106468783Y-95586500D01*
X110864497Y-95586500D01*
X110932618Y-95606502D01*
X110979111Y-95660158D01*
X110989215Y-95730432D01*
X110959721Y-95795012D01*
X110917747Y-95826695D01*
X110813183Y-95875454D01*
X110803693Y-95880934D01*
X110762451Y-95909811D01*
X110754077Y-95920287D01*
X110761145Y-95933734D01*
X111426789Y-96599379D01*
X111440732Y-96606992D01*
X111442566Y-96606861D01*
X111449180Y-96602610D01*
X112118780Y-95933009D01*
X112125207Y-95921239D01*
X112115913Y-95909225D01*
X112075512Y-95880936D01*
X112066016Y-95875453D01*
X111961454Y-95826695D01*
X111908169Y-95779777D01*
X111888708Y-95711500D01*
X111909250Y-95643540D01*
X111963273Y-95597475D01*
X112014704Y-95586500D01*
X113495217Y-95586500D01*
X113563338Y-95606502D01*
X113584312Y-95623405D01*
X115196595Y-97235688D01*
X115230621Y-97298000D01*
X115233500Y-97324783D01*
X115233500Y-102061042D01*
X115232422Y-102077489D01*
X115228405Y-102108000D01*
X115233500Y-102146699D01*
X115233500Y-102146701D01*
X115248699Y-102262151D01*
X115290773Y-102363724D01*
X115308200Y-102405798D01*
X115328104Y-102431737D01*
X115402851Y-102529149D01*
X115409401Y-102534175D01*
X115409404Y-102534178D01*
X115427268Y-102547885D01*
X115439659Y-102558752D01*
X119514595Y-106633688D01*
X119548621Y-106696000D01*
X119551500Y-106722783D01*
X119551500Y-108665042D01*
X119550422Y-108681489D01*
X119546405Y-108712000D01*
X119547483Y-108720188D01*
X119551500Y-108750699D01*
X119551500Y-108750701D01*
X119562889Y-108837207D01*
X119566699Y-108866151D01*
X119599326Y-108944918D01*
X119626200Y-109009798D01*
X119697088Y-109102181D01*
X119720851Y-109133149D01*
X119727401Y-109138175D01*
X119727404Y-109138178D01*
X119745268Y-109151885D01*
X119757659Y-109162752D01*
X120289261Y-109694354D01*
X120300128Y-109706744D01*
X120306803Y-109715443D01*
X120310453Y-109720199D01*
X120318867Y-109731165D01*
X120349833Y-109754926D01*
X120349835Y-109754928D01*
X120442218Y-109825816D01*
X120449846Y-109828976D01*
X120449852Y-109828979D01*
X120467739Y-109836388D01*
X120578232Y-109882156D01*
X120578237Y-109882157D01*
X120585865Y-109885317D01*
X120594049Y-109886394D01*
X120594051Y-109886395D01*
X120660548Y-109895149D01*
X120701315Y-109900516D01*
X120701320Y-109900516D01*
X120701329Y-109900517D01*
X120731827Y-109904532D01*
X120731828Y-109904532D01*
X120740016Y-109905610D01*
X120748204Y-109904532D01*
X120770521Y-109901594D01*
X120786967Y-109900516D01*
X121331317Y-109900516D01*
X121394315Y-109917396D01*
X121538176Y-110000453D01*
X121581367Y-110013823D01*
X121667953Y-110040626D01*
X121667960Y-110040628D01*
X121671731Y-110041795D01*
X122307791Y-110153949D01*
X122311300Y-110154170D01*
X122311302Y-110154170D01*
X122346860Y-110156407D01*
X122441679Y-110162372D01*
X122448637Y-110161245D01*
X122448638Y-110161245D01*
X122612007Y-110134785D01*
X122618959Y-110133659D01*
X122625487Y-110131022D01*
X122625489Y-110131021D01*
X122778941Y-110069022D01*
X122778940Y-110069022D01*
X122785473Y-110066383D01*
X122819864Y-110042481D01*
X122885403Y-109996930D01*
X122932944Y-109963888D01*
X123054043Y-109831267D01*
X123142750Y-109675114D01*
X123144787Y-109668368D01*
X123192620Y-109509936D01*
X123192620Y-109509933D01*
X123194657Y-109503188D01*
X123199405Y-109435299D01*
X123206110Y-109339404D01*
X123207185Y-109324035D01*
X123179710Y-109146558D01*
X123113598Y-108979579D01*
X123012135Y-108831396D01*
X122880364Y-108709375D01*
X122874270Y-108705856D01*
X122874265Y-108705853D01*
X122730937Y-108623103D01*
X122730936Y-108623103D01*
X122724833Y-108619579D01*
X122653462Y-108597486D01*
X122595056Y-108579406D01*
X122595049Y-108579404D01*
X122591278Y-108578237D01*
X121955218Y-108466083D01*
X121951709Y-108465862D01*
X121951707Y-108465862D01*
X121916084Y-108463621D01*
X121821329Y-108457660D01*
X121814371Y-108458787D01*
X121814370Y-108458787D01*
X121651001Y-108485247D01*
X121644049Y-108486373D01*
X121637521Y-108489010D01*
X121637519Y-108489011D01*
X121583060Y-108511014D01*
X121477535Y-108553649D01*
X121471754Y-108557667D01*
X121471752Y-108557668D01*
X121424266Y-108590672D01*
X121330065Y-108656144D01*
X121325320Y-108661341D01*
X121325316Y-108661344D01*
X121309670Y-108678479D01*
X121248965Y-108715295D01*
X121216625Y-108719516D01*
X121036799Y-108719516D01*
X120968678Y-108699514D01*
X120947704Y-108682611D01*
X120769405Y-108504312D01*
X120735379Y-108442000D01*
X120732500Y-108415217D01*
X120732500Y-107582915D01*
X121346974Y-107582915D01*
X121348222Y-107590494D01*
X121366942Y-107704188D01*
X121368982Y-107716581D01*
X121429322Y-107837868D01*
X121435811Y-107844694D01*
X121482495Y-107893803D01*
X121522656Y-107936051D01*
X121640734Y-108002448D01*
X121671273Y-108010860D01*
X123008316Y-108246616D01*
X123024383Y-108247909D01*
X123032234Y-108248541D01*
X123032235Y-108248541D01*
X123039890Y-108249157D01*
X123113245Y-108237079D01*
X123164259Y-108228680D01*
X123164260Y-108228680D01*
X123173557Y-108227149D01*
X123294843Y-108166809D01*
X123381338Y-108084586D01*
X123386198Y-108079966D01*
X123386199Y-108079965D01*
X123393026Y-108073475D01*
X123418804Y-108027634D01*
X123454823Y-107963579D01*
X123459424Y-107955397D01*
X123464753Y-107936051D01*
X123467047Y-107927723D01*
X123467048Y-107927720D01*
X123467836Y-107924858D01*
X123583336Y-107269822D01*
X123607569Y-107132387D01*
X123607569Y-107132385D01*
X123608085Y-107129460D01*
X123609065Y-107117290D01*
X123610010Y-107105541D01*
X123610010Y-107105540D01*
X123610626Y-107097885D01*
X123601200Y-107040637D01*
X123590148Y-106973509D01*
X123590147Y-106973506D01*
X123588618Y-106964219D01*
X123528278Y-106842932D01*
X123434944Y-106744749D01*
X123316866Y-106678352D01*
X123286327Y-106669940D01*
X121949284Y-106434184D01*
X121930964Y-106432710D01*
X121925366Y-106432259D01*
X121925365Y-106432259D01*
X121917710Y-106431643D01*
X121884166Y-106437166D01*
X121793341Y-106452120D01*
X121793340Y-106452120D01*
X121784043Y-106453651D01*
X121662757Y-106513991D01*
X121655932Y-106520479D01*
X121576413Y-106596071D01*
X121564574Y-106607325D01*
X121559957Y-106615536D01*
X121559956Y-106615537D01*
X121526348Y-106675303D01*
X121498176Y-106725403D01*
X121496138Y-106732802D01*
X121491104Y-106751079D01*
X121489764Y-106755942D01*
X121406493Y-107228197D01*
X121351189Y-107541849D01*
X121349515Y-107551340D01*
X121346974Y-107582915D01*
X120732500Y-107582915D01*
X120732500Y-106472958D01*
X120733578Y-106456511D01*
X120736517Y-106434188D01*
X120737595Y-106426000D01*
X120732500Y-106387299D01*
X120726059Y-106338371D01*
X120718379Y-106280035D01*
X120718378Y-106280033D01*
X120717301Y-106271849D01*
X120678543Y-106178281D01*
X120661346Y-106136763D01*
X120661345Y-106136762D01*
X120657800Y-106128203D01*
X120657800Y-106128202D01*
X120593411Y-106044288D01*
X120586912Y-106035819D01*
X120586908Y-106035814D01*
X120568179Y-106011405D01*
X120568175Y-106011401D01*
X120563149Y-106004851D01*
X120556599Y-105999825D01*
X120556596Y-105999822D01*
X120538732Y-105986115D01*
X120526341Y-105975248D01*
X116451405Y-101900312D01*
X116417379Y-101838000D01*
X116414500Y-101811217D01*
X116414500Y-99908987D01*
X118908484Y-99908987D01*
X118917374Y-100248505D01*
X118917980Y-100255721D01*
X118965835Y-100591963D01*
X118967269Y-100599074D01*
X119053455Y-100927595D01*
X119055692Y-100934478D01*
X119179064Y-101250914D01*
X119182081Y-101257503D01*
X119341002Y-101557652D01*
X119344761Y-101563860D01*
X119537129Y-101843757D01*
X119541574Y-101849486D01*
X119608743Y-101926484D01*
X119621917Y-101934888D01*
X119631767Y-101929021D01*
X120523278Y-101037511D01*
X120585590Y-101003486D01*
X120656406Y-101008551D01*
X120708182Y-101044775D01*
X120785130Y-101134870D01*
X120875225Y-101211818D01*
X120914032Y-101271266D01*
X120914540Y-101342261D01*
X120882489Y-101396722D01*
X119991472Y-102287739D01*
X119983860Y-102301681D01*
X119983878Y-102301933D01*
X119989793Y-102310677D01*
X120021111Y-102339174D01*
X120026748Y-102343738D01*
X120302544Y-102541918D01*
X120308682Y-102545813D01*
X120605435Y-102710984D01*
X120611955Y-102714136D01*
X120925738Y-102844109D01*
X120932589Y-102846495D01*
X121259212Y-102939536D01*
X121266301Y-102941120D01*
X121601465Y-102996006D01*
X121608671Y-102996763D01*
X121947926Y-103012762D01*
X121955176Y-103012686D01*
X122294010Y-102989587D01*
X122301219Y-102988676D01*
X122635160Y-102926784D01*
X122642190Y-102925057D01*
X122966819Y-102825187D01*
X122973597Y-102822667D01*
X123284603Y-102686145D01*
X123291043Y-102682864D01*
X123584293Y-102511502D01*
X123590326Y-102507493D01*
X123848828Y-102313405D01*
X123857282Y-102302078D01*
X123850539Y-102289750D01*
X122957511Y-101396722D01*
X122923486Y-101334410D01*
X122928551Y-101263594D01*
X122964775Y-101211818D01*
X123054870Y-101134870D01*
X123131818Y-101044775D01*
X123191266Y-101005968D01*
X123262261Y-101005460D01*
X123316722Y-101037511D01*
X124206270Y-101927059D01*
X124219622Y-101934349D01*
X124229594Y-101927295D01*
X124336641Y-101799267D01*
X124340957Y-101793456D01*
X124527432Y-101509575D01*
X124531046Y-101503313D01*
X124683658Y-101199882D01*
X124686530Y-101193244D01*
X124803249Y-100874293D01*
X124805345Y-100867351D01*
X124884631Y-100537103D01*
X124885915Y-100529964D01*
X124926816Y-100191973D01*
X124927240Y-100186403D01*
X124933010Y-100002797D01*
X124932937Y-99997204D01*
X124913338Y-99657303D01*
X124912506Y-99650113D01*
X124854113Y-99315529D01*
X124852458Y-99308474D01*
X124755998Y-98982834D01*
X124753540Y-98976006D01*
X124620290Y-98663608D01*
X124617073Y-98657125D01*
X124448788Y-98362089D01*
X124444856Y-98356034D01*
X124243774Y-98082295D01*
X124239166Y-98076726D01*
X124233830Y-98070984D01*
X124220178Y-98062866D01*
X124219570Y-98062887D01*
X124211094Y-98068118D01*
X123316722Y-98962489D01*
X123254410Y-98996514D01*
X123183594Y-98991449D01*
X123131818Y-98955225D01*
X123054870Y-98865130D01*
X122964775Y-98788182D01*
X122925968Y-98728734D01*
X122925460Y-98657739D01*
X122957512Y-98603278D01*
X123847074Y-97713716D01*
X123854466Y-97700179D01*
X123847679Y-97690479D01*
X123744476Y-97602335D01*
X123738704Y-97597953D01*
X123456796Y-97408519D01*
X123450575Y-97404839D01*
X123148757Y-97249060D01*
X123142146Y-97246116D01*
X122824439Y-97126065D01*
X122817513Y-97123894D01*
X122488112Y-97041155D01*
X122481005Y-97039799D01*
X122144278Y-96995468D01*
X122137036Y-96994937D01*
X121797467Y-96989602D01*
X121790205Y-96989906D01*
X121452256Y-97023638D01*
X121445108Y-97024770D01*
X121113263Y-97097124D01*
X121106285Y-97099072D01*
X120784960Y-97209086D01*
X120778253Y-97211823D01*
X120471707Y-97358039D01*
X120465349Y-97361534D01*
X120177654Y-97542005D01*
X120171731Y-97546214D01*
X119993601Y-97688923D01*
X119985132Y-97701048D01*
X119991526Y-97712314D01*
X120882489Y-98603278D01*
X120916514Y-98665590D01*
X120911449Y-98736406D01*
X120875225Y-98788182D01*
X120785130Y-98865130D01*
X120708182Y-98955225D01*
X120648734Y-98994032D01*
X120577739Y-98994540D01*
X120523278Y-98962489D01*
X119632372Y-98071583D01*
X119619581Y-98064599D01*
X119608827Y-98072464D01*
X119448037Y-98277527D01*
X119443902Y-98283476D01*
X119266440Y-98573068D01*
X119263019Y-98579447D01*
X119120016Y-98887522D01*
X119117356Y-98894241D01*
X119010711Y-99216707D01*
X119008834Y-99223711D01*
X118939961Y-99556288D01*
X118938904Y-99563449D01*
X118908712Y-99901735D01*
X118908484Y-99908987D01*
X116414500Y-99908987D01*
X116414500Y-97074958D01*
X116415578Y-97058511D01*
X116418517Y-97036188D01*
X116419595Y-97028000D01*
X116412865Y-96976883D01*
X116399301Y-96873849D01*
X116378772Y-96824287D01*
X116343346Y-96738763D01*
X116343345Y-96738762D01*
X116339800Y-96730203D01*
X116339800Y-96730202D01*
X116268912Y-96637819D01*
X116268910Y-96637817D01*
X116268908Y-96637814D01*
X116250179Y-96613405D01*
X116250175Y-96613401D01*
X116245149Y-96606851D01*
X116238599Y-96601825D01*
X116238596Y-96601822D01*
X116220732Y-96588115D01*
X116208341Y-96577248D01*
X114242755Y-94611662D01*
X114231887Y-94599271D01*
X114218172Y-94581397D01*
X114213149Y-94574851D01*
X114182183Y-94551090D01*
X114182181Y-94551088D01*
X114089798Y-94480200D01*
X114082169Y-94477040D01*
X114082167Y-94477039D01*
X114047724Y-94462773D01*
X114047722Y-94462772D01*
X113953782Y-94423860D01*
X113946151Y-94420699D01*
X113937963Y-94419621D01*
X113830704Y-94405500D01*
X113830699Y-94405500D01*
X113792000Y-94400405D01*
X113780644Y-94401900D01*
X113761487Y-94404422D01*
X113745041Y-94405500D01*
X110232794Y-94405500D01*
X110164673Y-94385498D01*
X110118180Y-94331842D01*
X110108076Y-94261568D01*
X110137570Y-94196988D01*
X110170271Y-94170107D01*
X110193487Y-94156838D01*
X110281212Y-94106699D01*
X110485536Y-93945623D01*
X110663808Y-93756114D01*
X110812111Y-93542337D01*
X110829858Y-93506349D01*
X110925121Y-93313175D01*
X110925122Y-93313172D01*
X110927186Y-93308987D01*
X111006506Y-93061192D01*
X111048328Y-92804394D01*
X111050385Y-92647288D01*
X111051673Y-92548912D01*
X111051673Y-92548909D01*
X111051734Y-92544235D01*
X111016648Y-92286430D01*
X110943842Y-92036643D01*
X110834914Y-91800361D01*
X110797666Y-91743548D01*
X110694825Y-91586688D01*
X110694821Y-91586683D01*
X110692259Y-91582775D01*
X110519009Y-91388665D01*
X110318971Y-91222295D01*
X110096539Y-91087320D01*
X110092223Y-91085510D01*
X109860914Y-90988514D01*
X109860909Y-90988512D01*
X109856599Y-90986705D01*
X109852067Y-90985554D01*
X109852064Y-90985553D01*
X109726785Y-90953737D01*
X109604423Y-90922661D01*
X109388314Y-90900900D01*
X109233556Y-90900900D01*
X109231231Y-90901073D01*
X109231225Y-90901073D01*
X109044786Y-90914928D01*
X109044782Y-90914929D01*
X109040134Y-90915274D01*
X108786368Y-90972695D01*
X108782016Y-90974387D01*
X108782014Y-90974388D01*
X108548230Y-91065302D01*
X108548228Y-91065303D01*
X108543877Y-91066995D01*
X108539823Y-91069312D01*
X108539821Y-91069313D01*
X108460562Y-91114614D01*
X108317988Y-91196101D01*
X108113664Y-91357177D01*
X107935392Y-91546686D01*
X107787089Y-91760463D01*
X107785023Y-91764653D01*
X107785021Y-91764656D01*
X107711949Y-91912833D01*
X107672014Y-91993813D01*
X107592694Y-92241608D01*
X107591944Y-92246214D01*
X107562778Y-92425303D01*
X107550872Y-92498406D01*
X107550811Y-92503083D01*
X107548131Y-92707804D01*
X107547466Y-92758565D01*
X107582552Y-93016370D01*
X107583860Y-93020856D01*
X107583860Y-93020858D01*
X107586823Y-93031022D01*
X107655358Y-93266157D01*
X107764286Y-93502439D01*
X107766846Y-93506344D01*
X107766849Y-93506349D01*
X107904375Y-93716112D01*
X107904379Y-93716117D01*
X107906941Y-93720025D01*
X108080191Y-93914135D01*
X108280229Y-94080505D01*
X108327217Y-94109018D01*
X108430647Y-94171781D01*
X108478508Y-94224220D01*
X108490420Y-94294211D01*
X108462602Y-94359530D01*
X108403885Y-94399441D01*
X108365282Y-94405500D01*
X106218958Y-94405500D01*
X106202511Y-94404422D01*
X106180188Y-94401483D01*
X106172000Y-94400405D01*
X106133301Y-94405500D01*
X106133296Y-94405500D01*
X106026037Y-94419621D01*
X106017849Y-94420699D01*
X106010218Y-94423860D01*
X105916278Y-94462772D01*
X105916276Y-94462773D01*
X105881833Y-94477039D01*
X105881831Y-94477040D01*
X105874202Y-94480200D01*
X105781819Y-94551088D01*
X105781817Y-94551090D01*
X105750851Y-94574851D01*
X105745825Y-94581401D01*
X105745822Y-94581404D01*
X105732115Y-94599268D01*
X105721248Y-94611659D01*
X105055262Y-95277645D01*
X105042872Y-95288512D01*
X105018451Y-95307251D01*
X105013428Y-95313797D01*
X105013426Y-95313799D01*
X104994692Y-95338214D01*
X104994690Y-95338217D01*
X104994688Y-95338219D01*
X104923800Y-95430602D01*
X104923800Y-95430603D01*
X104917760Y-95445185D01*
X104917759Y-95445186D01*
X104902376Y-95482324D01*
X104864299Y-95574249D01*
X104863222Y-95582433D01*
X104863221Y-95582435D01*
X104855177Y-95643540D01*
X104849100Y-95689699D01*
X104844005Y-95728400D01*
X104845083Y-95736588D01*
X104848022Y-95758913D01*
X104849100Y-95775359D01*
X104849100Y-96166128D01*
X104829098Y-96234249D01*
X104802051Y-96264325D01*
X104776156Y-96285144D01*
X104776148Y-96285152D01*
X104771352Y-96289008D01*
X104651535Y-96431801D01*
X104648571Y-96437193D01*
X104648568Y-96437197D01*
X104589410Y-96544805D01*
X104561735Y-96595146D01*
X104559874Y-96601013D01*
X104559873Y-96601015D01*
X104518892Y-96730203D01*
X104505372Y-96772824D01*
X104484594Y-96958065D01*
X103393391Y-96958065D01*
X103376509Y-96785887D01*
X103374728Y-96779988D01*
X103374727Y-96779983D01*
X103324414Y-96613339D01*
X103322633Y-96607440D01*
X103235122Y-96442856D01*
X103231232Y-96438086D01*
X103231229Y-96438082D01*
X103121205Y-96303180D01*
X103121202Y-96303177D01*
X103117310Y-96298405D01*
X103111656Y-96293727D01*
X102978434Y-96183516D01*
X102973685Y-96179587D01*
X102809716Y-96090929D01*
X102720259Y-96063238D01*
X102637536Y-96037631D01*
X102637533Y-96037630D01*
X102631649Y-96035809D01*
X102625524Y-96035165D01*
X102625523Y-96035165D01*
X102452396Y-96016968D01*
X102452395Y-96016968D01*
X102446268Y-96016324D01*
X102371174Y-96023158D01*
X102266771Y-96032659D01*
X102266768Y-96032660D01*
X102260632Y-96033218D01*
X102254722Y-96034957D01*
X102254719Y-96034958D01*
X102127308Y-96072458D01*
X102081814Y-96085848D01*
X101916623Y-96172207D01*
X101771352Y-96289008D01*
X101651535Y-96431801D01*
X101648571Y-96437193D01*
X101648568Y-96437197D01*
X101589410Y-96544805D01*
X101561735Y-96595146D01*
X101559874Y-96601013D01*
X101559873Y-96601015D01*
X101518892Y-96730203D01*
X101505372Y-96772824D01*
X101484594Y-96958065D01*
X101485110Y-96964209D01*
X101498702Y-97126065D01*
X101500192Y-97143814D01*
X101534955Y-97265046D01*
X101548074Y-97310799D01*
X101547623Y-97381794D01*
X101516050Y-97434624D01*
X101066199Y-97884475D01*
X101003887Y-97918501D01*
X100977104Y-97921380D01*
X100133545Y-97921380D01*
X100065424Y-97901378D01*
X100018931Y-97847722D01*
X100008827Y-97777448D01*
X100038321Y-97712868D01*
X100055972Y-97696091D01*
X100093394Y-97666854D01*
X100093395Y-97666853D01*
X100098255Y-97663056D01*
X100220054Y-97521950D01*
X100251179Y-97467161D01*
X100268947Y-97435882D01*
X100312126Y-97359874D01*
X100370964Y-97183001D01*
X100389055Y-97039799D01*
X100393885Y-97001570D01*
X100393886Y-97001563D01*
X100394327Y-96998068D01*
X100394699Y-96971400D01*
X100376509Y-96785887D01*
X100374728Y-96779988D01*
X100374727Y-96779983D01*
X100324414Y-96613339D01*
X100322633Y-96607440D01*
X100235122Y-96442856D01*
X100231232Y-96438086D01*
X100231229Y-96438082D01*
X100121205Y-96303180D01*
X100121202Y-96303177D01*
X100117310Y-96298405D01*
X100111657Y-96293728D01*
X100085784Y-96272324D01*
X100046046Y-96213490D01*
X100040100Y-96175240D01*
X100040100Y-93137219D01*
X100041178Y-93120773D01*
X100044204Y-93097788D01*
X100045282Y-93089600D01*
X100024644Y-92932838D01*
X99964136Y-92786759D01*
X99892050Y-92692815D01*
X99867882Y-92661318D01*
X99842928Y-92642170D01*
X99830538Y-92631303D01*
X91644292Y-84445057D01*
X91633432Y-84432675D01*
X91614282Y-84407718D01*
X91601206Y-84397684D01*
X91504752Y-84323673D01*
X91488841Y-84311464D01*
X91342762Y-84250956D01*
X91225361Y-84235500D01*
X91186000Y-84230318D01*
X91177812Y-84231396D01*
X91154827Y-84234422D01*
X91138381Y-84235500D01*
X90690771Y-84235500D01*
X90622650Y-84215498D01*
X90576157Y-84161842D01*
X90566053Y-84091568D01*
X90595547Y-84026988D01*
X90660106Y-83987288D01*
X90784104Y-83956175D01*
X90784110Y-83956173D01*
X90787797Y-83955248D01*
X90791349Y-83953882D01*
X90791355Y-83953880D01*
X91003799Y-83872173D01*
X91003800Y-83872173D01*
X91021253Y-83865460D01*
X91026425Y-83864869D01*
X91031072Y-83860609D01*
X91037211Y-83859173D01*
X91046777Y-83848105D01*
X91053377Y-83843977D01*
X91064351Y-83837687D01*
X91588623Y-83537173D01*
X91750477Y-83444398D01*
X91755665Y-83441584D01*
X92487383Y-83066540D01*
X92492696Y-83063972D01*
X92661896Y-82987028D01*
X93241195Y-82723592D01*
X93246583Y-82721291D01*
X93711842Y-82535485D01*
X94010213Y-82416327D01*
X94015744Y-82414267D01*
X94792794Y-82145402D01*
X94798414Y-82143604D01*
X95587178Y-81911425D01*
X95592877Y-81909891D01*
X96391671Y-81714894D01*
X96397435Y-81713629D01*
X97204496Y-81556247D01*
X97210314Y-81555254D01*
X97409077Y-81526078D01*
X98023846Y-81435838D01*
X98029663Y-81435122D01*
X98847922Y-81353927D01*
X98853779Y-81353484D01*
X99207626Y-81335045D01*
X99674922Y-81310694D01*
X99680821Y-81310525D01*
X100072165Y-81308481D01*
X100503063Y-81306231D01*
X100508925Y-81306338D01*
G37*
%TD.AperFunction*%
%TA.AperFunction,Conductor*%
G36*
X94284679Y-91578490D02*
G01*
X94292133Y-91585368D01*
X95802195Y-93095430D01*
X95836221Y-93157742D01*
X95839100Y-93184525D01*
X95839100Y-96174169D01*
X95819098Y-96242290D01*
X95792053Y-96272364D01*
X95781876Y-96280546D01*
X95776158Y-96285144D01*
X95771352Y-96289008D01*
X95767394Y-96293725D01*
X95767391Y-96293728D01*
X95711641Y-96360169D01*
X95651535Y-96431801D01*
X95648571Y-96437193D01*
X95648568Y-96437197D01*
X95589410Y-96544805D01*
X95561735Y-96595146D01*
X95559874Y-96601013D01*
X95559873Y-96601015D01*
X95518892Y-96730203D01*
X95505372Y-96772824D01*
X95484594Y-96958065D01*
X95485110Y-96964209D01*
X95498702Y-97126065D01*
X95500192Y-97143814D01*
X95501891Y-97149739D01*
X95548074Y-97310799D01*
X95551571Y-97322995D01*
X95636776Y-97488785D01*
X95752559Y-97634868D01*
X95757252Y-97638862D01*
X95757253Y-97638863D01*
X95768634Y-97648549D01*
X95794433Y-97670505D01*
X95828415Y-97699426D01*
X95867328Y-97758808D01*
X95867959Y-97829802D01*
X95830108Y-97889867D01*
X95765792Y-97919933D01*
X95746752Y-97921380D01*
X94133545Y-97921380D01*
X94065424Y-97901378D01*
X94018931Y-97847722D01*
X94008827Y-97777448D01*
X94038321Y-97712868D01*
X94055972Y-97696091D01*
X94093394Y-97666854D01*
X94093395Y-97666853D01*
X94098255Y-97663056D01*
X94220054Y-97521950D01*
X94251179Y-97467161D01*
X94268947Y-97435882D01*
X94312126Y-97359874D01*
X94370964Y-97183001D01*
X94389055Y-97039799D01*
X94393885Y-97001570D01*
X94393886Y-97001563D01*
X94394327Y-96998068D01*
X94394699Y-96971400D01*
X94376509Y-96785887D01*
X94374728Y-96779988D01*
X94374727Y-96779983D01*
X94324414Y-96613339D01*
X94322633Y-96607440D01*
X94235122Y-96442856D01*
X94231232Y-96438086D01*
X94231229Y-96438082D01*
X94121205Y-96303180D01*
X94121202Y-96303177D01*
X94117310Y-96298405D01*
X94111656Y-96293727D01*
X93978434Y-96183516D01*
X93973685Y-96179587D01*
X93809716Y-96090929D01*
X93750045Y-96072458D01*
X93698209Y-96041188D01*
X92258178Y-94601157D01*
X92224152Y-94538845D01*
X92229217Y-94468030D01*
X92271764Y-94411194D01*
X92338284Y-94386383D01*
X92359894Y-94386696D01*
X92510886Y-94401900D01*
X92665644Y-94401900D01*
X92667969Y-94401727D01*
X92667975Y-94401727D01*
X92854414Y-94387872D01*
X92854418Y-94387871D01*
X92859066Y-94387526D01*
X93112832Y-94330105D01*
X93117186Y-94328412D01*
X93350970Y-94237498D01*
X93350972Y-94237497D01*
X93355323Y-94235805D01*
X93390885Y-94215480D01*
X93470271Y-94170107D01*
X93581212Y-94106699D01*
X93785536Y-93945623D01*
X93963808Y-93756114D01*
X94112111Y-93542337D01*
X94129858Y-93506349D01*
X94225121Y-93313175D01*
X94225122Y-93313172D01*
X94227186Y-93308987D01*
X94306506Y-93061192D01*
X94348328Y-92804394D01*
X94350385Y-92647288D01*
X94351673Y-92548912D01*
X94351673Y-92548909D01*
X94351734Y-92544235D01*
X94316648Y-92286430D01*
X94243842Y-92036643D01*
X94134914Y-91800361D01*
X94097666Y-91743548D01*
X94077043Y-91675612D01*
X94096423Y-91607312D01*
X94149653Y-91560332D01*
X94219831Y-91549587D01*
X94284679Y-91578490D01*
G37*
%TD.AperFunction*%
%TD*%
M02*
