%TF.GenerationSoftware,KiCad,Pcbnew,(6.0.1)*%
%TF.CreationDate,2022-03-03T23:01:05+09:00*%
%TF.ProjectId,v0_miniAB_pancake_board,76305f6d-696e-4694-9142-5f70616e6361,rev?*%
%TF.SameCoordinates,Original*%
%TF.FileFunction,Legend,Top*%
%TF.FilePolarity,Positive*%
%FSLAX46Y46*%
G04 Gerber Fmt 4.6, Leading zero omitted, Abs format (unit mm)*
G04 Created by KiCad (PCBNEW (6.0.1)) date 2022-03-03 23:01:05*
%MOMM*%
%LPD*%
G01*
G04 APERTURE LIST*
G04 Aperture macros list*
%AMRoundRect*
0 Rectangle with rounded corners*
0 $1 Rounding radius*
0 $2 $3 $4 $5 $6 $7 $8 $9 X,Y pos of 4 corners*
0 Add a 4 corners polygon primitive as box body*
4,1,4,$2,$3,$4,$5,$6,$7,$8,$9,$2,$3,0*
0 Add four circle primitives for the rounded corners*
1,1,$1+$1,$2,$3*
1,1,$1+$1,$4,$5*
1,1,$1+$1,$6,$7*
1,1,$1+$1,$8,$9*
0 Add four rect primitives between the rounded corners*
20,1,$1+$1,$2,$3,$4,$5,0*
20,1,$1+$1,$4,$5,$6,$7,0*
20,1,$1+$1,$6,$7,$8,$9,0*
20,1,$1+$1,$8,$9,$2,$3,0*%
%AMHorizOval*
0 Thick line with rounded ends*
0 $1 width*
0 $2 $3 position (X,Y) of the first rounded end (center of the circle)*
0 $4 $5 position (X,Y) of the second rounded end (center of the circle)*
0 Add line between two ends*
20,1,$1,$2,$3,$4,$5,0*
0 Add two circle primitives to create the rounded ends*
1,1,$1,$2,$3*
1,1,$1,$4,$5*%
G04 Aperture macros list end*
%ADD10C,0.100000*%
%ADD11C,0.150000*%
%ADD12C,0.013229*%
%ADD13C,0.120000*%
%ADD14C,3.000000*%
%ADD15RoundRect,0.250001X0.813011X0.408179X-0.053012X0.908178X-0.813011X-0.408179X0.053012X-0.908178X0*%
%ADD16HorizOval,1.500000X0.130000X0.225167X-0.130000X-0.225167X0*%
%ADD17O,1.200000X1.750000*%
%ADD18RoundRect,0.250000X0.350000X0.625000X-0.350000X0.625000X-0.350000X-0.625000X0.350000X-0.625000X0*%
%ADD19O,1.750000X1.200000*%
%ADD20RoundRect,0.249999X0.625001X-0.350001X0.625001X0.350001X-0.625001X0.350001X-0.625001X-0.350001X0*%
%ADD21R,1.350000X1.350000*%
%ADD22O,1.350000X1.350000*%
%ADD23RoundRect,0.250000X0.071782X-0.712722X0.645188X-0.311218X-0.071782X0.712722X-0.645188X0.311218X0*%
%ADD24HorizOval,1.200000X-0.157734X0.225267X0.157734X-0.225267X0*%
%ADD25R,1.700000X1.700000*%
%ADD26O,1.700000X1.700000*%
%ADD27C,5.000000*%
%ADD28C,1.500000*%
%ADD29RoundRect,0.250001X-0.499999X-0.499999X0.499999X-0.499999X0.499999X0.499999X-0.499999X0.499999X0*%
%ADD30RoundRect,0.249999X0.194454X-0.689431X0.689431X-0.194454X-0.194454X0.689431X-0.689431X0.194454X0*%
%ADD31HorizOval,1.200000X-0.194454X0.194454X0.194454X-0.194454X0*%
%ADD32RoundRect,0.249999X-0.676283X0.236153X-0.554729X-0.453214X0.676283X-0.236153X0.554729X0.453214X0*%
%ADD33HorizOval,1.200000X-0.270822X-0.047753X0.270822X0.047753X0*%
%ADD34RoundRect,0.249999X-0.554729X0.453214X-0.676283X-0.236153X0.554729X-0.453214X0.676283X0.236153X0*%
%ADD35HorizOval,1.200000X-0.270822X0.047753X0.270822X-0.047753X0*%
%ADD36HorizOval,1.200000X0.270822X0.047753X-0.270822X-0.047753X0*%
%ADD37RoundRect,0.249999X0.676283X-0.236153X0.554729X0.453214X-0.676283X0.236153X-0.554729X-0.453214X0*%
G04 APERTURE END LIST*
D10*
X116225527Y-91754855D02*
X115875402Y-92294001D01*
X115777421Y-92383675D01*
X115674827Y-92419252D01*
X115567618Y-92400731D01*
X115511707Y-92364422D01*
X116294466Y-92872751D02*
X116014909Y-92691205D01*
X116505084Y-91936402D01*
X116872307Y-93145803D02*
X116821010Y-93163592D01*
X116713801Y-93145071D01*
X116657890Y-93108762D01*
X116597364Y-93018355D01*
X116588136Y-92910159D01*
X116606864Y-92820119D01*
X116672275Y-92658192D01*
X116742300Y-92550363D01*
X116863622Y-92424745D01*
X116938261Y-92371014D01*
X117040856Y-92335437D01*
X117148065Y-92353958D01*
X117203976Y-92390267D01*
X117264502Y-92480674D01*
X117269116Y-92534772D01*
X117735134Y-92735205D02*
X117385009Y-93274351D01*
X117287028Y-93364025D01*
X117184434Y-93399602D01*
X117077225Y-93381081D01*
X117021314Y-93344772D01*
X117804073Y-93853102D02*
X117524516Y-93671555D01*
X118014691Y-92916752D01*
X118381914Y-94126154D02*
X118330617Y-94143942D01*
X118223408Y-94125421D01*
X118167497Y-94089112D01*
X118106971Y-93998705D01*
X118097743Y-93890510D01*
X118116471Y-93800469D01*
X118181882Y-93638542D01*
X118251907Y-93530713D01*
X118373229Y-93405096D01*
X118447868Y-93351364D01*
X118550463Y-93315787D01*
X118657672Y-93334308D01*
X118713583Y-93370618D01*
X118774109Y-93461025D01*
X118778723Y-93515122D01*
X119244741Y-93715556D02*
X118894616Y-94254701D01*
X118796635Y-94344376D01*
X118694041Y-94379952D01*
X118586832Y-94361431D01*
X118530921Y-94325122D01*
X119313680Y-94833452D02*
X119034123Y-94651906D01*
X119524298Y-93897102D01*
X119891521Y-95106504D02*
X119840224Y-95124292D01*
X119733015Y-95105771D01*
X119677104Y-95069462D01*
X119616578Y-94979055D01*
X119607350Y-94870860D01*
X119626078Y-94780819D01*
X119691489Y-94618892D01*
X119761514Y-94511063D01*
X119882836Y-94385446D01*
X119957475Y-94331715D01*
X120060070Y-94296138D01*
X120167279Y-94314659D01*
X120223190Y-94350968D01*
X120283716Y-94441375D01*
X120288330Y-94495472D01*
X120754348Y-94695906D02*
X120404223Y-95235051D01*
X120306243Y-95324726D01*
X120203648Y-95360303D01*
X120096439Y-95341782D01*
X120040528Y-95305472D01*
X120823287Y-95813802D02*
X120543730Y-95632256D01*
X121033905Y-94877452D01*
X121401128Y-96086854D02*
X121349831Y-96104643D01*
X121242622Y-96086122D01*
X121186711Y-96049812D01*
X121126185Y-95959405D01*
X121116957Y-95851210D01*
X121135685Y-95761169D01*
X121201096Y-95599243D01*
X121271121Y-95491414D01*
X121392443Y-95365796D01*
X121467082Y-95312065D01*
X121569677Y-95276488D01*
X121676886Y-95295009D01*
X121732797Y-95331318D01*
X121793323Y-95421725D01*
X121797937Y-95475823D01*
D11*
X97391600Y-115417504D02*
X97343980Y-115512742D01*
X97343980Y-115655600D01*
X97391600Y-115798457D01*
X97486838Y-115893695D01*
X97582076Y-115941314D01*
X97772552Y-115988933D01*
X97915409Y-115988933D01*
X98105885Y-115941314D01*
X98201123Y-115893695D01*
X98296361Y-115798457D01*
X98343980Y-115655600D01*
X98343980Y-115560361D01*
X98296361Y-115417504D01*
X98248742Y-115369885D01*
X97915409Y-115369885D01*
X97915409Y-115560361D01*
X98343980Y-114941314D02*
X97343980Y-114941314D01*
X98343980Y-114369885D01*
X97343980Y-114369885D01*
X98343980Y-113893695D02*
X97343980Y-113893695D01*
X97343980Y-113655600D01*
X97391600Y-113512742D01*
X97486838Y-113417504D01*
X97582076Y-113369885D01*
X97772552Y-113322266D01*
X97915409Y-113322266D01*
X98105885Y-113369885D01*
X98201123Y-113417504D01*
X98296361Y-113512742D01*
X98343980Y-113655600D01*
X98343980Y-113893695D01*
X100749123Y-110551980D02*
X100272933Y-110551980D01*
X100225314Y-111028171D01*
X100272933Y-110980552D01*
X100368171Y-110932933D01*
X100606266Y-110932933D01*
X100701504Y-110980552D01*
X100749123Y-111028171D01*
X100796742Y-111123409D01*
X100796742Y-111361504D01*
X100749123Y-111456742D01*
X100701504Y-111504361D01*
X100606266Y-111551980D01*
X100368171Y-111551980D01*
X100272933Y-111504361D01*
X100225314Y-111456742D01*
X101082457Y-110551980D02*
X101415790Y-111551980D01*
X101749123Y-110551980D01*
X97087276Y-109758171D02*
X96753942Y-109758171D01*
X96753942Y-110281980D02*
X96753942Y-109281980D01*
X97230133Y-109281980D01*
X97563466Y-109996266D02*
X98039657Y-109996266D01*
X97468228Y-110281980D02*
X97801561Y-109281980D01*
X98134895Y-110281980D01*
X98468228Y-110281980D02*
X98468228Y-109281980D01*
X99039657Y-110281980D01*
X99039657Y-109281980D01*
X100134895Y-109281980D02*
X100468228Y-110281980D01*
X100801561Y-109281980D01*
X101325371Y-109281980D02*
X101515847Y-109281980D01*
X101611085Y-109329600D01*
X101706323Y-109424838D01*
X101753942Y-109615314D01*
X101753942Y-109948647D01*
X101706323Y-110139123D01*
X101611085Y-110234361D01*
X101515847Y-110281980D01*
X101325371Y-110281980D01*
X101230133Y-110234361D01*
X101134895Y-110139123D01*
X101087276Y-109948647D01*
X101087276Y-109615314D01*
X101134895Y-109424838D01*
X101230133Y-109329600D01*
X101325371Y-109281980D01*
X102658704Y-110281980D02*
X102182514Y-110281980D01*
X102182514Y-109281980D01*
X102849180Y-109281980D02*
X103420609Y-109281980D01*
X103134895Y-110281980D02*
X103134895Y-109281980D01*
X103706323Y-109996266D02*
X104182514Y-109996266D01*
X103611085Y-110281980D02*
X103944419Y-109281980D01*
X104277752Y-110281980D01*
X105134895Y-109329600D02*
X105039657Y-109281980D01*
X104896800Y-109281980D01*
X104753942Y-109329600D01*
X104658704Y-109424838D01*
X104611085Y-109520076D01*
X104563466Y-109710552D01*
X104563466Y-109853409D01*
X104611085Y-110043885D01*
X104658704Y-110139123D01*
X104753942Y-110234361D01*
X104896800Y-110281980D01*
X104992038Y-110281980D01*
X105134895Y-110234361D01*
X105182514Y-110186742D01*
X105182514Y-109853409D01*
X104992038Y-109853409D01*
X105611085Y-109758171D02*
X105944419Y-109758171D01*
X106087276Y-110281980D02*
X105611085Y-110281980D01*
X105611085Y-109281980D01*
X106087276Y-109281980D01*
X99707866Y-117867180D02*
X100041200Y-118867180D01*
X100374533Y-117867180D01*
X101279295Y-118771942D02*
X101231676Y-118819561D01*
X101088819Y-118867180D01*
X100993580Y-118867180D01*
X100850723Y-118819561D01*
X100755485Y-118724323D01*
X100707866Y-118629085D01*
X100660247Y-118438609D01*
X100660247Y-118295752D01*
X100707866Y-118105276D01*
X100755485Y-118010038D01*
X100850723Y-117914800D01*
X100993580Y-117867180D01*
X101088819Y-117867180D01*
X101231676Y-117914800D01*
X101279295Y-117962419D01*
X102279295Y-118771942D02*
X102231676Y-118819561D01*
X102088819Y-118867180D01*
X101993580Y-118867180D01*
X101850723Y-118819561D01*
X101755485Y-118724323D01*
X101707866Y-118629085D01*
X101660247Y-118438609D01*
X101660247Y-118295752D01*
X101707866Y-118105276D01*
X101755485Y-118010038D01*
X101850723Y-117914800D01*
X101993580Y-117867180D01*
X102088819Y-117867180D01*
X102231676Y-117914800D01*
X102279295Y-117962419D01*
X103569623Y-112060413D02*
X103179550Y-112333544D01*
X103413675Y-112750930D01*
X103425369Y-112684610D01*
X103476070Y-112590976D01*
X103671106Y-112454410D01*
X103776434Y-112438791D01*
X103842754Y-112450485D01*
X103936388Y-112501186D01*
X104072954Y-112696223D01*
X104088573Y-112801550D01*
X104076879Y-112867871D01*
X104026177Y-112961504D01*
X103831141Y-113098070D01*
X103725813Y-113113689D01*
X103659493Y-113101995D01*
X104072873Y-112114958D02*
X104650293Y-112524494D01*
X104462945Y-111841826D01*
X106171575Y-111459280D02*
X105781503Y-111732412D01*
X105207927Y-110913260D01*
X106144181Y-110839008D02*
X106417232Y-110647816D01*
X106834699Y-110994957D02*
X106444626Y-111268088D01*
X105871050Y-110448936D01*
X106261122Y-110175804D01*
X107185764Y-110749138D02*
X106612187Y-109929986D01*
X106807223Y-109793420D01*
X106951558Y-109750488D01*
X107084199Y-109773876D01*
X107177833Y-109824577D01*
X107326093Y-109953293D01*
X107408032Y-110070315D01*
X107478278Y-110253657D01*
X107493897Y-110358985D01*
X107470508Y-110491625D01*
X107380800Y-110612572D01*
X107185764Y-110749138D01*
X108511848Y-108657961D02*
X108406520Y-108673580D01*
X108289499Y-108755520D01*
X108199790Y-108876467D01*
X108176402Y-109009107D01*
X108192021Y-109114435D01*
X108262266Y-109297777D01*
X108344206Y-109414799D01*
X108492466Y-109543515D01*
X108586099Y-109594216D01*
X108718740Y-109617604D01*
X108863075Y-109574672D01*
X108941090Y-109520046D01*
X109030798Y-109399099D01*
X109042492Y-109332779D01*
X108851300Y-109059728D01*
X108695271Y-109168981D01*
X109448184Y-109164975D02*
X108874607Y-108345822D01*
X109916271Y-108837217D01*
X109342694Y-108018065D01*
X110306343Y-108564085D02*
X109732766Y-107744933D01*
X109927803Y-107608367D01*
X110072138Y-107565435D01*
X110204778Y-107588823D01*
X110298412Y-107639524D01*
X110446672Y-107768240D01*
X110528611Y-107885262D01*
X110598857Y-108068604D01*
X110614476Y-108173932D01*
X110591088Y-108306572D01*
X110501379Y-108427519D01*
X110306343Y-108564085D01*
X105556323Y-106017961D02*
X105699180Y-106065580D01*
X105937276Y-106065580D01*
X106032514Y-106017961D01*
X106080133Y-105970342D01*
X106127752Y-105875104D01*
X106127752Y-105779866D01*
X106080133Y-105684628D01*
X106032514Y-105637009D01*
X105937276Y-105589390D01*
X105746800Y-105541771D01*
X105651561Y-105494152D01*
X105603942Y-105446533D01*
X105556323Y-105351295D01*
X105556323Y-105256057D01*
X105603942Y-105160819D01*
X105651561Y-105113200D01*
X105746800Y-105065580D01*
X105984895Y-105065580D01*
X106127752Y-105113200D01*
X106556323Y-105541771D02*
X106889657Y-105541771D01*
X107032514Y-106065580D02*
X106556323Y-106065580D01*
X106556323Y-105065580D01*
X107032514Y-105065580D01*
X108032514Y-106065580D02*
X107699180Y-105589390D01*
X107461085Y-106065580D02*
X107461085Y-105065580D01*
X107842038Y-105065580D01*
X107937276Y-105113200D01*
X107984895Y-105160819D01*
X108032514Y-105256057D01*
X108032514Y-105398914D01*
X107984895Y-105494152D01*
X107937276Y-105541771D01*
X107842038Y-105589390D01*
X107461085Y-105589390D01*
X108318228Y-105065580D02*
X108651561Y-106065580D01*
X108984895Y-105065580D01*
X109508704Y-105065580D02*
X109699180Y-105065580D01*
X109794419Y-105113200D01*
X109889657Y-105208438D01*
X109937276Y-105398914D01*
X109937276Y-105732247D01*
X109889657Y-105922723D01*
X109794419Y-106017961D01*
X109699180Y-106065580D01*
X109508704Y-106065580D01*
X109413466Y-106017961D01*
X109318228Y-105922723D01*
X109270609Y-105732247D01*
X109270609Y-105398914D01*
X109318228Y-105208438D01*
X109413466Y-105113200D01*
X109508704Y-105065580D01*
X87357720Y-102559822D02*
X87456947Y-103122569D01*
X86422526Y-103014844D02*
X87407334Y-102841195D01*
X86530022Y-103624486D02*
X87514830Y-103450838D01*
X87045874Y-103533528D02*
X87145102Y-104096275D01*
X86629250Y-104187234D02*
X87614058Y-104013586D01*
X87227791Y-104565231D02*
X87285674Y-104893500D01*
X86794629Y-105125146D02*
X86711940Y-104656190D01*
X87696747Y-104482542D01*
X87779437Y-104951498D01*
X86968277Y-106109954D02*
X87379351Y-105698995D01*
X86869050Y-105547206D02*
X87853858Y-105373558D01*
X87920009Y-105748723D01*
X87889652Y-105850783D01*
X87851025Y-105905948D01*
X87765503Y-105969381D01*
X87624816Y-105994188D01*
X87522756Y-105963830D01*
X87467591Y-105925204D01*
X87404158Y-105839682D01*
X87338006Y-105464517D01*
X87042698Y-106532014D02*
X88027506Y-106358366D01*
X87381954Y-106810670D01*
X88143271Y-107014904D01*
X87158463Y-107188553D01*
D12*
X100529788Y-84446902D02*
X99042867Y-84316813D01*
X99042867Y-84316813D02*
X98956139Y-84313347D01*
X98956139Y-84313347D02*
X98874256Y-84318196D01*
X98874256Y-84318196D02*
X98797279Y-84330840D01*
X98797279Y-84330840D02*
X98725265Y-84350755D01*
X98725265Y-84350755D02*
X98658275Y-84377423D01*
X98658275Y-84377423D02*
X98596365Y-84410320D01*
X98596365Y-84410320D02*
X98539597Y-84448926D01*
X98539597Y-84448926D02*
X98488029Y-84492719D01*
X98488029Y-84492719D02*
X98441720Y-84541176D01*
X98441720Y-84541176D02*
X98400728Y-84593779D01*
X98400728Y-84593779D02*
X98365112Y-84650002D01*
X98365112Y-84650002D02*
X98334933Y-84709328D01*
X98334933Y-84709328D02*
X98310249Y-84771232D01*
X98310249Y-84771232D02*
X98291118Y-84835195D01*
X98291118Y-84835195D02*
X98277599Y-84900694D01*
X98277599Y-84900694D02*
X98269753Y-84967208D01*
X98269753Y-84967208D02*
X98267637Y-85034216D01*
X98267637Y-85034216D02*
X98271310Y-85101196D01*
X98271310Y-85101196D02*
X98280833Y-85167627D01*
X98280833Y-85167627D02*
X98296262Y-85232986D01*
X98296262Y-85232986D02*
X98317659Y-85296754D01*
X98317659Y-85296754D02*
X98345081Y-85358407D01*
X98345081Y-85358407D02*
X98378587Y-85417425D01*
X98378587Y-85417425D02*
X98418236Y-85473287D01*
X98418236Y-85473287D02*
X98464089Y-85525470D01*
X98464089Y-85525470D02*
X98516203Y-85573455D01*
X98516203Y-85573455D02*
X98574637Y-85616717D01*
X98574637Y-85616717D02*
X98639451Y-85654737D01*
X98639451Y-85654737D02*
X98710703Y-85686993D01*
X98710703Y-85686993D02*
X98788452Y-85712964D01*
X98788452Y-85712964D02*
X98872758Y-85732126D01*
X98872758Y-85732126D02*
X98963678Y-85743962D01*
X98963678Y-85743962D02*
X100405276Y-85870085D01*
X100405276Y-85870085D02*
X100452258Y-85863046D01*
X100452258Y-85863046D02*
X100493767Y-85856159D01*
X100493767Y-85856159D02*
X100529693Y-85849291D01*
X100529693Y-85849291D02*
X100559928Y-85842309D01*
X100559928Y-85842309D02*
X100584363Y-85835083D01*
X100584363Y-85835083D02*
X100594370Y-85831337D01*
X100594370Y-85831337D02*
X100602887Y-85827482D01*
X100602887Y-85827482D02*
X100609899Y-85823498D01*
X100609899Y-85823498D02*
X100615393Y-85819372D01*
X100615393Y-85819372D02*
X100619356Y-85815085D01*
X100619356Y-85815085D02*
X100621772Y-85810623D01*
X100621772Y-85810623D02*
X100622630Y-85805967D01*
X100622630Y-85805967D02*
X100621914Y-85801103D01*
X100621914Y-85801103D02*
X100619612Y-85796012D01*
X100619612Y-85796012D02*
X100615711Y-85790680D01*
X100615711Y-85790680D02*
X100610195Y-85785088D01*
X100610195Y-85785088D02*
X100603052Y-85779222D01*
X100603052Y-85779222D02*
X100594270Y-85773064D01*
X100594270Y-85773064D02*
X100583832Y-85766598D01*
X100583832Y-85766598D02*
X100557937Y-85752676D01*
X100557937Y-85752676D02*
X100525262Y-85737323D01*
X100525262Y-85737323D02*
X100485697Y-85720411D01*
X100485697Y-85720411D02*
X100439131Y-85701805D01*
X100439131Y-85701805D02*
X99513963Y-85559759D01*
X99513963Y-85559759D02*
X99472554Y-85545147D01*
X99472554Y-85545147D02*
X99437204Y-85530843D01*
X99437204Y-85530843D02*
X99421771Y-85523827D01*
X99421771Y-85523827D02*
X99407818Y-85516910D01*
X99407818Y-85516910D02*
X99395333Y-85510101D01*
X99395333Y-85510101D02*
X99384303Y-85503408D01*
X99384303Y-85503408D02*
X99374718Y-85496839D01*
X99374718Y-85496839D02*
X99366567Y-85490400D01*
X99366567Y-85490400D02*
X99359835Y-85484100D01*
X99359835Y-85484100D02*
X99354512Y-85477947D01*
X99354512Y-85477947D02*
X99350588Y-85471947D01*
X99350588Y-85471947D02*
X99348049Y-85466109D01*
X99348049Y-85466109D02*
X99346884Y-85460439D01*
X99346884Y-85460439D02*
X99347081Y-85454948D01*
X99347081Y-85454948D02*
X99348629Y-85449640D01*
X99348629Y-85449640D02*
X99351516Y-85444526D01*
X99351516Y-85444526D02*
X99355730Y-85439611D01*
X99355730Y-85439611D02*
X99361258Y-85434904D01*
X99361258Y-85434904D02*
X99368092Y-85430412D01*
X99368092Y-85430412D02*
X99376217Y-85426142D01*
X99376217Y-85426142D02*
X99385621Y-85422105D01*
X99385621Y-85422105D02*
X99396295Y-85418305D01*
X99396295Y-85418305D02*
X99408226Y-85414751D01*
X99408226Y-85414751D02*
X99421401Y-85411450D01*
X99421401Y-85411450D02*
X99435811Y-85408411D01*
X99435811Y-85408411D02*
X99451442Y-85405641D01*
X99451442Y-85405641D02*
X99486320Y-85400939D01*
X99486320Y-85400939D02*
X99525946Y-85397404D01*
X99525946Y-85397404D02*
X99639544Y-85393652D01*
X99639544Y-85393652D02*
X99777153Y-85395062D01*
X99777153Y-85395062D02*
X99926707Y-85400196D01*
X99926707Y-85400196D02*
X100076134Y-85407620D01*
X100076134Y-85407620D02*
X100431186Y-85431459D01*
X100431186Y-85431459D02*
X100486418Y-85427554D01*
X100486418Y-85427554D02*
X100534178Y-85422638D01*
X100534178Y-85422638D02*
X100574503Y-85416746D01*
X100574503Y-85416746D02*
X100607430Y-85409911D01*
X100607430Y-85409911D02*
X100621130Y-85406151D01*
X100621130Y-85406151D02*
X100632997Y-85402167D01*
X100632997Y-85402167D02*
X100643032Y-85397964D01*
X100643032Y-85397964D02*
X100651241Y-85393548D01*
X100651241Y-85393548D02*
X100657630Y-85388921D01*
X100657630Y-85388921D02*
X100662202Y-85384089D01*
X100662202Y-85384089D02*
X100664962Y-85379055D01*
X100664962Y-85379055D02*
X100665914Y-85373823D01*
X100665914Y-85373823D02*
X100665066Y-85368398D01*
X100665066Y-85368398D02*
X100662418Y-85362784D01*
X100662418Y-85362784D02*
X100657979Y-85356985D01*
X100657979Y-85356985D02*
X100651750Y-85351007D01*
X100651750Y-85351007D02*
X100643738Y-85344852D01*
X100643738Y-85344852D02*
X100633948Y-85338525D01*
X100633948Y-85338525D02*
X100622383Y-85332030D01*
X100622383Y-85332030D02*
X100609049Y-85325371D01*
X100609049Y-85325371D02*
X100577090Y-85311583D01*
X100577090Y-85311583D02*
X100538111Y-85297191D01*
X100538111Y-85297191D02*
X100492147Y-85282230D01*
X100492147Y-85282230D02*
X100439237Y-85266733D01*
X100439237Y-85266733D02*
X99544982Y-85154537D01*
X99544982Y-85154537D02*
X99522108Y-85148811D01*
X99522108Y-85148811D02*
X99500809Y-85142933D01*
X99500809Y-85142933D02*
X99481081Y-85136920D01*
X99481081Y-85136920D02*
X99462918Y-85130792D01*
X99462918Y-85130792D02*
X99446315Y-85124565D01*
X99446315Y-85124565D02*
X99431266Y-85118260D01*
X99431266Y-85118260D02*
X99417766Y-85111893D01*
X99417766Y-85111893D02*
X99405809Y-85105483D01*
X99405809Y-85105483D02*
X99395389Y-85099050D01*
X99395389Y-85099050D02*
X99386501Y-85092611D01*
X99386501Y-85092611D02*
X99379139Y-85086185D01*
X99379139Y-85086185D02*
X99373299Y-85079789D01*
X99373299Y-85079789D02*
X99368974Y-85073442D01*
X99368974Y-85073442D02*
X99366160Y-85067164D01*
X99366160Y-85067164D02*
X99364848Y-85060971D01*
X99364848Y-85060971D02*
X99365037Y-85054883D01*
X99365037Y-85054883D02*
X99366718Y-85048918D01*
X99366718Y-85048918D02*
X99369888Y-85043094D01*
X99369888Y-85043094D02*
X99374539Y-85037430D01*
X99374539Y-85037430D02*
X99380667Y-85031944D01*
X99380667Y-85031944D02*
X99388266Y-85026654D01*
X99388266Y-85026654D02*
X99397332Y-85021579D01*
X99397332Y-85021579D02*
X99407857Y-85016737D01*
X99407857Y-85016737D02*
X99419837Y-85012147D01*
X99419837Y-85012147D02*
X99433267Y-85007826D01*
X99433267Y-85007826D02*
X99448139Y-85003794D01*
X99448139Y-85003794D02*
X99464449Y-85000068D01*
X99464449Y-85000068D02*
X99482192Y-84996668D01*
X99482192Y-84996668D02*
X99501363Y-84993611D01*
X99501363Y-84993611D02*
X99521954Y-84990915D01*
X99521954Y-84990915D02*
X99543961Y-84988599D01*
X99543961Y-84988599D02*
X99567380Y-84986683D01*
X99567380Y-84986683D02*
X100474462Y-85061509D01*
X100474462Y-85061509D02*
X100529892Y-85057104D01*
X100529892Y-85057104D02*
X100554768Y-85054276D01*
X100554768Y-85054276D02*
X100577759Y-85051052D01*
X100577759Y-85051052D02*
X100598871Y-85047450D01*
X100598871Y-85047450D02*
X100618106Y-85043485D01*
X100618106Y-85043485D02*
X100635472Y-85039173D01*
X100635472Y-85039173D02*
X100650973Y-85034531D01*
X100650973Y-85034531D02*
X100664615Y-85029574D01*
X100664615Y-85029574D02*
X100676402Y-85024319D01*
X100676402Y-85024319D02*
X100686340Y-85018782D01*
X100686340Y-85018782D02*
X100694434Y-85012979D01*
X100694434Y-85012979D02*
X100700688Y-85006927D01*
X100700688Y-85006927D02*
X100705109Y-85000642D01*
X100705109Y-85000642D02*
X100707701Y-84994139D01*
X100707701Y-84994139D02*
X100708470Y-84987436D01*
X100708470Y-84987436D02*
X100707421Y-84980547D01*
X100707421Y-84980547D02*
X100704558Y-84973490D01*
X100704558Y-84973490D02*
X100699887Y-84966280D01*
X100699887Y-84966280D02*
X100693414Y-84958934D01*
X100693414Y-84958934D02*
X100685143Y-84951468D01*
X100685143Y-84951468D02*
X100675079Y-84943897D01*
X100675079Y-84943897D02*
X100663228Y-84936239D01*
X100663228Y-84936239D02*
X100649595Y-84928509D01*
X100649595Y-84928509D02*
X100634185Y-84920724D01*
X100634185Y-84920724D02*
X100617002Y-84912900D01*
X100617002Y-84912900D02*
X100598053Y-84905053D01*
X100598053Y-84905053D02*
X100577343Y-84897199D01*
X100577343Y-84897199D02*
X100530658Y-84881535D01*
X100530658Y-84881535D02*
X100476989Y-84866038D01*
X100476989Y-84866038D02*
X100372768Y-84857083D01*
X100372768Y-84857083D02*
X100124815Y-84832363D01*
X100124815Y-84832363D02*
X99977269Y-84815094D01*
X99977269Y-84815094D02*
X99830190Y-84795090D01*
X99830190Y-84795090D02*
X99760616Y-84784187D01*
X99760616Y-84784187D02*
X99695708Y-84772751D01*
X99695708Y-84772751D02*
X99636983Y-84760831D01*
X99636983Y-84760831D02*
X99585957Y-84748478D01*
X99585957Y-84748478D02*
X99561117Y-84743174D01*
X99561117Y-84743174D02*
X99538339Y-84737733D01*
X99538339Y-84737733D02*
X99517580Y-84732171D01*
X99517580Y-84732171D02*
X99498801Y-84726506D01*
X99498801Y-84726506D02*
X99481957Y-84720753D01*
X99481957Y-84720753D02*
X99467010Y-84714929D01*
X99467010Y-84714929D02*
X99453914Y-84709051D01*
X99453914Y-84709051D02*
X99442631Y-84703137D01*
X99442631Y-84703137D02*
X99433116Y-84697202D01*
X99433116Y-84697202D02*
X99425330Y-84691262D01*
X99425330Y-84691262D02*
X99419229Y-84685336D01*
X99419229Y-84685336D02*
X99414772Y-84679440D01*
X99414772Y-84679440D02*
X99411918Y-84673590D01*
X99411918Y-84673590D02*
X99410624Y-84667803D01*
X99410624Y-84667803D02*
X99410850Y-84662095D01*
X99410850Y-84662095D02*
X99412551Y-84656484D01*
X99412551Y-84656484D02*
X99415688Y-84650987D01*
X99415688Y-84650987D02*
X99420219Y-84645618D01*
X99420219Y-84645618D02*
X99426101Y-84640397D01*
X99426101Y-84640397D02*
X99433293Y-84635339D01*
X99433293Y-84635339D02*
X99441753Y-84630461D01*
X99441753Y-84630461D02*
X99451439Y-84625779D01*
X99451439Y-84625779D02*
X99462310Y-84621311D01*
X99462310Y-84621311D02*
X99474323Y-84617073D01*
X99474323Y-84617073D02*
X99501611Y-84609353D01*
X99501611Y-84609353D02*
X99532967Y-84602755D01*
X99532967Y-84602755D02*
X99568058Y-84597411D01*
X99568058Y-84597411D02*
X99606550Y-84593455D01*
X99606550Y-84593455D02*
X99665622Y-84589820D01*
X99665622Y-84589820D02*
X99729510Y-84587830D01*
X99729510Y-84587830D02*
X99867607Y-84588011D01*
X99867607Y-84588011D02*
X100012601Y-84592447D01*
X100012601Y-84592447D02*
X100156252Y-84599588D01*
X100156252Y-84599588D02*
X100552653Y-84624213D01*
X100552653Y-84624213D02*
X100580698Y-84623032D01*
X100580698Y-84623032D02*
X100606314Y-84621096D01*
X100606314Y-84621096D02*
X100629560Y-84618452D01*
X100629560Y-84618452D02*
X100650493Y-84615147D01*
X100650493Y-84615147D02*
X100669169Y-84611229D01*
X100669169Y-84611229D02*
X100685647Y-84606745D01*
X100685647Y-84606745D02*
X100699983Y-84601742D01*
X100699983Y-84601742D02*
X100712235Y-84596268D01*
X100712235Y-84596268D02*
X100722460Y-84590371D01*
X100722460Y-84590371D02*
X100730714Y-84584097D01*
X100730714Y-84584097D02*
X100737057Y-84577495D01*
X100737057Y-84577495D02*
X100741543Y-84570612D01*
X100741543Y-84570612D02*
X100744231Y-84563494D01*
X100744231Y-84563494D02*
X100745179Y-84556190D01*
X100745179Y-84556190D02*
X100744443Y-84548748D01*
X100744443Y-84548748D02*
X100742080Y-84541213D01*
X100742080Y-84541213D02*
X100738149Y-84533634D01*
X100738149Y-84533634D02*
X100732705Y-84526059D01*
X100732705Y-84526059D02*
X100725806Y-84518534D01*
X100725806Y-84518534D02*
X100717510Y-84511107D01*
X100717510Y-84511107D02*
X100707873Y-84503826D01*
X100707873Y-84503826D02*
X100696955Y-84496738D01*
X100696955Y-84496738D02*
X100684809Y-84489890D01*
X100684809Y-84489890D02*
X100671495Y-84483330D01*
X100671495Y-84483330D02*
X100657071Y-84477105D01*
X100657071Y-84477105D02*
X100641591Y-84471263D01*
X100641591Y-84471263D02*
X100625116Y-84465851D01*
X100625116Y-84465851D02*
X100607700Y-84460916D01*
X100607700Y-84460916D02*
X100589403Y-84456507D01*
X100589403Y-84456507D02*
X100570280Y-84452670D01*
X100570280Y-84452670D02*
X100550389Y-84449452D01*
X100550389Y-84449452D02*
X100529788Y-84446902D01*
X100529788Y-84446902D02*
X100529788Y-84446902D01*
G36*
X99042867Y-84316813D02*
G01*
X100529788Y-84446902D01*
X100550389Y-84449452D01*
X100570280Y-84452670D01*
X100589403Y-84456507D01*
X100607700Y-84460916D01*
X100625116Y-84465851D01*
X100641591Y-84471263D01*
X100657071Y-84477105D01*
X100671495Y-84483330D01*
X100684809Y-84489890D01*
X100696955Y-84496738D01*
X100707873Y-84503826D01*
X100717510Y-84511107D01*
X100725806Y-84518534D01*
X100732705Y-84526059D01*
X100738149Y-84533634D01*
X100742080Y-84541213D01*
X100744443Y-84548748D01*
X100745179Y-84556190D01*
X100744231Y-84563494D01*
X100741543Y-84570612D01*
X100737057Y-84577495D01*
X100730714Y-84584097D01*
X100722460Y-84590371D01*
X100712235Y-84596268D01*
X100699983Y-84601742D01*
X100685647Y-84606745D01*
X100669169Y-84611229D01*
X100650493Y-84615147D01*
X100629560Y-84618452D01*
X100606314Y-84621096D01*
X100580698Y-84623032D01*
X100552653Y-84624213D01*
X100156252Y-84599588D01*
X100012601Y-84592447D01*
X99867607Y-84588011D01*
X99729510Y-84587830D01*
X99665622Y-84589820D01*
X99606550Y-84593455D01*
X99568058Y-84597411D01*
X99532967Y-84602755D01*
X99501611Y-84609353D01*
X99474323Y-84617073D01*
X99462310Y-84621311D01*
X99451439Y-84625779D01*
X99441753Y-84630461D01*
X99433293Y-84635339D01*
X99426101Y-84640397D01*
X99420219Y-84645618D01*
X99415688Y-84650987D01*
X99412551Y-84656484D01*
X99410850Y-84662095D01*
X99410624Y-84667803D01*
X99411918Y-84673590D01*
X99414772Y-84679440D01*
X99419229Y-84685336D01*
X99425330Y-84691262D01*
X99433116Y-84697202D01*
X99442631Y-84703137D01*
X99453914Y-84709051D01*
X99467010Y-84714929D01*
X99481957Y-84720753D01*
X99498801Y-84726506D01*
X99517580Y-84732171D01*
X99538339Y-84737733D01*
X99561117Y-84743174D01*
X99585957Y-84748478D01*
X99636983Y-84760831D01*
X99695708Y-84772751D01*
X99760616Y-84784187D01*
X99830190Y-84795090D01*
X99977269Y-84815094D01*
X100124815Y-84832363D01*
X100372768Y-84857083D01*
X100476989Y-84866038D01*
X100530658Y-84881535D01*
X100577343Y-84897199D01*
X100598053Y-84905053D01*
X100617002Y-84912900D01*
X100634185Y-84920724D01*
X100649595Y-84928509D01*
X100663228Y-84936239D01*
X100675079Y-84943897D01*
X100685143Y-84951468D01*
X100693414Y-84958934D01*
X100699887Y-84966280D01*
X100704558Y-84973490D01*
X100707421Y-84980547D01*
X100708470Y-84987436D01*
X100707701Y-84994139D01*
X100705109Y-85000642D01*
X100700688Y-85006927D01*
X100694434Y-85012979D01*
X100686340Y-85018782D01*
X100676402Y-85024319D01*
X100664615Y-85029574D01*
X100650973Y-85034531D01*
X100635472Y-85039173D01*
X100618106Y-85043485D01*
X100598871Y-85047450D01*
X100577759Y-85051052D01*
X100554768Y-85054276D01*
X100529892Y-85057104D01*
X100474462Y-85061509D01*
X99567380Y-84986683D01*
X99543961Y-84988599D01*
X99521954Y-84990915D01*
X99501363Y-84993611D01*
X99482192Y-84996668D01*
X99464449Y-85000068D01*
X99448139Y-85003794D01*
X99433267Y-85007826D01*
X99419837Y-85012147D01*
X99407857Y-85016737D01*
X99397332Y-85021579D01*
X99388266Y-85026654D01*
X99380667Y-85031944D01*
X99374539Y-85037430D01*
X99369888Y-85043094D01*
X99366718Y-85048918D01*
X99365037Y-85054883D01*
X99364848Y-85060971D01*
X99366160Y-85067164D01*
X99368974Y-85073442D01*
X99373299Y-85079789D01*
X99379139Y-85086185D01*
X99386501Y-85092611D01*
X99395389Y-85099050D01*
X99405809Y-85105483D01*
X99417766Y-85111893D01*
X99431266Y-85118260D01*
X99446315Y-85124565D01*
X99462918Y-85130792D01*
X99481081Y-85136920D01*
X99500809Y-85142933D01*
X99522108Y-85148811D01*
X99544982Y-85154537D01*
X100439237Y-85266733D01*
X100492147Y-85282230D01*
X100538111Y-85297191D01*
X100577090Y-85311583D01*
X100609049Y-85325371D01*
X100622383Y-85332030D01*
X100633948Y-85338525D01*
X100643738Y-85344852D01*
X100651750Y-85351007D01*
X100657979Y-85356985D01*
X100662418Y-85362784D01*
X100665066Y-85368398D01*
X100665914Y-85373823D01*
X100664962Y-85379055D01*
X100662202Y-85384089D01*
X100657630Y-85388921D01*
X100651241Y-85393548D01*
X100643032Y-85397964D01*
X100632997Y-85402167D01*
X100621130Y-85406151D01*
X100607430Y-85409911D01*
X100574503Y-85416746D01*
X100534178Y-85422638D01*
X100486418Y-85427554D01*
X100431186Y-85431459D01*
X100076134Y-85407620D01*
X99926707Y-85400196D01*
X99777153Y-85395062D01*
X99639544Y-85393652D01*
X99525946Y-85397404D01*
X99486320Y-85400939D01*
X99451442Y-85405641D01*
X99435811Y-85408411D01*
X99421401Y-85411450D01*
X99408226Y-85414751D01*
X99396295Y-85418305D01*
X99385621Y-85422105D01*
X99376217Y-85426142D01*
X99368092Y-85430412D01*
X99361258Y-85434904D01*
X99355730Y-85439611D01*
X99351516Y-85444526D01*
X99348629Y-85449640D01*
X99347081Y-85454948D01*
X99346884Y-85460439D01*
X99348049Y-85466109D01*
X99350588Y-85471947D01*
X99354512Y-85477947D01*
X99359835Y-85484100D01*
X99366567Y-85490400D01*
X99374718Y-85496839D01*
X99384303Y-85503408D01*
X99395333Y-85510101D01*
X99407818Y-85516910D01*
X99421771Y-85523827D01*
X99437204Y-85530843D01*
X99472554Y-85545147D01*
X99513963Y-85559759D01*
X100439131Y-85701805D01*
X100485697Y-85720411D01*
X100525262Y-85737323D01*
X100557937Y-85752676D01*
X100583832Y-85766598D01*
X100594270Y-85773064D01*
X100603052Y-85779222D01*
X100610195Y-85785088D01*
X100615711Y-85790680D01*
X100619612Y-85796012D01*
X100621914Y-85801103D01*
X100622630Y-85805967D01*
X100621772Y-85810623D01*
X100619356Y-85815085D01*
X100615393Y-85819372D01*
X100609899Y-85823498D01*
X100602887Y-85827482D01*
X100594370Y-85831337D01*
X100584363Y-85835083D01*
X100559928Y-85842309D01*
X100529693Y-85849291D01*
X100493767Y-85856159D01*
X100452258Y-85863046D01*
X100405276Y-85870085D01*
X98963678Y-85743962D01*
X98872758Y-85732126D01*
X98788452Y-85712964D01*
X98710703Y-85686993D01*
X98639451Y-85654737D01*
X98574637Y-85616717D01*
X98516203Y-85573455D01*
X98464089Y-85525470D01*
X98418236Y-85473287D01*
X98378587Y-85417425D01*
X98345081Y-85358407D01*
X98317659Y-85296754D01*
X98296262Y-85232986D01*
X98280833Y-85167627D01*
X98271310Y-85101196D01*
X98267637Y-85034216D01*
X98269753Y-84967208D01*
X98277599Y-84900694D01*
X98291118Y-84835195D01*
X98310249Y-84771232D01*
X98334933Y-84709328D01*
X98365112Y-84650002D01*
X98400728Y-84593779D01*
X98441720Y-84541176D01*
X98488029Y-84492719D01*
X98539597Y-84448926D01*
X98596365Y-84410320D01*
X98658275Y-84377423D01*
X98725265Y-84350755D01*
X98797279Y-84330840D01*
X98874256Y-84318196D01*
X98956139Y-84313347D01*
X99042867Y-84316813D01*
G37*
X99042867Y-84316813D02*
X100529788Y-84446902D01*
X100550389Y-84449452D01*
X100570280Y-84452670D01*
X100589403Y-84456507D01*
X100607700Y-84460916D01*
X100625116Y-84465851D01*
X100641591Y-84471263D01*
X100657071Y-84477105D01*
X100671495Y-84483330D01*
X100684809Y-84489890D01*
X100696955Y-84496738D01*
X100707873Y-84503826D01*
X100717510Y-84511107D01*
X100725806Y-84518534D01*
X100732705Y-84526059D01*
X100738149Y-84533634D01*
X100742080Y-84541213D01*
X100744443Y-84548748D01*
X100745179Y-84556190D01*
X100744231Y-84563494D01*
X100741543Y-84570612D01*
X100737057Y-84577495D01*
X100730714Y-84584097D01*
X100722460Y-84590371D01*
X100712235Y-84596268D01*
X100699983Y-84601742D01*
X100685647Y-84606745D01*
X100669169Y-84611229D01*
X100650493Y-84615147D01*
X100629560Y-84618452D01*
X100606314Y-84621096D01*
X100580698Y-84623032D01*
X100552653Y-84624213D01*
X100156252Y-84599588D01*
X100012601Y-84592447D01*
X99867607Y-84588011D01*
X99729510Y-84587830D01*
X99665622Y-84589820D01*
X99606550Y-84593455D01*
X99568058Y-84597411D01*
X99532967Y-84602755D01*
X99501611Y-84609353D01*
X99474323Y-84617073D01*
X99462310Y-84621311D01*
X99451439Y-84625779D01*
X99441753Y-84630461D01*
X99433293Y-84635339D01*
X99426101Y-84640397D01*
X99420219Y-84645618D01*
X99415688Y-84650987D01*
X99412551Y-84656484D01*
X99410850Y-84662095D01*
X99410624Y-84667803D01*
X99411918Y-84673590D01*
X99414772Y-84679440D01*
X99419229Y-84685336D01*
X99425330Y-84691262D01*
X99433116Y-84697202D01*
X99442631Y-84703137D01*
X99453914Y-84709051D01*
X99467010Y-84714929D01*
X99481957Y-84720753D01*
X99498801Y-84726506D01*
X99517580Y-84732171D01*
X99538339Y-84737733D01*
X99561117Y-84743174D01*
X99585957Y-84748478D01*
X99636983Y-84760831D01*
X99695708Y-84772751D01*
X99760616Y-84784187D01*
X99830190Y-84795090D01*
X99977269Y-84815094D01*
X100124815Y-84832363D01*
X100372768Y-84857083D01*
X100476989Y-84866038D01*
X100530658Y-84881535D01*
X100577343Y-84897199D01*
X100598053Y-84905053D01*
X100617002Y-84912900D01*
X100634185Y-84920724D01*
X100649595Y-84928509D01*
X100663228Y-84936239D01*
X100675079Y-84943897D01*
X100685143Y-84951468D01*
X100693414Y-84958934D01*
X100699887Y-84966280D01*
X100704558Y-84973490D01*
X100707421Y-84980547D01*
X100708470Y-84987436D01*
X100707701Y-84994139D01*
X100705109Y-85000642D01*
X100700688Y-85006927D01*
X100694434Y-85012979D01*
X100686340Y-85018782D01*
X100676402Y-85024319D01*
X100664615Y-85029574D01*
X100650973Y-85034531D01*
X100635472Y-85039173D01*
X100618106Y-85043485D01*
X100598871Y-85047450D01*
X100577759Y-85051052D01*
X100554768Y-85054276D01*
X100529892Y-85057104D01*
X100474462Y-85061509D01*
X99567380Y-84986683D01*
X99543961Y-84988599D01*
X99521954Y-84990915D01*
X99501363Y-84993611D01*
X99482192Y-84996668D01*
X99464449Y-85000068D01*
X99448139Y-85003794D01*
X99433267Y-85007826D01*
X99419837Y-85012147D01*
X99407857Y-85016737D01*
X99397332Y-85021579D01*
X99388266Y-85026654D01*
X99380667Y-85031944D01*
X99374539Y-85037430D01*
X99369888Y-85043094D01*
X99366718Y-85048918D01*
X99365037Y-85054883D01*
X99364848Y-85060971D01*
X99366160Y-85067164D01*
X99368974Y-85073442D01*
X99373299Y-85079789D01*
X99379139Y-85086185D01*
X99386501Y-85092611D01*
X99395389Y-85099050D01*
X99405809Y-85105483D01*
X99417766Y-85111893D01*
X99431266Y-85118260D01*
X99446315Y-85124565D01*
X99462918Y-85130792D01*
X99481081Y-85136920D01*
X99500809Y-85142933D01*
X99522108Y-85148811D01*
X99544982Y-85154537D01*
X100439237Y-85266733D01*
X100492147Y-85282230D01*
X100538111Y-85297191D01*
X100577090Y-85311583D01*
X100609049Y-85325371D01*
X100622383Y-85332030D01*
X100633948Y-85338525D01*
X100643738Y-85344852D01*
X100651750Y-85351007D01*
X100657979Y-85356985D01*
X100662418Y-85362784D01*
X100665066Y-85368398D01*
X100665914Y-85373823D01*
X100664962Y-85379055D01*
X100662202Y-85384089D01*
X100657630Y-85388921D01*
X100651241Y-85393548D01*
X100643032Y-85397964D01*
X100632997Y-85402167D01*
X100621130Y-85406151D01*
X100607430Y-85409911D01*
X100574503Y-85416746D01*
X100534178Y-85422638D01*
X100486418Y-85427554D01*
X100431186Y-85431459D01*
X100076134Y-85407620D01*
X99926707Y-85400196D01*
X99777153Y-85395062D01*
X99639544Y-85393652D01*
X99525946Y-85397404D01*
X99486320Y-85400939D01*
X99451442Y-85405641D01*
X99435811Y-85408411D01*
X99421401Y-85411450D01*
X99408226Y-85414751D01*
X99396295Y-85418305D01*
X99385621Y-85422105D01*
X99376217Y-85426142D01*
X99368092Y-85430412D01*
X99361258Y-85434904D01*
X99355730Y-85439611D01*
X99351516Y-85444526D01*
X99348629Y-85449640D01*
X99347081Y-85454948D01*
X99346884Y-85460439D01*
X99348049Y-85466109D01*
X99350588Y-85471947D01*
X99354512Y-85477947D01*
X99359835Y-85484100D01*
X99366567Y-85490400D01*
X99374718Y-85496839D01*
X99384303Y-85503408D01*
X99395333Y-85510101D01*
X99407818Y-85516910D01*
X99421771Y-85523827D01*
X99437204Y-85530843D01*
X99472554Y-85545147D01*
X99513963Y-85559759D01*
X100439131Y-85701805D01*
X100485697Y-85720411D01*
X100525262Y-85737323D01*
X100557937Y-85752676D01*
X100583832Y-85766598D01*
X100594270Y-85773064D01*
X100603052Y-85779222D01*
X100610195Y-85785088D01*
X100615711Y-85790680D01*
X100619612Y-85796012D01*
X100621914Y-85801103D01*
X100622630Y-85805967D01*
X100621772Y-85810623D01*
X100619356Y-85815085D01*
X100615393Y-85819372D01*
X100609899Y-85823498D01*
X100602887Y-85827482D01*
X100594370Y-85831337D01*
X100584363Y-85835083D01*
X100559928Y-85842309D01*
X100529693Y-85849291D01*
X100493767Y-85856159D01*
X100452258Y-85863046D01*
X100405276Y-85870085D01*
X98963678Y-85743962D01*
X98872758Y-85732126D01*
X98788452Y-85712964D01*
X98710703Y-85686993D01*
X98639451Y-85654737D01*
X98574637Y-85616717D01*
X98516203Y-85573455D01*
X98464089Y-85525470D01*
X98418236Y-85473287D01*
X98378587Y-85417425D01*
X98345081Y-85358407D01*
X98317659Y-85296754D01*
X98296262Y-85232986D01*
X98280833Y-85167627D01*
X98271310Y-85101196D01*
X98267637Y-85034216D01*
X98269753Y-84967208D01*
X98277599Y-84900694D01*
X98291118Y-84835195D01*
X98310249Y-84771232D01*
X98334933Y-84709328D01*
X98365112Y-84650002D01*
X98400728Y-84593779D01*
X98441720Y-84541176D01*
X98488029Y-84492719D01*
X98539597Y-84448926D01*
X98596365Y-84410320D01*
X98658275Y-84377423D01*
X98725265Y-84350755D01*
X98797279Y-84330840D01*
X98874256Y-84318196D01*
X98956139Y-84313347D01*
X99042867Y-84316813D01*
X98336298Y-84701176D02*
X98321413Y-84732920D01*
X98321413Y-84732920D02*
X98308255Y-84765384D01*
X98308255Y-84765384D02*
X98296803Y-84798489D01*
X98296803Y-84798489D02*
X98287037Y-84832157D01*
X98287037Y-84832157D02*
X98278939Y-84866309D01*
X98278939Y-84866309D02*
X98272488Y-84900867D01*
X98272488Y-84900867D02*
X98267664Y-84935753D01*
X98267664Y-84935753D02*
X98264447Y-84970887D01*
X98264447Y-84970887D02*
X98262819Y-85006191D01*
X98262819Y-85006191D02*
X98262760Y-85041588D01*
X98262760Y-85041588D02*
X98264249Y-85076999D01*
X98264249Y-85076999D02*
X98267267Y-85112344D01*
X98267267Y-85112344D02*
X98271795Y-85147547D01*
X98271795Y-85147547D02*
X98277813Y-85182526D01*
X98277813Y-85182526D02*
X98285299Y-85217207D01*
X98285299Y-85217207D02*
X98294238Y-85251508D01*
X98294238Y-85251508D02*
X97474939Y-85118049D01*
X97474939Y-85118049D02*
X96699493Y-85020625D01*
X96699493Y-85020625D02*
X95958909Y-84951848D01*
X95958909Y-84951848D02*
X95244198Y-84904335D01*
X95244198Y-84904335D02*
X92464271Y-84779216D01*
X92464271Y-84779216D02*
X92448175Y-84777812D01*
X92448175Y-84777812D02*
X92432369Y-84775579D01*
X92432369Y-84775579D02*
X92416867Y-84772541D01*
X92416867Y-84772541D02*
X92401692Y-84768722D01*
X92401692Y-84768722D02*
X92386856Y-84764144D01*
X92386856Y-84764144D02*
X92372380Y-84758834D01*
X92372380Y-84758834D02*
X92358281Y-84752811D01*
X92358281Y-84752811D02*
X92344576Y-84746102D01*
X92344576Y-84746102D02*
X92331282Y-84738729D01*
X92331282Y-84738729D02*
X92318416Y-84730716D01*
X92318416Y-84730716D02*
X92305998Y-84722086D01*
X92305998Y-84722086D02*
X92294044Y-84712864D01*
X92294044Y-84712864D02*
X92282571Y-84703072D01*
X92282571Y-84703072D02*
X92271597Y-84692734D01*
X92271597Y-84692734D02*
X92261140Y-84681874D01*
X92261140Y-84681874D02*
X92251217Y-84670514D01*
X92251217Y-84670514D02*
X92241846Y-84658680D01*
X92241846Y-84658680D02*
X92233043Y-84646394D01*
X92233043Y-84646394D02*
X92224828Y-84633679D01*
X92224828Y-84633679D02*
X92217217Y-84620561D01*
X92217217Y-84620561D02*
X92210227Y-84607060D01*
X92210227Y-84607060D02*
X92203875Y-84593203D01*
X92203875Y-84593203D02*
X92198182Y-84579011D01*
X92198182Y-84579011D02*
X92193161Y-84564509D01*
X92193161Y-84564509D02*
X92188833Y-84549721D01*
X92188833Y-84549721D02*
X92185214Y-84534668D01*
X92185214Y-84534668D02*
X92182322Y-84519377D01*
X92182322Y-84519377D02*
X92180173Y-84503867D01*
X92180173Y-84503867D02*
X92178787Y-84488167D01*
X92178787Y-84488167D02*
X92178179Y-84472296D01*
X92178179Y-84472296D02*
X92178369Y-84456281D01*
X92178369Y-84456281D02*
X92179372Y-84440143D01*
X92179372Y-84440143D02*
X92181189Y-84424059D01*
X92181189Y-84424059D02*
X92183790Y-84408204D01*
X92183790Y-84408204D02*
X92187153Y-84392601D01*
X92187153Y-84392601D02*
X92191258Y-84377276D01*
X92191258Y-84377276D02*
X92196082Y-84362249D01*
X92196082Y-84362249D02*
X92201603Y-84347546D01*
X92201603Y-84347546D02*
X92207801Y-84333190D01*
X92207801Y-84333190D02*
X92214653Y-84319204D01*
X92214653Y-84319204D02*
X92222137Y-84305611D01*
X92222137Y-84305611D02*
X92230232Y-84292436D01*
X92230232Y-84292436D02*
X92238916Y-84279702D01*
X92238916Y-84279702D02*
X92248167Y-84267432D01*
X92248167Y-84267432D02*
X92257963Y-84255649D01*
X92257963Y-84255649D02*
X92268284Y-84244377D01*
X92268284Y-84244377D02*
X92279106Y-84233641D01*
X92279106Y-84233641D02*
X92290409Y-84223462D01*
X92290409Y-84223462D02*
X92302170Y-84213866D01*
X92302170Y-84213866D02*
X92314367Y-84204874D01*
X92314367Y-84204874D02*
X92326980Y-84196511D01*
X92326980Y-84196511D02*
X92339986Y-84188800D01*
X92339986Y-84188800D02*
X92353363Y-84181765D01*
X92353363Y-84181765D02*
X92367091Y-84175430D01*
X92367091Y-84175430D02*
X92381146Y-84169816D01*
X92381146Y-84169816D02*
X92395508Y-84164949D01*
X92395508Y-84164949D02*
X92410155Y-84160851D01*
X92410155Y-84160851D02*
X92425064Y-84157547D01*
X92425064Y-84157547D02*
X92440214Y-84155059D01*
X92440214Y-84155059D02*
X92455584Y-84153412D01*
X92455584Y-84153412D02*
X92471152Y-84152628D01*
X92471152Y-84152628D02*
X92486895Y-84152732D01*
X92486895Y-84152732D02*
X92502792Y-84153745D01*
X92502792Y-84153745D02*
X92518822Y-84155694D01*
X92518822Y-84155694D02*
X93967810Y-84364357D01*
X93967810Y-84364357D02*
X94692467Y-84457386D01*
X94692467Y-84457386D02*
X95417864Y-84539270D01*
X95417864Y-84539270D02*
X96144472Y-84607300D01*
X96144472Y-84607300D02*
X96872766Y-84658766D01*
X96872766Y-84658766D02*
X97603217Y-84690961D01*
X97603217Y-84690961D02*
X98336299Y-84701176D01*
X98336299Y-84701176D02*
X98336298Y-84701176D01*
X98336298Y-84701176D02*
X98336298Y-84701176D01*
G36*
X92486895Y-84152732D02*
G01*
X92502792Y-84153745D01*
X92518822Y-84155694D01*
X93967810Y-84364357D01*
X94692467Y-84457386D01*
X95417864Y-84539270D01*
X96144472Y-84607300D01*
X96872766Y-84658766D01*
X97603217Y-84690961D01*
X98336299Y-84701176D01*
X98336298Y-84701176D01*
X98321413Y-84732920D01*
X98308255Y-84765384D01*
X98296803Y-84798489D01*
X98287037Y-84832157D01*
X98278939Y-84866309D01*
X98272488Y-84900867D01*
X98267664Y-84935753D01*
X98264447Y-84970887D01*
X98262819Y-85006191D01*
X98262760Y-85041588D01*
X98264249Y-85076999D01*
X98267267Y-85112344D01*
X98271795Y-85147547D01*
X98277813Y-85182526D01*
X98285299Y-85217207D01*
X98294238Y-85251508D01*
X97474939Y-85118049D01*
X96699493Y-85020625D01*
X95958909Y-84951848D01*
X95244198Y-84904335D01*
X92464271Y-84779216D01*
X92448175Y-84777812D01*
X92432369Y-84775579D01*
X92416867Y-84772541D01*
X92401692Y-84768722D01*
X92386856Y-84764144D01*
X92372380Y-84758834D01*
X92358281Y-84752811D01*
X92344576Y-84746102D01*
X92331282Y-84738729D01*
X92318416Y-84730716D01*
X92305998Y-84722086D01*
X92294044Y-84712864D01*
X92282571Y-84703072D01*
X92271597Y-84692734D01*
X92261140Y-84681874D01*
X92251217Y-84670514D01*
X92241846Y-84658680D01*
X92233043Y-84646394D01*
X92224828Y-84633679D01*
X92217217Y-84620561D01*
X92210227Y-84607060D01*
X92203875Y-84593203D01*
X92198182Y-84579011D01*
X92193161Y-84564509D01*
X92188833Y-84549721D01*
X92185214Y-84534668D01*
X92182322Y-84519377D01*
X92180173Y-84503867D01*
X92178787Y-84488167D01*
X92178179Y-84472296D01*
X92178369Y-84456281D01*
X92179372Y-84440143D01*
X92181189Y-84424059D01*
X92183790Y-84408204D01*
X92187153Y-84392601D01*
X92191258Y-84377276D01*
X92196082Y-84362249D01*
X92201603Y-84347546D01*
X92207801Y-84333190D01*
X92214653Y-84319204D01*
X92222137Y-84305611D01*
X92230232Y-84292436D01*
X92238916Y-84279702D01*
X92248167Y-84267432D01*
X92257963Y-84255649D01*
X92268284Y-84244377D01*
X92279106Y-84233641D01*
X92290409Y-84223462D01*
X92302170Y-84213866D01*
X92314367Y-84204874D01*
X92326980Y-84196511D01*
X92339986Y-84188800D01*
X92353363Y-84181765D01*
X92367091Y-84175430D01*
X92381146Y-84169816D01*
X92395508Y-84164949D01*
X92410155Y-84160851D01*
X92425064Y-84157547D01*
X92440214Y-84155059D01*
X92455584Y-84153412D01*
X92471152Y-84152628D01*
X92486895Y-84152732D01*
G37*
X92486895Y-84152732D02*
X92502792Y-84153745D01*
X92518822Y-84155694D01*
X93967810Y-84364357D01*
X94692467Y-84457386D01*
X95417864Y-84539270D01*
X96144472Y-84607300D01*
X96872766Y-84658766D01*
X97603217Y-84690961D01*
X98336299Y-84701176D01*
X98336298Y-84701176D01*
X98321413Y-84732920D01*
X98308255Y-84765384D01*
X98296803Y-84798489D01*
X98287037Y-84832157D01*
X98278939Y-84866309D01*
X98272488Y-84900867D01*
X98267664Y-84935753D01*
X98264447Y-84970887D01*
X98262819Y-85006191D01*
X98262760Y-85041588D01*
X98264249Y-85076999D01*
X98267267Y-85112344D01*
X98271795Y-85147547D01*
X98277813Y-85182526D01*
X98285299Y-85217207D01*
X98294238Y-85251508D01*
X97474939Y-85118049D01*
X96699493Y-85020625D01*
X95958909Y-84951848D01*
X95244198Y-84904335D01*
X92464271Y-84779216D01*
X92448175Y-84777812D01*
X92432369Y-84775579D01*
X92416867Y-84772541D01*
X92401692Y-84768722D01*
X92386856Y-84764144D01*
X92372380Y-84758834D01*
X92358281Y-84752811D01*
X92344576Y-84746102D01*
X92331282Y-84738729D01*
X92318416Y-84730716D01*
X92305998Y-84722086D01*
X92294044Y-84712864D01*
X92282571Y-84703072D01*
X92271597Y-84692734D01*
X92261140Y-84681874D01*
X92251217Y-84670514D01*
X92241846Y-84658680D01*
X92233043Y-84646394D01*
X92224828Y-84633679D01*
X92217217Y-84620561D01*
X92210227Y-84607060D01*
X92203875Y-84593203D01*
X92198182Y-84579011D01*
X92193161Y-84564509D01*
X92188833Y-84549721D01*
X92185214Y-84534668D01*
X92182322Y-84519377D01*
X92180173Y-84503867D01*
X92178787Y-84488167D01*
X92178179Y-84472296D01*
X92178369Y-84456281D01*
X92179372Y-84440143D01*
X92181189Y-84424059D01*
X92183790Y-84408204D01*
X92187153Y-84392601D01*
X92191258Y-84377276D01*
X92196082Y-84362249D01*
X92201603Y-84347546D01*
X92207801Y-84333190D01*
X92214653Y-84319204D01*
X92222137Y-84305611D01*
X92230232Y-84292436D01*
X92238916Y-84279702D01*
X92248167Y-84267432D01*
X92257963Y-84255649D01*
X92268284Y-84244377D01*
X92279106Y-84233641D01*
X92290409Y-84223462D01*
X92302170Y-84213866D01*
X92314367Y-84204874D01*
X92326980Y-84196511D01*
X92339986Y-84188800D01*
X92353363Y-84181765D01*
X92367091Y-84175430D01*
X92381146Y-84169816D01*
X92395508Y-84164949D01*
X92410155Y-84160851D01*
X92425064Y-84157547D01*
X92440214Y-84155059D01*
X92455584Y-84153412D01*
X92471152Y-84152628D01*
X92486895Y-84152732D01*
D11*
X75129462Y-104707135D02*
X74955814Y-103722327D01*
X75330979Y-103656176D01*
X75433039Y-103686533D01*
X75488204Y-103725160D01*
X75551637Y-103810682D01*
X75576444Y-103951369D01*
X75546086Y-104053429D01*
X75507460Y-104108594D01*
X75421937Y-104172027D01*
X75046773Y-104238179D01*
X76017760Y-104260382D02*
X76486717Y-104177693D01*
X75973583Y-104558294D02*
X76128204Y-103515603D01*
X76630122Y-104442528D01*
X77521138Y-104285418D02*
X77110179Y-103874345D01*
X76958391Y-104384646D02*
X76784743Y-103399838D01*
X77159907Y-103333686D01*
X77261968Y-103364044D01*
X77317132Y-103402670D01*
X77380566Y-103488193D01*
X77405373Y-103628880D01*
X77375015Y-103730940D01*
X77336388Y-103786104D01*
X77250866Y-103849538D01*
X76875701Y-103915689D01*
X77628864Y-103250997D02*
X78191611Y-103151769D01*
X78083885Y-104186190D02*
X77910237Y-103201383D01*
X79681169Y-103372656D02*
X79352899Y-103430539D01*
X79443858Y-103946391D02*
X79270210Y-102961583D01*
X79739166Y-102878893D01*
X80191470Y-103524445D02*
X80660426Y-103441755D01*
X80147292Y-103822356D02*
X80301913Y-102779666D01*
X80803831Y-103706591D01*
X81132100Y-103648708D02*
X80958452Y-102663900D01*
X81694847Y-103549481D01*
X81521199Y-102564673D01*
X118253952Y-104006681D02*
X118427600Y-103021873D01*
X118802765Y-103088024D01*
X118888287Y-103151458D01*
X118926914Y-103206623D01*
X118957271Y-103308683D01*
X118932465Y-103449370D01*
X118869031Y-103534892D01*
X118813867Y-103573518D01*
X118711806Y-103603876D01*
X118336641Y-103537724D01*
X119241478Y-103890686D02*
X119710434Y-103973376D01*
X119098073Y-104155522D02*
X119599990Y-103228597D01*
X119754611Y-104271287D01*
X120645628Y-104428398D02*
X120400048Y-103901559D01*
X120082881Y-104329170D02*
X120256529Y-103344362D01*
X120631694Y-103410514D01*
X120717216Y-103473947D01*
X120755842Y-103529112D01*
X120786200Y-103631172D01*
X120761393Y-103771859D01*
X120697960Y-103857381D01*
X120642795Y-103896008D01*
X120540735Y-103926366D01*
X120165570Y-103860214D01*
X121100650Y-103493204D02*
X121663397Y-103592431D01*
X121208375Y-104527625D02*
X121382023Y-103542817D01*
X122987576Y-104309456D02*
X122659306Y-104251573D01*
X122568348Y-104767425D02*
X122741996Y-103782617D01*
X123210952Y-103865307D01*
X123415187Y-104626624D02*
X123884143Y-104709313D01*
X123271782Y-104891459D02*
X123773699Y-103964534D01*
X123928320Y-105007225D01*
X124256590Y-105065107D02*
X124430238Y-104080300D01*
X124819337Y-105164335D01*
X124992985Y-104179527D01*
X91893546Y-106177373D02*
X92393546Y-105311347D01*
X92155450Y-105723741D02*
X92650322Y-106009455D01*
X92388417Y-106463087D02*
X92888417Y-105597062D01*
X93062715Y-106247550D02*
X93351390Y-106414217D01*
X93213203Y-106939278D02*
X92800810Y-106701182D01*
X93300810Y-105835157D01*
X93713203Y-106073252D01*
X93685975Y-106882318D02*
X94098368Y-107120413D01*
X93460639Y-107082135D02*
X94249314Y-106382776D01*
X94037989Y-107415468D01*
X94702947Y-106644681D02*
X95197818Y-106930395D01*
X94450382Y-107653563D02*
X94950382Y-106787538D01*
X95248398Y-107509455D02*
X95537073Y-107676121D01*
X95398886Y-108201182D02*
X94986493Y-107963087D01*
X95486493Y-107097062D01*
X95898886Y-107335157D01*
X96264912Y-108701182D02*
X96214332Y-108122123D01*
X95770040Y-108415468D02*
X96270040Y-107549443D01*
X96599955Y-107739919D01*
X96658624Y-107828777D01*
X96676053Y-107893826D01*
X96669674Y-108000114D01*
X96598245Y-108123832D01*
X96509387Y-108182501D01*
X96444338Y-108199931D01*
X96338050Y-108193551D01*
X96008135Y-108003075D01*
X89504666Y-88293380D02*
X89504666Y-87293380D01*
X89504666Y-88245761D02*
X89409428Y-88293380D01*
X89218952Y-88293380D01*
X89123714Y-88245761D01*
X89076095Y-88198142D01*
X89028476Y-88102904D01*
X89028476Y-87817190D01*
X89076095Y-87721952D01*
X89123714Y-87674333D01*
X89218952Y-87626714D01*
X89409428Y-87626714D01*
X89504666Y-87674333D01*
X90361809Y-88245761D02*
X90266571Y-88293380D01*
X90076095Y-88293380D01*
X89980857Y-88245761D01*
X89933238Y-88150523D01*
X89933238Y-87769571D01*
X89980857Y-87674333D01*
X90076095Y-87626714D01*
X90266571Y-87626714D01*
X90361809Y-87674333D01*
X90409428Y-87769571D01*
X90409428Y-87864809D01*
X89933238Y-87960047D01*
X90790380Y-88245761D02*
X90885619Y-88293380D01*
X91076095Y-88293380D01*
X91171333Y-88245761D01*
X91218952Y-88150523D01*
X91218952Y-88102904D01*
X91171333Y-88007666D01*
X91076095Y-87960047D01*
X90933238Y-87960047D01*
X90838000Y-87912428D01*
X90790380Y-87817190D01*
X90790380Y-87769571D01*
X90838000Y-87674333D01*
X90933238Y-87626714D01*
X91076095Y-87626714D01*
X91171333Y-87674333D01*
X91647523Y-88293380D02*
X91647523Y-87626714D01*
X91647523Y-87293380D02*
X91599904Y-87341000D01*
X91647523Y-87388619D01*
X91695142Y-87341000D01*
X91647523Y-87293380D01*
X91647523Y-87388619D01*
X92552285Y-87626714D02*
X92552285Y-88436238D01*
X92504666Y-88531476D01*
X92457047Y-88579095D01*
X92361809Y-88626714D01*
X92218952Y-88626714D01*
X92123714Y-88579095D01*
X92552285Y-88245761D02*
X92457047Y-88293380D01*
X92266571Y-88293380D01*
X92171333Y-88245761D01*
X92123714Y-88198142D01*
X92076095Y-88102904D01*
X92076095Y-87817190D01*
X92123714Y-87721952D01*
X92171333Y-87674333D01*
X92266571Y-87626714D01*
X92457047Y-87626714D01*
X92552285Y-87674333D01*
X93028476Y-87626714D02*
X93028476Y-88293380D01*
X93028476Y-87721952D02*
X93076095Y-87674333D01*
X93171333Y-87626714D01*
X93314190Y-87626714D01*
X93409428Y-87674333D01*
X93457047Y-87769571D01*
X93457047Y-88293380D01*
X94695142Y-88293380D02*
X94695142Y-87293380D01*
X94695142Y-87674333D02*
X94790380Y-87626714D01*
X94980857Y-87626714D01*
X95076095Y-87674333D01*
X95123714Y-87721952D01*
X95171333Y-87817190D01*
X95171333Y-88102904D01*
X95123714Y-88198142D01*
X95076095Y-88245761D01*
X94980857Y-88293380D01*
X94790380Y-88293380D01*
X94695142Y-88245761D01*
X95504666Y-87626714D02*
X95742761Y-88293380D01*
X95980857Y-87626714D02*
X95742761Y-88293380D01*
X95647523Y-88531476D01*
X95599904Y-88579095D01*
X95504666Y-88626714D01*
X96361809Y-88198142D02*
X96409428Y-88245761D01*
X96361809Y-88293380D01*
X96314190Y-88245761D01*
X96361809Y-88198142D01*
X96361809Y-88293380D01*
X96361809Y-87674333D02*
X96409428Y-87721952D01*
X96361809Y-87769571D01*
X96314190Y-87721952D01*
X96361809Y-87674333D01*
X96361809Y-87769571D01*
X98028476Y-88245761D02*
X97933238Y-88293380D01*
X97742761Y-88293380D01*
X97647523Y-88245761D01*
X97599904Y-88198142D01*
X97552285Y-88102904D01*
X97552285Y-87817190D01*
X97599904Y-87721952D01*
X97647523Y-87674333D01*
X97742761Y-87626714D01*
X97933238Y-87626714D01*
X98028476Y-87674333D01*
X98457047Y-88293380D02*
X98457047Y-87293380D01*
X98885619Y-88293380D02*
X98885619Y-87769571D01*
X98838000Y-87674333D01*
X98742761Y-87626714D01*
X98599904Y-87626714D01*
X98504666Y-87674333D01*
X98457047Y-87721952D01*
X99361809Y-88293380D02*
X99361809Y-87626714D01*
X99361809Y-87817190D02*
X99409428Y-87721952D01*
X99457047Y-87674333D01*
X99552285Y-87626714D01*
X99647523Y-87626714D01*
X99980857Y-88293380D02*
X99980857Y-87626714D01*
X99980857Y-87293380D02*
X99933238Y-87341000D01*
X99980857Y-87388619D01*
X100028476Y-87341000D01*
X99980857Y-87293380D01*
X99980857Y-87388619D01*
X100409428Y-88245761D02*
X100504666Y-88293380D01*
X100695142Y-88293380D01*
X100790380Y-88245761D01*
X100838000Y-88150523D01*
X100838000Y-88102904D01*
X100790380Y-88007666D01*
X100695142Y-87960047D01*
X100552285Y-87960047D01*
X100457047Y-87912428D01*
X100409428Y-87817190D01*
X100409428Y-87769571D01*
X100457047Y-87674333D01*
X100552285Y-87626714D01*
X100695142Y-87626714D01*
X100790380Y-87674333D01*
X101123714Y-87626714D02*
X101504666Y-87626714D01*
X101266571Y-87293380D02*
X101266571Y-88150523D01*
X101314190Y-88245761D01*
X101409428Y-88293380D01*
X101504666Y-88293380D01*
X101980857Y-88293380D02*
X101885619Y-88245761D01*
X101838000Y-88198142D01*
X101790380Y-88102904D01*
X101790380Y-87817190D01*
X101838000Y-87721952D01*
X101885619Y-87674333D01*
X101980857Y-87626714D01*
X102123714Y-87626714D01*
X102218952Y-87674333D01*
X102266571Y-87721952D01*
X102314190Y-87817190D01*
X102314190Y-88102904D01*
X102266571Y-88198142D01*
X102218952Y-88245761D01*
X102123714Y-88293380D01*
X101980857Y-88293380D01*
X102742761Y-87626714D02*
X102742761Y-88626714D01*
X102742761Y-87674333D02*
X102838000Y-87626714D01*
X103028476Y-87626714D01*
X103123714Y-87674333D01*
X103171333Y-87721952D01*
X103218952Y-87817190D01*
X103218952Y-88102904D01*
X103171333Y-88198142D01*
X103123714Y-88245761D01*
X103028476Y-88293380D01*
X102838000Y-88293380D01*
X102742761Y-88245761D01*
X103647523Y-88293380D02*
X103647523Y-87293380D01*
X104076095Y-88293380D02*
X104076095Y-87769571D01*
X104028476Y-87674333D01*
X103933238Y-87626714D01*
X103790380Y-87626714D01*
X103695142Y-87674333D01*
X103647523Y-87721952D01*
X104552285Y-88293380D02*
X104552285Y-87626714D01*
X104552285Y-87721952D02*
X104599904Y-87674333D01*
X104695142Y-87626714D01*
X104838000Y-87626714D01*
X104933238Y-87674333D01*
X104980857Y-87769571D01*
X104980857Y-88293380D01*
X104980857Y-87769571D02*
X105028476Y-87674333D01*
X105123714Y-87626714D01*
X105266571Y-87626714D01*
X105361809Y-87674333D01*
X105409428Y-87769571D01*
X105409428Y-88293380D01*
X106314190Y-87626714D02*
X106314190Y-88293380D01*
X105885619Y-87626714D02*
X105885619Y-88150523D01*
X105933238Y-88245761D01*
X106028476Y-88293380D01*
X106171333Y-88293380D01*
X106266571Y-88245761D01*
X106314190Y-88198142D01*
X107171333Y-88245761D02*
X107076095Y-88293380D01*
X106885619Y-88293380D01*
X106790380Y-88245761D01*
X106742761Y-88150523D01*
X106742761Y-87769571D01*
X106790380Y-87674333D01*
X106885619Y-87626714D01*
X107076095Y-87626714D01*
X107171333Y-87674333D01*
X107218952Y-87769571D01*
X107218952Y-87864809D01*
X106742761Y-87960047D01*
X107790380Y-88293380D02*
X107695142Y-88245761D01*
X107647523Y-88150523D01*
X107647523Y-87293380D01*
X108314190Y-88293380D02*
X108218952Y-88245761D01*
X108171333Y-88150523D01*
X108171333Y-87293380D01*
X109076095Y-88245761D02*
X108980857Y-88293380D01*
X108790380Y-88293380D01*
X108695142Y-88245761D01*
X108647523Y-88150523D01*
X108647523Y-87769571D01*
X108695142Y-87674333D01*
X108790380Y-87626714D01*
X108980857Y-87626714D01*
X109076095Y-87674333D01*
X109123714Y-87769571D01*
X109123714Y-87864809D01*
X108647523Y-87960047D01*
X109552285Y-88293380D02*
X109552285Y-87626714D01*
X109552285Y-87817190D02*
X109599904Y-87721952D01*
X109647523Y-87674333D01*
X109742761Y-87626714D01*
X109838000Y-87626714D01*
X110171333Y-88198142D02*
X110218952Y-88245761D01*
X110171333Y-88293380D01*
X110123714Y-88245761D01*
X110171333Y-88198142D01*
X110171333Y-88293380D01*
X110790380Y-88293380D02*
X110695142Y-88245761D01*
X110647523Y-88198142D01*
X110599904Y-88102904D01*
X110599904Y-87817190D01*
X110647523Y-87721952D01*
X110695142Y-87674333D01*
X110790380Y-87626714D01*
X110933238Y-87626714D01*
X111028476Y-87674333D01*
X111076095Y-87721952D01*
X111123714Y-87817190D01*
X111123714Y-88102904D01*
X111076095Y-88198142D01*
X111028476Y-88245761D01*
X110933238Y-88293380D01*
X110790380Y-88293380D01*
X111552285Y-88293380D02*
X111552285Y-87626714D01*
X111552285Y-87817190D02*
X111599904Y-87721952D01*
X111647523Y-87674333D01*
X111742761Y-87626714D01*
X111838000Y-87626714D01*
X112599904Y-87626714D02*
X112599904Y-88436238D01*
X112552285Y-88531476D01*
X112504666Y-88579095D01*
X112409428Y-88626714D01*
X112266571Y-88626714D01*
X112171333Y-88579095D01*
X112599904Y-88245761D02*
X112504666Y-88293380D01*
X112314190Y-88293380D01*
X112218952Y-88245761D01*
X112171333Y-88198142D01*
X112123714Y-88102904D01*
X112123714Y-87817190D01*
X112171333Y-87721952D01*
X112218952Y-87674333D01*
X112314190Y-87626714D01*
X112504666Y-87626714D01*
X112599904Y-87674333D01*
X99123714Y-88998619D02*
X99171333Y-88951000D01*
X99266571Y-88903380D01*
X99504666Y-88903380D01*
X99599904Y-88951000D01*
X99647523Y-88998619D01*
X99695142Y-89093857D01*
X99695142Y-89189095D01*
X99647523Y-89331952D01*
X99076095Y-89903380D01*
X99695142Y-89903380D01*
X100314190Y-88903380D02*
X100409428Y-88903380D01*
X100504666Y-88951000D01*
X100552285Y-88998619D01*
X100599904Y-89093857D01*
X100647523Y-89284333D01*
X100647523Y-89522428D01*
X100599904Y-89712904D01*
X100552285Y-89808142D01*
X100504666Y-89855761D01*
X100409428Y-89903380D01*
X100314190Y-89903380D01*
X100218952Y-89855761D01*
X100171333Y-89808142D01*
X100123714Y-89712904D01*
X100076095Y-89522428D01*
X100076095Y-89284333D01*
X100123714Y-89093857D01*
X100171333Y-88998619D01*
X100218952Y-88951000D01*
X100314190Y-88903380D01*
X101028476Y-88998619D02*
X101076095Y-88951000D01*
X101171333Y-88903380D01*
X101409428Y-88903380D01*
X101504666Y-88951000D01*
X101552285Y-88998619D01*
X101599904Y-89093857D01*
X101599904Y-89189095D01*
X101552285Y-89331952D01*
X100980857Y-89903380D01*
X101599904Y-89903380D01*
X102552285Y-89903380D02*
X101980857Y-89903380D01*
X102266571Y-89903380D02*
X102266571Y-88903380D01*
X102171333Y-89046238D01*
X102076095Y-89141476D01*
X101980857Y-89189095D01*
X89653885Y-90369914D02*
X90034838Y-90369914D01*
X89796742Y-91036580D02*
X89796742Y-90179438D01*
X89844361Y-90084200D01*
X89939600Y-90036580D01*
X90034838Y-90036580D01*
X90511028Y-91036580D02*
X90415790Y-90988961D01*
X90368171Y-90941342D01*
X90320552Y-90846104D01*
X90320552Y-90560390D01*
X90368171Y-90465152D01*
X90415790Y-90417533D01*
X90511028Y-90369914D01*
X90653885Y-90369914D01*
X90749123Y-90417533D01*
X90796742Y-90465152D01*
X90844361Y-90560390D01*
X90844361Y-90846104D01*
X90796742Y-90941342D01*
X90749123Y-90988961D01*
X90653885Y-91036580D01*
X90511028Y-91036580D01*
X91272933Y-91036580D02*
X91272933Y-90369914D01*
X91272933Y-90560390D02*
X91320552Y-90465152D01*
X91368171Y-90417533D01*
X91463409Y-90369914D01*
X91558647Y-90369914D01*
X91891980Y-91036580D02*
X91891980Y-90036580D01*
X91987219Y-90655628D02*
X92272933Y-91036580D01*
X92272933Y-90369914D02*
X91891980Y-90750866D01*
X93463409Y-91036580D02*
X93463409Y-90036580D01*
X93463409Y-90417533D02*
X93558647Y-90369914D01*
X93749123Y-90369914D01*
X93844361Y-90417533D01*
X93891980Y-90465152D01*
X93939600Y-90560390D01*
X93939600Y-90846104D01*
X93891980Y-90941342D01*
X93844361Y-90988961D01*
X93749123Y-91036580D01*
X93558647Y-91036580D01*
X93463409Y-90988961D01*
X94272933Y-90369914D02*
X94511028Y-91036580D01*
X94749123Y-90369914D02*
X94511028Y-91036580D01*
X94415790Y-91274676D01*
X94368171Y-91322295D01*
X94272933Y-91369914D01*
X95130076Y-90941342D02*
X95177695Y-90988961D01*
X95130076Y-91036580D01*
X95082457Y-90988961D01*
X95130076Y-90941342D01*
X95130076Y-91036580D01*
X95130076Y-90417533D02*
X95177695Y-90465152D01*
X95130076Y-90512771D01*
X95082457Y-90465152D01*
X95130076Y-90417533D01*
X95130076Y-90512771D01*
X96368171Y-91036580D02*
X96368171Y-90369914D01*
X96368171Y-90465152D02*
X96415790Y-90417533D01*
X96511028Y-90369914D01*
X96653885Y-90369914D01*
X96749123Y-90417533D01*
X96796742Y-90512771D01*
X96796742Y-91036580D01*
X96796742Y-90512771D02*
X96844361Y-90417533D01*
X96939600Y-90369914D01*
X97082457Y-90369914D01*
X97177695Y-90417533D01*
X97225314Y-90512771D01*
X97225314Y-91036580D01*
X98130076Y-91036580D02*
X98130076Y-90512771D01*
X98082457Y-90417533D01*
X97987219Y-90369914D01*
X97796742Y-90369914D01*
X97701504Y-90417533D01*
X98130076Y-90988961D02*
X98034838Y-91036580D01*
X97796742Y-91036580D01*
X97701504Y-90988961D01*
X97653885Y-90893723D01*
X97653885Y-90798485D01*
X97701504Y-90703247D01*
X97796742Y-90655628D01*
X98034838Y-90655628D01*
X98130076Y-90608009D01*
X98463409Y-90369914D02*
X98844361Y-90369914D01*
X98606266Y-90036580D02*
X98606266Y-90893723D01*
X98653885Y-90988961D01*
X98749123Y-91036580D01*
X98844361Y-91036580D01*
X99034838Y-90369914D02*
X99415790Y-90369914D01*
X99177695Y-90036580D02*
X99177695Y-90893723D01*
X99225314Y-90988961D01*
X99320552Y-91036580D01*
X99415790Y-91036580D01*
X99749123Y-91036580D02*
X99749123Y-90036580D01*
X100177695Y-91036580D02*
X100177695Y-90512771D01*
X100130076Y-90417533D01*
X100034838Y-90369914D01*
X99891980Y-90369914D01*
X99796742Y-90417533D01*
X99749123Y-90465152D01*
X101034838Y-90988961D02*
X100939600Y-91036580D01*
X100749123Y-91036580D01*
X100653885Y-90988961D01*
X100606266Y-90893723D01*
X100606266Y-90512771D01*
X100653885Y-90417533D01*
X100749123Y-90369914D01*
X100939600Y-90369914D01*
X101034838Y-90417533D01*
X101082457Y-90512771D01*
X101082457Y-90608009D01*
X100606266Y-90703247D01*
X101415790Y-90369914D02*
X101606266Y-91036580D01*
X101796742Y-90560390D01*
X101987219Y-91036580D01*
X102177695Y-90369914D01*
X104130076Y-91036580D02*
X104082457Y-91036580D01*
X103987219Y-90988961D01*
X103844361Y-90846104D01*
X103606266Y-90560390D01*
X103511028Y-90417533D01*
X103463409Y-90274676D01*
X103463409Y-90179438D01*
X103511028Y-90084200D01*
X103606266Y-90036580D01*
X103653885Y-90036580D01*
X103749123Y-90084200D01*
X103796742Y-90179438D01*
X103796742Y-90227057D01*
X103749123Y-90322295D01*
X103701504Y-90369914D01*
X103415790Y-90560390D01*
X103368171Y-90608009D01*
X103320552Y-90703247D01*
X103320552Y-90846104D01*
X103368171Y-90941342D01*
X103415790Y-90988961D01*
X103511028Y-91036580D01*
X103653885Y-91036580D01*
X103749123Y-90988961D01*
X103796742Y-90941342D01*
X103939600Y-90750866D01*
X103987219Y-90608009D01*
X103987219Y-90512771D01*
X105939600Y-90560390D02*
X105891980Y-90512771D01*
X105796742Y-90465152D01*
X105701504Y-90465152D01*
X105606266Y-90512771D01*
X105558647Y-90560390D01*
X105511028Y-90655628D01*
X105511028Y-90750866D01*
X105558647Y-90846104D01*
X105606266Y-90893723D01*
X105701504Y-90941342D01*
X105796742Y-90941342D01*
X105891980Y-90893723D01*
X105939600Y-90846104D01*
X105939600Y-90465152D02*
X105939600Y-90846104D01*
X105987219Y-90893723D01*
X106034838Y-90893723D01*
X106130076Y-90846104D01*
X106177695Y-90750866D01*
X106177695Y-90512771D01*
X106082457Y-90369914D01*
X105939600Y-90274676D01*
X105749123Y-90227057D01*
X105558647Y-90274676D01*
X105415790Y-90369914D01*
X105320552Y-90512771D01*
X105272933Y-90703247D01*
X105320552Y-90893723D01*
X105415790Y-91036580D01*
X105558647Y-91131819D01*
X105749123Y-91179438D01*
X105939600Y-91131819D01*
X106082457Y-91036580D01*
X106463409Y-90369914D02*
X106844361Y-90369914D01*
X106606266Y-91036580D02*
X106606266Y-90179438D01*
X106653885Y-90084200D01*
X106749123Y-90036580D01*
X106844361Y-90036580D01*
X107606266Y-91036580D02*
X107606266Y-90512771D01*
X107558647Y-90417533D01*
X107463409Y-90369914D01*
X107272933Y-90369914D01*
X107177695Y-90417533D01*
X107606266Y-90988961D02*
X107511028Y-91036580D01*
X107272933Y-91036580D01*
X107177695Y-90988961D01*
X107130076Y-90893723D01*
X107130076Y-90798485D01*
X107177695Y-90703247D01*
X107272933Y-90655628D01*
X107511028Y-90655628D01*
X107606266Y-90608009D01*
X108082457Y-91036580D02*
X108082457Y-90369914D01*
X108082457Y-90465152D02*
X108130076Y-90417533D01*
X108225314Y-90369914D01*
X108368171Y-90369914D01*
X108463409Y-90417533D01*
X108511028Y-90512771D01*
X108511028Y-91036580D01*
X108511028Y-90512771D02*
X108558647Y-90417533D01*
X108653885Y-90369914D01*
X108796742Y-90369914D01*
X108891980Y-90417533D01*
X108939600Y-90512771D01*
X108939600Y-91036580D01*
X109415790Y-91036580D02*
X109415790Y-90369914D01*
X109415790Y-90036580D02*
X109368171Y-90084200D01*
X109415790Y-90131819D01*
X109463409Y-90084200D01*
X109415790Y-90036580D01*
X109415790Y-90131819D01*
X110320552Y-90988961D02*
X110225314Y-91036580D01*
X110034838Y-91036580D01*
X109939600Y-90988961D01*
X109891980Y-90941342D01*
X109844361Y-90846104D01*
X109844361Y-90560390D01*
X109891980Y-90465152D01*
X109939600Y-90417533D01*
X110034838Y-90369914D01*
X110225314Y-90369914D01*
X110320552Y-90417533D01*
X110749123Y-91036580D02*
X110749123Y-90036580D01*
X111177695Y-91036580D02*
X111177695Y-90512771D01*
X111130076Y-90417533D01*
X111034838Y-90369914D01*
X110891980Y-90369914D01*
X110796742Y-90417533D01*
X110749123Y-90465152D01*
X112082457Y-90369914D02*
X112082457Y-91036580D01*
X111653885Y-90369914D02*
X111653885Y-90893723D01*
X111701504Y-90988961D01*
X111796742Y-91036580D01*
X111939600Y-91036580D01*
X112034838Y-90988961D01*
X112082457Y-90941342D01*
X99225314Y-91741819D02*
X99272933Y-91694200D01*
X99368171Y-91646580D01*
X99606266Y-91646580D01*
X99701504Y-91694200D01*
X99749123Y-91741819D01*
X99796742Y-91837057D01*
X99796742Y-91932295D01*
X99749123Y-92075152D01*
X99177695Y-92646580D01*
X99796742Y-92646580D01*
X100415790Y-91646580D02*
X100511028Y-91646580D01*
X100606266Y-91694200D01*
X100653885Y-91741819D01*
X100701504Y-91837057D01*
X100749123Y-92027533D01*
X100749123Y-92265628D01*
X100701504Y-92456104D01*
X100653885Y-92551342D01*
X100606266Y-92598961D01*
X100511028Y-92646580D01*
X100415790Y-92646580D01*
X100320552Y-92598961D01*
X100272933Y-92551342D01*
X100225314Y-92456104D01*
X100177695Y-92265628D01*
X100177695Y-92027533D01*
X100225314Y-91837057D01*
X100272933Y-91741819D01*
X100320552Y-91694200D01*
X100415790Y-91646580D01*
X101130076Y-91741819D02*
X101177695Y-91694200D01*
X101272933Y-91646580D01*
X101511028Y-91646580D01*
X101606266Y-91694200D01*
X101653885Y-91741819D01*
X101701504Y-91837057D01*
X101701504Y-91932295D01*
X101653885Y-92075152D01*
X101082457Y-92646580D01*
X101701504Y-92646580D01*
X102082457Y-91741819D02*
X102130076Y-91694200D01*
X102225314Y-91646580D01*
X102463409Y-91646580D01*
X102558647Y-91694200D01*
X102606266Y-91741819D01*
X102653885Y-91837057D01*
X102653885Y-91932295D01*
X102606266Y-92075152D01*
X102034838Y-92646580D01*
X102653885Y-92646580D01*
X77514723Y-95159580D02*
X78181390Y-96159580D01*
X78181390Y-95159580D02*
X77514723Y-96159580D01*
X79324247Y-95635771D02*
X79657580Y-95635771D01*
X79800438Y-96159580D02*
X79324247Y-96159580D01*
X79324247Y-95159580D01*
X79800438Y-95159580D01*
X80229009Y-96159580D02*
X80229009Y-95159580D01*
X80800438Y-96159580D01*
X80800438Y-95159580D01*
X81276628Y-96159580D02*
X81276628Y-95159580D01*
X81514723Y-95159580D01*
X81657580Y-95207200D01*
X81752819Y-95302438D01*
X81800438Y-95397676D01*
X81848057Y-95588152D01*
X81848057Y-95731009D01*
X81800438Y-95921485D01*
X81752819Y-96016723D01*
X81657580Y-96111961D01*
X81514723Y-96159580D01*
X81276628Y-96159580D01*
X96464380Y-105819295D02*
X95464380Y-105819295D01*
X95464380Y-105438342D01*
X95512000Y-105343104D01*
X95559619Y-105295485D01*
X95654857Y-105247866D01*
X95797714Y-105247866D01*
X95892952Y-105295485D01*
X95940571Y-105343104D01*
X95988190Y-105438342D01*
X95988190Y-105819295D01*
X96464380Y-104247866D02*
X95988190Y-104581200D01*
X96464380Y-104819295D02*
X95464380Y-104819295D01*
X95464380Y-104438342D01*
X95512000Y-104343104D01*
X95559619Y-104295485D01*
X95654857Y-104247866D01*
X95797714Y-104247866D01*
X95892952Y-104295485D01*
X95940571Y-104343104D01*
X95988190Y-104438342D01*
X95988190Y-104819295D01*
X95464380Y-103628819D02*
X95464380Y-103438342D01*
X95512000Y-103343104D01*
X95607238Y-103247866D01*
X95797714Y-103200247D01*
X96131047Y-103200247D01*
X96321523Y-103247866D01*
X96416761Y-103343104D01*
X96464380Y-103438342D01*
X96464380Y-103628819D01*
X96416761Y-103724057D01*
X96321523Y-103819295D01*
X96131047Y-103866914D01*
X95797714Y-103866914D01*
X95607238Y-103819295D01*
X95512000Y-103724057D01*
X95464380Y-103628819D01*
X95940571Y-102438342D02*
X95988190Y-102295485D01*
X96035809Y-102247866D01*
X96131047Y-102200247D01*
X96273904Y-102200247D01*
X96369142Y-102247866D01*
X96416761Y-102295485D01*
X96464380Y-102390723D01*
X96464380Y-102771676D01*
X95464380Y-102771676D01*
X95464380Y-102438342D01*
X95512000Y-102343104D01*
X95559619Y-102295485D01*
X95654857Y-102247866D01*
X95750095Y-102247866D01*
X95845333Y-102295485D01*
X95892952Y-102343104D01*
X95940571Y-102438342D01*
X95940571Y-102771676D01*
X95940571Y-101771676D02*
X95940571Y-101438342D01*
X96464380Y-101295485D02*
X96464380Y-101771676D01*
X95464380Y-101771676D01*
X95464380Y-101295485D01*
X111965676Y-108482922D02*
X110980868Y-108309273D01*
X111449824Y-108391963D02*
X111549052Y-107829216D01*
X112064903Y-107920174D02*
X111080096Y-107746526D01*
X111195861Y-107089988D02*
X111228937Y-106902405D01*
X111292371Y-106816883D01*
X111402700Y-106739630D01*
X111598551Y-106725810D01*
X111926820Y-106783693D01*
X112106134Y-106863664D01*
X112183387Y-106973993D01*
X112213745Y-107076053D01*
X112180669Y-107263636D01*
X112117235Y-107349158D01*
X112006906Y-107426411D01*
X111811055Y-107440231D01*
X111482786Y-107382348D01*
X111303472Y-107302377D01*
X111226219Y-107192048D01*
X111195861Y-107089988D01*
X111319896Y-106386554D02*
X111419123Y-105823806D01*
X112354317Y-106278828D02*
X111369509Y-106105180D01*
X111945962Y-105578227D02*
X112003845Y-105249957D01*
X112544503Y-105200229D02*
X112461814Y-105669185D01*
X111477006Y-105495537D01*
X111559695Y-105026581D01*
X112618924Y-104778169D02*
X111634116Y-104604520D01*
X112718151Y-104215421D01*
X111733344Y-104041773D01*
X112800841Y-103746465D02*
X111816033Y-103572817D01*
X111857378Y-103338339D01*
X111929081Y-103205921D01*
X112039410Y-103128668D01*
X112141470Y-103098310D01*
X112337321Y-103084490D01*
X112478008Y-103109297D01*
X112657322Y-103189269D01*
X112742844Y-103252702D01*
X112820097Y-103363031D01*
X112842186Y-103511987D01*
X112800841Y-103746465D01*
X113357854Y-106842608D02*
X113299971Y-107170878D01*
X113815823Y-107261836D02*
X112831015Y-107088188D01*
X112913705Y-106619232D01*
X113675021Y-106414997D02*
X113757711Y-105946041D01*
X113939857Y-106558402D02*
X113012932Y-106056485D01*
X114055623Y-105901864D01*
X114113505Y-105573594D02*
X113128698Y-105399946D01*
X114212733Y-105010847D01*
X113227925Y-104837199D01*
%TO.C,J2*%
X92674065Y-111232518D02*
X93031208Y-110613929D01*
X93143876Y-110514020D01*
X93273974Y-110479161D01*
X93421501Y-110509350D01*
X93503980Y-110556969D01*
X92350530Y-110935754D02*
X92285482Y-110953184D01*
X92179193Y-110946804D01*
X91972997Y-110827756D01*
X91914328Y-110738898D01*
X91896898Y-110673849D01*
X91903278Y-110567561D01*
X91950897Y-110485082D01*
X92063565Y-110385174D01*
X92844151Y-110176017D01*
X92308040Y-109866493D01*
%TO.C,J7*%
X100689066Y-106390780D02*
X100689066Y-107105066D01*
X100641447Y-107247923D01*
X100546209Y-107343161D01*
X100403352Y-107390780D01*
X100308114Y-107390780D01*
X101070019Y-106390780D02*
X101736685Y-106390780D01*
X101308114Y-107390780D01*
%TO.C,J8*%
X84643980Y-98072533D02*
X85358266Y-98072533D01*
X85501123Y-98120152D01*
X85596361Y-98215390D01*
X85643980Y-98358247D01*
X85643980Y-98453485D01*
X85072552Y-97453485D02*
X85024933Y-97548723D01*
X84977314Y-97596342D01*
X84882076Y-97643961D01*
X84834457Y-97643961D01*
X84739219Y-97596342D01*
X84691600Y-97548723D01*
X84643980Y-97453485D01*
X84643980Y-97263009D01*
X84691600Y-97167771D01*
X84739219Y-97120152D01*
X84834457Y-97072533D01*
X84882076Y-97072533D01*
X84977314Y-97120152D01*
X85024933Y-97167771D01*
X85072552Y-97263009D01*
X85072552Y-97453485D01*
X85120171Y-97548723D01*
X85167790Y-97596342D01*
X85263028Y-97643961D01*
X85453504Y-97643961D01*
X85548742Y-97596342D01*
X85596361Y-97548723D01*
X85643980Y-97453485D01*
X85643980Y-97263009D01*
X85596361Y-97167771D01*
X85548742Y-97120152D01*
X85453504Y-97072533D01*
X85263028Y-97072533D01*
X85167790Y-97120152D01*
X85120171Y-97167771D01*
X85072552Y-97263009D01*
%TO.C,J10*%
X98606076Y-113177580D02*
X98606076Y-113891866D01*
X98558457Y-114034723D01*
X98463219Y-114129961D01*
X98320361Y-114177580D01*
X98225123Y-114177580D01*
X99606076Y-114177580D02*
X99034647Y-114177580D01*
X99320361Y-114177580D02*
X99320361Y-113177580D01*
X99225123Y-113320438D01*
X99129885Y-113415676D01*
X99034647Y-113463295D01*
X100225123Y-113177580D02*
X100320361Y-113177580D01*
X100415600Y-113225200D01*
X100463219Y-113272819D01*
X100510838Y-113368057D01*
X100558457Y-113558533D01*
X100558457Y-113796628D01*
X100510838Y-113987104D01*
X100463219Y-114082342D01*
X100415600Y-114129961D01*
X100320361Y-114177580D01*
X100225123Y-114177580D01*
X100129885Y-114129961D01*
X100082266Y-114082342D01*
X100034647Y-113987104D01*
X99987028Y-113796628D01*
X99987028Y-113558533D01*
X100034647Y-113368057D01*
X100082266Y-113272819D01*
X100129885Y-113225200D01*
X100225123Y-113177580D01*
%TO.C,J11*%
X101552476Y-113193580D02*
X101552476Y-113907866D01*
X101504857Y-114050723D01*
X101409619Y-114145961D01*
X101266761Y-114193580D01*
X101171523Y-114193580D01*
X102552476Y-114193580D02*
X101981047Y-114193580D01*
X102266761Y-114193580D02*
X102266761Y-113193580D01*
X102171523Y-113336438D01*
X102076285Y-113431676D01*
X101981047Y-113479295D01*
X103504857Y-114193580D02*
X102933428Y-114193580D01*
X103219142Y-114193580D02*
X103219142Y-113193580D01*
X103123904Y-113336438D01*
X103028666Y-113431676D01*
X102933428Y-113479295D01*
%TO.C,J12*%
X106769575Y-111775740D02*
X107179272Y-112360849D01*
X107222205Y-112505184D01*
X107198817Y-112637824D01*
X107109108Y-112758771D01*
X107031094Y-112813397D01*
X108162304Y-112021316D02*
X107694217Y-112349074D01*
X107928260Y-112185195D02*
X107354684Y-111366043D01*
X107358609Y-111537691D01*
X107335220Y-111670331D01*
X107284519Y-111763965D01*
X107955411Y-111061673D02*
X107967105Y-110995352D01*
X108017807Y-110901719D01*
X108212843Y-110765153D01*
X108318171Y-110749534D01*
X108384491Y-110761228D01*
X108478125Y-110811929D01*
X108532751Y-110889944D01*
X108575683Y-111034279D01*
X108435354Y-111830123D01*
X108942448Y-111475052D01*
%TO.C,J13*%
X99172780Y-108454723D02*
X99887066Y-108454723D01*
X100029923Y-108502342D01*
X100125161Y-108597580D01*
X100172780Y-108740438D01*
X100172780Y-108835676D01*
X100172780Y-107454723D02*
X100172780Y-108026152D01*
X100172780Y-107740438D02*
X99172780Y-107740438D01*
X99315638Y-107835676D01*
X99410876Y-107930914D01*
X99458495Y-108026152D01*
X99172780Y-107121390D02*
X99172780Y-106502342D01*
X99553733Y-106835676D01*
X99553733Y-106692819D01*
X99601352Y-106597580D01*
X99648971Y-106549961D01*
X99744209Y-106502342D01*
X99982304Y-106502342D01*
X100077542Y-106549961D01*
X100125161Y-106597580D01*
X100172780Y-106692819D01*
X100172780Y-106978533D01*
X100125161Y-107073771D01*
X100077542Y-107121390D01*
%TO.C,J1*%
X83959072Y-86259277D02*
X84464148Y-86764353D01*
X84531492Y-86899040D01*
X84531492Y-87033727D01*
X84464148Y-87168414D01*
X84396805Y-87235757D01*
X85373286Y-86259277D02*
X84969225Y-86663338D01*
X85171255Y-86461307D02*
X84464148Y-85754200D01*
X84497820Y-85922559D01*
X84497820Y-86057246D01*
X84464148Y-86158261D01*
X82638686Y-91688615D02*
X82975404Y-91351898D01*
X82773373Y-91957989D02*
X82301969Y-91015180D01*
X83244778Y-91486585D01*
X83211106Y-90981508D02*
X83749854Y-90442760D01*
X83749854Y-90981508D02*
X83211106Y-90442760D01*
X84658991Y-89668310D02*
X84995709Y-89331592D01*
X84793678Y-89937684D02*
X84322274Y-88994875D01*
X85265083Y-89466279D01*
X85231411Y-88961203D02*
X85770159Y-88422455D01*
X86780312Y-87210272D02*
X86914999Y-87142929D01*
X86982342Y-87142929D01*
X87083357Y-87176600D01*
X87184373Y-87277616D01*
X87218044Y-87378631D01*
X87218044Y-87445974D01*
X87184373Y-87546990D01*
X86914999Y-87816364D01*
X86207892Y-87109257D01*
X86443594Y-86873555D01*
X86544609Y-86839883D01*
X86611953Y-86839883D01*
X86712968Y-86873555D01*
X86780312Y-86940898D01*
X86813983Y-87041913D01*
X86813983Y-87109257D01*
X86780312Y-87210272D01*
X86544609Y-87445974D01*
X87352731Y-86839883D02*
X87891479Y-86301135D01*
X87891479Y-86839883D02*
X87352731Y-86301135D01*
X88901632Y-85088952D02*
X89036319Y-85021608D01*
X89103663Y-85021608D01*
X89204678Y-85055280D01*
X89305693Y-85156295D01*
X89339365Y-85257311D01*
X89339365Y-85324654D01*
X89305693Y-85425669D01*
X89036319Y-85695043D01*
X88329212Y-84987936D01*
X88564914Y-84752234D01*
X88665930Y-84718562D01*
X88733273Y-84718562D01*
X88834288Y-84752234D01*
X88901632Y-84819578D01*
X88935304Y-84920593D01*
X88935304Y-84987936D01*
X88901632Y-85088952D01*
X88665930Y-85324654D01*
X89474052Y-84718562D02*
X90012800Y-84179814D01*
%TO.C,J3*%
X82627383Y-107001762D02*
X83330817Y-106877727D01*
X83479773Y-106899816D01*
X83590102Y-106977069D01*
X83661804Y-107109487D01*
X83678342Y-107203278D01*
X82561231Y-106626597D02*
X82453735Y-106016954D01*
X82886782Y-106279072D01*
X82861975Y-106138385D01*
X82892333Y-106036325D01*
X82930960Y-105981160D01*
X83016482Y-105917727D01*
X83250960Y-105876382D01*
X83353020Y-105906739D01*
X83408185Y-105945366D01*
X83471618Y-106030888D01*
X83521232Y-106312262D01*
X83490874Y-106414322D01*
X83452248Y-106469487D01*
%TO.C,J5*%
X78969783Y-107662162D02*
X79673217Y-107538127D01*
X79822173Y-107560216D01*
X79932502Y-107637469D01*
X80004204Y-107769887D01*
X80020742Y-107863678D01*
X78804404Y-106724250D02*
X78887093Y-107193206D01*
X79364318Y-107157412D01*
X79309154Y-107118785D01*
X79245720Y-107033263D01*
X79204375Y-106798785D01*
X79234733Y-106696725D01*
X79273360Y-106641560D01*
X79358882Y-106578127D01*
X79593360Y-106536782D01*
X79695420Y-106567139D01*
X79750585Y-106605766D01*
X79814018Y-106691288D01*
X79855363Y-106925766D01*
X79825005Y-107027827D01*
X79786379Y-107082991D01*
%TO.C,J6*%
X119338396Y-108308341D02*
X120041830Y-108432375D01*
X120174248Y-108504078D01*
X120251502Y-108614407D01*
X120273590Y-108763363D01*
X120257052Y-108857154D01*
X119495507Y-107417324D02*
X119462431Y-107604907D01*
X119492788Y-107706967D01*
X119531415Y-107762131D01*
X119655564Y-107880729D01*
X119834877Y-107960701D01*
X120210042Y-108026853D01*
X120312102Y-107996495D01*
X120367267Y-107957868D01*
X120430701Y-107872346D01*
X120463776Y-107684764D01*
X120433419Y-107582703D01*
X120394792Y-107527539D01*
X120309270Y-107464105D01*
X120074792Y-107422760D01*
X119972732Y-107453118D01*
X119917567Y-107491745D01*
X119854133Y-107577267D01*
X119821058Y-107764849D01*
X119851415Y-107866910D01*
X119890042Y-107922074D01*
X119975564Y-107985508D01*
D13*
%TO.C,J2*%
X94495952Y-108334112D02*
X93337009Y-107664996D01*
X98345435Y-110556612D02*
X96245324Y-109344112D01*
X98345435Y-110556612D02*
X93785435Y-118454764D01*
X85237765Y-113519764D02*
X89797765Y-105621612D01*
X92419410Y-118820789D02*
X85603790Y-114885789D01*
X93785435Y-118454764D02*
X92419410Y-118820789D01*
X89797765Y-105621612D02*
X92208115Y-107013229D01*
X85603790Y-114885789D02*
X85237765Y-113519764D01*
%TO.C,J7*%
X104132400Y-106148400D02*
X105382400Y-106148400D01*
X102022400Y-101738400D02*
X102022400Y-102238400D01*
X105082400Y-103238400D02*
X104472400Y-103238400D01*
X103322400Y-106048400D02*
X103622400Y-106048400D01*
X100022400Y-101738400D02*
X100022400Y-102238400D01*
X105082400Y-101128400D02*
X96962400Y-101128400D01*
X105082400Y-105848400D02*
X105082400Y-101128400D01*
X100122400Y-102238400D02*
X99922400Y-102238400D01*
X99522400Y-105238400D02*
X99522400Y-105848400D01*
X102122400Y-101738400D02*
X102122400Y-102238400D01*
X105382400Y-106148400D02*
X105382400Y-104898400D01*
X102522400Y-105238400D02*
X104472400Y-105238400D01*
X100122400Y-101738400D02*
X100122400Y-102238400D01*
X105082400Y-104538400D02*
X104472400Y-104538400D01*
X102122400Y-102238400D02*
X101922400Y-102238400D01*
X104472400Y-105238400D02*
X104472400Y-101738400D01*
X102522400Y-105848400D02*
X102522400Y-105238400D01*
X103322400Y-105848400D02*
X103322400Y-106048400D01*
X96962400Y-101128400D02*
X96962400Y-105848400D01*
X101922400Y-102238400D02*
X101922400Y-101738400D01*
X96962400Y-103238400D02*
X97572400Y-103238400D01*
X103322400Y-105948400D02*
X103622400Y-105948400D01*
X96962400Y-104538400D02*
X97572400Y-104538400D01*
X96962400Y-105848400D02*
X105082400Y-105848400D01*
X97572400Y-105238400D02*
X99522400Y-105238400D01*
X99922400Y-102238400D02*
X99922400Y-101738400D01*
X104472400Y-101738400D02*
X97572400Y-101738400D01*
X97572400Y-101738400D02*
X97572400Y-105238400D01*
X103622400Y-106048400D02*
X103622400Y-105848400D01*
%TO.C,J8*%
X85476400Y-98639200D02*
X85976400Y-98639200D01*
X84476400Y-101799200D02*
X84476400Y-101189200D01*
X81566400Y-100849200D02*
X81566400Y-102099200D01*
X81866400Y-99239200D02*
X82476400Y-99239200D01*
X82476400Y-96239200D02*
X81866400Y-96239200D01*
X85976400Y-101189200D02*
X85976400Y-94289200D01*
X85476400Y-96639200D02*
X85976400Y-96639200D01*
X81866400Y-93679200D02*
X81866400Y-101799200D01*
X85976400Y-98839200D02*
X85476400Y-98839200D01*
X85976400Y-96839200D02*
X85476400Y-96839200D01*
X83176400Y-101799200D02*
X83176400Y-101189200D01*
X85976400Y-96739200D02*
X85476400Y-96739200D01*
X82476400Y-94289200D02*
X82476400Y-96239200D01*
X82476400Y-99239200D02*
X82476400Y-101189200D01*
X81566400Y-102099200D02*
X82816400Y-102099200D01*
X81866400Y-100039200D02*
X81666400Y-100039200D01*
X84476400Y-93679200D02*
X84476400Y-94289200D01*
X85476400Y-96839200D02*
X85476400Y-96639200D01*
X83176400Y-93679200D02*
X83176400Y-94289200D01*
X81866400Y-101799200D02*
X86586400Y-101799200D01*
X82476400Y-101189200D02*
X85976400Y-101189200D01*
X81666400Y-100339200D02*
X81866400Y-100339200D01*
X81766400Y-100039200D02*
X81766400Y-100339200D01*
X86586400Y-101799200D02*
X86586400Y-93679200D01*
X85976400Y-94289200D02*
X82476400Y-94289200D01*
X85976400Y-98739200D02*
X85476400Y-98739200D01*
X86586400Y-93679200D02*
X81866400Y-93679200D01*
X81666400Y-100039200D02*
X81666400Y-100339200D01*
X85476400Y-98839200D02*
X85476400Y-98639200D01*
%TO.C,J10*%
X98355600Y-117785200D02*
X100475600Y-117785200D01*
X98355600Y-113725200D02*
X100475600Y-113725200D01*
X98355600Y-113725200D02*
X98355600Y-117785200D01*
X98355600Y-112725200D02*
X98355600Y-111665200D01*
X100475600Y-113725200D02*
X100475600Y-117785200D01*
X98355600Y-111665200D02*
X99415600Y-111665200D01*
%TO.C,J11*%
X103523600Y-113725200D02*
X103523600Y-117785200D01*
X101403600Y-113725200D02*
X101403600Y-117785200D01*
X101403600Y-113725200D02*
X103523600Y-113725200D01*
X101403600Y-112725200D02*
X101403600Y-111665200D01*
X101403600Y-117785200D02*
X103523600Y-117785200D01*
X101403600Y-111665200D02*
X102463600Y-111665200D01*
D10*
%TO.C,REF\u002A\u002A*%
X104241711Y-83963573D02*
X104141711Y-83563573D01*
X104141711Y-83563573D02*
X104241711Y-83263573D01*
X104241711Y-83263573D02*
X104341711Y-83063573D01*
X104341711Y-83063573D02*
X104541711Y-82863573D01*
X104541711Y-82863573D02*
X104741711Y-82763573D01*
X104741711Y-82763573D02*
X104741711Y-82663573D01*
X104741711Y-82663573D02*
X104541711Y-82463573D01*
X104541711Y-82463573D02*
X104241711Y-82363573D01*
X104241711Y-82363573D02*
X104141711Y-82363573D01*
X104141711Y-82363573D02*
X104041711Y-82263573D01*
X104041711Y-82263573D02*
X104041711Y-82163573D01*
X104041711Y-82163573D02*
X104141711Y-82063573D01*
X104141711Y-82063573D02*
X104441711Y-82063573D01*
X104441711Y-82063573D02*
X104841711Y-82263573D01*
X104841711Y-82263573D02*
X105041711Y-82463573D01*
X105041711Y-82463573D02*
X105141711Y-82763573D01*
X105141711Y-82763573D02*
X105441711Y-82863573D01*
X105441711Y-82863573D02*
X105741711Y-83163573D01*
X105741711Y-83163573D02*
X105841711Y-83563573D01*
X105841711Y-83563573D02*
X105741711Y-83963573D01*
X105741711Y-83963573D02*
X105441711Y-84263573D01*
X105441711Y-84263573D02*
X105041711Y-84363573D01*
X105041711Y-84363573D02*
X104541711Y-84263573D01*
X104541711Y-84263573D02*
X104241711Y-83963573D01*
G36*
X104841711Y-82263573D02*
G01*
X105041711Y-82463573D01*
X105141711Y-82763573D01*
X105441711Y-82863573D01*
X105741711Y-83163573D01*
X105841711Y-83563573D01*
X105741711Y-83963573D01*
X105441711Y-84263573D01*
X105041711Y-84363573D01*
X104541711Y-84263573D01*
X104241711Y-83963573D01*
X104141711Y-83563573D01*
X104241711Y-83263573D01*
X104341711Y-83063573D01*
X104541711Y-82863573D01*
X104741711Y-82763573D01*
X104741711Y-82663573D01*
X104541711Y-82463573D01*
X104241711Y-82363573D01*
X104141711Y-82363573D01*
X104041711Y-82263573D01*
X104041711Y-82163573D01*
X104141711Y-82063573D01*
X104441711Y-82063573D01*
X104841711Y-82263573D01*
G37*
X104841711Y-82263573D02*
X105041711Y-82463573D01*
X105141711Y-82763573D01*
X105441711Y-82863573D01*
X105741711Y-83163573D01*
X105841711Y-83563573D01*
X105741711Y-83963573D01*
X105441711Y-84263573D01*
X105041711Y-84363573D01*
X104541711Y-84263573D01*
X104241711Y-83963573D01*
X104141711Y-83563573D01*
X104241711Y-83263573D01*
X104341711Y-83063573D01*
X104541711Y-82863573D01*
X104741711Y-82763573D01*
X104741711Y-82663573D01*
X104541711Y-82463573D01*
X104241711Y-82363573D01*
X104141711Y-82363573D01*
X104041711Y-82263573D01*
X104041711Y-82163573D01*
X104141711Y-82063573D01*
X104441711Y-82063573D01*
X104841711Y-82263573D01*
X104291711Y-83463573D02*
X104041711Y-83463573D01*
X104041711Y-83463573D02*
X103541711Y-83563573D01*
X103541711Y-83563573D02*
X103091711Y-83663573D01*
X103091711Y-83663573D02*
X102691711Y-83863573D01*
X102691711Y-83863573D02*
X102391711Y-84063573D01*
X102391711Y-84063573D02*
X102291711Y-84313573D01*
X102291711Y-84313573D02*
X102441711Y-84563573D01*
X102441711Y-84563573D02*
X102841711Y-84813573D01*
X102841711Y-84813573D02*
X103341711Y-84963573D01*
X103341711Y-84963573D02*
X103991711Y-85113573D01*
X103991711Y-85113573D02*
X104841711Y-85163573D01*
X104841711Y-85163573D02*
X105591711Y-85163573D01*
X105591711Y-85163573D02*
X106141711Y-85063573D01*
X106141711Y-85063573D02*
X106541711Y-85013573D01*
X106541711Y-85013573D02*
X106641711Y-85063573D01*
X106641711Y-85063573D02*
X106691711Y-85213573D01*
X106691711Y-85213573D02*
X106691711Y-86213573D01*
X106691711Y-86213573D02*
X106391711Y-86313573D01*
X106391711Y-86313573D02*
X106391711Y-85363573D01*
X106391711Y-85363573D02*
X105691711Y-85463573D01*
X105691711Y-85463573D02*
X104391711Y-85463573D01*
X104391711Y-85463573D02*
X103191711Y-85263573D01*
X103191711Y-85263573D02*
X102491711Y-84963573D01*
X102491711Y-84963573D02*
X102191711Y-84713573D01*
X102191711Y-84713573D02*
X102041711Y-84513573D01*
X102041711Y-84513573D02*
X101991711Y-84313573D01*
X101991711Y-84313573D02*
X101991711Y-84113573D01*
X101991711Y-84113573D02*
X102091711Y-83963573D01*
X102091711Y-83963573D02*
X101791711Y-84163573D01*
X101791711Y-84163573D02*
X101641711Y-84313573D01*
X101641711Y-84313573D02*
X101541711Y-84513573D01*
X101541711Y-84513573D02*
X101541711Y-84613573D01*
X101541711Y-84613573D02*
X101641711Y-84813573D01*
X101641711Y-84813573D02*
X101891711Y-85013573D01*
X101891711Y-85013573D02*
X102241711Y-85213573D01*
X102241711Y-85213573D02*
X102741711Y-85413573D01*
X102741711Y-85413573D02*
X103391711Y-85563573D01*
X103391711Y-85563573D02*
X104141711Y-85663573D01*
X104141711Y-85663573D02*
X104991711Y-85713573D01*
X104991711Y-85713573D02*
X105491711Y-85713573D01*
X105491711Y-85713573D02*
X105891711Y-85663573D01*
X105891711Y-85663573D02*
X105991711Y-85763573D01*
X105991711Y-85763573D02*
X105991711Y-85913573D01*
X105991711Y-85913573D02*
X105891711Y-86013573D01*
X105891711Y-86013573D02*
X104291711Y-86013573D01*
X104291711Y-86013573D02*
X103541711Y-85913573D01*
X103541711Y-85913573D02*
X102841711Y-85763573D01*
X102841711Y-85763573D02*
X102241711Y-85563573D01*
X102241711Y-85563573D02*
X101891711Y-85413573D01*
X101891711Y-85413573D02*
X101641711Y-85213573D01*
X101641711Y-85213573D02*
X101541711Y-85213573D01*
X101541711Y-85213573D02*
X101341711Y-85563573D01*
X101341711Y-85563573D02*
X101241711Y-85313573D01*
X101241711Y-85313573D02*
X101241711Y-85113573D01*
X101241711Y-85113573D02*
X101341711Y-84913573D01*
X101341711Y-84913573D02*
X101241711Y-84663573D01*
X101241711Y-84663573D02*
X101241711Y-84463573D01*
X101241711Y-84463573D02*
X101341711Y-84213573D01*
X101341711Y-84213573D02*
X101641711Y-83863573D01*
X101641711Y-83863573D02*
X102091711Y-83613573D01*
X102091711Y-83613573D02*
X102591711Y-83413573D01*
X102591711Y-83413573D02*
X103291711Y-83213573D01*
X103291711Y-83213573D02*
X103841711Y-83163573D01*
X103841711Y-83163573D02*
X104291711Y-83113573D01*
X104291711Y-83113573D02*
X104291711Y-83463573D01*
G36*
X104291711Y-83463573D02*
G01*
X104041711Y-83463573D01*
X103541711Y-83563573D01*
X103091711Y-83663573D01*
X102691711Y-83863573D01*
X102391711Y-84063573D01*
X102291711Y-84313573D01*
X102441711Y-84563573D01*
X102841711Y-84813573D01*
X103341711Y-84963573D01*
X103991711Y-85113573D01*
X104841711Y-85163573D01*
X105591711Y-85163573D01*
X106141711Y-85063573D01*
X106541711Y-85013573D01*
X106641711Y-85063573D01*
X106691711Y-85213573D01*
X106691711Y-86213573D01*
X106391711Y-86313573D01*
X106391711Y-85363573D01*
X105691711Y-85463573D01*
X104391711Y-85463573D01*
X103191711Y-85263573D01*
X102491711Y-84963573D01*
X102191711Y-84713573D01*
X102041711Y-84513573D01*
X101991711Y-84313573D01*
X101991711Y-84113573D01*
X102091711Y-83963573D01*
X101791711Y-84163573D01*
X101641711Y-84313573D01*
X101541711Y-84513573D01*
X101541711Y-84613573D01*
X101641711Y-84813573D01*
X101891711Y-85013573D01*
X102241711Y-85213573D01*
X102741711Y-85413573D01*
X103391711Y-85563573D01*
X104141711Y-85663573D01*
X104991711Y-85713573D01*
X105491711Y-85713573D01*
X105891711Y-85663573D01*
X105991711Y-85763573D01*
X105991711Y-85913573D01*
X105891711Y-86013573D01*
X104291711Y-86013573D01*
X103541711Y-85913573D01*
X102841711Y-85763573D01*
X102241711Y-85563573D01*
X101891711Y-85413573D01*
X101641711Y-85213573D01*
X101541711Y-85213573D01*
X101341711Y-85563573D01*
X101241711Y-85313573D01*
X101241711Y-85113573D01*
X101341711Y-84913573D01*
X101241711Y-84663573D01*
X101241711Y-84463573D01*
X101341711Y-84213573D01*
X101641711Y-83863573D01*
X102091711Y-83613573D01*
X102591711Y-83413573D01*
X103291711Y-83213573D01*
X103841711Y-83163573D01*
X104291711Y-83113573D01*
X104291711Y-83463573D01*
G37*
X104291711Y-83463573D02*
X104041711Y-83463573D01*
X103541711Y-83563573D01*
X103091711Y-83663573D01*
X102691711Y-83863573D01*
X102391711Y-84063573D01*
X102291711Y-84313573D01*
X102441711Y-84563573D01*
X102841711Y-84813573D01*
X103341711Y-84963573D01*
X103991711Y-85113573D01*
X104841711Y-85163573D01*
X105591711Y-85163573D01*
X106141711Y-85063573D01*
X106541711Y-85013573D01*
X106641711Y-85063573D01*
X106691711Y-85213573D01*
X106691711Y-86213573D01*
X106391711Y-86313573D01*
X106391711Y-85363573D01*
X105691711Y-85463573D01*
X104391711Y-85463573D01*
X103191711Y-85263573D01*
X102491711Y-84963573D01*
X102191711Y-84713573D01*
X102041711Y-84513573D01*
X101991711Y-84313573D01*
X101991711Y-84113573D01*
X102091711Y-83963573D01*
X101791711Y-84163573D01*
X101641711Y-84313573D01*
X101541711Y-84513573D01*
X101541711Y-84613573D01*
X101641711Y-84813573D01*
X101891711Y-85013573D01*
X102241711Y-85213573D01*
X102741711Y-85413573D01*
X103391711Y-85563573D01*
X104141711Y-85663573D01*
X104991711Y-85713573D01*
X105491711Y-85713573D01*
X105891711Y-85663573D01*
X105991711Y-85763573D01*
X105991711Y-85913573D01*
X105891711Y-86013573D01*
X104291711Y-86013573D01*
X103541711Y-85913573D01*
X102841711Y-85763573D01*
X102241711Y-85563573D01*
X101891711Y-85413573D01*
X101641711Y-85213573D01*
X101541711Y-85213573D01*
X101341711Y-85563573D01*
X101241711Y-85313573D01*
X101241711Y-85113573D01*
X101341711Y-84913573D01*
X101241711Y-84663573D01*
X101241711Y-84463573D01*
X101341711Y-84213573D01*
X101641711Y-83863573D01*
X102091711Y-83613573D01*
X102591711Y-83413573D01*
X103291711Y-83213573D01*
X103841711Y-83163573D01*
X104291711Y-83113573D01*
X104291711Y-83463573D01*
X107641711Y-85263573D02*
X108041711Y-85063573D01*
X108041711Y-85063573D02*
X108441711Y-84663573D01*
X108441711Y-84663573D02*
X108441711Y-84463573D01*
X108441711Y-84463573D02*
X108241711Y-84163573D01*
X108241711Y-84163573D02*
X107941711Y-83963573D01*
X107941711Y-83963573D02*
X108041711Y-84163573D01*
X108041711Y-84163573D02*
X108041711Y-84463573D01*
X108041711Y-84463573D02*
X107841711Y-84763573D01*
X107841711Y-84763573D02*
X107541711Y-84963573D01*
X107541711Y-84963573D02*
X107541711Y-85263573D01*
X107541711Y-85263573D02*
X107241711Y-85363573D01*
X107241711Y-85363573D02*
X107241711Y-84763573D01*
X107241711Y-84763573D02*
X107541711Y-84563573D01*
X107541711Y-84563573D02*
X107641711Y-84363573D01*
X107641711Y-84363573D02*
X107641711Y-84163573D01*
X107641711Y-84163573D02*
X107441711Y-83963573D01*
X107441711Y-83963573D02*
X107141711Y-83763573D01*
X107141711Y-83763573D02*
X106741711Y-83663573D01*
X106741711Y-83663573D02*
X105741711Y-83463573D01*
X105741711Y-83463573D02*
X105741711Y-83163573D01*
X105741711Y-83163573D02*
X106041711Y-83163573D01*
X106041711Y-83163573D02*
X106741711Y-83263573D01*
X106741711Y-83263573D02*
X107541711Y-83463573D01*
X107541711Y-83463573D02*
X108241711Y-83763573D01*
X108241711Y-83763573D02*
X108641711Y-84163573D01*
X108641711Y-84163573D02*
X108741711Y-84463573D01*
X108741711Y-84463573D02*
X108741711Y-84663573D01*
X108741711Y-84663573D02*
X108641711Y-84963573D01*
X108641711Y-84963573D02*
X108741711Y-85163573D01*
X108741711Y-85163573D02*
X108741711Y-85363573D01*
X108741711Y-85363573D02*
X108641711Y-85563573D01*
X108641711Y-85563573D02*
X108741711Y-85763573D01*
X108741711Y-85763573D02*
X108741711Y-86063573D01*
X108741711Y-86063573D02*
X108641711Y-86263573D01*
X108641711Y-86263573D02*
X108341711Y-86663573D01*
X108341711Y-86663573D02*
X107441711Y-87063573D01*
X107441711Y-87063573D02*
X106541711Y-87263573D01*
X106541711Y-87263573D02*
X105741711Y-87363573D01*
X105741711Y-87363573D02*
X105041711Y-87363573D01*
X105041711Y-87363573D02*
X105041711Y-87063573D01*
X105041711Y-87063573D02*
X105641711Y-87063573D01*
X105641711Y-87063573D02*
X106441711Y-86963573D01*
X106441711Y-86963573D02*
X107341711Y-86763573D01*
X107341711Y-86763573D02*
X107841711Y-86563573D01*
X107841711Y-86563573D02*
X108241711Y-86263573D01*
X108241711Y-86263573D02*
X108441711Y-86063573D01*
X108441711Y-86063573D02*
X108441711Y-85863573D01*
X108441711Y-85863573D02*
X108041711Y-86163573D01*
X108041711Y-86163573D02*
X107541711Y-86363573D01*
X107541711Y-86363573D02*
X107241711Y-86263573D01*
X107241711Y-86263573D02*
X107241711Y-85363573D01*
X107241711Y-85363573D02*
X107641711Y-85263573D01*
G36*
X106741711Y-83263573D02*
G01*
X107541711Y-83463573D01*
X108241711Y-83763573D01*
X108641711Y-84163573D01*
X108741711Y-84463573D01*
X108741711Y-84663573D01*
X108641711Y-84963573D01*
X108741711Y-85163573D01*
X108741711Y-85363573D01*
X108641711Y-85563573D01*
X108741711Y-85763573D01*
X108741711Y-86063573D01*
X108641711Y-86263573D01*
X108341711Y-86663573D01*
X107441711Y-87063573D01*
X106541711Y-87263573D01*
X105741711Y-87363573D01*
X105041711Y-87363573D01*
X105041711Y-87063573D01*
X105641711Y-87063573D01*
X106441711Y-86963573D01*
X107341711Y-86763573D01*
X107841711Y-86563573D01*
X108241711Y-86263573D01*
X108441711Y-86063573D01*
X108441711Y-85863573D01*
X108041711Y-86163573D01*
X107541711Y-86363573D01*
X107241711Y-86263573D01*
X107241711Y-85363573D01*
X107641711Y-85263573D01*
X108041711Y-85063573D01*
X108441711Y-84663573D01*
X108441711Y-84463573D01*
X108241711Y-84163573D01*
X107941711Y-83963573D01*
X108041711Y-84163573D01*
X108041711Y-84463573D01*
X107841711Y-84763573D01*
X107541711Y-84963573D01*
X107541711Y-85263573D01*
X107241711Y-85363573D01*
X107241711Y-84763573D01*
X107541711Y-84563573D01*
X107641711Y-84363573D01*
X107641711Y-84163573D01*
X107441711Y-83963573D01*
X107141711Y-83763573D01*
X106741711Y-83663573D01*
X105741711Y-83463573D01*
X105741711Y-83163573D01*
X106041711Y-83163573D01*
X106741711Y-83263573D01*
G37*
X106741711Y-83263573D02*
X107541711Y-83463573D01*
X108241711Y-83763573D01*
X108641711Y-84163573D01*
X108741711Y-84463573D01*
X108741711Y-84663573D01*
X108641711Y-84963573D01*
X108741711Y-85163573D01*
X108741711Y-85363573D01*
X108641711Y-85563573D01*
X108741711Y-85763573D01*
X108741711Y-86063573D01*
X108641711Y-86263573D01*
X108341711Y-86663573D01*
X107441711Y-87063573D01*
X106541711Y-87263573D01*
X105741711Y-87363573D01*
X105041711Y-87363573D01*
X105041711Y-87063573D01*
X105641711Y-87063573D01*
X106441711Y-86963573D01*
X107341711Y-86763573D01*
X107841711Y-86563573D01*
X108241711Y-86263573D01*
X108441711Y-86063573D01*
X108441711Y-85863573D01*
X108041711Y-86163573D01*
X107541711Y-86363573D01*
X107241711Y-86263573D01*
X107241711Y-85363573D01*
X107641711Y-85263573D01*
X108041711Y-85063573D01*
X108441711Y-84663573D01*
X108441711Y-84463573D01*
X108241711Y-84163573D01*
X107941711Y-83963573D01*
X108041711Y-84163573D01*
X108041711Y-84463573D01*
X107841711Y-84763573D01*
X107541711Y-84963573D01*
X107541711Y-85263573D01*
X107241711Y-85363573D01*
X107241711Y-84763573D01*
X107541711Y-84563573D01*
X107641711Y-84363573D01*
X107641711Y-84163573D01*
X107441711Y-83963573D01*
X107141711Y-83763573D01*
X106741711Y-83663573D01*
X105741711Y-83463573D01*
X105741711Y-83163573D01*
X106041711Y-83163573D01*
X106741711Y-83263573D01*
X101591711Y-85413573D02*
X101741711Y-85613573D01*
X101741711Y-85613573D02*
X102291711Y-85963573D01*
X102291711Y-85963573D02*
X102991711Y-86163573D01*
X102991711Y-86163573D02*
X103691711Y-86313573D01*
X103691711Y-86313573D02*
X104591711Y-86413573D01*
X104591711Y-86413573D02*
X105441711Y-86413573D01*
X105441711Y-86413573D02*
X106391711Y-86313573D01*
X106391711Y-86313573D02*
X106691711Y-86213573D01*
X106691711Y-86213573D02*
X106741711Y-86363573D01*
X106741711Y-86363573D02*
X106891711Y-86463573D01*
X106891711Y-86463573D02*
X107041711Y-86463573D01*
X107041711Y-86463573D02*
X107241711Y-86263573D01*
X107241711Y-86263573D02*
X107541711Y-86363573D01*
X107541711Y-86363573D02*
X107441711Y-86563573D01*
X107441711Y-86563573D02*
X107141711Y-86763573D01*
X107141711Y-86763573D02*
X106841711Y-86763573D01*
X106841711Y-86763573D02*
X106641711Y-86663573D01*
X106641711Y-86663573D02*
X106541711Y-86563573D01*
X106541711Y-86563573D02*
X106141711Y-86663573D01*
X106141711Y-86663573D02*
X105441711Y-86713573D01*
X105441711Y-86713573D02*
X104391711Y-86713573D01*
X104391711Y-86713573D02*
X103391711Y-86563573D01*
X103391711Y-86563573D02*
X102641711Y-86413573D01*
X102641711Y-86413573D02*
X101991711Y-86163573D01*
X101991711Y-86163573D02*
X101541711Y-85863573D01*
X101541711Y-85863573D02*
X101591711Y-86063573D01*
X101591711Y-86063573D02*
X101791711Y-86313573D01*
X101791711Y-86313573D02*
X102241711Y-86613573D01*
X102241711Y-86613573D02*
X103241711Y-86913573D01*
X103241711Y-86913573D02*
X104141711Y-87013573D01*
X104141711Y-87013573D02*
X105041711Y-87063573D01*
X105041711Y-87063573D02*
X105041711Y-87363573D01*
X105041711Y-87363573D02*
X104641711Y-87363573D01*
X104641711Y-87363573D02*
X103941711Y-87313573D01*
X103941711Y-87313573D02*
X103191711Y-87213573D01*
X103191711Y-87213573D02*
X102291711Y-86963573D01*
X102291711Y-86963573D02*
X101791711Y-86713573D01*
X101791711Y-86713573D02*
X101491711Y-86463573D01*
X101491711Y-86463573D02*
X101241711Y-86163573D01*
X101241711Y-86163573D02*
X101241711Y-85813573D01*
X101241711Y-85813573D02*
X101341711Y-85563573D01*
X101341711Y-85563573D02*
X101541711Y-85213573D01*
X101541711Y-85213573D02*
X101591711Y-85413573D01*
G36*
X101591711Y-85413573D02*
G01*
X101741711Y-85613573D01*
X102291711Y-85963573D01*
X102991711Y-86163573D01*
X103691711Y-86313573D01*
X104591711Y-86413573D01*
X105441711Y-86413573D01*
X106391711Y-86313573D01*
X106691711Y-86213573D01*
X106741711Y-86363573D01*
X106891711Y-86463573D01*
X107041711Y-86463573D01*
X107241711Y-86263573D01*
X107541711Y-86363573D01*
X107441711Y-86563573D01*
X107141711Y-86763573D01*
X106841711Y-86763573D01*
X106641711Y-86663573D01*
X106541711Y-86563573D01*
X106141711Y-86663573D01*
X105441711Y-86713573D01*
X104391711Y-86713573D01*
X103391711Y-86563573D01*
X102641711Y-86413573D01*
X101991711Y-86163573D01*
X101541711Y-85863573D01*
X101591711Y-86063573D01*
X101791711Y-86313573D01*
X102241711Y-86613573D01*
X103241711Y-86913573D01*
X104141711Y-87013573D01*
X105041711Y-87063573D01*
X105041711Y-87363573D01*
X104641711Y-87363573D01*
X103941711Y-87313573D01*
X103191711Y-87213573D01*
X102291711Y-86963573D01*
X101791711Y-86713573D01*
X101491711Y-86463573D01*
X101241711Y-86163573D01*
X101241711Y-85813573D01*
X101341711Y-85563573D01*
X101541711Y-85213573D01*
X101591711Y-85413573D01*
G37*
X101591711Y-85413573D02*
X101741711Y-85613573D01*
X102291711Y-85963573D01*
X102991711Y-86163573D01*
X103691711Y-86313573D01*
X104591711Y-86413573D01*
X105441711Y-86413573D01*
X106391711Y-86313573D01*
X106691711Y-86213573D01*
X106741711Y-86363573D01*
X106891711Y-86463573D01*
X107041711Y-86463573D01*
X107241711Y-86263573D01*
X107541711Y-86363573D01*
X107441711Y-86563573D01*
X107141711Y-86763573D01*
X106841711Y-86763573D01*
X106641711Y-86663573D01*
X106541711Y-86563573D01*
X106141711Y-86663573D01*
X105441711Y-86713573D01*
X104391711Y-86713573D01*
X103391711Y-86563573D01*
X102641711Y-86413573D01*
X101991711Y-86163573D01*
X101541711Y-85863573D01*
X101591711Y-86063573D01*
X101791711Y-86313573D01*
X102241711Y-86613573D01*
X103241711Y-86913573D01*
X104141711Y-87013573D01*
X105041711Y-87063573D01*
X105041711Y-87363573D01*
X104641711Y-87363573D01*
X103941711Y-87313573D01*
X103191711Y-87213573D01*
X102291711Y-86963573D01*
X101791711Y-86713573D01*
X101491711Y-86463573D01*
X101241711Y-86163573D01*
X101241711Y-85813573D01*
X101341711Y-85563573D01*
X101541711Y-85213573D01*
X101591711Y-85413573D01*
D13*
%TO.C,J12*%
X110684117Y-108818882D02*
X104032602Y-113476322D01*
X110534316Y-109668446D02*
X108936969Y-110786920D01*
X110330038Y-113473807D02*
X110616826Y-113883383D01*
X104032602Y-113476322D02*
X106739883Y-117342720D01*
X110166208Y-113588522D02*
X110330038Y-113473807D01*
X108896607Y-115087893D02*
X108609819Y-114678317D01*
X104882167Y-113626123D02*
X106889684Y-116493156D01*
X108691734Y-114620960D02*
X108978522Y-115030536D01*
X105359595Y-112302997D02*
X105113849Y-112475070D01*
X106129632Y-112007967D02*
X106479513Y-112507649D01*
X112181152Y-110956868D02*
X111681469Y-111306750D01*
X111435502Y-109891971D02*
X110935819Y-110241852D01*
X105416952Y-112384913D02*
X105171207Y-112556985D01*
X112541833Y-112535478D02*
X110534316Y-109668446D01*
X110534911Y-113940740D02*
X110248123Y-113531164D01*
X105529637Y-115614309D02*
X106029320Y-115264427D01*
X105474310Y-112466828D02*
X105359595Y-112302997D01*
X106889684Y-116493156D02*
X112541833Y-112535478D01*
X105113849Y-112475070D02*
X105228564Y-112638901D01*
X106739883Y-117342720D02*
X113391398Y-112685279D01*
X104638724Y-112685679D02*
X103614784Y-113402650D01*
X108814692Y-115145251D02*
X108527903Y-114735675D01*
X104783988Y-114549411D02*
X105283670Y-114199530D01*
X108936969Y-110786920D02*
X108587088Y-110287237D01*
X108527903Y-114735675D02*
X108691734Y-114620960D01*
X103614784Y-113402650D02*
X104331754Y-114426590D01*
X110452996Y-113998098D02*
X110166208Y-113588522D01*
X106479513Y-112507649D02*
X104882167Y-113626123D01*
X113391398Y-112685279D02*
X110684117Y-108818882D01*
%TO.C,J13*%
X99776200Y-106366000D02*
X109996200Y-106366000D01*
X97176200Y-109026000D02*
X97176200Y-107696000D01*
X99776200Y-109026000D02*
X109996200Y-109026000D01*
X98506200Y-109026000D02*
X97176200Y-109026000D01*
X99776200Y-109026000D02*
X99776200Y-106366000D01*
X109996200Y-109026000D02*
X109996200Y-106366000D01*
%TO.C,J9*%
X86754600Y-88941400D02*
X87754600Y-87941400D01*
X87754600Y-87941400D02*
X114124600Y-87941400D01*
X115124600Y-98071400D02*
X86754600Y-98071400D01*
X115124600Y-88941400D02*
X115124600Y-98071400D01*
X114124600Y-87941400D02*
X115124600Y-88941400D01*
X86754600Y-98071400D02*
X86754600Y-88941400D01*
%TO.C,J1*%
X79919376Y-86385310D02*
X79777954Y-86243888D01*
X84876194Y-86533802D02*
X85229748Y-86887356D01*
X88305662Y-83811441D02*
X85830788Y-81336567D01*
X85830788Y-81336567D02*
X84451930Y-82715426D01*
X83320559Y-88089437D02*
X83461981Y-87948016D01*
X79134487Y-86745934D02*
X78250604Y-87629818D01*
X79601178Y-88556128D02*
X80032513Y-88124792D01*
X83461981Y-87948016D02*
X83815534Y-88301569D01*
X80485061Y-85819624D02*
X80916396Y-86250959D01*
X82012412Y-90967362D02*
X89168332Y-83811441D01*
X85830788Y-80473897D02*
X78674868Y-87629818D01*
X83744823Y-88372280D02*
X83391270Y-88018726D01*
X86290408Y-85119589D02*
X86643961Y-85473142D01*
X86757098Y-81400207D02*
X86325763Y-81831542D01*
X80916396Y-86250959D02*
X79537538Y-87629818D01*
X79565822Y-86456020D02*
X79707244Y-86597442D01*
X86573251Y-85543853D02*
X86219697Y-85190299D01*
X78250604Y-87629818D02*
X79134487Y-88513701D01*
X79848665Y-86314599D02*
X79636533Y-86526731D01*
X87676337Y-82319446D02*
X87245002Y-82750781D01*
X80520416Y-89475366D02*
X80951752Y-89044031D01*
X86148986Y-85261010D02*
X86290408Y-85119589D01*
X83674113Y-88442990D02*
X83320559Y-88089437D01*
X86502540Y-85614563D02*
X86148986Y-85261010D01*
X85159037Y-86958066D02*
X84805484Y-86604513D01*
X78674868Y-87629818D02*
X82012412Y-90967362D01*
X89168332Y-83811441D02*
X85830788Y-80473897D01*
X85088326Y-87028777D02*
X84734773Y-86675224D01*
X82012412Y-90104691D02*
X88305662Y-83811441D01*
X79777954Y-86243888D02*
X79565822Y-86456020D01*
X84734773Y-86675224D02*
X84876194Y-86533802D01*
X79537538Y-87629818D02*
X82012412Y-90104691D01*
X84451930Y-82715426D02*
X84020595Y-82284090D01*
%TO.C,J3*%
X84346765Y-109496438D02*
X84240840Y-108895705D01*
X81206094Y-103835812D02*
X82268821Y-109862836D01*
X83284039Y-103469415D02*
X83389964Y-104070147D01*
X86298926Y-105537301D02*
X85698193Y-105643226D01*
X86258488Y-104732090D02*
X86206394Y-104436647D01*
X85627015Y-109270695D02*
X85521090Y-108669963D01*
X82338190Y-106743399D02*
X82830594Y-106656574D01*
X86917114Y-109043216D02*
X85854387Y-103016193D01*
X82763628Y-109156178D02*
X86210456Y-108548409D01*
X85698193Y-105643226D02*
X85359579Y-103722851D01*
X86356969Y-104714725D02*
X86304875Y-104419283D01*
X84564289Y-103243672D02*
X84670214Y-103844405D01*
X82813229Y-106558094D02*
X82847959Y-106755055D01*
X82268821Y-109862836D02*
X86917114Y-109043216D01*
X82847959Y-106755055D02*
X82355555Y-106841879D01*
X81912752Y-104330620D02*
X82763628Y-109156178D01*
X85871842Y-106628034D02*
X86472574Y-106522108D01*
X86097735Y-102668656D02*
X84866725Y-102885716D01*
X86210456Y-108548409D02*
X85871842Y-106628034D01*
X85854387Y-103016193D02*
X81206094Y-103835812D01*
X86160008Y-104749454D02*
X86356969Y-104714725D01*
X85359579Y-103722851D02*
X81912752Y-104330620D01*
X82320826Y-106644918D02*
X82813229Y-106558094D01*
X86304875Y-104419283D02*
X86107913Y-104454012D01*
X86314795Y-103899666D02*
X86097735Y-102668656D01*
%TO.C,J4*%
X123400097Y-109025989D02*
X124000830Y-109131915D01*
X124562452Y-107098548D02*
X124365491Y-107063819D01*
X119970725Y-104806380D02*
X118907998Y-110833403D01*
X120057459Y-107827336D02*
X120549863Y-107914160D01*
X124510358Y-107393991D02*
X124562452Y-107098548D01*
X119614656Y-110338596D02*
X123061483Y-110946365D01*
X124749494Y-106613661D02*
X124966554Y-105382651D01*
X124619017Y-105625999D02*
X119970725Y-104806380D01*
X124174478Y-108147107D02*
X123573745Y-108041182D01*
X123556290Y-111653023D02*
X124619017Y-105625999D01*
X120040094Y-107925817D02*
X120532498Y-108012641D01*
X122048669Y-105172777D02*
X121942744Y-105773510D01*
X123912359Y-106120807D02*
X120465532Y-105513038D01*
X123061483Y-110946365D02*
X123400097Y-109025989D01*
X120549863Y-107914160D02*
X120515133Y-108111122D01*
X122266192Y-111425544D02*
X122372118Y-110824811D01*
X124313396Y-107359261D02*
X124510358Y-107393991D01*
X120515133Y-108111122D02*
X120022729Y-108024298D01*
X120985942Y-111199801D02*
X121091868Y-110599068D01*
X123328919Y-105398520D02*
X123222994Y-105999253D01*
X120465532Y-105513038D02*
X119614656Y-110338596D01*
X124966554Y-105382651D02*
X123735544Y-105165591D01*
X123573745Y-108041182D02*
X123912359Y-106120807D01*
X118907998Y-110833403D02*
X123556290Y-111653023D01*
X124411877Y-107376626D02*
X124463972Y-107081183D01*
%TO.C,J5*%
X76261074Y-108330699D02*
X76861807Y-108224774D01*
X79275961Y-110398585D02*
X79170036Y-109797853D01*
X80647248Y-109537380D02*
X79796372Y-104711822D01*
X79746771Y-107309906D02*
X79712041Y-107112945D01*
X76688158Y-107239966D02*
X76087426Y-107345892D01*
X76203031Y-109153275D02*
X76255125Y-109448717D01*
X76705613Y-110851807D02*
X81353906Y-110032188D01*
X76255125Y-109448717D02*
X76452087Y-109413988D01*
X76932985Y-104597305D02*
X77038910Y-105198037D01*
X76349544Y-105319591D02*
X76688158Y-107239966D01*
X76301512Y-109135910D02*
X76353606Y-109431353D01*
X80239174Y-107223082D02*
X79746771Y-107309906D01*
X79796372Y-104711822D02*
X76349544Y-105319591D01*
X76861807Y-108224774D02*
X77200421Y-110145149D01*
X76245205Y-109968334D02*
X76462265Y-111199344D01*
X76462265Y-111199344D02*
X77693275Y-110982284D01*
X79712041Y-107112945D02*
X80204445Y-107026121D01*
X80221810Y-107124601D02*
X79729406Y-107211426D01*
X81353906Y-110032188D02*
X80291179Y-104005164D01*
X76399992Y-109118546D02*
X76203031Y-109153275D01*
X77200421Y-110145149D02*
X80647248Y-109537380D01*
X77995711Y-110624328D02*
X77889786Y-110023595D01*
X80291179Y-104005164D02*
X75642886Y-104824784D01*
X78213235Y-104371562D02*
X78319160Y-104972295D01*
X75642886Y-104824784D02*
X76705613Y-110851807D01*
%TO.C,J6*%
X118907689Y-106360626D02*
X118959784Y-106065183D01*
X116544481Y-104156777D02*
X116438556Y-104757510D01*
X114961344Y-104497038D02*
X114110468Y-109322596D01*
X119006170Y-106377991D02*
X119058264Y-106082548D01*
X114553271Y-106811336D02*
X115045675Y-106898160D01*
X119058264Y-106082548D02*
X118861303Y-106047819D01*
X114535906Y-106909817D02*
X115028310Y-106996641D01*
X115045675Y-106898160D02*
X115010945Y-107095122D01*
X117895909Y-108009989D02*
X118496642Y-108115915D01*
X118069557Y-107025182D02*
X118408171Y-105104807D01*
X119114829Y-104609999D02*
X114466537Y-103790380D01*
X115481754Y-110183801D02*
X115587680Y-109583068D01*
X118670290Y-107131107D02*
X118069557Y-107025182D01*
X113403810Y-109817403D02*
X118052102Y-110637023D01*
X118408171Y-105104807D02*
X114961344Y-104497038D01*
X118052102Y-110637023D02*
X119114829Y-104609999D01*
X119245306Y-105597661D02*
X119462366Y-104366651D01*
X118809208Y-106343261D02*
X119006170Y-106377991D01*
X119462366Y-104366651D02*
X118231356Y-104149591D01*
X116762004Y-110409544D02*
X116867930Y-109808811D01*
X114110468Y-109322596D02*
X117557295Y-109930365D01*
X117557295Y-109930365D02*
X117895909Y-108009989D01*
X117824731Y-104382520D02*
X117718806Y-104983253D01*
X115010945Y-107095122D02*
X114518541Y-107008298D01*
X114466537Y-103790380D02*
X113403810Y-109817403D01*
%TD*%
%LPC*%
D14*
%TO.C,J2*%
X91366600Y-112774310D03*
D15*
X94825638Y-109783080D03*
D16*
X92227562Y-108283080D03*
%TD*%
D17*
%TO.C,J7*%
X99022400Y-104038400D03*
X101022400Y-104038400D03*
D18*
X103022400Y-104038400D03*
%TD*%
D19*
%TO.C,J8*%
X83676400Y-95739200D03*
X83676400Y-97739200D03*
D20*
X83676400Y-99739200D03*
%TD*%
D21*
%TO.C,J10*%
X99415600Y-112725200D03*
D22*
X99415600Y-114725200D03*
X99415600Y-116725200D03*
%TD*%
D21*
%TO.C,J11*%
X102463600Y-112725200D03*
D22*
X102463600Y-114725200D03*
X102463600Y-116725200D03*
%TD*%
D23*
%TO.C,J12*%
X106758229Y-113777420D03*
D24*
X108396533Y-112630267D03*
X110034837Y-111483114D03*
%TD*%
D25*
%TO.C,J13*%
X98506200Y-107696000D03*
D26*
X101046200Y-107696000D03*
X103586200Y-107696000D03*
X106126200Y-107696000D03*
X108666200Y-107696000D03*
%TD*%
D27*
%TO.C,H1*%
X121920000Y-100000000D03*
%TD*%
%TO.C,H2*%
X78080000Y-100000000D03*
%TD*%
D28*
%TO.C,J9*%
X111439600Y-99971400D03*
X108439600Y-99971400D03*
X105439600Y-99971400D03*
X102439600Y-99971400D03*
X99439600Y-99971400D03*
X96439600Y-99971400D03*
X93439600Y-99971400D03*
X90439600Y-99971400D03*
X111439600Y-96971400D03*
X108439600Y-96971400D03*
X105439600Y-96971400D03*
X102439600Y-96971400D03*
X99439600Y-96971400D03*
X96439600Y-96971400D03*
X93439600Y-96971400D03*
D29*
X90439600Y-96971400D03*
D14*
X92599600Y-92651400D03*
X109299600Y-92651400D03*
%TD*%
D30*
%TO.C,J1*%
X81411371Y-87453041D03*
D31*
X82825585Y-86038827D03*
X84239798Y-84624614D03*
X85654012Y-83210400D03*
%TD*%
D32*
%TO.C,J3*%
X84429600Y-105359200D03*
D33*
X84776896Y-107328816D03*
%TD*%
D34*
%TO.C,J4*%
X122478800Y-107340400D03*
D35*
X122131504Y-109310016D03*
%TD*%
D36*
%TO.C,J5*%
X77783104Y-106539184D03*
D37*
X78130400Y-108508800D03*
%TD*%
D34*
%TO.C,J6*%
X116974612Y-106324400D03*
D35*
X116627316Y-108294016D03*
%TD*%
M02*
